<?xml version="1.0" encoding="UTF-8" standalone="no"?>
<!DOCTYPE svg PUBLIC "-//W3C//DTD SVG 1.1//EN"
 "http://www.w3.org/Graphics/SVG/1.1/DTD/svg11.dtd">
<!-- Generated by graphviz version 2.38.0 (20140413.2041)
 -->
<!-- Title: Tree Pages: 1 -->
<svg width="1520pt" height="685pt"
 viewBox="0.00 0.00 1519.50 685.00" xmlns="http://www.w3.org/2000/svg" xmlns:xlink="http://www.w3.org/1999/xlink">
<g id="graph0" class="graph" transform="scale(1 1) rotate(0) translate(4 681)">
<title>Tree</title>
<polygon fill="white" stroke="none" points="-4,4 -4,-681 1515.5,-681 1515.5,4 -4,4"/>
<!-- 0 -->
<g id="node1" class="node"><title>0</title>
<polygon fill="#39e581" fill-opacity="0.054902" stroke="black" points="1007.5,-677 789.5,-677 789.5,-609 1007.5,-609 1007.5,-677"/>
<text text-anchor="middle" x="898.5" y="-661.8" font-family="Times,serif" font-size="14.00">speech_emotional_NRC &lt;= 18.3738</text>
<text text-anchor="middle" x="898.5" y="-646.8" font-family="Times,serif" font-size="14.00">samples = 112</text>
<text text-anchor="middle" x="898.5" y="-631.8" font-family="Times,serif" font-size="14.00">value = [41, 45, 26]</text>
<text text-anchor="middle" x="898.5" y="-616.8" font-family="Times,serif" font-size="14.00">class = 0.5</text>
</g>
<!-- 1 -->
<g id="node2" class="node"><title>1</title>
<polygon fill="#39e581" fill-opacity="0.101961" stroke="black" points="879.5,-573 717.5,-573 717.5,-505 879.5,-505 879.5,-573"/>
<text text-anchor="middle" x="798.5" y="-557.8" font-family="Times,serif" font-size="14.00">positive_NRC &lt;= 20.2381</text>
<text text-anchor="middle" x="798.5" y="-542.8" font-family="Times,serif" font-size="14.00">samples = 72</text>
<text text-anchor="middle" x="798.5" y="-527.8" font-family="Times,serif" font-size="14.00">value = [32, 36, 4]</text>
<text text-anchor="middle" x="798.5" y="-512.8" font-family="Times,serif" font-size="14.00">class = 0.5</text>
</g>
<!-- 0&#45;&gt;1 -->
<g id="edge1" class="edge"><title>0&#45;&gt;1</title>
<path fill="none" stroke="black" d="M866.033,-608.884C857.213,-599.887 847.559,-590.041 838.381,-580.678"/>
<polygon fill="black" stroke="black" points="840.646,-577.99 831.146,-573.299 835.648,-582.89 840.646,-577.99"/>
<text text-anchor="middle" x="830.899" y="-594.598" font-family="Times,serif" font-size="14.00">True</text>
</g>
<!-- 26 -->
<g id="node27" class="node"><title>26</title>
<polygon fill="#8139e5" fill-opacity="0.419608" stroke="black" points="1099,-573 898,-573 898,-505 1099,-505 1099,-573"/>
<text text-anchor="middle" x="998.5" y="-557.8" font-family="Times,serif" font-size="14.00">narrated_neutral_NRC &lt;= 6.7615</text>
<text text-anchor="middle" x="998.5" y="-542.8" font-family="Times,serif" font-size="14.00">samples = 40</text>
<text text-anchor="middle" x="998.5" y="-527.8" font-family="Times,serif" font-size="14.00">value = [9, 9, 22]</text>
<text text-anchor="middle" x="998.5" y="-512.8" font-family="Times,serif" font-size="14.00">class = 1.0</text>
</g>
<!-- 0&#45;&gt;26 -->
<g id="edge26" class="edge"><title>0&#45;&gt;26</title>
<path fill="none" stroke="black" d="M930.967,-608.884C939.787,-599.887 949.441,-590.041 958.619,-580.678"/>
<polygon fill="black" stroke="black" points="961.352,-582.89 965.854,-573.299 956.354,-577.99 961.352,-582.89"/>
<text text-anchor="middle" x="966.101" y="-594.598" font-family="Times,serif" font-size="14.00">False</text>
</g>
<!-- 2 -->
<g id="node3" class="node"><title>2</title>
<polygon fill="#e58139" fill-opacity="0.176471" stroke="black" points="557,-469 346,-469 346,-401 557,-401 557,-469"/>
<text text-anchor="middle" x="451.5" y="-453.8" font-family="Times,serif" font-size="14.00">speech_emotional_NRC &lt;= 9.0148</text>
<text text-anchor="middle" x="451.5" y="-438.8" font-family="Times,serif" font-size="14.00">samples = 59</text>
<text text-anchor="middle" x="451.5" y="-423.8" font-family="Times,serif" font-size="14.00">value = [31, 25, 3]</text>
<text text-anchor="middle" x="451.5" y="-408.8" font-family="Times,serif" font-size="14.00">class = 0.0</text>
</g>
<!-- 1&#45;&gt;2 -->
<g id="edge2" class="edge"><title>1&#45;&gt;2</title>
<path fill="none" stroke="black" d="M717.144,-514.086C672.354,-500.92 616.023,-484.361 566.772,-469.884"/>
<polygon fill="black" stroke="black" points="567.603,-466.48 557.022,-467.018 565.629,-473.196 567.603,-466.48"/>
</g>
<!-- 19 -->
<g id="node20" class="node"><title>19</title>
<polygon fill="#39e581" fill-opacity="0.831373" stroke="black" points="886.5,-469 712.5,-469 712.5,-401 886.5,-401 886.5,-469"/>
<text text-anchor="middle" x="799.5" y="-453.8" font-family="Times,serif" font-size="14.00">emotional_NRC &lt;= 65.6897</text>
<text text-anchor="middle" x="799.5" y="-438.8" font-family="Times,serif" font-size="14.00">samples = 13</text>
<text text-anchor="middle" x="799.5" y="-423.8" font-family="Times,serif" font-size="14.00">value = [1, 11, 1]</text>
<text text-anchor="middle" x="799.5" y="-408.8" font-family="Times,serif" font-size="14.00">class = 0.5</text>
</g>
<!-- 1&#45;&gt;19 -->
<g id="edge19" class="edge"><title>1&#45;&gt;19</title>
<path fill="none" stroke="black" d="M798.825,-504.884C798.904,-496.778 798.99,-487.982 799.074,-479.472"/>
<polygon fill="black" stroke="black" points="802.575,-479.333 799.174,-469.299 795.576,-479.265 802.575,-479.333"/>
</g>
<!-- 3 -->
<g id="node4" class="node"><title>3</title>
<polygon fill="#e58139" fill-opacity="0.733333" stroke="black" points="267,-365 102,-365 102,-297 267,-297 267,-365"/>
<text text-anchor="middle" x="184.5" y="-349.8" font-family="Times,serif" font-size="14.00">negative_NRC &lt;= 20.4021</text>
<text text-anchor="middle" x="184.5" y="-334.8" font-family="Times,serif" font-size="14.00">samples = 19</text>
<text text-anchor="middle" x="184.5" y="-319.8" font-family="Times,serif" font-size="14.00">value = [15, 4, 0]</text>
<text text-anchor="middle" x="184.5" y="-304.8" font-family="Times,serif" font-size="14.00">class = 0.0</text>
</g>
<!-- 2&#45;&gt;3 -->
<g id="edge3" class="edge"><title>2&#45;&gt;3</title>
<path fill="none" stroke="black" d="M364.813,-400.884C336.631,-390.117 305.262,-378.134 276.693,-367.22"/>
<polygon fill="black" stroke="black" points="277.711,-363.862 267.121,-363.563 275.213,-370.401 277.711,-363.862"/>
</g>
<!-- 6 -->
<g id="node7" class="node"><title>6</title>
<polygon fill="#39e581" fill-opacity="0.207843" stroke="black" points="530,-365 373,-365 373,-297 530,-297 530,-365"/>
<text text-anchor="middle" x="451.5" y="-349.8" font-family="Times,serif" font-size="14.00">neutral_NRC &lt;= 41.3236</text>
<text text-anchor="middle" x="451.5" y="-334.8" font-family="Times,serif" font-size="14.00">samples = 40</text>
<text text-anchor="middle" x="451.5" y="-319.8" font-family="Times,serif" font-size="14.00">value = [16, 21, 3]</text>
<text text-anchor="middle" x="451.5" y="-304.8" font-family="Times,serif" font-size="14.00">class = 0.5</text>
</g>
<!-- 2&#45;&gt;6 -->
<g id="edge6" class="edge"><title>2&#45;&gt;6</title>
<path fill="none" stroke="black" d="M451.5,-400.884C451.5,-392.778 451.5,-383.982 451.5,-375.472"/>
<polygon fill="black" stroke="black" points="455,-375.299 451.5,-365.299 448,-375.299 455,-375.299"/>
</g>
<!-- 4 -->
<g id="node5" class="node"><title>4</title>
<polygon fill="#e58139" stroke="black" points="113,-253.5 0,-253.5 0,-200.5 113,-200.5 113,-253.5"/>
<text text-anchor="middle" x="56.5" y="-238.3" font-family="Times,serif" font-size="14.00">samples = 15</text>
<text text-anchor="middle" x="56.5" y="-223.3" font-family="Times,serif" font-size="14.00">value = [15, 0, 0]</text>
<text text-anchor="middle" x="56.5" y="-208.3" font-family="Times,serif" font-size="14.00">class = 0.0</text>
</g>
<!-- 3&#45;&gt;4 -->
<g id="edge4" class="edge"><title>3&#45;&gt;4</title>
<path fill="none" stroke="black" d="M142.942,-296.884C128.037,-285.006 111.272,-271.646 96.5013,-259.876"/>
<polygon fill="black" stroke="black" points="98.5269,-257.015 88.525,-253.52 94.1644,-262.489 98.5269,-257.015"/>
</g>
<!-- 5 -->
<g id="node6" class="node"><title>5</title>
<polygon fill="#39e581" stroke="black" points="237.5,-253.5 131.5,-253.5 131.5,-200.5 237.5,-200.5 237.5,-253.5"/>
<text text-anchor="middle" x="184.5" y="-238.3" font-family="Times,serif" font-size="14.00">samples = 4</text>
<text text-anchor="middle" x="184.5" y="-223.3" font-family="Times,serif" font-size="14.00">value = [0, 4, 0]</text>
<text text-anchor="middle" x="184.5" y="-208.3" font-family="Times,serif" font-size="14.00">class = 0.5</text>
</g>
<!-- 3&#45;&gt;5 -->
<g id="edge5" class="edge"><title>3&#45;&gt;5</title>
<path fill="none" stroke="black" d="M184.5,-296.884C184.5,-286.326 184.5,-274.597 184.5,-263.854"/>
<polygon fill="black" stroke="black" points="188,-263.52 184.5,-253.52 181,-263.52 188,-263.52"/>
</g>
<!-- 7 -->
<g id="node8" class="node"><title>7</title>
<polygon fill="#e58139" fill-opacity="0.800000" stroke="black" points="455.5,-261 255.5,-261 255.5,-193 455.5,-193 455.5,-261"/>
<text text-anchor="middle" x="355.5" y="-245.8" font-family="Times,serif" font-size="14.00">speech_neutral_NRC &lt;= 18.3261</text>
<text text-anchor="middle" x="355.5" y="-230.8" font-family="Times,serif" font-size="14.00">samples = 11</text>
<text text-anchor="middle" x="355.5" y="-215.8" font-family="Times,serif" font-size="14.00">value = [9, 1, 1]</text>
<text text-anchor="middle" x="355.5" y="-200.8" font-family="Times,serif" font-size="14.00">class = 0.0</text>
</g>
<!-- 6&#45;&gt;7 -->
<g id="edge7" class="edge"><title>6&#45;&gt;7</title>
<path fill="none" stroke="black" d="M420.332,-296.884C411.864,-287.887 402.597,-278.041 393.785,-268.678"/>
<polygon fill="black" stroke="black" points="396.243,-266.183 386.841,-261.299 391.146,-270.98 396.243,-266.183"/>
</g>
<!-- 12 -->
<g id="node13" class="node"><title>12</title>
<polygon fill="#39e581" fill-opacity="0.592157" stroke="black" points="603,-261 474,-261 474,-193 603,-193 603,-261"/>
<text text-anchor="middle" x="538.5" y="-245.8" font-family="Times,serif" font-size="14.00">narrated &lt;= 48.5459</text>
<text text-anchor="middle" x="538.5" y="-230.8" font-family="Times,serif" font-size="14.00">samples = 29</text>
<text text-anchor="middle" x="538.5" y="-215.8" font-family="Times,serif" font-size="14.00">value = [7, 20, 2]</text>
<text text-anchor="middle" x="538.5" y="-200.8" font-family="Times,serif" font-size="14.00">class = 0.5</text>
</g>
<!-- 6&#45;&gt;12 -->
<g id="edge12" class="edge"><title>6&#45;&gt;12</title>
<path fill="none" stroke="black" d="M479.746,-296.884C487.344,-287.976 495.652,-278.235 503.566,-268.957"/>
<polygon fill="black" stroke="black" points="506.271,-271.179 510.098,-261.299 500.945,-266.636 506.271,-271.179"/>
</g>
<!-- 8 -->
<g id="node9" class="node"><title>8</title>
<polygon fill="#e58139" fill-opacity="0.890196" stroke="black" points="284,-157 73,-157 73,-89 284,-89 284,-157"/>
<text text-anchor="middle" x="178.5" y="-141.8" font-family="Times,serif" font-size="14.00">speech_emotional_NRC &lt;= 9.5886</text>
<text text-anchor="middle" x="178.5" y="-126.8" font-family="Times,serif" font-size="14.00">samples = 10</text>
<text text-anchor="middle" x="178.5" y="-111.8" font-family="Times,serif" font-size="14.00">value = [9, 1, 0]</text>
<text text-anchor="middle" x="178.5" y="-96.8" font-family="Times,serif" font-size="14.00">class = 0.0</text>
</g>
<!-- 7&#45;&gt;8 -->
<g id="edge8" class="edge"><title>7&#45;&gt;8</title>
<path fill="none" stroke="black" d="M298.033,-192.884C281.099,-183.125 262.43,-172.366 244.98,-162.31"/>
<polygon fill="black" stroke="black" points="246.393,-159.085 235.981,-157.125 242.898,-165.15 246.393,-159.085"/>
</g>
<!-- 11 -->
<g id="node12" class="node"><title>11</title>
<polygon fill="#8139e5" stroke="black" points="408.5,-149.5 302.5,-149.5 302.5,-96.5 408.5,-96.5 408.5,-149.5"/>
<text text-anchor="middle" x="355.5" y="-134.3" font-family="Times,serif" font-size="14.00">samples = 1</text>
<text text-anchor="middle" x="355.5" y="-119.3" font-family="Times,serif" font-size="14.00">value = [0, 0, 1]</text>
<text text-anchor="middle" x="355.5" y="-104.3" font-family="Times,serif" font-size="14.00">class = 1.0</text>
</g>
<!-- 7&#45;&gt;11 -->
<g id="edge11" class="edge"><title>7&#45;&gt;11</title>
<path fill="none" stroke="black" d="M355.5,-192.884C355.5,-182.326 355.5,-170.597 355.5,-159.854"/>
<polygon fill="black" stroke="black" points="359,-159.52 355.5,-149.52 352,-159.52 359,-159.52"/>
</g>
<!-- 9 -->
<g id="node10" class="node"><title>9</title>
<polygon fill="#39e581" stroke="black" points="130.5,-53 24.5,-53 24.5,-0 130.5,-0 130.5,-53"/>
<text text-anchor="middle" x="77.5" y="-37.8" font-family="Times,serif" font-size="14.00">samples = 1</text>
<text text-anchor="middle" x="77.5" y="-22.8" font-family="Times,serif" font-size="14.00">value = [0, 1, 0]</text>
<text text-anchor="middle" x="77.5" y="-7.8" font-family="Times,serif" font-size="14.00">class = 0.5</text>
</g>
<!-- 8&#45;&gt;9 -->
<g id="edge9" class="edge"><title>8&#45;&gt;9</title>
<path fill="none" stroke="black" d="M143.175,-88.9485C133.202,-79.6175 122.359,-69.4722 112.411,-60.1641"/>
<polygon fill="black" stroke="black" points="114.7,-57.5132 105.007,-53.2367 109.918,-62.6247 114.7,-57.5132"/>
</g>
<!-- 10 -->
<g id="node11" class="node"><title>10</title>
<polygon fill="#e58139" stroke="black" points="254.5,-53 148.5,-53 148.5,-0 254.5,-0 254.5,-53"/>
<text text-anchor="middle" x="201.5" y="-37.8" font-family="Times,serif" font-size="14.00">samples = 9</text>
<text text-anchor="middle" x="201.5" y="-22.8" font-family="Times,serif" font-size="14.00">value = [9, 0, 0]</text>
<text text-anchor="middle" x="201.5" y="-7.8" font-family="Times,serif" font-size="14.00">class = 0.0</text>
</g>
<!-- 8&#45;&gt;10 -->
<g id="edge10" class="edge"><title>8&#45;&gt;10</title>
<path fill="none" stroke="black" d="M186.544,-88.9485C188.57,-80.6238 190.754,-71.6509 192.81,-63.2027"/>
<polygon fill="black" stroke="black" points="196.272,-63.7808 195.236,-53.2367 189.47,-62.1253 196.272,-63.7808"/>
</g>
<!-- 13 -->
<g id="node14" class="node"><title>13</title>
<polygon fill="#e58139" fill-opacity="0.749020" stroke="black" points="548.5,-157 426.5,-157 426.5,-89 548.5,-89 548.5,-157"/>
<text text-anchor="middle" x="487.5" y="-141.8" font-family="Times,serif" font-size="14.00">speech &lt;= 57.7879</text>
<text text-anchor="middle" x="487.5" y="-126.8" font-family="Times,serif" font-size="14.00">samples = 5</text>
<text text-anchor="middle" x="487.5" y="-111.8" font-family="Times,serif" font-size="14.00">value = [4, 1, 0]</text>
<text text-anchor="middle" x="487.5" y="-96.8" font-family="Times,serif" font-size="14.00">class = 0.0</text>
</g>
<!-- 12&#45;&gt;13 -->
<g id="edge13" class="edge"><title>12&#45;&gt;13</title>
<path fill="none" stroke="black" d="M521.942,-192.884C517.711,-184.422 513.104,-175.207 508.676,-166.352"/>
<polygon fill="black" stroke="black" points="511.752,-164.678 504.15,-157.299 505.491,-167.809 511.752,-164.678"/>
</g>
<!-- 16 -->
<g id="node17" class="node"><title>16</title>
<polygon fill="#39e581" fill-opacity="0.760784" stroke="black" points="728.5,-157 566.5,-157 566.5,-89 728.5,-89 728.5,-157"/>
<text text-anchor="middle" x="647.5" y="-141.8" font-family="Times,serif" font-size="14.00">positive_NRC &lt;= 18.1328</text>
<text text-anchor="middle" x="647.5" y="-126.8" font-family="Times,serif" font-size="14.00">samples = 24</text>
<text text-anchor="middle" x="647.5" y="-111.8" font-family="Times,serif" font-size="14.00">value = [3, 19, 2]</text>
<text text-anchor="middle" x="647.5" y="-96.8" font-family="Times,serif" font-size="14.00">class = 0.5</text>
</g>
<!-- 12&#45;&gt;16 -->
<g id="edge16" class="edge"><title>12&#45;&gt;16</title>
<path fill="none" stroke="black" d="M573.889,-192.884C583.598,-183.798 594.234,-173.845 604.327,-164.4"/>
<polygon fill="black" stroke="black" points="607.005,-166.688 611.915,-157.299 602.222,-161.577 607.005,-166.688"/>
</g>
<!-- 14 -->
<g id="node15" class="node"><title>14</title>
<polygon fill="#e58139" stroke="black" points="424.5,-53 318.5,-53 318.5,-0 424.5,-0 424.5,-53"/>
<text text-anchor="middle" x="371.5" y="-37.8" font-family="Times,serif" font-size="14.00">samples = 4</text>
<text text-anchor="middle" x="371.5" y="-22.8" font-family="Times,serif" font-size="14.00">value = [4, 0, 0]</text>
<text text-anchor="middle" x="371.5" y="-7.8" font-family="Times,serif" font-size="14.00">class = 0.0</text>
</g>
<!-- 13&#45;&gt;14 -->
<g id="edge14" class="edge"><title>13&#45;&gt;14</title>
<path fill="none" stroke="black" d="M446.929,-88.9485C435.25,-79.4346 422.533,-69.074 410.925,-59.6175"/>
<polygon fill="black" stroke="black" points="413.056,-56.8392 403.092,-53.2367 408.635,-62.2663 413.056,-56.8392"/>
</g>
<!-- 15 -->
<g id="node16" class="node"><title>15</title>
<polygon fill="#39e581" stroke="black" points="548.5,-53 442.5,-53 442.5,-0 548.5,-0 548.5,-53"/>
<text text-anchor="middle" x="495.5" y="-37.8" font-family="Times,serif" font-size="14.00">samples = 1</text>
<text text-anchor="middle" x="495.5" y="-22.8" font-family="Times,serif" font-size="14.00">value = [0, 1, 0]</text>
<text text-anchor="middle" x="495.5" y="-7.8" font-family="Times,serif" font-size="14.00">class = 0.5</text>
</g>
<!-- 13&#45;&gt;15 -->
<g id="edge15" class="edge"><title>13&#45;&gt;15</title>
<path fill="none" stroke="black" d="M490.298,-88.9485C491.003,-80.6238 491.762,-71.6509 492.478,-63.2027"/>
<polygon fill="black" stroke="black" points="495.965,-63.4963 493.321,-53.2367 488.99,-62.9058 495.965,-63.4963"/>
</g>
<!-- 17 -->
<g id="node18" class="node"><title>17</title>
<polygon fill="#39e581" fill-opacity="0.850980" stroke="black" points="696,-53 583,-53 583,-0 696,-0 696,-53"/>
<text text-anchor="middle" x="639.5" y="-37.8" font-family="Times,serif" font-size="14.00">samples = 22</text>
<text text-anchor="middle" x="639.5" y="-22.8" font-family="Times,serif" font-size="14.00">value = [2, 19, 1]</text>
<text text-anchor="middle" x="639.5" y="-7.8" font-family="Times,serif" font-size="14.00">class = 0.5</text>
</g>
<!-- 16&#45;&gt;17 -->
<g id="edge17" class="edge"><title>16&#45;&gt;17</title>
<path fill="none" stroke="black" d="M644.702,-88.9485C643.997,-80.6238 643.238,-71.6509 642.522,-63.2027"/>
<polygon fill="black" stroke="black" points="646.01,-62.9058 641.679,-53.2367 639.035,-63.4963 646.01,-62.9058"/>
</g>
<!-- 18 -->
<g id="node19" class="node"><title>18</title>
<polygon fill="none" stroke="black" points="820.5,-53 714.5,-53 714.5,-0 820.5,-0 820.5,-53"/>
<text text-anchor="middle" x="767.5" y="-37.8" font-family="Times,serif" font-size="14.00">samples = 2</text>
<text text-anchor="middle" x="767.5" y="-22.8" font-family="Times,serif" font-size="14.00">value = [1, 0, 1]</text>
<text text-anchor="middle" x="767.5" y="-7.8" font-family="Times,serif" font-size="14.00">class = 0.0</text>
</g>
<!-- 16&#45;&gt;18 -->
<g id="edge18" class="edge"><title>16&#45;&gt;18</title>
<path fill="none" stroke="black" d="M689.47,-88.9485C701.551,-79.4346 714.708,-69.074 726.716,-59.6175"/>
<polygon fill="black" stroke="black" points="729.128,-62.1734 734.818,-53.2367 724.797,-56.6739 729.128,-62.1734"/>
</g>
<!-- 20 -->
<g id="node21" class="node"><title>20</title>
<polygon fill="#39e581" fill-opacity="0.909804" stroke="black" points="901.5,-365 697.5,-365 697.5,-297 901.5,-297 901.5,-365"/>
<text text-anchor="middle" x="799.5" y="-349.8" font-family="Times,serif" font-size="14.00">speech_emotional_NRC &lt;= 8.866</text>
<text text-anchor="middle" x="799.5" y="-334.8" font-family="Times,serif" font-size="14.00">samples = 12</text>
<text text-anchor="middle" x="799.5" y="-319.8" font-family="Times,serif" font-size="14.00">value = [1, 11, 0]</text>
<text text-anchor="middle" x="799.5" y="-304.8" font-family="Times,serif" font-size="14.00">class = 0.5</text>
</g>
<!-- 19&#45;&gt;20 -->
<g id="edge20" class="edge"><title>19&#45;&gt;20</title>
<path fill="none" stroke="black" d="M799.5,-400.884C799.5,-392.778 799.5,-383.982 799.5,-375.472"/>
<polygon fill="black" stroke="black" points="803,-375.299 799.5,-365.299 796,-375.299 803,-375.299"/>
</g>
<!-- 25 -->
<g id="node26" class="node"><title>25</title>
<polygon fill="#8139e5" stroke="black" points="1025.5,-357.5 919.5,-357.5 919.5,-304.5 1025.5,-304.5 1025.5,-357.5"/>
<text text-anchor="middle" x="972.5" y="-342.3" font-family="Times,serif" font-size="14.00">samples = 1</text>
<text text-anchor="middle" x="972.5" y="-327.3" font-family="Times,serif" font-size="14.00">value = [0, 0, 1]</text>
<text text-anchor="middle" x="972.5" y="-312.3" font-family="Times,serif" font-size="14.00">class = 1.0</text>
</g>
<!-- 19&#45;&gt;25 -->
<g id="edge25" class="edge"><title>19&#45;&gt;25</title>
<path fill="none" stroke="black" d="M855.668,-400.884C876.467,-388.621 899.944,-374.779 920.368,-362.737"/>
<polygon fill="black" stroke="black" points="922.38,-365.614 929.216,-357.52 918.824,-359.584 922.38,-365.614"/>
</g>
<!-- 21 -->
<g id="node22" class="node"><title>21</title>
<polygon fill="#39e581" fill-opacity="0.666667" stroke="black" points="852.5,-261 746.5,-261 746.5,-193 852.5,-193 852.5,-261"/>
<text text-anchor="middle" x="799.5" y="-245.8" font-family="Times,serif" font-size="14.00">section &lt;= 3.0</text>
<text text-anchor="middle" x="799.5" y="-230.8" font-family="Times,serif" font-size="14.00">samples = 4</text>
<text text-anchor="middle" x="799.5" y="-215.8" font-family="Times,serif" font-size="14.00">value = [1, 3, 0]</text>
<text text-anchor="middle" x="799.5" y="-200.8" font-family="Times,serif" font-size="14.00">class = 0.5</text>
</g>
<!-- 20&#45;&gt;21 -->
<g id="edge21" class="edge"><title>20&#45;&gt;21</title>
<path fill="none" stroke="black" d="M799.5,-296.884C799.5,-288.778 799.5,-279.982 799.5,-271.472"/>
<polygon fill="black" stroke="black" points="803,-271.299 799.5,-261.299 796,-271.299 803,-271.299"/>
</g>
<!-- 24 -->
<g id="node25" class="node"><title>24</title>
<polygon fill="#39e581" stroke="black" points="976.5,-253.5 870.5,-253.5 870.5,-200.5 976.5,-200.5 976.5,-253.5"/>
<text text-anchor="middle" x="923.5" y="-238.3" font-family="Times,serif" font-size="14.00">samples = 8</text>
<text text-anchor="middle" x="923.5" y="-223.3" font-family="Times,serif" font-size="14.00">value = [0, 8, 0]</text>
<text text-anchor="middle" x="923.5" y="-208.3" font-family="Times,serif" font-size="14.00">class = 0.5</text>
</g>
<!-- 20&#45;&gt;24 -->
<g id="edge24" class="edge"><title>20&#45;&gt;24</title>
<path fill="none" stroke="black" d="M839.759,-296.884C854.199,-285.006 870.44,-271.646 884.749,-259.876"/>
<polygon fill="black" stroke="black" points="886.976,-262.576 892.476,-253.52 882.529,-257.17 886.976,-262.576"/>
</g>
<!-- 22 -->
<g id="node23" class="node"><title>22</title>
<polygon fill="#39e581" stroke="black" points="852.5,-149.5 746.5,-149.5 746.5,-96.5 852.5,-96.5 852.5,-149.5"/>
<text text-anchor="middle" x="799.5" y="-134.3" font-family="Times,serif" font-size="14.00">samples = 3</text>
<text text-anchor="middle" x="799.5" y="-119.3" font-family="Times,serif" font-size="14.00">value = [0, 3, 0]</text>
<text text-anchor="middle" x="799.5" y="-104.3" font-family="Times,serif" font-size="14.00">class = 0.5</text>
</g>
<!-- 21&#45;&gt;22 -->
<g id="edge22" class="edge"><title>21&#45;&gt;22</title>
<path fill="none" stroke="black" d="M799.5,-192.884C799.5,-182.326 799.5,-170.597 799.5,-159.854"/>
<polygon fill="black" stroke="black" points="803,-159.52 799.5,-149.52 796,-159.52 803,-159.52"/>
</g>
<!-- 23 -->
<g id="node24" class="node"><title>23</title>
<polygon fill="#e58139" stroke="black" points="976.5,-149.5 870.5,-149.5 870.5,-96.5 976.5,-96.5 976.5,-149.5"/>
<text text-anchor="middle" x="923.5" y="-134.3" font-family="Times,serif" font-size="14.00">samples = 1</text>
<text text-anchor="middle" x="923.5" y="-119.3" font-family="Times,serif" font-size="14.00">value = [1, 0, 0]</text>
<text text-anchor="middle" x="923.5" y="-104.3" font-family="Times,serif" font-size="14.00">class = 0.0</text>
</g>
<!-- 21&#45;&gt;23 -->
<g id="edge23" class="edge"><title>21&#45;&gt;23</title>
<path fill="none" stroke="black" d="M839.759,-192.884C854.199,-181.006 870.44,-167.646 884.749,-155.876"/>
<polygon fill="black" stroke="black" points="886.976,-158.576 892.476,-149.52 882.529,-153.17 886.976,-158.576"/>
</g>
<!-- 27 -->
<g id="node28" class="node"><title>27</title>
<polygon fill="#e58139" stroke="black" points="1050.5,-461.5 944.5,-461.5 944.5,-408.5 1050.5,-408.5 1050.5,-461.5"/>
<text text-anchor="middle" x="997.5" y="-446.3" font-family="Times,serif" font-size="14.00">samples = 4</text>
<text text-anchor="middle" x="997.5" y="-431.3" font-family="Times,serif" font-size="14.00">value = [4, 0, 0]</text>
<text text-anchor="middle" x="997.5" y="-416.3" font-family="Times,serif" font-size="14.00">class = 0.0</text>
</g>
<!-- 26&#45;&gt;27 -->
<g id="edge27" class="edge"><title>26&#45;&gt;27</title>
<path fill="none" stroke="black" d="M998.175,-504.884C998.072,-494.326 997.957,-482.597 997.852,-471.854"/>
<polygon fill="black" stroke="black" points="1001.35,-471.485 997.75,-461.52 994.348,-471.554 1001.35,-471.485"/>
</g>
<!-- 28 -->
<g id="node29" class="node"><title>28</title>
<polygon fill="#8139e5" fill-opacity="0.482353" stroke="black" points="1224,-469 1069,-469 1069,-401 1224,-401 1224,-469"/>
<text text-anchor="middle" x="1146.5" y="-453.8" font-family="Times,serif" font-size="14.00">positive_NRC &lt;= 30.357</text>
<text text-anchor="middle" x="1146.5" y="-438.8" font-family="Times,serif" font-size="14.00">samples = 36</text>
<text text-anchor="middle" x="1146.5" y="-423.8" font-family="Times,serif" font-size="14.00">value = [5, 9, 22]</text>
<text text-anchor="middle" x="1146.5" y="-408.8" font-family="Times,serif" font-size="14.00">class = 1.0</text>
</g>
<!-- 26&#45;&gt;28 -->
<g id="edge28" class="edge"><title>26&#45;&gt;28</title>
<path fill="none" stroke="black" d="M1046.55,-504.884C1060.45,-495.304 1075.75,-484.761 1090.11,-474.864"/>
<polygon fill="black" stroke="black" points="1092.19,-477.681 1098.44,-469.125 1088.22,-471.918 1092.19,-477.681"/>
</g>
<!-- 29 -->
<g id="node30" class="node"><title>29</title>
<polygon fill="#8139e5" fill-opacity="0.592157" stroke="black" points="1245.5,-365 1045.5,-365 1045.5,-297 1245.5,-297 1245.5,-365"/>
<text text-anchor="middle" x="1145.5" y="-349.8" font-family="Times,serif" font-size="14.00">speech_neutral_NRC &lt;= 14.1937</text>
<text text-anchor="middle" x="1145.5" y="-334.8" font-family="Times,serif" font-size="14.00">samples = 33</text>
<text text-anchor="middle" x="1145.5" y="-319.8" font-family="Times,serif" font-size="14.00">value = [5, 6, 22]</text>
<text text-anchor="middle" x="1145.5" y="-304.8" font-family="Times,serif" font-size="14.00">class = 1.0</text>
</g>
<!-- 28&#45;&gt;29 -->
<g id="edge29" class="edge"><title>28&#45;&gt;29</title>
<path fill="none" stroke="black" d="M1146.18,-400.884C1146.1,-392.778 1146.01,-383.982 1145.93,-375.472"/>
<polygon fill="black" stroke="black" points="1149.42,-375.265 1145.83,-365.299 1142.42,-375.333 1149.42,-375.265"/>
</g>
<!-- 38 -->
<g id="node39" class="node"><title>38</title>
<polygon fill="#39e581" stroke="black" points="1369.5,-357.5 1263.5,-357.5 1263.5,-304.5 1369.5,-304.5 1369.5,-357.5"/>
<text text-anchor="middle" x="1316.5" y="-342.3" font-family="Times,serif" font-size="14.00">samples = 3</text>
<text text-anchor="middle" x="1316.5" y="-327.3" font-family="Times,serif" font-size="14.00">value = [0, 3, 0]</text>
<text text-anchor="middle" x="1316.5" y="-312.3" font-family="Times,serif" font-size="14.00">class = 0.5</text>
</g>
<!-- 28&#45;&gt;38 -->
<g id="edge38" class="edge"><title>28&#45;&gt;38</title>
<path fill="none" stroke="black" d="M1201.69,-400.884C1222.13,-388.621 1245.2,-374.779 1265.27,-362.737"/>
<polygon fill="black" stroke="black" points="1267.19,-365.666 1273.97,-357.52 1263.59,-359.664 1267.19,-365.666"/>
</g>
<!-- 30 -->
<g id="node31" class="node"><title>30</title>
<polygon fill="#e58139" stroke="black" points="1149.5,-253.5 1043.5,-253.5 1043.5,-200.5 1149.5,-200.5 1149.5,-253.5"/>
<text text-anchor="middle" x="1096.5" y="-238.3" font-family="Times,serif" font-size="14.00">samples = 2</text>
<text text-anchor="middle" x="1096.5" y="-223.3" font-family="Times,serif" font-size="14.00">value = [2, 0, 0]</text>
<text text-anchor="middle" x="1096.5" y="-208.3" font-family="Times,serif" font-size="14.00">class = 0.0</text>
</g>
<!-- 29&#45;&gt;30 -->
<g id="edge30" class="edge"><title>29&#45;&gt;30</title>
<path fill="none" stroke="black" d="M1129.59,-296.884C1124.36,-285.996 1118.53,-273.863 1113.24,-262.85"/>
<polygon fill="black" stroke="black" points="1116.24,-261.018 1108.76,-253.52 1109.93,-264.049 1116.24,-261.018"/>
</g>
<!-- 31 -->
<g id="node32" class="node"><title>31</title>
<polygon fill="#8139e5" fill-opacity="0.639216" stroke="black" points="1367.5,-261 1167.5,-261 1167.5,-193 1367.5,-193 1367.5,-261"/>
<text text-anchor="middle" x="1267.5" y="-245.8" font-family="Times,serif" font-size="14.00">speech_neutral_NRC &lt;= 51.4597</text>
<text text-anchor="middle" x="1267.5" y="-230.8" font-family="Times,serif" font-size="14.00">samples = 31</text>
<text text-anchor="middle" x="1267.5" y="-215.8" font-family="Times,serif" font-size="14.00">value = [3, 6, 22]</text>
<text text-anchor="middle" x="1267.5" y="-200.8" font-family="Times,serif" font-size="14.00">class = 1.0</text>
</g>
<!-- 29&#45;&gt;31 -->
<g id="edge31" class="edge"><title>29&#45;&gt;31</title>
<path fill="none" stroke="black" d="M1185.11,-296.884C1196.19,-287.62 1208.35,-277.455 1219.84,-267.845"/>
<polygon fill="black" stroke="black" points="1222.24,-270.399 1227.67,-261.299 1217.75,-265.028 1222.24,-270.399"/>
</g>
<!-- 32 -->
<g id="node33" class="node"><title>32</title>
<polygon fill="#8139e5" fill-opacity="0.749020" stroke="black" points="1258,-157 1129,-157 1129,-89 1258,-89 1258,-157"/>
<text text-anchor="middle" x="1193.5" y="-141.8" font-family="Times,serif" font-size="14.00">narrated &lt;= 46.1917</text>
<text text-anchor="middle" x="1193.5" y="-126.8" font-family="Times,serif" font-size="14.00">samples = 28</text>
<text text-anchor="middle" x="1193.5" y="-111.8" font-family="Times,serif" font-size="14.00">value = [2, 4, 22]</text>
<text text-anchor="middle" x="1193.5" y="-96.8" font-family="Times,serif" font-size="14.00">class = 1.0</text>
</g>
<!-- 31&#45;&gt;32 -->
<g id="edge32" class="edge"><title>31&#45;&gt;32</title>
<path fill="none" stroke="black" d="M1243.47,-192.884C1237.14,-184.154 1230.23,-174.625 1223.62,-165.514"/>
<polygon fill="black" stroke="black" points="1226.36,-163.338 1217.66,-157.299 1220.7,-167.449 1226.36,-163.338"/>
</g>
<!-- 35 -->
<g id="node36" class="node"><title>35</title>
<polygon fill="#39e581" fill-opacity="0.498039" stroke="black" points="1405,-157 1276,-157 1276,-89 1405,-89 1405,-157"/>
<text text-anchor="middle" x="1340.5" y="-141.8" font-family="Times,serif" font-size="14.00">narrated &lt;= 22.6869</text>
<text text-anchor="middle" x="1340.5" y="-126.8" font-family="Times,serif" font-size="14.00">samples = 3</text>
<text text-anchor="middle" x="1340.5" y="-111.8" font-family="Times,serif" font-size="14.00">value = [1, 2, 0]</text>
<text text-anchor="middle" x="1340.5" y="-96.8" font-family="Times,serif" font-size="14.00">class = 0.5</text>
</g>
<!-- 31&#45;&gt;35 -->
<g id="edge35" class="edge"><title>31&#45;&gt;35</title>
<path fill="none" stroke="black" d="M1291.2,-192.884C1297.45,-184.154 1304.27,-174.625 1310.79,-165.514"/>
<polygon fill="black" stroke="black" points="1313.69,-167.468 1316.67,-157.299 1308,-163.394 1313.69,-167.468"/>
</g>
<!-- 33 -->
<g id="node34" class="node"><title>33</title>
<polygon fill="#8139e5" fill-opacity="0.937255" stroke="black" points="1133,-53 1020,-53 1020,-0 1133,-0 1133,-53"/>
<text text-anchor="middle" x="1076.5" y="-37.8" font-family="Times,serif" font-size="14.00">samples = 17</text>
<text text-anchor="middle" x="1076.5" y="-22.8" font-family="Times,serif" font-size="14.00">value = [0, 1, 16]</text>
<text text-anchor="middle" x="1076.5" y="-7.8" font-family="Times,serif" font-size="14.00">class = 1.0</text>
</g>
<!-- 32&#45;&gt;33 -->
<g id="edge33" class="edge"><title>32&#45;&gt;33</title>
<path fill="none" stroke="black" d="M1152.58,-88.9485C1140.8,-79.4346 1127.97,-69.074 1116.26,-59.6175"/>
<polygon fill="black" stroke="black" points="1118.34,-56.7973 1108.36,-53.2367 1113.94,-62.2429 1118.34,-56.7973"/>
</g>
<!-- 34 -->
<g id="node35" class="node"><title>34</title>
<polygon fill="#8139e5" fill-opacity="0.376471" stroke="black" points="1257.5,-53 1151.5,-53 1151.5,-0 1257.5,-0 1257.5,-53"/>
<text text-anchor="middle" x="1204.5" y="-37.8" font-family="Times,serif" font-size="14.00">samples = 11</text>
<text text-anchor="middle" x="1204.5" y="-22.8" font-family="Times,serif" font-size="14.00">value = [2, 3, 6]</text>
<text text-anchor="middle" x="1204.5" y="-7.8" font-family="Times,serif" font-size="14.00">class = 1.0</text>
</g>
<!-- 32&#45;&gt;34 -->
<g id="edge34" class="edge"><title>32&#45;&gt;34</title>
<path fill="none" stroke="black" d="M1197.35,-88.9485C1198.32,-80.6238 1199.36,-71.6509 1200.34,-63.2027"/>
<polygon fill="black" stroke="black" points="1203.82,-63.5743 1201.5,-53.2367 1196.87,-62.7649 1203.82,-63.5743"/>
</g>
<!-- 36 -->
<g id="node37" class="node"><title>36</title>
<polygon fill="#e58139" stroke="black" points="1387.5,-53 1281.5,-53 1281.5,-0 1387.5,-0 1387.5,-53"/>
<text text-anchor="middle" x="1334.5" y="-37.8" font-family="Times,serif" font-size="14.00">samples = 1</text>
<text text-anchor="middle" x="1334.5" y="-22.8" font-family="Times,serif" font-size="14.00">value = [1, 0, 0]</text>
<text text-anchor="middle" x="1334.5" y="-7.8" font-family="Times,serif" font-size="14.00">class = 0.0</text>
</g>
<!-- 35&#45;&gt;36 -->
<g id="edge36" class="edge"><title>35&#45;&gt;36</title>
<path fill="none" stroke="black" d="M1338.4,-88.9485C1337.88,-80.7153 1337.32,-71.848 1336.78,-63.4814"/>
<polygon fill="black" stroke="black" points="1340.26,-62.9948 1336.13,-53.2367 1333.27,-63.4384 1340.26,-62.9948"/>
</g>
<!-- 37 -->
<g id="node38" class="node"><title>37</title>
<polygon fill="#39e581" stroke="black" points="1511.5,-53 1405.5,-53 1405.5,-0 1511.5,-0 1511.5,-53"/>
<text text-anchor="middle" x="1458.5" y="-37.8" font-family="Times,serif" font-size="14.00">samples = 2</text>
<text text-anchor="middle" x="1458.5" y="-22.8" font-family="Times,serif" font-size="14.00">value = [0, 2, 0]</text>
<text text-anchor="middle" x="1458.5" y="-7.8" font-family="Times,serif" font-size="14.00">class = 0.5</text>
</g>
<!-- 35&#45;&gt;37 -->
<g id="edge37" class="edge"><title>35&#45;&gt;37</title>
<path fill="none" stroke="black" d="M1381.77,-88.9485C1393.65,-79.4346 1406.59,-69.074 1418.4,-59.6175"/>
<polygon fill="black" stroke="black" points="1420.75,-62.2196 1426.36,-53.2367 1416.37,-56.7558 1420.75,-62.2196"/>
</g>
</g>
</svg>
