<?xml version="1.0" encoding="UTF-8" standalone="no"?>
<!DOCTYPE svg PUBLIC "-//W3C//DTD SVG 1.1//EN"
 "http://www.w3.org/Graphics/SVG/1.1/DTD/svg11.dtd">
<!-- Generated by graphviz version 2.38.0 (20140413.2041)
 -->
<!-- Title: Tree Pages: 1 -->
<svg width="1505pt" height="581pt"
 viewBox="0.00 0.00 1505.00 581.00" xmlns="http://www.w3.org/2000/svg" xmlns:xlink="http://www.w3.org/1999/xlink">
<g id="graph0" class="graph" transform="scale(1 1) rotate(0) translate(4 577)">
<title>Tree</title>
<polygon fill="white" stroke="none" points="-4,4 -4,-577 1501,-577 1501,4 -4,4"/>
<!-- 0 -->
<g id="node1" class="node"><title>0</title>
<polygon fill="#39e581" fill-opacity="0.054902" stroke="black" points="987,-573 805,-573 805,-505 987,-505 987,-573"/>
<text text-anchor="middle" x="896" y="-557.8" font-family="Times,serif" font-size="14.00">Joy_NRC_narrated &lt;= 1.4807</text>
<text text-anchor="middle" x="896" y="-542.8" font-family="Times,serif" font-size="14.00">samples = 112</text>
<text text-anchor="middle" x="896" y="-527.8" font-family="Times,serif" font-size="14.00">value = [41, 45, 26]</text>
<text text-anchor="middle" x="896" y="-512.8" font-family="Times,serif" font-size="14.00">class = 0.5</text>
</g>
<!-- 1 -->
<g id="node2" class="node"><title>1</title>
<polygon fill="#e58139" fill-opacity="0.490196" stroke="black" points="855,-469 665,-469 665,-401 855,-401 855,-469"/>
<text text-anchor="middle" x="760" y="-453.8" font-family="Times,serif" font-size="14.00">Anger_NRC_speech &lt;= 1.3037</text>
<text text-anchor="middle" x="760" y="-438.8" font-family="Times,serif" font-size="14.00">samples = 58</text>
<text text-anchor="middle" x="760" y="-423.8" font-family="Times,serif" font-size="14.00">value = [35, 13, 10]</text>
<text text-anchor="middle" x="760" y="-408.8" font-family="Times,serif" font-size="14.00">class = 0.0</text>
</g>
<!-- 0&#45;&gt;1 -->
<g id="edge1" class="edge"><title>0&#45;&gt;1</title>
<path fill="none" stroke="black" d="M851.845,-504.884C839.374,-495.531 825.679,-485.259 812.758,-475.568"/>
<polygon fill="black" stroke="black" points="814.499,-472.499 804.399,-469.299 810.299,-478.099 814.499,-472.499"/>
<text text-anchor="middle" x="807.935" y="-490.348" font-family="Times,serif" font-size="14.00">True</text>
</g>
<!-- 14 -->
<g id="node15" class="node"><title>14</title>
<polygon fill="#39e581" fill-opacity="0.419608" stroke="black" points="1091.5,-469 972.5,-469 972.5,-401 1091.5,-401 1091.5,-469"/>
<text text-anchor="middle" x="1032" y="-453.8" font-family="Times,serif" font-size="14.00">speech &lt;= 53.538</text>
<text text-anchor="middle" x="1032" y="-438.8" font-family="Times,serif" font-size="14.00">samples = 54</text>
<text text-anchor="middle" x="1032" y="-423.8" font-family="Times,serif" font-size="14.00">value = [6, 32, 16]</text>
<text text-anchor="middle" x="1032" y="-408.8" font-family="Times,serif" font-size="14.00">class = 0.5</text>
</g>
<!-- 0&#45;&gt;14 -->
<g id="edge14" class="edge"><title>0&#45;&gt;14</title>
<path fill="none" stroke="black" d="M940.155,-504.884C952.626,-495.531 966.321,-485.259 979.242,-475.568"/>
<polygon fill="black" stroke="black" points="981.701,-478.099 987.601,-469.299 977.501,-472.499 981.701,-478.099"/>
<text text-anchor="middle" x="984.065" y="-490.348" font-family="Times,serif" font-size="14.00">False</text>
</g>
<!-- 2 -->
<g id="node3" class="node"><title>2</title>
<polygon fill="#e58139" fill-opacity="0.588235" stroke="black" points="611,-365 457,-365 457,-297 611,-297 611,-365"/>
<text text-anchor="middle" x="534" y="-349.8" font-family="Times,serif" font-size="14.00">Disgust_NRC &lt;= 2.3166</text>
<text text-anchor="middle" x="534" y="-334.8" font-family="Times,serif" font-size="14.00">samples = 51</text>
<text text-anchor="middle" x="534" y="-319.8" font-family="Times,serif" font-size="14.00">value = [35, 12, 4]</text>
<text text-anchor="middle" x="534" y="-304.8" font-family="Times,serif" font-size="14.00">class = 0.0</text>
</g>
<!-- 1&#45;&gt;2 -->
<g id="edge2" class="edge"><title>1&#45;&gt;2</title>
<path fill="none" stroke="black" d="M686.624,-400.884C664.308,-390.812 639.631,-379.674 616.742,-369.344"/>
<polygon fill="black" stroke="black" points="617.949,-366.048 607.394,-365.125 615.069,-372.429 617.949,-366.048"/>
</g>
<!-- 11 -->
<g id="node12" class="node"><title>11</title>
<polygon fill="#8139e5" fill-opacity="0.831373" stroke="black" points="869,-365 651,-365 651,-297 869,-297 869,-365"/>
<text text-anchor="middle" x="760" y="-349.8" font-family="Times,serif" font-size="14.00">speech_emotional_NRC &lt;= 16.3523</text>
<text text-anchor="middle" x="760" y="-334.8" font-family="Times,serif" font-size="14.00">samples = 7</text>
<text text-anchor="middle" x="760" y="-319.8" font-family="Times,serif" font-size="14.00">value = [0, 1, 6]</text>
<text text-anchor="middle" x="760" y="-304.8" font-family="Times,serif" font-size="14.00">class = 1.0</text>
</g>
<!-- 1&#45;&gt;11 -->
<g id="edge11" class="edge"><title>1&#45;&gt;11</title>
<path fill="none" stroke="black" d="M760,-400.884C760,-392.778 760,-383.982 760,-375.472"/>
<polygon fill="black" stroke="black" points="763.5,-375.299 760,-365.299 756.5,-375.299 763.5,-375.299"/>
</g>
<!-- 3 -->
<g id="node4" class="node"><title>3</title>
<polygon fill="#e58139" fill-opacity="0.666667" stroke="black" points="463,-261 317,-261 317,-193 463,-193 463,-261"/>
<text text-anchor="middle" x="390" y="-245.8" font-family="Times,serif" font-size="14.00">Anger_NRC &lt;= 1.2476</text>
<text text-anchor="middle" x="390" y="-230.8" font-family="Times,serif" font-size="14.00">samples = 48</text>
<text text-anchor="middle" x="390" y="-215.8" font-family="Times,serif" font-size="14.00">value = [35, 9, 4]</text>
<text text-anchor="middle" x="390" y="-200.8" font-family="Times,serif" font-size="14.00">class = 0.0</text>
</g>
<!-- 2&#45;&gt;3 -->
<g id="edge3" class="edge"><title>2&#45;&gt;3</title>
<path fill="none" stroke="black" d="M487.247,-296.884C473.918,-287.442 459.266,-277.064 445.471,-267.292"/>
<polygon fill="black" stroke="black" points="447.194,-264.223 437.011,-261.299 443.148,-269.936 447.194,-264.223"/>
</g>
<!-- 10 -->
<g id="node11" class="node"><title>10</title>
<polygon fill="#39e581" stroke="black" points="587,-253.5 481,-253.5 481,-200.5 587,-200.5 587,-253.5"/>
<text text-anchor="middle" x="534" y="-238.3" font-family="Times,serif" font-size="14.00">samples = 3</text>
<text text-anchor="middle" x="534" y="-223.3" font-family="Times,serif" font-size="14.00">value = [0, 3, 0]</text>
<text text-anchor="middle" x="534" y="-208.3" font-family="Times,serif" font-size="14.00">class = 0.5</text>
</g>
<!-- 2&#45;&gt;10 -->
<g id="edge10" class="edge"><title>2&#45;&gt;10</title>
<path fill="none" stroke="black" d="M534,-296.884C534,-286.326 534,-274.597 534,-263.854"/>
<polygon fill="black" stroke="black" points="537.5,-263.52 534,-253.52 530.5,-263.52 537.5,-263.52"/>
</g>
<!-- 4 -->
<g id="node5" class="node"><title>4</title>
<polygon fill="none" stroke="black" points="260.5,-157 63.5,-157 63.5,-89 260.5,-89 260.5,-157"/>
<text text-anchor="middle" x="162" y="-141.8" font-family="Times,serif" font-size="14.00">Anger_NRC_narrated &lt;= 0.1075</text>
<text text-anchor="middle" x="162" y="-126.8" font-family="Times,serif" font-size="14.00">samples = 11</text>
<text text-anchor="middle" x="162" y="-111.8" font-family="Times,serif" font-size="14.00">value = [4, 4, 3]</text>
<text text-anchor="middle" x="162" y="-96.8" font-family="Times,serif" font-size="14.00">class = 0.0</text>
</g>
<!-- 3&#45;&gt;4 -->
<g id="edge4" class="edge"><title>3&#45;&gt;4</title>
<path fill="none" stroke="black" d="M316.919,-193.306C294.036,-183.069 268.617,-171.697 245.097,-161.175"/>
<polygon fill="black" stroke="black" points="246.399,-157.923 235.841,-157.034 243.54,-164.313 246.399,-157.923"/>
</g>
<!-- 7 -->
<g id="node8" class="node"><title>7</title>
<polygon fill="#e58139" fill-opacity="0.811765" stroke="black" points="509.5,-157 278.5,-157 278.5,-89 509.5,-89 509.5,-157"/>
<text text-anchor="middle" x="394" y="-141.8" font-family="Times,serif" font-size="14.00">Anticipation_NRC_narrated &lt;= 6.8204</text>
<text text-anchor="middle" x="394" y="-126.8" font-family="Times,serif" font-size="14.00">samples = 37</text>
<text text-anchor="middle" x="394" y="-111.8" font-family="Times,serif" font-size="14.00">value = [31, 5, 1]</text>
<text text-anchor="middle" x="394" y="-96.8" font-family="Times,serif" font-size="14.00">class = 0.0</text>
</g>
<!-- 3&#45;&gt;7 -->
<g id="edge7" class="edge"><title>3&#45;&gt;7</title>
<path fill="none" stroke="black" d="M391.299,-192.884C391.617,-184.778 391.961,-175.982 392.295,-167.472"/>
<polygon fill="black" stroke="black" points="395.8,-167.429 392.694,-157.299 388.805,-167.155 395.8,-167.429"/>
</g>
<!-- 5 -->
<g id="node6" class="node"><title>5</title>
<polygon fill="#e58139" stroke="black" points="106,-53 7.10543e-15,-53 7.10543e-15,-0 106,-0 106,-53"/>
<text text-anchor="middle" x="53" y="-37.8" font-family="Times,serif" font-size="14.00">samples = 4</text>
<text text-anchor="middle" x="53" y="-22.8" font-family="Times,serif" font-size="14.00">value = [4, 0, 0]</text>
<text text-anchor="middle" x="53" y="-7.8" font-family="Times,serif" font-size="14.00">class = 0.0</text>
</g>
<!-- 4&#45;&gt;5 -->
<g id="edge5" class="edge"><title>4&#45;&gt;5</title>
<path fill="none" stroke="black" d="M123.877,-88.9485C113.009,-79.526 101.183,-69.2731 90.3605,-59.8906"/>
<polygon fill="black" stroke="black" points="92.5342,-57.1428 82.6857,-53.2367 87.9488,-62.4319 92.5342,-57.1428"/>
</g>
<!-- 6 -->
<g id="node7" class="node"><title>6</title>
<polygon fill="#39e581" fill-opacity="0.250980" stroke="black" points="230,-53 124,-53 124,-0 230,-0 230,-53"/>
<text text-anchor="middle" x="177" y="-37.8" font-family="Times,serif" font-size="14.00">samples = 7</text>
<text text-anchor="middle" x="177" y="-22.8" font-family="Times,serif" font-size="14.00">value = [0, 4, 3]</text>
<text text-anchor="middle" x="177" y="-7.8" font-family="Times,serif" font-size="14.00">class = 0.5</text>
</g>
<!-- 4&#45;&gt;6 -->
<g id="edge6" class="edge"><title>4&#45;&gt;6</title>
<path fill="none" stroke="black" d="M167.246,-88.9485C168.568,-80.6238 169.992,-71.6509 171.333,-63.2027"/>
<polygon fill="black" stroke="black" points="174.804,-63.6618 172.915,-53.2367 167.89,-62.5643 174.804,-63.6618"/>
</g>
<!-- 8 -->
<g id="node9" class="node"><title>8</title>
<polygon fill="#e58139" fill-opacity="0.901961" stroke="black" points="368.5,-53 255.5,-53 255.5,-0 368.5,-0 368.5,-53"/>
<text text-anchor="middle" x="312" y="-37.8" font-family="Times,serif" font-size="14.00">samples = 33</text>
<text text-anchor="middle" x="312" y="-22.8" font-family="Times,serif" font-size="14.00">value = [30, 3, 0]</text>
<text text-anchor="middle" x="312" y="-7.8" font-family="Times,serif" font-size="14.00">class = 0.0</text>
</g>
<!-- 7&#45;&gt;8 -->
<g id="edge8" class="edge"><title>7&#45;&gt;8</title>
<path fill="none" stroke="black" d="M365.32,-88.9485C357.462,-79.892 348.938,-70.0682 341.058,-60.9875"/>
<polygon fill="black" stroke="black" points="343.53,-58.4958 334.332,-53.2367 338.243,-63.0835 343.53,-58.4958"/>
</g>
<!-- 9 -->
<g id="node10" class="node"><title>9</title>
<polygon fill="#39e581" fill-opacity="0.333333" stroke="black" points="493,-53 387,-53 387,-0 493,-0 493,-53"/>
<text text-anchor="middle" x="440" y="-37.8" font-family="Times,serif" font-size="14.00">samples = 4</text>
<text text-anchor="middle" x="440" y="-22.8" font-family="Times,serif" font-size="14.00">value = [1, 2, 1]</text>
<text text-anchor="middle" x="440" y="-7.8" font-family="Times,serif" font-size="14.00">class = 0.5</text>
</g>
<!-- 7&#45;&gt;9 -->
<g id="edge9" class="edge"><title>7&#45;&gt;9</title>
<path fill="none" stroke="black" d="M410.089,-88.9485C414.274,-80.3494 418.797,-71.0586 423.027,-62.3689"/>
<polygon fill="black" stroke="black" points="426.242,-63.7599 427.472,-53.2367 419.948,-60.6962 426.242,-63.7599"/>
</g>
<!-- 12 -->
<g id="node13" class="node"><title>12</title>
<polygon fill="#39e581" stroke="black" points="711,-253.5 605,-253.5 605,-200.5 711,-200.5 711,-253.5"/>
<text text-anchor="middle" x="658" y="-238.3" font-family="Times,serif" font-size="14.00">samples = 1</text>
<text text-anchor="middle" x="658" y="-223.3" font-family="Times,serif" font-size="14.00">value = [0, 1, 0]</text>
<text text-anchor="middle" x="658" y="-208.3" font-family="Times,serif" font-size="14.00">class = 0.5</text>
</g>
<!-- 11&#45;&gt;12 -->
<g id="edge12" class="edge"><title>11&#45;&gt;12</title>
<path fill="none" stroke="black" d="M726.884,-296.884C715.336,-285.336 702.387,-272.387 690.86,-260.86"/>
<polygon fill="black" stroke="black" points="693.066,-258.116 683.52,-253.52 688.116,-263.066 693.066,-258.116"/>
</g>
<!-- 13 -->
<g id="node14" class="node"><title>13</title>
<polygon fill="#8139e5" stroke="black" points="835,-253.5 729,-253.5 729,-200.5 835,-200.5 835,-253.5"/>
<text text-anchor="middle" x="782" y="-238.3" font-family="Times,serif" font-size="14.00">samples = 6</text>
<text text-anchor="middle" x="782" y="-223.3" font-family="Times,serif" font-size="14.00">value = [0, 0, 6]</text>
<text text-anchor="middle" x="782" y="-208.3" font-family="Times,serif" font-size="14.00">class = 1.0</text>
</g>
<!-- 11&#45;&gt;13 -->
<g id="edge13" class="edge"><title>11&#45;&gt;13</title>
<path fill="none" stroke="black" d="M767.143,-296.884C769.444,-286.216 772.002,-274.352 774.339,-263.519"/>
<polygon fill="black" stroke="black" points="777.809,-264.033 776.496,-253.52 770.966,-262.557 777.809,-264.033"/>
</g>
<!-- 15 -->
<g id="node16" class="node"><title>15</title>
<polygon fill="#39e581" fill-opacity="0.674510" stroke="black" points="1099,-365 965,-365 965,-297 1099,-297 1099,-365"/>
<text text-anchor="middle" x="1032" y="-349.8" font-family="Times,serif" font-size="14.00">Trust_NRC &lt;= 13.67</text>
<text text-anchor="middle" x="1032" y="-334.8" font-family="Times,serif" font-size="14.00">samples = 44</text>
<text text-anchor="middle" x="1032" y="-319.8" font-family="Times,serif" font-size="14.00">value = [5, 32, 7]</text>
<text text-anchor="middle" x="1032" y="-304.8" font-family="Times,serif" font-size="14.00">class = 0.5</text>
</g>
<!-- 14&#45;&gt;15 -->
<g id="edge15" class="edge"><title>14&#45;&gt;15</title>
<path fill="none" stroke="black" d="M1032,-400.884C1032,-392.778 1032,-383.982 1032,-375.472"/>
<polygon fill="black" stroke="black" points="1035.5,-375.299 1032,-365.299 1028.5,-375.299 1035.5,-375.299"/>
</g>
<!-- 30 -->
<g id="node31" class="node"><title>30</title>
<polygon fill="#8139e5" fill-opacity="0.890196" stroke="black" points="1314.5,-365 1185.5,-365 1185.5,-297 1314.5,-297 1314.5,-365"/>
<text text-anchor="middle" x="1250" y="-349.8" font-family="Times,serif" font-size="14.00">narrated &lt;= 31.7929</text>
<text text-anchor="middle" x="1250" y="-334.8" font-family="Times,serif" font-size="14.00">samples = 10</text>
<text text-anchor="middle" x="1250" y="-319.8" font-family="Times,serif" font-size="14.00">value = [1, 0, 9]</text>
<text text-anchor="middle" x="1250" y="-304.8" font-family="Times,serif" font-size="14.00">class = 1.0</text>
</g>
<!-- 14&#45;&gt;30 -->
<g id="edge30" class="edge"><title>14&#45;&gt;30</title>
<path fill="none" stroke="black" d="M1091.57,-406.128C1117.62,-393.939 1148.45,-379.515 1175.96,-366.644"/>
<polygon fill="black" stroke="black" points="1177.57,-369.753 1185.15,-362.344 1174.61,-363.412 1177.57,-369.753"/>
</g>
<!-- 16 -->
<g id="node17" class="node"><title>16</title>
<polygon fill="#39e581" fill-opacity="0.878431" stroke="black" points="990.5,-261 853.5,-261 853.5,-193 990.5,-193 990.5,-261"/>
<text text-anchor="middle" x="922" y="-245.8" font-family="Times,serif" font-size="14.00">Fear_NRC &lt;= 8.7387</text>
<text text-anchor="middle" x="922" y="-230.8" font-family="Times,serif" font-size="14.00">samples = 27</text>
<text text-anchor="middle" x="922" y="-215.8" font-family="Times,serif" font-size="14.00">value = [2, 24, 1]</text>
<text text-anchor="middle" x="922" y="-200.8" font-family="Times,serif" font-size="14.00">class = 0.5</text>
</g>
<!-- 15&#45;&gt;16 -->
<g id="edge16" class="edge"><title>15&#45;&gt;16</title>
<path fill="none" stroke="black" d="M996.286,-296.884C986.392,-287.709 975.544,-277.65 965.27,-268.123"/>
<polygon fill="black" stroke="black" points="967.624,-265.532 957.911,-261.299 962.864,-270.665 967.624,-265.532"/>
</g>
<!-- 23 -->
<g id="node24" class="node"><title>23</title>
<polygon fill="#39e581" fill-opacity="0.180392" stroke="black" points="1179,-261 1021,-261 1021,-193 1179,-193 1179,-261"/>
<text text-anchor="middle" x="1100" y="-245.8" font-family="Times,serif" font-size="14.00">Surprise_NRC &lt;= 0.9856</text>
<text text-anchor="middle" x="1100" y="-230.8" font-family="Times,serif" font-size="14.00">samples = 17</text>
<text text-anchor="middle" x="1100" y="-215.8" font-family="Times,serif" font-size="14.00">value = [3, 8, 6]</text>
<text text-anchor="middle" x="1100" y="-200.8" font-family="Times,serif" font-size="14.00">class = 0.5</text>
</g>
<!-- 15&#45;&gt;23 -->
<g id="edge23" class="edge"><title>15&#45;&gt;23</title>
<path fill="none" stroke="black" d="M1054.08,-296.884C1059.84,-288.243 1066.12,-278.819 1072.14,-269.793"/>
<polygon fill="black" stroke="black" points="1075.17,-271.561 1077.8,-261.299 1069.34,-267.678 1075.17,-271.561"/>
</g>
<!-- 17 -->
<g id="node18" class="node"><title>17</title>
<polygon fill="#39e581" fill-opacity="0.956863" stroke="black" points="790,-157 610,-157 610,-89 790,-89 790,-157"/>
<text text-anchor="middle" x="700" y="-141.8" font-family="Times,serif" font-size="14.00">Fear_NRC_speech &lt;= 2.6887</text>
<text text-anchor="middle" x="700" y="-126.8" font-family="Times,serif" font-size="14.00">samples = 25</text>
<text text-anchor="middle" x="700" y="-111.8" font-family="Times,serif" font-size="14.00">value = [1, 24, 0]</text>
<text text-anchor="middle" x="700" y="-96.8" font-family="Times,serif" font-size="14.00">class = 0.5</text>
</g>
<!-- 16&#45;&gt;17 -->
<g id="edge17" class="edge"><title>16&#45;&gt;17</title>
<path fill="none" stroke="black" d="M853.278,-194.425C830.457,-183.94 804.833,-172.166 781.164,-161.291"/>
<polygon fill="black" stroke="black" points="782.401,-158.008 771.852,-157.013 779.478,-164.369 782.401,-158.008"/>
</g>
<!-- 20 -->
<g id="node21" class="node"><title>20</title>
<polygon fill="none" stroke="black" points="1002.5,-157 837.5,-157 837.5,-89 1002.5,-89 1002.5,-157"/>
<text text-anchor="middle" x="920" y="-141.8" font-family="Times,serif" font-size="14.00">negative_NRC &lt;= 18.1791</text>
<text text-anchor="middle" x="920" y="-126.8" font-family="Times,serif" font-size="14.00">samples = 2</text>
<text text-anchor="middle" x="920" y="-111.8" font-family="Times,serif" font-size="14.00">value = [1, 0, 1]</text>
<text text-anchor="middle" x="920" y="-96.8" font-family="Times,serif" font-size="14.00">class = 0.0</text>
</g>
<!-- 16&#45;&gt;20 -->
<g id="edge20" class="edge"><title>16&#45;&gt;20</title>
<path fill="none" stroke="black" d="M921.351,-192.884C921.192,-184.778 921.019,-175.982 920.852,-167.472"/>
<polygon fill="black" stroke="black" points="924.348,-167.229 920.653,-157.299 917.35,-167.366 924.348,-167.229"/>
</g>
<!-- 18 -->
<g id="node19" class="node"><title>18</title>
<polygon fill="#39e581" stroke="black" points="628.5,-53 515.5,-53 515.5,-0 628.5,-0 628.5,-53"/>
<text text-anchor="middle" x="572" y="-37.8" font-family="Times,serif" font-size="14.00">samples = 23</text>
<text text-anchor="middle" x="572" y="-22.8" font-family="Times,serif" font-size="14.00">value = [0, 23, 0]</text>
<text text-anchor="middle" x="572" y="-7.8" font-family="Times,serif" font-size="14.00">class = 0.5</text>
</g>
<!-- 17&#45;&gt;18 -->
<g id="edge18" class="edge"><title>17&#45;&gt;18</title>
<path fill="none" stroke="black" d="M655.232,-88.9485C642.221,-79.3431 628.042,-68.8747 615.134,-59.345"/>
<polygon fill="black" stroke="black" points="616.984,-56.3605 606.86,-53.2367 612.827,-61.992 616.984,-56.3605"/>
</g>
<!-- 19 -->
<g id="node20" class="node"><title>19</title>
<polygon fill="none" stroke="black" points="753,-53 647,-53 647,-0 753,-0 753,-53"/>
<text text-anchor="middle" x="700" y="-37.8" font-family="Times,serif" font-size="14.00">samples = 2</text>
<text text-anchor="middle" x="700" y="-22.8" font-family="Times,serif" font-size="14.00">value = [1, 1, 0]</text>
<text text-anchor="middle" x="700" y="-7.8" font-family="Times,serif" font-size="14.00">class = 0.0</text>
</g>
<!-- 17&#45;&gt;19 -->
<g id="edge19" class="edge"><title>17&#45;&gt;19</title>
<path fill="none" stroke="black" d="M700,-88.9485C700,-80.7153 700,-71.848 700,-63.4814"/>
<polygon fill="black" stroke="black" points="703.5,-63.2367 700,-53.2367 696.5,-63.2367 703.5,-63.2367"/>
</g>
<!-- 21 -->
<g id="node22" class="node"><title>21</title>
<polygon fill="#8139e5" stroke="black" points="877,-53 771,-53 771,-0 877,-0 877,-53"/>
<text text-anchor="middle" x="824" y="-37.8" font-family="Times,serif" font-size="14.00">samples = 1</text>
<text text-anchor="middle" x="824" y="-22.8" font-family="Times,serif" font-size="14.00">value = [0, 0, 1]</text>
<text text-anchor="middle" x="824" y="-7.8" font-family="Times,serif" font-size="14.00">class = 1.0</text>
</g>
<!-- 20&#45;&gt;21 -->
<g id="edge21" class="edge"><title>20&#45;&gt;21</title>
<path fill="none" stroke="black" d="M886.424,-88.9485C877.038,-79.709 866.84,-69.671 857.461,-60.4381"/>
<polygon fill="black" stroke="black" points="859.727,-57.7576 850.145,-53.2367 854.816,-62.7462 859.727,-57.7576"/>
</g>
<!-- 22 -->
<g id="node23" class="node"><title>22</title>
<polygon fill="#e58139" stroke="black" points="1001,-53 895,-53 895,-0 1001,-0 1001,-53"/>
<text text-anchor="middle" x="948" y="-37.8" font-family="Times,serif" font-size="14.00">samples = 1</text>
<text text-anchor="middle" x="948" y="-22.8" font-family="Times,serif" font-size="14.00">value = [1, 0, 0]</text>
<text text-anchor="middle" x="948" y="-7.8" font-family="Times,serif" font-size="14.00">class = 0.0</text>
</g>
<!-- 20&#45;&gt;22 -->
<g id="edge22" class="edge"><title>20&#45;&gt;22</title>
<path fill="none" stroke="black" d="M929.793,-88.9485C932.287,-80.5323 934.977,-71.4536 937.504,-62.9243"/>
<polygon fill="black" stroke="black" points="940.889,-63.819 940.374,-53.2367 934.178,-61.8304 940.889,-63.819"/>
</g>
<!-- 24 -->
<g id="node25" class="node"><title>24</title>
<polygon fill="#39e581" fill-opacity="0.749020" stroke="black" points="1201,-157 1021,-157 1021,-89 1201,-89 1201,-157"/>
<text text-anchor="middle" x="1111" y="-141.8" font-family="Times,serif" font-size="14.00">Anticipation_NRC &lt;= 4.0517</text>
<text text-anchor="middle" x="1111" y="-126.8" font-family="Times,serif" font-size="14.00">samples = 10</text>
<text text-anchor="middle" x="1111" y="-111.8" font-family="Times,serif" font-size="14.00">value = [0, 8, 2]</text>
<text text-anchor="middle" x="1111" y="-96.8" font-family="Times,serif" font-size="14.00">class = 0.5</text>
</g>
<!-- 23&#45;&gt;24 -->
<g id="edge24" class="edge"><title>23&#45;&gt;24</title>
<path fill="none" stroke="black" d="M1103.57,-192.884C1104.45,-184.778 1105.39,-175.982 1106.31,-167.472"/>
<polygon fill="black" stroke="black" points="1109.82,-167.617 1107.41,-157.299 1102.86,-166.866 1109.82,-167.617"/>
</g>
<!-- 27 -->
<g id="node28" class="node"><title>27</title>
<polygon fill="#8139e5" fill-opacity="0.250980" stroke="black" points="1385.5,-157 1254.5,-157 1254.5,-89 1385.5,-89 1385.5,-157"/>
<text text-anchor="middle" x="1320" y="-141.8" font-family="Times,serif" font-size="14.00">Joy_NRC &lt;= 3.1808</text>
<text text-anchor="middle" x="1320" y="-126.8" font-family="Times,serif" font-size="14.00">samples = 7</text>
<text text-anchor="middle" x="1320" y="-111.8" font-family="Times,serif" font-size="14.00">value = [3, 0, 4]</text>
<text text-anchor="middle" x="1320" y="-96.8" font-family="Times,serif" font-size="14.00">class = 1.0</text>
</g>
<!-- 23&#45;&gt;27 -->
<g id="edge27" class="edge"><title>23&#45;&gt;27</title>
<path fill="none" stroke="black" d="M1171.43,-192.884C1194.91,-181.997 1221.08,-169.865 1244.83,-158.853"/>
<polygon fill="black" stroke="black" points="1246.55,-161.914 1254.15,-154.532 1243.6,-155.563 1246.55,-161.914"/>
</g>
<!-- 25 -->
<g id="node26" class="node"><title>25</title>
<polygon fill="#8139e5" stroke="black" points="1125,-53 1019,-53 1019,-0 1125,-0 1125,-53"/>
<text text-anchor="middle" x="1072" y="-37.8" font-family="Times,serif" font-size="14.00">samples = 2</text>
<text text-anchor="middle" x="1072" y="-22.8" font-family="Times,serif" font-size="14.00">value = [0, 0, 2]</text>
<text text-anchor="middle" x="1072" y="-7.8" font-family="Times,serif" font-size="14.00">class = 1.0</text>
</g>
<!-- 24&#45;&gt;25 -->
<g id="edge25" class="edge"><title>24&#45;&gt;25</title>
<path fill="none" stroke="black" d="M1097.36,-88.9485C1093.85,-80.4408 1090.06,-71.2562 1086.5,-62.6464"/>
<polygon fill="black" stroke="black" points="1089.67,-61.1452 1082.62,-53.2367 1083.2,-63.8157 1089.67,-61.1452"/>
</g>
<!-- 26 -->
<g id="node27" class="node"><title>26</title>
<polygon fill="#39e581" stroke="black" points="1249,-53 1143,-53 1143,-0 1249,-0 1249,-53"/>
<text text-anchor="middle" x="1196" y="-37.8" font-family="Times,serif" font-size="14.00">samples = 8</text>
<text text-anchor="middle" x="1196" y="-22.8" font-family="Times,serif" font-size="14.00">value = [0, 8, 0]</text>
<text text-anchor="middle" x="1196" y="-7.8" font-family="Times,serif" font-size="14.00">class = 0.5</text>
</g>
<!-- 24&#45;&gt;26 -->
<g id="edge26" class="edge"><title>24&#45;&gt;26</title>
<path fill="none" stroke="black" d="M1140.73,-88.9485C1148.96,-79.8005 1157.89,-69.8697 1166.13,-60.7126"/>
<polygon fill="black" stroke="black" points="1168.77,-63.0123 1172.85,-53.2367 1163.56,-58.331 1168.77,-63.0123"/>
</g>
<!-- 28 -->
<g id="node29" class="node"><title>28</title>
<polygon fill="#e58139" stroke="black" points="1373,-53 1267,-53 1267,-0 1373,-0 1373,-53"/>
<text text-anchor="middle" x="1320" y="-37.8" font-family="Times,serif" font-size="14.00">samples = 3</text>
<text text-anchor="middle" x="1320" y="-22.8" font-family="Times,serif" font-size="14.00">value = [3, 0, 0]</text>
<text text-anchor="middle" x="1320" y="-7.8" font-family="Times,serif" font-size="14.00">class = 0.0</text>
</g>
<!-- 27&#45;&gt;28 -->
<g id="edge28" class="edge"><title>27&#45;&gt;28</title>
<path fill="none" stroke="black" d="M1320,-88.9485C1320,-80.7153 1320,-71.848 1320,-63.4814"/>
<polygon fill="black" stroke="black" points="1323.5,-63.2367 1320,-53.2367 1316.5,-63.2367 1323.5,-63.2367"/>
</g>
<!-- 29 -->
<g id="node30" class="node"><title>29</title>
<polygon fill="#8139e5" stroke="black" points="1497,-53 1391,-53 1391,-0 1497,-0 1497,-53"/>
<text text-anchor="middle" x="1444" y="-37.8" font-family="Times,serif" font-size="14.00">samples = 4</text>
<text text-anchor="middle" x="1444" y="-22.8" font-family="Times,serif" font-size="14.00">value = [0, 0, 4]</text>
<text text-anchor="middle" x="1444" y="-7.8" font-family="Times,serif" font-size="14.00">class = 1.0</text>
</g>
<!-- 27&#45;&gt;29 -->
<g id="edge29" class="edge"><title>27&#45;&gt;29</title>
<path fill="none" stroke="black" d="M1363.37,-88.9485C1375.97,-79.3431 1389.71,-68.8747 1402.21,-59.345"/>
<polygon fill="black" stroke="black" points="1404.4,-62.0819 1410.23,-53.2367 1400.15,-56.5144 1404.4,-62.0819"/>
</g>
<!-- 31 -->
<g id="node32" class="node"><title>31</title>
<polygon fill="#e58139" stroke="black" points="1303,-253.5 1197,-253.5 1197,-200.5 1303,-200.5 1303,-253.5"/>
<text text-anchor="middle" x="1250" y="-238.3" font-family="Times,serif" font-size="14.00">samples = 1</text>
<text text-anchor="middle" x="1250" y="-223.3" font-family="Times,serif" font-size="14.00">value = [1, 0, 0]</text>
<text text-anchor="middle" x="1250" y="-208.3" font-family="Times,serif" font-size="14.00">class = 0.0</text>
</g>
<!-- 30&#45;&gt;31 -->
<g id="edge31" class="edge"><title>30&#45;&gt;31</title>
<path fill="none" stroke="black" d="M1250,-296.884C1250,-286.326 1250,-274.597 1250,-263.854"/>
<polygon fill="black" stroke="black" points="1253.5,-263.52 1250,-253.52 1246.5,-263.52 1253.5,-263.52"/>
</g>
<!-- 32 -->
<g id="node33" class="node"><title>32</title>
<polygon fill="#8139e5" stroke="black" points="1427,-253.5 1321,-253.5 1321,-200.5 1427,-200.5 1427,-253.5"/>
<text text-anchor="middle" x="1374" y="-238.3" font-family="Times,serif" font-size="14.00">samples = 9</text>
<text text-anchor="middle" x="1374" y="-223.3" font-family="Times,serif" font-size="14.00">value = [0, 0, 9]</text>
<text text-anchor="middle" x="1374" y="-208.3" font-family="Times,serif" font-size="14.00">class = 1.0</text>
</g>
<!-- 30&#45;&gt;32 -->
<g id="edge32" class="edge"><title>30&#45;&gt;32</title>
<path fill="none" stroke="black" d="M1290.26,-296.884C1304.7,-285.006 1320.94,-271.646 1335.25,-259.876"/>
<polygon fill="black" stroke="black" points="1337.48,-262.576 1342.98,-253.52 1333.03,-257.17 1337.48,-262.576"/>
</g>
</g>
</svg>
