<?xml version="1.0" encoding="UTF-8" standalone="no"?>
<!DOCTYPE svg PUBLIC "-//W3C//DTD SVG 1.1//EN"
 "http://www.w3.org/Graphics/SVG/1.1/DTD/svg11.dtd">
<!-- Generated by graphviz version 2.38.0 (20140413.2041)
 -->
<!-- Title: Tree Pages: 1 -->
<svg width="2328pt" height="581pt"
 viewBox="0.00 0.00 2328.00 581.00" xmlns="http://www.w3.org/2000/svg" xmlns:xlink="http://www.w3.org/1999/xlink">
<g id="graph0" class="graph" transform="scale(1 1) rotate(0) translate(4 577)">
<title>Tree</title>
<polygon fill="white" stroke="none" points="-4,4 -4,-577 2324,-577 2324,4 -4,4"/>
<!-- 0 -->
<g id="node1" class="node"><title>0</title>
<polygon fill="#399de5" fill-opacity="0.047059" stroke="black" points="1499.5,-573 1352.5,-573 1352.5,-505 1499.5,-505 1499.5,-573"/>
<text text-anchor="middle" x="1426" y="-557.8" font-family="Times,serif" font-size="14.00">Fear_NRC &lt;= 6.4535</text>
<text text-anchor="middle" x="1426" y="-542.8" font-family="Times,serif" font-size="14.00">samples = 112</text>
<text text-anchor="middle" x="1426" y="-527.8" font-family="Times,serif" font-size="14.00">value = [22, 30, 34, 26]</text>
<text text-anchor="middle" x="1426" y="-512.8" font-family="Times,serif" font-size="14.00">class = sentimental</text>
</g>
<!-- 1 -->
<g id="node2" class="node"><title>1</title>
<polygon fill="#399de5" fill-opacity="0.109804" stroke="black" points="1258,-469 1040,-469 1040,-401 1258,-401 1258,-469"/>
<text text-anchor="middle" x="1149" y="-453.8" font-family="Times,serif" font-size="14.00">speech_emotional_NRC &lt;= 14.2456</text>
<text text-anchor="middle" x="1149" y="-438.8" font-family="Times,serif" font-size="14.00">samples = 78</text>
<text text-anchor="middle" x="1149" y="-423.8" font-family="Times,serif" font-size="14.00">value = [22, 4, 29, 23]</text>
<text text-anchor="middle" x="1149" y="-408.8" font-family="Times,serif" font-size="14.00">class = sentimental</text>
</g>
<!-- 0&#45;&gt;1 -->
<g id="edge1" class="edge"><title>0&#45;&gt;1</title>
<path fill="none" stroke="black" d="M1352.5,-510.934C1320.56,-499.173 1282.66,-485.217 1248.27,-472.555"/>
<polygon fill="black" stroke="black" points="1249.27,-469.192 1238.67,-469.021 1246.85,-475.761 1249.27,-469.192"/>
<text text-anchor="middle" x="1249.15" y="-488.018" font-family="Times,serif" font-size="14.00">True</text>
</g>
<!-- 26 -->
<g id="node27" class="node"><title>26</title>
<polygon fill="#47e539" fill-opacity="0.725490" stroke="black" points="1803,-469 1633,-469 1633,-401 1803,-401 1803,-469"/>
<text text-anchor="middle" x="1718" y="-453.8" font-family="Times,serif" font-size="14.00">emotional_WN &lt;= 39.1082</text>
<text text-anchor="middle" x="1718" y="-438.8" font-family="Times,serif" font-size="14.00">samples = 34</text>
<text text-anchor="middle" x="1718" y="-423.8" font-family="Times,serif" font-size="14.00">value = [0, 26, 5, 3]</text>
<text text-anchor="middle" x="1718" y="-408.8" font-family="Times,serif" font-size="14.00">class = historical</text>
</g>
<!-- 0&#45;&gt;26 -->
<g id="edge26" class="edge"><title>0&#45;&gt;26</title>
<path fill="none" stroke="black" d="M1499.68,-512.261C1537.22,-499.148 1583.29,-483.055 1623.42,-469.037"/>
<polygon fill="black" stroke="black" points="1624.67,-472.31 1632.95,-465.708 1622.36,-465.702 1624.67,-472.31"/>
<text text-anchor="middle" x="1622.09" y="-484.527" font-family="Times,serif" font-size="14.00">False</text>
</g>
<!-- 2 -->
<g id="node3" class="node"><title>2</title>
<polygon fill="#e58139" fill-opacity="0.050980" stroke="black" points="649,-365 495,-365 495,-297 649,-297 649,-365"/>
<text text-anchor="middle" x="572" y="-349.8" font-family="Times,serif" font-size="14.00">negative_WN &lt;= 2.5572</text>
<text text-anchor="middle" x="572" y="-334.8" font-family="Times,serif" font-size="14.00">samples = 35</text>
<text text-anchor="middle" x="572" y="-319.8" font-family="Times,serif" font-size="14.00">value = [17, 2, 0, 16]</text>
<text text-anchor="middle" x="572" y="-304.8" font-family="Times,serif" font-size="14.00">class = costumbrista</text>
</g>
<!-- 1&#45;&gt;2 -->
<g id="edge2" class="edge"><title>1&#45;&gt;2</title>
<path fill="none" stroke="black" d="M1039.79,-414.695C929.443,-395.188 761.114,-365.431 659.321,-347.436"/>
<polygon fill="black" stroke="black" points="659.835,-343.973 649.378,-345.679 658.616,-350.866 659.835,-343.973"/>
</g>
<!-- 15 -->
<g id="node16" class="node"><title>15</title>
<polygon fill="#399de5" fill-opacity="0.611765" stroke="black" points="1251.5,-365 1046.5,-365 1046.5,-297 1251.5,-297 1251.5,-365"/>
<text text-anchor="middle" x="1149" y="-349.8" font-family="Times,serif" font-size="14.00">Disgust_NRC_narrated &lt;= 0.8579</text>
<text text-anchor="middle" x="1149" y="-334.8" font-family="Times,serif" font-size="14.00">samples = 43</text>
<text text-anchor="middle" x="1149" y="-319.8" font-family="Times,serif" font-size="14.00">value = [5, 2, 29, 7]</text>
<text text-anchor="middle" x="1149" y="-304.8" font-family="Times,serif" font-size="14.00">class = sentimental</text>
</g>
<!-- 1&#45;&gt;15 -->
<g id="edge15" class="edge"><title>1&#45;&gt;15</title>
<path fill="none" stroke="black" d="M1149,-400.884C1149,-392.778 1149,-383.982 1149,-375.472"/>
<polygon fill="black" stroke="black" points="1152.5,-375.299 1149,-365.299 1145.5,-375.299 1152.5,-375.299"/>
</g>
<!-- 3 -->
<g id="node4" class="node"><title>3</title>
<polygon fill="#e58139" fill-opacity="0.847059" stroke="black" points="312,-261 130,-261 130,-193 312,-193 312,-261"/>
<text text-anchor="middle" x="221" y="-245.8" font-family="Times,serif" font-size="14.00">Joy_NRC_narrated &lt;= 2.5605</text>
<text text-anchor="middle" x="221" y="-230.8" font-family="Times,serif" font-size="14.00">samples = 14</text>
<text text-anchor="middle" x="221" y="-215.8" font-family="Times,serif" font-size="14.00">value = [12, 1, 0, 1]</text>
<text text-anchor="middle" x="221" y="-200.8" font-family="Times,serif" font-size="14.00">class = costumbrista</text>
</g>
<!-- 2&#45;&gt;3 -->
<g id="edge3" class="edge"><title>2&#45;&gt;3</title>
<path fill="none" stroke="black" d="M494.972,-307.616C444.142,-292.845 377.019,-273.339 321.935,-257.332"/>
<polygon fill="black" stroke="black" points="322.729,-253.918 312.149,-254.488 320.775,-260.639 322.729,-253.918"/>
</g>
<!-- 8 -->
<g id="node9" class="node"><title>8</title>
<polygon fill="#d739e5" fill-opacity="0.623529" stroke="black" points="650,-261 494,-261 494,-193 650,-193 650,-261"/>
<text text-anchor="middle" x="572" y="-245.8" font-family="Times,serif" font-size="14.00">Sadness_NRC &lt;= 6.6248</text>
<text text-anchor="middle" x="572" y="-230.8" font-family="Times,serif" font-size="14.00">samples = 21</text>
<text text-anchor="middle" x="572" y="-215.8" font-family="Times,serif" font-size="14.00">value = [5, 1, 0, 15]</text>
<text text-anchor="middle" x="572" y="-200.8" font-family="Times,serif" font-size="14.00">class = sociopolitical</text>
</g>
<!-- 2&#45;&gt;8 -->
<g id="edge8" class="edge"><title>2&#45;&gt;8</title>
<path fill="none" stroke="black" d="M572,-296.884C572,-288.778 572,-279.982 572,-271.472"/>
<polygon fill="black" stroke="black" points="575.5,-271.299 572,-261.299 568.5,-271.299 575.5,-271.299"/>
</g>
<!-- 4 -->
<g id="node5" class="node"><title>4</title>
<polygon fill="#e58139" stroke="black" points="128,-149.5 0,-149.5 0,-96.5 128,-96.5 128,-149.5"/>
<text text-anchor="middle" x="64" y="-134.3" font-family="Times,serif" font-size="14.00">samples = 12</text>
<text text-anchor="middle" x="64" y="-119.3" font-family="Times,serif" font-size="14.00">value = [12, 0, 0, 0]</text>
<text text-anchor="middle" x="64" y="-104.3" font-family="Times,serif" font-size="14.00">class = costumbrista</text>
</g>
<!-- 3&#45;&gt;4 -->
<g id="edge4" class="edge"><title>3&#45;&gt;4</title>
<path fill="none" stroke="black" d="M170.027,-192.884C151.321,-180.731 130.228,-167.027 111.81,-155.061"/>
<polygon fill="black" stroke="black" points="113.573,-152.033 103.281,-149.52 109.76,-157.903 113.573,-152.033"/>
</g>
<!-- 5 -->
<g id="node6" class="node"><title>5</title>
<polygon fill="none" stroke="black" points="296,-157 146,-157 146,-89 296,-89 296,-157"/>
<text text-anchor="middle" x="221" y="-141.8" font-family="Times,serif" font-size="14.00">neutral_NRC &lt;= 56.168</text>
<text text-anchor="middle" x="221" y="-126.8" font-family="Times,serif" font-size="14.00">samples = 2</text>
<text text-anchor="middle" x="221" y="-111.8" font-family="Times,serif" font-size="14.00">value = [0, 1, 0, 1]</text>
<text text-anchor="middle" x="221" y="-96.8" font-family="Times,serif" font-size="14.00">class = historical</text>
</g>
<!-- 3&#45;&gt;5 -->
<g id="edge5" class="edge"><title>3&#45;&gt;5</title>
<path fill="none" stroke="black" d="M221,-192.884C221,-184.778 221,-175.982 221,-167.472"/>
<polygon fill="black" stroke="black" points="224.5,-167.299 221,-157.299 217.5,-167.299 224.5,-167.299"/>
</g>
<!-- 6 -->
<g id="node7" class="node"><title>6</title>
<polygon fill="#d739e5" stroke="black" points="142.5,-53 11.5,-53 11.5,-0 142.5,-0 142.5,-53"/>
<text text-anchor="middle" x="77" y="-37.8" font-family="Times,serif" font-size="14.00">samples = 1</text>
<text text-anchor="middle" x="77" y="-22.8" font-family="Times,serif" font-size="14.00">value = [0, 0, 0, 1]</text>
<text text-anchor="middle" x="77" y="-7.8" font-family="Times,serif" font-size="14.00">class = sociopolitical</text>
</g>
<!-- 5&#45;&gt;6 -->
<g id="edge6" class="edge"><title>5&#45;&gt;6</title>
<path fill="none" stroke="black" d="M170.636,-88.9485C155.72,-79.1601 139.439,-68.4756 124.697,-58.8015"/>
<polygon fill="black" stroke="black" points="126.499,-55.7971 116.218,-53.2367 122.658,-61.6495 126.499,-55.7971"/>
</g>
<!-- 7 -->
<g id="node8" class="node"><title>7</title>
<polygon fill="#47e539" stroke="black" points="281,-53 161,-53 161,-0 281,-0 281,-53"/>
<text text-anchor="middle" x="221" y="-37.8" font-family="Times,serif" font-size="14.00">samples = 1</text>
<text text-anchor="middle" x="221" y="-22.8" font-family="Times,serif" font-size="14.00">value = [0, 1, 0, 0]</text>
<text text-anchor="middle" x="221" y="-7.8" font-family="Times,serif" font-size="14.00">class = historical</text>
</g>
<!-- 5&#45;&gt;7 -->
<g id="edge7" class="edge"><title>5&#45;&gt;7</title>
<path fill="none" stroke="black" d="M221,-88.9485C221,-80.7153 221,-71.848 221,-63.4814"/>
<polygon fill="black" stroke="black" points="224.5,-63.2367 221,-53.2367 217.5,-63.2367 224.5,-63.2367"/>
</g>
<!-- 9 -->
<g id="node10" class="node"><title>9</title>
<polygon fill="#e58139" fill-opacity="0.200000" stroke="black" points="556,-157 376,-157 376,-89 556,-89 556,-157"/>
<text text-anchor="middle" x="466" y="-141.8" font-family="Times,serif" font-size="14.00">Anticipation_NRC &lt;= 6.7475</text>
<text text-anchor="middle" x="466" y="-126.8" font-family="Times,serif" font-size="14.00">samples = 9</text>
<text text-anchor="middle" x="466" y="-111.8" font-family="Times,serif" font-size="14.00">value = [5, 0, 0, 4]</text>
<text text-anchor="middle" x="466" y="-96.8" font-family="Times,serif" font-size="14.00">class = costumbrista</text>
</g>
<!-- 8&#45;&gt;9 -->
<g id="edge9" class="edge"><title>8&#45;&gt;9</title>
<path fill="none" stroke="black" d="M537.585,-192.884C528.143,-183.798 517.8,-173.845 507.985,-164.4"/>
<polygon fill="black" stroke="black" points="510.238,-161.711 500.605,-157.299 505.384,-166.755 510.238,-161.711"/>
</g>
<!-- 12 -->
<g id="node13" class="node"><title>12</title>
<polygon fill="#d739e5" fill-opacity="0.909804" stroke="black" points="782,-157 574,-157 574,-89 782,-89 782,-157"/>
<text text-anchor="middle" x="678" y="-141.8" font-family="Times,serif" font-size="14.00">narrated_neutral_NRC &lt;= 22.8423</text>
<text text-anchor="middle" x="678" y="-126.8" font-family="Times,serif" font-size="14.00">samples = 12</text>
<text text-anchor="middle" x="678" y="-111.8" font-family="Times,serif" font-size="14.00">value = [0, 1, 0, 11]</text>
<text text-anchor="middle" x="678" y="-96.8" font-family="Times,serif" font-size="14.00">class = sociopolitical</text>
</g>
<!-- 8&#45;&gt;12 -->
<g id="edge12" class="edge"><title>8&#45;&gt;12</title>
<path fill="none" stroke="black" d="M606.415,-192.884C615.857,-183.798 626.2,-173.845 636.015,-164.4"/>
<polygon fill="black" stroke="black" points="638.616,-166.755 643.395,-157.299 633.762,-161.711 638.616,-166.755"/>
</g>
<!-- 10 -->
<g id="node11" class="node"><title>10</title>
<polygon fill="#e58139" stroke="black" points="427,-53 299,-53 299,-0 427,-0 427,-53"/>
<text text-anchor="middle" x="363" y="-37.8" font-family="Times,serif" font-size="14.00">samples = 5</text>
<text text-anchor="middle" x="363" y="-22.8" font-family="Times,serif" font-size="14.00">value = [5, 0, 0, 0]</text>
<text text-anchor="middle" x="363" y="-7.8" font-family="Times,serif" font-size="14.00">class = costumbrista</text>
</g>
<!-- 9&#45;&gt;10 -->
<g id="edge10" class="edge"><title>9&#45;&gt;10</title>
<path fill="none" stroke="black" d="M429.976,-88.9485C419.805,-79.6175 408.747,-69.4722 398.602,-60.1641"/>
<polygon fill="black" stroke="black" points="400.786,-57.4182 391.052,-53.2367 396.054,-62.5762 400.786,-57.4182"/>
</g>
<!-- 11 -->
<g id="node12" class="node"><title>11</title>
<polygon fill="#d739e5" stroke="black" points="576.5,-53 445.5,-53 445.5,-0 576.5,-0 576.5,-53"/>
<text text-anchor="middle" x="511" y="-37.8" font-family="Times,serif" font-size="14.00">samples = 4</text>
<text text-anchor="middle" x="511" y="-22.8" font-family="Times,serif" font-size="14.00">value = [0, 0, 0, 4]</text>
<text text-anchor="middle" x="511" y="-7.8" font-family="Times,serif" font-size="14.00">class = sociopolitical</text>
</g>
<!-- 9&#45;&gt;11 -->
<g id="edge11" class="edge"><title>9&#45;&gt;11</title>
<path fill="none" stroke="black" d="M481.739,-88.9485C485.834,-80.3494 490.258,-71.0586 494.396,-62.3689"/>
<polygon fill="black" stroke="black" points="497.605,-63.7701 498.744,-53.2367 491.285,-60.7605 497.605,-63.7701"/>
</g>
<!-- 13 -->
<g id="node14" class="node"><title>13</title>
<polygon fill="#47e539" stroke="black" points="715,-53 595,-53 595,-0 715,-0 715,-53"/>
<text text-anchor="middle" x="655" y="-37.8" font-family="Times,serif" font-size="14.00">samples = 1</text>
<text text-anchor="middle" x="655" y="-22.8" font-family="Times,serif" font-size="14.00">value = [0, 1, 0, 0]</text>
<text text-anchor="middle" x="655" y="-7.8" font-family="Times,serif" font-size="14.00">class = historical</text>
</g>
<!-- 12&#45;&gt;13 -->
<g id="edge13" class="edge"><title>12&#45;&gt;13</title>
<path fill="none" stroke="black" d="M669.956,-88.9485C667.93,-80.6238 665.746,-71.6509 663.69,-63.2027"/>
<polygon fill="black" stroke="black" points="667.03,-62.1253 661.264,-53.2367 660.228,-63.7808 667.03,-62.1253"/>
</g>
<!-- 14 -->
<g id="node15" class="node"><title>14</title>
<polygon fill="#d739e5" stroke="black" points="864.5,-53 733.5,-53 733.5,-0 864.5,-0 864.5,-53"/>
<text text-anchor="middle" x="799" y="-37.8" font-family="Times,serif" font-size="14.00">samples = 11</text>
<text text-anchor="middle" x="799" y="-22.8" font-family="Times,serif" font-size="14.00">value = [0, 0, 0, 11]</text>
<text text-anchor="middle" x="799" y="-7.8" font-family="Times,serif" font-size="14.00">class = sociopolitical</text>
</g>
<!-- 12&#45;&gt;14 -->
<g id="edge14" class="edge"><title>12&#45;&gt;14</title>
<path fill="none" stroke="black" d="M720.32,-88.9485C732.502,-79.4346 745.768,-69.074 757.876,-59.6175"/>
<polygon fill="black" stroke="black" points="760.319,-62.1504 766.046,-53.2367 756.011,-56.6335 760.319,-62.1504"/>
</g>
<!-- 16 -->
<g id="node17" class="node"><title>16</title>
<polygon fill="#399de5" fill-opacity="0.772549" stroke="black" points="1135,-261 979,-261 979,-193 1135,-193 1135,-261"/>
<text text-anchor="middle" x="1057" y="-245.8" font-family="Times,serif" font-size="14.00">Sadness_NRC &lt;= 4.2783</text>
<text text-anchor="middle" x="1057" y="-230.8" font-family="Times,serif" font-size="14.00">samples = 35</text>
<text text-anchor="middle" x="1057" y="-215.8" font-family="Times,serif" font-size="14.00">value = [2, 1, 28, 4]</text>
<text text-anchor="middle" x="1057" y="-200.8" font-family="Times,serif" font-size="14.00">class = sentimental</text>
</g>
<!-- 15&#45;&gt;16 -->
<g id="edge16" class="edge"><title>15&#45;&gt;16</title>
<path fill="none" stroke="black" d="M1119.13,-296.884C1111.1,-287.976 1102.31,-278.235 1093.94,-268.957"/>
<polygon fill="black" stroke="black" points="1096.33,-266.381 1087.03,-261.299 1091.13,-271.069 1096.33,-266.381"/>
</g>
<!-- 21 -->
<g id="node22" class="node"><title>21</title>
<polygon fill="none" stroke="black" points="1327,-261 1153,-261 1153,-193 1327,-193 1327,-261"/>
<text text-anchor="middle" x="1240" y="-245.8" font-family="Times,serif" font-size="14.00">emotional_NRC &lt;= 52.8531</text>
<text text-anchor="middle" x="1240" y="-230.8" font-family="Times,serif" font-size="14.00">samples = 8</text>
<text text-anchor="middle" x="1240" y="-215.8" font-family="Times,serif" font-size="14.00">value = [3, 1, 1, 3]</text>
<text text-anchor="middle" x="1240" y="-200.8" font-family="Times,serif" font-size="14.00">class = costumbrista</text>
</g>
<!-- 15&#45;&gt;21 -->
<g id="edge21" class="edge"><title>15&#45;&gt;21</title>
<path fill="none" stroke="black" d="M1178.55,-296.884C1186.49,-287.976 1195.18,-278.235 1203.46,-268.957"/>
<polygon fill="black" stroke="black" points="1206.25,-271.091 1210.29,-261.299 1201.02,-266.431 1206.25,-271.091"/>
</g>
<!-- 17 -->
<g id="node18" class="node"><title>17</title>
<polygon fill="#d739e5" stroke="black" points="963.5,-149.5 832.5,-149.5 832.5,-96.5 963.5,-96.5 963.5,-149.5"/>
<text text-anchor="middle" x="898" y="-134.3" font-family="Times,serif" font-size="14.00">samples = 3</text>
<text text-anchor="middle" x="898" y="-119.3" font-family="Times,serif" font-size="14.00">value = [0, 0, 0, 3]</text>
<text text-anchor="middle" x="898" y="-104.3" font-family="Times,serif" font-size="14.00">class = sociopolitical</text>
</g>
<!-- 16&#45;&gt;17 -->
<g id="edge17" class="edge"><title>16&#45;&gt;17</title>
<path fill="none" stroke="black" d="M1005.38,-192.884C986.433,-180.731 965.072,-167.027 946.419,-155.061"/>
<polygon fill="black" stroke="black" points="948.088,-151.974 937.781,-149.52 944.308,-157.865 948.088,-151.974"/>
</g>
<!-- 18 -->
<g id="node19" class="node"><title>18</title>
<polygon fill="#399de5" fill-opacity="0.866667" stroke="black" points="1142.5,-157 981.5,-157 981.5,-89 1142.5,-89 1142.5,-157"/>
<text text-anchor="middle" x="1062" y="-141.8" font-family="Times,serif" font-size="14.00">Joy_NRC_speech &lt;= 0.36</text>
<text text-anchor="middle" x="1062" y="-126.8" font-family="Times,serif" font-size="14.00">samples = 32</text>
<text text-anchor="middle" x="1062" y="-111.8" font-family="Times,serif" font-size="14.00">value = [2, 1, 28, 1]</text>
<text text-anchor="middle" x="1062" y="-96.8" font-family="Times,serif" font-size="14.00">class = sentimental</text>
</g>
<!-- 16&#45;&gt;18 -->
<g id="edge18" class="edge"><title>16&#45;&gt;18</title>
<path fill="none" stroke="black" d="M1058.62,-192.884C1059.02,-184.778 1059.45,-175.982 1059.87,-167.472"/>
<polygon fill="black" stroke="black" points="1063.37,-167.459 1060.37,-157.299 1056.38,-167.116 1063.37,-167.459"/>
</g>
<!-- 19 -->
<g id="node20" class="node"><title>19</title>
<polygon fill="none" stroke="black" points="1011,-53 883,-53 883,-0 1011,-0 1011,-53"/>
<text text-anchor="middle" x="947" y="-37.8" font-family="Times,serif" font-size="14.00">samples = 5</text>
<text text-anchor="middle" x="947" y="-22.8" font-family="Times,serif" font-size="14.00">value = [2, 0, 2, 1]</text>
<text text-anchor="middle" x="947" y="-7.8" font-family="Times,serif" font-size="14.00">class = costumbrista</text>
</g>
<!-- 18&#45;&gt;19 -->
<g id="edge19" class="edge"><title>18&#45;&gt;19</title>
<path fill="none" stroke="black" d="M1021.78,-88.9485C1010.2,-79.4346 997.593,-69.074 986.085,-59.6175"/>
<polygon fill="black" stroke="black" points="988.268,-56.8814 978.32,-53.2367 983.824,-62.2897 988.268,-56.8814"/>
</g>
<!-- 20 -->
<g id="node21" class="node"><title>20</title>
<polygon fill="#399de5" fill-opacity="0.960784" stroke="black" points="1156.5,-53 1029.5,-53 1029.5,-0 1156.5,-0 1156.5,-53"/>
<text text-anchor="middle" x="1093" y="-37.8" font-family="Times,serif" font-size="14.00">samples = 27</text>
<text text-anchor="middle" x="1093" y="-22.8" font-family="Times,serif" font-size="14.00">value = [0, 1, 26, 0]</text>
<text text-anchor="middle" x="1093" y="-7.8" font-family="Times,serif" font-size="14.00">class = sentimental</text>
</g>
<!-- 18&#45;&gt;20 -->
<g id="edge20" class="edge"><title>18&#45;&gt;20</title>
<path fill="none" stroke="black" d="M1072.84,-88.9485C1075.6,-80.5323 1078.58,-71.4536 1081.38,-62.9243"/>
<polygon fill="black" stroke="black" points="1084.77,-63.8295 1084.56,-53.2367 1078.11,-61.6475 1084.77,-63.8295"/>
</g>
<!-- 22 -->
<g id="node23" class="node"><title>22</title>
<polygon fill="#d739e5" fill-opacity="0.498039" stroke="black" points="1300.5,-157 1169.5,-157 1169.5,-89 1300.5,-89 1300.5,-157"/>
<text text-anchor="middle" x="1235" y="-141.8" font-family="Times,serif" font-size="14.00">Joy_NRC &lt;= 1.4775</text>
<text text-anchor="middle" x="1235" y="-126.8" font-family="Times,serif" font-size="14.00">samples = 5</text>
<text text-anchor="middle" x="1235" y="-111.8" font-family="Times,serif" font-size="14.00">value = [0, 1, 1, 3]</text>
<text text-anchor="middle" x="1235" y="-96.8" font-family="Times,serif" font-size="14.00">class = sociopolitical</text>
</g>
<!-- 21&#45;&gt;22 -->
<g id="edge22" class="edge"><title>21&#45;&gt;22</title>
<path fill="none" stroke="black" d="M1238.38,-192.884C1237.98,-184.778 1237.55,-175.982 1237.13,-167.472"/>
<polygon fill="black" stroke="black" points="1240.62,-167.116 1236.63,-157.299 1233.63,-167.459 1240.62,-167.116"/>
</g>
<!-- 25 -->
<g id="node26" class="node"><title>25</title>
<polygon fill="#e58139" stroke="black" points="1447,-149.5 1319,-149.5 1319,-96.5 1447,-96.5 1447,-149.5"/>
<text text-anchor="middle" x="1383" y="-134.3" font-family="Times,serif" font-size="14.00">samples = 3</text>
<text text-anchor="middle" x="1383" y="-119.3" font-family="Times,serif" font-size="14.00">value = [3, 0, 0, 0]</text>
<text text-anchor="middle" x="1383" y="-104.3" font-family="Times,serif" font-size="14.00">class = costumbrista</text>
</g>
<!-- 21&#45;&gt;25 -->
<g id="edge25" class="edge"><title>21&#45;&gt;25</title>
<path fill="none" stroke="black" d="M1286.43,-192.884C1303.23,-180.896 1322.16,-167.399 1338.77,-155.549"/>
<polygon fill="black" stroke="black" points="1341.11,-158.176 1347.22,-149.52 1337.05,-152.478 1341.11,-158.176"/>
</g>
<!-- 23 -->
<g id="node24" class="node"><title>23</title>
<polygon fill="none" stroke="black" points="1295,-53 1175,-53 1175,-0 1295,-0 1295,-53"/>
<text text-anchor="middle" x="1235" y="-37.8" font-family="Times,serif" font-size="14.00">samples = 2</text>
<text text-anchor="middle" x="1235" y="-22.8" font-family="Times,serif" font-size="14.00">value = [0, 1, 1, 0]</text>
<text text-anchor="middle" x="1235" y="-7.8" font-family="Times,serif" font-size="14.00">class = historical</text>
</g>
<!-- 22&#45;&gt;23 -->
<g id="edge23" class="edge"><title>22&#45;&gt;23</title>
<path fill="none" stroke="black" d="M1235,-88.9485C1235,-80.7153 1235,-71.848 1235,-63.4814"/>
<polygon fill="black" stroke="black" points="1238.5,-63.2367 1235,-53.2367 1231.5,-63.2367 1238.5,-63.2367"/>
</g>
<!-- 24 -->
<g id="node25" class="node"><title>24</title>
<polygon fill="#d739e5" stroke="black" points="1444.5,-53 1313.5,-53 1313.5,-0 1444.5,-0 1444.5,-53"/>
<text text-anchor="middle" x="1379" y="-37.8" font-family="Times,serif" font-size="14.00">samples = 3</text>
<text text-anchor="middle" x="1379" y="-22.8" font-family="Times,serif" font-size="14.00">value = [0, 0, 0, 3]</text>
<text text-anchor="middle" x="1379" y="-7.8" font-family="Times,serif" font-size="14.00">class = sociopolitical</text>
</g>
<!-- 22&#45;&gt;24 -->
<g id="edge24" class="edge"><title>22&#45;&gt;24</title>
<path fill="none" stroke="black" d="M1285.36,-88.9485C1300.28,-79.1601 1316.56,-68.4756 1331.3,-58.8015"/>
<polygon fill="black" stroke="black" points="1333.34,-61.6495 1339.78,-53.2367 1329.5,-55.7971 1333.34,-61.6495"/>
</g>
<!-- 27 -->
<g id="node28" class="node"><title>27</title>
<polygon fill="#47e539" fill-opacity="0.886275" stroke="black" points="1808,-365 1628,-365 1628,-297 1808,-297 1808,-365"/>
<text text-anchor="middle" x="1718" y="-349.8" font-family="Times,serif" font-size="14.00">Anticipation_NRC &lt;= 4.0321</text>
<text text-anchor="middle" x="1718" y="-334.8" font-family="Times,serif" font-size="14.00">samples = 28</text>
<text text-anchor="middle" x="1718" y="-319.8" font-family="Times,serif" font-size="14.00">value = [0, 25, 1, 2]</text>
<text text-anchor="middle" x="1718" y="-304.8" font-family="Times,serif" font-size="14.00">class = historical</text>
</g>
<!-- 26&#45;&gt;27 -->
<g id="edge27" class="edge"><title>26&#45;&gt;27</title>
<path fill="none" stroke="black" d="M1718,-400.884C1718,-392.778 1718,-383.982 1718,-375.472"/>
<polygon fill="black" stroke="black" points="1721.5,-375.299 1718,-365.299 1714.5,-375.299 1721.5,-375.299"/>
</g>
<!-- 34 -->
<g id="node35" class="node"><title>34</title>
<polygon fill="#399de5" fill-opacity="0.600000" stroke="black" points="2046,-365 1884,-365 1884,-297 2046,-297 2046,-365"/>
<text text-anchor="middle" x="1965" y="-349.8" font-family="Times,serif" font-size="14.00">positive_NRC &lt;= 20.6234</text>
<text text-anchor="middle" x="1965" y="-334.8" font-family="Times,serif" font-size="14.00">samples = 6</text>
<text text-anchor="middle" x="1965" y="-319.8" font-family="Times,serif" font-size="14.00">value = [0, 1, 4, 1]</text>
<text text-anchor="middle" x="1965" y="-304.8" font-family="Times,serif" font-size="14.00">class = sentimental</text>
</g>
<!-- 26&#45;&gt;34 -->
<g id="edge34" class="edge"><title>26&#45;&gt;34</title>
<path fill="none" stroke="black" d="M1798.19,-400.884C1822.8,-390.722 1850.03,-379.476 1875.24,-369.069"/>
<polygon fill="black" stroke="black" points="1876.88,-372.177 1884.79,-365.125 1874.21,-365.707 1876.88,-372.177"/>
</g>
<!-- 28 -->
<g id="node29" class="node"><title>28</title>
<polygon fill="none" stroke="black" points="1736,-261 1584,-261 1584,-193 1736,-193 1736,-261"/>
<text text-anchor="middle" x="1660" y="-245.8" font-family="Times,serif" font-size="14.00">neutral_WN &lt;= 66.3222</text>
<text text-anchor="middle" x="1660" y="-230.8" font-family="Times,serif" font-size="14.00">samples = 2</text>
<text text-anchor="middle" x="1660" y="-215.8" font-family="Times,serif" font-size="14.00">value = [0, 0, 1, 1]</text>
<text text-anchor="middle" x="1660" y="-200.8" font-family="Times,serif" font-size="14.00">class = sentimental</text>
</g>
<!-- 27&#45;&gt;28 -->
<g id="edge28" class="edge"><title>27&#45;&gt;28</title>
<path fill="none" stroke="black" d="M1699.17,-296.884C1694.31,-288.332 1689.01,-279.013 1683.92,-270.072"/>
<polygon fill="black" stroke="black" points="1686.92,-268.262 1678.93,-261.299 1680.84,-271.722 1686.92,-268.262"/>
</g>
<!-- 31 -->
<g id="node32" class="node"><title>31</title>
<polygon fill="#47e539" fill-opacity="0.960784" stroke="black" points="1885.5,-261 1754.5,-261 1754.5,-193 1885.5,-193 1885.5,-261"/>
<text text-anchor="middle" x="1820" y="-245.8" font-family="Times,serif" font-size="14.00">Joy_NRC &lt;= 0.4097</text>
<text text-anchor="middle" x="1820" y="-230.8" font-family="Times,serif" font-size="14.00">samples = 26</text>
<text text-anchor="middle" x="1820" y="-215.8" font-family="Times,serif" font-size="14.00">value = [0, 25, 0, 1]</text>
<text text-anchor="middle" x="1820" y="-200.8" font-family="Times,serif" font-size="14.00">class = historical</text>
</g>
<!-- 27&#45;&gt;31 -->
<g id="edge31" class="edge"><title>27&#45;&gt;31</title>
<path fill="none" stroke="black" d="M1751.12,-296.884C1760.2,-287.798 1770.15,-277.845 1779.6,-268.4"/>
<polygon fill="black" stroke="black" points="1782.1,-270.845 1786.7,-261.299 1777.15,-265.896 1782.1,-270.845"/>
</g>
<!-- 29 -->
<g id="node30" class="node"><title>29</title>
<polygon fill="#399de5" stroke="black" points="1587,-149.5 1465,-149.5 1465,-96.5 1587,-96.5 1587,-149.5"/>
<text text-anchor="middle" x="1526" y="-134.3" font-family="Times,serif" font-size="14.00">samples = 1</text>
<text text-anchor="middle" x="1526" y="-119.3" font-family="Times,serif" font-size="14.00">value = [0, 0, 1, 0]</text>
<text text-anchor="middle" x="1526" y="-104.3" font-family="Times,serif" font-size="14.00">class = sentimental</text>
</g>
<!-- 28&#45;&gt;29 -->
<g id="edge29" class="edge"><title>28&#45;&gt;29</title>
<path fill="none" stroke="black" d="M1616.49,-192.884C1600.89,-181.006 1583.34,-167.646 1567.88,-155.876"/>
<polygon fill="black" stroke="black" points="1569.6,-152.792 1559.53,-149.52 1565.36,-158.362 1569.6,-152.792"/>
</g>
<!-- 30 -->
<g id="node31" class="node"><title>30</title>
<polygon fill="#d739e5" stroke="black" points="1736.5,-149.5 1605.5,-149.5 1605.5,-96.5 1736.5,-96.5 1736.5,-149.5"/>
<text text-anchor="middle" x="1671" y="-134.3" font-family="Times,serif" font-size="14.00">samples = 1</text>
<text text-anchor="middle" x="1671" y="-119.3" font-family="Times,serif" font-size="14.00">value = [0, 0, 0, 1]</text>
<text text-anchor="middle" x="1671" y="-104.3" font-family="Times,serif" font-size="14.00">class = sociopolitical</text>
</g>
<!-- 28&#45;&gt;30 -->
<g id="edge30" class="edge"><title>28&#45;&gt;30</title>
<path fill="none" stroke="black" d="M1663.57,-192.884C1664.72,-182.216 1666,-170.352 1667.17,-159.519"/>
<polygon fill="black" stroke="black" points="1670.66,-159.838 1668.25,-149.52 1663.7,-159.087 1670.66,-159.838"/>
</g>
<!-- 32 -->
<g id="node33" class="node"><title>32</title>
<polygon fill="#d739e5" stroke="black" points="1885.5,-149.5 1754.5,-149.5 1754.5,-96.5 1885.5,-96.5 1885.5,-149.5"/>
<text text-anchor="middle" x="1820" y="-134.3" font-family="Times,serif" font-size="14.00">samples = 1</text>
<text text-anchor="middle" x="1820" y="-119.3" font-family="Times,serif" font-size="14.00">value = [0, 0, 0, 1]</text>
<text text-anchor="middle" x="1820" y="-104.3" font-family="Times,serif" font-size="14.00">class = sociopolitical</text>
</g>
<!-- 31&#45;&gt;32 -->
<g id="edge32" class="edge"><title>31&#45;&gt;32</title>
<path fill="none" stroke="black" d="M1820,-192.884C1820,-182.326 1820,-170.597 1820,-159.854"/>
<polygon fill="black" stroke="black" points="1823.5,-159.52 1820,-149.52 1816.5,-159.52 1823.5,-159.52"/>
</g>
<!-- 33 -->
<g id="node34" class="node"><title>33</title>
<polygon fill="#47e539" stroke="black" points="2030.5,-149.5 1903.5,-149.5 1903.5,-96.5 2030.5,-96.5 2030.5,-149.5"/>
<text text-anchor="middle" x="1967" y="-134.3" font-family="Times,serif" font-size="14.00">samples = 25</text>
<text text-anchor="middle" x="1967" y="-119.3" font-family="Times,serif" font-size="14.00">value = [0, 25, 0, 0]</text>
<text text-anchor="middle" x="1967" y="-104.3" font-family="Times,serif" font-size="14.00">class = historical</text>
</g>
<!-- 31&#45;&gt;33 -->
<g id="edge33" class="edge"><title>31&#45;&gt;33</title>
<path fill="none" stroke="black" d="M1867.73,-192.884C1885.16,-180.786 1904.81,-167.151 1922,-155.224"/>
<polygon fill="black" stroke="black" points="1924,-158.096 1930.22,-149.52 1920.01,-152.345 1924,-158.096"/>
</g>
<!-- 35 -->
<g id="node36" class="node"><title>35</title>
<polygon fill="#399de5" stroke="black" points="2026,-253.5 1904,-253.5 1904,-200.5 2026,-200.5 2026,-253.5"/>
<text text-anchor="middle" x="1965" y="-238.3" font-family="Times,serif" font-size="14.00">samples = 4</text>
<text text-anchor="middle" x="1965" y="-223.3" font-family="Times,serif" font-size="14.00">value = [0, 0, 4, 0]</text>
<text text-anchor="middle" x="1965" y="-208.3" font-family="Times,serif" font-size="14.00">class = sentimental</text>
</g>
<!-- 34&#45;&gt;35 -->
<g id="edge35" class="edge"><title>34&#45;&gt;35</title>
<path fill="none" stroke="black" d="M1965,-296.884C1965,-286.326 1965,-274.597 1965,-263.854"/>
<polygon fill="black" stroke="black" points="1968.5,-263.52 1965,-253.52 1961.5,-263.52 1968.5,-263.52"/>
</g>
<!-- 36 -->
<g id="node37" class="node"><title>36</title>
<polygon fill="none" stroke="black" points="2190,-261 2044,-261 2044,-193 2190,-193 2190,-261"/>
<text text-anchor="middle" x="2117" y="-245.8" font-family="Times,serif" font-size="14.00">Anger_NRC &lt;= 3.4688</text>
<text text-anchor="middle" x="2117" y="-230.8" font-family="Times,serif" font-size="14.00">samples = 2</text>
<text text-anchor="middle" x="2117" y="-215.8" font-family="Times,serif" font-size="14.00">value = [0, 1, 0, 1]</text>
<text text-anchor="middle" x="2117" y="-200.8" font-family="Times,serif" font-size="14.00">class = historical</text>
</g>
<!-- 34&#45;&gt;36 -->
<g id="edge36" class="edge"><title>34&#45;&gt;36</title>
<path fill="none" stroke="black" d="M2014.35,-296.884C2028.63,-287.304 2044.34,-276.761 2059.08,-266.864"/>
<polygon fill="black" stroke="black" points="2061.28,-269.603 2067.64,-261.125 2057.38,-263.791 2061.28,-269.603"/>
</g>
<!-- 37 -->
<g id="node38" class="node"><title>37</title>
<polygon fill="#d739e5" stroke="black" points="2181.5,-149.5 2050.5,-149.5 2050.5,-96.5 2181.5,-96.5 2181.5,-149.5"/>
<text text-anchor="middle" x="2116" y="-134.3" font-family="Times,serif" font-size="14.00">samples = 1</text>
<text text-anchor="middle" x="2116" y="-119.3" font-family="Times,serif" font-size="14.00">value = [0, 0, 0, 1]</text>
<text text-anchor="middle" x="2116" y="-104.3" font-family="Times,serif" font-size="14.00">class = sociopolitical</text>
</g>
<!-- 36&#45;&gt;37 -->
<g id="edge37" class="edge"><title>36&#45;&gt;37</title>
<path fill="none" stroke="black" d="M2116.68,-192.884C2116.57,-182.326 2116.46,-170.597 2116.35,-159.854"/>
<polygon fill="black" stroke="black" points="2119.85,-159.485 2116.25,-149.52 2112.85,-159.554 2119.85,-159.485"/>
</g>
<!-- 38 -->
<g id="node39" class="node"><title>38</title>
<polygon fill="#47e539" stroke="black" points="2320,-149.5 2200,-149.5 2200,-96.5 2320,-96.5 2320,-149.5"/>
<text text-anchor="middle" x="2260" y="-134.3" font-family="Times,serif" font-size="14.00">samples = 1</text>
<text text-anchor="middle" x="2260" y="-119.3" font-family="Times,serif" font-size="14.00">value = [0, 1, 0, 0]</text>
<text text-anchor="middle" x="2260" y="-104.3" font-family="Times,serif" font-size="14.00">class = historical</text>
</g>
<!-- 36&#45;&gt;38 -->
<g id="edge38" class="edge"><title>36&#45;&gt;38</title>
<path fill="none" stroke="black" d="M2163.43,-192.884C2180.23,-180.896 2199.16,-167.399 2215.77,-155.549"/>
<polygon fill="black" stroke="black" points="2218.11,-158.176 2224.22,-149.52 2214.05,-152.478 2218.11,-158.176"/>
</g>
</g>
</svg>
