<?xml version="1.0" encoding="UTF-8" standalone="no"?>
<!DOCTYPE svg PUBLIC "-//W3C//DTD SVG 1.1//EN"
 "http://www.w3.org/Graphics/SVG/1.1/DTD/svg11.dtd">
<!-- Generated by graphviz version 2.38.0 (20140413.2041)
 -->
<!-- Title: Tree Pages: 1 -->
<svg width="1275pt" height="477pt"
 viewBox="0.00 0.00 1275.00 477.00" xmlns="http://www.w3.org/2000/svg" xmlns:xlink="http://www.w3.org/1999/xlink">
<g id="graph0" class="graph" transform="scale(1 1) rotate(0) translate(4 473)">
<title>Tree</title>
<polygon fill="white" stroke="none" points="-4,4 -4,-473 1271,-473 1271,4 -4,4"/>
<!-- 0 -->
<g id="node1" class="node"><title>0</title>
<polygon fill="#39e581" fill-opacity="0.054902" stroke="black" points="901.5,-469 688.5,-469 688.5,-401 901.5,-401 901.5,-469"/>
<text text-anchor="middle" x="795" y="-453.8" font-family="Times,serif" font-size="14.00">speech_emotional_WN &lt;= 13.7734</text>
<text text-anchor="middle" x="795" y="-438.8" font-family="Times,serif" font-size="14.00">samples = 112</text>
<text text-anchor="middle" x="795" y="-423.8" font-family="Times,serif" font-size="14.00">value = [41, 45, 26]</text>
<text text-anchor="middle" x="795" y="-408.8" font-family="Times,serif" font-size="14.00">class = 0.5</text>
</g>
<!-- 1 -->
<g id="node2" class="node"><title>1</title>
<polygon fill="#39e581" fill-opacity="0.094118" stroke="black" points="765,-365 611,-365 611,-297 765,-297 765,-365"/>
<text text-anchor="middle" x="688" y="-349.8" font-family="Times,serif" font-size="14.00">negative_WN &lt;= 4.6893</text>
<text text-anchor="middle" x="688" y="-334.8" font-family="Times,serif" font-size="14.00">samples = 91</text>
<text text-anchor="middle" x="688" y="-319.8" font-family="Times,serif" font-size="14.00">value = [38, 43, 10]</text>
<text text-anchor="middle" x="688" y="-304.8" font-family="Times,serif" font-size="14.00">class = 0.5</text>
</g>
<!-- 0&#45;&gt;1 -->
<g id="edge1" class="edge"><title>0&#45;&gt;1</title>
<path fill="none" stroke="black" d="M760.26,-400.884C750.729,-391.798 740.289,-381.845 730.381,-372.4"/>
<polygon fill="black" stroke="black" points="732.585,-369.666 722.932,-365.299 727.755,-374.733 732.585,-369.666"/>
<text text-anchor="middle" x="723.53" y="-386.592" font-family="Times,serif" font-size="14.00">True</text>
</g>
<!-- 16 -->
<g id="node17" class="node"><title>16</title>
<polygon fill="#8139e5" fill-opacity="0.721569" stroke="black" points="1010,-365 796,-365 796,-297 1010,-297 1010,-365"/>
<text text-anchor="middle" x="903" y="-349.8" font-family="Times,serif" font-size="14.00">narrated_emotional_WN &lt;= 7.0115</text>
<text text-anchor="middle" x="903" y="-334.8" font-family="Times,serif" font-size="14.00">samples = 21</text>
<text text-anchor="middle" x="903" y="-319.8" font-family="Times,serif" font-size="14.00">value = [3, 2, 16]</text>
<text text-anchor="middle" x="903" y="-304.8" font-family="Times,serif" font-size="14.00">class = 1.0</text>
</g>
<!-- 0&#45;&gt;16 -->
<g id="edge16" class="edge"><title>0&#45;&gt;16</title>
<path fill="none" stroke="black" d="M830.065,-400.884C839.684,-391.798 850.222,-381.845 860.223,-372.4"/>
<polygon fill="black" stroke="black" points="862.875,-374.71 867.742,-365.299 858.069,-369.621 862.875,-374.71"/>
<text text-anchor="middle" x="867.028" y="-386.589" font-family="Times,serif" font-size="14.00">False</text>
</g>
<!-- 2 -->
<g id="node3" class="node"><title>2</title>
<polygon fill="#e58139" fill-opacity="0.360784" stroke="black" points="504,-261 346,-261 346,-193 504,-193 504,-261"/>
<text text-anchor="middle" x="425" y="-245.8" font-family="Times,serif" font-size="14.00">positive_WN &lt;= 10.7334</text>
<text text-anchor="middle" x="425" y="-230.8" font-family="Times,serif" font-size="14.00">samples = 55</text>
<text text-anchor="middle" x="425" y="-215.8" font-family="Times,serif" font-size="14.00">value = [30, 16, 9]</text>
<text text-anchor="middle" x="425" y="-200.8" font-family="Times,serif" font-size="14.00">class = 0.0</text>
</g>
<!-- 1&#45;&gt;2 -->
<g id="edge2" class="edge"><title>1&#45;&gt;2</title>
<path fill="none" stroke="black" d="M610.868,-300.086C580.512,-288.313 545.464,-274.72 514.039,-262.532"/>
<polygon fill="black" stroke="black" points="515.001,-259.152 504.412,-258.799 512.47,-265.678 515.001,-259.152"/>
</g>
<!-- 9 -->
<g id="node10" class="node"><title>9</title>
<polygon fill="#39e581" fill-opacity="0.678431" stroke="black" points="789.5,-261 586.5,-261 586.5,-193 789.5,-193 789.5,-261"/>
<text text-anchor="middle" x="688" y="-245.8" font-family="Times,serif" font-size="14.00">narrated_neutral_WN &lt;= 48.2614</text>
<text text-anchor="middle" x="688" y="-230.8" font-family="Times,serif" font-size="14.00">samples = 36</text>
<text text-anchor="middle" x="688" y="-215.8" font-family="Times,serif" font-size="14.00">value = [8, 27, 1]</text>
<text text-anchor="middle" x="688" y="-200.8" font-family="Times,serif" font-size="14.00">class = 0.5</text>
</g>
<!-- 1&#45;&gt;9 -->
<g id="edge9" class="edge"><title>1&#45;&gt;9</title>
<path fill="none" stroke="black" d="M688,-296.884C688,-288.778 688,-279.982 688,-271.472"/>
<polygon fill="black" stroke="black" points="691.5,-271.299 688,-261.299 684.5,-271.299 691.5,-271.299"/>
</g>
<!-- 3 -->
<g id="node4" class="node"><title>3</title>
<polygon fill="#e58139" fill-opacity="0.513725" stroke="black" points="291,-157 77,-157 77,-89 291,-89 291,-157"/>
<text text-anchor="middle" x="184" y="-141.8" font-family="Times,serif" font-size="14.00">narrated_emotional_WN &lt;= 8.0126</text>
<text text-anchor="middle" x="184" y="-126.8" font-family="Times,serif" font-size="14.00">samples = 47</text>
<text text-anchor="middle" x="184" y="-111.8" font-family="Times,serif" font-size="14.00">value = [29, 10, 8]</text>
<text text-anchor="middle" x="184" y="-96.8" font-family="Times,serif" font-size="14.00">class = 0.0</text>
</g>
<!-- 2&#45;&gt;3 -->
<g id="edge3" class="edge"><title>2&#45;&gt;3</title>
<path fill="none" stroke="black" d="M346.754,-192.884C322.745,-182.722 296.174,-171.476 271.583,-161.069"/>
<polygon fill="black" stroke="black" points="272.839,-157.799 262.265,-157.125 270.11,-164.246 272.839,-157.799"/>
</g>
<!-- 6 -->
<g id="node7" class="node"><title>6</title>
<polygon fill="#39e581" fill-opacity="0.713725" stroke="black" points="528,-157 322,-157 322,-89 528,-89 528,-157"/>
<text text-anchor="middle" x="425" y="-141.8" font-family="Times,serif" font-size="14.00">speech_emotional_WN &lt;= 3.8036</text>
<text text-anchor="middle" x="425" y="-126.8" font-family="Times,serif" font-size="14.00">samples = 8</text>
<text text-anchor="middle" x="425" y="-111.8" font-family="Times,serif" font-size="14.00">value = [1, 6, 1]</text>
<text text-anchor="middle" x="425" y="-96.8" font-family="Times,serif" font-size="14.00">class = 0.5</text>
</g>
<!-- 2&#45;&gt;6 -->
<g id="edge6" class="edge"><title>2&#45;&gt;6</title>
<path fill="none" stroke="black" d="M425,-192.884C425,-184.778 425,-175.982 425,-167.472"/>
<polygon fill="black" stroke="black" points="428.5,-167.299 425,-157.299 421.5,-167.299 428.5,-167.299"/>
</g>
<!-- 4 -->
<g id="node5" class="node"><title>4</title>
<polygon fill="#8139e5" fill-opacity="0.749020" stroke="black" points="106,-53 7.10543e-15,-53 7.10543e-15,-0 106,-0 106,-53"/>
<text text-anchor="middle" x="53" y="-37.8" font-family="Times,serif" font-size="14.00">samples = 5</text>
<text text-anchor="middle" x="53" y="-22.8" font-family="Times,serif" font-size="14.00">value = [1, 0, 4]</text>
<text text-anchor="middle" x="53" y="-7.8" font-family="Times,serif" font-size="14.00">class = 1.0</text>
</g>
<!-- 3&#45;&gt;4 -->
<g id="edge4" class="edge"><title>3&#45;&gt;4</title>
<path fill="none" stroke="black" d="M138.183,-88.9485C124.867,-79.3431 110.355,-68.8747 97.1449,-59.345"/>
<polygon fill="black" stroke="black" points="98.8351,-56.2486 88.6773,-53.2367 94.7398,-61.9257 98.8351,-56.2486"/>
</g>
<!-- 5 -->
<g id="node6" class="node"><title>5</title>
<polygon fill="#e58139" fill-opacity="0.560784" stroke="black" points="243.5,-53 124.5,-53 124.5,-0 243.5,-0 243.5,-53"/>
<text text-anchor="middle" x="184" y="-37.8" font-family="Times,serif" font-size="14.00">samples = 42</text>
<text text-anchor="middle" x="184" y="-22.8" font-family="Times,serif" font-size="14.00">value = [28, 10, 4]</text>
<text text-anchor="middle" x="184" y="-7.8" font-family="Times,serif" font-size="14.00">class = 0.0</text>
</g>
<!-- 3&#45;&gt;5 -->
<g id="edge5" class="edge"><title>3&#45;&gt;5</title>
<path fill="none" stroke="black" d="M184,-88.9485C184,-80.7153 184,-71.848 184,-63.4814"/>
<polygon fill="black" stroke="black" points="187.5,-63.2367 184,-53.2367 180.5,-63.2367 187.5,-63.2367"/>
</g>
<!-- 7 -->
<g id="node8" class="node"><title>7</title>
<polygon fill="none" stroke="black" points="368,-53 262,-53 262,-0 368,-0 368,-53"/>
<text text-anchor="middle" x="315" y="-37.8" font-family="Times,serif" font-size="14.00">samples = 2</text>
<text text-anchor="middle" x="315" y="-22.8" font-family="Times,serif" font-size="14.00">value = [1, 0, 1]</text>
<text text-anchor="middle" x="315" y="-7.8" font-family="Times,serif" font-size="14.00">class = 0.0</text>
</g>
<!-- 6&#45;&gt;7 -->
<g id="edge7" class="edge"><title>6&#45;&gt;7</title>
<path fill="none" stroke="black" d="M386.527,-88.9485C375.559,-79.526 363.625,-69.2731 352.703,-59.8906"/>
<polygon fill="black" stroke="black" points="354.824,-57.0983 344.958,-53.2367 350.263,-62.408 354.824,-57.0983"/>
</g>
<!-- 8 -->
<g id="node9" class="node"><title>8</title>
<polygon fill="#39e581" stroke="black" points="492,-53 386,-53 386,-0 492,-0 492,-53"/>
<text text-anchor="middle" x="439" y="-37.8" font-family="Times,serif" font-size="14.00">samples = 6</text>
<text text-anchor="middle" x="439" y="-22.8" font-family="Times,serif" font-size="14.00">value = [0, 6, 0]</text>
<text text-anchor="middle" x="439" y="-7.8" font-family="Times,serif" font-size="14.00">class = 0.5</text>
</g>
<!-- 6&#45;&gt;8 -->
<g id="edge8" class="edge"><title>6&#45;&gt;8</title>
<path fill="none" stroke="black" d="M429.897,-88.9485C431.13,-80.6238 432.459,-71.6509 433.711,-63.2027"/>
<polygon fill="black" stroke="black" points="437.184,-63.6417 435.187,-53.2367 430.259,-62.6158 437.184,-63.6417"/>
</g>
<!-- 10 -->
<g id="node11" class="node"><title>10</title>
<polygon fill="#39e581" fill-opacity="0.886275" stroke="black" points="759,-157 563,-157 563,-89 759,-89 759,-157"/>
<text text-anchor="middle" x="661" y="-141.8" font-family="Times,serif" font-size="14.00">speech_neutral_WN &lt;= 25.1298</text>
<text text-anchor="middle" x="661" y="-126.8" font-family="Times,serif" font-size="14.00">samples = 28</text>
<text text-anchor="middle" x="661" y="-111.8" font-family="Times,serif" font-size="14.00">value = [2, 25, 1]</text>
<text text-anchor="middle" x="661" y="-96.8" font-family="Times,serif" font-size="14.00">class = 0.5</text>
</g>
<!-- 9&#45;&gt;10 -->
<g id="edge10" class="edge"><title>9&#45;&gt;10</title>
<path fill="none" stroke="black" d="M679.234,-192.884C677.065,-184.689 674.709,-175.789 672.433,-167.192"/>
<polygon fill="black" stroke="black" points="675.757,-166.071 669.815,-157.299 668.99,-167.862 675.757,-166.071"/>
</g>
<!-- 13 -->
<g id="node14" class="node"><title>13</title>
<polygon fill="#e58139" fill-opacity="0.666667" stroke="black" points="931,-157 777,-157 777,-89 931,-89 931,-157"/>
<text text-anchor="middle" x="854" y="-141.8" font-family="Times,serif" font-size="14.00">negative_WN &lt;= 7.7692</text>
<text text-anchor="middle" x="854" y="-126.8" font-family="Times,serif" font-size="14.00">samples = 8</text>
<text text-anchor="middle" x="854" y="-111.8" font-family="Times,serif" font-size="14.00">value = [6, 2, 0]</text>
<text text-anchor="middle" x="854" y="-96.8" font-family="Times,serif" font-size="14.00">class = 0.0</text>
</g>
<!-- 9&#45;&gt;13 -->
<g id="edge13" class="edge"><title>9&#45;&gt;13</title>
<path fill="none" stroke="black" d="M741.895,-192.884C757.631,-183.214 774.965,-172.563 791.201,-162.587"/>
<polygon fill="black" stroke="black" points="793.403,-165.342 800.091,-157.125 789.739,-159.378 793.403,-165.342"/>
</g>
<!-- 11 -->
<g id="node12" class="node"><title>11</title>
<polygon fill="#39e581" fill-opacity="0.623529" stroke="black" points="616,-53 510,-53 510,-0 616,-0 616,-53"/>
<text text-anchor="middle" x="563" y="-37.8" font-family="Times,serif" font-size="14.00">samples = 10</text>
<text text-anchor="middle" x="563" y="-22.8" font-family="Times,serif" font-size="14.00">value = [2, 7, 1]</text>
<text text-anchor="middle" x="563" y="-7.8" font-family="Times,serif" font-size="14.00">class = 0.5</text>
</g>
<!-- 10&#45;&gt;11 -->
<g id="edge11" class="edge"><title>10&#45;&gt;11</title>
<path fill="none" stroke="black" d="M626.724,-88.9485C617.143,-79.709 606.733,-69.671 597.158,-60.4381"/>
<polygon fill="black" stroke="black" points="599.318,-57.6586 589.69,-53.2367 594.459,-62.6976 599.318,-57.6586"/>
</g>
<!-- 12 -->
<g id="node13" class="node"><title>12</title>
<polygon fill="#39e581" stroke="black" points="747.5,-53 634.5,-53 634.5,-0 747.5,-0 747.5,-53"/>
<text text-anchor="middle" x="691" y="-37.8" font-family="Times,serif" font-size="14.00">samples = 18</text>
<text text-anchor="middle" x="691" y="-22.8" font-family="Times,serif" font-size="14.00">value = [0, 18, 0]</text>
<text text-anchor="middle" x="691" y="-7.8" font-family="Times,serif" font-size="14.00">class = 0.5</text>
</g>
<!-- 10&#45;&gt;12 -->
<g id="edge12" class="edge"><title>10&#45;&gt;12</title>
<path fill="none" stroke="black" d="M671.493,-88.9485C674.164,-80.5323 677.046,-71.4536 679.754,-62.9243"/>
<polygon fill="black" stroke="black" points="683.14,-63.827 682.83,-53.2367 676.468,-61.7089 683.14,-63.827"/>
</g>
<!-- 14 -->
<g id="node15" class="node"><title>14</title>
<polygon fill="#e58139" stroke="black" points="872,-53 766,-53 766,-0 872,-0 872,-53"/>
<text text-anchor="middle" x="819" y="-37.8" font-family="Times,serif" font-size="14.00">samples = 6</text>
<text text-anchor="middle" x="819" y="-22.8" font-family="Times,serif" font-size="14.00">value = [6, 0, 0]</text>
<text text-anchor="middle" x="819" y="-7.8" font-family="Times,serif" font-size="14.00">class = 0.0</text>
</g>
<!-- 13&#45;&gt;14 -->
<g id="edge14" class="edge"><title>13&#45;&gt;14</title>
<path fill="none" stroke="black" d="M841.759,-88.9485C838.608,-80.4408 835.206,-71.2562 832.017,-62.6464"/>
<polygon fill="black" stroke="black" points="835.287,-61.3986 828.532,-53.2367 828.723,-63.8298 835.287,-61.3986"/>
</g>
<!-- 15 -->
<g id="node16" class="node"><title>15</title>
<polygon fill="#39e581" stroke="black" points="996,-53 890,-53 890,-0 996,-0 996,-53"/>
<text text-anchor="middle" x="943" y="-37.8" font-family="Times,serif" font-size="14.00">samples = 2</text>
<text text-anchor="middle" x="943" y="-22.8" font-family="Times,serif" font-size="14.00">value = [0, 2, 0]</text>
<text text-anchor="middle" x="943" y="-7.8" font-family="Times,serif" font-size="14.00">class = 0.5</text>
</g>
<!-- 13&#45;&gt;15 -->
<g id="edge15" class="edge"><title>13&#45;&gt;15</title>
<path fill="none" stroke="black" d="M885.128,-88.9485C893.743,-79.8005 903.096,-69.8697 911.72,-60.7126"/>
<polygon fill="black" stroke="black" points="914.453,-62.9161 918.761,-53.2367 909.357,-58.1168 914.453,-62.9161"/>
</g>
<!-- 17 -->
<g id="node18" class="node"><title>17</title>
<polygon fill="#e58139" stroke="black" points="956,-253.5 850,-253.5 850,-200.5 956,-200.5 956,-253.5"/>
<text text-anchor="middle" x="903" y="-238.3" font-family="Times,serif" font-size="14.00">samples = 2</text>
<text text-anchor="middle" x="903" y="-223.3" font-family="Times,serif" font-size="14.00">value = [2, 0, 0]</text>
<text text-anchor="middle" x="903" y="-208.3" font-family="Times,serif" font-size="14.00">class = 0.0</text>
</g>
<!-- 16&#45;&gt;17 -->
<g id="edge17" class="edge"><title>16&#45;&gt;17</title>
<path fill="none" stroke="black" d="M903,-296.884C903,-286.326 903,-274.597 903,-263.854"/>
<polygon fill="black" stroke="black" points="906.5,-263.52 903,-253.52 899.5,-263.52 906.5,-263.52"/>
</g>
<!-- 18 -->
<g id="node19" class="node"><title>18</title>
<polygon fill="#8139e5" fill-opacity="0.823529" stroke="black" points="1146,-261 988,-261 988,-193 1146,-193 1146,-261"/>
<text text-anchor="middle" x="1067" y="-245.8" font-family="Times,serif" font-size="14.00">positive_WN &lt;= 18.3673</text>
<text text-anchor="middle" x="1067" y="-230.8" font-family="Times,serif" font-size="14.00">samples = 19</text>
<text text-anchor="middle" x="1067" y="-215.8" font-family="Times,serif" font-size="14.00">value = [1, 2, 16]</text>
<text text-anchor="middle" x="1067" y="-200.8" font-family="Times,serif" font-size="14.00">class = 1.0</text>
</g>
<!-- 16&#45;&gt;18 -->
<g id="edge18" class="edge"><title>16&#45;&gt;18</title>
<path fill="none" stroke="black" d="M956.246,-296.884C971.792,-287.214 988.918,-276.563 1004.96,-266.587"/>
<polygon fill="black" stroke="black" points="1007.1,-269.378 1013.74,-261.125 1003.4,-263.434 1007.1,-269.378"/>
</g>
<!-- 19 -->
<g id="node20" class="node"><title>19</title>
<polygon fill="#8139e5" fill-opacity="0.882353" stroke="black" points="1142.5,-157 991.5,-157 991.5,-89 1142.5,-89 1142.5,-157"/>
<text text-anchor="middle" x="1067" y="-141.8" font-family="Times,serif" font-size="14.00">positive_WN &lt;= 7.5917</text>
<text text-anchor="middle" x="1067" y="-126.8" font-family="Times,serif" font-size="14.00">samples = 18</text>
<text text-anchor="middle" x="1067" y="-111.8" font-family="Times,serif" font-size="14.00">value = [1, 1, 16]</text>
<text text-anchor="middle" x="1067" y="-96.8" font-family="Times,serif" font-size="14.00">class = 1.0</text>
</g>
<!-- 18&#45;&gt;19 -->
<g id="edge19" class="edge"><title>18&#45;&gt;19</title>
<path fill="none" stroke="black" d="M1067,-192.884C1067,-184.778 1067,-175.982 1067,-167.472"/>
<polygon fill="black" stroke="black" points="1070.5,-167.299 1067,-157.299 1063.5,-167.299 1070.5,-167.299"/>
</g>
<!-- 22 -->
<g id="node23" class="node"><title>22</title>
<polygon fill="#39e581" stroke="black" points="1267,-149.5 1161,-149.5 1161,-96.5 1267,-96.5 1267,-149.5"/>
<text text-anchor="middle" x="1214" y="-134.3" font-family="Times,serif" font-size="14.00">samples = 1</text>
<text text-anchor="middle" x="1214" y="-119.3" font-family="Times,serif" font-size="14.00">value = [0, 1, 0]</text>
<text text-anchor="middle" x="1214" y="-104.3" font-family="Times,serif" font-size="14.00">class = 0.5</text>
</g>
<!-- 18&#45;&gt;22 -->
<g id="edge22" class="edge"><title>18&#45;&gt;22</title>
<path fill="none" stroke="black" d="M1114.73,-192.884C1132.16,-180.786 1151.81,-167.151 1169,-155.224"/>
<polygon fill="black" stroke="black" points="1171,-158.096 1177.22,-149.52 1167.01,-152.345 1171,-158.096"/>
</g>
<!-- 20 -->
<g id="node21" class="node"><title>20</title>
<polygon fill="#8139e5" fill-opacity="0.498039" stroke="black" points="1120,-53 1014,-53 1014,-0 1120,-0 1120,-53"/>
<text text-anchor="middle" x="1067" y="-37.8" font-family="Times,serif" font-size="14.00">samples = 5</text>
<text text-anchor="middle" x="1067" y="-22.8" font-family="Times,serif" font-size="14.00">value = [1, 1, 3]</text>
<text text-anchor="middle" x="1067" y="-7.8" font-family="Times,serif" font-size="14.00">class = 1.0</text>
</g>
<!-- 19&#45;&gt;20 -->
<g id="edge20" class="edge"><title>19&#45;&gt;20</title>
<path fill="none" stroke="black" d="M1067,-88.9485C1067,-80.7153 1067,-71.848 1067,-63.4814"/>
<polygon fill="black" stroke="black" points="1070.5,-63.2367 1067,-53.2367 1063.5,-63.2367 1070.5,-63.2367"/>
</g>
<!-- 21 -->
<g id="node22" class="node"><title>21</title>
<polygon fill="#8139e5" stroke="black" points="1251.5,-53 1138.5,-53 1138.5,-0 1251.5,-0 1251.5,-53"/>
<text text-anchor="middle" x="1195" y="-37.8" font-family="Times,serif" font-size="14.00">samples = 13</text>
<text text-anchor="middle" x="1195" y="-22.8" font-family="Times,serif" font-size="14.00">value = [0, 0, 13]</text>
<text text-anchor="middle" x="1195" y="-7.8" font-family="Times,serif" font-size="14.00">class = 1.0</text>
</g>
<!-- 19&#45;&gt;21 -->
<g id="edge21" class="edge"><title>19&#45;&gt;21</title>
<path fill="none" stroke="black" d="M1111.77,-88.9485C1124.78,-79.3431 1138.96,-68.8747 1151.87,-59.345"/>
<polygon fill="black" stroke="black" points="1154.17,-61.992 1160.14,-53.2367 1150.02,-56.3605 1154.17,-61.992"/>
</g>
</g>
</svg>
