<?xml version="1.0" encoding="UTF-8" standalone="no"?>
<!DOCTYPE svg PUBLIC "-//W3C//DTD SVG 1.1//EN"
 "http://www.w3.org/Graphics/SVG/1.1/DTD/svg11.dtd">
<!-- Generated by graphviz version 2.38.0 (20140413.2041)
 -->
<!-- Title: Tree Pages: 1 -->
<svg width="1622pt" height="477pt"
 viewBox="0.00 0.00 1622.00 477.00" xmlns="http://www.w3.org/2000/svg" xmlns:xlink="http://www.w3.org/1999/xlink">
<g id="graph0" class="graph" transform="scale(1 1) rotate(0) translate(4 473)">
<title>Tree</title>
<polygon fill="white" stroke="none" points="-4,4 -4,-473 1618,-473 1618,4 -4,4"/>
<!-- 0 -->
<g id="node1" class="node"><title>0</title>
<polygon fill="#399de5" fill-opacity="0.047059" stroke="black" points="973.5,-469 826.5,-469 826.5,-401 973.5,-401 973.5,-469"/>
<text text-anchor="middle" x="900" y="-453.8" font-family="Times,serif" font-size="14.00">Fear_NRC &lt;= 6.4535</text>
<text text-anchor="middle" x="900" y="-438.8" font-family="Times,serif" font-size="14.00">samples = 112</text>
<text text-anchor="middle" x="900" y="-423.8" font-family="Times,serif" font-size="14.00">value = [22, 30, 34, 26]</text>
<text text-anchor="middle" x="900" y="-408.8" font-family="Times,serif" font-size="14.00">class = sentimental</text>
</g>
<!-- 1 -->
<g id="node2" class="node"><title>1</title>
<polygon fill="#399de5" fill-opacity="0.109804" stroke="black" points="723,-365 505,-365 505,-297 723,-297 723,-365"/>
<text text-anchor="middle" x="614" y="-349.8" font-family="Times,serif" font-size="14.00">speech_emotional_NRC &lt;= 14.2456</text>
<text text-anchor="middle" x="614" y="-334.8" font-family="Times,serif" font-size="14.00">samples = 78</text>
<text text-anchor="middle" x="614" y="-319.8" font-family="Times,serif" font-size="14.00">value = [22, 4, 29, 23]</text>
<text text-anchor="middle" x="614" y="-304.8" font-family="Times,serif" font-size="14.00">class = sentimental</text>
</g>
<!-- 0&#45;&gt;1 -->
<g id="edge1" class="edge"><title>0&#45;&gt;1</title>
<path fill="none" stroke="black" d="M826.348,-407.732C792.847,-395.785 752.647,-381.447 716.279,-368.477"/>
<polygon fill="black" stroke="black" points="717.224,-365.098 706.629,-365.036 714.872,-371.691 717.224,-365.098"/>
<text text-anchor="middle" x="717.341" y="-383.924" font-family="Times,serif" font-size="14.00">True</text>
</g>
<!-- 14 -->
<g id="node15" class="node"><title>14</title>
<polygon fill="#47e539" fill-opacity="0.725490" stroke="black" points="1269,-365 1051,-365 1051,-297 1269,-297 1269,-365"/>
<text text-anchor="middle" x="1160" y="-349.8" font-family="Times,serif" font-size="14.00">speech_emotional_NRC &lt;= 25.6954</text>
<text text-anchor="middle" x="1160" y="-334.8" font-family="Times,serif" font-size="14.00">samples = 34</text>
<text text-anchor="middle" x="1160" y="-319.8" font-family="Times,serif" font-size="14.00">value = [0, 26, 5, 3]</text>
<text text-anchor="middle" x="1160" y="-304.8" font-family="Times,serif" font-size="14.00">class = historical</text>
</g>
<!-- 0&#45;&gt;14 -->
<g id="edge14" class="edge"><title>0&#45;&gt;14</title>
<path fill="none" stroke="black" d="M973.81,-405.044C1002.52,-393.781 1035.75,-380.743 1066.13,-368.826"/>
<polygon fill="black" stroke="black" points="1067.43,-372.078 1075.46,-365.167 1064.87,-365.561 1067.43,-372.078"/>
<text text-anchor="middle" x="1065.46" y="-384.38" font-family="Times,serif" font-size="14.00">False</text>
</g>
<!-- 2 -->
<g id="node3" class="node"><title>2</title>
<polygon fill="#e58139" fill-opacity="0.050980" stroke="black" points="333,-261 159,-261 159,-193 333,-193 333,-261"/>
<text text-anchor="middle" x="246" y="-245.8" font-family="Times,serif" font-size="14.00">emotional_NRC &lt;= 37.1504</text>
<text text-anchor="middle" x="246" y="-230.8" font-family="Times,serif" font-size="14.00">samples = 35</text>
<text text-anchor="middle" x="246" y="-215.8" font-family="Times,serif" font-size="14.00">value = [17, 2, 0, 16]</text>
<text text-anchor="middle" x="246" y="-200.8" font-family="Times,serif" font-size="14.00">class = costumbrista</text>
</g>
<!-- 1&#45;&gt;2 -->
<g id="edge2" class="edge"><title>1&#45;&gt;2</title>
<path fill="none" stroke="black" d="M504.584,-299.673C453.239,-285.441 392.567,-268.625 342.901,-254.858"/>
<polygon fill="black" stroke="black" points="343.692,-251.446 333.121,-252.148 341.822,-258.192 343.692,-251.446"/>
</g>
<!-- 7 -->
<g id="node8" class="node"><title>7</title>
<polygon fill="#399de5" fill-opacity="0.611765" stroke="black" points="716.5,-261 511.5,-261 511.5,-193 716.5,-193 716.5,-261"/>
<text text-anchor="middle" x="614" y="-245.8" font-family="Times,serif" font-size="14.00">Disgust_NRC_narrated &lt;= 0.8579</text>
<text text-anchor="middle" x="614" y="-230.8" font-family="Times,serif" font-size="14.00">samples = 43</text>
<text text-anchor="middle" x="614" y="-215.8" font-family="Times,serif" font-size="14.00">value = [5, 2, 29, 7]</text>
<text text-anchor="middle" x="614" y="-200.8" font-family="Times,serif" font-size="14.00">class = sentimental</text>
</g>
<!-- 1&#45;&gt;7 -->
<g id="edge7" class="edge"><title>1&#45;&gt;7</title>
<path fill="none" stroke="black" d="M614,-296.884C614,-288.778 614,-279.982 614,-271.472"/>
<polygon fill="black" stroke="black" points="617.5,-271.299 614,-261.299 610.5,-271.299 617.5,-271.299"/>
</g>
<!-- 3 -->
<g id="node4" class="node"><title>3</title>
<polygon fill="#e58139" stroke="black" points="128,-149.5 0,-149.5 0,-96.5 128,-96.5 128,-149.5"/>
<text text-anchor="middle" x="64" y="-134.3" font-family="Times,serif" font-size="14.00">samples = 10</text>
<text text-anchor="middle" x="64" y="-119.3" font-family="Times,serif" font-size="14.00">value = [10, 0, 0, 0]</text>
<text text-anchor="middle" x="64" y="-104.3" font-family="Times,serif" font-size="14.00">class = costumbrista</text>
</g>
<!-- 2&#45;&gt;3 -->
<g id="edge3" class="edge"><title>2&#45;&gt;3</title>
<path fill="none" stroke="black" d="M186.91,-192.884C164.833,-180.511 139.888,-166.53 118.267,-154.413"/>
<polygon fill="black" stroke="black" points="119.97,-151.356 109.536,-149.52 116.548,-157.462 119.97,-151.356"/>
</g>
<!-- 4 -->
<g id="node5" class="node"><title>4</title>
<polygon fill="#d739e5" fill-opacity="0.501961" stroke="black" points="346,-157 146,-157 146,-89 346,-89 346,-157"/>
<text text-anchor="middle" x="246" y="-141.8" font-family="Times,serif" font-size="14.00">speech_neutral_NRC &lt;= 32.4398</text>
<text text-anchor="middle" x="246" y="-126.8" font-family="Times,serif" font-size="14.00">samples = 25</text>
<text text-anchor="middle" x="246" y="-111.8" font-family="Times,serif" font-size="14.00">value = [7, 2, 0, 16]</text>
<text text-anchor="middle" x="246" y="-96.8" font-family="Times,serif" font-size="14.00">class = sociopolitical</text>
</g>
<!-- 2&#45;&gt;4 -->
<g id="edge4" class="edge"><title>2&#45;&gt;4</title>
<path fill="none" stroke="black" d="M246,-192.884C246,-184.778 246,-175.982 246,-167.472"/>
<polygon fill="black" stroke="black" points="249.5,-167.299 246,-157.299 242.5,-167.299 249.5,-167.299"/>
</g>
<!-- 5 -->
<g id="node6" class="node"><title>5</title>
<polygon fill="#d739e5" fill-opacity="0.800000" stroke="black" points="163.5,-53 32.5,-53 32.5,-0 163.5,-0 163.5,-53"/>
<text text-anchor="middle" x="98" y="-37.8" font-family="Times,serif" font-size="14.00">samples = 18</text>
<text text-anchor="middle" x="98" y="-22.8" font-family="Times,serif" font-size="14.00">value = [3, 0, 0, 15]</text>
<text text-anchor="middle" x="98" y="-7.8" font-family="Times,serif" font-size="14.00">class = sociopolitical</text>
</g>
<!-- 4&#45;&gt;5 -->
<g id="edge5" class="edge"><title>4&#45;&gt;5</title>
<path fill="none" stroke="black" d="M194.237,-88.9485C178.907,-79.1601 162.173,-68.4756 147.022,-58.8015"/>
<polygon fill="black" stroke="black" points="148.619,-55.6685 138.307,-53.2367 144.852,-61.5683 148.619,-55.6685"/>
</g>
<!-- 6 -->
<g id="node7" class="node"><title>6</title>
<polygon fill="#e58139" fill-opacity="0.400000" stroke="black" points="310,-53 182,-53 182,-0 310,-0 310,-53"/>
<text text-anchor="middle" x="246" y="-37.8" font-family="Times,serif" font-size="14.00">samples = 7</text>
<text text-anchor="middle" x="246" y="-22.8" font-family="Times,serif" font-size="14.00">value = [4, 2, 0, 1]</text>
<text text-anchor="middle" x="246" y="-7.8" font-family="Times,serif" font-size="14.00">class = costumbrista</text>
</g>
<!-- 4&#45;&gt;6 -->
<g id="edge6" class="edge"><title>4&#45;&gt;6</title>
<path fill="none" stroke="black" d="M246,-88.9485C246,-80.7153 246,-71.848 246,-63.4814"/>
<polygon fill="black" stroke="black" points="249.5,-63.2367 246,-53.2367 242.5,-63.2367 249.5,-63.2367"/>
</g>
<!-- 8 -->
<g id="node9" class="node"><title>8</title>
<polygon fill="#399de5" fill-opacity="0.772549" stroke="black" points="616.5,-157 415.5,-157 415.5,-89 616.5,-89 616.5,-157"/>
<text text-anchor="middle" x="516" y="-141.8" font-family="Times,serif" font-size="14.00">narrated_neutral_NRC &lt;= 6.7615</text>
<text text-anchor="middle" x="516" y="-126.8" font-family="Times,serif" font-size="14.00">samples = 35</text>
<text text-anchor="middle" x="516" y="-111.8" font-family="Times,serif" font-size="14.00">value = [2, 1, 28, 4]</text>
<text text-anchor="middle" x="516" y="-96.8" font-family="Times,serif" font-size="14.00">class = sentimental</text>
</g>
<!-- 7&#45;&gt;8 -->
<g id="edge8" class="edge"><title>7&#45;&gt;8</title>
<path fill="none" stroke="black" d="M582.182,-192.884C573.539,-183.887 564.078,-174.041 555.083,-164.678"/>
<polygon fill="black" stroke="black" points="557.446,-162.086 547.994,-157.299 552.398,-166.935 557.446,-162.086"/>
</g>
<!-- 11 -->
<g id="node12" class="node"><title>11</title>
<polygon fill="none" stroke="black" points="791.5,-157 634.5,-157 634.5,-89 791.5,-89 791.5,-157"/>
<text text-anchor="middle" x="713" y="-141.8" font-family="Times,serif" font-size="14.00">neutral_NRC &lt;= 47.1469</text>
<text text-anchor="middle" x="713" y="-126.8" font-family="Times,serif" font-size="14.00">samples = 8</text>
<text text-anchor="middle" x="713" y="-111.8" font-family="Times,serif" font-size="14.00">value = [3, 1, 1, 3]</text>
<text text-anchor="middle" x="713" y="-96.8" font-family="Times,serif" font-size="14.00">class = costumbrista</text>
</g>
<!-- 7&#45;&gt;11 -->
<g id="edge11" class="edge"><title>7&#45;&gt;11</title>
<path fill="none" stroke="black" d="M646.142,-192.884C654.874,-183.887 664.431,-174.041 673.518,-164.678"/>
<polygon fill="black" stroke="black" points="676.227,-166.913 680.68,-157.299 671.204,-162.038 676.227,-166.913"/>
</g>
<!-- 9 -->
<g id="node10" class="node"><title>9</title>
<polygon fill="#d739e5" stroke="black" points="459.5,-53 328.5,-53 328.5,-0 459.5,-0 459.5,-53"/>
<text text-anchor="middle" x="394" y="-37.8" font-family="Times,serif" font-size="14.00">samples = 3</text>
<text text-anchor="middle" x="394" y="-22.8" font-family="Times,serif" font-size="14.00">value = [0, 0, 0, 3]</text>
<text text-anchor="middle" x="394" y="-7.8" font-family="Times,serif" font-size="14.00">class = sociopolitical</text>
</g>
<!-- 8&#45;&gt;9 -->
<g id="edge9" class="edge"><title>8&#45;&gt;9</title>
<path fill="none" stroke="black" d="M473.33,-88.9485C461.048,-79.4346 447.672,-69.074 435.464,-59.6175"/>
<polygon fill="black" stroke="black" points="437.275,-56.5934 427.226,-53.2367 432.989,-62.1274 437.275,-56.5934"/>
</g>
<!-- 10 -->
<g id="node11" class="node"><title>10</title>
<polygon fill="#399de5" fill-opacity="0.866667" stroke="black" points="604.5,-53 477.5,-53 477.5,-0 604.5,-0 604.5,-53"/>
<text text-anchor="middle" x="541" y="-37.8" font-family="Times,serif" font-size="14.00">samples = 32</text>
<text text-anchor="middle" x="541" y="-22.8" font-family="Times,serif" font-size="14.00">value = [2, 1, 28, 1]</text>
<text text-anchor="middle" x="541" y="-7.8" font-family="Times,serif" font-size="14.00">class = sentimental</text>
</g>
<!-- 8&#45;&gt;10 -->
<g id="edge10" class="edge"><title>8&#45;&gt;10</title>
<path fill="none" stroke="black" d="M524.744,-88.9485C526.97,-80.5323 529.372,-71.4536 531.628,-62.9243"/>
<polygon fill="black" stroke="black" points="535.017,-63.7993 534.191,-53.2367 528.25,-62.009 535.017,-63.7993"/>
</g>
<!-- 12 -->
<g id="node13" class="node"><title>12</title>
<polygon fill="#e58139" stroke="black" points="751,-53 623,-53 623,-0 751,-0 751,-53"/>
<text text-anchor="middle" x="687" y="-37.8" font-family="Times,serif" font-size="14.00">samples = 3</text>
<text text-anchor="middle" x="687" y="-22.8" font-family="Times,serif" font-size="14.00">value = [3, 0, 0, 0]</text>
<text text-anchor="middle" x="687" y="-7.8" font-family="Times,serif" font-size="14.00">class = costumbrista</text>
</g>
<!-- 11&#45;&gt;12 -->
<g id="edge12" class="edge"><title>11&#45;&gt;12</title>
<path fill="none" stroke="black" d="M703.906,-88.9485C701.591,-80.5323 699.093,-71.4536 696.746,-62.9243"/>
<polygon fill="black" stroke="black" points="700.108,-61.9499 694.081,-53.2367 693.359,-63.8069 700.108,-61.9499"/>
</g>
<!-- 13 -->
<g id="node14" class="node"><title>13</title>
<polygon fill="#d739e5" fill-opacity="0.498039" stroke="black" points="900.5,-53 769.5,-53 769.5,-0 900.5,-0 900.5,-53"/>
<text text-anchor="middle" x="835" y="-37.8" font-family="Times,serif" font-size="14.00">samples = 5</text>
<text text-anchor="middle" x="835" y="-22.8" font-family="Times,serif" font-size="14.00">value = [0, 1, 1, 3]</text>
<text text-anchor="middle" x="835" y="-7.8" font-family="Times,serif" font-size="14.00">class = sociopolitical</text>
</g>
<!-- 11&#45;&gt;13 -->
<g id="edge13" class="edge"><title>11&#45;&gt;13</title>
<path fill="none" stroke="black" d="M755.67,-88.9485C767.952,-79.4346 781.328,-69.074 793.536,-59.6175"/>
<polygon fill="black" stroke="black" points="796.011,-62.1274 801.774,-53.2367 791.725,-56.5934 796.011,-62.1274"/>
</g>
<!-- 15 -->
<g id="node16" class="node"><title>15</title>
<polygon fill="#47e539" fill-opacity="0.847059" stroke="black" points="1255,-261 1065,-261 1065,-193 1255,-193 1255,-261"/>
<text text-anchor="middle" x="1160" y="-245.8" font-family="Times,serif" font-size="14.00">Anger_NRC_speech &lt;= 0.2148</text>
<text text-anchor="middle" x="1160" y="-230.8" font-family="Times,serif" font-size="14.00">samples = 29</text>
<text text-anchor="middle" x="1160" y="-215.8" font-family="Times,serif" font-size="14.00">value = [0, 25, 1, 3]</text>
<text text-anchor="middle" x="1160" y="-200.8" font-family="Times,serif" font-size="14.00">class = historical</text>
</g>
<!-- 14&#45;&gt;15 -->
<g id="edge15" class="edge"><title>14&#45;&gt;15</title>
<path fill="none" stroke="black" d="M1160,-296.884C1160,-288.778 1160,-279.982 1160,-271.472"/>
<polygon fill="black" stroke="black" points="1163.5,-271.299 1160,-261.299 1156.5,-271.299 1163.5,-271.299"/>
</g>
<!-- 22 -->
<g id="node23" class="node"><title>22</title>
<polygon fill="#399de5" fill-opacity="0.749020" stroke="black" points="1508,-261 1320,-261 1320,-193 1508,-193 1508,-261"/>
<text text-anchor="middle" x="1414" y="-245.8" font-family="Times,serif" font-size="14.00">Fear_NRC_narrated &lt;= 2.7733</text>
<text text-anchor="middle" x="1414" y="-230.8" font-family="Times,serif" font-size="14.00">samples = 5</text>
<text text-anchor="middle" x="1414" y="-215.8" font-family="Times,serif" font-size="14.00">value = [0, 1, 4, 0]</text>
<text text-anchor="middle" x="1414" y="-200.8" font-family="Times,serif" font-size="14.00">class = sentimental</text>
</g>
<!-- 14&#45;&gt;22 -->
<g id="edge22" class="edge"><title>14&#45;&gt;22</title>
<path fill="none" stroke="black" d="M1242.47,-296.884C1267.88,-286.677 1296.02,-275.377 1322.03,-264.931"/>
<polygon fill="black" stroke="black" points="1323.54,-268.099 1331.51,-261.125 1320.93,-261.603 1323.54,-268.099"/>
</g>
<!-- 16 -->
<g id="node17" class="node"><title>16</title>
<polygon fill="#d739e5" fill-opacity="0.333333" stroke="black" points="1190,-157 1036,-157 1036,-89 1190,-89 1190,-157"/>
<text text-anchor="middle" x="1113" y="-141.8" font-family="Times,serif" font-size="14.00">Disgust_NRC &lt;= 1.0108</text>
<text text-anchor="middle" x="1113" y="-126.8" font-family="Times,serif" font-size="14.00">samples = 4</text>
<text text-anchor="middle" x="1113" y="-111.8" font-family="Times,serif" font-size="14.00">value = [0, 1, 1, 2]</text>
<text text-anchor="middle" x="1113" y="-96.8" font-family="Times,serif" font-size="14.00">class = sociopolitical</text>
</g>
<!-- 15&#45;&gt;16 -->
<g id="edge16" class="edge"><title>15&#45;&gt;16</title>
<path fill="none" stroke="black" d="M1144.74,-192.884C1140.88,-184.511 1136.68,-175.401 1132.64,-166.631"/>
<polygon fill="black" stroke="black" points="1135.71,-164.917 1128.34,-157.299 1129.35,-167.846 1135.71,-164.917"/>
</g>
<!-- 19 -->
<g id="node20" class="node"><title>19</title>
<polygon fill="#47e539" fill-opacity="0.956863" stroke="black" points="1335.5,-157 1208.5,-157 1208.5,-89 1335.5,-89 1335.5,-157"/>
<text text-anchor="middle" x="1272" y="-141.8" font-family="Times,serif" font-size="14.00">Joy_NRC &lt;= 0.342</text>
<text text-anchor="middle" x="1272" y="-126.8" font-family="Times,serif" font-size="14.00">samples = 25</text>
<text text-anchor="middle" x="1272" y="-111.8" font-family="Times,serif" font-size="14.00">value = [0, 24, 0, 1]</text>
<text text-anchor="middle" x="1272" y="-96.8" font-family="Times,serif" font-size="14.00">class = historical</text>
</g>
<!-- 15&#45;&gt;19 -->
<g id="edge19" class="edge"><title>15&#45;&gt;19</title>
<path fill="none" stroke="black" d="M1196.36,-192.884C1206.44,-183.709 1217.48,-173.65 1227.94,-164.123"/>
<polygon fill="black" stroke="black" points="1230.4,-166.62 1235.44,-157.299 1225.69,-161.445 1230.4,-166.62"/>
</g>
<!-- 17 -->
<g id="node18" class="node"><title>17</title>
<polygon fill="none" stroke="black" points="1039,-53 919,-53 919,-0 1039,-0 1039,-53"/>
<text text-anchor="middle" x="979" y="-37.8" font-family="Times,serif" font-size="14.00">samples = 2</text>
<text text-anchor="middle" x="979" y="-22.8" font-family="Times,serif" font-size="14.00">value = [0, 1, 1, 0]</text>
<text text-anchor="middle" x="979" y="-7.8" font-family="Times,serif" font-size="14.00">class = historical</text>
</g>
<!-- 16&#45;&gt;17 -->
<g id="edge17" class="edge"><title>16&#45;&gt;17</title>
<path fill="none" stroke="black" d="M1066.13,-88.9485C1052.38,-79.2516 1037.39,-68.6752 1023.77,-59.073"/>
<polygon fill="black" stroke="black" points="1025.68,-56.1397 1015.49,-53.2367 1021.65,-61.8603 1025.68,-56.1397"/>
</g>
<!-- 18 -->
<g id="node19" class="node"><title>18</title>
<polygon fill="#d739e5" stroke="black" points="1188.5,-53 1057.5,-53 1057.5,-0 1188.5,-0 1188.5,-53"/>
<text text-anchor="middle" x="1123" y="-37.8" font-family="Times,serif" font-size="14.00">samples = 2</text>
<text text-anchor="middle" x="1123" y="-22.8" font-family="Times,serif" font-size="14.00">value = [0, 0, 0, 2]</text>
<text text-anchor="middle" x="1123" y="-7.8" font-family="Times,serif" font-size="14.00">class = sociopolitical</text>
</g>
<!-- 16&#45;&gt;18 -->
<g id="edge18" class="edge"><title>16&#45;&gt;18</title>
<path fill="none" stroke="black" d="M1116.5,-88.9485C1117.38,-80.6238 1118.33,-71.6509 1119.22,-63.2027"/>
<polygon fill="black" stroke="black" points="1122.7,-63.5495 1120.28,-53.2367 1115.74,-62.8128 1122.7,-63.5495"/>
</g>
<!-- 20 -->
<g id="node21" class="node"><title>20</title>
<polygon fill="#d739e5" stroke="black" points="1337.5,-53 1206.5,-53 1206.5,-0 1337.5,-0 1337.5,-53"/>
<text text-anchor="middle" x="1272" y="-37.8" font-family="Times,serif" font-size="14.00">samples = 1</text>
<text text-anchor="middle" x="1272" y="-22.8" font-family="Times,serif" font-size="14.00">value = [0, 0, 0, 1]</text>
<text text-anchor="middle" x="1272" y="-7.8" font-family="Times,serif" font-size="14.00">class = sociopolitical</text>
</g>
<!-- 19&#45;&gt;20 -->
<g id="edge20" class="edge"><title>19&#45;&gt;20</title>
<path fill="none" stroke="black" d="M1272,-88.9485C1272,-80.7153 1272,-71.848 1272,-63.4814"/>
<polygon fill="black" stroke="black" points="1275.5,-63.2367 1272,-53.2367 1268.5,-63.2367 1275.5,-63.2367"/>
</g>
<!-- 21 -->
<g id="node22" class="node"><title>21</title>
<polygon fill="#47e539" stroke="black" points="1482.5,-53 1355.5,-53 1355.5,-0 1482.5,-0 1482.5,-53"/>
<text text-anchor="middle" x="1419" y="-37.8" font-family="Times,serif" font-size="14.00">samples = 24</text>
<text text-anchor="middle" x="1419" y="-22.8" font-family="Times,serif" font-size="14.00">value = [0, 24, 0, 0]</text>
<text text-anchor="middle" x="1419" y="-7.8" font-family="Times,serif" font-size="14.00">class = historical</text>
</g>
<!-- 19&#45;&gt;21 -->
<g id="edge21" class="edge"><title>19&#45;&gt;21</title>
<path fill="none" stroke="black" d="M1323.41,-88.9485C1338.64,-79.1601 1355.26,-68.4756 1370.31,-58.8015"/>
<polygon fill="black" stroke="black" points="1372.45,-61.5885 1378.97,-53.2367 1368.66,-55.7002 1372.45,-61.5885"/>
</g>
<!-- 23 -->
<g id="node24" class="node"><title>23</title>
<polygon fill="#47e539" stroke="black" points="1474,-149.5 1354,-149.5 1354,-96.5 1474,-96.5 1474,-149.5"/>
<text text-anchor="middle" x="1414" y="-134.3" font-family="Times,serif" font-size="14.00">samples = 1</text>
<text text-anchor="middle" x="1414" y="-119.3" font-family="Times,serif" font-size="14.00">value = [0, 1, 0, 0]</text>
<text text-anchor="middle" x="1414" y="-104.3" font-family="Times,serif" font-size="14.00">class = historical</text>
</g>
<!-- 22&#45;&gt;23 -->
<g id="edge23" class="edge"><title>22&#45;&gt;23</title>
<path fill="none" stroke="black" d="M1414,-192.884C1414,-182.326 1414,-170.597 1414,-159.854"/>
<polygon fill="black" stroke="black" points="1417.5,-159.52 1414,-149.52 1410.5,-159.52 1417.5,-159.52"/>
</g>
<!-- 24 -->
<g id="node25" class="node"><title>24</title>
<polygon fill="#399de5" stroke="black" points="1614,-149.5 1492,-149.5 1492,-96.5 1614,-96.5 1614,-149.5"/>
<text text-anchor="middle" x="1553" y="-134.3" font-family="Times,serif" font-size="14.00">samples = 4</text>
<text text-anchor="middle" x="1553" y="-119.3" font-family="Times,serif" font-size="14.00">value = [0, 0, 4, 0]</text>
<text text-anchor="middle" x="1553" y="-104.3" font-family="Times,serif" font-size="14.00">class = sentimental</text>
</g>
<!-- 22&#45;&gt;24 -->
<g id="edge24" class="edge"><title>22&#45;&gt;24</title>
<path fill="none" stroke="black" d="M1459.13,-192.884C1475.47,-180.896 1493.86,-167.399 1510.01,-155.549"/>
<polygon fill="black" stroke="black" points="1512.23,-158.258 1518.22,-149.52 1508.09,-152.614 1512.23,-158.258"/>
</g>
</g>
</svg>
