<?xml version="1.0" encoding="UTF-8" standalone="no"?>
<!DOCTYPE svg PUBLIC "-//W3C//DTD SVG 1.1//EN"
 "http://www.w3.org/Graphics/SVG/1.1/DTD/svg11.dtd">
<!-- Generated by graphviz version 2.38.0 (20140413.2041)
 -->
<!-- Title: Tree Pages: 1 -->
<svg width="1763pt" height="477pt"
 viewBox="0.00 0.00 1763.00 477.00" xmlns="http://www.w3.org/2000/svg" xmlns:xlink="http://www.w3.org/1999/xlink">
<g id="graph0" class="graph" transform="scale(1 1) rotate(0) translate(4 473)">
<title>Tree</title>
<polygon fill="white" stroke="none" points="-4,4 -4,-473 1759,-473 1759,4 -4,4"/>
<!-- 0 -->
<g id="node1" class="node"><title>0</title>
<polygon fill="#399de5" fill-opacity="0.047059" stroke="black" points="949.5,-469 746.5,-469 746.5,-401 949.5,-401 949.5,-469"/>
<text text-anchor="middle" x="848" y="-453.8" font-family="Times,serif" font-size="14.00">narrated_neutral_WN &lt;= 32.3925</text>
<text text-anchor="middle" x="848" y="-438.8" font-family="Times,serif" font-size="14.00">samples = 112</text>
<text text-anchor="middle" x="848" y="-423.8" font-family="Times,serif" font-size="14.00">value = [22, 30, 34, 26]</text>
<text text-anchor="middle" x="848" y="-408.8" font-family="Times,serif" font-size="14.00">class = sentimental</text>
</g>
<!-- 1 -->
<g id="node2" class="node"><title>1</title>
<polygon fill="#399de5" fill-opacity="0.627451" stroke="black" points="806,-365 610,-365 610,-297 806,-297 806,-365"/>
<text text-anchor="middle" x="708" y="-349.8" font-family="Times,serif" font-size="14.00">speech_neutral_WN &lt;= 65.7407</text>
<text text-anchor="middle" x="708" y="-334.8" font-family="Times,serif" font-size="14.00">samples = 40</text>
<text text-anchor="middle" x="708" y="-319.8" font-family="Times,serif" font-size="14.00">value = [5, 5, 27, 3]</text>
<text text-anchor="middle" x="708" y="-304.8" font-family="Times,serif" font-size="14.00">class = sentimental</text>
</g>
<!-- 0&#45;&gt;1 -->
<g id="edge1" class="edge"><title>0&#45;&gt;1</title>
<path fill="none" stroke="black" d="M802.546,-400.884C789.587,-391.442 775.342,-381.064 761.93,-371.292"/>
<polygon fill="black" stroke="black" points="763.848,-368.359 753.705,-365.299 759.726,-374.017 763.848,-368.359"/>
<text text-anchor="middle" x="757.583" y="-386.297" font-family="Times,serif" font-size="14.00">True</text>
</g>
<!-- 14 -->
<g id="node15" class="node"><title>14</title>
<polygon fill="#47e539" fill-opacity="0.039216" stroke="black" points="1065,-365 911,-365 911,-297 1065,-297 1065,-365"/>
<text text-anchor="middle" x="988" y="-349.8" font-family="Times,serif" font-size="14.00">negative_WN &lt;= 2.5572</text>
<text text-anchor="middle" x="988" y="-334.8" font-family="Times,serif" font-size="14.00">samples = 72</text>
<text text-anchor="middle" x="988" y="-319.8" font-family="Times,serif" font-size="14.00">value = [17, 25, 7, 23]</text>
<text text-anchor="middle" x="988" y="-304.8" font-family="Times,serif" font-size="14.00">class = historical</text>
</g>
<!-- 0&#45;&gt;14 -->
<g id="edge14" class="edge"><title>0&#45;&gt;14</title>
<path fill="none" stroke="black" d="M893.454,-400.884C906.413,-391.442 920.658,-381.064 934.07,-371.292"/>
<polygon fill="black" stroke="black" points="936.274,-374.017 942.295,-365.299 932.152,-368.359 936.274,-374.017"/>
<text text-anchor="middle" x="938.417" y="-386.297" font-family="Times,serif" font-size="14.00">False</text>
</g>
<!-- 2 -->
<g id="node3" class="node"><title>2</title>
<polygon fill="#399de5" fill-opacity="0.678431" stroke="black" points="495,-261 295,-261 295,-193 495,-193 495,-261"/>
<text text-anchor="middle" x="395" y="-245.8" font-family="Times,serif" font-size="14.00">speech_emotional_WN &lt;= 9.049</text>
<text text-anchor="middle" x="395" y="-230.8" font-family="Times,serif" font-size="14.00">samples = 36</text>
<text text-anchor="middle" x="395" y="-215.8" font-family="Times,serif" font-size="14.00">value = [5, 5, 26, 0]</text>
<text text-anchor="middle" x="395" y="-200.8" font-family="Times,serif" font-size="14.00">class = sentimental</text>
</g>
<!-- 1&#45;&gt;2 -->
<g id="edge2" class="edge"><title>1&#45;&gt;2</title>
<path fill="none" stroke="black" d="M609.824,-298.006C576.475,-287.139 539.003,-274.928 504.806,-263.783"/>
<polygon fill="black" stroke="black" points="505.846,-260.441 495.253,-260.67 503.677,-267.097 505.846,-260.441"/>
</g>
<!-- 9 -->
<g id="node10" class="node"><title>9</title>
<polygon fill="#d739e5" fill-opacity="0.666667" stroke="black" points="815,-261 601,-261 601,-193 815,-193 815,-261"/>
<text text-anchor="middle" x="708" y="-245.8" font-family="Times,serif" font-size="14.00">narrated_emotional_WN &lt;= 8.3977</text>
<text text-anchor="middle" x="708" y="-230.8" font-family="Times,serif" font-size="14.00">samples = 4</text>
<text text-anchor="middle" x="708" y="-215.8" font-family="Times,serif" font-size="14.00">value = [0, 0, 1, 3]</text>
<text text-anchor="middle" x="708" y="-200.8" font-family="Times,serif" font-size="14.00">class = sociopolitical</text>
</g>
<!-- 1&#45;&gt;9 -->
<g id="edge9" class="edge"><title>1&#45;&gt;9</title>
<path fill="none" stroke="black" d="M708,-296.884C708,-288.778 708,-279.982 708,-271.472"/>
<polygon fill="black" stroke="black" points="711.5,-271.299 708,-261.299 704.5,-271.299 711.5,-271.299"/>
</g>
<!-- 3 -->
<g id="node4" class="node"><title>3</title>
<polygon fill="#e58139" fill-opacity="0.333333" stroke="black" points="298,-157 102,-157 102,-89 298,-89 298,-157"/>
<text text-anchor="middle" x="200" y="-141.8" font-family="Times,serif" font-size="14.00">speech_neutral_WN &lt;= 32.6612</text>
<text text-anchor="middle" x="200" y="-126.8" font-family="Times,serif" font-size="14.00">samples = 5</text>
<text text-anchor="middle" x="200" y="-111.8" font-family="Times,serif" font-size="14.00">value = [3, 0, 2, 0]</text>
<text text-anchor="middle" x="200" y="-96.8" font-family="Times,serif" font-size="14.00">class = costumbrista</text>
</g>
<!-- 2&#45;&gt;3 -->
<g id="edge3" class="edge"><title>2&#45;&gt;3</title>
<path fill="none" stroke="black" d="M331.689,-192.884C312.776,-182.991 291.898,-172.07 272.447,-161.895"/>
<polygon fill="black" stroke="black" points="273.81,-158.658 263.327,-157.125 270.565,-164.861 273.81,-158.658"/>
</g>
<!-- 6 -->
<g id="node7" class="node"><title>6</title>
<polygon fill="#399de5" fill-opacity="0.729412" stroke="black" points="474,-157 316,-157 316,-89 474,-89 474,-157"/>
<text text-anchor="middle" x="395" y="-141.8" font-family="Times,serif" font-size="14.00">positive_WN &lt;= 14.3267</text>
<text text-anchor="middle" x="395" y="-126.8" font-family="Times,serif" font-size="14.00">samples = 31</text>
<text text-anchor="middle" x="395" y="-111.8" font-family="Times,serif" font-size="14.00">value = [2, 5, 24, 0]</text>
<text text-anchor="middle" x="395" y="-96.8" font-family="Times,serif" font-size="14.00">class = sentimental</text>
</g>
<!-- 2&#45;&gt;6 -->
<g id="edge6" class="edge"><title>2&#45;&gt;6</title>
<path fill="none" stroke="black" d="M395,-192.884C395,-184.778 395,-175.982 395,-167.472"/>
<polygon fill="black" stroke="black" points="398.5,-167.299 395,-157.299 391.5,-167.299 398.5,-167.299"/>
</g>
<!-- 4 -->
<g id="node5" class="node"><title>4</title>
<polygon fill="#399de5" stroke="black" points="122,-53 -7.10543e-15,-53 -7.10543e-15,-0 122,-0 122,-53"/>
<text text-anchor="middle" x="61" y="-37.8" font-family="Times,serif" font-size="14.00">samples = 1</text>
<text text-anchor="middle" x="61" y="-22.8" font-family="Times,serif" font-size="14.00">value = [0, 0, 1, 0]</text>
<text text-anchor="middle" x="61" y="-7.8" font-family="Times,serif" font-size="14.00">class = sentimental</text>
</g>
<!-- 3&#45;&gt;4 -->
<g id="edge4" class="edge"><title>3&#45;&gt;4</title>
<path fill="none" stroke="black" d="M151.385,-88.9485C137.121,-79.2516 121.565,-68.6752 107.441,-59.073"/>
<polygon fill="black" stroke="black" points="109.094,-55.9646 98.8561,-53.2367 105.158,-61.7535 109.094,-55.9646"/>
</g>
<!-- 5 -->
<g id="node6" class="node"><title>5</title>
<polygon fill="#e58139" fill-opacity="0.666667" stroke="black" points="268,-53 140,-53 140,-0 268,-0 268,-53"/>
<text text-anchor="middle" x="204" y="-37.8" font-family="Times,serif" font-size="14.00">samples = 4</text>
<text text-anchor="middle" x="204" y="-22.8" font-family="Times,serif" font-size="14.00">value = [3, 0, 1, 0]</text>
<text text-anchor="middle" x="204" y="-7.8" font-family="Times,serif" font-size="14.00">class = costumbrista</text>
</g>
<!-- 3&#45;&gt;5 -->
<g id="edge5" class="edge"><title>3&#45;&gt;5</title>
<path fill="none" stroke="black" d="M201.399,-88.9485C201.748,-80.7153 202.123,-71.848 202.477,-63.4814"/>
<polygon fill="black" stroke="black" points="205.984,-63.3758 202.911,-53.2367 198.991,-63.0797 205.984,-63.3758"/>
</g>
<!-- 7 -->
<g id="node8" class="node"><title>7</title>
<polygon fill="#399de5" fill-opacity="0.784314" stroke="black" points="428.5,-53 301.5,-53 301.5,-0 428.5,-0 428.5,-53"/>
<text text-anchor="middle" x="365" y="-37.8" font-family="Times,serif" font-size="14.00">samples = 28</text>
<text text-anchor="middle" x="365" y="-22.8" font-family="Times,serif" font-size="14.00">value = [0, 5, 23, 0]</text>
<text text-anchor="middle" x="365" y="-7.8" font-family="Times,serif" font-size="14.00">class = sentimental</text>
</g>
<!-- 6&#45;&gt;7 -->
<g id="edge7" class="edge"><title>6&#45;&gt;7</title>
<path fill="none" stroke="black" d="M384.507,-88.9485C381.836,-80.5323 378.954,-71.4536 376.246,-62.9243"/>
<polygon fill="black" stroke="black" points="379.532,-61.7089 373.17,-53.2367 372.86,-63.827 379.532,-61.7089"/>
</g>
<!-- 8 -->
<g id="node9" class="node"><title>8</title>
<polygon fill="#e58139" fill-opacity="0.498039" stroke="black" points="575,-53 447,-53 447,-0 575,-0 575,-53"/>
<text text-anchor="middle" x="511" y="-37.8" font-family="Times,serif" font-size="14.00">samples = 3</text>
<text text-anchor="middle" x="511" y="-22.8" font-family="Times,serif" font-size="14.00">value = [2, 0, 1, 0]</text>
<text text-anchor="middle" x="511" y="-7.8" font-family="Times,serif" font-size="14.00">class = costumbrista</text>
</g>
<!-- 6&#45;&gt;8 -->
<g id="edge8" class="edge"><title>6&#45;&gt;8</title>
<path fill="none" stroke="black" d="M435.571,-88.9485C447.25,-79.4346 459.967,-69.074 471.575,-59.6175"/>
<polygon fill="black" stroke="black" points="473.865,-62.2663 479.408,-53.2367 469.444,-56.8392 473.865,-62.2663"/>
</g>
<!-- 10 -->
<g id="node11" class="node"><title>10</title>
<polygon fill="#d739e5" stroke="black" points="623.5,-149.5 492.5,-149.5 492.5,-96.5 623.5,-96.5 623.5,-149.5"/>
<text text-anchor="middle" x="558" y="-134.3" font-family="Times,serif" font-size="14.00">samples = 2</text>
<text text-anchor="middle" x="558" y="-119.3" font-family="Times,serif" font-size="14.00">value = [0, 0, 0, 2]</text>
<text text-anchor="middle" x="558" y="-104.3" font-family="Times,serif" font-size="14.00">class = sociopolitical</text>
</g>
<!-- 9&#45;&gt;10 -->
<g id="edge10" class="edge"><title>9&#45;&gt;10</title>
<path fill="none" stroke="black" d="M659.299,-192.884C641.509,-180.786 621.457,-167.151 603.917,-155.224"/>
<polygon fill="black" stroke="black" points="605.767,-152.249 595.529,-149.52 601.83,-158.037 605.767,-152.249"/>
</g>
<!-- 11 -->
<g id="node12" class="node"><title>11</title>
<polygon fill="none" stroke="black" points="862.5,-157 641.5,-157 641.5,-89 862.5,-89 862.5,-157"/>
<text text-anchor="middle" x="752" y="-141.8" font-family="Times,serif" font-size="14.00">narrated_emotional_WN &lt;= 10.3346</text>
<text text-anchor="middle" x="752" y="-126.8" font-family="Times,serif" font-size="14.00">samples = 2</text>
<text text-anchor="middle" x="752" y="-111.8" font-family="Times,serif" font-size="14.00">value = [0, 0, 1, 1]</text>
<text text-anchor="middle" x="752" y="-96.8" font-family="Times,serif" font-size="14.00">class = sentimental</text>
</g>
<!-- 9&#45;&gt;11 -->
<g id="edge11" class="edge"><title>9&#45;&gt;11</title>
<path fill="none" stroke="black" d="M722.286,-192.884C725.897,-184.511 729.827,-175.401 733.61,-166.631"/>
<polygon fill="black" stroke="black" points="736.888,-167.868 737.636,-157.299 730.461,-165.095 736.888,-167.868"/>
</g>
<!-- 12 -->
<g id="node13" class="node"><title>12</title>
<polygon fill="#399de5" stroke="black" points="722,-53 600,-53 600,-0 722,-0 722,-53"/>
<text text-anchor="middle" x="661" y="-37.8" font-family="Times,serif" font-size="14.00">samples = 1</text>
<text text-anchor="middle" x="661" y="-22.8" font-family="Times,serif" font-size="14.00">value = [0, 0, 1, 0]</text>
<text text-anchor="middle" x="661" y="-7.8" font-family="Times,serif" font-size="14.00">class = sentimental</text>
</g>
<!-- 11&#45;&gt;12 -->
<g id="edge12" class="edge"><title>11&#45;&gt;12</title>
<path fill="none" stroke="black" d="M720.173,-88.9485C711.363,-79.8005 701.8,-69.8697 692.982,-60.7126"/>
<polygon fill="black" stroke="black" points="695.241,-58.0122 685.783,-53.2367 690.199,-62.8677 695.241,-58.0122"/>
</g>
<!-- 13 -->
<g id="node14" class="node"><title>13</title>
<polygon fill="#d739e5" stroke="black" points="871.5,-53 740.5,-53 740.5,-0 871.5,-0 871.5,-53"/>
<text text-anchor="middle" x="806" y="-37.8" font-family="Times,serif" font-size="14.00">samples = 1</text>
<text text-anchor="middle" x="806" y="-22.8" font-family="Times,serif" font-size="14.00">value = [0, 0, 0, 1]</text>
<text text-anchor="middle" x="806" y="-7.8" font-family="Times,serif" font-size="14.00">class = sociopolitical</text>
</g>
<!-- 11&#45;&gt;13 -->
<g id="edge13" class="edge"><title>11&#45;&gt;13</title>
<path fill="none" stroke="black" d="M770.887,-88.9485C775.853,-80.2579 781.222,-70.8608 786.233,-62.0917"/>
<polygon fill="black" stroke="black" points="789.371,-63.6557 791.293,-53.2367 783.293,-60.1826 789.371,-63.6557"/>
</g>
<!-- 15 -->
<g id="node16" class="node"><title>15</title>
<polygon fill="#e58139" fill-opacity="0.666667" stroke="black" points="1098.5,-261 877.5,-261 877.5,-193 1098.5,-193 1098.5,-261"/>
<text text-anchor="middle" x="988" y="-245.8" font-family="Times,serif" font-size="14.00">narrated_emotional_WN &lt;= 18.1132</text>
<text text-anchor="middle" x="988" y="-230.8" font-family="Times,serif" font-size="14.00">samples = 17</text>
<text text-anchor="middle" x="988" y="-215.8" font-family="Times,serif" font-size="14.00">value = [12, 2, 1, 2]</text>
<text text-anchor="middle" x="988" y="-200.8" font-family="Times,serif" font-size="14.00">class = costumbrista</text>
</g>
<!-- 14&#45;&gt;15 -->
<g id="edge15" class="edge"><title>14&#45;&gt;15</title>
<path fill="none" stroke="black" d="M988,-296.884C988,-288.778 988,-279.982 988,-271.472"/>
<polygon fill="black" stroke="black" points="991.5,-271.299 988,-261.299 984.5,-271.299 991.5,-271.299"/>
</g>
<!-- 20 -->
<g id="node21" class="node"><title>20</title>
<polygon fill="#47e539" fill-opacity="0.058824" stroke="black" points="1432,-261 1226,-261 1226,-193 1432,-193 1432,-261"/>
<text text-anchor="middle" x="1329" y="-245.8" font-family="Times,serif" font-size="14.00">speech_emotional_WN &lt;= 7.0643</text>
<text text-anchor="middle" x="1329" y="-230.8" font-family="Times,serif" font-size="14.00">samples = 55</text>
<text text-anchor="middle" x="1329" y="-215.8" font-family="Times,serif" font-size="14.00">value = [5, 23, 6, 21]</text>
<text text-anchor="middle" x="1329" y="-200.8" font-family="Times,serif" font-size="14.00">class = historical</text>
</g>
<!-- 14&#45;&gt;20 -->
<g id="edge20" class="edge"><title>14&#45;&gt;20</title>
<path fill="none" stroke="black" d="M1065.38,-306.855C1109.87,-293.547 1166.56,-276.589 1215.96,-261.812"/>
<polygon fill="black" stroke="black" points="1217.16,-265.106 1225.74,-258.887 1215.16,-258.4 1217.16,-265.106"/>
</g>
<!-- 16 -->
<g id="node17" class="node"><title>16</title>
<polygon fill="#e58139" stroke="black" points="1009,-149.5 881,-149.5 881,-96.5 1009,-96.5 1009,-149.5"/>
<text text-anchor="middle" x="945" y="-134.3" font-family="Times,serif" font-size="14.00">samples = 9</text>
<text text-anchor="middle" x="945" y="-119.3" font-family="Times,serif" font-size="14.00">value = [9, 0, 0, 0]</text>
<text text-anchor="middle" x="945" y="-104.3" font-family="Times,serif" font-size="14.00">class = costumbrista</text>
</g>
<!-- 15&#45;&gt;16 -->
<g id="edge16" class="edge"><title>15&#45;&gt;16</title>
<path fill="none" stroke="black" d="M974.039,-192.884C969.449,-181.996 964.334,-169.863 959.692,-158.85"/>
<polygon fill="black" stroke="black" points="962.868,-157.375 955.758,-149.52 956.418,-160.094 962.868,-157.375"/>
</g>
<!-- 17 -->
<g id="node18" class="node"><title>17</title>
<polygon fill="#e58139" fill-opacity="0.164706" stroke="black" points="1185,-157 1027,-157 1027,-89 1185,-89 1185,-157"/>
<text text-anchor="middle" x="1106" y="-141.8" font-family="Times,serif" font-size="14.00">positive_WN &lt;= 10.3285</text>
<text text-anchor="middle" x="1106" y="-126.8" font-family="Times,serif" font-size="14.00">samples = 8</text>
<text text-anchor="middle" x="1106" y="-111.8" font-family="Times,serif" font-size="14.00">value = [3, 2, 1, 2]</text>
<text text-anchor="middle" x="1106" y="-96.8" font-family="Times,serif" font-size="14.00">class = costumbrista</text>
</g>
<!-- 15&#45;&gt;17 -->
<g id="edge17" class="edge"><title>15&#45;&gt;17</title>
<path fill="none" stroke="black" d="M1026.31,-192.884C1037.03,-183.62 1048.79,-173.455 1059.9,-163.845"/>
<polygon fill="black" stroke="black" points="1062.2,-166.487 1067.48,-157.299 1057.62,-161.191 1062.2,-166.487"/>
</g>
<!-- 18 -->
<g id="node19" class="node"><title>18</title>
<polygon fill="none" stroke="black" points="1022,-53 894,-53 894,-0 1022,-0 1022,-53"/>
<text text-anchor="middle" x="958" y="-37.8" font-family="Times,serif" font-size="14.00">samples = 4</text>
<text text-anchor="middle" x="958" y="-22.8" font-family="Times,serif" font-size="14.00">value = [2, 2, 0, 0]</text>
<text text-anchor="middle" x="958" y="-7.8" font-family="Times,serif" font-size="14.00">class = costumbrista</text>
</g>
<!-- 17&#45;&gt;18 -->
<g id="edge18" class="edge"><title>17&#45;&gt;18</title>
<path fill="none" stroke="black" d="M1054.24,-88.9485C1038.91,-79.1601 1022.17,-68.4756 1007.02,-58.8015"/>
<polygon fill="black" stroke="black" points="1008.62,-55.6685 998.307,-53.2367 1004.85,-61.5683 1008.62,-55.6685"/>
</g>
<!-- 19 -->
<g id="node20" class="node"><title>19</title>
<polygon fill="#d739e5" fill-opacity="0.333333" stroke="black" points="1171.5,-53 1040.5,-53 1040.5,-0 1171.5,-0 1171.5,-53"/>
<text text-anchor="middle" x="1106" y="-37.8" font-family="Times,serif" font-size="14.00">samples = 4</text>
<text text-anchor="middle" x="1106" y="-22.8" font-family="Times,serif" font-size="14.00">value = [1, 0, 1, 2]</text>
<text text-anchor="middle" x="1106" y="-7.8" font-family="Times,serif" font-size="14.00">class = sociopolitical</text>
</g>
<!-- 17&#45;&gt;19 -->
<g id="edge19" class="edge"><title>17&#45;&gt;19</title>
<path fill="none" stroke="black" d="M1106,-88.9485C1106,-80.7153 1106,-71.848 1106,-63.4814"/>
<polygon fill="black" stroke="black" points="1109.5,-63.2367 1106,-53.2367 1102.5,-63.2367 1109.5,-63.2367"/>
</g>
<!-- 21 -->
<g id="node22" class="node"><title>21</title>
<polygon fill="#d739e5" fill-opacity="0.376471" stroke="black" points="1432,-157 1226,-157 1226,-89 1432,-89 1432,-157"/>
<text text-anchor="middle" x="1329" y="-141.8" font-family="Times,serif" font-size="14.00">speech_emotional_WN &lt;= 6.0144</text>
<text text-anchor="middle" x="1329" y="-126.8" font-family="Times,serif" font-size="14.00">samples = 34</text>
<text text-anchor="middle" x="1329" y="-111.8" font-family="Times,serif" font-size="14.00">value = [4, 10, 1, 19]</text>
<text text-anchor="middle" x="1329" y="-96.8" font-family="Times,serif" font-size="14.00">class = sociopolitical</text>
</g>
<!-- 20&#45;&gt;21 -->
<g id="edge21" class="edge"><title>20&#45;&gt;21</title>
<path fill="none" stroke="black" d="M1329,-192.884C1329,-184.778 1329,-175.982 1329,-167.472"/>
<polygon fill="black" stroke="black" points="1332.5,-167.299 1329,-157.299 1325.5,-167.299 1332.5,-167.299"/>
</g>
<!-- 24 -->
<g id="node25" class="node"><title>24</title>
<polygon fill="#47e539" fill-opacity="0.501961" stroke="black" points="1628,-157 1474,-157 1474,-89 1628,-89 1628,-157"/>
<text text-anchor="middle" x="1551" y="-141.8" font-family="Times,serif" font-size="14.00">negative_WN &lt;= 7.1282</text>
<text text-anchor="middle" x="1551" y="-126.8" font-family="Times,serif" font-size="14.00">samples = 21</text>
<text text-anchor="middle" x="1551" y="-111.8" font-family="Times,serif" font-size="14.00">value = [1, 13, 5, 2]</text>
<text text-anchor="middle" x="1551" y="-96.8" font-family="Times,serif" font-size="14.00">class = historical</text>
</g>
<!-- 20&#45;&gt;24 -->
<g id="edge24" class="edge"><title>20&#45;&gt;24</title>
<path fill="none" stroke="black" d="M1401.08,-192.884C1423,-182.812 1447.24,-171.674 1469.72,-161.344"/>
<polygon fill="black" stroke="black" points="1471.28,-164.48 1478.9,-157.125 1468.36,-158.119 1471.28,-164.48"/>
</g>
<!-- 22 -->
<g id="node23" class="node"><title>22</title>
<polygon fill="#d739e5" fill-opacity="0.133333" stroke="black" points="1320.5,-53 1189.5,-53 1189.5,-0 1320.5,-0 1320.5,-53"/>
<text text-anchor="middle" x="1255" y="-37.8" font-family="Times,serif" font-size="14.00">samples = 24</text>
<text text-anchor="middle" x="1255" y="-22.8" font-family="Times,serif" font-size="14.00">value = [4, 9, 0, 11]</text>
<text text-anchor="middle" x="1255" y="-7.8" font-family="Times,serif" font-size="14.00">class = sociopolitical</text>
</g>
<!-- 21&#45;&gt;22 -->
<g id="edge22" class="edge"><title>21&#45;&gt;22</title>
<path fill="none" stroke="black" d="M1303.12,-88.9485C1296.1,-79.9834 1288.49,-70.2666 1281.44,-61.2629"/>
<polygon fill="black" stroke="black" points="1284.07,-58.9521 1275.15,-53.2367 1278.56,-63.2679 1284.07,-58.9521"/>
</g>
<!-- 23 -->
<g id="node24" class="node"><title>23</title>
<polygon fill="#d739e5" fill-opacity="0.776471" stroke="black" points="1469.5,-53 1338.5,-53 1338.5,-0 1469.5,-0 1469.5,-53"/>
<text text-anchor="middle" x="1404" y="-37.8" font-family="Times,serif" font-size="14.00">samples = 10</text>
<text text-anchor="middle" x="1404" y="-22.8" font-family="Times,serif" font-size="14.00">value = [0, 1, 1, 8]</text>
<text text-anchor="middle" x="1404" y="-7.8" font-family="Times,serif" font-size="14.00">class = sociopolitical</text>
</g>
<!-- 21&#45;&gt;23 -->
<g id="edge23" class="edge"><title>21&#45;&gt;23</title>
<path fill="none" stroke="black" d="M1355.23,-88.9485C1362.35,-79.9834 1370.06,-70.2666 1377.2,-61.2629"/>
<polygon fill="black" stroke="black" points="1380.1,-63.2454 1383.57,-53.2367 1374.62,-58.8938 1380.1,-63.2454"/>
</g>
<!-- 25 -->
<g id="node26" class="node"><title>25</title>
<polygon fill="#47e539" fill-opacity="0.686275" stroke="black" points="1614.5,-53 1487.5,-53 1487.5,-0 1614.5,-0 1614.5,-53"/>
<text text-anchor="middle" x="1551" y="-37.8" font-family="Times,serif" font-size="14.00">samples = 18</text>
<text text-anchor="middle" x="1551" y="-22.8" font-family="Times,serif" font-size="14.00">value = [1, 13, 2, 2]</text>
<text text-anchor="middle" x="1551" y="-7.8" font-family="Times,serif" font-size="14.00">class = historical</text>
</g>
<!-- 24&#45;&gt;25 -->
<g id="edge25" class="edge"><title>24&#45;&gt;25</title>
<path fill="none" stroke="black" d="M1551,-88.9485C1551,-80.7153 1551,-71.848 1551,-63.4814"/>
<polygon fill="black" stroke="black" points="1554.5,-63.2367 1551,-53.2367 1547.5,-63.2367 1554.5,-63.2367"/>
</g>
<!-- 26 -->
<g id="node27" class="node"><title>26</title>
<polygon fill="#399de5" stroke="black" points="1755,-53 1633,-53 1633,-0 1755,-0 1755,-53"/>
<text text-anchor="middle" x="1694" y="-37.8" font-family="Times,serif" font-size="14.00">samples = 3</text>
<text text-anchor="middle" x="1694" y="-22.8" font-family="Times,serif" font-size="14.00">value = [0, 0, 3, 0]</text>
<text text-anchor="middle" x="1694" y="-7.8" font-family="Times,serif" font-size="14.00">class = sentimental</text>
</g>
<!-- 24&#45;&gt;26 -->
<g id="edge26" class="edge"><title>24&#45;&gt;26</title>
<path fill="none" stroke="black" d="M1601.01,-88.9485C1615.83,-79.1601 1631.99,-68.4756 1646.63,-58.8015"/>
<polygon fill="black" stroke="black" points="1648.64,-61.6701 1655.05,-53.2367 1644.78,-55.83 1648.64,-61.6701"/>
</g>
</g>
</svg>
