<?xml version="1.0" encoding="UTF-8" standalone="no"?>
<!DOCTYPE svg PUBLIC "-//W3C//DTD SVG 1.1//EN"
 "http://www.w3.org/Graphics/SVG/1.1/DTD/svg11.dtd">
<!-- Generated by graphviz version 2.38.0 (20140413.2041)
 -->
<!-- Title: Tree Pages: 1 -->
<svg width="1741pt" height="477pt"
 viewBox="0.00 0.00 1741.00 477.00" xmlns="http://www.w3.org/2000/svg" xmlns:xlink="http://www.w3.org/1999/xlink">
<g id="graph0" class="graph" transform="scale(1 1) rotate(0) translate(4 473)">
<title>Tree</title>
<polygon fill="white" stroke="none" points="-4,4 -4,-473 1737,-473 1737,4 -4,4"/>
<!-- 0 -->
<g id="node1" class="node"><title>0</title>
<polygon fill="#399de5" fill-opacity="0.047059" stroke="black" points="1148.5,-469 947.5,-469 947.5,-401 1148.5,-401 1148.5,-469"/>
<text text-anchor="middle" x="1048" y="-453.8" font-family="Times,serif" font-size="14.00">narrated_neutral_NRC &lt;= 16.378</text>
<text text-anchor="middle" x="1048" y="-438.8" font-family="Times,serif" font-size="14.00">samples = 112</text>
<text text-anchor="middle" x="1048" y="-423.8" font-family="Times,serif" font-size="14.00">value = [22, 30, 34, 26]</text>
<text text-anchor="middle" x="1048" y="-408.8" font-family="Times,serif" font-size="14.00">class = sentimental</text>
</g>
<!-- 1 -->
<g id="node2" class="node"><title>1</title>
<polygon fill="#399de5" fill-opacity="0.109804" stroke="black" points="926,-365 786,-365 786,-297 926,-297 926,-365"/>
<text text-anchor="middle" x="856" y="-349.8" font-family="Times,serif" font-size="14.00">speech &lt;= 34.237</text>
<text text-anchor="middle" x="856" y="-334.8" font-family="Times,serif" font-size="14.00">samples = 82</text>
<text text-anchor="middle" x="856" y="-319.8" font-family="Times,serif" font-size="14.00">value = [9, 28, 34, 11]</text>
<text text-anchor="middle" x="856" y="-304.8" font-family="Times,serif" font-size="14.00">class = sentimental</text>
</g>
<!-- 0&#45;&gt;1 -->
<g id="edge1" class="edge"><title>0&#45;&gt;1</title>
<path fill="none" stroke="black" d="M985.663,-400.884C967.041,-390.991 946.484,-380.07 927.333,-369.895"/>
<polygon fill="black" stroke="black" points="928.826,-366.725 918.352,-365.125 925.542,-372.907 928.826,-366.725"/>
<text text-anchor="middle" x="925.67" y="-385.33" font-family="Times,serif" font-size="14.00">True</text>
</g>
<!-- 16 -->
<g id="node17" class="node"><title>16</title>
<polygon fill="#d739e5" fill-opacity="0.117647" stroke="black" points="1341.5,-365 1184.5,-365 1184.5,-297 1341.5,-297 1341.5,-365"/>
<text text-anchor="middle" x="1263" y="-349.8" font-family="Times,serif" font-size="14.00">neutral_NRC &lt;= 44.4333</text>
<text text-anchor="middle" x="1263" y="-334.8" font-family="Times,serif" font-size="14.00">samples = 30</text>
<text text-anchor="middle" x="1263" y="-319.8" font-family="Times,serif" font-size="14.00">value = [13, 2, 0, 15]</text>
<text text-anchor="middle" x="1263" y="-304.8" font-family="Times,serif" font-size="14.00">class = sociopolitical</text>
</g>
<!-- 0&#45;&gt;16 -->
<g id="edge16" class="edge"><title>0&#45;&gt;16</title>
<path fill="none" stroke="black" d="M1117.8,-400.884C1138.94,-390.856 1162.3,-379.773 1183.99,-369.482"/>
<polygon fill="black" stroke="black" points="1185.64,-372.573 1193.18,-365.125 1182.64,-366.249 1185.64,-372.573"/>
<text text-anchor="middle" x="1184.78" y="-384.973" font-family="Times,serif" font-size="14.00">False</text>
</g>
<!-- 2 -->
<g id="node3" class="node"><title>2</title>
<polygon fill="#47e539" fill-opacity="0.713725" stroke="black" points="532.5,-261 375.5,-261 375.5,-193 532.5,-193 532.5,-261"/>
<text text-anchor="middle" x="454" y="-245.8" font-family="Times,serif" font-size="14.00">neutral_NRC &lt;= 21.1257</text>
<text text-anchor="middle" x="454" y="-230.8" font-family="Times,serif" font-size="14.00">samples = 24</text>
<text text-anchor="middle" x="454" y="-215.8" font-family="Times,serif" font-size="14.00">value = [1, 18, 2, 3]</text>
<text text-anchor="middle" x="454" y="-200.8" font-family="Times,serif" font-size="14.00">class = historical</text>
</g>
<!-- 1&#45;&gt;2 -->
<g id="edge2" class="edge"><title>1&#45;&gt;2</title>
<path fill="none" stroke="black" d="M785.977,-312.233C718.407,-295.088 615.861,-269.069 542.633,-250.489"/>
<polygon fill="black" stroke="black" points="543.055,-246.985 532.501,-247.918 541.333,-253.77 543.055,-246.985"/>
</g>
<!-- 9 -->
<g id="node10" class="node"><title>9</title>
<polygon fill="#399de5" fill-opacity="0.458824" stroke="black" points="965,-261 747,-261 747,-193 965,-193 965,-261"/>
<text text-anchor="middle" x="856" y="-245.8" font-family="Times,serif" font-size="14.00">speech_emotional_NRC &lt;= 21.6699</text>
<text text-anchor="middle" x="856" y="-230.8" font-family="Times,serif" font-size="14.00">samples = 58</text>
<text text-anchor="middle" x="856" y="-215.8" font-family="Times,serif" font-size="14.00">value = [8, 10, 32, 8]</text>
<text text-anchor="middle" x="856" y="-200.8" font-family="Times,serif" font-size="14.00">class = sentimental</text>
</g>
<!-- 1&#45;&gt;9 -->
<g id="edge9" class="edge"><title>1&#45;&gt;9</title>
<path fill="none" stroke="black" d="M856,-296.884C856,-288.778 856,-279.982 856,-271.472"/>
<polygon fill="black" stroke="black" points="859.5,-271.299 856,-261.299 852.5,-271.299 859.5,-271.299"/>
</g>
<!-- 3 -->
<g id="node4" class="node"><title>3</title>
<polygon fill="#47e539" fill-opacity="0.933333" stroke="black" points="292.5,-157 127.5,-157 127.5,-89 292.5,-89 292.5,-157"/>
<text text-anchor="middle" x="210" y="-141.8" font-family="Times,serif" font-size="14.00">negative_NRC &lt;= 15.2432</text>
<text text-anchor="middle" x="210" y="-126.8" font-family="Times,serif" font-size="14.00">samples = 16</text>
<text text-anchor="middle" x="210" y="-111.8" font-family="Times,serif" font-size="14.00">value = [1, 15, 0, 0]</text>
<text text-anchor="middle" x="210" y="-96.8" font-family="Times,serif" font-size="14.00">class = historical</text>
</g>
<!-- 2&#45;&gt;3 -->
<g id="edge3" class="edge"><title>2&#45;&gt;3</title>
<path fill="none" stroke="black" d="M375.454,-193.165C350.994,-182.94 323.854,-171.595 298.748,-161.1"/>
<polygon fill="black" stroke="black" points="299.812,-157.751 289.236,-157.123 297.112,-164.209 299.812,-157.751"/>
</g>
<!-- 6 -->
<g id="node7" class="node"><title>6</title>
<polygon fill="none" stroke="black" points="558,-157 350,-157 350,-89 558,-89 558,-157"/>
<text text-anchor="middle" x="454" y="-141.8" font-family="Times,serif" font-size="14.00">narrated_neutral_NRC &lt;= 12.2885</text>
<text text-anchor="middle" x="454" y="-126.8" font-family="Times,serif" font-size="14.00">samples = 8</text>
<text text-anchor="middle" x="454" y="-111.8" font-family="Times,serif" font-size="14.00">value = [0, 3, 2, 3]</text>
<text text-anchor="middle" x="454" y="-96.8" font-family="Times,serif" font-size="14.00">class = historical</text>
</g>
<!-- 2&#45;&gt;6 -->
<g id="edge6" class="edge"><title>2&#45;&gt;6</title>
<path fill="none" stroke="black" d="M454,-192.884C454,-184.778 454,-175.982 454,-167.472"/>
<polygon fill="black" stroke="black" points="457.5,-167.299 454,-157.299 450.5,-167.299 457.5,-167.299"/>
</g>
<!-- 4 -->
<g id="node5" class="node"><title>4</title>
<polygon fill="#e58139" stroke="black" points="128,-53 0,-53 0,-0 128,-0 128,-53"/>
<text text-anchor="middle" x="64" y="-37.8" font-family="Times,serif" font-size="14.00">samples = 1</text>
<text text-anchor="middle" x="64" y="-22.8" font-family="Times,serif" font-size="14.00">value = [1, 0, 0, 0]</text>
<text text-anchor="middle" x="64" y="-7.8" font-family="Times,serif" font-size="14.00">class = costumbrista</text>
</g>
<!-- 3&#45;&gt;4 -->
<g id="edge4" class="edge"><title>3&#45;&gt;4</title>
<path fill="none" stroke="black" d="M158.936,-88.9485C143.814,-79.1601 127.306,-68.4756 112.36,-58.8015"/>
<polygon fill="black" stroke="black" points="114.059,-55.7322 103.763,-53.2367 110.256,-61.6087 114.059,-55.7322"/>
</g>
<!-- 5 -->
<g id="node6" class="node"><title>5</title>
<polygon fill="#47e539" stroke="black" points="273.5,-53 146.5,-53 146.5,-0 273.5,-0 273.5,-53"/>
<text text-anchor="middle" x="210" y="-37.8" font-family="Times,serif" font-size="14.00">samples = 15</text>
<text text-anchor="middle" x="210" y="-22.8" font-family="Times,serif" font-size="14.00">value = [0, 15, 0, 0]</text>
<text text-anchor="middle" x="210" y="-7.8" font-family="Times,serif" font-size="14.00">class = historical</text>
</g>
<!-- 3&#45;&gt;5 -->
<g id="edge5" class="edge"><title>3&#45;&gt;5</title>
<path fill="none" stroke="black" d="M210,-88.9485C210,-80.7153 210,-71.848 210,-63.4814"/>
<polygon fill="black" stroke="black" points="213.5,-63.2367 210,-53.2367 206.5,-63.2367 213.5,-63.2367"/>
</g>
<!-- 7 -->
<g id="node8" class="node"><title>7</title>
<polygon fill="#399de5" stroke="black" points="414,-53 292,-53 292,-0 414,-0 414,-53"/>
<text text-anchor="middle" x="353" y="-37.8" font-family="Times,serif" font-size="14.00">samples = 2</text>
<text text-anchor="middle" x="353" y="-22.8" font-family="Times,serif" font-size="14.00">value = [0, 0, 2, 0]</text>
<text text-anchor="middle" x="353" y="-7.8" font-family="Times,serif" font-size="14.00">class = sentimental</text>
</g>
<!-- 6&#45;&gt;7 -->
<g id="edge7" class="edge"><title>6&#45;&gt;7</title>
<path fill="none" stroke="black" d="M418.675,-88.9485C408.702,-79.6175 397.859,-69.4722 387.911,-60.1641"/>
<polygon fill="black" stroke="black" points="390.2,-57.5132 380.507,-53.2367 385.418,-62.6247 390.2,-57.5132"/>
</g>
<!-- 8 -->
<g id="node9" class="node"><title>8</title>
<polygon fill="none" stroke="black" points="552,-53 432,-53 432,-0 552,-0 552,-53"/>
<text text-anchor="middle" x="492" y="-37.8" font-family="Times,serif" font-size="14.00">samples = 6</text>
<text text-anchor="middle" x="492" y="-22.8" font-family="Times,serif" font-size="14.00">value = [0, 3, 0, 3]</text>
<text text-anchor="middle" x="492" y="-7.8" font-family="Times,serif" font-size="14.00">class = historical</text>
</g>
<!-- 6&#45;&gt;8 -->
<g id="edge8" class="edge"><title>6&#45;&gt;8</title>
<path fill="none" stroke="black" d="M467.291,-88.9485C470.712,-80.4408 474.405,-71.2562 477.867,-62.6464"/>
<polygon fill="black" stroke="black" points="481.167,-63.8205 481.651,-53.2367 474.673,-61.2089 481.167,-63.8205"/>
</g>
<!-- 10 -->
<g id="node11" class="node"><title>10</title>
<polygon fill="#d739e5" fill-opacity="0.286275" stroke="black" points="851,-157 677,-157 677,-89 851,-89 851,-157"/>
<text text-anchor="middle" x="764" y="-141.8" font-family="Times,serif" font-size="14.00">emotional_NRC &lt;= 61.2251</text>
<text text-anchor="middle" x="764" y="-126.8" font-family="Times,serif" font-size="14.00">samples = 10</text>
<text text-anchor="middle" x="764" y="-111.8" font-family="Times,serif" font-size="14.00">value = [3, 1, 1, 5]</text>
<text text-anchor="middle" x="764" y="-96.8" font-family="Times,serif" font-size="14.00">class = sociopolitical</text>
</g>
<!-- 9&#45;&gt;10 -->
<g id="edge10" class="edge"><title>9&#45;&gt;10</title>
<path fill="none" stroke="black" d="M826.13,-192.884C818.096,-183.976 809.31,-174.235 800.941,-164.957"/>
<polygon fill="black" stroke="black" points="803.331,-162.381 794.035,-157.299 798.133,-167.069 803.331,-162.381"/>
</g>
<!-- 13 -->
<g id="node14" class="node"><title>13</title>
<polygon fill="#399de5" fill-opacity="0.564706" stroke="black" points="1027,-157 869,-157 869,-89 1027,-89 1027,-157"/>
<text text-anchor="middle" x="948" y="-141.8" font-family="Times,serif" font-size="14.00">negative_NRC &lt;= 5.4608</text>
<text text-anchor="middle" x="948" y="-126.8" font-family="Times,serif" font-size="14.00">samples = 48</text>
<text text-anchor="middle" x="948" y="-111.8" font-family="Times,serif" font-size="14.00">value = [5, 9, 31, 3]</text>
<text text-anchor="middle" x="948" y="-96.8" font-family="Times,serif" font-size="14.00">class = sentimental</text>
</g>
<!-- 9&#45;&gt;13 -->
<g id="edge13" class="edge"><title>9&#45;&gt;13</title>
<path fill="none" stroke="black" d="M885.87,-192.884C893.904,-183.976 902.69,-174.235 911.059,-164.957"/>
<polygon fill="black" stroke="black" points="913.867,-167.069 917.965,-157.299 908.669,-162.381 913.867,-167.069"/>
</g>
<!-- 11 -->
<g id="node12" class="node"><title>11</title>
<polygon fill="#e58139" fill-opacity="0.666667" stroke="black" points="698,-53 570,-53 570,-0 698,-0 698,-53"/>
<text text-anchor="middle" x="634" y="-37.8" font-family="Times,serif" font-size="14.00">samples = 4</text>
<text text-anchor="middle" x="634" y="-22.8" font-family="Times,serif" font-size="14.00">value = [3, 1, 0, 0]</text>
<text text-anchor="middle" x="634" y="-7.8" font-family="Times,serif" font-size="14.00">class = costumbrista</text>
</g>
<!-- 10&#45;&gt;11 -->
<g id="edge11" class="edge"><title>10&#45;&gt;11</title>
<path fill="none" stroke="black" d="M718.532,-88.9485C705.319,-79.3431 690.918,-68.8747 677.808,-59.345"/>
<polygon fill="black" stroke="black" points="679.552,-56.2856 669.405,-53.2367 675.436,-61.9477 679.552,-56.2856"/>
</g>
<!-- 12 -->
<g id="node13" class="node"><title>12</title>
<polygon fill="#d739e5" fill-opacity="0.800000" stroke="black" points="847.5,-53 716.5,-53 716.5,-0 847.5,-0 847.5,-53"/>
<text text-anchor="middle" x="782" y="-37.8" font-family="Times,serif" font-size="14.00">samples = 6</text>
<text text-anchor="middle" x="782" y="-22.8" font-family="Times,serif" font-size="14.00">value = [0, 0, 1, 5]</text>
<text text-anchor="middle" x="782" y="-7.8" font-family="Times,serif" font-size="14.00">class = sociopolitical</text>
</g>
<!-- 10&#45;&gt;12 -->
<g id="edge12" class="edge"><title>10&#45;&gt;12</title>
<path fill="none" stroke="black" d="M770.296,-88.9485C771.881,-80.6238 773.59,-71.6509 775.199,-63.2027"/>
<polygon fill="black" stroke="black" points="778.665,-63.715 777.098,-53.2367 771.788,-62.4052 778.665,-63.715"/>
</g>
<!-- 14 -->
<g id="node15" class="node"><title>14</title>
<polygon fill="#d739e5" fill-opacity="0.498039" stroke="black" points="996.5,-53 865.5,-53 865.5,-0 996.5,-0 996.5,-53"/>
<text text-anchor="middle" x="931" y="-37.8" font-family="Times,serif" font-size="14.00">samples = 5</text>
<text text-anchor="middle" x="931" y="-22.8" font-family="Times,serif" font-size="14.00">value = [1, 0, 1, 3]</text>
<text text-anchor="middle" x="931" y="-7.8" font-family="Times,serif" font-size="14.00">class = sociopolitical</text>
</g>
<!-- 13&#45;&gt;14 -->
<g id="edge14" class="edge"><title>13&#45;&gt;14</title>
<path fill="none" stroke="black" d="M942.054,-88.9485C940.557,-80.6238 938.942,-71.6509 937.423,-63.2027"/>
<polygon fill="black" stroke="black" points="940.845,-62.459 935.63,-53.2367 933.956,-63.6984 940.845,-62.459"/>
</g>
<!-- 15 -->
<g id="node16" class="node"><title>15</title>
<polygon fill="#399de5" fill-opacity="0.619608" stroke="black" points="1141.5,-53 1014.5,-53 1014.5,-0 1141.5,-0 1141.5,-53"/>
<text text-anchor="middle" x="1078" y="-37.8" font-family="Times,serif" font-size="14.00">samples = 43</text>
<text text-anchor="middle" x="1078" y="-22.8" font-family="Times,serif" font-size="14.00">value = [4, 9, 30, 0]</text>
<text text-anchor="middle" x="1078" y="-7.8" font-family="Times,serif" font-size="14.00">class = sentimental</text>
</g>
<!-- 13&#45;&gt;15 -->
<g id="edge15" class="edge"><title>13&#45;&gt;15</title>
<path fill="none" stroke="black" d="M993.468,-88.9485C1006.68,-79.3431 1021.08,-68.8747 1034.19,-59.345"/>
<polygon fill="black" stroke="black" points="1036.56,-61.9477 1042.6,-53.2367 1032.45,-56.2856 1036.56,-61.9477"/>
</g>
<!-- 17 -->
<g id="node18" class="node"><title>17</title>
<polygon fill="#d739e5" fill-opacity="0.647059" stroke="black" points="1372,-261 1154,-261 1154,-193 1372,-193 1372,-261"/>
<text text-anchor="middle" x="1263" y="-245.8" font-family="Times,serif" font-size="14.00">speech_emotional_NRC &lt;= 14.6617</text>
<text text-anchor="middle" x="1263" y="-230.8" font-family="Times,serif" font-size="14.00">samples = 21</text>
<text text-anchor="middle" x="1263" y="-215.8" font-family="Times,serif" font-size="14.00">value = [4, 2, 0, 15]</text>
<text text-anchor="middle" x="1263" y="-200.8" font-family="Times,serif" font-size="14.00">class = sociopolitical</text>
</g>
<!-- 16&#45;&gt;17 -->
<g id="edge17" class="edge"><title>16&#45;&gt;17</title>
<path fill="none" stroke="black" d="M1263,-296.884C1263,-288.778 1263,-279.982 1263,-271.472"/>
<polygon fill="black" stroke="black" points="1266.5,-271.299 1263,-261.299 1259.5,-271.299 1266.5,-271.299"/>
</g>
<!-- 24 -->
<g id="node25" class="node"><title>24</title>
<polygon fill="#e58139" stroke="black" points="1518,-253.5 1390,-253.5 1390,-200.5 1518,-200.5 1518,-253.5"/>
<text text-anchor="middle" x="1454" y="-238.3" font-family="Times,serif" font-size="14.00">samples = 9</text>
<text text-anchor="middle" x="1454" y="-223.3" font-family="Times,serif" font-size="14.00">value = [9, 0, 0, 0]</text>
<text text-anchor="middle" x="1454" y="-208.3" font-family="Times,serif" font-size="14.00">class = costumbrista</text>
</g>
<!-- 16&#45;&gt;24 -->
<g id="edge24" class="edge"><title>16&#45;&gt;24</title>
<path fill="none" stroke="black" d="M1325.01,-296.884C1348.28,-284.456 1374.59,-270.406 1397.35,-258.252"/>
<polygon fill="black" stroke="black" points="1399.04,-261.318 1406.21,-253.52 1395.74,-255.143 1399.04,-261.318"/>
</g>
<!-- 18 -->
<g id="node19" class="node"><title>18</title>
<polygon fill="#d739e5" fill-opacity="0.164706" stroke="black" points="1375.5,-157 1150.5,-157 1150.5,-89 1375.5,-89 1375.5,-157"/>
<text text-anchor="middle" x="1263" y="-141.8" font-family="Times,serif" font-size="14.00">narrated_emotional_NRC &lt;= 54.9016</text>
<text text-anchor="middle" x="1263" y="-126.8" font-family="Times,serif" font-size="14.00">samples = 9</text>
<text text-anchor="middle" x="1263" y="-111.8" font-family="Times,serif" font-size="14.00">value = [3, 2, 0, 4]</text>
<text text-anchor="middle" x="1263" y="-96.8" font-family="Times,serif" font-size="14.00">class = sociopolitical</text>
</g>
<!-- 17&#45;&gt;18 -->
<g id="edge18" class="edge"><title>17&#45;&gt;18</title>
<path fill="none" stroke="black" d="M1263,-192.884C1263,-184.778 1263,-175.982 1263,-167.472"/>
<polygon fill="black" stroke="black" points="1266.5,-167.299 1263,-157.299 1259.5,-167.299 1266.5,-167.299"/>
</g>
<!-- 21 -->
<g id="node22" class="node"><title>21</title>
<polygon fill="#d739e5" fill-opacity="0.909804" stroke="black" points="1608,-157 1434,-157 1434,-89 1608,-89 1608,-157"/>
<text text-anchor="middle" x="1521" y="-141.8" font-family="Times,serif" font-size="14.00">emotional_NRC &lt;= 71.6467</text>
<text text-anchor="middle" x="1521" y="-126.8" font-family="Times,serif" font-size="14.00">samples = 12</text>
<text text-anchor="middle" x="1521" y="-111.8" font-family="Times,serif" font-size="14.00">value = [1, 0, 0, 11]</text>
<text text-anchor="middle" x="1521" y="-96.8" font-family="Times,serif" font-size="14.00">class = sociopolitical</text>
</g>
<!-- 17&#45;&gt;21 -->
<g id="edge21" class="edge"><title>17&#45;&gt;21</title>
<path fill="none" stroke="black" d="M1346.77,-192.884C1372.58,-182.677 1401.16,-171.377 1427.59,-160.931"/>
<polygon fill="black" stroke="black" points="1429.2,-164.056 1437.21,-157.125 1426.63,-157.547 1429.2,-164.056"/>
</g>
<!-- 19 -->
<g id="node20" class="node"><title>19</title>
<polygon fill="#e58139" fill-opacity="0.333333" stroke="black" points="1288,-53 1160,-53 1160,-0 1288,-0 1288,-53"/>
<text text-anchor="middle" x="1224" y="-37.8" font-family="Times,serif" font-size="14.00">samples = 5</text>
<text text-anchor="middle" x="1224" y="-22.8" font-family="Times,serif" font-size="14.00">value = [3, 2, 0, 0]</text>
<text text-anchor="middle" x="1224" y="-7.8" font-family="Times,serif" font-size="14.00">class = costumbrista</text>
</g>
<!-- 18&#45;&gt;19 -->
<g id="edge19" class="edge"><title>18&#45;&gt;19</title>
<path fill="none" stroke="black" d="M1249.36,-88.9485C1245.85,-80.4408 1242.06,-71.2562 1238.5,-62.6464"/>
<polygon fill="black" stroke="black" points="1241.67,-61.1452 1234.62,-53.2367 1235.2,-63.8157 1241.67,-61.1452"/>
</g>
<!-- 20 -->
<g id="node21" class="node"><title>20</title>
<polygon fill="#d739e5" stroke="black" points="1437.5,-53 1306.5,-53 1306.5,-0 1437.5,-0 1437.5,-53"/>
<text text-anchor="middle" x="1372" y="-37.8" font-family="Times,serif" font-size="14.00">samples = 4</text>
<text text-anchor="middle" x="1372" y="-22.8" font-family="Times,serif" font-size="14.00">value = [0, 0, 0, 4]</text>
<text text-anchor="middle" x="1372" y="-7.8" font-family="Times,serif" font-size="14.00">class = sociopolitical</text>
</g>
<!-- 18&#45;&gt;20 -->
<g id="edge20" class="edge"><title>18&#45;&gt;20</title>
<path fill="none" stroke="black" d="M1301.12,-88.9485C1311.99,-79.526 1323.82,-69.2731 1334.64,-59.8906"/>
<polygon fill="black" stroke="black" points="1337.05,-62.4319 1342.31,-53.2367 1332.47,-57.1428 1337.05,-62.4319"/>
</g>
<!-- 22 -->
<g id="node23" class="node"><title>22</title>
<polygon fill="#d739e5" stroke="black" points="1586.5,-53 1455.5,-53 1455.5,-0 1586.5,-0 1586.5,-53"/>
<text text-anchor="middle" x="1521" y="-37.8" font-family="Times,serif" font-size="14.00">samples = 11</text>
<text text-anchor="middle" x="1521" y="-22.8" font-family="Times,serif" font-size="14.00">value = [0, 0, 0, 11]</text>
<text text-anchor="middle" x="1521" y="-7.8" font-family="Times,serif" font-size="14.00">class = sociopolitical</text>
</g>
<!-- 21&#45;&gt;22 -->
<g id="edge22" class="edge"><title>21&#45;&gt;22</title>
<path fill="none" stroke="black" d="M1521,-88.9485C1521,-80.7153 1521,-71.848 1521,-63.4814"/>
<polygon fill="black" stroke="black" points="1524.5,-63.2367 1521,-53.2367 1517.5,-63.2367 1524.5,-63.2367"/>
</g>
<!-- 23 -->
<g id="node24" class="node"><title>23</title>
<polygon fill="#e58139" stroke="black" points="1733,-53 1605,-53 1605,-0 1733,-0 1733,-53"/>
<text text-anchor="middle" x="1669" y="-37.8" font-family="Times,serif" font-size="14.00">samples = 1</text>
<text text-anchor="middle" x="1669" y="-22.8" font-family="Times,serif" font-size="14.00">value = [1, 0, 0, 0]</text>
<text text-anchor="middle" x="1669" y="-7.8" font-family="Times,serif" font-size="14.00">class = costumbrista</text>
</g>
<!-- 21&#45;&gt;23 -->
<g id="edge23" class="edge"><title>21&#45;&gt;23</title>
<path fill="none" stroke="black" d="M1572.76,-88.9485C1588.09,-79.1601 1604.83,-68.4756 1619.98,-58.8015"/>
<polygon fill="black" stroke="black" points="1622.15,-61.5683 1628.69,-53.2367 1618.38,-55.6685 1622.15,-61.5683"/>
</g>
</g>
</svg>
