<?xml version="1.0" encoding="UTF-8" standalone="no"?>
<!DOCTYPE svg PUBLIC "-//W3C//DTD SVG 1.1//EN"
 "http://www.w3.org/Graphics/SVG/1.1/DTD/svg11.dtd">
<!-- Generated by graphviz version 2.38.0 (20140413.2041)
 -->
<!-- Title: Tree Pages: 1 -->
<svg width="1581pt" height="477pt"
 viewBox="0.00 0.00 1580.50 477.00" xmlns="http://www.w3.org/2000/svg" xmlns:xlink="http://www.w3.org/1999/xlink">
<g id="graph0" class="graph" transform="scale(1 1) rotate(0) translate(4 473)">
<title>Tree</title>
<polygon fill="white" stroke="none" points="-4,4 -4,-473 1576.5,-473 1576.5,4 -4,4"/>
<!-- 0 -->
<g id="node1" class="node"><title>0</title>
<polygon fill="#399de5" fill-opacity="0.047059" stroke="black" points="1046.5,-469 899.5,-469 899.5,-401 1046.5,-401 1046.5,-469"/>
<text text-anchor="middle" x="973" y="-453.8" font-family="Times,serif" font-size="14.00">Fear_NRC &lt;= 6.4535</text>
<text text-anchor="middle" x="973" y="-438.8" font-family="Times,serif" font-size="14.00">samples = 112</text>
<text text-anchor="middle" x="973" y="-423.8" font-family="Times,serif" font-size="14.00">value = [22, 30, 34, 26]</text>
<text text-anchor="middle" x="973" y="-408.8" font-family="Times,serif" font-size="14.00">class = sentimental</text>
</g>
<!-- 1 -->
<g id="node2" class="node"><title>1</title>
<polygon fill="#399de5" fill-opacity="0.109804" stroke="black" points="865,-365 667,-365 667,-297 865,-297 865,-365"/>
<text text-anchor="middle" x="766" y="-349.8" font-family="Times,serif" font-size="14.00">Disgust_NRC_narrated &lt;= 0.485</text>
<text text-anchor="middle" x="766" y="-334.8" font-family="Times,serif" font-size="14.00">samples = 78</text>
<text text-anchor="middle" x="766" y="-319.8" font-family="Times,serif" font-size="14.00">value = [22, 4, 29, 23]</text>
<text text-anchor="middle" x="766" y="-304.8" font-family="Times,serif" font-size="14.00">class = sentimental</text>
</g>
<!-- 0&#45;&gt;1 -->
<g id="edge1" class="edge"><title>0&#45;&gt;1</title>
<path fill="none" stroke="black" d="M905.793,-400.884C885.535,-390.901 863.152,-379.872 842.345,-369.619"/>
<polygon fill="black" stroke="black" points="843.741,-366.405 833.224,-365.125 840.647,-372.684 843.741,-366.405"/>
<text text-anchor="middle" x="841.267" y="-385.095" font-family="Times,serif" font-size="14.00">True</text>
</g>
<!-- 14 -->
<g id="node15" class="node"><title>14</title>
<polygon fill="#47e539" fill-opacity="0.725490" stroke="black" points="1181,-365 1035,-365 1035,-297 1181,-297 1181,-365"/>
<text text-anchor="middle" x="1108" y="-349.8" font-family="Times,serif" font-size="14.00">Anger_NRC &lt;= 2.4647</text>
<text text-anchor="middle" x="1108" y="-334.8" font-family="Times,serif" font-size="14.00">samples = 34</text>
<text text-anchor="middle" x="1108" y="-319.8" font-family="Times,serif" font-size="14.00">value = [0, 26, 5, 3]</text>
<text text-anchor="middle" x="1108" y="-304.8" font-family="Times,serif" font-size="14.00">class = historical</text>
</g>
<!-- 0&#45;&gt;14 -->
<g id="edge14" class="edge"><title>0&#45;&gt;14</title>
<path fill="none" stroke="black" d="M1016.83,-400.884C1029.21,-391.531 1042.8,-381.259 1055.63,-371.568"/>
<polygon fill="black" stroke="black" points="1058.06,-374.12 1063.93,-365.299 1053.84,-368.535 1058.06,-374.12"/>
<text text-anchor="middle" x="1060.48" y="-386.36" font-family="Times,serif" font-size="14.00">False</text>
</g>
<!-- 2 -->
<g id="node3" class="node"><title>2</title>
<polygon fill="#399de5" fill-opacity="0.647059" stroke="black" points="544,-261 396,-261 396,-193 544,-193 544,-261"/>
<text text-anchor="middle" x="470" y="-245.8" font-family="Times,serif" font-size="14.00">Trust_NRC &lt;= 16.1612</text>
<text text-anchor="middle" x="470" y="-230.8" font-family="Times,serif" font-size="14.00">samples = 37</text>
<text text-anchor="middle" x="470" y="-215.8" font-family="Times,serif" font-size="14.00">value = [4, 1, 26, 6]</text>
<text text-anchor="middle" x="470" y="-200.8" font-family="Times,serif" font-size="14.00">class = sentimental</text>
</g>
<!-- 1&#45;&gt;2 -->
<g id="edge2" class="edge"><title>1&#45;&gt;2</title>
<path fill="none" stroke="black" d="M669.897,-296.884C632.397,-283.961 589.806,-269.285 553.602,-256.809"/>
<polygon fill="black" stroke="black" points="554.653,-253.469 544.058,-253.52 552.372,-260.087 554.653,-253.469"/>
</g>
<!-- 9 -->
<g id="node10" class="node"><title>9</title>
<polygon fill="#e58139" fill-opacity="0.043137" stroke="black" points="844.5,-261 687.5,-261 687.5,-193 844.5,-193 844.5,-261"/>
<text text-anchor="middle" x="766" y="-245.8" font-family="Times,serif" font-size="14.00">neutral_NRC &lt;= 44.4333</text>
<text text-anchor="middle" x="766" y="-230.8" font-family="Times,serif" font-size="14.00">samples = 41</text>
<text text-anchor="middle" x="766" y="-215.8" font-family="Times,serif" font-size="14.00">value = [18, 3, 3, 17]</text>
<text text-anchor="middle" x="766" y="-200.8" font-family="Times,serif" font-size="14.00">class = costumbrista</text>
</g>
<!-- 1&#45;&gt;9 -->
<g id="edge9" class="edge"><title>1&#45;&gt;9</title>
<path fill="none" stroke="black" d="M766,-296.884C766,-288.778 766,-279.982 766,-271.472"/>
<polygon fill="black" stroke="black" points="769.5,-271.299 766,-261.299 762.5,-271.299 769.5,-271.299"/>
</g>
<!-- 3 -->
<g id="node4" class="node"><title>3</title>
<polygon fill="#399de5" fill-opacity="0.815686" stroke="black" points="290.5,-157 129.5,-157 129.5,-89 290.5,-89 290.5,-157"/>
<text text-anchor="middle" x="210" y="-141.8" font-family="Times,serif" font-size="14.00">Joy_NRC_speech &lt;= 0.36</text>
<text text-anchor="middle" x="210" y="-126.8" font-family="Times,serif" font-size="14.00">samples = 30</text>
<text text-anchor="middle" x="210" y="-111.8" font-family="Times,serif" font-size="14.00">value = [3, 0, 25, 2]</text>
<text text-anchor="middle" x="210" y="-96.8" font-family="Times,serif" font-size="14.00">class = sentimental</text>
</g>
<!-- 2&#45;&gt;3 -->
<g id="edge3" class="edge"><title>2&#45;&gt;3</title>
<path fill="none" stroke="black" d="M395.842,-196.907C366.053,-185.221 331.434,-171.639 300.205,-159.388"/>
<polygon fill="black" stroke="black" points="301.219,-156.026 290.631,-155.632 298.662,-162.543 301.219,-156.026"/>
</g>
<!-- 6 -->
<g id="node7" class="node"><title>6</title>
<polygon fill="#d739e5" fill-opacity="0.498039" stroke="black" points="549,-157 391,-157 391,-89 549,-89 549,-157"/>
<text text-anchor="middle" x="470" y="-141.8" font-family="Times,serif" font-size="14.00">Surprise_NRC &lt;= 0.9326</text>
<text text-anchor="middle" x="470" y="-126.8" font-family="Times,serif" font-size="14.00">samples = 7</text>
<text text-anchor="middle" x="470" y="-111.8" font-family="Times,serif" font-size="14.00">value = [1, 1, 1, 4]</text>
<text text-anchor="middle" x="470" y="-96.8" font-family="Times,serif" font-size="14.00">class = sociopolitical</text>
</g>
<!-- 2&#45;&gt;6 -->
<g id="edge6" class="edge"><title>2&#45;&gt;6</title>
<path fill="none" stroke="black" d="M470,-192.884C470,-184.778 470,-175.982 470,-167.472"/>
<polygon fill="black" stroke="black" points="473.5,-167.299 470,-157.299 466.5,-167.299 473.5,-167.299"/>
</g>
<!-- 4 -->
<g id="node5" class="node"><title>4</title>
<polygon fill="#e58139" fill-opacity="0.666667" stroke="black" points="128,-53 0,-53 0,-0 128,-0 128,-53"/>
<text text-anchor="middle" x="64" y="-37.8" font-family="Times,serif" font-size="14.00">samples = 4</text>
<text text-anchor="middle" x="64" y="-22.8" font-family="Times,serif" font-size="14.00">value = [3, 0, 1, 0]</text>
<text text-anchor="middle" x="64" y="-7.8" font-family="Times,serif" font-size="14.00">class = costumbrista</text>
</g>
<!-- 3&#45;&gt;4 -->
<g id="edge4" class="edge"><title>3&#45;&gt;4</title>
<path fill="none" stroke="black" d="M158.936,-88.9485C143.814,-79.1601 127.306,-68.4756 112.36,-58.8015"/>
<polygon fill="black" stroke="black" points="114.059,-55.7322 103.763,-53.2367 110.256,-61.6087 114.059,-55.7322"/>
</g>
<!-- 5 -->
<g id="node6" class="node"><title>5</title>
<polygon fill="#399de5" fill-opacity="0.917647" stroke="black" points="273.5,-53 146.5,-53 146.5,-0 273.5,-0 273.5,-53"/>
<text text-anchor="middle" x="210" y="-37.8" font-family="Times,serif" font-size="14.00">samples = 26</text>
<text text-anchor="middle" x="210" y="-22.8" font-family="Times,serif" font-size="14.00">value = [0, 0, 24, 2]</text>
<text text-anchor="middle" x="210" y="-7.8" font-family="Times,serif" font-size="14.00">class = sentimental</text>
</g>
<!-- 3&#45;&gt;5 -->
<g id="edge5" class="edge"><title>3&#45;&gt;5</title>
<path fill="none" stroke="black" d="M210,-88.9485C210,-80.7153 210,-71.848 210,-63.4814"/>
<polygon fill="black" stroke="black" points="213.5,-63.2367 210,-53.2367 206.5,-63.2367 213.5,-63.2367"/>
</g>
<!-- 7 -->
<g id="node8" class="node"><title>7</title>
<polygon fill="#d739e5" fill-opacity="0.749020" stroke="black" points="422.5,-53 291.5,-53 291.5,-0 422.5,-0 422.5,-53"/>
<text text-anchor="middle" x="357" y="-37.8" font-family="Times,serif" font-size="14.00">samples = 5</text>
<text text-anchor="middle" x="357" y="-22.8" font-family="Times,serif" font-size="14.00">value = [0, 0, 1, 4]</text>
<text text-anchor="middle" x="357" y="-7.8" font-family="Times,serif" font-size="14.00">class = sociopolitical</text>
</g>
<!-- 6&#45;&gt;7 -->
<g id="edge7" class="edge"><title>6&#45;&gt;7</title>
<path fill="none" stroke="black" d="M430.478,-88.9485C419.211,-79.526 406.951,-69.2731 395.732,-59.8906"/>
<polygon fill="black" stroke="black" points="397.692,-56.967 387.775,-53.2367 393.201,-62.3368 397.692,-56.967"/>
</g>
<!-- 8 -->
<g id="node9" class="node"><title>8</title>
<polygon fill="none" stroke="black" points="569,-53 441,-53 441,-0 569,-0 569,-53"/>
<text text-anchor="middle" x="505" y="-37.8" font-family="Times,serif" font-size="14.00">samples = 2</text>
<text text-anchor="middle" x="505" y="-22.8" font-family="Times,serif" font-size="14.00">value = [1, 1, 0, 0]</text>
<text text-anchor="middle" x="505" y="-7.8" font-family="Times,serif" font-size="14.00">class = costumbrista</text>
</g>
<!-- 6&#45;&gt;8 -->
<g id="edge8" class="edge"><title>6&#45;&gt;8</title>
<path fill="none" stroke="black" d="M482.241,-88.9485C485.392,-80.4408 488.794,-71.2562 491.983,-62.6464"/>
<polygon fill="black" stroke="black" points="495.277,-63.8298 495.468,-53.2367 488.713,-61.3986 495.277,-63.8298"/>
</g>
<!-- 10 -->
<g id="node11" class="node"><title>10</title>
<polygon fill="#d739e5" fill-opacity="0.392157" stroke="black" points="762,-157 614,-157 614,-89 762,-89 762,-157"/>
<text text-anchor="middle" x="688" y="-141.8" font-family="Times,serif" font-size="14.00">Trust_NRC &lt;= 14.8119</text>
<text text-anchor="middle" x="688" y="-126.8" font-family="Times,serif" font-size="14.00">samples = 31</text>
<text text-anchor="middle" x="688" y="-111.8" font-family="Times,serif" font-size="14.00">value = [8, 3, 3, 17]</text>
<text text-anchor="middle" x="688" y="-96.8" font-family="Times,serif" font-size="14.00">class = sociopolitical</text>
</g>
<!-- 9&#45;&gt;10 -->
<g id="edge10" class="edge"><title>9&#45;&gt;10</title>
<path fill="none" stroke="black" d="M740.676,-192.884C734,-184.154 726.713,-174.625 719.746,-165.514"/>
<polygon fill="black" stroke="black" points="722.319,-163.117 713.464,-157.299 716.758,-167.369 722.319,-163.117"/>
</g>
<!-- 13 -->
<g id="node14" class="node"><title>13</title>
<polygon fill="#e58139" stroke="black" points="908,-149.5 780,-149.5 780,-96.5 908,-96.5 908,-149.5"/>
<text text-anchor="middle" x="844" y="-134.3" font-family="Times,serif" font-size="14.00">samples = 10</text>
<text text-anchor="middle" x="844" y="-119.3" font-family="Times,serif" font-size="14.00">value = [10, 0, 0, 0]</text>
<text text-anchor="middle" x="844" y="-104.3" font-family="Times,serif" font-size="14.00">class = costumbrista</text>
</g>
<!-- 9&#45;&gt;13 -->
<g id="edge13" class="edge"><title>9&#45;&gt;13</title>
<path fill="none" stroke="black" d="M791.324,-192.884C799.987,-181.556 809.68,-168.88 818.367,-157.521"/>
<polygon fill="black" stroke="black" points="821.19,-159.59 824.485,-149.52 815.63,-155.337 821.19,-159.59"/>
</g>
<!-- 11 -->
<g id="node12" class="node"><title>11</title>
<polygon fill="#d739e5" fill-opacity="0.592157" stroke="black" points="718.5,-53 587.5,-53 587.5,-0 718.5,-0 718.5,-53"/>
<text text-anchor="middle" x="653" y="-37.8" font-family="Times,serif" font-size="14.00">samples = 25</text>
<text text-anchor="middle" x="653" y="-22.8" font-family="Times,serif" font-size="14.00">value = [3, 3, 3, 16]</text>
<text text-anchor="middle" x="653" y="-7.8" font-family="Times,serif" font-size="14.00">class = sociopolitical</text>
</g>
<!-- 10&#45;&gt;11 -->
<g id="edge11" class="edge"><title>10&#45;&gt;11</title>
<path fill="none" stroke="black" d="M675.759,-88.9485C672.608,-80.4408 669.206,-71.2562 666.017,-62.6464"/>
<polygon fill="black" stroke="black" points="669.287,-61.3986 662.532,-53.2367 662.723,-63.8298 669.287,-61.3986"/>
</g>
<!-- 12 -->
<g id="node13" class="node"><title>12</title>
<polygon fill="#e58139" fill-opacity="0.800000" stroke="black" points="865,-53 737,-53 737,-0 865,-0 865,-53"/>
<text text-anchor="middle" x="801" y="-37.8" font-family="Times,serif" font-size="14.00">samples = 6</text>
<text text-anchor="middle" x="801" y="-22.8" font-family="Times,serif" font-size="14.00">value = [5, 0, 0, 1]</text>
<text text-anchor="middle" x="801" y="-7.8" font-family="Times,serif" font-size="14.00">class = costumbrista</text>
</g>
<!-- 10&#45;&gt;12 -->
<g id="edge12" class="edge"><title>10&#45;&gt;12</title>
<path fill="none" stroke="black" d="M727.522,-88.9485C738.789,-79.526 751.049,-69.2731 762.268,-59.8906"/>
<polygon fill="black" stroke="black" points="764.799,-62.3368 770.225,-53.2367 760.308,-56.967 764.799,-62.3368"/>
</g>
<!-- 15 -->
<g id="node16" class="node"><title>15</title>
<polygon fill="#47e539" fill-opacity="0.125490" stroke="black" points="1211.5,-261 1004.5,-261 1004.5,-193 1211.5,-193 1211.5,-261"/>
<text text-anchor="middle" x="1108" y="-245.8" font-family="Times,serif" font-size="14.00">Sadness_NRC_narrated &lt;= 4.9546</text>
<text text-anchor="middle" x="1108" y="-230.8" font-family="Times,serif" font-size="14.00">samples = 12</text>
<text text-anchor="middle" x="1108" y="-215.8" font-family="Times,serif" font-size="14.00">value = [0, 5, 4, 3]</text>
<text text-anchor="middle" x="1108" y="-200.8" font-family="Times,serif" font-size="14.00">class = historical</text>
</g>
<!-- 14&#45;&gt;15 -->
<g id="edge15" class="edge"><title>14&#45;&gt;15</title>
<path fill="none" stroke="black" d="M1108,-296.884C1108,-288.778 1108,-279.982 1108,-271.472"/>
<polygon fill="black" stroke="black" points="1111.5,-271.299 1108,-261.299 1104.5,-271.299 1111.5,-271.299"/>
</g>
<!-- 22 -->
<g id="node23" class="node"><title>22</title>
<polygon fill="#47e539" fill-opacity="0.952941" stroke="black" points="1461,-261 1271,-261 1271,-193 1461,-193 1461,-261"/>
<text text-anchor="middle" x="1366" y="-245.8" font-family="Times,serif" font-size="14.00">Anger_NRC_speech &lt;= 0.2148</text>
<text text-anchor="middle" x="1366" y="-230.8" font-family="Times,serif" font-size="14.00">samples = 22</text>
<text text-anchor="middle" x="1366" y="-215.8" font-family="Times,serif" font-size="14.00">value = [0, 21, 1, 0]</text>
<text text-anchor="middle" x="1366" y="-200.8" font-family="Times,serif" font-size="14.00">class = historical</text>
</g>
<!-- 14&#45;&gt;22 -->
<g id="edge22" class="edge"><title>14&#45;&gt;22</title>
<path fill="none" stroke="black" d="M1181.24,-301.044C1209.61,-289.83 1242.42,-276.855 1272.46,-264.98"/>
<polygon fill="black" stroke="black" points="1274.09,-268.099 1282.11,-261.167 1271.52,-261.589 1274.09,-268.099"/>
</g>
<!-- 16 -->
<g id="node17" class="node"><title>16</title>
<polygon fill="#47e539" fill-opacity="0.800000" stroke="black" points="1139.5,-157 996.5,-157 996.5,-89 1139.5,-89 1139.5,-157"/>
<text text-anchor="middle" x="1068" y="-141.8" font-family="Times,serif" font-size="14.00">Fear_NRC &lt;= 11.1633</text>
<text text-anchor="middle" x="1068" y="-126.8" font-family="Times,serif" font-size="14.00">samples = 6</text>
<text text-anchor="middle" x="1068" y="-111.8" font-family="Times,serif" font-size="14.00">value = [0, 5, 1, 0]</text>
<text text-anchor="middle" x="1068" y="-96.8" font-family="Times,serif" font-size="14.00">class = historical</text>
</g>
<!-- 15&#45;&gt;16 -->
<g id="edge16" class="edge"><title>15&#45;&gt;16</title>
<path fill="none" stroke="black" d="M1095.01,-192.884C1091.73,-184.511 1088.16,-175.401 1084.72,-166.631"/>
<polygon fill="black" stroke="black" points="1087.97,-165.331 1081.06,-157.299 1081.45,-167.887 1087.97,-165.331"/>
</g>
<!-- 19 -->
<g id="node20" class="node"><title>19</title>
<polygon fill="none" stroke="black" points="1286.5,-157 1157.5,-157 1157.5,-89 1286.5,-89 1286.5,-157"/>
<text text-anchor="middle" x="1222" y="-141.8" font-family="Times,serif" font-size="14.00">narrated &lt;= 57.6774</text>
<text text-anchor="middle" x="1222" y="-126.8" font-family="Times,serif" font-size="14.00">samples = 6</text>
<text text-anchor="middle" x="1222" y="-111.8" font-family="Times,serif" font-size="14.00">value = [0, 0, 3, 3]</text>
<text text-anchor="middle" x="1222" y="-96.8" font-family="Times,serif" font-size="14.00">class = sentimental</text>
</g>
<!-- 15&#45;&gt;19 -->
<g id="edge19" class="edge"><title>15&#45;&gt;19</title>
<path fill="none" stroke="black" d="M1145.01,-192.884C1155.27,-183.709 1166.51,-173.65 1177.16,-164.123"/>
<polygon fill="black" stroke="black" points="1179.66,-166.576 1184.78,-157.299 1175,-161.359 1179.66,-166.576"/>
</g>
<!-- 17 -->
<g id="node18" class="node"><title>17</title>
<polygon fill="#47e539" stroke="black" points="1003,-53 883,-53 883,-0 1003,-0 1003,-53"/>
<text text-anchor="middle" x="943" y="-37.8" font-family="Times,serif" font-size="14.00">samples = 5</text>
<text text-anchor="middle" x="943" y="-22.8" font-family="Times,serif" font-size="14.00">value = [0, 5, 0, 0]</text>
<text text-anchor="middle" x="943" y="-7.8" font-family="Times,serif" font-size="14.00">class = historical</text>
</g>
<!-- 16&#45;&gt;17 -->
<g id="edge17" class="edge"><title>16&#45;&gt;17</title>
<path fill="none" stroke="black" d="M1024.28,-88.9485C1011.58,-79.3431 997.728,-68.8747 985.123,-59.345"/>
<polygon fill="black" stroke="black" points="987.131,-56.4754 977.043,-53.2367 982.91,-62.0593 987.131,-56.4754"/>
</g>
<!-- 18 -->
<g id="node19" class="node"><title>18</title>
<polygon fill="#399de5" stroke="black" points="1143,-53 1021,-53 1021,-0 1143,-0 1143,-53"/>
<text text-anchor="middle" x="1082" y="-37.8" font-family="Times,serif" font-size="14.00">samples = 1</text>
<text text-anchor="middle" x="1082" y="-22.8" font-family="Times,serif" font-size="14.00">value = [0, 0, 1, 0]</text>
<text text-anchor="middle" x="1082" y="-7.8" font-family="Times,serif" font-size="14.00">class = sentimental</text>
</g>
<!-- 16&#45;&gt;18 -->
<g id="edge18" class="edge"><title>16&#45;&gt;18</title>
<path fill="none" stroke="black" d="M1072.9,-88.9485C1074.13,-80.6238 1075.46,-71.6509 1076.71,-63.2027"/>
<polygon fill="black" stroke="black" points="1080.18,-63.6417 1078.19,-53.2367 1073.26,-62.6158 1080.18,-63.6417"/>
</g>
<!-- 20 -->
<g id="node21" class="node"><title>20</title>
<polygon fill="#399de5" stroke="black" points="1283,-53 1161,-53 1161,-0 1283,-0 1283,-53"/>
<text text-anchor="middle" x="1222" y="-37.8" font-family="Times,serif" font-size="14.00">samples = 3</text>
<text text-anchor="middle" x="1222" y="-22.8" font-family="Times,serif" font-size="14.00">value = [0, 0, 3, 0]</text>
<text text-anchor="middle" x="1222" y="-7.8" font-family="Times,serif" font-size="14.00">class = sentimental</text>
</g>
<!-- 19&#45;&gt;20 -->
<g id="edge20" class="edge"><title>19&#45;&gt;20</title>
<path fill="none" stroke="black" d="M1222,-88.9485C1222,-80.7153 1222,-71.848 1222,-63.4814"/>
<polygon fill="black" stroke="black" points="1225.5,-63.2367 1222,-53.2367 1218.5,-63.2367 1225.5,-63.2367"/>
</g>
<!-- 21 -->
<g id="node22" class="node"><title>21</title>
<polygon fill="#d739e5" stroke="black" points="1432.5,-53 1301.5,-53 1301.5,-0 1432.5,-0 1432.5,-53"/>
<text text-anchor="middle" x="1367" y="-37.8" font-family="Times,serif" font-size="14.00">samples = 3</text>
<text text-anchor="middle" x="1367" y="-22.8" font-family="Times,serif" font-size="14.00">value = [0, 0, 0, 3]</text>
<text text-anchor="middle" x="1367" y="-7.8" font-family="Times,serif" font-size="14.00">class = sociopolitical</text>
</g>
<!-- 19&#45;&gt;21 -->
<g id="edge21" class="edge"><title>19&#45;&gt;21</title>
<path fill="none" stroke="black" d="M1272.71,-88.9485C1287.73,-79.1601 1304.13,-68.4756 1318.97,-58.8015"/>
<polygon fill="black" stroke="black" points="1321.04,-61.629 1327.51,-53.2367 1317.22,-55.7645 1321.04,-61.629"/>
</g>
<!-- 23 -->
<g id="node24" class="node"><title>23</title>
<polygon fill="#399de5" stroke="black" points="1427,-149.5 1305,-149.5 1305,-96.5 1427,-96.5 1427,-149.5"/>
<text text-anchor="middle" x="1366" y="-134.3" font-family="Times,serif" font-size="14.00">samples = 1</text>
<text text-anchor="middle" x="1366" y="-119.3" font-family="Times,serif" font-size="14.00">value = [0, 0, 1, 0]</text>
<text text-anchor="middle" x="1366" y="-104.3" font-family="Times,serif" font-size="14.00">class = sentimental</text>
</g>
<!-- 22&#45;&gt;23 -->
<g id="edge23" class="edge"><title>22&#45;&gt;23</title>
<path fill="none" stroke="black" d="M1366,-192.884C1366,-182.326 1366,-170.597 1366,-159.854"/>
<polygon fill="black" stroke="black" points="1369.5,-159.52 1366,-149.52 1362.5,-159.52 1369.5,-159.52"/>
</g>
<!-- 24 -->
<g id="node25" class="node"><title>24</title>
<polygon fill="#47e539" stroke="black" points="1572.5,-149.5 1445.5,-149.5 1445.5,-96.5 1572.5,-96.5 1572.5,-149.5"/>
<text text-anchor="middle" x="1509" y="-134.3" font-family="Times,serif" font-size="14.00">samples = 21</text>
<text text-anchor="middle" x="1509" y="-119.3" font-family="Times,serif" font-size="14.00">value = [0, 21, 0, 0]</text>
<text text-anchor="middle" x="1509" y="-104.3" font-family="Times,serif" font-size="14.00">class = historical</text>
</g>
<!-- 22&#45;&gt;24 -->
<g id="edge24" class="edge"><title>22&#45;&gt;24</title>
<path fill="none" stroke="black" d="M1412.43,-192.884C1429.23,-180.896 1448.16,-167.399 1464.77,-155.549"/>
<polygon fill="black" stroke="black" points="1467.11,-158.176 1473.22,-149.52 1463.05,-152.478 1467.11,-158.176"/>
</g>
</g>
</svg>
