<?xml version="1.0" encoding="UTF-8" standalone="no"?>
<!DOCTYPE svg PUBLIC "-//W3C//DTD SVG 1.1//EN"
 "http://www.w3.org/Graphics/SVG/1.1/DTD/svg11.dtd">
<!-- Generated by graphviz version 2.38.0 (20140413.2041)
 -->
<!-- Title: Tree Pages: 1 -->
<svg width="2365pt" height="581pt"
 viewBox="0.00 0.00 2364.50 581.00" xmlns="http://www.w3.org/2000/svg" xmlns:xlink="http://www.w3.org/1999/xlink">
<g id="graph0" class="graph" transform="scale(1 1) rotate(0) translate(4 577)">
<title>Tree</title>
<polygon fill="white" stroke="none" points="-4,4 -4,-577 2360.5,-577 2360.5,4 -4,4"/>
<!-- 0 -->
<g id="node1" class="node"><title>0</title>
<polygon fill="#399de5" fill-opacity="0.047059" stroke="black" points="1597.5,-573 1396.5,-573 1396.5,-505 1597.5,-505 1597.5,-573"/>
<text text-anchor="middle" x="1497" y="-557.8" font-family="Times,serif" font-size="14.00">narrated_neutral_NRC &lt;= 16.378</text>
<text text-anchor="middle" x="1497" y="-542.8" font-family="Times,serif" font-size="14.00">samples = 112</text>
<text text-anchor="middle" x="1497" y="-527.8" font-family="Times,serif" font-size="14.00">value = [22, 30, 34, 26]</text>
<text text-anchor="middle" x="1497" y="-512.8" font-family="Times,serif" font-size="14.00">class = sentimental</text>
</g>
<!-- 1 -->
<g id="node2" class="node"><title>1</title>
<polygon fill="#399de5" fill-opacity="0.109804" stroke="black" points="1263,-469 1123,-469 1123,-401 1263,-401 1263,-469"/>
<text text-anchor="middle" x="1193" y="-453.8" font-family="Times,serif" font-size="14.00">speech &lt;= 34.237</text>
<text text-anchor="middle" x="1193" y="-438.8" font-family="Times,serif" font-size="14.00">samples = 82</text>
<text text-anchor="middle" x="1193" y="-423.8" font-family="Times,serif" font-size="14.00">value = [9, 28, 34, 11]</text>
<text text-anchor="middle" x="1193" y="-408.8" font-family="Times,serif" font-size="14.00">class = sentimental</text>
</g>
<!-- 0&#45;&gt;1 -->
<g id="edge1" class="edge"><title>0&#45;&gt;1</title>
<path fill="none" stroke="black" d="M1398.3,-504.884C1357.7,-491.263 1311.3,-475.693 1272.89,-462.806"/>
<polygon fill="black" stroke="black" points="1273.9,-459.453 1263.31,-459.59 1271.67,-466.089 1273.9,-459.453"/>
<text text-anchor="middle" x="1274.44" y="-478.273" font-family="Times,serif" font-size="14.00">True</text>
</g>
<!-- 26 -->
<g id="node27" class="node"><title>26</title>
<polygon fill="#d739e5" fill-opacity="0.117647" stroke="black" points="1950.5,-469 1793.5,-469 1793.5,-401 1950.5,-401 1950.5,-469"/>
<text text-anchor="middle" x="1872" y="-453.8" font-family="Times,serif" font-size="14.00">neutral_NRC &lt;= 44.4333</text>
<text text-anchor="middle" x="1872" y="-438.8" font-family="Times,serif" font-size="14.00">samples = 30</text>
<text text-anchor="middle" x="1872" y="-423.8" font-family="Times,serif" font-size="14.00">value = [13, 2, 0, 15]</text>
<text text-anchor="middle" x="1872" y="-408.8" font-family="Times,serif" font-size="14.00">class = sociopolitical</text>
</g>
<!-- 0&#45;&gt;26 -->
<g id="edge26" class="edge"><title>0&#45;&gt;26</title>
<path fill="none" stroke="black" d="M1597.99,-510.532C1655.9,-494.779 1727.92,-475.19 1783.59,-460.048"/>
<polygon fill="black" stroke="black" points="1784.7,-463.373 1793.43,-457.371 1782.86,-456.618 1784.7,-463.373"/>
<text text-anchor="middle" x="1781.01" y="-475.368" font-family="Times,serif" font-size="14.00">False</text>
</g>
<!-- 2 -->
<g id="node3" class="node"><title>2</title>
<polygon fill="#47e539" fill-opacity="0.713725" stroke="black" points="552.5,-365 395.5,-365 395.5,-297 552.5,-297 552.5,-365"/>
<text text-anchor="middle" x="474" y="-349.8" font-family="Times,serif" font-size="14.00">neutral_NRC &lt;= 21.1257</text>
<text text-anchor="middle" x="474" y="-334.8" font-family="Times,serif" font-size="14.00">samples = 24</text>
<text text-anchor="middle" x="474" y="-319.8" font-family="Times,serif" font-size="14.00">value = [1, 18, 2, 3]</text>
<text text-anchor="middle" x="474" y="-304.8" font-family="Times,serif" font-size="14.00">class = historical</text>
</g>
<!-- 1&#45;&gt;2 -->
<g id="edge2" class="edge"><title>1&#45;&gt;2</title>
<path fill="none" stroke="black" d="M1122.75,-424.034C991.104,-405.358 707.543,-365.131 562.854,-344.605"/>
<polygon fill="black" stroke="black" points="563.073,-341.101 552.681,-343.162 562.09,-348.032 563.073,-341.101"/>
</g>
<!-- 11 -->
<g id="node12" class="node"><title>11</title>
<polygon fill="#399de5" fill-opacity="0.458824" stroke="black" points="1302,-365 1084,-365 1084,-297 1302,-297 1302,-365"/>
<text text-anchor="middle" x="1193" y="-349.8" font-family="Times,serif" font-size="14.00">speech_emotional_NRC &lt;= 21.6699</text>
<text text-anchor="middle" x="1193" y="-334.8" font-family="Times,serif" font-size="14.00">samples = 58</text>
<text text-anchor="middle" x="1193" y="-319.8" font-family="Times,serif" font-size="14.00">value = [8, 10, 32, 8]</text>
<text text-anchor="middle" x="1193" y="-304.8" font-family="Times,serif" font-size="14.00">class = sentimental</text>
</g>
<!-- 1&#45;&gt;11 -->
<g id="edge11" class="edge"><title>1&#45;&gt;11</title>
<path fill="none" stroke="black" d="M1193,-400.884C1193,-392.778 1193,-383.982 1193,-375.472"/>
<polygon fill="black" stroke="black" points="1196.5,-375.299 1193,-365.299 1189.5,-375.299 1196.5,-375.299"/>
</g>
<!-- 3 -->
<g id="node4" class="node"><title>3</title>
<polygon fill="#47e539" fill-opacity="0.933333" stroke="black" points="292.5,-261 127.5,-261 127.5,-193 292.5,-193 292.5,-261"/>
<text text-anchor="middle" x="210" y="-245.8" font-family="Times,serif" font-size="14.00">negative_NRC &lt;= 15.2432</text>
<text text-anchor="middle" x="210" y="-230.8" font-family="Times,serif" font-size="14.00">samples = 16</text>
<text text-anchor="middle" x="210" y="-215.8" font-family="Times,serif" font-size="14.00">value = [1, 15, 0, 0]</text>
<text text-anchor="middle" x="210" y="-200.8" font-family="Times,serif" font-size="14.00">class = historical</text>
</g>
<!-- 2&#45;&gt;3 -->
<g id="edge3" class="edge"><title>2&#45;&gt;3</title>
<path fill="none" stroke="black" d="M395.149,-299.535C365.947,-288.252 332.578,-275.36 302.287,-263.656"/>
<polygon fill="black" stroke="black" points="303.158,-260.241 292.569,-259.902 300.635,-266.77 303.158,-260.241"/>
</g>
<!-- 6 -->
<g id="node7" class="node"><title>6</title>
<polygon fill="none" stroke="black" points="578,-261 370,-261 370,-193 578,-193 578,-261"/>
<text text-anchor="middle" x="474" y="-245.8" font-family="Times,serif" font-size="14.00">narrated_neutral_NRC &lt;= 12.2885</text>
<text text-anchor="middle" x="474" y="-230.8" font-family="Times,serif" font-size="14.00">samples = 8</text>
<text text-anchor="middle" x="474" y="-215.8" font-family="Times,serif" font-size="14.00">value = [0, 3, 2, 3]</text>
<text text-anchor="middle" x="474" y="-200.8" font-family="Times,serif" font-size="14.00">class = historical</text>
</g>
<!-- 2&#45;&gt;6 -->
<g id="edge6" class="edge"><title>2&#45;&gt;6</title>
<path fill="none" stroke="black" d="M474,-296.884C474,-288.778 474,-279.982 474,-271.472"/>
<polygon fill="black" stroke="black" points="477.5,-271.299 474,-261.299 470.5,-271.299 477.5,-271.299"/>
</g>
<!-- 4 -->
<g id="node5" class="node"><title>4</title>
<polygon fill="#e58139" stroke="black" points="128,-149.5 0,-149.5 0,-96.5 128,-96.5 128,-149.5"/>
<text text-anchor="middle" x="64" y="-134.3" font-family="Times,serif" font-size="14.00">samples = 1</text>
<text text-anchor="middle" x="64" y="-119.3" font-family="Times,serif" font-size="14.00">value = [1, 0, 0, 0]</text>
<text text-anchor="middle" x="64" y="-104.3" font-family="Times,serif" font-size="14.00">class = costumbrista</text>
</g>
<!-- 3&#45;&gt;4 -->
<g id="edge4" class="edge"><title>3&#45;&gt;4</title>
<path fill="none" stroke="black" d="M162.598,-192.884C145.439,-180.896 126.12,-167.399 109.159,-155.549"/>
<polygon fill="black" stroke="black" points="110.731,-152.378 100.529,-149.52 106.722,-158.116 110.731,-152.378"/>
</g>
<!-- 5 -->
<g id="node6" class="node"><title>5</title>
<polygon fill="#47e539" stroke="black" points="273.5,-149.5 146.5,-149.5 146.5,-96.5 273.5,-96.5 273.5,-149.5"/>
<text text-anchor="middle" x="210" y="-134.3" font-family="Times,serif" font-size="14.00">samples = 15</text>
<text text-anchor="middle" x="210" y="-119.3" font-family="Times,serif" font-size="14.00">value = [0, 15, 0, 0]</text>
<text text-anchor="middle" x="210" y="-104.3" font-family="Times,serif" font-size="14.00">class = historical</text>
</g>
<!-- 3&#45;&gt;5 -->
<g id="edge5" class="edge"><title>3&#45;&gt;5</title>
<path fill="none" stroke="black" d="M210,-192.884C210,-182.326 210,-170.597 210,-159.854"/>
<polygon fill="black" stroke="black" points="213.5,-159.52 210,-149.52 206.5,-159.52 213.5,-159.52"/>
</g>
<!-- 7 -->
<g id="node8" class="node"><title>7</title>
<polygon fill="#399de5" stroke="black" points="414,-149.5 292,-149.5 292,-96.5 414,-96.5 414,-149.5"/>
<text text-anchor="middle" x="353" y="-134.3" font-family="Times,serif" font-size="14.00">samples = 2</text>
<text text-anchor="middle" x="353" y="-119.3" font-family="Times,serif" font-size="14.00">value = [0, 0, 2, 0]</text>
<text text-anchor="middle" x="353" y="-104.3" font-family="Times,serif" font-size="14.00">class = sentimental</text>
</g>
<!-- 6&#45;&gt;7 -->
<g id="edge7" class="edge"><title>6&#45;&gt;7</title>
<path fill="none" stroke="black" d="M434.715,-192.884C420.755,-181.116 405.07,-167.894 391.202,-156.203"/>
<polygon fill="black" stroke="black" points="393.175,-153.289 383.274,-149.52 388.664,-158.641 393.175,-153.289"/>
</g>
<!-- 8 -->
<g id="node9" class="node"><title>8</title>
<polygon fill="none" stroke="black" points="632,-157 432,-157 432,-89 632,-89 632,-157"/>
<text text-anchor="middle" x="532" y="-141.8" font-family="Times,serif" font-size="14.00">speech_neutral_NRC &lt;= 10.6484</text>
<text text-anchor="middle" x="532" y="-126.8" font-family="Times,serif" font-size="14.00">samples = 6</text>
<text text-anchor="middle" x="532" y="-111.8" font-family="Times,serif" font-size="14.00">value = [0, 3, 0, 3]</text>
<text text-anchor="middle" x="532" y="-96.8" font-family="Times,serif" font-size="14.00">class = historical</text>
</g>
<!-- 6&#45;&gt;8 -->
<g id="edge8" class="edge"><title>6&#45;&gt;8</title>
<path fill="none" stroke="black" d="M492.831,-192.884C497.693,-184.332 502.992,-175.013 508.077,-166.072"/>
<polygon fill="black" stroke="black" points="511.165,-167.722 513.065,-157.299 505.079,-164.262 511.165,-167.722"/>
</g>
<!-- 9 -->
<g id="node10" class="node"><title>9</title>
<polygon fill="#d739e5" stroke="black" points="453.5,-53 322.5,-53 322.5,-0 453.5,-0 453.5,-53"/>
<text text-anchor="middle" x="388" y="-37.8" font-family="Times,serif" font-size="14.00">samples = 2</text>
<text text-anchor="middle" x="388" y="-22.8" font-family="Times,serif" font-size="14.00">value = [0, 0, 0, 2]</text>
<text text-anchor="middle" x="388" y="-7.8" font-family="Times,serif" font-size="14.00">class = sociopolitical</text>
</g>
<!-- 8&#45;&gt;9 -->
<g id="edge9" class="edge"><title>8&#45;&gt;9</title>
<path fill="none" stroke="black" d="M481.636,-88.9485C466.72,-79.1601 450.439,-68.4756 435.697,-58.8015"/>
<polygon fill="black" stroke="black" points="437.499,-55.7971 427.218,-53.2367 433.658,-61.6495 437.499,-55.7971"/>
</g>
<!-- 10 -->
<g id="node11" class="node"><title>10</title>
<polygon fill="#47e539" fill-opacity="0.666667" stroke="black" points="592,-53 472,-53 472,-0 592,-0 592,-53"/>
<text text-anchor="middle" x="532" y="-37.8" font-family="Times,serif" font-size="14.00">samples = 4</text>
<text text-anchor="middle" x="532" y="-22.8" font-family="Times,serif" font-size="14.00">value = [0, 3, 0, 1]</text>
<text text-anchor="middle" x="532" y="-7.8" font-family="Times,serif" font-size="14.00">class = historical</text>
</g>
<!-- 8&#45;&gt;10 -->
<g id="edge10" class="edge"><title>8&#45;&gt;10</title>
<path fill="none" stroke="black" d="M532,-88.9485C532,-80.7153 532,-71.848 532,-63.4814"/>
<polygon fill="black" stroke="black" points="535.5,-63.2367 532,-53.2367 528.5,-63.2367 535.5,-63.2367"/>
</g>
<!-- 12 -->
<g id="node13" class="node"><title>12</title>
<polygon fill="#d739e5" fill-opacity="0.286275" stroke="black" points="1125,-261 951,-261 951,-193 1125,-193 1125,-261"/>
<text text-anchor="middle" x="1038" y="-245.8" font-family="Times,serif" font-size="14.00">emotional_NRC &lt;= 61.2251</text>
<text text-anchor="middle" x="1038" y="-230.8" font-family="Times,serif" font-size="14.00">samples = 10</text>
<text text-anchor="middle" x="1038" y="-215.8" font-family="Times,serif" font-size="14.00">value = [3, 1, 1, 5]</text>
<text text-anchor="middle" x="1038" y="-200.8" font-family="Times,serif" font-size="14.00">class = sociopolitical</text>
</g>
<!-- 11&#45;&gt;12 -->
<g id="edge12" class="edge"><title>11&#45;&gt;12</title>
<path fill="none" stroke="black" d="M1142.68,-296.884C1128.12,-287.304 1112.1,-276.761 1097.06,-266.864"/>
<polygon fill="black" stroke="black" points="1098.61,-263.698 1088.34,-261.125 1094.77,-269.546 1098.61,-263.698"/>
</g>
<!-- 19 -->
<g id="node20" class="node"><title>19</title>
<polygon fill="#399de5" fill-opacity="0.564706" stroke="black" points="1393,-261 1235,-261 1235,-193 1393,-193 1393,-261"/>
<text text-anchor="middle" x="1314" y="-245.8" font-family="Times,serif" font-size="14.00">negative_NRC &lt;= 5.4608</text>
<text text-anchor="middle" x="1314" y="-230.8" font-family="Times,serif" font-size="14.00">samples = 48</text>
<text text-anchor="middle" x="1314" y="-215.8" font-family="Times,serif" font-size="14.00">value = [5, 9, 31, 3]</text>
<text text-anchor="middle" x="1314" y="-200.8" font-family="Times,serif" font-size="14.00">class = sentimental</text>
</g>
<!-- 11&#45;&gt;19 -->
<g id="edge19" class="edge"><title>11&#45;&gt;19</title>
<path fill="none" stroke="black" d="M1232.29,-296.884C1243.27,-287.62 1255.33,-277.455 1266.73,-267.845"/>
<polygon fill="black" stroke="black" points="1269.11,-270.421 1274.5,-261.299 1264.6,-265.069 1269.11,-270.421"/>
</g>
<!-- 13 -->
<g id="node14" class="node"><title>13</title>
<polygon fill="#e58139" fill-opacity="0.666667" stroke="black" points="891,-157 733,-157 733,-89 891,-89 891,-157"/>
<text text-anchor="middle" x="812" y="-141.8" font-family="Times,serif" font-size="14.00">negative_NRC &lt;= 6.4632</text>
<text text-anchor="middle" x="812" y="-126.8" font-family="Times,serif" font-size="14.00">samples = 4</text>
<text text-anchor="middle" x="812" y="-111.8" font-family="Times,serif" font-size="14.00">value = [3, 1, 0, 0]</text>
<text text-anchor="middle" x="812" y="-96.8" font-family="Times,serif" font-size="14.00">class = costumbrista</text>
</g>
<!-- 12&#45;&gt;13 -->
<g id="edge13" class="edge"><title>12&#45;&gt;13</title>
<path fill="none" stroke="black" d="M964.624,-192.884C942.308,-182.812 917.631,-171.674 894.742,-161.344"/>
<polygon fill="black" stroke="black" points="895.949,-158.048 885.394,-157.125 893.069,-164.429 895.949,-158.048"/>
</g>
<!-- 16 -->
<g id="node17" class="node"><title>16</title>
<polygon fill="#d739e5" fill-opacity="0.800000" stroke="black" points="1103.5,-157 972.5,-157 972.5,-89 1103.5,-89 1103.5,-157"/>
<text text-anchor="middle" x="1038" y="-141.8" font-family="Times,serif" font-size="14.00">speech &lt;= 35.0562</text>
<text text-anchor="middle" x="1038" y="-126.8" font-family="Times,serif" font-size="14.00">samples = 6</text>
<text text-anchor="middle" x="1038" y="-111.8" font-family="Times,serif" font-size="14.00">value = [0, 0, 1, 5]</text>
<text text-anchor="middle" x="1038" y="-96.8" font-family="Times,serif" font-size="14.00">class = sociopolitical</text>
</g>
<!-- 12&#45;&gt;16 -->
<g id="edge16" class="edge"><title>12&#45;&gt;16</title>
<path fill="none" stroke="black" d="M1038,-192.884C1038,-184.778 1038,-175.982 1038,-167.472"/>
<polygon fill="black" stroke="black" points="1041.5,-167.299 1038,-157.299 1034.5,-167.299 1041.5,-167.299"/>
</g>
<!-- 14 -->
<g id="node15" class="node"><title>14</title>
<polygon fill="#47e539" stroke="black" points="730,-53 610,-53 610,-0 730,-0 730,-53"/>
<text text-anchor="middle" x="670" y="-37.8" font-family="Times,serif" font-size="14.00">samples = 1</text>
<text text-anchor="middle" x="670" y="-22.8" font-family="Times,serif" font-size="14.00">value = [0, 1, 0, 0]</text>
<text text-anchor="middle" x="670" y="-7.8" font-family="Times,serif" font-size="14.00">class = historical</text>
</g>
<!-- 13&#45;&gt;14 -->
<g id="edge14" class="edge"><title>13&#45;&gt;14</title>
<path fill="none" stroke="black" d="M762.335,-88.9485C747.627,-79.1601 731.572,-68.4756 717.035,-58.8015"/>
<polygon fill="black" stroke="black" points="718.937,-55.8632 708.673,-53.2367 715.059,-61.6907 718.937,-55.8632"/>
</g>
<!-- 15 -->
<g id="node16" class="node"><title>15</title>
<polygon fill="#e58139" stroke="black" points="876,-53 748,-53 748,-0 876,-0 876,-53"/>
<text text-anchor="middle" x="812" y="-37.8" font-family="Times,serif" font-size="14.00">samples = 3</text>
<text text-anchor="middle" x="812" y="-22.8" font-family="Times,serif" font-size="14.00">value = [3, 0, 0, 0]</text>
<text text-anchor="middle" x="812" y="-7.8" font-family="Times,serif" font-size="14.00">class = costumbrista</text>
</g>
<!-- 13&#45;&gt;15 -->
<g id="edge15" class="edge"><title>13&#45;&gt;15</title>
<path fill="none" stroke="black" d="M812,-88.9485C812,-80.7153 812,-71.848 812,-63.4814"/>
<polygon fill="black" stroke="black" points="815.5,-63.2367 812,-53.2367 808.5,-63.2367 815.5,-63.2367"/>
</g>
<!-- 17 -->
<g id="node18" class="node"><title>17</title>
<polygon fill="#399de5" stroke="black" points="1016,-53 894,-53 894,-0 1016,-0 1016,-53"/>
<text text-anchor="middle" x="955" y="-37.8" font-family="Times,serif" font-size="14.00">samples = 1</text>
<text text-anchor="middle" x="955" y="-22.8" font-family="Times,serif" font-size="14.00">value = [0, 0, 1, 0]</text>
<text text-anchor="middle" x="955" y="-7.8" font-family="Times,serif" font-size="14.00">class = sentimental</text>
</g>
<!-- 16&#45;&gt;17 -->
<g id="edge17" class="edge"><title>16&#45;&gt;17</title>
<path fill="none" stroke="black" d="M1008.97,-88.9485C1001.02,-79.892 992.388,-70.0682 984.412,-60.9875"/>
<polygon fill="black" stroke="black" points="986.834,-58.4405 977.605,-53.2367 981.574,-63.0599 986.834,-58.4405"/>
</g>
<!-- 18 -->
<g id="node19" class="node"><title>18</title>
<polygon fill="#d739e5" stroke="black" points="1165.5,-53 1034.5,-53 1034.5,-0 1165.5,-0 1165.5,-53"/>
<text text-anchor="middle" x="1100" y="-37.8" font-family="Times,serif" font-size="14.00">samples = 5</text>
<text text-anchor="middle" x="1100" y="-22.8" font-family="Times,serif" font-size="14.00">value = [0, 0, 0, 5]</text>
<text text-anchor="middle" x="1100" y="-7.8" font-family="Times,serif" font-size="14.00">class = sociopolitical</text>
</g>
<!-- 16&#45;&gt;18 -->
<g id="edge18" class="edge"><title>16&#45;&gt;18</title>
<path fill="none" stroke="black" d="M1059.68,-88.9485C1065.45,-80.1664 1071.68,-70.6629 1077.49,-61.815"/>
<polygon fill="black" stroke="black" points="1080.56,-63.5178 1083.11,-53.2367 1074.7,-59.6779 1080.56,-63.5178"/>
</g>
<!-- 20 -->
<g id="node21" class="node"><title>20</title>
<polygon fill="#d739e5" fill-opacity="0.498039" stroke="black" points="1414.5,-157 1213.5,-157 1213.5,-89 1414.5,-89 1414.5,-157"/>
<text text-anchor="middle" x="1314" y="-141.8" font-family="Times,serif" font-size="14.00">narrated_neutral_NRC &lt;= 5.6475</text>
<text text-anchor="middle" x="1314" y="-126.8" font-family="Times,serif" font-size="14.00">samples = 5</text>
<text text-anchor="middle" x="1314" y="-111.8" font-family="Times,serif" font-size="14.00">value = [1, 0, 1, 3]</text>
<text text-anchor="middle" x="1314" y="-96.8" font-family="Times,serif" font-size="14.00">class = sociopolitical</text>
</g>
<!-- 19&#45;&gt;20 -->
<g id="edge20" class="edge"><title>19&#45;&gt;20</title>
<path fill="none" stroke="black" d="M1314,-192.884C1314,-184.778 1314,-175.982 1314,-167.472"/>
<polygon fill="black" stroke="black" points="1317.5,-167.299 1314,-157.299 1310.5,-167.299 1317.5,-167.299"/>
</g>
<!-- 23 -->
<g id="node24" class="node"><title>23</title>
<polygon fill="#399de5" fill-opacity="0.619608" stroke="black" points="1624,-157 1462,-157 1462,-89 1624,-89 1624,-157"/>
<text text-anchor="middle" x="1543" y="-141.8" font-family="Times,serif" font-size="14.00">positive_NRC &lt;= 18.3536</text>
<text text-anchor="middle" x="1543" y="-126.8" font-family="Times,serif" font-size="14.00">samples = 43</text>
<text text-anchor="middle" x="1543" y="-111.8" font-family="Times,serif" font-size="14.00">value = [4, 9, 30, 0]</text>
<text text-anchor="middle" x="1543" y="-96.8" font-family="Times,serif" font-size="14.00">class = sentimental</text>
</g>
<!-- 19&#45;&gt;23 -->
<g id="edge23" class="edge"><title>19&#45;&gt;23</title>
<path fill="none" stroke="black" d="M1388.35,-192.884C1411.06,-182.767 1436.19,-171.575 1459.47,-161.206"/>
<polygon fill="black" stroke="black" points="1460.92,-164.391 1468.63,-157.125 1458.07,-157.996 1460.92,-164.391"/>
</g>
<!-- 21 -->
<g id="node22" class="node"><title>21</title>
<polygon fill="#d739e5" stroke="black" points="1314.5,-53 1183.5,-53 1183.5,-0 1314.5,-0 1314.5,-53"/>
<text text-anchor="middle" x="1249" y="-37.8" font-family="Times,serif" font-size="14.00">samples = 3</text>
<text text-anchor="middle" x="1249" y="-22.8" font-family="Times,serif" font-size="14.00">value = [0, 0, 0, 3]</text>
<text text-anchor="middle" x="1249" y="-7.8" font-family="Times,serif" font-size="14.00">class = sociopolitical</text>
</g>
<!-- 20&#45;&gt;21 -->
<g id="edge21" class="edge"><title>20&#45;&gt;21</title>
<path fill="none" stroke="black" d="M1291.27,-88.9485C1285.16,-80.0749 1278.55,-70.4648 1272.41,-61.5388"/>
<polygon fill="black" stroke="black" points="1275.25,-59.4924 1266.7,-53.2367 1269.49,-63.4594 1275.25,-59.4924"/>
</g>
<!-- 22 -->
<g id="node23" class="node"><title>22</title>
<polygon fill="none" stroke="black" points="1461,-53 1333,-53 1333,-0 1461,-0 1461,-53"/>
<text text-anchor="middle" x="1397" y="-37.8" font-family="Times,serif" font-size="14.00">samples = 2</text>
<text text-anchor="middle" x="1397" y="-22.8" font-family="Times,serif" font-size="14.00">value = [1, 0, 1, 0]</text>
<text text-anchor="middle" x="1397" y="-7.8" font-family="Times,serif" font-size="14.00">class = costumbrista</text>
</g>
<!-- 20&#45;&gt;22 -->
<g id="edge22" class="edge"><title>20&#45;&gt;22</title>
<path fill="none" stroke="black" d="M1343.03,-88.9485C1350.98,-79.892 1359.61,-70.0682 1367.59,-60.9875"/>
<polygon fill="black" stroke="black" points="1370.43,-63.0599 1374.4,-53.2367 1365.17,-58.4405 1370.43,-63.0599"/>
</g>
<!-- 24 -->
<g id="node25" class="node"><title>24</title>
<polygon fill="#399de5" fill-opacity="0.368627" stroke="black" points="1606.5,-53 1479.5,-53 1479.5,-0 1606.5,-0 1606.5,-53"/>
<text text-anchor="middle" x="1543" y="-37.8" font-family="Times,serif" font-size="14.00">samples = 28</text>
<text text-anchor="middle" x="1543" y="-22.8" font-family="Times,serif" font-size="14.00">value = [3, 9, 16, 0]</text>
<text text-anchor="middle" x="1543" y="-7.8" font-family="Times,serif" font-size="14.00">class = sentimental</text>
</g>
<!-- 23&#45;&gt;24 -->
<g id="edge24" class="edge"><title>23&#45;&gt;24</title>
<path fill="none" stroke="black" d="M1543,-88.9485C1543,-80.7153 1543,-71.848 1543,-63.4814"/>
<polygon fill="black" stroke="black" points="1546.5,-63.2367 1543,-53.2367 1539.5,-63.2367 1546.5,-63.2367"/>
</g>
<!-- 25 -->
<g id="node26" class="node"><title>25</title>
<polygon fill="#399de5" fill-opacity="0.929412" stroke="black" points="1751.5,-53 1624.5,-53 1624.5,-0 1751.5,-0 1751.5,-53"/>
<text text-anchor="middle" x="1688" y="-37.8" font-family="Times,serif" font-size="14.00">samples = 15</text>
<text text-anchor="middle" x="1688" y="-22.8" font-family="Times,serif" font-size="14.00">value = [1, 0, 14, 0]</text>
<text text-anchor="middle" x="1688" y="-7.8" font-family="Times,serif" font-size="14.00">class = sentimental</text>
</g>
<!-- 23&#45;&gt;25 -->
<g id="edge25" class="edge"><title>23&#45;&gt;25</title>
<path fill="none" stroke="black" d="M1593.71,-88.9485C1608.73,-79.1601 1625.13,-68.4756 1639.97,-58.8015"/>
<polygon fill="black" stroke="black" points="1642.04,-61.629 1648.51,-53.2367 1638.22,-55.7645 1642.04,-61.629"/>
</g>
<!-- 27 -->
<g id="node28" class="node"><title>27</title>
<polygon fill="#d739e5" fill-opacity="0.647059" stroke="black" points="1981,-365 1763,-365 1763,-297 1981,-297 1981,-365"/>
<text text-anchor="middle" x="1872" y="-349.8" font-family="Times,serif" font-size="14.00">speech_emotional_NRC &lt;= 14.6617</text>
<text text-anchor="middle" x="1872" y="-334.8" font-family="Times,serif" font-size="14.00">samples = 21</text>
<text text-anchor="middle" x="1872" y="-319.8" font-family="Times,serif" font-size="14.00">value = [4, 2, 0, 15]</text>
<text text-anchor="middle" x="1872" y="-304.8" font-family="Times,serif" font-size="14.00">class = sociopolitical</text>
</g>
<!-- 26&#45;&gt;27 -->
<g id="edge27" class="edge"><title>26&#45;&gt;27</title>
<path fill="none" stroke="black" d="M1872,-400.884C1872,-392.778 1872,-383.982 1872,-375.472"/>
<polygon fill="black" stroke="black" points="1875.5,-375.299 1872,-365.299 1868.5,-375.299 1875.5,-375.299"/>
</g>
<!-- 36 -->
<g id="node37" class="node"><title>36</title>
<polygon fill="#e58139" stroke="black" points="2127,-357.5 1999,-357.5 1999,-304.5 2127,-304.5 2127,-357.5"/>
<text text-anchor="middle" x="2063" y="-342.3" font-family="Times,serif" font-size="14.00">samples = 9</text>
<text text-anchor="middle" x="2063" y="-327.3" font-family="Times,serif" font-size="14.00">value = [9, 0, 0, 0]</text>
<text text-anchor="middle" x="2063" y="-312.3" font-family="Times,serif" font-size="14.00">class = costumbrista</text>
</g>
<!-- 26&#45;&gt;36 -->
<g id="edge36" class="edge"><title>26&#45;&gt;36</title>
<path fill="none" stroke="black" d="M1934.01,-400.884C1957.28,-388.456 1983.59,-374.406 2006.35,-362.252"/>
<polygon fill="black" stroke="black" points="2008.04,-365.318 2015.21,-357.52 2004.74,-359.143 2008.04,-365.318"/>
</g>
<!-- 28 -->
<g id="node29" class="node"><title>28</title>
<polygon fill="#d739e5" fill-opacity="0.164706" stroke="black" points="1984.5,-261 1759.5,-261 1759.5,-193 1984.5,-193 1984.5,-261"/>
<text text-anchor="middle" x="1872" y="-245.8" font-family="Times,serif" font-size="14.00">narrated_emotional_NRC &lt;= 54.9016</text>
<text text-anchor="middle" x="1872" y="-230.8" font-family="Times,serif" font-size="14.00">samples = 9</text>
<text text-anchor="middle" x="1872" y="-215.8" font-family="Times,serif" font-size="14.00">value = [3, 2, 0, 4]</text>
<text text-anchor="middle" x="1872" y="-200.8" font-family="Times,serif" font-size="14.00">class = sociopolitical</text>
</g>
<!-- 27&#45;&gt;28 -->
<g id="edge28" class="edge"><title>27&#45;&gt;28</title>
<path fill="none" stroke="black" d="M1872,-296.884C1872,-288.778 1872,-279.982 1872,-271.472"/>
<polygon fill="black" stroke="black" points="1875.5,-271.299 1872,-261.299 1868.5,-271.299 1875.5,-271.299"/>
</g>
<!-- 33 -->
<g id="node34" class="node"><title>33</title>
<polygon fill="#d739e5" fill-opacity="0.909804" stroke="black" points="2240,-261 2046,-261 2046,-193 2240,-193 2240,-261"/>
<text text-anchor="middle" x="2143" y="-245.8" font-family="Times,serif" font-size="14.00">speech_neutral_NRC &lt;= 7.5815</text>
<text text-anchor="middle" x="2143" y="-230.8" font-family="Times,serif" font-size="14.00">samples = 12</text>
<text text-anchor="middle" x="2143" y="-215.8" font-family="Times,serif" font-size="14.00">value = [1, 0, 0, 11]</text>
<text text-anchor="middle" x="2143" y="-200.8" font-family="Times,serif" font-size="14.00">class = sociopolitical</text>
</g>
<!-- 27&#45;&gt;33 -->
<g id="edge33" class="edge"><title>27&#45;&gt;33</title>
<path fill="none" stroke="black" d="M1959.99,-296.884C1987.34,-286.588 2017.65,-275.179 2045.61,-264.656"/>
<polygon fill="black" stroke="black" points="2046.87,-267.923 2054.99,-261.125 2044.4,-261.372 2046.87,-267.923"/>
</g>
<!-- 29 -->
<g id="node30" class="node"><title>29</title>
<polygon fill="#e58139" fill-opacity="0.333333" stroke="black" points="1911,-157 1749,-157 1749,-89 1911,-89 1911,-157"/>
<text text-anchor="middle" x="1830" y="-141.8" font-family="Times,serif" font-size="14.00">positive_NRC &lt;= 13.4156</text>
<text text-anchor="middle" x="1830" y="-126.8" font-family="Times,serif" font-size="14.00">samples = 5</text>
<text text-anchor="middle" x="1830" y="-111.8" font-family="Times,serif" font-size="14.00">value = [3, 2, 0, 0]</text>
<text text-anchor="middle" x="1830" y="-96.8" font-family="Times,serif" font-size="14.00">class = costumbrista</text>
</g>
<!-- 28&#45;&gt;29 -->
<g id="edge29" class="edge"><title>28&#45;&gt;29</title>
<path fill="none" stroke="black" d="M1858.36,-192.884C1854.92,-184.511 1851.17,-175.401 1847.55,-166.631"/>
<polygon fill="black" stroke="black" points="1850.76,-165.214 1843.71,-157.299 1844.28,-167.879 1850.76,-165.214"/>
</g>
<!-- 32 -->
<g id="node33" class="node"><title>32</title>
<polygon fill="#d739e5" stroke="black" points="2060.5,-149.5 1929.5,-149.5 1929.5,-96.5 2060.5,-96.5 2060.5,-149.5"/>
<text text-anchor="middle" x="1995" y="-134.3" font-family="Times,serif" font-size="14.00">samples = 4</text>
<text text-anchor="middle" x="1995" y="-119.3" font-family="Times,serif" font-size="14.00">value = [0, 0, 0, 4]</text>
<text text-anchor="middle" x="1995" y="-104.3" font-family="Times,serif" font-size="14.00">class = sociopolitical</text>
</g>
<!-- 28&#45;&gt;32 -->
<g id="edge32" class="edge"><title>28&#45;&gt;32</title>
<path fill="none" stroke="black" d="M1911.93,-192.884C1926.13,-181.116 1942.07,-167.894 1956.17,-156.203"/>
<polygon fill="black" stroke="black" points="1958.76,-158.597 1964.23,-149.52 1954.29,-153.209 1958.76,-158.597"/>
</g>
<!-- 30 -->
<g id="node31" class="node"><title>30</title>
<polygon fill="#47e539" stroke="black" points="1890,-53 1770,-53 1770,-0 1890,-0 1890,-53"/>
<text text-anchor="middle" x="1830" y="-37.8" font-family="Times,serif" font-size="14.00">samples = 2</text>
<text text-anchor="middle" x="1830" y="-22.8" font-family="Times,serif" font-size="14.00">value = [0, 2, 0, 0]</text>
<text text-anchor="middle" x="1830" y="-7.8" font-family="Times,serif" font-size="14.00">class = historical</text>
</g>
<!-- 29&#45;&gt;30 -->
<g id="edge30" class="edge"><title>29&#45;&gt;30</title>
<path fill="none" stroke="black" d="M1830,-88.9485C1830,-80.7153 1830,-71.848 1830,-63.4814"/>
<polygon fill="black" stroke="black" points="1833.5,-63.2367 1830,-53.2367 1826.5,-63.2367 1833.5,-63.2367"/>
</g>
<!-- 31 -->
<g id="node32" class="node"><title>31</title>
<polygon fill="#e58139" stroke="black" points="2036,-53 1908,-53 1908,-0 2036,-0 2036,-53"/>
<text text-anchor="middle" x="1972" y="-37.8" font-family="Times,serif" font-size="14.00">samples = 3</text>
<text text-anchor="middle" x="1972" y="-22.8" font-family="Times,serif" font-size="14.00">value = [3, 0, 0, 0]</text>
<text text-anchor="middle" x="1972" y="-7.8" font-family="Times,serif" font-size="14.00">class = costumbrista</text>
</g>
<!-- 29&#45;&gt;31 -->
<g id="edge31" class="edge"><title>29&#45;&gt;31</title>
<path fill="none" stroke="black" d="M1879.66,-88.9485C1894.37,-79.1601 1910.43,-68.4756 1924.96,-58.8015"/>
<polygon fill="black" stroke="black" points="1926.94,-61.6907 1933.33,-53.2367 1923.06,-55.8632 1926.94,-61.6907"/>
</g>
<!-- 34 -->
<g id="node35" class="node"><title>34</title>
<polygon fill="#e58139" stroke="black" points="2207,-149.5 2079,-149.5 2079,-96.5 2207,-96.5 2207,-149.5"/>
<text text-anchor="middle" x="2143" y="-134.3" font-family="Times,serif" font-size="14.00">samples = 1</text>
<text text-anchor="middle" x="2143" y="-119.3" font-family="Times,serif" font-size="14.00">value = [1, 0, 0, 0]</text>
<text text-anchor="middle" x="2143" y="-104.3" font-family="Times,serif" font-size="14.00">class = costumbrista</text>
</g>
<!-- 33&#45;&gt;34 -->
<g id="edge34" class="edge"><title>33&#45;&gt;34</title>
<path fill="none" stroke="black" d="M2143,-192.884C2143,-182.326 2143,-170.597 2143,-159.854"/>
<polygon fill="black" stroke="black" points="2146.5,-159.52 2143,-149.52 2139.5,-159.52 2146.5,-159.52"/>
</g>
<!-- 35 -->
<g id="node36" class="node"><title>35</title>
<polygon fill="#d739e5" stroke="black" points="2356.5,-149.5 2225.5,-149.5 2225.5,-96.5 2356.5,-96.5 2356.5,-149.5"/>
<text text-anchor="middle" x="2291" y="-134.3" font-family="Times,serif" font-size="14.00">samples = 11</text>
<text text-anchor="middle" x="2291" y="-119.3" font-family="Times,serif" font-size="14.00">value = [0, 0, 0, 11]</text>
<text text-anchor="middle" x="2291" y="-104.3" font-family="Times,serif" font-size="14.00">class = sociopolitical</text>
</g>
<!-- 33&#45;&gt;35 -->
<g id="edge35" class="edge"><title>33&#45;&gt;35</title>
<path fill="none" stroke="black" d="M2191.05,-192.884C2208.6,-180.786 2228.39,-167.151 2245.69,-155.224"/>
<polygon fill="black" stroke="black" points="2247.72,-158.077 2253.97,-149.52 2243.75,-152.313 2247.72,-158.077"/>
</g>
</g>
</svg>
