<?xml version="1.0" encoding="UTF-8" standalone="no"?>
<!DOCTYPE svg PUBLIC "-//W3C//DTD SVG 1.1//EN"
 "http://www.w3.org/Graphics/SVG/1.1/DTD/svg11.dtd">
<!-- Generated by graphviz version 2.38.0 (20140413.2041)
 -->
<!-- Title: Tree Pages: 1 -->
<svg width="2375pt" height="685pt"
 viewBox="0.00 0.00 2374.50 685.00" xmlns="http://www.w3.org/2000/svg" xmlns:xlink="http://www.w3.org/1999/xlink">
<g id="graph0" class="graph" transform="scale(1 1) rotate(0) translate(4 681)">
<title>Tree</title>
<polygon fill="white" stroke="none" points="-4,4 -4,-681 2370.5,-681 2370.5,4 -4,4"/>
<!-- 0 -->
<g id="node1" class="node"><title>0</title>
<polygon fill="#399de5" fill-opacity="0.047059" stroke="black" points="1758.5,-677 1611.5,-677 1611.5,-609 1758.5,-609 1758.5,-677"/>
<text text-anchor="middle" x="1685" y="-661.8" font-family="Times,serif" font-size="14.00">Fear_NRC &lt;= 6.4535</text>
<text text-anchor="middle" x="1685" y="-646.8" font-family="Times,serif" font-size="14.00">samples = 112</text>
<text text-anchor="middle" x="1685" y="-631.8" font-family="Times,serif" font-size="14.00">value = [22, 30, 34, 26]</text>
<text text-anchor="middle" x="1685" y="-616.8" font-family="Times,serif" font-size="14.00">class = sentimental</text>
</g>
<!-- 1 -->
<g id="node2" class="node"><title>1</title>
<polygon fill="#399de5" fill-opacity="0.109804" stroke="black" points="1517,-573 1319,-573 1319,-505 1517,-505 1517,-573"/>
<text text-anchor="middle" x="1418" y="-557.8" font-family="Times,serif" font-size="14.00">Disgust_NRC_narrated &lt;= 0.485</text>
<text text-anchor="middle" x="1418" y="-542.8" font-family="Times,serif" font-size="14.00">samples = 78</text>
<text text-anchor="middle" x="1418" y="-527.8" font-family="Times,serif" font-size="14.00">value = [22, 4, 29, 23]</text>
<text text-anchor="middle" x="1418" y="-512.8" font-family="Times,serif" font-size="14.00">class = sentimental</text>
</g>
<!-- 0&#45;&gt;1 -->
<g id="edge1" class="edge"><title>0&#45;&gt;1</title>
<path fill="none" stroke="black" d="M1611.33,-613.858C1581.27,-602.373 1546.1,-588.937 1514.06,-576.698"/>
<polygon fill="black" stroke="black" points="1515.26,-573.41 1504.67,-573.111 1512.77,-579.949 1515.26,-573.41"/>
<text text-anchor="middle" x="1514.88" y="-592.233" font-family="Times,serif" font-size="14.00">True</text>
</g>
<!-- 32 -->
<g id="node33" class="node"><title>32</title>
<polygon fill="#47e539" fill-opacity="0.725490" stroke="black" points="1988.5,-573 1837.5,-573 1837.5,-505 1988.5,-505 1988.5,-573"/>
<text text-anchor="middle" x="1913" y="-557.8" font-family="Times,serif" font-size="14.00">positive_WN &lt;= 11.038</text>
<text text-anchor="middle" x="1913" y="-542.8" font-family="Times,serif" font-size="14.00">samples = 34</text>
<text text-anchor="middle" x="1913" y="-527.8" font-family="Times,serif" font-size="14.00">value = [0, 26, 5, 3]</text>
<text text-anchor="middle" x="1913" y="-512.8" font-family="Times,serif" font-size="14.00">class = historical</text>
</g>
<!-- 0&#45;&gt;32 -->
<g id="edge32" class="edge"><title>0&#45;&gt;32</title>
<path fill="none" stroke="black" d="M1758.71,-609.024C1781.45,-598.85 1806.65,-587.578 1829.97,-577.143"/>
<polygon fill="black" stroke="black" points="1831.45,-580.315 1839.15,-573.037 1828.6,-573.926 1831.45,-580.315"/>
<text text-anchor="middle" x="1830.24" y="-592.692" font-family="Times,serif" font-size="14.00">False</text>
</g>
<!-- 2 -->
<g id="node3" class="node"><title>2</title>
<polygon fill="#399de5" fill-opacity="0.647059" stroke="black" points="968,-469 820,-469 820,-401 968,-401 968,-469"/>
<text text-anchor="middle" x="894" y="-453.8" font-family="Times,serif" font-size="14.00">Trust_NRC &lt;= 16.1612</text>
<text text-anchor="middle" x="894" y="-438.8" font-family="Times,serif" font-size="14.00">samples = 37</text>
<text text-anchor="middle" x="894" y="-423.8" font-family="Times,serif" font-size="14.00">value = [4, 1, 26, 6]</text>
<text text-anchor="middle" x="894" y="-408.8" font-family="Times,serif" font-size="14.00">class = sentimental</text>
</g>
<!-- 1&#45;&gt;2 -->
<g id="edge2" class="edge"><title>1&#45;&gt;2</title>
<path fill="none" stroke="black" d="M1318.82,-518.695C1220.35,-499.525 1071.02,-470.458 978.155,-452.381"/>
<polygon fill="black" stroke="black" points="978.718,-448.925 968.234,-450.45 977.381,-455.796 978.718,-448.925"/>
</g>
<!-- 19 -->
<g id="node20" class="node"><title>19</title>
<polygon fill="#e58139" fill-opacity="0.043137" stroke="black" points="1495,-469 1341,-469 1341,-401 1495,-401 1495,-469"/>
<text text-anchor="middle" x="1418" y="-453.8" font-family="Times,serif" font-size="14.00">negative_WN &lt;= 2.5572</text>
<text text-anchor="middle" x="1418" y="-438.8" font-family="Times,serif" font-size="14.00">samples = 41</text>
<text text-anchor="middle" x="1418" y="-423.8" font-family="Times,serif" font-size="14.00">value = [18, 3, 3, 17]</text>
<text text-anchor="middle" x="1418" y="-408.8" font-family="Times,serif" font-size="14.00">class = costumbrista</text>
</g>
<!-- 1&#45;&gt;19 -->
<g id="edge19" class="edge"><title>1&#45;&gt;19</title>
<path fill="none" stroke="black" d="M1418,-504.884C1418,-496.778 1418,-487.982 1418,-479.472"/>
<polygon fill="black" stroke="black" points="1421.5,-479.299 1418,-469.299 1414.5,-479.299 1421.5,-479.299"/>
</g>
<!-- 3 -->
<g id="node4" class="node"><title>3</title>
<polygon fill="#399de5" fill-opacity="0.815686" stroke="black" points="556.5,-365 395.5,-365 395.5,-297 556.5,-297 556.5,-365"/>
<text text-anchor="middle" x="476" y="-349.8" font-family="Times,serif" font-size="14.00">Joy_NRC_speech &lt;= 0.36</text>
<text text-anchor="middle" x="476" y="-334.8" font-family="Times,serif" font-size="14.00">samples = 30</text>
<text text-anchor="middle" x="476" y="-319.8" font-family="Times,serif" font-size="14.00">value = [3, 0, 25, 2]</text>
<text text-anchor="middle" x="476" y="-304.8" font-family="Times,serif" font-size="14.00">class = sentimental</text>
</g>
<!-- 2&#45;&gt;3 -->
<g id="edge3" class="edge"><title>2&#45;&gt;3</title>
<path fill="none" stroke="black" d="M819.752,-415.882C749.027,-398.624 642.415,-372.608 566.695,-354.131"/>
<polygon fill="black" stroke="black" points="567.233,-350.66 556.688,-351.69 565.574,-357.46 567.233,-350.66"/>
</g>
<!-- 12 -->
<g id="node13" class="node"><title>12</title>
<polygon fill="#d739e5" fill-opacity="0.498039" stroke="black" points="973,-365 815,-365 815,-297 973,-297 973,-365"/>
<text text-anchor="middle" x="894" y="-349.8" font-family="Times,serif" font-size="14.00">Surprise_NRC &lt;= 0.9326</text>
<text text-anchor="middle" x="894" y="-334.8" font-family="Times,serif" font-size="14.00">samples = 7</text>
<text text-anchor="middle" x="894" y="-319.8" font-family="Times,serif" font-size="14.00">value = [1, 1, 1, 4]</text>
<text text-anchor="middle" x="894" y="-304.8" font-family="Times,serif" font-size="14.00">class = sociopolitical</text>
</g>
<!-- 2&#45;&gt;12 -->
<g id="edge12" class="edge"><title>2&#45;&gt;12</title>
<path fill="none" stroke="black" d="M894,-400.884C894,-392.778 894,-383.982 894,-375.472"/>
<polygon fill="black" stroke="black" points="897.5,-375.299 894,-365.299 890.5,-375.299 897.5,-375.299"/>
</g>
<!-- 4 -->
<g id="node5" class="node"><title>4</title>
<polygon fill="#e58139" fill-opacity="0.666667" stroke="black" points="292,-261 122,-261 122,-193 292,-193 292,-261"/>
<text text-anchor="middle" x="207" y="-245.8" font-family="Times,serif" font-size="14.00">emotional_WN &lt;= 93.1163</text>
<text text-anchor="middle" x="207" y="-230.8" font-family="Times,serif" font-size="14.00">samples = 4</text>
<text text-anchor="middle" x="207" y="-215.8" font-family="Times,serif" font-size="14.00">value = [3, 0, 1, 0]</text>
<text text-anchor="middle" x="207" y="-200.8" font-family="Times,serif" font-size="14.00">class = costumbrista</text>
</g>
<!-- 3&#45;&gt;4 -->
<g id="edge4" class="edge"><title>3&#45;&gt;4</title>
<path fill="none" stroke="black" d="M395.291,-299.397C365.839,-288.229 332.267,-275.499 301.707,-263.911"/>
<polygon fill="black" stroke="black" points="302.918,-260.627 292.327,-260.354 300.436,-267.173 302.918,-260.627"/>
</g>
<!-- 7 -->
<g id="node8" class="node"><title>7</title>
<polygon fill="#399de5" fill-opacity="0.917647" stroke="black" points="582.5,-261 369.5,-261 369.5,-193 582.5,-193 582.5,-261"/>
<text text-anchor="middle" x="476" y="-245.8" font-family="Times,serif" font-size="14.00">speech_emotional_WN &lt;= 25.5088</text>
<text text-anchor="middle" x="476" y="-230.8" font-family="Times,serif" font-size="14.00">samples = 26</text>
<text text-anchor="middle" x="476" y="-215.8" font-family="Times,serif" font-size="14.00">value = [0, 0, 24, 2]</text>
<text text-anchor="middle" x="476" y="-200.8" font-family="Times,serif" font-size="14.00">class = sentimental</text>
</g>
<!-- 3&#45;&gt;7 -->
<g id="edge7" class="edge"><title>3&#45;&gt;7</title>
<path fill="none" stroke="black" d="M476,-296.884C476,-288.778 476,-279.982 476,-271.472"/>
<polygon fill="black" stroke="black" points="479.5,-271.299 476,-261.299 472.5,-271.299 479.5,-271.299"/>
</g>
<!-- 5 -->
<g id="node6" class="node"><title>5</title>
<polygon fill="#e58139" stroke="black" points="128,-149.5 0,-149.5 0,-96.5 128,-96.5 128,-149.5"/>
<text text-anchor="middle" x="64" y="-134.3" font-family="Times,serif" font-size="14.00">samples = 3</text>
<text text-anchor="middle" x="64" y="-119.3" font-family="Times,serif" font-size="14.00">value = [3, 0, 0, 0]</text>
<text text-anchor="middle" x="64" y="-104.3" font-family="Times,serif" font-size="14.00">class = costumbrista</text>
</g>
<!-- 4&#45;&gt;5 -->
<g id="edge5" class="edge"><title>4&#45;&gt;5</title>
<path fill="none" stroke="black" d="M160.572,-192.884C143.766,-180.896 124.843,-167.399 108.231,-155.549"/>
<polygon fill="black" stroke="black" points="109.952,-152.478 99.7779,-149.52 105.887,-158.176 109.952,-152.478"/>
</g>
<!-- 6 -->
<g id="node7" class="node"><title>6</title>
<polygon fill="#399de5" stroke="black" points="268,-149.5 146,-149.5 146,-96.5 268,-96.5 268,-149.5"/>
<text text-anchor="middle" x="207" y="-134.3" font-family="Times,serif" font-size="14.00">samples = 1</text>
<text text-anchor="middle" x="207" y="-119.3" font-family="Times,serif" font-size="14.00">value = [0, 0, 1, 0]</text>
<text text-anchor="middle" x="207" y="-104.3" font-family="Times,serif" font-size="14.00">class = sentimental</text>
</g>
<!-- 4&#45;&gt;6 -->
<g id="edge6" class="edge"><title>4&#45;&gt;6</title>
<path fill="none" stroke="black" d="M207,-192.884C207,-182.326 207,-170.597 207,-159.854"/>
<polygon fill="black" stroke="black" points="210.5,-159.52 207,-149.52 203.5,-159.52 210.5,-159.52"/>
</g>
<!-- 8 -->
<g id="node9" class="node"><title>8</title>
<polygon fill="#d739e5" stroke="black" points="417.5,-149.5 286.5,-149.5 286.5,-96.5 417.5,-96.5 417.5,-149.5"/>
<text text-anchor="middle" x="352" y="-134.3" font-family="Times,serif" font-size="14.00">samples = 1</text>
<text text-anchor="middle" x="352" y="-119.3" font-family="Times,serif" font-size="14.00">value = [0, 0, 0, 1]</text>
<text text-anchor="middle" x="352" y="-104.3" font-family="Times,serif" font-size="14.00">class = sociopolitical</text>
</g>
<!-- 7&#45;&gt;8 -->
<g id="edge8" class="edge"><title>7&#45;&gt;8</title>
<path fill="none" stroke="black" d="M435.741,-192.884C421.301,-181.006 405.06,-167.646 390.751,-155.876"/>
<polygon fill="black" stroke="black" points="392.971,-153.17 383.024,-149.52 388.524,-158.576 392.971,-153.17"/>
</g>
<!-- 9 -->
<g id="node10" class="node"><title>9</title>
<polygon fill="#399de5" fill-opacity="0.956863" stroke="black" points="632,-157 436,-157 436,-89 632,-89 632,-157"/>
<text text-anchor="middle" x="534" y="-141.8" font-family="Times,serif" font-size="14.00">speech_neutral_WN &lt;= 28.1496</text>
<text text-anchor="middle" x="534" y="-126.8" font-family="Times,serif" font-size="14.00">samples = 25</text>
<text text-anchor="middle" x="534" y="-111.8" font-family="Times,serif" font-size="14.00">value = [0, 0, 24, 1]</text>
<text text-anchor="middle" x="534" y="-96.8" font-family="Times,serif" font-size="14.00">class = sentimental</text>
</g>
<!-- 7&#45;&gt;9 -->
<g id="edge9" class="edge"><title>7&#45;&gt;9</title>
<path fill="none" stroke="black" d="M494.831,-192.884C499.693,-184.332 504.992,-175.013 510.077,-166.072"/>
<polygon fill="black" stroke="black" points="513.165,-167.722 515.065,-157.299 507.079,-164.262 513.165,-167.722"/>
</g>
<!-- 10 -->
<g id="node11" class="node"><title>10</title>
<polygon fill="#399de5" stroke="black" points="524.5,-53 397.5,-53 397.5,-0 524.5,-0 524.5,-53"/>
<text text-anchor="middle" x="461" y="-37.8" font-family="Times,serif" font-size="14.00">samples = 24</text>
<text text-anchor="middle" x="461" y="-22.8" font-family="Times,serif" font-size="14.00">value = [0, 0, 24, 0]</text>
<text text-anchor="middle" x="461" y="-7.8" font-family="Times,serif" font-size="14.00">class = sentimental</text>
</g>
<!-- 9&#45;&gt;10 -->
<g id="edge10" class="edge"><title>9&#45;&gt;10</title>
<path fill="none" stroke="black" d="M508.468,-88.9485C501.543,-79.9834 494.037,-70.2666 487.081,-61.2629"/>
<polygon fill="black" stroke="black" points="489.764,-59.0108 480.881,-53.2367 484.225,-63.2902 489.764,-59.0108"/>
</g>
<!-- 11 -->
<g id="node12" class="node"><title>11</title>
<polygon fill="#d739e5" stroke="black" points="673.5,-53 542.5,-53 542.5,-0 673.5,-0 673.5,-53"/>
<text text-anchor="middle" x="608" y="-37.8" font-family="Times,serif" font-size="14.00">samples = 1</text>
<text text-anchor="middle" x="608" y="-22.8" font-family="Times,serif" font-size="14.00">value = [0, 0, 0, 1]</text>
<text text-anchor="middle" x="608" y="-7.8" font-family="Times,serif" font-size="14.00">class = sociopolitical</text>
</g>
<!-- 9&#45;&gt;11 -->
<g id="edge11" class="edge"><title>9&#45;&gt;11</title>
<path fill="none" stroke="black" d="M559.882,-88.9485C566.902,-79.9834 574.511,-70.2666 581.561,-61.2629"/>
<polygon fill="black" stroke="black" points="584.437,-63.2679 587.846,-53.2367 578.925,-58.9521 584.437,-63.2679"/>
</g>
<!-- 13 -->
<g id="node14" class="node"><title>13</title>
<polygon fill="#d739e5" fill-opacity="0.749020" stroke="black" points="895,-261 671,-261 671,-193 895,-193 895,-261"/>
<text text-anchor="middle" x="783" y="-245.8" font-family="Times,serif" font-size="14.00">Anticipation_NRC_speech &lt;= 4.0622</text>
<text text-anchor="middle" x="783" y="-230.8" font-family="Times,serif" font-size="14.00">samples = 5</text>
<text text-anchor="middle" x="783" y="-215.8" font-family="Times,serif" font-size="14.00">value = [0, 0, 1, 4]</text>
<text text-anchor="middle" x="783" y="-200.8" font-family="Times,serif" font-size="14.00">class = sociopolitical</text>
</g>
<!-- 12&#45;&gt;13 -->
<g id="edge13" class="edge"><title>12&#45;&gt;13</title>
<path fill="none" stroke="black" d="M857.961,-296.884C847.977,-287.709 837.031,-277.65 826.663,-268.123"/>
<polygon fill="black" stroke="black" points="828.969,-265.488 819.238,-261.299 824.233,-270.643 828.969,-265.488"/>
</g>
<!-- 16 -->
<g id="node17" class="node"><title>16</title>
<polygon fill="none" stroke="black" points="1095,-261 913,-261 913,-193 1095,-193 1095,-261"/>
<text text-anchor="middle" x="1004" y="-245.8" font-family="Times,serif" font-size="14.00">Joy_NRC_narrated &lt;= 2.4052</text>
<text text-anchor="middle" x="1004" y="-230.8" font-family="Times,serif" font-size="14.00">samples = 2</text>
<text text-anchor="middle" x="1004" y="-215.8" font-family="Times,serif" font-size="14.00">value = [1, 1, 0, 0]</text>
<text text-anchor="middle" x="1004" y="-200.8" font-family="Times,serif" font-size="14.00">class = costumbrista</text>
</g>
<!-- 12&#45;&gt;16 -->
<g id="edge16" class="edge"><title>12&#45;&gt;16</title>
<path fill="none" stroke="black" d="M929.714,-296.884C939.608,-287.709 950.456,-277.65 960.73,-268.123"/>
<polygon fill="black" stroke="black" points="963.136,-270.665 968.089,-261.299 958.376,-265.532 963.136,-270.665"/>
</g>
<!-- 14 -->
<g id="node15" class="node"><title>14</title>
<polygon fill="#d739e5" stroke="black" points="781.5,-149.5 650.5,-149.5 650.5,-96.5 781.5,-96.5 781.5,-149.5"/>
<text text-anchor="middle" x="716" y="-134.3" font-family="Times,serif" font-size="14.00">samples = 4</text>
<text text-anchor="middle" x="716" y="-119.3" font-family="Times,serif" font-size="14.00">value = [0, 0, 0, 4]</text>
<text text-anchor="middle" x="716" y="-104.3" font-family="Times,serif" font-size="14.00">class = sociopolitical</text>
</g>
<!-- 13&#45;&gt;14 -->
<g id="edge14" class="edge"><title>13&#45;&gt;14</title>
<path fill="none" stroke="black" d="M761.247,-192.884C753.951,-181.776 745.803,-169.372 738.454,-158.184"/>
<polygon fill="black" stroke="black" points="741.179,-155.957 732.763,-149.52 735.328,-159.8 741.179,-155.957"/>
</g>
<!-- 15 -->
<g id="node16" class="node"><title>15</title>
<polygon fill="#399de5" stroke="black" points="922,-149.5 800,-149.5 800,-96.5 922,-96.5 922,-149.5"/>
<text text-anchor="middle" x="861" y="-134.3" font-family="Times,serif" font-size="14.00">samples = 1</text>
<text text-anchor="middle" x="861" y="-119.3" font-family="Times,serif" font-size="14.00">value = [0, 0, 1, 0]</text>
<text text-anchor="middle" x="861" y="-104.3" font-family="Times,serif" font-size="14.00">class = sentimental</text>
</g>
<!-- 13&#45;&gt;15 -->
<g id="edge15" class="edge"><title>13&#45;&gt;15</title>
<path fill="none" stroke="black" d="M808.324,-192.884C816.987,-181.556 826.68,-168.88 835.367,-157.521"/>
<polygon fill="black" stroke="black" points="838.19,-159.59 841.485,-149.52 832.63,-155.337 838.19,-159.59"/>
</g>
<!-- 17 -->
<g id="node18" class="node"><title>17</title>
<polygon fill="#e58139" stroke="black" points="1068,-149.5 940,-149.5 940,-96.5 1068,-96.5 1068,-149.5"/>
<text text-anchor="middle" x="1004" y="-134.3" font-family="Times,serif" font-size="14.00">samples = 1</text>
<text text-anchor="middle" x="1004" y="-119.3" font-family="Times,serif" font-size="14.00">value = [1, 0, 0, 0]</text>
<text text-anchor="middle" x="1004" y="-104.3" font-family="Times,serif" font-size="14.00">class = costumbrista</text>
</g>
<!-- 16&#45;&gt;17 -->
<g id="edge17" class="edge"><title>16&#45;&gt;17</title>
<path fill="none" stroke="black" d="M1004,-192.884C1004,-182.326 1004,-170.597 1004,-159.854"/>
<polygon fill="black" stroke="black" points="1007.5,-159.52 1004,-149.52 1000.5,-159.52 1007.5,-159.52"/>
</g>
<!-- 18 -->
<g id="node19" class="node"><title>18</title>
<polygon fill="#47e539" stroke="black" points="1206,-149.5 1086,-149.5 1086,-96.5 1206,-96.5 1206,-149.5"/>
<text text-anchor="middle" x="1146" y="-134.3" font-family="Times,serif" font-size="14.00">samples = 1</text>
<text text-anchor="middle" x="1146" y="-119.3" font-family="Times,serif" font-size="14.00">value = [0, 1, 0, 0]</text>
<text text-anchor="middle" x="1146" y="-104.3" font-family="Times,serif" font-size="14.00">class = historical</text>
</g>
<!-- 16&#45;&gt;18 -->
<g id="edge18" class="edge"><title>16&#45;&gt;18</title>
<path fill="none" stroke="black" d="M1050.1,-192.884C1066.79,-180.896 1085.58,-167.399 1102.08,-155.549"/>
<polygon fill="black" stroke="black" points="1104.39,-158.197 1110.47,-149.52 1100.31,-152.511 1104.39,-158.197"/>
</g>
<!-- 20 -->
<g id="node21" class="node"><title>20</title>
<polygon fill="#e58139" fill-opacity="0.917647" stroke="black" points="1397,-365 1239,-365 1239,-297 1397,-297 1397,-365"/>
<text text-anchor="middle" x="1318" y="-349.8" font-family="Times,serif" font-size="14.00">negative_NRC &lt;= 5.0831</text>
<text text-anchor="middle" x="1318" y="-334.8" font-family="Times,serif" font-size="14.00">samples = 13</text>
<text text-anchor="middle" x="1318" y="-319.8" font-family="Times,serif" font-size="14.00">value = [12, 0, 0, 1]</text>
<text text-anchor="middle" x="1318" y="-304.8" font-family="Times,serif" font-size="14.00">class = costumbrista</text>
</g>
<!-- 19&#45;&gt;20 -->
<g id="edge20" class="edge"><title>19&#45;&gt;20</title>
<path fill="none" stroke="black" d="M1385.53,-400.884C1376.71,-391.887 1367.06,-382.041 1357.88,-372.678"/>
<polygon fill="black" stroke="black" points="1360.15,-369.99 1350.65,-365.299 1355.15,-374.89 1360.15,-369.99"/>
</g>
<!-- 23 -->
<g id="node24" class="node"><title>23</title>
<polygon fill="#d739e5" fill-opacity="0.454902" stroke="black" points="1623,-365 1415,-365 1415,-297 1623,-297 1623,-365"/>
<text text-anchor="middle" x="1519" y="-349.8" font-family="Times,serif" font-size="14.00">narrated_neutral_NRC &lt;= 17.5616</text>
<text text-anchor="middle" x="1519" y="-334.8" font-family="Times,serif" font-size="14.00">samples = 28</text>
<text text-anchor="middle" x="1519" y="-319.8" font-family="Times,serif" font-size="14.00">value = [6, 3, 3, 16]</text>
<text text-anchor="middle" x="1519" y="-304.8" font-family="Times,serif" font-size="14.00">class = sociopolitical</text>
</g>
<!-- 19&#45;&gt;23 -->
<g id="edge23" class="edge"><title>19&#45;&gt;23</title>
<path fill="none" stroke="black" d="M1450.79,-400.884C1459.7,-391.887 1469.45,-382.041 1478.72,-372.678"/>
<polygon fill="black" stroke="black" points="1481.48,-374.868 1486.03,-365.299 1476.5,-369.943 1481.48,-374.868"/>
</g>
<!-- 21 -->
<g id="node22" class="node"><title>21</title>
<polygon fill="#d739e5" stroke="black" points="1244.5,-253.5 1113.5,-253.5 1113.5,-200.5 1244.5,-200.5 1244.5,-253.5"/>
<text text-anchor="middle" x="1179" y="-238.3" font-family="Times,serif" font-size="14.00">samples = 1</text>
<text text-anchor="middle" x="1179" y="-223.3" font-family="Times,serif" font-size="14.00">value = [0, 0, 0, 1]</text>
<text text-anchor="middle" x="1179" y="-208.3" font-family="Times,serif" font-size="14.00">class = sociopolitical</text>
</g>
<!-- 20&#45;&gt;21 -->
<g id="edge21" class="edge"><title>20&#45;&gt;21</title>
<path fill="none" stroke="black" d="M1272.87,-296.884C1256.53,-284.896 1238.14,-271.399 1221.99,-259.549"/>
<polygon fill="black" stroke="black" points="1223.91,-256.614 1213.78,-253.52 1219.77,-262.258 1223.91,-256.614"/>
</g>
<!-- 22 -->
<g id="node23" class="node"><title>22</title>
<polygon fill="#e58139" stroke="black" points="1391,-253.5 1263,-253.5 1263,-200.5 1391,-200.5 1391,-253.5"/>
<text text-anchor="middle" x="1327" y="-238.3" font-family="Times,serif" font-size="14.00">samples = 12</text>
<text text-anchor="middle" x="1327" y="-223.3" font-family="Times,serif" font-size="14.00">value = [12, 0, 0, 0]</text>
<text text-anchor="middle" x="1327" y="-208.3" font-family="Times,serif" font-size="14.00">class = costumbrista</text>
</g>
<!-- 20&#45;&gt;22 -->
<g id="edge22" class="edge"><title>20&#45;&gt;22</title>
<path fill="none" stroke="black" d="M1320.92,-296.884C1321.86,-286.216 1322.91,-274.352 1323.87,-263.519"/>
<polygon fill="black" stroke="black" points="1327.36,-263.789 1324.75,-253.52 1320.38,-263.174 1327.36,-263.789"/>
</g>
<!-- 24 -->
<g id="node25" class="node"><title>24</title>
<polygon fill="#e58139" fill-opacity="0.090196" stroke="black" points="1610.5,-261 1409.5,-261 1409.5,-193 1610.5,-193 1610.5,-261"/>
<text text-anchor="middle" x="1510" y="-245.8" font-family="Times,serif" font-size="14.00">Surprise_NRC_speech &lt;= 0.2586</text>
<text text-anchor="middle" x="1510" y="-230.8" font-family="Times,serif" font-size="14.00">samples = 15</text>
<text text-anchor="middle" x="1510" y="-215.8" font-family="Times,serif" font-size="14.00">value = [5, 3, 3, 4]</text>
<text text-anchor="middle" x="1510" y="-200.8" font-family="Times,serif" font-size="14.00">class = costumbrista</text>
</g>
<!-- 23&#45;&gt;24 -->
<g id="edge24" class="edge"><title>23&#45;&gt;24</title>
<path fill="none" stroke="black" d="M1516.08,-296.884C1515.36,-288.778 1514.59,-279.982 1513.84,-271.472"/>
<polygon fill="black" stroke="black" points="1517.3,-270.953 1512.94,-261.299 1510.33,-271.568 1517.3,-270.953"/>
</g>
<!-- 29 -->
<g id="node30" class="node"><title>29</title>
<polygon fill="#d739e5" fill-opacity="0.917647" stroke="black" points="1763.5,-261 1632.5,-261 1632.5,-193 1763.5,-193 1763.5,-261"/>
<text text-anchor="middle" x="1698" y="-245.8" font-family="Times,serif" font-size="14.00">Fear_NRC &lt;= 4.562</text>
<text text-anchor="middle" x="1698" y="-230.8" font-family="Times,serif" font-size="14.00">samples = 13</text>
<text text-anchor="middle" x="1698" y="-215.8" font-family="Times,serif" font-size="14.00">value = [1, 0, 0, 12]</text>
<text text-anchor="middle" x="1698" y="-200.8" font-family="Times,serif" font-size="14.00">class = sociopolitical</text>
</g>
<!-- 23&#45;&gt;29 -->
<g id="edge29" class="edge"><title>23&#45;&gt;29</title>
<path fill="none" stroke="black" d="M1577.12,-296.884C1594.24,-287.125 1613.12,-276.366 1630.77,-266.31"/>
<polygon fill="black" stroke="black" points="1632.91,-269.117 1639.87,-261.125 1629.45,-263.035 1632.91,-269.117"/>
</g>
<!-- 25 -->
<g id="node26" class="node"><title>25</title>
<polygon fill="#e58139" stroke="black" points="1378,-149.5 1250,-149.5 1250,-96.5 1378,-96.5 1378,-149.5"/>
<text text-anchor="middle" x="1314" y="-134.3" font-family="Times,serif" font-size="14.00">samples = 4</text>
<text text-anchor="middle" x="1314" y="-119.3" font-family="Times,serif" font-size="14.00">value = [4, 0, 0, 0]</text>
<text text-anchor="middle" x="1314" y="-104.3" font-family="Times,serif" font-size="14.00">class = costumbrista</text>
</g>
<!-- 24&#45;&gt;25 -->
<g id="edge25" class="edge"><title>24&#45;&gt;25</title>
<path fill="none" stroke="black" d="M1446.36,-192.884C1422.48,-180.456 1395.49,-166.406 1372.13,-154.252"/>
<polygon fill="black" stroke="black" points="1373.52,-151.032 1363.04,-149.52 1370.29,-157.241 1373.52,-151.032"/>
</g>
<!-- 26 -->
<g id="node27" class="node"><title>26</title>
<polygon fill="#d739e5" fill-opacity="0.125490" stroke="black" points="1614,-157 1396,-157 1396,-89 1614,-89 1614,-157"/>
<text text-anchor="middle" x="1505" y="-141.8" font-family="Times,serif" font-size="14.00">speech_emotional_NRC &lt;= 21.0347</text>
<text text-anchor="middle" x="1505" y="-126.8" font-family="Times,serif" font-size="14.00">samples = 11</text>
<text text-anchor="middle" x="1505" y="-111.8" font-family="Times,serif" font-size="14.00">value = [1, 3, 3, 4]</text>
<text text-anchor="middle" x="1505" y="-96.8" font-family="Times,serif" font-size="14.00">class = sociopolitical</text>
</g>
<!-- 24&#45;&gt;26 -->
<g id="edge26" class="edge"><title>24&#45;&gt;26</title>
<path fill="none" stroke="black" d="M1508.38,-192.884C1507.98,-184.778 1507.55,-175.982 1507.13,-167.472"/>
<polygon fill="black" stroke="black" points="1510.62,-167.116 1506.63,-157.299 1503.63,-167.459 1510.62,-167.116"/>
</g>
<!-- 27 -->
<g id="node28" class="node"><title>27</title>
<polygon fill="#d739e5" fill-opacity="0.749020" stroke="black" points="1498.5,-53 1367.5,-53 1367.5,-0 1498.5,-0 1498.5,-53"/>
<text text-anchor="middle" x="1433" y="-37.8" font-family="Times,serif" font-size="14.00">samples = 5</text>
<text text-anchor="middle" x="1433" y="-22.8" font-family="Times,serif" font-size="14.00">value = [1, 0, 0, 4]</text>
<text text-anchor="middle" x="1433" y="-7.8" font-family="Times,serif" font-size="14.00">class = sociopolitical</text>
</g>
<!-- 26&#45;&gt;27 -->
<g id="edge27" class="edge"><title>26&#45;&gt;27</title>
<path fill="none" stroke="black" d="M1479.82,-88.9485C1472.99,-79.9834 1465.58,-70.2666 1458.72,-61.2629"/>
<polygon fill="black" stroke="black" points="1461.45,-59.0699 1452.61,-53.2367 1455.89,-63.3122 1461.45,-59.0699"/>
</g>
<!-- 28 -->
<g id="node29" class="node"><title>28</title>
<polygon fill="none" stroke="black" points="1637,-53 1517,-53 1517,-0 1637,-0 1637,-53"/>
<text text-anchor="middle" x="1577" y="-37.8" font-family="Times,serif" font-size="14.00">samples = 6</text>
<text text-anchor="middle" x="1577" y="-22.8" font-family="Times,serif" font-size="14.00">value = [0, 3, 3, 0]</text>
<text text-anchor="middle" x="1577" y="-7.8" font-family="Times,serif" font-size="14.00">class = historical</text>
</g>
<!-- 26&#45;&gt;28 -->
<g id="edge28" class="edge"><title>26&#45;&gt;28</title>
<path fill="none" stroke="black" d="M1530.18,-88.9485C1537.01,-79.9834 1544.42,-70.2666 1551.28,-61.2629"/>
<polygon fill="black" stroke="black" points="1554.11,-63.3122 1557.39,-53.2367 1548.55,-59.0699 1554.11,-63.3122"/>
</g>
<!-- 30 -->
<g id="node31" class="node"><title>30</title>
<polygon fill="#d739e5" stroke="black" points="1763.5,-149.5 1632.5,-149.5 1632.5,-96.5 1763.5,-96.5 1763.5,-149.5"/>
<text text-anchor="middle" x="1698" y="-134.3" font-family="Times,serif" font-size="14.00">samples = 12</text>
<text text-anchor="middle" x="1698" y="-119.3" font-family="Times,serif" font-size="14.00">value = [0, 0, 0, 12]</text>
<text text-anchor="middle" x="1698" y="-104.3" font-family="Times,serif" font-size="14.00">class = sociopolitical</text>
</g>
<!-- 29&#45;&gt;30 -->
<g id="edge30" class="edge"><title>29&#45;&gt;30</title>
<path fill="none" stroke="black" d="M1698,-192.884C1698,-182.326 1698,-170.597 1698,-159.854"/>
<polygon fill="black" stroke="black" points="1701.5,-159.52 1698,-149.52 1694.5,-159.52 1701.5,-159.52"/>
</g>
<!-- 31 -->
<g id="node32" class="node"><title>31</title>
<polygon fill="#e58139" stroke="black" points="1910,-149.5 1782,-149.5 1782,-96.5 1910,-96.5 1910,-149.5"/>
<text text-anchor="middle" x="1846" y="-134.3" font-family="Times,serif" font-size="14.00">samples = 1</text>
<text text-anchor="middle" x="1846" y="-119.3" font-family="Times,serif" font-size="14.00">value = [1, 0, 0, 0]</text>
<text text-anchor="middle" x="1846" y="-104.3" font-family="Times,serif" font-size="14.00">class = costumbrista</text>
</g>
<!-- 29&#45;&gt;31 -->
<g id="edge31" class="edge"><title>29&#45;&gt;31</title>
<path fill="none" stroke="black" d="M1746.05,-192.884C1763.6,-180.786 1783.39,-167.151 1800.69,-155.224"/>
<polygon fill="black" stroke="black" points="1802.72,-158.077 1808.97,-149.52 1798.75,-152.313 1802.72,-158.077"/>
</g>
<!-- 33 -->
<g id="node34" class="node"><title>33</title>
<polygon fill="#47e539" fill-opacity="0.858824" stroke="black" points="1993.5,-469 1832.5,-469 1832.5,-401 1993.5,-401 1993.5,-469"/>
<text text-anchor="middle" x="1913" y="-453.8" font-family="Times,serif" font-size="14.00">negative_WN &lt;= 11.4141</text>
<text text-anchor="middle" x="1913" y="-438.8" font-family="Times,serif" font-size="14.00">samples = 30</text>
<text text-anchor="middle" x="1913" y="-423.8" font-family="Times,serif" font-size="14.00">value = [0, 26, 2, 2]</text>
<text text-anchor="middle" x="1913" y="-408.8" font-family="Times,serif" font-size="14.00">class = historical</text>
</g>
<!-- 32&#45;&gt;33 -->
<g id="edge33" class="edge"><title>32&#45;&gt;33</title>
<path fill="none" stroke="black" d="M1913,-504.884C1913,-496.778 1913,-487.982 1913,-479.472"/>
<polygon fill="black" stroke="black" points="1916.5,-479.299 1913,-469.299 1909.5,-479.299 1916.5,-479.299"/>
</g>
<!-- 40 -->
<g id="node41" class="node"><title>40</title>
<polygon fill="#399de5" fill-opacity="0.666667" stroke="black" points="2234,-469 2078,-469 2078,-401 2234,-401 2234,-469"/>
<text text-anchor="middle" x="2156" y="-453.8" font-family="Times,serif" font-size="14.00">Sadness_NRC &lt;= 7.3314</text>
<text text-anchor="middle" x="2156" y="-438.8" font-family="Times,serif" font-size="14.00">samples = 4</text>
<text text-anchor="middle" x="2156" y="-423.8" font-family="Times,serif" font-size="14.00">value = [0, 0, 3, 1]</text>
<text text-anchor="middle" x="2156" y="-408.8" font-family="Times,serif" font-size="14.00">class = sentimental</text>
</g>
<!-- 32&#45;&gt;40 -->
<g id="edge40" class="edge"><title>32&#45;&gt;40</title>
<path fill="none" stroke="black" d="M1988.55,-506.286C2013.87,-495.66 2042.3,-483.725 2068.45,-472.748"/>
<polygon fill="black" stroke="black" points="2070.11,-475.849 2077.97,-468.751 2067.4,-469.395 2070.11,-475.849"/>
</g>
<!-- 34 -->
<g id="node35" class="node"><title>34</title>
<polygon fill="#47e539" fill-opacity="0.921569" stroke="black" points="1937,-365 1757,-365 1757,-297 1937,-297 1937,-365"/>
<text text-anchor="middle" x="1847" y="-349.8" font-family="Times,serif" font-size="14.00">Anticipation_NRC &lt;= 4.0321</text>
<text text-anchor="middle" x="1847" y="-334.8" font-family="Times,serif" font-size="14.00">samples = 28</text>
<text text-anchor="middle" x="1847" y="-319.8" font-family="Times,serif" font-size="14.00">value = [0, 26, 0, 2]</text>
<text text-anchor="middle" x="1847" y="-304.8" font-family="Times,serif" font-size="14.00">class = historical</text>
</g>
<!-- 33&#45;&gt;34 -->
<g id="edge34" class="edge"><title>33&#45;&gt;34</title>
<path fill="none" stroke="black" d="M1891.57,-400.884C1885.98,-392.243 1879.88,-382.819 1874.04,-373.793"/>
<polygon fill="black" stroke="black" points="1876.92,-371.794 1868.55,-365.299 1871.04,-375.596 1876.92,-371.794"/>
</g>
<!-- 39 -->
<g id="node40" class="node"><title>39</title>
<polygon fill="#399de5" stroke="black" points="2077,-357.5 1955,-357.5 1955,-304.5 2077,-304.5 2077,-357.5"/>
<text text-anchor="middle" x="2016" y="-342.3" font-family="Times,serif" font-size="14.00">samples = 2</text>
<text text-anchor="middle" x="2016" y="-327.3" font-family="Times,serif" font-size="14.00">value = [0, 0, 2, 0]</text>
<text text-anchor="middle" x="2016" y="-312.3" font-family="Times,serif" font-size="14.00">class = sentimental</text>
</g>
<!-- 33&#45;&gt;39 -->
<g id="edge39" class="edge"><title>33&#45;&gt;39</title>
<path fill="none" stroke="black" d="M1946.44,-400.884C1958.1,-389.336 1971.18,-376.387 1982.82,-364.86"/>
<polygon fill="black" stroke="black" points="1985.59,-367.043 1990.23,-357.52 1980.66,-362.07 1985.59,-367.043"/>
</g>
<!-- 35 -->
<g id="node36" class="node"><title>35</title>
<polygon fill="#d739e5" stroke="black" points="1912.5,-253.5 1781.5,-253.5 1781.5,-200.5 1912.5,-200.5 1912.5,-253.5"/>
<text text-anchor="middle" x="1847" y="-238.3" font-family="Times,serif" font-size="14.00">samples = 1</text>
<text text-anchor="middle" x="1847" y="-223.3" font-family="Times,serif" font-size="14.00">value = [0, 0, 0, 1]</text>
<text text-anchor="middle" x="1847" y="-208.3" font-family="Times,serif" font-size="14.00">class = sociopolitical</text>
</g>
<!-- 34&#45;&gt;35 -->
<g id="edge35" class="edge"><title>34&#45;&gt;35</title>
<path fill="none" stroke="black" d="M1847,-296.884C1847,-286.326 1847,-274.597 1847,-263.854"/>
<polygon fill="black" stroke="black" points="1850.5,-263.52 1847,-253.52 1843.5,-263.52 1850.5,-263.52"/>
</g>
<!-- 36 -->
<g id="node37" class="node"><title>36</title>
<polygon fill="#47e539" fill-opacity="0.960784" stroke="black" points="2057.5,-261 1930.5,-261 1930.5,-193 2057.5,-193 2057.5,-261"/>
<text text-anchor="middle" x="1994" y="-245.8" font-family="Times,serif" font-size="14.00">Joy_NRC &lt;= 0.342</text>
<text text-anchor="middle" x="1994" y="-230.8" font-family="Times,serif" font-size="14.00">samples = 27</text>
<text text-anchor="middle" x="1994" y="-215.8" font-family="Times,serif" font-size="14.00">value = [0, 26, 0, 1]</text>
<text text-anchor="middle" x="1994" y="-200.8" font-family="Times,serif" font-size="14.00">class = historical</text>
</g>
<!-- 34&#45;&gt;36 -->
<g id="edge36" class="edge"><title>34&#45;&gt;36</title>
<path fill="none" stroke="black" d="M1894.73,-296.884C1908.53,-287.304 1923.73,-276.761 1937.99,-266.864"/>
<polygon fill="black" stroke="black" points="1940.04,-269.701 1946.26,-261.125 1936.05,-263.95 1940.04,-269.701"/>
</g>
<!-- 37 -->
<g id="node38" class="node"><title>37</title>
<polygon fill="#d739e5" stroke="black" points="2059.5,-149.5 1928.5,-149.5 1928.5,-96.5 2059.5,-96.5 2059.5,-149.5"/>
<text text-anchor="middle" x="1994" y="-134.3" font-family="Times,serif" font-size="14.00">samples = 1</text>
<text text-anchor="middle" x="1994" y="-119.3" font-family="Times,serif" font-size="14.00">value = [0, 0, 0, 1]</text>
<text text-anchor="middle" x="1994" y="-104.3" font-family="Times,serif" font-size="14.00">class = sociopolitical</text>
</g>
<!-- 36&#45;&gt;37 -->
<g id="edge37" class="edge"><title>36&#45;&gt;37</title>
<path fill="none" stroke="black" d="M1994,-192.884C1994,-182.326 1994,-170.597 1994,-159.854"/>
<polygon fill="black" stroke="black" points="1997.5,-159.52 1994,-149.52 1990.5,-159.52 1997.5,-159.52"/>
</g>
<!-- 38 -->
<g id="node39" class="node"><title>38</title>
<polygon fill="#47e539" stroke="black" points="2204.5,-149.5 2077.5,-149.5 2077.5,-96.5 2204.5,-96.5 2204.5,-149.5"/>
<text text-anchor="middle" x="2141" y="-134.3" font-family="Times,serif" font-size="14.00">samples = 26</text>
<text text-anchor="middle" x="2141" y="-119.3" font-family="Times,serif" font-size="14.00">value = [0, 26, 0, 0]</text>
<text text-anchor="middle" x="2141" y="-104.3" font-family="Times,serif" font-size="14.00">class = historical</text>
</g>
<!-- 36&#45;&gt;38 -->
<g id="edge38" class="edge"><title>36&#45;&gt;38</title>
<path fill="none" stroke="black" d="M2041.73,-192.884C2059.16,-180.786 2078.81,-167.151 2096,-155.224"/>
<polygon fill="black" stroke="black" points="2098,-158.096 2104.22,-149.52 2094.01,-152.345 2098,-158.096"/>
</g>
<!-- 41 -->
<g id="node42" class="node"><title>41</title>
<polygon fill="#399de5" stroke="black" points="2217,-357.5 2095,-357.5 2095,-304.5 2217,-304.5 2217,-357.5"/>
<text text-anchor="middle" x="2156" y="-342.3" font-family="Times,serif" font-size="14.00">samples = 3</text>
<text text-anchor="middle" x="2156" y="-327.3" font-family="Times,serif" font-size="14.00">value = [0, 0, 3, 0]</text>
<text text-anchor="middle" x="2156" y="-312.3" font-family="Times,serif" font-size="14.00">class = sentimental</text>
</g>
<!-- 40&#45;&gt;41 -->
<g id="edge41" class="edge"><title>40&#45;&gt;41</title>
<path fill="none" stroke="black" d="M2156,-400.884C2156,-390.326 2156,-378.597 2156,-367.854"/>
<polygon fill="black" stroke="black" points="2159.5,-367.52 2156,-357.52 2152.5,-367.52 2159.5,-367.52"/>
</g>
<!-- 42 -->
<g id="node43" class="node"><title>42</title>
<polygon fill="#d739e5" stroke="black" points="2366.5,-357.5 2235.5,-357.5 2235.5,-304.5 2366.5,-304.5 2366.5,-357.5"/>
<text text-anchor="middle" x="2301" y="-342.3" font-family="Times,serif" font-size="14.00">samples = 1</text>
<text text-anchor="middle" x="2301" y="-327.3" font-family="Times,serif" font-size="14.00">value = [0, 0, 0, 1]</text>
<text text-anchor="middle" x="2301" y="-312.3" font-family="Times,serif" font-size="14.00">class = sociopolitical</text>
</g>
<!-- 40&#45;&gt;42 -->
<g id="edge42" class="edge"><title>40&#45;&gt;42</title>
<path fill="none" stroke="black" d="M2203.08,-400.884C2220.12,-388.896 2239.31,-375.399 2256.15,-363.549"/>
<polygon fill="black" stroke="black" points="2258.56,-366.136 2264.72,-357.52 2254.53,-360.411 2258.56,-366.136"/>
</g>
</g>
</svg>
