<?xml version="1.0" encoding="UTF-8" standalone="no"?>
<!DOCTYPE svg PUBLIC "-//W3C//DTD SVG 1.1//EN"
 "http://www.w3.org/Graphics/SVG/1.1/DTD/svg11.dtd">
<!-- Generated by graphviz version 2.38.0 (20140413.2041)
 -->
<!-- Title: Tree Pages: 1 -->
<svg width="2168pt" height="685pt"
 viewBox="0.00 0.00 2168.00 685.00" xmlns="http://www.w3.org/2000/svg" xmlns:xlink="http://www.w3.org/1999/xlink">
<g id="graph0" class="graph" transform="scale(1 1) rotate(0) translate(4 681)">
<title>Tree</title>
<polygon fill="white" stroke="none" points="-4,4 -4,-681 2164,-681 2164,4 -4,4"/>
<!-- 0 -->
<g id="node1" class="node"><title>0</title>
<polygon fill="#39e581" fill-opacity="0.054902" stroke="black" points="1202,-677 1020,-677 1020,-609 1202,-609 1202,-677"/>
<text text-anchor="middle" x="1111" y="-661.8" font-family="Times,serif" font-size="14.00">Joy_NRC_narrated &lt;= 1.4807</text>
<text text-anchor="middle" x="1111" y="-646.8" font-family="Times,serif" font-size="14.00">samples = 112</text>
<text text-anchor="middle" x="1111" y="-631.8" font-family="Times,serif" font-size="14.00">value = [41, 45, 26]</text>
<text text-anchor="middle" x="1111" y="-616.8" font-family="Times,serif" font-size="14.00">class = 0.5</text>
</g>
<!-- 1 -->
<g id="node2" class="node"><title>1</title>
<polygon fill="#e58139" fill-opacity="0.490196" stroke="black" points="1063,-573 873,-573 873,-505 1063,-505 1063,-573"/>
<text text-anchor="middle" x="968" y="-557.8" font-family="Times,serif" font-size="14.00">Anger_NRC_speech &lt;= 1.3037</text>
<text text-anchor="middle" x="968" y="-542.8" font-family="Times,serif" font-size="14.00">samples = 58</text>
<text text-anchor="middle" x="968" y="-527.8" font-family="Times,serif" font-size="14.00">value = [35, 13, 10]</text>
<text text-anchor="middle" x="968" y="-512.8" font-family="Times,serif" font-size="14.00">class = 0.0</text>
</g>
<!-- 0&#45;&gt;1 -->
<g id="edge1" class="edge"><title>0&#45;&gt;1</title>
<path fill="none" stroke="black" d="M1064.57,-608.884C1051.33,-599.442 1036.79,-589.064 1023.09,-579.292"/>
<polygon fill="black" stroke="black" points="1024.86,-576.257 1014.68,-573.299 1020.79,-581.956 1024.86,-576.257"/>
<text text-anchor="middle" x="1018.81" y="-594.256" font-family="Times,serif" font-size="14.00">True</text>
</g>
<!-- 22 -->
<g id="node23" class="node"><title>22</title>
<polygon fill="#39e581" fill-opacity="0.419608" stroke="black" points="1365.5,-573 1144.5,-573 1144.5,-505 1365.5,-505 1365.5,-573"/>
<text text-anchor="middle" x="1255" y="-557.8" font-family="Times,serif" font-size="14.00">narrated_emotional_WN &lt;= 44.8441</text>
<text text-anchor="middle" x="1255" y="-542.8" font-family="Times,serif" font-size="14.00">samples = 54</text>
<text text-anchor="middle" x="1255" y="-527.8" font-family="Times,serif" font-size="14.00">value = [6, 32, 16]</text>
<text text-anchor="middle" x="1255" y="-512.8" font-family="Times,serif" font-size="14.00">class = 0.5</text>
</g>
<!-- 0&#45;&gt;22 -->
<g id="edge22" class="edge"><title>0&#45;&gt;22</title>
<path fill="none" stroke="black" d="M1157.75,-608.884C1171.08,-599.442 1185.73,-589.064 1199.53,-579.292"/>
<polygon fill="black" stroke="black" points="1201.85,-581.936 1207.99,-573.299 1197.81,-576.223 1201.85,-581.936"/>
<text text-anchor="middle" x="1203.78" y="-594.243" font-family="Times,serif" font-size="14.00">False</text>
</g>
<!-- 2 -->
<g id="node3" class="node"><title>2</title>
<polygon fill="#e58139" fill-opacity="0.588235" stroke="black" points="795,-469 641,-469 641,-401 795,-401 795,-469"/>
<text text-anchor="middle" x="718" y="-453.8" font-family="Times,serif" font-size="14.00">negative_WN &lt;= 7.3864</text>
<text text-anchor="middle" x="718" y="-438.8" font-family="Times,serif" font-size="14.00">samples = 51</text>
<text text-anchor="middle" x="718" y="-423.8" font-family="Times,serif" font-size="14.00">value = [35, 12, 4]</text>
<text text-anchor="middle" x="718" y="-408.8" font-family="Times,serif" font-size="14.00">class = 0.0</text>
</g>
<!-- 1&#45;&gt;2 -->
<g id="edge2" class="edge"><title>1&#45;&gt;2</title>
<path fill="none" stroke="black" d="M886.832,-504.884C860.559,-494.164 831.329,-482.238 804.672,-471.362"/>
<polygon fill="black" stroke="black" points="805.941,-468.1 795.36,-467.563 803.297,-474.581 805.941,-468.1"/>
</g>
<!-- 19 -->
<g id="node20" class="node"><title>19</title>
<polygon fill="#8139e5" fill-opacity="0.831373" stroke="black" points="1078.5,-469 857.5,-469 857.5,-401 1078.5,-401 1078.5,-469"/>
<text text-anchor="middle" x="968" y="-453.8" font-family="Times,serif" font-size="14.00">narrated_emotional_WN &lt;= 46.7773</text>
<text text-anchor="middle" x="968" y="-438.8" font-family="Times,serif" font-size="14.00">samples = 7</text>
<text text-anchor="middle" x="968" y="-423.8" font-family="Times,serif" font-size="14.00">value = [0, 1, 6]</text>
<text text-anchor="middle" x="968" y="-408.8" font-family="Times,serif" font-size="14.00">class = 1.0</text>
</g>
<!-- 1&#45;&gt;19 -->
<g id="edge19" class="edge"><title>1&#45;&gt;19</title>
<path fill="none" stroke="black" d="M968,-504.884C968,-496.778 968,-487.982 968,-479.472"/>
<polygon fill="black" stroke="black" points="971.5,-479.299 968,-469.299 964.5,-479.299 971.5,-479.299"/>
</g>
<!-- 3 -->
<g id="node4" class="node"><title>3</title>
<polygon fill="#e58139" fill-opacity="0.729412" stroke="black" points="601,-365 455,-365 455,-297 601,-297 601,-365"/>
<text text-anchor="middle" x="528" y="-349.8" font-family="Times,serif" font-size="14.00">Anger_NRC &lt;= 1.4306</text>
<text text-anchor="middle" x="528" y="-334.8" font-family="Times,serif" font-size="14.00">samples = 45</text>
<text text-anchor="middle" x="528" y="-319.8" font-family="Times,serif" font-size="14.00">value = [35, 8, 2]</text>
<text text-anchor="middle" x="528" y="-304.8" font-family="Times,serif" font-size="14.00">class = 0.0</text>
</g>
<!-- 2&#45;&gt;3 -->
<g id="edge3" class="edge"><title>2&#45;&gt;3</title>
<path fill="none" stroke="black" d="M656.312,-400.884C637.885,-390.991 617.542,-380.07 598.59,-369.895"/>
<polygon fill="black" stroke="black" points="600.169,-366.771 589.703,-365.125 596.858,-372.938 600.169,-366.771"/>
</g>
<!-- 16 -->
<g id="node17" class="node"><title>16</title>
<polygon fill="#39e581" fill-opacity="0.498039" stroke="black" points="816.5,-365 619.5,-365 619.5,-297 816.5,-297 816.5,-365"/>
<text text-anchor="middle" x="718" y="-349.8" font-family="Times,serif" font-size="14.00">narrated_neutral_WN &lt;= 6.3999</text>
<text text-anchor="middle" x="718" y="-334.8" font-family="Times,serif" font-size="14.00">samples = 6</text>
<text text-anchor="middle" x="718" y="-319.8" font-family="Times,serif" font-size="14.00">value = [0, 4, 2]</text>
<text text-anchor="middle" x="718" y="-304.8" font-family="Times,serif" font-size="14.00">class = 0.5</text>
</g>
<!-- 2&#45;&gt;16 -->
<g id="edge16" class="edge"><title>2&#45;&gt;16</title>
<path fill="none" stroke="black" d="M718,-400.884C718,-392.778 718,-383.982 718,-375.472"/>
<polygon fill="black" stroke="black" points="721.5,-375.299 718,-365.299 714.5,-375.299 721.5,-375.299"/>
</g>
<!-- 4 -->
<g id="node5" class="node"><title>4</title>
<polygon fill="none" stroke="black" points="395.5,-261 198.5,-261 198.5,-193 395.5,-193 395.5,-261"/>
<text text-anchor="middle" x="297" y="-245.8" font-family="Times,serif" font-size="14.00">Disgust_NRC_speech &lt;= 0.2589</text>
<text text-anchor="middle" x="297" y="-230.8" font-family="Times,serif" font-size="14.00">samples = 14</text>
<text text-anchor="middle" x="297" y="-215.8" font-family="Times,serif" font-size="14.00">value = [6, 6, 2]</text>
<text text-anchor="middle" x="297" y="-200.8" font-family="Times,serif" font-size="14.00">class = 0.0</text>
</g>
<!-- 3&#45;&gt;4 -->
<g id="edge4" class="edge"><title>3&#45;&gt;4</title>
<path fill="none" stroke="black" d="M454.91,-297.727C431.469,-287.376 405.321,-275.83 381.155,-265.159"/>
<polygon fill="black" stroke="black" points="382.561,-261.954 371.999,-261.116 379.733,-268.358 382.561,-261.954"/>
</g>
<!-- 11 -->
<g id="node12" class="node"><title>11</title>
<polygon fill="#e58139" fill-opacity="0.929412" stroke="black" points="644.5,-261 413.5,-261 413.5,-193 644.5,-193 644.5,-261"/>
<text text-anchor="middle" x="529" y="-245.8" font-family="Times,serif" font-size="14.00">Anticipation_NRC_narrated &lt;= 6.8204</text>
<text text-anchor="middle" x="529" y="-230.8" font-family="Times,serif" font-size="14.00">samples = 31</text>
<text text-anchor="middle" x="529" y="-215.8" font-family="Times,serif" font-size="14.00">value = [29, 2, 0]</text>
<text text-anchor="middle" x="529" y="-200.8" font-family="Times,serif" font-size="14.00">class = 0.0</text>
</g>
<!-- 3&#45;&gt;11 -->
<g id="edge11" class="edge"><title>3&#45;&gt;11</title>
<path fill="none" stroke="black" d="M528.325,-296.884C528.404,-288.778 528.49,-279.982 528.574,-271.472"/>
<polygon fill="black" stroke="black" points="532.075,-271.333 528.674,-261.299 525.076,-271.265 532.075,-271.333"/>
</g>
<!-- 5 -->
<g id="node6" class="node"><title>5</title>
<polygon fill="#e58139" fill-opacity="0.800000" stroke="black" points="224,-157 118,-157 118,-89 224,-89 224,-157"/>
<text text-anchor="middle" x="171" y="-141.8" font-family="Times,serif" font-size="14.00">section &lt;= 3.5</text>
<text text-anchor="middle" x="171" y="-126.8" font-family="Times,serif" font-size="14.00">samples = 6</text>
<text text-anchor="middle" x="171" y="-111.8" font-family="Times,serif" font-size="14.00">value = [5, 0, 1]</text>
<text text-anchor="middle" x="171" y="-96.8" font-family="Times,serif" font-size="14.00">class = 0.0</text>
</g>
<!-- 4&#45;&gt;5 -->
<g id="edge5" class="edge"><title>4&#45;&gt;5</title>
<path fill="none" stroke="black" d="M256.091,-192.884C244.648,-183.62 232.091,-173.455 220.221,-163.845"/>
<polygon fill="black" stroke="black" points="222.109,-160.871 212.135,-157.299 217.705,-166.312 222.109,-160.871"/>
</g>
<!-- 8 -->
<g id="node9" class="node"><title>8</title>
<polygon fill="#39e581" fill-opacity="0.713725" stroke="black" points="393.5,-157 242.5,-157 242.5,-89 393.5,-89 393.5,-157"/>
<text text-anchor="middle" x="318" y="-141.8" font-family="Times,serif" font-size="14.00">positive_WN &lt;= 5.5448</text>
<text text-anchor="middle" x="318" y="-126.8" font-family="Times,serif" font-size="14.00">samples = 8</text>
<text text-anchor="middle" x="318" y="-111.8" font-family="Times,serif" font-size="14.00">value = [1, 6, 1]</text>
<text text-anchor="middle" x="318" y="-96.8" font-family="Times,serif" font-size="14.00">class = 0.5</text>
</g>
<!-- 4&#45;&gt;8 -->
<g id="edge8" class="edge"><title>4&#45;&gt;8</title>
<path fill="none" stroke="black" d="M303.818,-192.884C305.505,-184.689 307.338,-175.789 309.108,-167.192"/>
<polygon fill="black" stroke="black" points="312.556,-167.8 311.144,-157.299 305.7,-166.388 312.556,-167.8"/>
</g>
<!-- 6 -->
<g id="node7" class="node"><title>6</title>
<polygon fill="#e58139" stroke="black" points="106,-53 7.10543e-15,-53 7.10543e-15,-0 106,-0 106,-53"/>
<text text-anchor="middle" x="53" y="-37.8" font-family="Times,serif" font-size="14.00">samples = 5</text>
<text text-anchor="middle" x="53" y="-22.8" font-family="Times,serif" font-size="14.00">value = [5, 0, 0]</text>
<text text-anchor="middle" x="53" y="-7.8" font-family="Times,serif" font-size="14.00">class = 0.0</text>
</g>
<!-- 5&#45;&gt;6 -->
<g id="edge6" class="edge"><title>5&#45;&gt;6</title>
<path fill="none" stroke="black" d="M129.729,-88.9485C117.85,-79.4346 104.912,-69.074 93.1044,-59.6175"/>
<polygon fill="black" stroke="black" points="95.1302,-56.7558 85.1368,-53.2367 90.7545,-62.2196 95.1302,-56.7558"/>
</g>
<!-- 7 -->
<g id="node8" class="node"><title>7</title>
<polygon fill="#8139e5" stroke="black" points="230,-53 124,-53 124,-0 230,-0 230,-53"/>
<text text-anchor="middle" x="177" y="-37.8" font-family="Times,serif" font-size="14.00">samples = 1</text>
<text text-anchor="middle" x="177" y="-22.8" font-family="Times,serif" font-size="14.00">value = [0, 0, 1]</text>
<text text-anchor="middle" x="177" y="-7.8" font-family="Times,serif" font-size="14.00">class = 1.0</text>
</g>
<!-- 5&#45;&gt;7 -->
<g id="edge7" class="edge"><title>5&#45;&gt;7</title>
<path fill="none" stroke="black" d="M173.099,-88.9485C173.621,-80.7153 174.184,-71.848 174.715,-63.4814"/>
<polygon fill="black" stroke="black" points="178.225,-63.4384 175.366,-53.2367 171.239,-62.9948 178.225,-63.4384"/>
</g>
<!-- 9 -->
<g id="node10" class="node"><title>9</title>
<polygon fill="none" stroke="black" points="365,-53 259,-53 259,-0 365,-0 365,-53"/>
<text text-anchor="middle" x="312" y="-37.8" font-family="Times,serif" font-size="14.00">samples = 2</text>
<text text-anchor="middle" x="312" y="-22.8" font-family="Times,serif" font-size="14.00">value = [1, 0, 1]</text>
<text text-anchor="middle" x="312" y="-7.8" font-family="Times,serif" font-size="14.00">class = 0.0</text>
</g>
<!-- 8&#45;&gt;9 -->
<g id="edge9" class="edge"><title>8&#45;&gt;9</title>
<path fill="none" stroke="black" d="M315.901,-88.9485C315.379,-80.7153 314.816,-71.848 314.285,-63.4814"/>
<polygon fill="black" stroke="black" points="317.761,-62.9948 313.634,-53.2367 310.775,-63.4384 317.761,-62.9948"/>
</g>
<!-- 10 -->
<g id="node11" class="node"><title>10</title>
<polygon fill="#39e581" stroke="black" points="489,-53 383,-53 383,-0 489,-0 489,-53"/>
<text text-anchor="middle" x="436" y="-37.8" font-family="Times,serif" font-size="14.00">samples = 6</text>
<text text-anchor="middle" x="436" y="-22.8" font-family="Times,serif" font-size="14.00">value = [0, 6, 0]</text>
<text text-anchor="middle" x="436" y="-7.8" font-family="Times,serif" font-size="14.00">class = 0.5</text>
</g>
<!-- 8&#45;&gt;10 -->
<g id="edge10" class="edge"><title>8&#45;&gt;10</title>
<path fill="none" stroke="black" d="M359.271,-88.9485C371.15,-79.4346 384.088,-69.074 395.896,-59.6175"/>
<polygon fill="black" stroke="black" points="398.246,-62.2196 403.863,-53.2367 393.87,-56.7558 398.246,-62.2196"/>
</g>
<!-- 12 -->
<g id="node13" class="node"><title>12</title>
<polygon fill="#e58139" stroke="black" points="565.5,-149.5 452.5,-149.5 452.5,-96.5 565.5,-96.5 565.5,-149.5"/>
<text text-anchor="middle" x="509" y="-134.3" font-family="Times,serif" font-size="14.00">samples = 28</text>
<text text-anchor="middle" x="509" y="-119.3" font-family="Times,serif" font-size="14.00">value = [28, 0, 0]</text>
<text text-anchor="middle" x="509" y="-104.3" font-family="Times,serif" font-size="14.00">class = 0.0</text>
</g>
<!-- 11&#45;&gt;12 -->
<g id="edge12" class="edge"><title>11&#45;&gt;12</title>
<path fill="none" stroke="black" d="M522.507,-192.884C520.415,-182.216 518.089,-170.352 515.964,-159.519"/>
<polygon fill="black" stroke="black" points="519.363,-158.66 514.004,-149.52 512.494,-160.007 519.363,-158.66"/>
</g>
<!-- 13 -->
<g id="node14" class="node"><title>13</title>
<polygon fill="#39e581" fill-opacity="0.498039" stroke="black" points="766,-157 584,-157 584,-89 766,-89 766,-157"/>
<text text-anchor="middle" x="675" y="-141.8" font-family="Times,serif" font-size="14.00">Joy_NRC_narrated &lt;= 0.7828</text>
<text text-anchor="middle" x="675" y="-126.8" font-family="Times,serif" font-size="14.00">samples = 3</text>
<text text-anchor="middle" x="675" y="-111.8" font-family="Times,serif" font-size="14.00">value = [1, 2, 0]</text>
<text text-anchor="middle" x="675" y="-96.8" font-family="Times,serif" font-size="14.00">class = 0.5</text>
</g>
<!-- 11&#45;&gt;13 -->
<g id="edge13" class="edge"><title>11&#45;&gt;13</title>
<path fill="none" stroke="black" d="M576.402,-192.884C589.917,-183.442 604.772,-173.064 618.759,-163.292"/>
<polygon fill="black" stroke="black" points="621.143,-165.896 627.336,-157.299 617.134,-160.157 621.143,-165.896"/>
</g>
<!-- 14 -->
<g id="node15" class="node"><title>14</title>
<polygon fill="#39e581" stroke="black" points="674,-53 568,-53 568,-0 674,-0 674,-53"/>
<text text-anchor="middle" x="621" y="-37.8" font-family="Times,serif" font-size="14.00">samples = 2</text>
<text text-anchor="middle" x="621" y="-22.8" font-family="Times,serif" font-size="14.00">value = [0, 2, 0]</text>
<text text-anchor="middle" x="621" y="-7.8" font-family="Times,serif" font-size="14.00">class = 0.5</text>
</g>
<!-- 13&#45;&gt;14 -->
<g id="edge14" class="edge"><title>13&#45;&gt;14</title>
<path fill="none" stroke="black" d="M656.113,-88.9485C651.147,-80.2579 645.778,-70.8608 640.767,-62.0917"/>
<polygon fill="black" stroke="black" points="643.707,-60.1826 635.707,-53.2367 637.629,-63.6557 643.707,-60.1826"/>
</g>
<!-- 15 -->
<g id="node16" class="node"><title>15</title>
<polygon fill="#e58139" stroke="black" points="798,-53 692,-53 692,-0 798,-0 798,-53"/>
<text text-anchor="middle" x="745" y="-37.8" font-family="Times,serif" font-size="14.00">samples = 1</text>
<text text-anchor="middle" x="745" y="-22.8" font-family="Times,serif" font-size="14.00">value = [1, 0, 0]</text>
<text text-anchor="middle" x="745" y="-7.8" font-family="Times,serif" font-size="14.00">class = 0.0</text>
</g>
<!-- 13&#45;&gt;15 -->
<g id="edge15" class="edge"><title>13&#45;&gt;15</title>
<path fill="none" stroke="black" d="M699.483,-88.9485C706.056,-80.0749 713.174,-70.4648 719.786,-61.5388"/>
<polygon fill="black" stroke="black" points="722.796,-63.3556 725.936,-53.2367 717.171,-59.189 722.796,-63.3556"/>
</g>
<!-- 17 -->
<g id="node18" class="node"><title>17</title>
<polygon fill="#8139e5" stroke="black" points="770,-253.5 664,-253.5 664,-200.5 770,-200.5 770,-253.5"/>
<text text-anchor="middle" x="717" y="-238.3" font-family="Times,serif" font-size="14.00">samples = 2</text>
<text text-anchor="middle" x="717" y="-223.3" font-family="Times,serif" font-size="14.00">value = [0, 0, 2]</text>
<text text-anchor="middle" x="717" y="-208.3" font-family="Times,serif" font-size="14.00">class = 1.0</text>
</g>
<!-- 16&#45;&gt;17 -->
<g id="edge17" class="edge"><title>16&#45;&gt;17</title>
<path fill="none" stroke="black" d="M717.675,-296.884C717.572,-286.326 717.457,-274.597 717.352,-263.854"/>
<polygon fill="black" stroke="black" points="720.848,-263.485 717.25,-253.52 713.848,-263.554 720.848,-263.485"/>
</g>
<!-- 18 -->
<g id="node19" class="node"><title>18</title>
<polygon fill="#39e581" stroke="black" points="894,-253.5 788,-253.5 788,-200.5 894,-200.5 894,-253.5"/>
<text text-anchor="middle" x="841" y="-238.3" font-family="Times,serif" font-size="14.00">samples = 4</text>
<text text-anchor="middle" x="841" y="-223.3" font-family="Times,serif" font-size="14.00">value = [0, 4, 0]</text>
<text text-anchor="middle" x="841" y="-208.3" font-family="Times,serif" font-size="14.00">class = 0.5</text>
</g>
<!-- 16&#45;&gt;18 -->
<g id="edge18" class="edge"><title>16&#45;&gt;18</title>
<path fill="none" stroke="black" d="M757.935,-296.884C772.125,-285.116 788.069,-271.894 802.167,-260.203"/>
<polygon fill="black" stroke="black" points="804.763,-262.597 810.226,-253.52 800.294,-257.209 804.763,-262.597"/>
</g>
<!-- 20 -->
<g id="node21" class="node"><title>20</title>
<polygon fill="#8139e5" stroke="black" points="941,-357.5 835,-357.5 835,-304.5 941,-304.5 941,-357.5"/>
<text text-anchor="middle" x="888" y="-342.3" font-family="Times,serif" font-size="14.00">samples = 6</text>
<text text-anchor="middle" x="888" y="-327.3" font-family="Times,serif" font-size="14.00">value = [0, 0, 6]</text>
<text text-anchor="middle" x="888" y="-312.3" font-family="Times,serif" font-size="14.00">class = 1.0</text>
</g>
<!-- 19&#45;&gt;20 -->
<g id="edge20" class="edge"><title>19&#45;&gt;20</title>
<path fill="none" stroke="black" d="M942.026,-400.884C933.142,-389.556 923.2,-376.88 914.291,-365.521"/>
<polygon fill="black" stroke="black" points="916.941,-363.228 908.016,-357.52 911.433,-367.548 916.941,-363.228"/>
</g>
<!-- 21 -->
<g id="node22" class="node"><title>21</title>
<polygon fill="#39e581" stroke="black" points="1065,-357.5 959,-357.5 959,-304.5 1065,-304.5 1065,-357.5"/>
<text text-anchor="middle" x="1012" y="-342.3" font-family="Times,serif" font-size="14.00">samples = 1</text>
<text text-anchor="middle" x="1012" y="-327.3" font-family="Times,serif" font-size="14.00">value = [0, 1, 0]</text>
<text text-anchor="middle" x="1012" y="-312.3" font-family="Times,serif" font-size="14.00">class = 0.5</text>
</g>
<!-- 19&#45;&gt;21 -->
<g id="edge21" class="edge"><title>19&#45;&gt;21</title>
<path fill="none" stroke="black" d="M982.286,-400.884C986.982,-389.996 992.216,-377.863 996.967,-366.85"/>
<polygon fill="black" stroke="black" points="1000.24,-368.088 1000.99,-357.52 993.817,-365.316 1000.24,-368.088"/>
</g>
<!-- 23 -->
<g id="node24" class="node"><title>23</title>
<polygon fill="#8139e5" fill-opacity="0.831373" stroke="black" points="1333.5,-469 1176.5,-469 1176.5,-401 1333.5,-401 1333.5,-469"/>
<text text-anchor="middle" x="1255" y="-453.8" font-family="Times,serif" font-size="14.00">neutral_NRC &lt;= 41.9104</text>
<text text-anchor="middle" x="1255" y="-438.8" font-family="Times,serif" font-size="14.00">samples = 13</text>
<text text-anchor="middle" x="1255" y="-423.8" font-family="Times,serif" font-size="14.00">value = [1, 1, 11]</text>
<text text-anchor="middle" x="1255" y="-408.8" font-family="Times,serif" font-size="14.00">class = 1.0</text>
</g>
<!-- 22&#45;&gt;23 -->
<g id="edge23" class="edge"><title>22&#45;&gt;23</title>
<path fill="none" stroke="black" d="M1255,-504.884C1255,-496.778 1255,-487.982 1255,-479.472"/>
<polygon fill="black" stroke="black" points="1258.5,-479.299 1255,-469.299 1251.5,-479.299 1258.5,-479.299"/>
</g>
<!-- 28 -->
<g id="node29" class="node"><title>28</title>
<polygon fill="#39e581" fill-opacity="0.721569" stroke="black" points="1653.5,-469 1428.5,-469 1428.5,-401 1653.5,-401 1653.5,-469"/>
<text text-anchor="middle" x="1541" y="-453.8" font-family="Times,serif" font-size="14.00">narrated_emotional_NRC &lt;= 54.8921</text>
<text text-anchor="middle" x="1541" y="-438.8" font-family="Times,serif" font-size="14.00">samples = 41</text>
<text text-anchor="middle" x="1541" y="-423.8" font-family="Times,serif" font-size="14.00">value = [5, 31, 5]</text>
<text text-anchor="middle" x="1541" y="-408.8" font-family="Times,serif" font-size="14.00">class = 0.5</text>
</g>
<!-- 22&#45;&gt;28 -->
<g id="edge28" class="edge"><title>22&#45;&gt;28</title>
<path fill="none" stroke="black" d="M1347.86,-504.884C1376.85,-494.543 1408.99,-483.079 1438.6,-472.519"/>
<polygon fill="black" stroke="black" points="1439.88,-475.781 1448.12,-469.125 1437.53,-469.187 1439.88,-475.781"/>
</g>
<!-- 24 -->
<g id="node25" class="node"><title>24</title>
<polygon fill="#8139e5" stroke="black" points="1196.5,-357.5 1083.5,-357.5 1083.5,-304.5 1196.5,-304.5 1196.5,-357.5"/>
<text text-anchor="middle" x="1140" y="-342.3" font-family="Times,serif" font-size="14.00">samples = 11</text>
<text text-anchor="middle" x="1140" y="-327.3" font-family="Times,serif" font-size="14.00">value = [0, 0, 11]</text>
<text text-anchor="middle" x="1140" y="-312.3" font-family="Times,serif" font-size="14.00">class = 1.0</text>
</g>
<!-- 23&#45;&gt;24 -->
<g id="edge24" class="edge"><title>23&#45;&gt;24</title>
<path fill="none" stroke="black" d="M1217.66,-400.884C1204.4,-389.116 1189.49,-375.894 1176.31,-364.203"/>
<polygon fill="black" stroke="black" points="1178.58,-361.537 1168.77,-357.52 1173.93,-366.774 1178.58,-361.537"/>
</g>
<!-- 25 -->
<g id="node26" class="node"><title>25</title>
<polygon fill="none" stroke="black" points="1423,-365 1215,-365 1215,-297 1423,-297 1423,-365"/>
<text text-anchor="middle" x="1319" y="-349.8" font-family="Times,serif" font-size="14.00">narrated_neutral_NRC &lt;= 10.5278</text>
<text text-anchor="middle" x="1319" y="-334.8" font-family="Times,serif" font-size="14.00">samples = 2</text>
<text text-anchor="middle" x="1319" y="-319.8" font-family="Times,serif" font-size="14.00">value = [1, 1, 0]</text>
<text text-anchor="middle" x="1319" y="-304.8" font-family="Times,serif" font-size="14.00">class = 0.0</text>
</g>
<!-- 23&#45;&gt;25 -->
<g id="edge25" class="edge"><title>23&#45;&gt;25</title>
<path fill="none" stroke="black" d="M1275.78,-400.884C1281.2,-392.243 1287.11,-382.819 1292.78,-373.793"/>
<polygon fill="black" stroke="black" points="1295.76,-375.63 1298.11,-365.299 1289.83,-371.91 1295.76,-375.63"/>
</g>
<!-- 26 -->
<g id="node27" class="node"><title>26</title>
<polygon fill="#e58139" stroke="black" points="1250,-253.5 1144,-253.5 1144,-200.5 1250,-200.5 1250,-253.5"/>
<text text-anchor="middle" x="1197" y="-238.3" font-family="Times,serif" font-size="14.00">samples = 1</text>
<text text-anchor="middle" x="1197" y="-223.3" font-family="Times,serif" font-size="14.00">value = [1, 0, 0]</text>
<text text-anchor="middle" x="1197" y="-208.3" font-family="Times,serif" font-size="14.00">class = 0.0</text>
</g>
<!-- 25&#45;&gt;26 -->
<g id="edge26" class="edge"><title>25&#45;&gt;26</title>
<path fill="none" stroke="black" d="M1279.39,-296.884C1265.31,-285.116 1249.5,-271.894 1235.52,-260.203"/>
<polygon fill="black" stroke="black" points="1237.44,-257.249 1227.52,-253.52 1232.95,-262.619 1237.44,-257.249"/>
</g>
<!-- 27 -->
<g id="node28" class="node"><title>27</title>
<polygon fill="#39e581" stroke="black" points="1374,-253.5 1268,-253.5 1268,-200.5 1374,-200.5 1374,-253.5"/>
<text text-anchor="middle" x="1321" y="-238.3" font-family="Times,serif" font-size="14.00">samples = 1</text>
<text text-anchor="middle" x="1321" y="-223.3" font-family="Times,serif" font-size="14.00">value = [0, 1, 0]</text>
<text text-anchor="middle" x="1321" y="-208.3" font-family="Times,serif" font-size="14.00">class = 0.5</text>
</g>
<!-- 25&#45;&gt;27 -->
<g id="edge27" class="edge"><title>25&#45;&gt;27</title>
<path fill="none" stroke="black" d="M1319.65,-296.884C1319.86,-286.216 1320.09,-274.352 1320.3,-263.519"/>
<polygon fill="black" stroke="black" points="1323.8,-263.587 1320.5,-253.52 1316.8,-263.449 1323.8,-263.587"/>
</g>
<!-- 29 -->
<g id="node30" class="node"><title>29</title>
<polygon fill="#39e581" fill-opacity="0.956863" stroke="black" points="1641,-365 1441,-365 1441,-297 1641,-297 1641,-365"/>
<text text-anchor="middle" x="1541" y="-349.8" font-family="Times,serif" font-size="14.00">speech_neutral_NRC &lt;= 28.5037</text>
<text text-anchor="middle" x="1541" y="-334.8" font-family="Times,serif" font-size="14.00">samples = 24</text>
<text text-anchor="middle" x="1541" y="-319.8" font-family="Times,serif" font-size="14.00">value = [1, 23, 0]</text>
<text text-anchor="middle" x="1541" y="-304.8" font-family="Times,serif" font-size="14.00">class = 0.5</text>
</g>
<!-- 28&#45;&gt;29 -->
<g id="edge29" class="edge"><title>28&#45;&gt;29</title>
<path fill="none" stroke="black" d="M1541,-400.884C1541,-392.778 1541,-383.982 1541,-375.472"/>
<polygon fill="black" stroke="black" points="1544.5,-375.299 1541,-365.299 1537.5,-375.299 1544.5,-375.299"/>
</g>
<!-- 32 -->
<g id="node33" class="node"><title>32</title>
<polygon fill="#39e581" fill-opacity="0.250980" stroke="black" points="1796.5,-365 1659.5,-365 1659.5,-297 1796.5,-297 1796.5,-365"/>
<text text-anchor="middle" x="1728" y="-349.8" font-family="Times,serif" font-size="14.00">Fear_NRC &lt;= 5.6652</text>
<text text-anchor="middle" x="1728" y="-334.8" font-family="Times,serif" font-size="14.00">samples = 17</text>
<text text-anchor="middle" x="1728" y="-319.8" font-family="Times,serif" font-size="14.00">value = [4, 8, 5]</text>
<text text-anchor="middle" x="1728" y="-304.8" font-family="Times,serif" font-size="14.00">class = 0.5</text>
</g>
<!-- 28&#45;&gt;32 -->
<g id="edge32" class="edge"><title>28&#45;&gt;32</title>
<path fill="none" stroke="black" d="M1601.71,-400.884C1619.77,-391.035 1639.69,-380.169 1658.27,-370.034"/>
<polygon fill="black" stroke="black" points="1660.17,-372.986 1667.27,-365.125 1656.82,-366.841 1660.17,-372.986"/>
</g>
<!-- 30 -->
<g id="node31" class="node"><title>30</title>
<polygon fill="#39e581" stroke="black" points="1511.5,-253.5 1398.5,-253.5 1398.5,-200.5 1511.5,-200.5 1511.5,-253.5"/>
<text text-anchor="middle" x="1455" y="-238.3" font-family="Times,serif" font-size="14.00">samples = 23</text>
<text text-anchor="middle" x="1455" y="-223.3" font-family="Times,serif" font-size="14.00">value = [0, 23, 0]</text>
<text text-anchor="middle" x="1455" y="-208.3" font-family="Times,serif" font-size="14.00">class = 0.5</text>
</g>
<!-- 29&#45;&gt;30 -->
<g id="edge30" class="edge"><title>29&#45;&gt;30</title>
<path fill="none" stroke="black" d="M1513.08,-296.884C1503.43,-285.446 1492.63,-272.634 1482.98,-261.19"/>
<polygon fill="black" stroke="black" points="1485.64,-258.909 1476.52,-253.52 1480.29,-263.421 1485.64,-258.909"/>
</g>
<!-- 31 -->
<g id="node32" class="node"><title>31</title>
<polygon fill="#e58139" stroke="black" points="1636,-253.5 1530,-253.5 1530,-200.5 1636,-200.5 1636,-253.5"/>
<text text-anchor="middle" x="1583" y="-238.3" font-family="Times,serif" font-size="14.00">samples = 1</text>
<text text-anchor="middle" x="1583" y="-223.3" font-family="Times,serif" font-size="14.00">value = [1, 0, 0]</text>
<text text-anchor="middle" x="1583" y="-208.3" font-family="Times,serif" font-size="14.00">class = 0.0</text>
</g>
<!-- 29&#45;&gt;31 -->
<g id="edge31" class="edge"><title>29&#45;&gt;31</title>
<path fill="none" stroke="black" d="M1554.64,-296.884C1559.12,-285.996 1564.12,-273.863 1568.65,-262.85"/>
<polygon fill="black" stroke="black" points="1571.92,-264.099 1572.49,-253.52 1565.45,-261.434 1571.92,-264.099"/>
</g>
<!-- 33 -->
<g id="node34" class="node"><title>33</title>
<polygon fill="#39e581" fill-opacity="0.858824" stroke="black" points="1794.5,-261 1657.5,-261 1657.5,-193 1794.5,-193 1794.5,-261"/>
<text text-anchor="middle" x="1726" y="-245.8" font-family="Times,serif" font-size="14.00">Fear_NRC &lt;= 1.3477</text>
<text text-anchor="middle" x="1726" y="-230.8" font-family="Times,serif" font-size="14.00">samples = 8</text>
<text text-anchor="middle" x="1726" y="-215.8" font-family="Times,serif" font-size="14.00">value = [0, 7, 1]</text>
<text text-anchor="middle" x="1726" y="-200.8" font-family="Times,serif" font-size="14.00">class = 0.5</text>
</g>
<!-- 32&#45;&gt;33 -->
<g id="edge33" class="edge"><title>32&#45;&gt;33</title>
<path fill="none" stroke="black" d="M1727.35,-296.884C1727.19,-288.778 1727.02,-279.982 1726.85,-271.472"/>
<polygon fill="black" stroke="black" points="1730.35,-271.229 1726.65,-261.299 1723.35,-271.366 1730.35,-271.229"/>
</g>
<!-- 36 -->
<g id="node37" class="node"><title>36</title>
<polygon fill="none" stroke="black" points="1959.5,-261 1812.5,-261 1812.5,-193 1959.5,-193 1959.5,-261"/>
<text text-anchor="middle" x="1886" y="-245.8" font-family="Times,serif" font-size="14.00">negative_WN &lt;= 3.809</text>
<text text-anchor="middle" x="1886" y="-230.8" font-family="Times,serif" font-size="14.00">samples = 9</text>
<text text-anchor="middle" x="1886" y="-215.8" font-family="Times,serif" font-size="14.00">value = [4, 1, 4]</text>
<text text-anchor="middle" x="1886" y="-200.8" font-family="Times,serif" font-size="14.00">class = 0.0</text>
</g>
<!-- 32&#45;&gt;36 -->
<g id="edge36" class="edge"><title>32&#45;&gt;36</title>
<path fill="none" stroke="black" d="M1779.3,-296.884C1794.28,-287.214 1810.77,-276.563 1826.23,-266.587"/>
<polygon fill="black" stroke="black" points="1828.19,-269.489 1834.69,-261.125 1824.39,-263.608 1828.19,-269.489"/>
</g>
<!-- 34 -->
<g id="node35" class="node"><title>34</title>
<polygon fill="#8139e5" stroke="black" points="1664,-149.5 1558,-149.5 1558,-96.5 1664,-96.5 1664,-149.5"/>
<text text-anchor="middle" x="1611" y="-134.3" font-family="Times,serif" font-size="14.00">samples = 1</text>
<text text-anchor="middle" x="1611" y="-119.3" font-family="Times,serif" font-size="14.00">value = [0, 0, 1]</text>
<text text-anchor="middle" x="1611" y="-104.3" font-family="Times,serif" font-size="14.00">class = 1.0</text>
</g>
<!-- 33&#45;&gt;34 -->
<g id="edge34" class="edge"><title>33&#45;&gt;34</title>
<path fill="none" stroke="black" d="M1688.66,-192.884C1675.4,-181.116 1660.49,-167.894 1647.31,-156.203"/>
<polygon fill="black" stroke="black" points="1649.58,-153.537 1639.77,-149.52 1644.93,-158.774 1649.58,-153.537"/>
</g>
<!-- 35 -->
<g id="node36" class="node"><title>35</title>
<polygon fill="#39e581" stroke="black" points="1788,-149.5 1682,-149.5 1682,-96.5 1788,-96.5 1788,-149.5"/>
<text text-anchor="middle" x="1735" y="-134.3" font-family="Times,serif" font-size="14.00">samples = 7</text>
<text text-anchor="middle" x="1735" y="-119.3" font-family="Times,serif" font-size="14.00">value = [0, 7, 0]</text>
<text text-anchor="middle" x="1735" y="-104.3" font-family="Times,serif" font-size="14.00">class = 0.5</text>
</g>
<!-- 33&#45;&gt;35 -->
<g id="edge35" class="edge"><title>33&#45;&gt;35</title>
<path fill="none" stroke="black" d="M1728.92,-192.884C1729.86,-182.216 1730.91,-170.352 1731.87,-159.519"/>
<polygon fill="black" stroke="black" points="1735.36,-159.789 1732.75,-149.52 1728.38,-159.174 1735.36,-159.789"/>
</g>
<!-- 37 -->
<g id="node38" class="node"><title>37</title>
<polygon fill="#e58139" stroke="black" points="1930,-149.5 1824,-149.5 1824,-96.5 1930,-96.5 1930,-149.5"/>
<text text-anchor="middle" x="1877" y="-134.3" font-family="Times,serif" font-size="14.00">samples = 3</text>
<text text-anchor="middle" x="1877" y="-119.3" font-family="Times,serif" font-size="14.00">value = [3, 0, 0]</text>
<text text-anchor="middle" x="1877" y="-104.3" font-family="Times,serif" font-size="14.00">class = 0.0</text>
</g>
<!-- 36&#45;&gt;37 -->
<g id="edge37" class="edge"><title>36&#45;&gt;37</title>
<path fill="none" stroke="black" d="M1883.08,-192.884C1882.14,-182.216 1881.09,-170.352 1880.13,-159.519"/>
<polygon fill="black" stroke="black" points="1883.62,-159.174 1879.25,-149.52 1876.64,-159.789 1883.62,-159.174"/>
</g>
<!-- 38 -->
<g id="node39" class="node"><title>38</title>
<polygon fill="#8139e5" fill-opacity="0.600000" stroke="black" points="2142,-157 1948,-157 1948,-89 2142,-89 2142,-157"/>
<text text-anchor="middle" x="2045" y="-141.8" font-family="Times,serif" font-size="14.00">speech_neutral_NRC &lt;= 8.3001</text>
<text text-anchor="middle" x="2045" y="-126.8" font-family="Times,serif" font-size="14.00">samples = 6</text>
<text text-anchor="middle" x="2045" y="-111.8" font-family="Times,serif" font-size="14.00">value = [1, 1, 4]</text>
<text text-anchor="middle" x="2045" y="-96.8" font-family="Times,serif" font-size="14.00">class = 1.0</text>
</g>
<!-- 36&#45;&gt;38 -->
<g id="edge38" class="edge"><title>36&#45;&gt;38</title>
<path fill="none" stroke="black" d="M1937.62,-192.884C1952.7,-183.214 1969.3,-172.563 1984.85,-162.587"/>
<polygon fill="black" stroke="black" points="1986.84,-165.47 1993.36,-157.125 1983.06,-159.578 1986.84,-165.47"/>
</g>
<!-- 39 -->
<g id="node40" class="node"><title>39</title>
<polygon fill="none" stroke="black" points="2036,-53 1930,-53 1930,-0 2036,-0 2036,-53"/>
<text text-anchor="middle" x="1983" y="-37.8" font-family="Times,serif" font-size="14.00">samples = 2</text>
<text text-anchor="middle" x="1983" y="-22.8" font-family="Times,serif" font-size="14.00">value = [1, 1, 0]</text>
<text text-anchor="middle" x="1983" y="-7.8" font-family="Times,serif" font-size="14.00">class = 0.0</text>
</g>
<!-- 38&#45;&gt;39 -->
<g id="edge39" class="edge"><title>38&#45;&gt;39</title>
<path fill="none" stroke="black" d="M2023.32,-88.9485C2017.55,-80.1664 2011.32,-70.6629 2005.51,-61.815"/>
<polygon fill="black" stroke="black" points="2008.3,-59.6779 1999.89,-53.2367 2002.44,-63.5178 2008.3,-59.6779"/>
</g>
<!-- 40 -->
<g id="node41" class="node"><title>40</title>
<polygon fill="#8139e5" stroke="black" points="2160,-53 2054,-53 2054,-0 2160,-0 2160,-53"/>
<text text-anchor="middle" x="2107" y="-37.8" font-family="Times,serif" font-size="14.00">samples = 4</text>
<text text-anchor="middle" x="2107" y="-22.8" font-family="Times,serif" font-size="14.00">value = [0, 0, 4]</text>
<text text-anchor="middle" x="2107" y="-7.8" font-family="Times,serif" font-size="14.00">class = 1.0</text>
</g>
<!-- 38&#45;&gt;40 -->
<g id="edge40" class="edge"><title>38&#45;&gt;40</title>
<path fill="none" stroke="black" d="M2066.68,-88.9485C2072.45,-80.1664 2078.68,-70.6629 2084.49,-61.815"/>
<polygon fill="black" stroke="black" points="2087.56,-63.5178 2090.11,-53.2367 2081.7,-59.6779 2087.56,-63.5178"/>
</g>
</g>
</svg>
