<?xml version="1.0" encoding="UTF-8" standalone="no"?>
<!DOCTYPE svg PUBLIC "-//W3C//DTD SVG 1.1//EN"
 "http://www.w3.org/Graphics/SVG/1.1/DTD/svg11.dtd">
<!-- Generated by graphviz version 2.38.0 (20140413.2041)
 -->
<!-- Title: Tree Pages: 1 -->
<svg width="1356pt" height="477pt"
 viewBox="0.00 0.00 1356.00 477.00" xmlns="http://www.w3.org/2000/svg" xmlns:xlink="http://www.w3.org/1999/xlink">
<g id="graph0" class="graph" transform="scale(1 1) rotate(0) translate(4 473)">
<title>Tree</title>
<polygon fill="white" stroke="none" points="-4,4 -4,-473 1352,-473 1352,4 -4,4"/>
<!-- 0 -->
<g id="node1" class="node"><title>0</title>
<polygon fill="#39e581" fill-opacity="0.054902" stroke="black" points="609.5,-469 412.5,-469 412.5,-401 609.5,-401 609.5,-469"/>
<text text-anchor="middle" x="511" y="-453.8" font-family="Times,serif" font-size="14.00">speech_emotional_NRC &lt;= 28.5</text>
<text text-anchor="middle" x="511" y="-438.8" font-family="Times,serif" font-size="14.00">samples = 112</text>
<text text-anchor="middle" x="511" y="-423.8" font-family="Times,serif" font-size="14.00">value = [41, 45, 26]</text>
<text text-anchor="middle" x="511" y="-408.8" font-family="Times,serif" font-size="14.00">class = 0.5</text>
</g>
<!-- 1 -->
<g id="node2" class="node"><title>1</title>
<polygon fill="#39e581" fill-opacity="0.141176" stroke="black" points="459,-365 285,-365 285,-297 459,-297 459,-365"/>
<text text-anchor="middle" x="372" y="-349.8" font-family="Times,serif" font-size="14.00">emotional_NRC &lt;= 55.2186</text>
<text text-anchor="middle" x="372" y="-334.8" font-family="Times,serif" font-size="14.00">samples = 75</text>
<text text-anchor="middle" x="372" y="-319.8" font-family="Times,serif" font-size="14.00">value = [32, 38, 5]</text>
<text text-anchor="middle" x="372" y="-304.8" font-family="Times,serif" font-size="14.00">class = 0.5</text>
</g>
<!-- 0&#45;&gt;1 -->
<g id="edge1" class="edge"><title>0&#45;&gt;1</title>
<path fill="none" stroke="black" d="M465.871,-400.884C453.004,-391.442 438.861,-381.064 425.544,-371.292"/>
<polygon fill="black" stroke="black" points="427.511,-368.394 417.379,-365.299 423.37,-374.037 427.511,-368.394"/>
<text text-anchor="middle" x="421.172" y="-386.31" font-family="Times,serif" font-size="14.00">True</text>
</g>
<!-- 10 -->
<g id="node11" class="node"><title>10</title>
<polygon fill="#8139e5" fill-opacity="0.427451" stroke="black" points="729,-365 571,-365 571,-297 729,-297 729,-365"/>
<text text-anchor="middle" x="650" y="-349.8" font-family="Times,serif" font-size="14.00">negative_NRC &lt;= 7.6097</text>
<text text-anchor="middle" x="650" y="-334.8" font-family="Times,serif" font-size="14.00">samples = 37</text>
<text text-anchor="middle" x="650" y="-319.8" font-family="Times,serif" font-size="14.00">value = [9, 7, 21]</text>
<text text-anchor="middle" x="650" y="-304.8" font-family="Times,serif" font-size="14.00">class = 1.0</text>
</g>
<!-- 0&#45;&gt;10 -->
<g id="edge10" class="edge"><title>0&#45;&gt;10</title>
<path fill="none" stroke="black" d="M556.129,-400.884C568.996,-391.442 583.139,-381.064 596.456,-371.292"/>
<polygon fill="black" stroke="black" points="598.63,-374.037 604.621,-365.299 594.489,-368.394 598.63,-374.037"/>
<text text-anchor="middle" x="600.828" y="-386.31" font-family="Times,serif" font-size="14.00">False</text>
</g>
<!-- 2 -->
<g id="node3" class="node"><title>2</title>
<polygon fill="#e58139" stroke="black" points="275,-253.5 169,-253.5 169,-200.5 275,-200.5 275,-253.5"/>
<text text-anchor="middle" x="222" y="-238.3" font-family="Times,serif" font-size="14.00">samples = 8</text>
<text text-anchor="middle" x="222" y="-223.3" font-family="Times,serif" font-size="14.00">value = [8, 0, 0]</text>
<text text-anchor="middle" x="222" y="-208.3" font-family="Times,serif" font-size="14.00">class = 0.0</text>
</g>
<!-- 1&#45;&gt;2 -->
<g id="edge2" class="edge"><title>1&#45;&gt;2</title>
<path fill="none" stroke="black" d="M323.299,-296.884C305.509,-284.786 285.457,-271.151 267.917,-259.224"/>
<polygon fill="black" stroke="black" points="269.767,-256.249 259.529,-253.52 265.83,-262.037 269.767,-256.249"/>
</g>
<!-- 3 -->
<g id="node4" class="node"><title>3</title>
<polygon fill="#39e581" fill-opacity="0.325490" stroke="black" points="450.5,-261 293.5,-261 293.5,-193 450.5,-193 450.5,-261"/>
<text text-anchor="middle" x="372" y="-245.8" font-family="Times,serif" font-size="14.00">neutral_NRC &lt;= 20.3495</text>
<text text-anchor="middle" x="372" y="-230.8" font-family="Times,serif" font-size="14.00">samples = 67</text>
<text text-anchor="middle" x="372" y="-215.8" font-family="Times,serif" font-size="14.00">value = [24, 38, 5]</text>
<text text-anchor="middle" x="372" y="-200.8" font-family="Times,serif" font-size="14.00">class = 0.5</text>
</g>
<!-- 1&#45;&gt;3 -->
<g id="edge3" class="edge"><title>1&#45;&gt;3</title>
<path fill="none" stroke="black" d="M372,-296.884C372,-288.778 372,-279.982 372,-271.472"/>
<polygon fill="black" stroke="black" points="375.5,-271.299 372,-261.299 368.5,-271.299 375.5,-271.299"/>
</g>
<!-- 4 -->
<g id="node5" class="node"><title>4</title>
<polygon fill="#e58139" fill-opacity="0.572549" stroke="black" points="244.5,-157 79.5,-157 79.5,-89 244.5,-89 244.5,-157"/>
<text text-anchor="middle" x="162" y="-141.8" font-family="Times,serif" font-size="14.00">negative_NRC &lt;= 16.8463</text>
<text text-anchor="middle" x="162" y="-126.8" font-family="Times,serif" font-size="14.00">samples = 17</text>
<text text-anchor="middle" x="162" y="-111.8" font-family="Times,serif" font-size="14.00">value = [11, 3, 3]</text>
<text text-anchor="middle" x="162" y="-96.8" font-family="Times,serif" font-size="14.00">class = 0.0</text>
</g>
<!-- 3&#45;&gt;4 -->
<g id="edge4" class="edge"><title>3&#45;&gt;4</title>
<path fill="none" stroke="black" d="M303.819,-192.884C283.267,-182.901 260.56,-171.872 239.452,-161.619"/>
<polygon fill="black" stroke="black" points="240.722,-158.346 230.198,-157.125 237.664,-164.642 240.722,-158.346"/>
</g>
<!-- 7 -->
<g id="node8" class="node"><title>7</title>
<polygon fill="#39e581" fill-opacity="0.596078" stroke="black" points="481,-157 263,-157 263,-89 481,-89 481,-157"/>
<text text-anchor="middle" x="372" y="-141.8" font-family="Times,serif" font-size="14.00">speech_emotional_NRC &lt;= 18.6289</text>
<text text-anchor="middle" x="372" y="-126.8" font-family="Times,serif" font-size="14.00">samples = 50</text>
<text text-anchor="middle" x="372" y="-111.8" font-family="Times,serif" font-size="14.00">value = [13, 35, 2]</text>
<text text-anchor="middle" x="372" y="-96.8" font-family="Times,serif" font-size="14.00">class = 0.5</text>
</g>
<!-- 3&#45;&gt;7 -->
<g id="edge7" class="edge"><title>3&#45;&gt;7</title>
<path fill="none" stroke="black" d="M372,-192.884C372,-184.778 372,-175.982 372,-167.472"/>
<polygon fill="black" stroke="black" points="375.5,-167.299 372,-157.299 368.5,-167.299 375.5,-167.299"/>
</g>
<!-- 5 -->
<g id="node6" class="node"><title>5</title>
<polygon fill="#8139e5" fill-opacity="0.666667" stroke="black" points="106,-53 7.10543e-15,-53 7.10543e-15,-0 106,-0 106,-53"/>
<text text-anchor="middle" x="53" y="-37.8" font-family="Times,serif" font-size="14.00">samples = 4</text>
<text text-anchor="middle" x="53" y="-22.8" font-family="Times,serif" font-size="14.00">value = [0, 1, 3]</text>
<text text-anchor="middle" x="53" y="-7.8" font-family="Times,serif" font-size="14.00">class = 1.0</text>
</g>
<!-- 4&#45;&gt;5 -->
<g id="edge5" class="edge"><title>4&#45;&gt;5</title>
<path fill="none" stroke="black" d="M123.877,-88.9485C113.009,-79.526 101.183,-69.2731 90.3605,-59.8906"/>
<polygon fill="black" stroke="black" points="92.5342,-57.1428 82.6857,-53.2367 87.9488,-62.4319 92.5342,-57.1428"/>
</g>
<!-- 6 -->
<g id="node7" class="node"><title>6</title>
<polygon fill="#e58139" fill-opacity="0.819608" stroke="black" points="237.5,-53 124.5,-53 124.5,-0 237.5,-0 237.5,-53"/>
<text text-anchor="middle" x="181" y="-37.8" font-family="Times,serif" font-size="14.00">samples = 13</text>
<text text-anchor="middle" x="181" y="-22.8" font-family="Times,serif" font-size="14.00">value = [11, 2, 0]</text>
<text text-anchor="middle" x="181" y="-7.8" font-family="Times,serif" font-size="14.00">class = 0.0</text>
</g>
<!-- 4&#45;&gt;6 -->
<g id="edge6" class="edge"><title>4&#45;&gt;6</title>
<path fill="none" stroke="black" d="M168.645,-88.9485C170.319,-80.6238 172.123,-71.6509 173.822,-63.2027"/>
<polygon fill="black" stroke="black" points="177.286,-63.7304 175.825,-53.2367 170.423,-62.3506 177.286,-63.7304"/>
</g>
<!-- 8 -->
<g id="node9" class="node"><title>8</title>
<polygon fill="#39e581" fill-opacity="0.078431" stroke="black" points="412.5,-53 293.5,-53 293.5,-0 412.5,-0 412.5,-53"/>
<text text-anchor="middle" x="353" y="-37.8" font-family="Times,serif" font-size="14.00">samples = 24</text>
<text text-anchor="middle" x="353" y="-22.8" font-family="Times,serif" font-size="14.00">value = [11, 12, 1]</text>
<text text-anchor="middle" x="353" y="-7.8" font-family="Times,serif" font-size="14.00">class = 0.5</text>
</g>
<!-- 7&#45;&gt;8 -->
<g id="edge8" class="edge"><title>7&#45;&gt;8</title>
<path fill="none" stroke="black" d="M365.355,-88.9485C363.681,-80.6238 361.877,-71.6509 360.178,-63.2027"/>
<polygon fill="black" stroke="black" points="363.577,-62.3506 358.175,-53.2367 356.714,-63.7304 363.577,-62.3506"/>
</g>
<!-- 9 -->
<g id="node10" class="node"><title>9</title>
<polygon fill="#39e581" fill-opacity="0.874510" stroke="black" points="543.5,-53 430.5,-53 430.5,-0 543.5,-0 543.5,-53"/>
<text text-anchor="middle" x="487" y="-37.8" font-family="Times,serif" font-size="14.00">samples = 26</text>
<text text-anchor="middle" x="487" y="-22.8" font-family="Times,serif" font-size="14.00">value = [2, 23, 1]</text>
<text text-anchor="middle" x="487" y="-7.8" font-family="Times,serif" font-size="14.00">class = 0.5</text>
</g>
<!-- 7&#45;&gt;9 -->
<g id="edge9" class="edge"><title>7&#45;&gt;9</title>
<path fill="none" stroke="black" d="M412.221,-88.9485C423.799,-79.4346 436.407,-69.074 447.915,-59.6175"/>
<polygon fill="black" stroke="black" points="450.176,-62.2897 455.68,-53.2367 445.732,-56.8814 450.176,-62.2897"/>
</g>
<!-- 11 -->
<g id="node12" class="node"><title>11</title>
<polygon fill="#e58139" fill-opacity="0.427451" stroke="black" points="762.5,-261 537.5,-261 537.5,-193 762.5,-193 762.5,-261"/>
<text text-anchor="middle" x="650" y="-245.8" font-family="Times,serif" font-size="14.00">narrated_emotional_NRC &lt;= 16.1811</text>
<text text-anchor="middle" x="650" y="-230.8" font-family="Times,serif" font-size="14.00">samples = 10</text>
<text text-anchor="middle" x="650" y="-215.8" font-family="Times,serif" font-size="14.00">value = [6, 3, 1]</text>
<text text-anchor="middle" x="650" y="-200.8" font-family="Times,serif" font-size="14.00">class = 0.0</text>
</g>
<!-- 10&#45;&gt;11 -->
<g id="edge11" class="edge"><title>10&#45;&gt;11</title>
<path fill="none" stroke="black" d="M650,-296.884C650,-288.778 650,-279.982 650,-271.472"/>
<polygon fill="black" stroke="black" points="653.5,-271.299 650,-261.299 646.5,-271.299 653.5,-271.299"/>
</g>
<!-- 16 -->
<g id="node17" class="node"><title>16</title>
<polygon fill="#8139e5" fill-opacity="0.694118" stroke="black" points="1075.5,-261 850.5,-261 850.5,-193 1075.5,-193 1075.5,-261"/>
<text text-anchor="middle" x="963" y="-245.8" font-family="Times,serif" font-size="14.00">narrated_emotional_NRC &lt;= 41.7346</text>
<text text-anchor="middle" x="963" y="-230.8" font-family="Times,serif" font-size="14.00">samples = 27</text>
<text text-anchor="middle" x="963" y="-215.8" font-family="Times,serif" font-size="14.00">value = [3, 4, 20]</text>
<text text-anchor="middle" x="963" y="-200.8" font-family="Times,serif" font-size="14.00">class = 1.0</text>
</g>
<!-- 10&#45;&gt;16 -->
<g id="edge16" class="edge"><title>10&#45;&gt;16</title>
<path fill="none" stroke="black" d="M729.388,-304.129C766.527,-292.026 811.39,-277.407 851.833,-264.227"/>
<polygon fill="black" stroke="black" points="853.044,-267.513 861.468,-261.087 850.875,-260.858 853.044,-267.513"/>
</g>
<!-- 12 -->
<g id="node13" class="node"><title>12</title>
<polygon fill="#e58139" stroke="black" points="605,-149.5 499,-149.5 499,-96.5 605,-96.5 605,-149.5"/>
<text text-anchor="middle" x="552" y="-134.3" font-family="Times,serif" font-size="14.00">samples = 4</text>
<text text-anchor="middle" x="552" y="-119.3" font-family="Times,serif" font-size="14.00">value = [4, 0, 0]</text>
<text text-anchor="middle" x="552" y="-104.3" font-family="Times,serif" font-size="14.00">class = 0.0</text>
</g>
<!-- 11&#45;&gt;12 -->
<g id="edge12" class="edge"><title>11&#45;&gt;12</title>
<path fill="none" stroke="black" d="M618.182,-192.884C607.087,-181.336 594.647,-168.387 583.572,-156.86"/>
<polygon fill="black" stroke="black" points="585.971,-154.306 576.519,-149.52 580.924,-159.156 585.971,-154.306"/>
</g>
<!-- 13 -->
<g id="node14" class="node"><title>13</title>
<polygon fill="#39e581" fill-opacity="0.250980" stroke="black" points="841,-157 623,-157 623,-89 841,-89 841,-157"/>
<text text-anchor="middle" x="732" y="-141.8" font-family="Times,serif" font-size="14.00">speech_emotional_NRC &lt;= 34.6406</text>
<text text-anchor="middle" x="732" y="-126.8" font-family="Times,serif" font-size="14.00">samples = 6</text>
<text text-anchor="middle" x="732" y="-111.8" font-family="Times,serif" font-size="14.00">value = [2, 3, 1]</text>
<text text-anchor="middle" x="732" y="-96.8" font-family="Times,serif" font-size="14.00">class = 0.5</text>
</g>
<!-- 11&#45;&gt;13 -->
<g id="edge13" class="edge"><title>11&#45;&gt;13</title>
<path fill="none" stroke="black" d="M676.623,-192.884C683.712,-184.065 691.458,-174.43 698.85,-165.235"/>
<polygon fill="black" stroke="black" points="701.692,-167.286 705.23,-157.299 696.236,-162.9 701.692,-167.286"/>
</g>
<!-- 14 -->
<g id="node15" class="node"><title>14</title>
<polygon fill="#e58139" fill-opacity="0.498039" stroke="black" points="684,-53 578,-53 578,-0 684,-0 684,-53"/>
<text text-anchor="middle" x="631" y="-37.8" font-family="Times,serif" font-size="14.00">samples = 3</text>
<text text-anchor="middle" x="631" y="-22.8" font-family="Times,serif" font-size="14.00">value = [2, 0, 1]</text>
<text text-anchor="middle" x="631" y="-7.8" font-family="Times,serif" font-size="14.00">class = 0.0</text>
</g>
<!-- 13&#45;&gt;14 -->
<g id="edge14" class="edge"><title>13&#45;&gt;14</title>
<path fill="none" stroke="black" d="M696.675,-88.9485C686.702,-79.6175 675.859,-69.4722 665.911,-60.1641"/>
<polygon fill="black" stroke="black" points="668.2,-57.5132 658.507,-53.2367 663.418,-62.6247 668.2,-57.5132"/>
</g>
<!-- 15 -->
<g id="node16" class="node"><title>15</title>
<polygon fill="#39e581" stroke="black" points="808,-53 702,-53 702,-0 808,-0 808,-53"/>
<text text-anchor="middle" x="755" y="-37.8" font-family="Times,serif" font-size="14.00">samples = 3</text>
<text text-anchor="middle" x="755" y="-22.8" font-family="Times,serif" font-size="14.00">value = [0, 3, 0]</text>
<text text-anchor="middle" x="755" y="-7.8" font-family="Times,serif" font-size="14.00">class = 0.5</text>
</g>
<!-- 13&#45;&gt;15 -->
<g id="edge15" class="edge"><title>13&#45;&gt;15</title>
<path fill="none" stroke="black" d="M740.044,-88.9485C742.07,-80.6238 744.254,-71.6509 746.31,-63.2027"/>
<polygon fill="black" stroke="black" points="749.772,-63.7808 748.736,-53.2367 742.97,-62.1253 749.772,-63.7808"/>
</g>
<!-- 17 -->
<g id="node18" class="node"><title>17</title>
<polygon fill="#8139e5" fill-opacity="0.858824" stroke="black" points="1067,-157 859,-157 859,-89 1067,-89 1067,-157"/>
<text text-anchor="middle" x="963" y="-141.8" font-family="Times,serif" font-size="14.00">narrated_neutral_NRC &lt;= 18.5185</text>
<text text-anchor="middle" x="963" y="-126.8" font-family="Times,serif" font-size="14.00">samples = 23</text>
<text text-anchor="middle" x="963" y="-111.8" font-family="Times,serif" font-size="14.00">value = [2, 1, 20]</text>
<text text-anchor="middle" x="963" y="-96.8" font-family="Times,serif" font-size="14.00">class = 1.0</text>
</g>
<!-- 16&#45;&gt;17 -->
<g id="edge17" class="edge"><title>16&#45;&gt;17</title>
<path fill="none" stroke="black" d="M963,-192.884C963,-184.778 963,-175.982 963,-167.472"/>
<polygon fill="black" stroke="black" points="966.5,-167.299 963,-157.299 959.5,-167.299 966.5,-167.299"/>
</g>
<!-- 20 -->
<g id="node21" class="node"><title>20</title>
<polygon fill="#39e581" fill-opacity="0.666667" stroke="black" points="1286.5,-157 1085.5,-157 1085.5,-89 1286.5,-89 1286.5,-157"/>
<text text-anchor="middle" x="1186" y="-141.8" font-family="Times,serif" font-size="14.00">narrated_neutral_NRC &lt;= 9.7375</text>
<text text-anchor="middle" x="1186" y="-126.8" font-family="Times,serif" font-size="14.00">samples = 4</text>
<text text-anchor="middle" x="1186" y="-111.8" font-family="Times,serif" font-size="14.00">value = [1, 3, 0]</text>
<text text-anchor="middle" x="1186" y="-96.8" font-family="Times,serif" font-size="14.00">class = 0.5</text>
</g>
<!-- 16&#45;&gt;20 -->
<g id="edge20" class="edge"><title>16&#45;&gt;20</title>
<path fill="none" stroke="black" d="M1035.4,-192.884C1057.42,-182.812 1081.77,-171.674 1104.36,-161.344"/>
<polygon fill="black" stroke="black" points="1105.94,-164.467 1113.58,-157.125 1103.03,-158.101 1105.94,-164.467"/>
</g>
<!-- 18 -->
<g id="node19" class="node"><title>18</title>
<polygon fill="#8139e5" fill-opacity="0.905882" stroke="black" points="963.5,-53 850.5,-53 850.5,-0 963.5,-0 963.5,-53"/>
<text text-anchor="middle" x="907" y="-37.8" font-family="Times,serif" font-size="14.00">samples = 22</text>
<text text-anchor="middle" x="907" y="-22.8" font-family="Times,serif" font-size="14.00">value = [1, 1, 20]</text>
<text text-anchor="middle" x="907" y="-7.8" font-family="Times,serif" font-size="14.00">class = 1.0</text>
</g>
<!-- 17&#45;&gt;18 -->
<g id="edge18" class="edge"><title>17&#45;&gt;18</title>
<path fill="none" stroke="black" d="M943.414,-88.9485C938.264,-80.2579 932.695,-70.8608 927.499,-62.0917"/>
<polygon fill="black" stroke="black" points="930.36,-60.0553 922.251,-53.2367 924.338,-63.624 930.36,-60.0553"/>
</g>
<!-- 19 -->
<g id="node20" class="node"><title>19</title>
<polygon fill="#e58139" stroke="black" points="1088,-53 982,-53 982,-0 1088,-0 1088,-53"/>
<text text-anchor="middle" x="1035" y="-37.8" font-family="Times,serif" font-size="14.00">samples = 1</text>
<text text-anchor="middle" x="1035" y="-22.8" font-family="Times,serif" font-size="14.00">value = [1, 0, 0]</text>
<text text-anchor="middle" x="1035" y="-7.8" font-family="Times,serif" font-size="14.00">class = 0.0</text>
</g>
<!-- 17&#45;&gt;19 -->
<g id="edge19" class="edge"><title>17&#45;&gt;19</title>
<path fill="none" stroke="black" d="M988.182,-88.9485C995.013,-79.9834 1002.42,-70.2666 1009.28,-61.2629"/>
<polygon fill="black" stroke="black" points="1012.11,-63.3122 1015.39,-53.2367 1006.55,-59.0699 1012.11,-63.3122"/>
</g>
<!-- 21 -->
<g id="node22" class="node"><title>21</title>
<polygon fill="#39e581" stroke="black" points="1224,-53 1118,-53 1118,-0 1224,-0 1224,-53"/>
<text text-anchor="middle" x="1171" y="-37.8" font-family="Times,serif" font-size="14.00">samples = 3</text>
<text text-anchor="middle" x="1171" y="-22.8" font-family="Times,serif" font-size="14.00">value = [0, 3, 0]</text>
<text text-anchor="middle" x="1171" y="-7.8" font-family="Times,serif" font-size="14.00">class = 0.5</text>
</g>
<!-- 20&#45;&gt;21 -->
<g id="edge21" class="edge"><title>20&#45;&gt;21</title>
<path fill="none" stroke="black" d="M1180.75,-88.9485C1179.43,-80.6238 1178.01,-71.6509 1176.67,-63.2027"/>
<polygon fill="black" stroke="black" points="1180.11,-62.5643 1175.09,-53.2367 1173.2,-63.6618 1180.11,-62.5643"/>
</g>
<!-- 22 -->
<g id="node23" class="node"><title>22</title>
<polygon fill="#e58139" stroke="black" points="1348,-53 1242,-53 1242,-0 1348,-0 1348,-53"/>
<text text-anchor="middle" x="1295" y="-37.8" font-family="Times,serif" font-size="14.00">samples = 1</text>
<text text-anchor="middle" x="1295" y="-22.8" font-family="Times,serif" font-size="14.00">value = [1, 0, 0]</text>
<text text-anchor="middle" x="1295" y="-7.8" font-family="Times,serif" font-size="14.00">class = 0.0</text>
</g>
<!-- 20&#45;&gt;22 -->
<g id="edge22" class="edge"><title>20&#45;&gt;22</title>
<path fill="none" stroke="black" d="M1224.12,-88.9485C1234.99,-79.526 1246.82,-69.2731 1257.64,-59.8906"/>
<polygon fill="black" stroke="black" points="1260.05,-62.4319 1265.31,-53.2367 1255.47,-57.1428 1260.05,-62.4319"/>
</g>
</g>
</svg>
