<?xml version="1.0" encoding="UTF-8" standalone="no"?>
<!DOCTYPE svg PUBLIC "-//W3C//DTD SVG 1.1//EN"
 "http://www.w3.org/Graphics/SVG/1.1/DTD/svg11.dtd">
<!-- Generated by graphviz version 2.38.0 (20140413.2041)
 -->
<!-- Title: Tree Pages: 1 -->
<svg width="1482pt" height="477pt"
 viewBox="0.00 0.00 1482.00 477.00" xmlns="http://www.w3.org/2000/svg" xmlns:xlink="http://www.w3.org/1999/xlink">
<g id="graph0" class="graph" transform="scale(1 1) rotate(0) translate(4 473)">
<title>Tree</title>
<polygon fill="white" stroke="none" points="-4,4 -4,-473 1478,-473 1478,4 -4,4"/>
<!-- 0 -->
<g id="node1" class="node"><title>0</title>
<polygon fill="#39e581" fill-opacity="0.054902" stroke="black" points="804,-469 622,-469 622,-401 804,-401 804,-469"/>
<text text-anchor="middle" x="713" y="-453.8" font-family="Times,serif" font-size="14.00">Joy_NRC_narrated &lt;= 1.4807</text>
<text text-anchor="middle" x="713" y="-438.8" font-family="Times,serif" font-size="14.00">samples = 112</text>
<text text-anchor="middle" x="713" y="-423.8" font-family="Times,serif" font-size="14.00">value = [41, 45, 26]</text>
<text text-anchor="middle" x="713" y="-408.8" font-family="Times,serif" font-size="14.00">class = 0.5</text>
</g>
<!-- 1 -->
<g id="node2" class="node"><title>1</title>
<polygon fill="#e58139" fill-opacity="0.490196" stroke="black" points="670,-365 480,-365 480,-297 670,-297 670,-365"/>
<text text-anchor="middle" x="575" y="-349.8" font-family="Times,serif" font-size="14.00">Anger_NRC_speech &lt;= 1.3037</text>
<text text-anchor="middle" x="575" y="-334.8" font-family="Times,serif" font-size="14.00">samples = 58</text>
<text text-anchor="middle" x="575" y="-319.8" font-family="Times,serif" font-size="14.00">value = [35, 13, 10]</text>
<text text-anchor="middle" x="575" y="-304.8" font-family="Times,serif" font-size="14.00">class = 0.0</text>
</g>
<!-- 0&#45;&gt;1 -->
<g id="edge1" class="edge"><title>0&#45;&gt;1</title>
<path fill="none" stroke="black" d="M668.195,-400.884C655.421,-391.442 641.38,-381.064 628.159,-371.292"/>
<polygon fill="black" stroke="black" points="630.174,-368.429 620.052,-365.299 626.013,-374.058 630.174,-368.429"/>
<text text-anchor="middle" x="623.761" y="-386.323" font-family="Times,serif" font-size="14.00">True</text>
</g>
<!-- 12 -->
<g id="node13" class="node"><title>12</title>
<polygon fill="#39e581" fill-opacity="0.419608" stroke="black" points="961.5,-365 740.5,-365 740.5,-297 961.5,-297 961.5,-365"/>
<text text-anchor="middle" x="851" y="-349.8" font-family="Times,serif" font-size="14.00">narrated_emotional_WN &lt;= 44.8441</text>
<text text-anchor="middle" x="851" y="-334.8" font-family="Times,serif" font-size="14.00">samples = 54</text>
<text text-anchor="middle" x="851" y="-319.8" font-family="Times,serif" font-size="14.00">value = [6, 32, 16]</text>
<text text-anchor="middle" x="851" y="-304.8" font-family="Times,serif" font-size="14.00">class = 0.5</text>
</g>
<!-- 0&#45;&gt;12 -->
<g id="edge12" class="edge"><title>0&#45;&gt;12</title>
<path fill="none" stroke="black" d="M757.805,-400.884C770.579,-391.442 784.62,-381.064 797.841,-371.292"/>
<polygon fill="black" stroke="black" points="799.987,-374.058 805.948,-365.299 795.826,-368.429 799.987,-374.058"/>
<text text-anchor="middle" x="802.239" y="-386.323" font-family="Times,serif" font-size="14.00">False</text>
</g>
<!-- 2 -->
<g id="node3" class="node"><title>2</title>
<polygon fill="#e58139" fill-opacity="0.588235" stroke="black" points="415,-261 261,-261 261,-193 415,-193 415,-261"/>
<text text-anchor="middle" x="338" y="-245.8" font-family="Times,serif" font-size="14.00">negative_WN &lt;= 7.3864</text>
<text text-anchor="middle" x="338" y="-230.8" font-family="Times,serif" font-size="14.00">samples = 51</text>
<text text-anchor="middle" x="338" y="-215.8" font-family="Times,serif" font-size="14.00">value = [35, 12, 4]</text>
<text text-anchor="middle" x="338" y="-200.8" font-family="Times,serif" font-size="14.00">class = 0.0</text>
</g>
<!-- 1&#45;&gt;2 -->
<g id="edge2" class="edge"><title>1&#45;&gt;2</title>
<path fill="none" stroke="black" d="M498.053,-296.884C474.546,-286.767 448.542,-275.575 424.449,-265.206"/>
<polygon fill="black" stroke="black" points="425.535,-261.863 414.966,-261.125 422.768,-268.293 425.535,-261.863"/>
</g>
<!-- 9 -->
<g id="node10" class="node"><title>9</title>
<polygon fill="#8139e5" fill-opacity="0.831373" stroke="black" points="681.5,-261 468.5,-261 468.5,-193 681.5,-193 681.5,-261"/>
<text text-anchor="middle" x="575" y="-245.8" font-family="Times,serif" font-size="14.00">speech_emotional_WN &lt;= 32.7045</text>
<text text-anchor="middle" x="575" y="-230.8" font-family="Times,serif" font-size="14.00">samples = 7</text>
<text text-anchor="middle" x="575" y="-215.8" font-family="Times,serif" font-size="14.00">value = [0, 1, 6]</text>
<text text-anchor="middle" x="575" y="-200.8" font-family="Times,serif" font-size="14.00">class = 1.0</text>
</g>
<!-- 1&#45;&gt;9 -->
<g id="edge9" class="edge"><title>1&#45;&gt;9</title>
<path fill="none" stroke="black" d="M575,-296.884C575,-288.778 575,-279.982 575,-271.472"/>
<polygon fill="black" stroke="black" points="578.5,-271.299 575,-261.299 571.5,-271.299 578.5,-271.299"/>
</g>
<!-- 3 -->
<g id="node4" class="node"><title>3</title>
<polygon fill="#e58139" fill-opacity="0.729412" stroke="black" points="244,-157 98,-157 98,-89 244,-89 244,-157"/>
<text text-anchor="middle" x="171" y="-141.8" font-family="Times,serif" font-size="14.00">Anger_NRC &lt;= 1.4306</text>
<text text-anchor="middle" x="171" y="-126.8" font-family="Times,serif" font-size="14.00">samples = 45</text>
<text text-anchor="middle" x="171" y="-111.8" font-family="Times,serif" font-size="14.00">value = [35, 8, 2]</text>
<text text-anchor="middle" x="171" y="-96.8" font-family="Times,serif" font-size="14.00">class = 0.0</text>
</g>
<!-- 2&#45;&gt;3 -->
<g id="edge3" class="edge"><title>2&#45;&gt;3</title>
<path fill="none" stroke="black" d="M283.78,-192.884C267.949,-183.214 250.511,-172.563 234.177,-162.587"/>
<polygon fill="black" stroke="black" points="235.592,-159.35 225.234,-157.125 231.943,-165.324 235.592,-159.35"/>
</g>
<!-- 6 -->
<g id="node7" class="node"><title>6</title>
<polygon fill="#39e581" fill-opacity="0.498039" stroke="black" points="413.5,-157 262.5,-157 262.5,-89 413.5,-89 413.5,-157"/>
<text text-anchor="middle" x="338" y="-141.8" font-family="Times,serif" font-size="14.00">positive_WN &lt;= 4.1897</text>
<text text-anchor="middle" x="338" y="-126.8" font-family="Times,serif" font-size="14.00">samples = 6</text>
<text text-anchor="middle" x="338" y="-111.8" font-family="Times,serif" font-size="14.00">value = [0, 4, 2]</text>
<text text-anchor="middle" x="338" y="-96.8" font-family="Times,serif" font-size="14.00">class = 0.5</text>
</g>
<!-- 2&#45;&gt;6 -->
<g id="edge6" class="edge"><title>2&#45;&gt;6</title>
<path fill="none" stroke="black" d="M338,-192.884C338,-184.778 338,-175.982 338,-167.472"/>
<polygon fill="black" stroke="black" points="341.5,-167.299 338,-157.299 334.5,-167.299 341.5,-167.299"/>
</g>
<!-- 4 -->
<g id="node5" class="node"><title>4</title>
<polygon fill="none" stroke="black" points="106,-53 7.10543e-15,-53 7.10543e-15,-0 106,-0 106,-53"/>
<text text-anchor="middle" x="53" y="-37.8" font-family="Times,serif" font-size="14.00">samples = 14</text>
<text text-anchor="middle" x="53" y="-22.8" font-family="Times,serif" font-size="14.00">value = [6, 6, 2]</text>
<text text-anchor="middle" x="53" y="-7.8" font-family="Times,serif" font-size="14.00">class = 0.0</text>
</g>
<!-- 3&#45;&gt;4 -->
<g id="edge4" class="edge"><title>3&#45;&gt;4</title>
<path fill="none" stroke="black" d="M129.729,-88.9485C117.85,-79.4346 104.912,-69.074 93.1044,-59.6175"/>
<polygon fill="black" stroke="black" points="95.1302,-56.7558 85.1368,-53.2367 90.7545,-62.2196 95.1302,-56.7558"/>
</g>
<!-- 5 -->
<g id="node6" class="node"><title>5</title>
<polygon fill="#e58139" fill-opacity="0.929412" stroke="black" points="237.5,-53 124.5,-53 124.5,-0 237.5,-0 237.5,-53"/>
<text text-anchor="middle" x="181" y="-37.8" font-family="Times,serif" font-size="14.00">samples = 31</text>
<text text-anchor="middle" x="181" y="-22.8" font-family="Times,serif" font-size="14.00">value = [29, 2, 0]</text>
<text text-anchor="middle" x="181" y="-7.8" font-family="Times,serif" font-size="14.00">class = 0.0</text>
</g>
<!-- 3&#45;&gt;5 -->
<g id="edge5" class="edge"><title>3&#45;&gt;5</title>
<path fill="none" stroke="black" d="M174.498,-88.9485C175.378,-80.6238 176.328,-71.6509 177.222,-63.2027"/>
<polygon fill="black" stroke="black" points="180.705,-63.5495 178.277,-53.2367 173.744,-62.8128 180.705,-63.5495"/>
</g>
<!-- 7 -->
<g id="node8" class="node"><title>7</title>
<polygon fill="#39e581" stroke="black" points="381,-53 275,-53 275,-0 381,-0 381,-53"/>
<text text-anchor="middle" x="328" y="-37.8" font-family="Times,serif" font-size="14.00">samples = 4</text>
<text text-anchor="middle" x="328" y="-22.8" font-family="Times,serif" font-size="14.00">value = [0, 4, 0]</text>
<text text-anchor="middle" x="328" y="-7.8" font-family="Times,serif" font-size="14.00">class = 0.5</text>
</g>
<!-- 6&#45;&gt;7 -->
<g id="edge7" class="edge"><title>6&#45;&gt;7</title>
<path fill="none" stroke="black" d="M334.502,-88.9485C333.622,-80.6238 332.672,-71.6509 331.778,-63.2027"/>
<polygon fill="black" stroke="black" points="335.256,-62.8128 330.723,-53.2367 328.295,-63.5495 335.256,-62.8128"/>
</g>
<!-- 8 -->
<g id="node9" class="node"><title>8</title>
<polygon fill="#8139e5" stroke="black" points="505,-53 399,-53 399,-0 505,-0 505,-53"/>
<text text-anchor="middle" x="452" y="-37.8" font-family="Times,serif" font-size="14.00">samples = 2</text>
<text text-anchor="middle" x="452" y="-22.8" font-family="Times,serif" font-size="14.00">value = [0, 0, 2]</text>
<text text-anchor="middle" x="452" y="-7.8" font-family="Times,serif" font-size="14.00">class = 1.0</text>
</g>
<!-- 6&#45;&gt;8 -->
<g id="edge8" class="edge"><title>6&#45;&gt;8</title>
<path fill="none" stroke="black" d="M377.872,-88.9485C389.238,-79.526 401.607,-69.2731 412.926,-59.8906"/>
<polygon fill="black" stroke="black" points="415.487,-62.3132 420.953,-53.2367 411.02,-56.924 415.487,-62.3132"/>
</g>
<!-- 10 -->
<g id="node11" class="node"><title>10</title>
<polygon fill="#39e581" stroke="black" points="538,-149.5 432,-149.5 432,-96.5 538,-96.5 538,-149.5"/>
<text text-anchor="middle" x="485" y="-134.3" font-family="Times,serif" font-size="14.00">samples = 1</text>
<text text-anchor="middle" x="485" y="-119.3" font-family="Times,serif" font-size="14.00">value = [0, 1, 0]</text>
<text text-anchor="middle" x="485" y="-104.3" font-family="Times,serif" font-size="14.00">class = 0.5</text>
</g>
<!-- 9&#45;&gt;10 -->
<g id="edge10" class="edge"><title>9&#45;&gt;10</title>
<path fill="none" stroke="black" d="M545.78,-192.884C535.687,-181.446 524.383,-168.634 514.285,-157.19"/>
<polygon fill="black" stroke="black" points="516.758,-154.703 507.518,-149.52 511.509,-159.334 516.758,-154.703"/>
</g>
<!-- 11 -->
<g id="node12" class="node"><title>11</title>
<polygon fill="#8139e5" stroke="black" points="662,-149.5 556,-149.5 556,-96.5 662,-96.5 662,-149.5"/>
<text text-anchor="middle" x="609" y="-134.3" font-family="Times,serif" font-size="14.00">samples = 6</text>
<text text-anchor="middle" x="609" y="-119.3" font-family="Times,serif" font-size="14.00">value = [0, 0, 6]</text>
<text text-anchor="middle" x="609" y="-104.3" font-family="Times,serif" font-size="14.00">class = 1.0</text>
</g>
<!-- 9&#45;&gt;11 -->
<g id="edge11" class="edge"><title>9&#45;&gt;11</title>
<path fill="none" stroke="black" d="M586.039,-192.884C589.631,-182.106 593.631,-170.108 597.272,-159.184"/>
<polygon fill="black" stroke="black" points="600.651,-160.114 600.493,-149.52 594.011,-157.9 600.651,-160.114"/>
</g>
<!-- 13 -->
<g id="node14" class="node"><title>13</title>
<polygon fill="#8139e5" fill-opacity="0.831373" stroke="black" points="929.5,-261 772.5,-261 772.5,-193 929.5,-193 929.5,-261"/>
<text text-anchor="middle" x="851" y="-245.8" font-family="Times,serif" font-size="14.00">neutral_NRC &lt;= 41.9104</text>
<text text-anchor="middle" x="851" y="-230.8" font-family="Times,serif" font-size="14.00">samples = 13</text>
<text text-anchor="middle" x="851" y="-215.8" font-family="Times,serif" font-size="14.00">value = [1, 1, 11]</text>
<text text-anchor="middle" x="851" y="-200.8" font-family="Times,serif" font-size="14.00">class = 1.0</text>
</g>
<!-- 12&#45;&gt;13 -->
<g id="edge13" class="edge"><title>12&#45;&gt;13</title>
<path fill="none" stroke="black" d="M851,-296.884C851,-288.778 851,-279.982 851,-271.472"/>
<polygon fill="black" stroke="black" points="854.5,-271.299 851,-261.299 847.5,-271.299 854.5,-271.299"/>
</g>
<!-- 18 -->
<g id="node19" class="node"><title>18</title>
<polygon fill="#39e581" fill-opacity="0.721569" stroke="black" points="1224.5,-261 999.5,-261 999.5,-193 1224.5,-193 1224.5,-261"/>
<text text-anchor="middle" x="1112" y="-245.8" font-family="Times,serif" font-size="14.00">narrated_emotional_NRC &lt;= 54.8921</text>
<text text-anchor="middle" x="1112" y="-230.8" font-family="Times,serif" font-size="14.00">samples = 41</text>
<text text-anchor="middle" x="1112" y="-215.8" font-family="Times,serif" font-size="14.00">value = [5, 31, 5]</text>
<text text-anchor="middle" x="1112" y="-200.8" font-family="Times,serif" font-size="14.00">class = 0.5</text>
</g>
<!-- 12&#45;&gt;18 -->
<g id="edge18" class="edge"><title>12&#45;&gt;18</title>
<path fill="none" stroke="black" d="M935.739,-296.884C961.97,-286.633 991.024,-275.278 1017.85,-264.794"/>
<polygon fill="black" stroke="black" points="1019.2,-268.025 1027.24,-261.125 1016.65,-261.505 1019.2,-268.025"/>
</g>
<!-- 14 -->
<g id="node15" class="node"><title>14</title>
<polygon fill="#8139e5" stroke="black" points="793.5,-149.5 680.5,-149.5 680.5,-96.5 793.5,-96.5 793.5,-149.5"/>
<text text-anchor="middle" x="737" y="-134.3" font-family="Times,serif" font-size="14.00">samples = 11</text>
<text text-anchor="middle" x="737" y="-119.3" font-family="Times,serif" font-size="14.00">value = [0, 0, 11]</text>
<text text-anchor="middle" x="737" y="-104.3" font-family="Times,serif" font-size="14.00">class = 1.0</text>
</g>
<!-- 13&#45;&gt;14 -->
<g id="edge14" class="edge"><title>13&#45;&gt;14</title>
<path fill="none" stroke="black" d="M813.987,-192.884C800.835,-181.116 786.058,-167.894 772.992,-156.203"/>
<polygon fill="black" stroke="black" points="775.309,-153.58 765.522,-149.52 770.641,-158.796 775.309,-153.58"/>
</g>
<!-- 15 -->
<g id="node16" class="node"><title>15</title>
<polygon fill="none" stroke="black" points="994,-157 812,-157 812,-89 994,-89 994,-157"/>
<text text-anchor="middle" x="903" y="-141.8" font-family="Times,serif" font-size="14.00">Joy_NRC_narrated &lt;= 3.6176</text>
<text text-anchor="middle" x="903" y="-126.8" font-family="Times,serif" font-size="14.00">samples = 2</text>
<text text-anchor="middle" x="903" y="-111.8" font-family="Times,serif" font-size="14.00">value = [1, 1, 0]</text>
<text text-anchor="middle" x="903" y="-96.8" font-family="Times,serif" font-size="14.00">class = 0.0</text>
</g>
<!-- 13&#45;&gt;15 -->
<g id="edge15" class="edge"><title>13&#45;&gt;15</title>
<path fill="none" stroke="black" d="M867.883,-192.884C872.197,-184.422 876.894,-175.207 881.409,-166.352"/>
<polygon fill="black" stroke="black" points="884.6,-167.798 886.024,-157.299 878.364,-164.619 884.6,-167.798"/>
</g>
<!-- 16 -->
<g id="node17" class="node"><title>16</title>
<polygon fill="#39e581" stroke="black" points="834,-53 728,-53 728,-0 834,-0 834,-53"/>
<text text-anchor="middle" x="781" y="-37.8" font-family="Times,serif" font-size="14.00">samples = 1</text>
<text text-anchor="middle" x="781" y="-22.8" font-family="Times,serif" font-size="14.00">value = [0, 1, 0]</text>
<text text-anchor="middle" x="781" y="-7.8" font-family="Times,serif" font-size="14.00">class = 0.5</text>
</g>
<!-- 15&#45;&gt;16 -->
<g id="edge16" class="edge"><title>15&#45;&gt;16</title>
<path fill="none" stroke="black" d="M860.33,-88.9485C848.048,-79.4346 834.672,-69.074 822.464,-59.6175"/>
<polygon fill="black" stroke="black" points="824.275,-56.5934 814.226,-53.2367 819.989,-62.1274 824.275,-56.5934"/>
</g>
<!-- 17 -->
<g id="node18" class="node"><title>17</title>
<polygon fill="#e58139" stroke="black" points="958,-53 852,-53 852,-0 958,-0 958,-53"/>
<text text-anchor="middle" x="905" y="-37.8" font-family="Times,serif" font-size="14.00">samples = 1</text>
<text text-anchor="middle" x="905" y="-22.8" font-family="Times,serif" font-size="14.00">value = [1, 0, 0]</text>
<text text-anchor="middle" x="905" y="-7.8" font-family="Times,serif" font-size="14.00">class = 0.0</text>
</g>
<!-- 15&#45;&gt;17 -->
<g id="edge17" class="edge"><title>15&#45;&gt;17</title>
<path fill="none" stroke="black" d="M903.7,-88.9485C903.874,-80.7153 904.061,-71.848 904.238,-63.4814"/>
<polygon fill="black" stroke="black" points="907.743,-63.3086 904.455,-53.2367 900.744,-63.1604 907.743,-63.3086"/>
</g>
<!-- 19 -->
<g id="node20" class="node"><title>19</title>
<polygon fill="#39e581" fill-opacity="0.956863" stroke="black" points="1212,-157 1012,-157 1012,-89 1212,-89 1212,-157"/>
<text text-anchor="middle" x="1112" y="-141.8" font-family="Times,serif" font-size="14.00">speech_neutral_NRC &lt;= 28.5037</text>
<text text-anchor="middle" x="1112" y="-126.8" font-family="Times,serif" font-size="14.00">samples = 24</text>
<text text-anchor="middle" x="1112" y="-111.8" font-family="Times,serif" font-size="14.00">value = [1, 23, 0]</text>
<text text-anchor="middle" x="1112" y="-96.8" font-family="Times,serif" font-size="14.00">class = 0.5</text>
</g>
<!-- 18&#45;&gt;19 -->
<g id="edge19" class="edge"><title>18&#45;&gt;19</title>
<path fill="none" stroke="black" d="M1112,-192.884C1112,-184.778 1112,-175.982 1112,-167.472"/>
<polygon fill="black" stroke="black" points="1115.5,-167.299 1112,-157.299 1108.5,-167.299 1115.5,-167.299"/>
</g>
<!-- 22 -->
<g id="node23" class="node"><title>22</title>
<polygon fill="#39e581" fill-opacity="0.250980" stroke="black" points="1367.5,-157 1230.5,-157 1230.5,-89 1367.5,-89 1367.5,-157"/>
<text text-anchor="middle" x="1299" y="-141.8" font-family="Times,serif" font-size="14.00">Fear_NRC &lt;= 5.6652</text>
<text text-anchor="middle" x="1299" y="-126.8" font-family="Times,serif" font-size="14.00">samples = 17</text>
<text text-anchor="middle" x="1299" y="-111.8" font-family="Times,serif" font-size="14.00">value = [4, 8, 5]</text>
<text text-anchor="middle" x="1299" y="-96.8" font-family="Times,serif" font-size="14.00">class = 0.5</text>
</g>
<!-- 18&#45;&gt;22 -->
<g id="edge22" class="edge"><title>18&#45;&gt;22</title>
<path fill="none" stroke="black" d="M1172.71,-192.884C1190.77,-183.035 1210.69,-172.169 1229.27,-162.034"/>
<polygon fill="black" stroke="black" points="1231.17,-164.986 1238.27,-157.125 1227.82,-158.841 1231.17,-164.986"/>
</g>
<!-- 20 -->
<g id="node21" class="node"><title>20</title>
<polygon fill="#39e581" stroke="black" points="1097.5,-53 984.5,-53 984.5,-0 1097.5,-0 1097.5,-53"/>
<text text-anchor="middle" x="1041" y="-37.8" font-family="Times,serif" font-size="14.00">samples = 23</text>
<text text-anchor="middle" x="1041" y="-22.8" font-family="Times,serif" font-size="14.00">value = [0, 23, 0]</text>
<text text-anchor="middle" x="1041" y="-7.8" font-family="Times,serif" font-size="14.00">class = 0.5</text>
</g>
<!-- 19&#45;&gt;20 -->
<g id="edge20" class="edge"><title>19&#45;&gt;20</title>
<path fill="none" stroke="black" d="M1087.17,-88.9485C1080.43,-79.9834 1073.13,-70.2666 1066.37,-61.2629"/>
<polygon fill="black" stroke="black" points="1069.14,-59.1293 1060.34,-53.2367 1063.55,-63.334 1069.14,-59.1293"/>
</g>
<!-- 21 -->
<g id="node22" class="node"><title>21</title>
<polygon fill="#e58139" stroke="black" points="1222,-53 1116,-53 1116,-0 1222,-0 1222,-53"/>
<text text-anchor="middle" x="1169" y="-37.8" font-family="Times,serif" font-size="14.00">samples = 1</text>
<text text-anchor="middle" x="1169" y="-22.8" font-family="Times,serif" font-size="14.00">value = [1, 0, 0]</text>
<text text-anchor="middle" x="1169" y="-7.8" font-family="Times,serif" font-size="14.00">class = 0.0</text>
</g>
<!-- 19&#45;&gt;21 -->
<g id="edge21" class="edge"><title>19&#45;&gt;21</title>
<path fill="none" stroke="black" d="M1131.94,-88.9485C1137.23,-80.1664 1142.97,-70.6629 1148.3,-61.815"/>
<polygon fill="black" stroke="black" points="1151.31,-63.6074 1153.48,-53.2367 1145.31,-59.9919 1151.31,-63.6074"/>
</g>
<!-- 23 -->
<g id="node24" class="node"><title>23</title>
<polygon fill="#39e581" fill-opacity="0.858824" stroke="black" points="1350,-53 1244,-53 1244,-0 1350,-0 1350,-53"/>
<text text-anchor="middle" x="1297" y="-37.8" font-family="Times,serif" font-size="14.00">samples = 8</text>
<text text-anchor="middle" x="1297" y="-22.8" font-family="Times,serif" font-size="14.00">value = [0, 7, 1]</text>
<text text-anchor="middle" x="1297" y="-7.8" font-family="Times,serif" font-size="14.00">class = 0.5</text>
</g>
<!-- 22&#45;&gt;23 -->
<g id="edge23" class="edge"><title>22&#45;&gt;23</title>
<path fill="none" stroke="black" d="M1298.3,-88.9485C1298.13,-80.7153 1297.94,-71.848 1297.76,-63.4814"/>
<polygon fill="black" stroke="black" points="1301.26,-63.1604 1297.54,-53.2367 1294.26,-63.3086 1301.26,-63.1604"/>
</g>
<!-- 24 -->
<g id="node25" class="node"><title>24</title>
<polygon fill="none" stroke="black" points="1474,-53 1368,-53 1368,-0 1474,-0 1474,-53"/>
<text text-anchor="middle" x="1421" y="-37.8" font-family="Times,serif" font-size="14.00">samples = 9</text>
<text text-anchor="middle" x="1421" y="-22.8" font-family="Times,serif" font-size="14.00">value = [4, 1, 4]</text>
<text text-anchor="middle" x="1421" y="-7.8" font-family="Times,serif" font-size="14.00">class = 0.0</text>
</g>
<!-- 22&#45;&gt;24 -->
<g id="edge24" class="edge"><title>22&#45;&gt;24</title>
<path fill="none" stroke="black" d="M1341.67,-88.9485C1353.95,-79.4346 1367.33,-69.074 1379.54,-59.6175"/>
<polygon fill="black" stroke="black" points="1382.01,-62.1274 1387.77,-53.2367 1377.72,-56.5934 1382.01,-62.1274"/>
</g>
</g>
</svg>
