<?xml version="1.0" encoding="UTF-8" standalone="no"?>
<!DOCTYPE svg PUBLIC "-//W3C//DTD SVG 1.1//EN"
 "http://www.w3.org/Graphics/SVG/1.1/DTD/svg11.dtd">
<!-- Generated by graphviz version 2.38.0 (20140413.2041)
 -->
<!-- Title: Tree Pages: 1 -->
<svg width="1980pt" height="581pt"
 viewBox="0.00 0.00 1979.50 581.00" xmlns="http://www.w3.org/2000/svg" xmlns:xlink="http://www.w3.org/1999/xlink">
<g id="graph0" class="graph" transform="scale(1 1) rotate(0) translate(4 577)">
<title>Tree</title>
<polygon fill="white" stroke="none" points="-4,4 -4,-577 1975.5,-577 1975.5,4 -4,4"/>
<!-- 0 -->
<g id="node1" class="node"><title>0</title>
<polygon fill="#399de5" fill-opacity="0.047059" stroke="black" points="1267,-573 1120,-573 1120,-505 1267,-505 1267,-573"/>
<text text-anchor="middle" x="1193.5" y="-557.8" font-family="Times,serif" font-size="14.00">Fear_NRC &lt;= 6.4535</text>
<text text-anchor="middle" x="1193.5" y="-542.8" font-family="Times,serif" font-size="14.00">samples = 112</text>
<text text-anchor="middle" x="1193.5" y="-527.8" font-family="Times,serif" font-size="14.00">value = [22, 30, 34, 26]</text>
<text text-anchor="middle" x="1193.5" y="-512.8" font-family="Times,serif" font-size="14.00">class = sentimental</text>
</g>
<!-- 1 -->
<g id="node2" class="node"><title>1</title>
<polygon fill="#399de5" fill-opacity="0.109804" stroke="black" points="974.5,-469 756.5,-469 756.5,-401 974.5,-401 974.5,-469"/>
<text text-anchor="middle" x="865.5" y="-453.8" font-family="Times,serif" font-size="14.00">speech_emotional_NRC &lt;= 14.2456</text>
<text text-anchor="middle" x="865.5" y="-438.8" font-family="Times,serif" font-size="14.00">samples = 78</text>
<text text-anchor="middle" x="865.5" y="-423.8" font-family="Times,serif" font-size="14.00">value = [22, 4, 29, 23]</text>
<text text-anchor="middle" x="865.5" y="-408.8" font-family="Times,serif" font-size="14.00">class = sentimental</text>
</g>
<!-- 0&#45;&gt;1 -->
<g id="edge1" class="edge"><title>0&#45;&gt;1</title>
<path fill="none" stroke="black" d="M1119.89,-515.109C1079.16,-502.442 1027.6,-486.411 981.574,-472.096"/>
<polygon fill="black" stroke="black" points="982.43,-468.697 971.842,-469.07 980.351,-475.381 982.43,-468.697"/>
<text text-anchor="middle" x="983.473" y="-487.499" font-family="Times,serif" font-size="14.00">True</text>
</g>
<!-- 22 -->
<g id="node23" class="node"><title>22</title>
<polygon fill="#47e539" fill-opacity="0.725490" stroke="black" points="1581.5,-469 1363.5,-469 1363.5,-401 1581.5,-401 1581.5,-469"/>
<text text-anchor="middle" x="1472.5" y="-453.8" font-family="Times,serif" font-size="14.00">speech_emotional_NRC &lt;= 25.6954</text>
<text text-anchor="middle" x="1472.5" y="-438.8" font-family="Times,serif" font-size="14.00">samples = 34</text>
<text text-anchor="middle" x="1472.5" y="-423.8" font-family="Times,serif" font-size="14.00">value = [0, 26, 5, 3]</text>
<text text-anchor="middle" x="1472.5" y="-408.8" font-family="Times,serif" font-size="14.00">class = historical</text>
</g>
<!-- 0&#45;&gt;22 -->
<g id="edge22" class="edge"><title>0&#45;&gt;22</title>
<path fill="none" stroke="black" d="M1267.17,-511.067C1299.41,-499.279 1337.75,-485.265 1372.51,-472.555"/>
<polygon fill="black" stroke="black" points="1374.02,-475.729 1382.21,-469.008 1371.62,-469.155 1374.02,-475.729"/>
<text text-anchor="middle" x="1371.68" y="-487.981" font-family="Times,serif" font-size="14.00">False</text>
</g>
<!-- 2 -->
<g id="node3" class="node"><title>2</title>
<polygon fill="#e58139" fill-opacity="0.050980" stroke="black" points="508.5,-365 334.5,-365 334.5,-297 508.5,-297 508.5,-365"/>
<text text-anchor="middle" x="421.5" y="-349.8" font-family="Times,serif" font-size="14.00">emotional_NRC &lt;= 37.1504</text>
<text text-anchor="middle" x="421.5" y="-334.8" font-family="Times,serif" font-size="14.00">samples = 35</text>
<text text-anchor="middle" x="421.5" y="-319.8" font-family="Times,serif" font-size="14.00">value = [17, 2, 0, 16]</text>
<text text-anchor="middle" x="421.5" y="-304.8" font-family="Times,serif" font-size="14.00">class = costumbrista</text>
</g>
<!-- 1&#45;&gt;2 -->
<g id="edge2" class="edge"><title>1&#45;&gt;2</title>
<path fill="none" stroke="black" d="M756.317,-408.917C683.632,-392.219 588.972,-370.473 518.855,-354.365"/>
<polygon fill="black" stroke="black" points="519.223,-350.859 508.693,-352.031 517.656,-357.681 519.223,-350.859"/>
</g>
<!-- 11 -->
<g id="node12" class="node"><title>11</title>
<polygon fill="#399de5" fill-opacity="0.611765" stroke="black" points="968,-365 763,-365 763,-297 968,-297 968,-365"/>
<text text-anchor="middle" x="865.5" y="-349.8" font-family="Times,serif" font-size="14.00">Disgust_NRC_narrated &lt;= 0.8579</text>
<text text-anchor="middle" x="865.5" y="-334.8" font-family="Times,serif" font-size="14.00">samples = 43</text>
<text text-anchor="middle" x="865.5" y="-319.8" font-family="Times,serif" font-size="14.00">value = [5, 2, 29, 7]</text>
<text text-anchor="middle" x="865.5" y="-304.8" font-family="Times,serif" font-size="14.00">class = sentimental</text>
</g>
<!-- 1&#45;&gt;11 -->
<g id="edge11" class="edge"><title>1&#45;&gt;11</title>
<path fill="none" stroke="black" d="M865.5,-400.884C865.5,-392.778 865.5,-383.982 865.5,-375.472"/>
<polygon fill="black" stroke="black" points="869,-375.299 865.5,-365.299 862,-375.299 869,-375.299"/>
</g>
<!-- 3 -->
<g id="node4" class="node"><title>3</title>
<polygon fill="#e58139" stroke="black" points="303.5,-253.5 175.5,-253.5 175.5,-200.5 303.5,-200.5 303.5,-253.5"/>
<text text-anchor="middle" x="239.5" y="-238.3" font-family="Times,serif" font-size="14.00">samples = 10</text>
<text text-anchor="middle" x="239.5" y="-223.3" font-family="Times,serif" font-size="14.00">value = [10, 0, 0, 0]</text>
<text text-anchor="middle" x="239.5" y="-208.3" font-family="Times,serif" font-size="14.00">class = costumbrista</text>
</g>
<!-- 2&#45;&gt;3 -->
<g id="edge3" class="edge"><title>2&#45;&gt;3</title>
<path fill="none" stroke="black" d="M362.41,-296.884C340.333,-284.511 315.388,-270.53 293.767,-258.413"/>
<polygon fill="black" stroke="black" points="295.47,-255.356 285.036,-253.52 292.048,-261.462 295.47,-255.356"/>
</g>
<!-- 4 -->
<g id="node5" class="node"><title>4</title>
<polygon fill="#d739e5" fill-opacity="0.501961" stroke="black" points="521.5,-261 321.5,-261 321.5,-193 521.5,-193 521.5,-261"/>
<text text-anchor="middle" x="421.5" y="-245.8" font-family="Times,serif" font-size="14.00">speech_neutral_NRC &lt;= 32.4398</text>
<text text-anchor="middle" x="421.5" y="-230.8" font-family="Times,serif" font-size="14.00">samples = 25</text>
<text text-anchor="middle" x="421.5" y="-215.8" font-family="Times,serif" font-size="14.00">value = [7, 2, 0, 16]</text>
<text text-anchor="middle" x="421.5" y="-200.8" font-family="Times,serif" font-size="14.00">class = sociopolitical</text>
</g>
<!-- 2&#45;&gt;4 -->
<g id="edge4" class="edge"><title>2&#45;&gt;4</title>
<path fill="none" stroke="black" d="M421.5,-296.884C421.5,-288.778 421.5,-279.982 421.5,-271.472"/>
<polygon fill="black" stroke="black" points="425,-271.299 421.5,-261.299 418,-271.299 425,-271.299"/>
</g>
<!-- 5 -->
<g id="node6" class="node"><title>5</title>
<polygon fill="#d739e5" fill-opacity="0.800000" stroke="black" points="304.5,-157 116.5,-157 116.5,-89 304.5,-89 304.5,-157"/>
<text text-anchor="middle" x="210.5" y="-141.8" font-family="Times,serif" font-size="14.00">Fear_NRC_narrated &lt;= 4.1818</text>
<text text-anchor="middle" x="210.5" y="-126.8" font-family="Times,serif" font-size="14.00">samples = 18</text>
<text text-anchor="middle" x="210.5" y="-111.8" font-family="Times,serif" font-size="14.00">value = [3, 0, 0, 15]</text>
<text text-anchor="middle" x="210.5" y="-96.8" font-family="Times,serif" font-size="14.00">class = sociopolitical</text>
</g>
<!-- 4&#45;&gt;5 -->
<g id="edge5" class="edge"><title>4&#45;&gt;5</title>
<path fill="none" stroke="black" d="M352.994,-192.884C332.252,-182.856 309.325,-171.773 288.035,-161.482"/>
<polygon fill="black" stroke="black" points="289.549,-158.326 279.023,-157.125 286.503,-164.628 289.549,-158.326"/>
</g>
<!-- 8 -->
<g id="node9" class="node"><title>8</title>
<polygon fill="#e58139" fill-opacity="0.400000" stroke="black" points="520,-157 323,-157 323,-89 520,-89 520,-157"/>
<text text-anchor="middle" x="421.5" y="-141.8" font-family="Times,serif" font-size="14.00">Disgust_NRC_speech &lt;= 0.3082</text>
<text text-anchor="middle" x="421.5" y="-126.8" font-family="Times,serif" font-size="14.00">samples = 7</text>
<text text-anchor="middle" x="421.5" y="-111.8" font-family="Times,serif" font-size="14.00">value = [4, 2, 0, 1]</text>
<text text-anchor="middle" x="421.5" y="-96.8" font-family="Times,serif" font-size="14.00">class = costumbrista</text>
</g>
<!-- 4&#45;&gt;8 -->
<g id="edge8" class="edge"><title>4&#45;&gt;8</title>
<path fill="none" stroke="black" d="M421.5,-192.884C421.5,-184.778 421.5,-175.982 421.5,-167.472"/>
<polygon fill="black" stroke="black" points="425,-167.299 421.5,-157.299 418,-167.299 425,-167.299"/>
</g>
<!-- 6 -->
<g id="node7" class="node"><title>6</title>
<polygon fill="#d739e5" stroke="black" points="131,-53 0,-53 0,-0 131,-0 131,-53"/>
<text text-anchor="middle" x="65.5" y="-37.8" font-family="Times,serif" font-size="14.00">samples = 13</text>
<text text-anchor="middle" x="65.5" y="-22.8" font-family="Times,serif" font-size="14.00">value = [0, 0, 0, 13]</text>
<text text-anchor="middle" x="65.5" y="-7.8" font-family="Times,serif" font-size="14.00">class = sociopolitical</text>
</g>
<!-- 5&#45;&gt;6 -->
<g id="edge6" class="edge"><title>5&#45;&gt;6</title>
<path fill="none" stroke="black" d="M159.786,-88.9485C144.767,-79.1601 128.373,-68.4756 113.529,-58.8015"/>
<polygon fill="black" stroke="black" points="115.279,-55.7645 104.99,-53.2367 111.457,-61.629 115.279,-55.7645"/>
</g>
<!-- 7 -->
<g id="node8" class="node"><title>7</title>
<polygon fill="#e58139" fill-opacity="0.333333" stroke="black" points="277.5,-53 149.5,-53 149.5,-0 277.5,-0 277.5,-53"/>
<text text-anchor="middle" x="213.5" y="-37.8" font-family="Times,serif" font-size="14.00">samples = 5</text>
<text text-anchor="middle" x="213.5" y="-22.8" font-family="Times,serif" font-size="14.00">value = [3, 0, 0, 2]</text>
<text text-anchor="middle" x="213.5" y="-7.8" font-family="Times,serif" font-size="14.00">class = costumbrista</text>
</g>
<!-- 5&#45;&gt;7 -->
<g id="edge7" class="edge"><title>5&#45;&gt;7</title>
<path fill="none" stroke="black" d="M211.549,-88.9485C211.811,-80.7153 212.092,-71.848 212.358,-63.4814"/>
<polygon fill="black" stroke="black" points="215.864,-63.3428 212.683,-53.2367 208.867,-63.1206 215.864,-63.3428"/>
</g>
<!-- 9 -->
<g id="node10" class="node"><title>9</title>
<polygon fill="#47e539" fill-opacity="0.498039" stroke="black" points="424.5,-53 304.5,-53 304.5,-0 424.5,-0 424.5,-53"/>
<text text-anchor="middle" x="364.5" y="-37.8" font-family="Times,serif" font-size="14.00">samples = 3</text>
<text text-anchor="middle" x="364.5" y="-22.8" font-family="Times,serif" font-size="14.00">value = [0, 2, 0, 1]</text>
<text text-anchor="middle" x="364.5" y="-7.8" font-family="Times,serif" font-size="14.00">class = historical</text>
</g>
<!-- 8&#45;&gt;9 -->
<g id="edge9" class="edge"><title>8&#45;&gt;9</title>
<path fill="none" stroke="black" d="M401.564,-88.9485C396.267,-80.1664 390.535,-70.6629 385.198,-61.815"/>
<polygon fill="black" stroke="black" points="388.186,-59.9919 380.024,-53.2367 382.192,-63.6074 388.186,-59.9919"/>
</g>
<!-- 10 -->
<g id="node11" class="node"><title>10</title>
<polygon fill="#e58139" stroke="black" points="570.5,-53 442.5,-53 442.5,-0 570.5,-0 570.5,-53"/>
<text text-anchor="middle" x="506.5" y="-37.8" font-family="Times,serif" font-size="14.00">samples = 4</text>
<text text-anchor="middle" x="506.5" y="-22.8" font-family="Times,serif" font-size="14.00">value = [4, 0, 0, 0]</text>
<text text-anchor="middle" x="506.5" y="-7.8" font-family="Times,serif" font-size="14.00">class = costumbrista</text>
</g>
<!-- 8&#45;&gt;10 -->
<g id="edge10" class="edge"><title>8&#45;&gt;10</title>
<path fill="none" stroke="black" d="M451.229,-88.9485C459.457,-79.8005 468.39,-69.8697 476.626,-60.7126"/>
<polygon fill="black" stroke="black" points="479.265,-63.0123 483.351,-53.2367 474.061,-58.331 479.265,-63.0123"/>
</g>
<!-- 12 -->
<g id="node13" class="node"><title>12</title>
<polygon fill="#399de5" fill-opacity="0.772549" stroke="black" points="851,-261 650,-261 650,-193 851,-193 851,-261"/>
<text text-anchor="middle" x="750.5" y="-245.8" font-family="Times,serif" font-size="14.00">narrated_neutral_NRC &lt;= 6.7615</text>
<text text-anchor="middle" x="750.5" y="-230.8" font-family="Times,serif" font-size="14.00">samples = 35</text>
<text text-anchor="middle" x="750.5" y="-215.8" font-family="Times,serif" font-size="14.00">value = [2, 1, 28, 4]</text>
<text text-anchor="middle" x="750.5" y="-200.8" font-family="Times,serif" font-size="14.00">class = sentimental</text>
</g>
<!-- 11&#45;&gt;12 -->
<g id="edge12" class="edge"><title>11&#45;&gt;12</title>
<path fill="none" stroke="black" d="M828.163,-296.884C817.819,-287.709 806.478,-277.65 795.736,-268.123"/>
<polygon fill="black" stroke="black" points="797.847,-265.317 788.043,-261.299 793.202,-270.553 797.847,-265.317"/>
</g>
<!-- 17 -->
<g id="node18" class="node"><title>17</title>
<polygon fill="none" stroke="black" points="1094,-261 869,-261 869,-193 1094,-193 1094,-261"/>
<text text-anchor="middle" x="981.5" y="-245.8" font-family="Times,serif" font-size="14.00">narrated_emotional_NRC &lt;= 34.5336</text>
<text text-anchor="middle" x="981.5" y="-230.8" font-family="Times,serif" font-size="14.00">samples = 8</text>
<text text-anchor="middle" x="981.5" y="-215.8" font-family="Times,serif" font-size="14.00">value = [3, 1, 1, 3]</text>
<text text-anchor="middle" x="981.5" y="-200.8" font-family="Times,serif" font-size="14.00">class = costumbrista</text>
</g>
<!-- 11&#45;&gt;17 -->
<g id="edge17" class="edge"><title>11&#45;&gt;17</title>
<path fill="none" stroke="black" d="M903.162,-296.884C913.596,-287.709 925.035,-277.65 935.87,-268.123"/>
<polygon fill="black" stroke="black" points="938.432,-270.531 943.63,-261.299 933.809,-265.274 938.432,-270.531"/>
</g>
<!-- 13 -->
<g id="node14" class="node"><title>13</title>
<polygon fill="#d739e5" stroke="black" points="669,-149.5 538,-149.5 538,-96.5 669,-96.5 669,-149.5"/>
<text text-anchor="middle" x="603.5" y="-134.3" font-family="Times,serif" font-size="14.00">samples = 3</text>
<text text-anchor="middle" x="603.5" y="-119.3" font-family="Times,serif" font-size="14.00">value = [0, 0, 0, 3]</text>
<text text-anchor="middle" x="603.5" y="-104.3" font-family="Times,serif" font-size="14.00">class = sociopolitical</text>
</g>
<!-- 12&#45;&gt;13 -->
<g id="edge13" class="edge"><title>12&#45;&gt;13</title>
<path fill="none" stroke="black" d="M702.773,-192.884C685.338,-180.786 665.688,-167.151 648.499,-155.224"/>
<polygon fill="black" stroke="black" points="650.49,-152.345 640.279,-149.52 646.499,-158.096 650.49,-152.345"/>
</g>
<!-- 14 -->
<g id="node15" class="node"><title>14</title>
<polygon fill="#399de5" fill-opacity="0.866667" stroke="black" points="848,-157 687,-157 687,-89 848,-89 848,-157"/>
<text text-anchor="middle" x="767.5" y="-141.8" font-family="Times,serif" font-size="14.00">Joy_NRC_speech &lt;= 0.36</text>
<text text-anchor="middle" x="767.5" y="-126.8" font-family="Times,serif" font-size="14.00">samples = 32</text>
<text text-anchor="middle" x="767.5" y="-111.8" font-family="Times,serif" font-size="14.00">value = [2, 1, 28, 1]</text>
<text text-anchor="middle" x="767.5" y="-96.8" font-family="Times,serif" font-size="14.00">class = sentimental</text>
</g>
<!-- 12&#45;&gt;14 -->
<g id="edge14" class="edge"><title>12&#45;&gt;14</title>
<path fill="none" stroke="black" d="M756.019,-192.884C757.385,-184.689 758.869,-175.789 760.301,-167.192"/>
<polygon fill="black" stroke="black" points="763.758,-167.739 761.95,-157.299 756.854,-166.588 763.758,-167.739"/>
</g>
<!-- 15 -->
<g id="node16" class="node"><title>15</title>
<polygon fill="none" stroke="black" points="720.5,-53 592.5,-53 592.5,-0 720.5,-0 720.5,-53"/>
<text text-anchor="middle" x="656.5" y="-37.8" font-family="Times,serif" font-size="14.00">samples = 5</text>
<text text-anchor="middle" x="656.5" y="-22.8" font-family="Times,serif" font-size="14.00">value = [2, 0, 2, 1]</text>
<text text-anchor="middle" x="656.5" y="-7.8" font-family="Times,serif" font-size="14.00">class = costumbrista</text>
</g>
<!-- 14&#45;&gt;15 -->
<g id="edge15" class="edge"><title>14&#45;&gt;15</title>
<path fill="none" stroke="black" d="M728.678,-88.9485C717.61,-79.526 705.567,-69.2731 694.546,-59.8906"/>
<polygon fill="black" stroke="black" points="696.614,-57.0542 686.73,-53.2367 692.076,-62.3842 696.614,-57.0542"/>
</g>
<!-- 16 -->
<g id="node17" class="node"><title>16</title>
<polygon fill="#399de5" fill-opacity="0.960784" stroke="black" points="866,-53 739,-53 739,-0 866,-0 866,-53"/>
<text text-anchor="middle" x="802.5" y="-37.8" font-family="Times,serif" font-size="14.00">samples = 27</text>
<text text-anchor="middle" x="802.5" y="-22.8" font-family="Times,serif" font-size="14.00">value = [0, 1, 26, 0]</text>
<text text-anchor="middle" x="802.5" y="-7.8" font-family="Times,serif" font-size="14.00">class = sentimental</text>
</g>
<!-- 14&#45;&gt;16 -->
<g id="edge16" class="edge"><title>14&#45;&gt;16</title>
<path fill="none" stroke="black" d="M779.741,-88.9485C782.892,-80.4408 786.294,-71.2562 789.483,-62.6464"/>
<polygon fill="black" stroke="black" points="792.777,-63.8298 792.968,-53.2367 786.213,-61.3986 792.777,-63.8298"/>
</g>
<!-- 18 -->
<g id="node19" class="node"><title>18</title>
<polygon fill="#d739e5" fill-opacity="0.498039" stroke="black" points="1063,-157 866,-157 866,-89 1063,-89 1063,-157"/>
<text text-anchor="middle" x="964.5" y="-141.8" font-family="Times,serif" font-size="14.00">Anger_NRC_narrated &lt;= 0.8619</text>
<text text-anchor="middle" x="964.5" y="-126.8" font-family="Times,serif" font-size="14.00">samples = 5</text>
<text text-anchor="middle" x="964.5" y="-111.8" font-family="Times,serif" font-size="14.00">value = [0, 1, 1, 3]</text>
<text text-anchor="middle" x="964.5" y="-96.8" font-family="Times,serif" font-size="14.00">class = sociopolitical</text>
</g>
<!-- 17&#45;&gt;18 -->
<g id="edge18" class="edge"><title>17&#45;&gt;18</title>
<path fill="none" stroke="black" d="M975.981,-192.884C974.615,-184.689 973.131,-175.789 971.699,-167.192"/>
<polygon fill="black" stroke="black" points="975.146,-166.588 970.05,-157.299 968.242,-167.739 975.146,-166.588"/>
</g>
<!-- 21 -->
<g id="node22" class="node"><title>21</title>
<polygon fill="#e58139" stroke="black" points="1209.5,-149.5 1081.5,-149.5 1081.5,-96.5 1209.5,-96.5 1209.5,-149.5"/>
<text text-anchor="middle" x="1145.5" y="-134.3" font-family="Times,serif" font-size="14.00">samples = 3</text>
<text text-anchor="middle" x="1145.5" y="-119.3" font-family="Times,serif" font-size="14.00">value = [3, 0, 0, 0]</text>
<text text-anchor="middle" x="1145.5" y="-104.3" font-family="Times,serif" font-size="14.00">class = costumbrista</text>
</g>
<!-- 17&#45;&gt;21 -->
<g id="edge21" class="edge"><title>17&#45;&gt;21</title>
<path fill="none" stroke="black" d="M1034.75,-192.884C1054.37,-180.676 1076.52,-166.903 1095.82,-154.899"/>
<polygon fill="black" stroke="black" points="1097.82,-157.773 1104.47,-149.52 1094.13,-151.829 1097.82,-157.773"/>
</g>
<!-- 19 -->
<g id="node20" class="node"><title>19</title>
<polygon fill="none" stroke="black" points="1006.5,-53 886.5,-53 886.5,-0 1006.5,-0 1006.5,-53"/>
<text text-anchor="middle" x="946.5" y="-37.8" font-family="Times,serif" font-size="14.00">samples = 2</text>
<text text-anchor="middle" x="946.5" y="-22.8" font-family="Times,serif" font-size="14.00">value = [0, 1, 1, 0]</text>
<text text-anchor="middle" x="946.5" y="-7.8" font-family="Times,serif" font-size="14.00">class = historical</text>
</g>
<!-- 18&#45;&gt;19 -->
<g id="edge19" class="edge"><title>18&#45;&gt;19</title>
<path fill="none" stroke="black" d="M958.204,-88.9485C956.619,-80.6238 954.91,-71.6509 953.301,-63.2027"/>
<polygon fill="black" stroke="black" points="956.712,-62.4052 951.402,-53.2367 949.835,-63.715 956.712,-62.4052"/>
</g>
<!-- 20 -->
<g id="node21" class="node"><title>20</title>
<polygon fill="#d739e5" stroke="black" points="1156,-53 1025,-53 1025,-0 1156,-0 1156,-53"/>
<text text-anchor="middle" x="1090.5" y="-37.8" font-family="Times,serif" font-size="14.00">samples = 3</text>
<text text-anchor="middle" x="1090.5" y="-22.8" font-family="Times,serif" font-size="14.00">value = [0, 0, 0, 3]</text>
<text text-anchor="middle" x="1090.5" y="-7.8" font-family="Times,serif" font-size="14.00">class = sociopolitical</text>
</g>
<!-- 18&#45;&gt;20 -->
<g id="edge20" class="edge"><title>18&#45;&gt;20</title>
<path fill="none" stroke="black" d="M1008.57,-88.9485C1021.38,-79.3431 1035.33,-68.8747 1048.04,-59.345"/>
<polygon fill="black" stroke="black" points="1050.28,-62.0368 1056.18,-53.2367 1046.08,-56.4367 1050.28,-62.0368"/>
</g>
<!-- 23 -->
<g id="node24" class="node"><title>23</title>
<polygon fill="#47e539" fill-opacity="0.847059" stroke="black" points="1567.5,-365 1377.5,-365 1377.5,-297 1567.5,-297 1567.5,-365"/>
<text text-anchor="middle" x="1472.5" y="-349.8" font-family="Times,serif" font-size="14.00">Anger_NRC_speech &lt;= 0.2148</text>
<text text-anchor="middle" x="1472.5" y="-334.8" font-family="Times,serif" font-size="14.00">samples = 29</text>
<text text-anchor="middle" x="1472.5" y="-319.8" font-family="Times,serif" font-size="14.00">value = [0, 25, 1, 3]</text>
<text text-anchor="middle" x="1472.5" y="-304.8" font-family="Times,serif" font-size="14.00">class = historical</text>
</g>
<!-- 22&#45;&gt;23 -->
<g id="edge23" class="edge"><title>22&#45;&gt;23</title>
<path fill="none" stroke="black" d="M1472.5,-400.884C1472.5,-392.778 1472.5,-383.982 1472.5,-375.472"/>
<polygon fill="black" stroke="black" points="1476,-375.299 1472.5,-365.299 1469,-375.299 1476,-375.299"/>
</g>
<!-- 32 -->
<g id="node33" class="node"><title>32</title>
<polygon fill="#399de5" fill-opacity="0.749020" stroke="black" points="1875.5,-365 1667.5,-365 1667.5,-297 1875.5,-297 1875.5,-365"/>
<text text-anchor="middle" x="1771.5" y="-349.8" font-family="Times,serif" font-size="14.00">narrated_neutral_NRC &lt;= 11.7297</text>
<text text-anchor="middle" x="1771.5" y="-334.8" font-family="Times,serif" font-size="14.00">samples = 5</text>
<text text-anchor="middle" x="1771.5" y="-319.8" font-family="Times,serif" font-size="14.00">value = [0, 1, 4, 0]</text>
<text text-anchor="middle" x="1771.5" y="-304.8" font-family="Times,serif" font-size="14.00">class = sentimental</text>
</g>
<!-- 22&#45;&gt;32 -->
<g id="edge32" class="edge"><title>22&#45;&gt;32</title>
<path fill="none" stroke="black" d="M1569.58,-400.884C1600.1,-390.472 1633.96,-378.922 1665.09,-368.301"/>
<polygon fill="black" stroke="black" points="1666.32,-371.579 1674.65,-365.038 1664.06,-364.954 1666.32,-371.579"/>
</g>
<!-- 24 -->
<g id="node25" class="node"><title>24</title>
<polygon fill="#d739e5" fill-opacity="0.333333" stroke="black" points="1467.5,-261 1313.5,-261 1313.5,-193 1467.5,-193 1467.5,-261"/>
<text text-anchor="middle" x="1390.5" y="-245.8" font-family="Times,serif" font-size="14.00">Disgust_NRC &lt;= 1.0108</text>
<text text-anchor="middle" x="1390.5" y="-230.8" font-family="Times,serif" font-size="14.00">samples = 4</text>
<text text-anchor="middle" x="1390.5" y="-215.8" font-family="Times,serif" font-size="14.00">value = [0, 1, 1, 2]</text>
<text text-anchor="middle" x="1390.5" y="-200.8" font-family="Times,serif" font-size="14.00">class = sociopolitical</text>
</g>
<!-- 23&#45;&gt;24 -->
<g id="edge24" class="edge"><title>23&#45;&gt;24</title>
<path fill="none" stroke="black" d="M1445.88,-296.884C1438.79,-288.065 1431.04,-278.43 1423.65,-269.235"/>
<polygon fill="black" stroke="black" points="1426.26,-266.9 1417.27,-261.299 1420.81,-271.286 1426.26,-266.9"/>
</g>
<!-- 29 -->
<g id="node30" class="node"><title>29</title>
<polygon fill="#47e539" fill-opacity="0.956863" stroke="black" points="1693.5,-261 1485.5,-261 1485.5,-193 1693.5,-193 1693.5,-261"/>
<text text-anchor="middle" x="1589.5" y="-245.8" font-family="Times,serif" font-size="14.00">narrated_neutral_NRC &lt;= 30.9469</text>
<text text-anchor="middle" x="1589.5" y="-230.8" font-family="Times,serif" font-size="14.00">samples = 25</text>
<text text-anchor="middle" x="1589.5" y="-215.8" font-family="Times,serif" font-size="14.00">value = [0, 24, 0, 1]</text>
<text text-anchor="middle" x="1589.5" y="-200.8" font-family="Times,serif" font-size="14.00">class = historical</text>
</g>
<!-- 23&#45;&gt;29 -->
<g id="edge29" class="edge"><title>23&#45;&gt;29</title>
<path fill="none" stroke="black" d="M1510.49,-296.884C1521.01,-287.709 1532.55,-277.65 1543.48,-268.123"/>
<polygon fill="black" stroke="black" points="1546.07,-270.509 1551.3,-261.299 1541.47,-265.233 1546.07,-270.509"/>
</g>
<!-- 25 -->
<g id="node26" class="node"><title>25</title>
<polygon fill="none" stroke="black" points="1359,-157 1228,-157 1228,-89 1359,-89 1359,-157"/>
<text text-anchor="middle" x="1293.5" y="-141.8" font-family="Times,serif" font-size="14.00">Joy_NRC &lt;= 2.0007</text>
<text text-anchor="middle" x="1293.5" y="-126.8" font-family="Times,serif" font-size="14.00">samples = 2</text>
<text text-anchor="middle" x="1293.5" y="-111.8" font-family="Times,serif" font-size="14.00">value = [0, 1, 1, 0]</text>
<text text-anchor="middle" x="1293.5" y="-96.8" font-family="Times,serif" font-size="14.00">class = historical</text>
</g>
<!-- 24&#45;&gt;25 -->
<g id="edge25" class="edge"><title>24&#45;&gt;25</title>
<path fill="none" stroke="black" d="M1359.01,-192.884C1350.45,-183.887 1341.09,-174.041 1332.18,-164.678"/>
<polygon fill="black" stroke="black" points="1334.59,-162.134 1325.17,-157.299 1329.52,-166.958 1334.59,-162.134"/>
</g>
<!-- 28 -->
<g id="node29" class="node"><title>28</title>
<polygon fill="#d739e5" stroke="black" points="1508,-149.5 1377,-149.5 1377,-96.5 1508,-96.5 1508,-149.5"/>
<text text-anchor="middle" x="1442.5" y="-134.3" font-family="Times,serif" font-size="14.00">samples = 2</text>
<text text-anchor="middle" x="1442.5" y="-119.3" font-family="Times,serif" font-size="14.00">value = [0, 0, 0, 2]</text>
<text text-anchor="middle" x="1442.5" y="-104.3" font-family="Times,serif" font-size="14.00">class = sociopolitical</text>
</g>
<!-- 24&#45;&gt;28 -->
<g id="edge28" class="edge"><title>24&#45;&gt;28</title>
<path fill="none" stroke="black" d="M1407.38,-192.884C1412.99,-181.886 1419.24,-169.617 1424.9,-158.517"/>
<polygon fill="black" stroke="black" points="1428.07,-160.019 1429.49,-149.52 1421.83,-156.839 1428.07,-160.019"/>
</g>
<!-- 26 -->
<g id="node27" class="node"><title>26</title>
<polygon fill="#47e539" stroke="black" points="1323.5,-53 1203.5,-53 1203.5,-0 1323.5,-0 1323.5,-53"/>
<text text-anchor="middle" x="1263.5" y="-37.8" font-family="Times,serif" font-size="14.00">samples = 1</text>
<text text-anchor="middle" x="1263.5" y="-22.8" font-family="Times,serif" font-size="14.00">value = [0, 1, 0, 0]</text>
<text text-anchor="middle" x="1263.5" y="-7.8" font-family="Times,serif" font-size="14.00">class = historical</text>
</g>
<!-- 25&#45;&gt;26 -->
<g id="edge26" class="edge"><title>25&#45;&gt;26</title>
<path fill="none" stroke="black" d="M1283.01,-88.9485C1280.34,-80.5323 1277.45,-71.4536 1274.75,-62.9243"/>
<polygon fill="black" stroke="black" points="1278.03,-61.7089 1271.67,-53.2367 1271.36,-63.827 1278.03,-61.7089"/>
</g>
<!-- 27 -->
<g id="node28" class="node"><title>27</title>
<polygon fill="#399de5" stroke="black" points="1463.5,-53 1341.5,-53 1341.5,-0 1463.5,-0 1463.5,-53"/>
<text text-anchor="middle" x="1402.5" y="-37.8" font-family="Times,serif" font-size="14.00">samples = 1</text>
<text text-anchor="middle" x="1402.5" y="-22.8" font-family="Times,serif" font-size="14.00">value = [0, 0, 1, 0]</text>
<text text-anchor="middle" x="1402.5" y="-7.8" font-family="Times,serif" font-size="14.00">class = sentimental</text>
</g>
<!-- 25&#45;&gt;27 -->
<g id="edge27" class="edge"><title>25&#45;&gt;27</title>
<path fill="none" stroke="black" d="M1331.62,-88.9485C1342.49,-79.526 1354.32,-69.2731 1365.14,-59.8906"/>
<polygon fill="black" stroke="black" points="1367.55,-62.4319 1372.81,-53.2367 1362.97,-57.1428 1367.55,-62.4319"/>
</g>
<!-- 30 -->
<g id="node31" class="node"><title>30</title>
<polygon fill="#47e539" stroke="black" points="1653,-149.5 1526,-149.5 1526,-96.5 1653,-96.5 1653,-149.5"/>
<text text-anchor="middle" x="1589.5" y="-134.3" font-family="Times,serif" font-size="14.00">samples = 24</text>
<text text-anchor="middle" x="1589.5" y="-119.3" font-family="Times,serif" font-size="14.00">value = [0, 24, 0, 0]</text>
<text text-anchor="middle" x="1589.5" y="-104.3" font-family="Times,serif" font-size="14.00">class = historical</text>
</g>
<!-- 29&#45;&gt;30 -->
<g id="edge30" class="edge"><title>29&#45;&gt;30</title>
<path fill="none" stroke="black" d="M1589.5,-192.884C1589.5,-182.326 1589.5,-170.597 1589.5,-159.854"/>
<polygon fill="black" stroke="black" points="1593,-159.52 1589.5,-149.52 1586,-159.52 1593,-159.52"/>
</g>
<!-- 31 -->
<g id="node32" class="node"><title>31</title>
<polygon fill="#d739e5" stroke="black" points="1802,-149.5 1671,-149.5 1671,-96.5 1802,-96.5 1802,-149.5"/>
<text text-anchor="middle" x="1736.5" y="-134.3" font-family="Times,serif" font-size="14.00">samples = 1</text>
<text text-anchor="middle" x="1736.5" y="-119.3" font-family="Times,serif" font-size="14.00">value = [0, 0, 0, 1]</text>
<text text-anchor="middle" x="1736.5" y="-104.3" font-family="Times,serif" font-size="14.00">class = sociopolitical</text>
</g>
<!-- 29&#45;&gt;31 -->
<g id="edge31" class="edge"><title>29&#45;&gt;31</title>
<path fill="none" stroke="black" d="M1637.23,-192.884C1654.66,-180.786 1674.31,-167.151 1691.5,-155.224"/>
<polygon fill="black" stroke="black" points="1693.5,-158.096 1699.72,-149.52 1689.51,-152.345 1693.5,-158.096"/>
</g>
<!-- 33 -->
<g id="node34" class="node"><title>33</title>
<polygon fill="#47e539" stroke="black" points="1831.5,-253.5 1711.5,-253.5 1711.5,-200.5 1831.5,-200.5 1831.5,-253.5"/>
<text text-anchor="middle" x="1771.5" y="-238.3" font-family="Times,serif" font-size="14.00">samples = 1</text>
<text text-anchor="middle" x="1771.5" y="-223.3" font-family="Times,serif" font-size="14.00">value = [0, 1, 0, 0]</text>
<text text-anchor="middle" x="1771.5" y="-208.3" font-family="Times,serif" font-size="14.00">class = historical</text>
</g>
<!-- 32&#45;&gt;33 -->
<g id="edge33" class="edge"><title>32&#45;&gt;33</title>
<path fill="none" stroke="black" d="M1771.5,-296.884C1771.5,-286.326 1771.5,-274.597 1771.5,-263.854"/>
<polygon fill="black" stroke="black" points="1775,-263.52 1771.5,-253.52 1768,-263.52 1775,-263.52"/>
</g>
<!-- 34 -->
<g id="node35" class="node"><title>34</title>
<polygon fill="#399de5" stroke="black" points="1971.5,-253.5 1849.5,-253.5 1849.5,-200.5 1971.5,-200.5 1971.5,-253.5"/>
<text text-anchor="middle" x="1910.5" y="-238.3" font-family="Times,serif" font-size="14.00">samples = 4</text>
<text text-anchor="middle" x="1910.5" y="-223.3" font-family="Times,serif" font-size="14.00">value = [0, 0, 4, 0]</text>
<text text-anchor="middle" x="1910.5" y="-208.3" font-family="Times,serif" font-size="14.00">class = sentimental</text>
</g>
<!-- 32&#45;&gt;34 -->
<g id="edge34" class="edge"><title>32&#45;&gt;34</title>
<path fill="none" stroke="black" d="M1816.63,-296.884C1832.97,-284.896 1851.36,-271.399 1867.51,-259.549"/>
<polygon fill="black" stroke="black" points="1869.73,-262.258 1875.72,-253.52 1865.59,-256.614 1869.73,-262.258"/>
</g>
</g>
</svg>
