<?xml version="1.0" encoding="UTF-8" standalone="no"?>
<!DOCTYPE svg PUBLIC "-//W3C//DTD SVG 1.1//EN"
 "http://www.w3.org/Graphics/SVG/1.1/DTD/svg11.dtd">
<!-- Generated by graphviz version 2.38.0 (20140413.2041)
 -->
<!-- Title: Tree Pages: 1 -->
<svg width="1826pt" height="685pt"
 viewBox="0.00 0.00 1826.00 685.00" xmlns="http://www.w3.org/2000/svg" xmlns:xlink="http://www.w3.org/1999/xlink">
<g id="graph0" class="graph" transform="scale(1 1) rotate(0) translate(4 681)">
<title>Tree</title>
<polygon fill="white" stroke="none" points="-4,4 -4,-681 1822,-681 1822,4 -4,4"/>
<!-- 0 -->
<g id="node1" class="node"><title>0</title>
<polygon fill="#39e581" fill-opacity="0.054902" stroke="black" points="1007,-677 825,-677 825,-609 1007,-609 1007,-677"/>
<text text-anchor="middle" x="916" y="-661.8" font-family="Times,serif" font-size="14.00">Joy_NRC_narrated &lt;= 1.4807</text>
<text text-anchor="middle" x="916" y="-646.8" font-family="Times,serif" font-size="14.00">samples = 112</text>
<text text-anchor="middle" x="916" y="-631.8" font-family="Times,serif" font-size="14.00">value = [41, 45, 26]</text>
<text text-anchor="middle" x="916" y="-616.8" font-family="Times,serif" font-size="14.00">class = 0.5</text>
</g>
<!-- 1 -->
<g id="node2" class="node"><title>1</title>
<polygon fill="#e58139" fill-opacity="0.490196" stroke="black" points="900,-573 710,-573 710,-505 900,-505 900,-573"/>
<text text-anchor="middle" x="805" y="-557.8" font-family="Times,serif" font-size="14.00">Anger_NRC_speech &lt;= 1.3037</text>
<text text-anchor="middle" x="805" y="-542.8" font-family="Times,serif" font-size="14.00">samples = 58</text>
<text text-anchor="middle" x="805" y="-527.8" font-family="Times,serif" font-size="14.00">value = [35, 13, 10]</text>
<text text-anchor="middle" x="805" y="-512.8" font-family="Times,serif" font-size="14.00">class = 0.0</text>
</g>
<!-- 0&#45;&gt;1 -->
<g id="edge1" class="edge"><title>0&#45;&gt;1</title>
<path fill="none" stroke="black" d="M879.961,-608.884C869.977,-599.709 859.031,-589.65 848.663,-580.123"/>
<polygon fill="black" stroke="black" points="850.969,-577.488 841.238,-573.299 846.233,-582.643 850.969,-577.488"/>
<text text-anchor="middle" x="842.293" y="-594.577" font-family="Times,serif" font-size="14.00">True</text>
</g>
<!-- 20 -->
<g id="node21" class="node"><title>20</title>
<polygon fill="#39e581" fill-opacity="0.419608" stroke="black" points="1088,-573 966,-573 966,-505 1088,-505 1088,-573"/>
<text text-anchor="middle" x="1027" y="-557.8" font-family="Times,serif" font-size="14.00">narrated &lt;= 46.462</text>
<text text-anchor="middle" x="1027" y="-542.8" font-family="Times,serif" font-size="14.00">samples = 54</text>
<text text-anchor="middle" x="1027" y="-527.8" font-family="Times,serif" font-size="14.00">value = [6, 32, 16]</text>
<text text-anchor="middle" x="1027" y="-512.8" font-family="Times,serif" font-size="14.00">class = 0.5</text>
</g>
<!-- 0&#45;&gt;20 -->
<g id="edge20" class="edge"><title>0&#45;&gt;20</title>
<path fill="none" stroke="black" d="M952.039,-608.884C962.023,-599.709 972.969,-589.65 983.337,-580.123"/>
<polygon fill="black" stroke="black" points="985.767,-582.643 990.762,-573.299 981.031,-577.488 985.767,-582.643"/>
<text text-anchor="middle" x="989.707" y="-594.577" font-family="Times,serif" font-size="14.00">False</text>
</g>
<!-- 2 -->
<g id="node3" class="node"><title>2</title>
<polygon fill="#e58139" fill-opacity="0.588235" stroke="black" points="663,-469 509,-469 509,-401 663,-401 663,-469"/>
<text text-anchor="middle" x="586" y="-453.8" font-family="Times,serif" font-size="14.00">Disgust_NRC &lt;= 2.3166</text>
<text text-anchor="middle" x="586" y="-438.8" font-family="Times,serif" font-size="14.00">samples = 51</text>
<text text-anchor="middle" x="586" y="-423.8" font-family="Times,serif" font-size="14.00">value = [35, 12, 4]</text>
<text text-anchor="middle" x="586" y="-408.8" font-family="Times,serif" font-size="14.00">class = 0.0</text>
</g>
<!-- 1&#45;&gt;2 -->
<g id="edge2" class="edge"><title>1&#45;&gt;2</title>
<path fill="none" stroke="black" d="M733.897,-504.884C712.368,-494.856 688.572,-483.773 666.475,-473.482"/>
<polygon fill="black" stroke="black" points="667.664,-470.174 657.121,-469.125 664.708,-476.52 667.664,-470.174"/>
</g>
<!-- 17 -->
<g id="node18" class="node"><title>17</title>
<polygon fill="#8139e5" fill-opacity="0.831373" stroke="black" points="900,-469 710,-469 710,-401 900,-401 900,-469"/>
<text text-anchor="middle" x="805" y="-453.8" font-family="Times,serif" font-size="14.00">Anger_NRC_speech &lt;= 2.7711</text>
<text text-anchor="middle" x="805" y="-438.8" font-family="Times,serif" font-size="14.00">samples = 7</text>
<text text-anchor="middle" x="805" y="-423.8" font-family="Times,serif" font-size="14.00">value = [0, 1, 6]</text>
<text text-anchor="middle" x="805" y="-408.8" font-family="Times,serif" font-size="14.00">class = 1.0</text>
</g>
<!-- 1&#45;&gt;17 -->
<g id="edge17" class="edge"><title>1&#45;&gt;17</title>
<path fill="none" stroke="black" d="M805,-504.884C805,-496.778 805,-487.982 805,-479.472"/>
<polygon fill="black" stroke="black" points="808.5,-479.299 805,-469.299 801.5,-479.299 808.5,-479.299"/>
</g>
<!-- 3 -->
<g id="node4" class="node"><title>3</title>
<polygon fill="#e58139" fill-opacity="0.666667" stroke="black" points="515,-365 369,-365 369,-297 515,-297 515,-365"/>
<text text-anchor="middle" x="442" y="-349.8" font-family="Times,serif" font-size="14.00">Anger_NRC &lt;= 1.2476</text>
<text text-anchor="middle" x="442" y="-334.8" font-family="Times,serif" font-size="14.00">samples = 48</text>
<text text-anchor="middle" x="442" y="-319.8" font-family="Times,serif" font-size="14.00">value = [35, 9, 4]</text>
<text text-anchor="middle" x="442" y="-304.8" font-family="Times,serif" font-size="14.00">class = 0.0</text>
</g>
<!-- 2&#45;&gt;3 -->
<g id="edge3" class="edge"><title>2&#45;&gt;3</title>
<path fill="none" stroke="black" d="M539.247,-400.884C525.918,-391.442 511.266,-381.064 497.471,-371.292"/>
<polygon fill="black" stroke="black" points="499.194,-368.223 489.011,-365.299 495.148,-373.936 499.194,-368.223"/>
</g>
<!-- 16 -->
<g id="node17" class="node"><title>16</title>
<polygon fill="#39e581" stroke="black" points="639,-357.5 533,-357.5 533,-304.5 639,-304.5 639,-357.5"/>
<text text-anchor="middle" x="586" y="-342.3" font-family="Times,serif" font-size="14.00">samples = 3</text>
<text text-anchor="middle" x="586" y="-327.3" font-family="Times,serif" font-size="14.00">value = [0, 3, 0]</text>
<text text-anchor="middle" x="586" y="-312.3" font-family="Times,serif" font-size="14.00">class = 0.5</text>
</g>
<!-- 2&#45;&gt;16 -->
<g id="edge16" class="edge"><title>2&#45;&gt;16</title>
<path fill="none" stroke="black" d="M586,-400.884C586,-390.326 586,-378.597 586,-367.854"/>
<polygon fill="black" stroke="black" points="589.5,-367.52 586,-357.52 582.5,-367.52 589.5,-367.52"/>
</g>
<!-- 4 -->
<g id="node5" class="node"><title>4</title>
<polygon fill="none" stroke="black" points="322.5,-261 125.5,-261 125.5,-193 322.5,-193 322.5,-261"/>
<text text-anchor="middle" x="224" y="-245.8" font-family="Times,serif" font-size="14.00">Anger_NRC_narrated &lt;= 0.1075</text>
<text text-anchor="middle" x="224" y="-230.8" font-family="Times,serif" font-size="14.00">samples = 11</text>
<text text-anchor="middle" x="224" y="-215.8" font-family="Times,serif" font-size="14.00">value = [4, 4, 3]</text>
<text text-anchor="middle" x="224" y="-200.8" font-family="Times,serif" font-size="14.00">class = 0.0</text>
</g>
<!-- 3&#45;&gt;4 -->
<g id="edge4" class="edge"><title>3&#45;&gt;4</title>
<path fill="none" stroke="black" d="M371.222,-296.884C349.791,-286.856 326.103,-275.773 304.108,-265.482"/>
<polygon fill="black" stroke="black" points="305.337,-262.193 294.796,-261.125 302.37,-268.533 305.337,-262.193"/>
</g>
<!-- 9 -->
<g id="node10" class="node"><title>9</title>
<polygon fill="#e58139" fill-opacity="0.811765" stroke="black" points="571.5,-261 340.5,-261 340.5,-193 571.5,-193 571.5,-261"/>
<text text-anchor="middle" x="456" y="-245.8" font-family="Times,serif" font-size="14.00">Anticipation_NRC_narrated &lt;= 6.8204</text>
<text text-anchor="middle" x="456" y="-230.8" font-family="Times,serif" font-size="14.00">samples = 37</text>
<text text-anchor="middle" x="456" y="-215.8" font-family="Times,serif" font-size="14.00">value = [31, 5, 1]</text>
<text text-anchor="middle" x="456" y="-200.8" font-family="Times,serif" font-size="14.00">class = 0.0</text>
</g>
<!-- 3&#45;&gt;9 -->
<g id="edge9" class="edge"><title>3&#45;&gt;9</title>
<path fill="none" stroke="black" d="M446.545,-296.884C447.658,-288.778 448.865,-279.982 450.033,-271.472"/>
<polygon fill="black" stroke="black" points="453.537,-271.682 451.429,-261.299 446.602,-270.731 453.537,-271.682"/>
</g>
<!-- 5 -->
<g id="node6" class="node"><title>5</title>
<polygon fill="#e58139" stroke="black" points="106,-149.5 7.10543e-15,-149.5 7.10543e-15,-96.5 106,-96.5 106,-149.5"/>
<text text-anchor="middle" x="53" y="-134.3" font-family="Times,serif" font-size="14.00">samples = 4</text>
<text text-anchor="middle" x="53" y="-119.3" font-family="Times,serif" font-size="14.00">value = [4, 0, 0]</text>
<text text-anchor="middle" x="53" y="-104.3" font-family="Times,serif" font-size="14.00">class = 0.0</text>
</g>
<!-- 4&#45;&gt;5 -->
<g id="edge5" class="edge"><title>4&#45;&gt;5</title>
<path fill="none" stroke="black" d="M168.481,-192.884C147.923,-180.621 124.718,-166.779 104.529,-154.737"/>
<polygon fill="black" stroke="black" points="106.165,-151.637 95.7834,-149.52 102.579,-157.649 106.165,-151.637"/>
</g>
<!-- 6 -->
<g id="node7" class="node"><title>6</title>
<polygon fill="#39e581" fill-opacity="0.250980" stroke="black" points="328.5,-157 123.5,-157 123.5,-89 328.5,-89 328.5,-157"/>
<text text-anchor="middle" x="226" y="-141.8" font-family="Times,serif" font-size="14.00">Disgust_NRC_narrated &lt;= 0.2302</text>
<text text-anchor="middle" x="226" y="-126.8" font-family="Times,serif" font-size="14.00">samples = 7</text>
<text text-anchor="middle" x="226" y="-111.8" font-family="Times,serif" font-size="14.00">value = [0, 4, 3]</text>
<text text-anchor="middle" x="226" y="-96.8" font-family="Times,serif" font-size="14.00">class = 0.5</text>
</g>
<!-- 4&#45;&gt;6 -->
<g id="edge6" class="edge"><title>4&#45;&gt;6</title>
<path fill="none" stroke="black" d="M224.649,-192.884C224.808,-184.778 224.981,-175.982 225.148,-167.472"/>
<polygon fill="black" stroke="black" points="228.65,-167.366 225.347,-157.299 221.652,-167.229 228.65,-167.366"/>
</g>
<!-- 7 -->
<g id="node8" class="node"><title>7</title>
<polygon fill="#8139e5" stroke="black" points="164,-53 58,-53 58,-0 164,-0 164,-53"/>
<text text-anchor="middle" x="111" y="-37.8" font-family="Times,serif" font-size="14.00">samples = 3</text>
<text text-anchor="middle" x="111" y="-22.8" font-family="Times,serif" font-size="14.00">value = [0, 0, 3]</text>
<text text-anchor="middle" x="111" y="-7.8" font-family="Times,serif" font-size="14.00">class = 1.0</text>
</g>
<!-- 6&#45;&gt;7 -->
<g id="edge7" class="edge"><title>6&#45;&gt;7</title>
<path fill="none" stroke="black" d="M185.779,-88.9485C174.201,-79.4346 161.593,-69.074 150.085,-59.6175"/>
<polygon fill="black" stroke="black" points="152.268,-56.8814 142.32,-53.2367 147.824,-62.2897 152.268,-56.8814"/>
</g>
<!-- 8 -->
<g id="node9" class="node"><title>8</title>
<polygon fill="#39e581" stroke="black" points="288,-53 182,-53 182,-0 288,-0 288,-53"/>
<text text-anchor="middle" x="235" y="-37.8" font-family="Times,serif" font-size="14.00">samples = 4</text>
<text text-anchor="middle" x="235" y="-22.8" font-family="Times,serif" font-size="14.00">value = [0, 4, 0]</text>
<text text-anchor="middle" x="235" y="-7.8" font-family="Times,serif" font-size="14.00">class = 0.5</text>
</g>
<!-- 6&#45;&gt;8 -->
<g id="edge8" class="edge"><title>6&#45;&gt;8</title>
<path fill="none" stroke="black" d="M229.148,-88.9485C229.941,-80.6238 230.795,-71.6509 231.6,-63.2027"/>
<polygon fill="black" stroke="black" points="235.085,-63.5235 232.549,-53.2367 228.116,-62.8598 235.085,-63.5235"/>
</g>
<!-- 10 -->
<g id="node11" class="node"><title>10</title>
<polygon fill="#e58139" fill-opacity="0.901961" stroke="black" points="557.5,-157 350.5,-157 350.5,-89 557.5,-89 557.5,-157"/>
<text text-anchor="middle" x="454" y="-141.8" font-family="Times,serif" font-size="14.00">Sadness_NRC_narrated &lt;= 9.3723</text>
<text text-anchor="middle" x="454" y="-126.8" font-family="Times,serif" font-size="14.00">samples = 33</text>
<text text-anchor="middle" x="454" y="-111.8" font-family="Times,serif" font-size="14.00">value = [30, 3, 0]</text>
<text text-anchor="middle" x="454" y="-96.8" font-family="Times,serif" font-size="14.00">class = 0.0</text>
</g>
<!-- 9&#45;&gt;10 -->
<g id="edge10" class="edge"><title>9&#45;&gt;10</title>
<path fill="none" stroke="black" d="M455.351,-192.884C455.192,-184.778 455.019,-175.982 454.852,-167.472"/>
<polygon fill="black" stroke="black" points="458.348,-167.229 454.653,-157.299 451.35,-167.366 458.348,-167.229"/>
</g>
<!-- 13 -->
<g id="node14" class="node"><title>13</title>
<polygon fill="#39e581" fill-opacity="0.333333" stroke="black" points="784.5,-157 575.5,-157 575.5,-89 784.5,-89 784.5,-157"/>
<text text-anchor="middle" x="680" y="-141.8" font-family="Times,serif" font-size="14.00">Surprise_NRC_narrated &lt;= 0.6846</text>
<text text-anchor="middle" x="680" y="-126.8" font-family="Times,serif" font-size="14.00">samples = 4</text>
<text text-anchor="middle" x="680" y="-111.8" font-family="Times,serif" font-size="14.00">value = [1, 2, 1]</text>
<text text-anchor="middle" x="680" y="-96.8" font-family="Times,serif" font-size="14.00">class = 0.5</text>
</g>
<!-- 9&#45;&gt;13 -->
<g id="edge13" class="edge"><title>9&#45;&gt;13</title>
<path fill="none" stroke="black" d="M528.726,-192.884C550.845,-182.812 575.304,-171.674 597.99,-161.344"/>
<polygon fill="black" stroke="black" points="599.605,-164.454 607.255,-157.125 596.704,-158.084 599.605,-164.454"/>
</g>
<!-- 11 -->
<g id="node12" class="node"><title>11</title>
<polygon fill="#e58139" fill-opacity="0.964706" stroke="black" points="437.5,-53 324.5,-53 324.5,-0 437.5,-0 437.5,-53"/>
<text text-anchor="middle" x="381" y="-37.8" font-family="Times,serif" font-size="14.00">samples = 30</text>
<text text-anchor="middle" x="381" y="-22.8" font-family="Times,serif" font-size="14.00">value = [29, 1, 0]</text>
<text text-anchor="middle" x="381" y="-7.8" font-family="Times,serif" font-size="14.00">class = 0.0</text>
</g>
<!-- 10&#45;&gt;11 -->
<g id="edge11" class="edge"><title>10&#45;&gt;11</title>
<path fill="none" stroke="black" d="M428.468,-88.9485C421.543,-79.9834 414.037,-70.2666 407.081,-61.2629"/>
<polygon fill="black" stroke="black" points="409.764,-59.0108 400.881,-53.2367 404.225,-63.2902 409.764,-59.0108"/>
</g>
<!-- 12 -->
<g id="node13" class="node"><title>12</title>
<polygon fill="#39e581" fill-opacity="0.498039" stroke="black" points="562,-53 456,-53 456,-0 562,-0 562,-53"/>
<text text-anchor="middle" x="509" y="-37.8" font-family="Times,serif" font-size="14.00">samples = 3</text>
<text text-anchor="middle" x="509" y="-22.8" font-family="Times,serif" font-size="14.00">value = [1, 2, 0]</text>
<text text-anchor="middle" x="509" y="-7.8" font-family="Times,serif" font-size="14.00">class = 0.5</text>
</g>
<!-- 10&#45;&gt;12 -->
<g id="edge12" class="edge"><title>10&#45;&gt;12</title>
<path fill="none" stroke="black" d="M473.236,-88.9485C478.294,-80.2579 483.764,-70.8608 488.867,-62.0917"/>
<polygon fill="black" stroke="black" points="492.016,-63.6401 494.021,-53.2367 485.966,-60.1189 492.016,-63.6401"/>
</g>
<!-- 14 -->
<g id="node15" class="node"><title>14</title>
<polygon fill="#39e581" stroke="black" points="723,-53 617,-53 617,-0 723,-0 723,-53"/>
<text text-anchor="middle" x="670" y="-37.8" font-family="Times,serif" font-size="14.00">samples = 2</text>
<text text-anchor="middle" x="670" y="-22.8" font-family="Times,serif" font-size="14.00">value = [0, 2, 0]</text>
<text text-anchor="middle" x="670" y="-7.8" font-family="Times,serif" font-size="14.00">class = 0.5</text>
</g>
<!-- 13&#45;&gt;14 -->
<g id="edge14" class="edge"><title>13&#45;&gt;14</title>
<path fill="none" stroke="black" d="M676.502,-88.9485C675.622,-80.6238 674.672,-71.6509 673.778,-63.2027"/>
<polygon fill="black" stroke="black" points="677.256,-62.8128 672.723,-53.2367 670.295,-63.5495 677.256,-62.8128"/>
</g>
<!-- 15 -->
<g id="node16" class="node"><title>15</title>
<polygon fill="none" stroke="black" points="847,-53 741,-53 741,-0 847,-0 847,-53"/>
<text text-anchor="middle" x="794" y="-37.8" font-family="Times,serif" font-size="14.00">samples = 2</text>
<text text-anchor="middle" x="794" y="-22.8" font-family="Times,serif" font-size="14.00">value = [1, 0, 1]</text>
<text text-anchor="middle" x="794" y="-7.8" font-family="Times,serif" font-size="14.00">class = 0.0</text>
</g>
<!-- 13&#45;&gt;15 -->
<g id="edge15" class="edge"><title>13&#45;&gt;15</title>
<path fill="none" stroke="black" d="M719.872,-88.9485C731.238,-79.526 743.607,-69.2731 754.926,-59.8906"/>
<polygon fill="black" stroke="black" points="757.487,-62.3132 762.953,-53.2367 753.02,-56.924 757.487,-62.3132"/>
</g>
<!-- 18 -->
<g id="node19" class="node"><title>18</title>
<polygon fill="#8139e5" stroke="black" points="763,-357.5 657,-357.5 657,-304.5 763,-304.5 763,-357.5"/>
<text text-anchor="middle" x="710" y="-342.3" font-family="Times,serif" font-size="14.00">samples = 6</text>
<text text-anchor="middle" x="710" y="-327.3" font-family="Times,serif" font-size="14.00">value = [0, 0, 6]</text>
<text text-anchor="middle" x="710" y="-312.3" font-family="Times,serif" font-size="14.00">class = 1.0</text>
</g>
<!-- 17&#45;&gt;18 -->
<g id="edge18" class="edge"><title>17&#45;&gt;18</title>
<path fill="none" stroke="black" d="M774.156,-400.884C763.401,-389.336 751.341,-376.387 740.605,-364.86"/>
<polygon fill="black" stroke="black" points="743.145,-362.452 733.769,-357.52 738.023,-367.223 743.145,-362.452"/>
</g>
<!-- 19 -->
<g id="node20" class="node"><title>19</title>
<polygon fill="#39e581" stroke="black" points="887,-357.5 781,-357.5 781,-304.5 887,-304.5 887,-357.5"/>
<text text-anchor="middle" x="834" y="-342.3" font-family="Times,serif" font-size="14.00">samples = 1</text>
<text text-anchor="middle" x="834" y="-327.3" font-family="Times,serif" font-size="14.00">value = [0, 1, 0]</text>
<text text-anchor="middle" x="834" y="-312.3" font-family="Times,serif" font-size="14.00">class = 0.5</text>
</g>
<!-- 17&#45;&gt;19 -->
<g id="edge19" class="edge"><title>17&#45;&gt;19</title>
<path fill="none" stroke="black" d="M814.415,-400.884C817.48,-390.106 820.891,-378.108 823.997,-367.184"/>
<polygon fill="black" stroke="black" points="827.376,-368.096 826.744,-357.52 820.643,-366.182 827.376,-368.096"/>
</g>
<!-- 21 -->
<g id="node22" class="node"><title>21</title>
<polygon fill="#8139e5" fill-opacity="0.890196" stroke="black" points="1106,-469 948,-469 948,-401 1106,-401 1106,-469"/>
<text text-anchor="middle" x="1027" y="-453.8" font-family="Times,serif" font-size="14.00">negative_NRC &lt;= 4.4184</text>
<text text-anchor="middle" x="1027" y="-438.8" font-family="Times,serif" font-size="14.00">samples = 10</text>
<text text-anchor="middle" x="1027" y="-423.8" font-family="Times,serif" font-size="14.00">value = [1, 0, 9]</text>
<text text-anchor="middle" x="1027" y="-408.8" font-family="Times,serif" font-size="14.00">class = 1.0</text>
</g>
<!-- 20&#45;&gt;21 -->
<g id="edge21" class="edge"><title>20&#45;&gt;21</title>
<path fill="none" stroke="black" d="M1027,-504.884C1027,-496.778 1027,-487.982 1027,-479.472"/>
<polygon fill="black" stroke="black" points="1030.5,-479.299 1027,-469.299 1023.5,-479.299 1030.5,-479.299"/>
</g>
<!-- 24 -->
<g id="node25" class="node"><title>24</title>
<polygon fill="#39e581" fill-opacity="0.674510" stroke="black" points="1289,-469 1155,-469 1155,-401 1289,-401 1289,-469"/>
<text text-anchor="middle" x="1222" y="-453.8" font-family="Times,serif" font-size="14.00">Trust_NRC &lt;= 13.67</text>
<text text-anchor="middle" x="1222" y="-438.8" font-family="Times,serif" font-size="14.00">samples = 44</text>
<text text-anchor="middle" x="1222" y="-423.8" font-family="Times,serif" font-size="14.00">value = [5, 32, 7]</text>
<text text-anchor="middle" x="1222" y="-408.8" font-family="Times,serif" font-size="14.00">class = 0.5</text>
</g>
<!-- 20&#45;&gt;24 -->
<g id="edge24" class="edge"><title>20&#45;&gt;24</title>
<path fill="none" stroke="black" d="M1088.16,-506.006C1107.72,-495.777 1129.55,-484.357 1149.82,-473.757"/>
<polygon fill="black" stroke="black" points="1151.46,-476.848 1158.7,-469.112 1148.22,-470.645 1151.46,-476.848"/>
</g>
<!-- 22 -->
<g id="node23" class="node"><title>22</title>
<polygon fill="#e58139" stroke="black" points="1011,-357.5 905,-357.5 905,-304.5 1011,-304.5 1011,-357.5"/>
<text text-anchor="middle" x="958" y="-342.3" font-family="Times,serif" font-size="14.00">samples = 1</text>
<text text-anchor="middle" x="958" y="-327.3" font-family="Times,serif" font-size="14.00">value = [1, 0, 0]</text>
<text text-anchor="middle" x="958" y="-312.3" font-family="Times,serif" font-size="14.00">class = 0.0</text>
</g>
<!-- 21&#45;&gt;22 -->
<g id="edge22" class="edge"><title>21&#45;&gt;22</title>
<path fill="none" stroke="black" d="M1004.6,-400.884C997.009,-389.666 988.527,-377.126 980.9,-365.852"/>
<polygon fill="black" stroke="black" points="983.766,-363.842 975.263,-357.52 977.968,-367.764 983.766,-363.842"/>
</g>
<!-- 23 -->
<g id="node24" class="node"><title>23</title>
<polygon fill="#8139e5" stroke="black" points="1135,-357.5 1029,-357.5 1029,-304.5 1135,-304.5 1135,-357.5"/>
<text text-anchor="middle" x="1082" y="-342.3" font-family="Times,serif" font-size="14.00">samples = 9</text>
<text text-anchor="middle" x="1082" y="-327.3" font-family="Times,serif" font-size="14.00">value = [0, 0, 9]</text>
<text text-anchor="middle" x="1082" y="-312.3" font-family="Times,serif" font-size="14.00">class = 1.0</text>
</g>
<!-- 21&#45;&gt;23 -->
<g id="edge23" class="edge"><title>21&#45;&gt;23</title>
<path fill="none" stroke="black" d="M1044.86,-400.884C1050.79,-389.886 1057.4,-377.617 1063.39,-366.517"/>
<polygon fill="black" stroke="black" points="1066.57,-367.983 1068.24,-357.52 1060.41,-364.661 1066.57,-367.983"/>
</g>
<!-- 25 -->
<g id="node26" class="node"><title>25</title>
<polygon fill="#39e581" fill-opacity="0.878431" stroke="black" points="1290.5,-365 1153.5,-365 1153.5,-297 1290.5,-297 1290.5,-365"/>
<text text-anchor="middle" x="1222" y="-349.8" font-family="Times,serif" font-size="14.00">Fear_NRC &lt;= 8.7387</text>
<text text-anchor="middle" x="1222" y="-334.8" font-family="Times,serif" font-size="14.00">samples = 27</text>
<text text-anchor="middle" x="1222" y="-319.8" font-family="Times,serif" font-size="14.00">value = [2, 24, 1]</text>
<text text-anchor="middle" x="1222" y="-304.8" font-family="Times,serif" font-size="14.00">class = 0.5</text>
</g>
<!-- 24&#45;&gt;25 -->
<g id="edge25" class="edge"><title>24&#45;&gt;25</title>
<path fill="none" stroke="black" d="M1222,-400.884C1222,-392.778 1222,-383.982 1222,-375.472"/>
<polygon fill="black" stroke="black" points="1225.5,-375.299 1222,-365.299 1218.5,-375.299 1225.5,-375.299"/>
</g>
<!-- 34 -->
<g id="node35" class="node"><title>34</title>
<polygon fill="#39e581" fill-opacity="0.180392" stroke="black" points="1522,-365 1364,-365 1364,-297 1522,-297 1522,-365"/>
<text text-anchor="middle" x="1443" y="-349.8" font-family="Times,serif" font-size="14.00">Surprise_NRC &lt;= 0.9856</text>
<text text-anchor="middle" x="1443" y="-334.8" font-family="Times,serif" font-size="14.00">samples = 17</text>
<text text-anchor="middle" x="1443" y="-319.8" font-family="Times,serif" font-size="14.00">value = [3, 8, 6]</text>
<text text-anchor="middle" x="1443" y="-304.8" font-family="Times,serif" font-size="14.00">class = 0.5</text>
</g>
<!-- 24&#45;&gt;34 -->
<g id="edge34" class="edge"><title>24&#45;&gt;34</title>
<path fill="none" stroke="black" d="M1289.21,-402.981C1312.08,-392.426 1337.89,-380.514 1361.74,-369.506"/>
<polygon fill="black" stroke="black" points="1363.51,-372.543 1371.12,-365.175 1360.57,-366.188 1363.51,-372.543"/>
</g>
<!-- 26 -->
<g id="node27" class="node"><title>26</title>
<polygon fill="#39e581" fill-opacity="0.956863" stroke="black" points="1099,-261 919,-261 919,-193 1099,-193 1099,-261"/>
<text text-anchor="middle" x="1009" y="-245.8" font-family="Times,serif" font-size="14.00">Fear_NRC_speech &lt;= 2.6887</text>
<text text-anchor="middle" x="1009" y="-230.8" font-family="Times,serif" font-size="14.00">samples = 25</text>
<text text-anchor="middle" x="1009" y="-215.8" font-family="Times,serif" font-size="14.00">value = [1, 24, 0]</text>
<text text-anchor="middle" x="1009" y="-200.8" font-family="Times,serif" font-size="14.00">class = 0.5</text>
</g>
<!-- 25&#45;&gt;26 -->
<g id="edge26" class="edge"><title>25&#45;&gt;26</title>
<path fill="none" stroke="black" d="M1153.43,-297.165C1132.36,-287.075 1109.02,-275.895 1087.34,-265.516"/>
<polygon fill="black" stroke="black" points="1088.7,-262.285 1078.17,-261.123 1085.68,-268.599 1088.7,-262.285"/>
</g>
<!-- 31 -->
<g id="node32" class="node"><title>31</title>
<polygon fill="none" stroke="black" points="1318,-261 1126,-261 1126,-193 1318,-193 1318,-261"/>
<text text-anchor="middle" x="1222" y="-245.8" font-family="Times,serif" font-size="14.00">Trust_NRC_narrated &lt;= 7.0221</text>
<text text-anchor="middle" x="1222" y="-230.8" font-family="Times,serif" font-size="14.00">samples = 2</text>
<text text-anchor="middle" x="1222" y="-215.8" font-family="Times,serif" font-size="14.00">value = [1, 0, 1]</text>
<text text-anchor="middle" x="1222" y="-200.8" font-family="Times,serif" font-size="14.00">class = 0.0</text>
</g>
<!-- 25&#45;&gt;31 -->
<g id="edge31" class="edge"><title>25&#45;&gt;31</title>
<path fill="none" stroke="black" d="M1222,-296.884C1222,-288.778 1222,-279.982 1222,-271.472"/>
<polygon fill="black" stroke="black" points="1225.5,-271.299 1222,-261.299 1218.5,-271.299 1225.5,-271.299"/>
</g>
<!-- 27 -->
<g id="node28" class="node"><title>27</title>
<polygon fill="#39e581" stroke="black" points="926.5,-149.5 813.5,-149.5 813.5,-96.5 926.5,-96.5 926.5,-149.5"/>
<text text-anchor="middle" x="870" y="-134.3" font-family="Times,serif" font-size="14.00">samples = 23</text>
<text text-anchor="middle" x="870" y="-119.3" font-family="Times,serif" font-size="14.00">value = [0, 23, 0]</text>
<text text-anchor="middle" x="870" y="-104.3" font-family="Times,serif" font-size="14.00">class = 0.5</text>
</g>
<!-- 26&#45;&gt;27 -->
<g id="edge27" class="edge"><title>26&#45;&gt;27</title>
<path fill="none" stroke="black" d="M963.871,-192.884C947.535,-180.896 929.141,-167.399 912.994,-155.549"/>
<polygon fill="black" stroke="black" points="914.91,-152.614 904.777,-149.52 910.769,-158.258 914.91,-152.614"/>
</g>
<!-- 28 -->
<g id="node29" class="node"><title>28</title>
<polygon fill="none" stroke="black" points="1073.5,-157 944.5,-157 944.5,-89 1073.5,-89 1073.5,-157"/>
<text text-anchor="middle" x="1009" y="-141.8" font-family="Times,serif" font-size="14.00">narrated &lt;= 60.3037</text>
<text text-anchor="middle" x="1009" y="-126.8" font-family="Times,serif" font-size="14.00">samples = 2</text>
<text text-anchor="middle" x="1009" y="-111.8" font-family="Times,serif" font-size="14.00">value = [1, 1, 0]</text>
<text text-anchor="middle" x="1009" y="-96.8" font-family="Times,serif" font-size="14.00">class = 0.0</text>
</g>
<!-- 26&#45;&gt;28 -->
<g id="edge28" class="edge"><title>26&#45;&gt;28</title>
<path fill="none" stroke="black" d="M1009,-192.884C1009,-184.778 1009,-175.982 1009,-167.472"/>
<polygon fill="black" stroke="black" points="1012.5,-167.299 1009,-157.299 1005.5,-167.299 1012.5,-167.299"/>
</g>
<!-- 29 -->
<g id="node30" class="node"><title>29</title>
<polygon fill="#39e581" stroke="black" points="1000,-53 894,-53 894,-0 1000,-0 1000,-53"/>
<text text-anchor="middle" x="947" y="-37.8" font-family="Times,serif" font-size="14.00">samples = 1</text>
<text text-anchor="middle" x="947" y="-22.8" font-family="Times,serif" font-size="14.00">value = [0, 1, 0]</text>
<text text-anchor="middle" x="947" y="-7.8" font-family="Times,serif" font-size="14.00">class = 0.5</text>
</g>
<!-- 28&#45;&gt;29 -->
<g id="edge29" class="edge"><title>28&#45;&gt;29</title>
<path fill="none" stroke="black" d="M987.315,-88.9485C981.554,-80.1664 975.319,-70.6629 969.514,-61.815"/>
<polygon fill="black" stroke="black" points="972.297,-59.6779 963.885,-53.2367 966.445,-63.5178 972.297,-59.6779"/>
</g>
<!-- 30 -->
<g id="node31" class="node"><title>30</title>
<polygon fill="#e58139" stroke="black" points="1124,-53 1018,-53 1018,-0 1124,-0 1124,-53"/>
<text text-anchor="middle" x="1071" y="-37.8" font-family="Times,serif" font-size="14.00">samples = 1</text>
<text text-anchor="middle" x="1071" y="-22.8" font-family="Times,serif" font-size="14.00">value = [1, 0, 0]</text>
<text text-anchor="middle" x="1071" y="-7.8" font-family="Times,serif" font-size="14.00">class = 0.0</text>
</g>
<!-- 28&#45;&gt;30 -->
<g id="edge30" class="edge"><title>28&#45;&gt;30</title>
<path fill="none" stroke="black" d="M1030.68,-88.9485C1036.45,-80.1664 1042.68,-70.6629 1048.49,-61.815"/>
<polygon fill="black" stroke="black" points="1051.56,-63.5178 1054.11,-53.2367 1045.7,-59.6779 1051.56,-63.5178"/>
</g>
<!-- 32 -->
<g id="node33" class="node"><title>32</title>
<polygon fill="#8139e5" stroke="black" points="1198,-149.5 1092,-149.5 1092,-96.5 1198,-96.5 1198,-149.5"/>
<text text-anchor="middle" x="1145" y="-134.3" font-family="Times,serif" font-size="14.00">samples = 1</text>
<text text-anchor="middle" x="1145" y="-119.3" font-family="Times,serif" font-size="14.00">value = [0, 0, 1]</text>
<text text-anchor="middle" x="1145" y="-104.3" font-family="Times,serif" font-size="14.00">class = 1.0</text>
</g>
<!-- 31&#45;&gt;32 -->
<g id="edge32" class="edge"><title>31&#45;&gt;32</title>
<path fill="none" stroke="black" d="M1197,-192.884C1188.45,-181.556 1178.88,-168.88 1170.3,-157.521"/>
<polygon fill="black" stroke="black" points="1173.08,-155.392 1164.27,-149.52 1167.5,-159.61 1173.08,-155.392"/>
</g>
<!-- 33 -->
<g id="node34" class="node"><title>33</title>
<polygon fill="#e58139" stroke="black" points="1322,-149.5 1216,-149.5 1216,-96.5 1322,-96.5 1322,-149.5"/>
<text text-anchor="middle" x="1269" y="-134.3" font-family="Times,serif" font-size="14.00">samples = 1</text>
<text text-anchor="middle" x="1269" y="-119.3" font-family="Times,serif" font-size="14.00">value = [1, 0, 0]</text>
<text text-anchor="middle" x="1269" y="-104.3" font-family="Times,serif" font-size="14.00">class = 0.0</text>
</g>
<!-- 31&#45;&gt;33 -->
<g id="edge33" class="edge"><title>31&#45;&gt;33</title>
<path fill="none" stroke="black" d="M1237.26,-192.884C1242.28,-181.996 1247.87,-169.863 1252.94,-158.85"/>
<polygon fill="black" stroke="black" points="1256.23,-160.067 1257.24,-149.52 1249.88,-157.137 1256.23,-160.067"/>
</g>
<!-- 35 -->
<g id="node36" class="node"><title>35</title>
<polygon fill="#39e581" fill-opacity="0.749020" stroke="black" points="1533,-261 1353,-261 1353,-193 1533,-193 1533,-261"/>
<text text-anchor="middle" x="1443" y="-245.8" font-family="Times,serif" font-size="14.00">Anticipation_NRC &lt;= 4.0517</text>
<text text-anchor="middle" x="1443" y="-230.8" font-family="Times,serif" font-size="14.00">samples = 10</text>
<text text-anchor="middle" x="1443" y="-215.8" font-family="Times,serif" font-size="14.00">value = [0, 8, 2]</text>
<text text-anchor="middle" x="1443" y="-200.8" font-family="Times,serif" font-size="14.00">class = 0.5</text>
</g>
<!-- 34&#45;&gt;35 -->
<g id="edge35" class="edge"><title>34&#45;&gt;35</title>
<path fill="none" stroke="black" d="M1443,-296.884C1443,-288.778 1443,-279.982 1443,-271.472"/>
<polygon fill="black" stroke="black" points="1446.5,-271.299 1443,-261.299 1439.5,-271.299 1446.5,-271.299"/>
</g>
<!-- 38 -->
<g id="node39" class="node"><title>38</title>
<polygon fill="#8139e5" fill-opacity="0.250980" stroke="black" points="1722,-261 1560,-261 1560,-193 1722,-193 1722,-261"/>
<text text-anchor="middle" x="1641" y="-245.8" font-family="Times,serif" font-size="14.00">positive_NRC &lt;= 23.9102</text>
<text text-anchor="middle" x="1641" y="-230.8" font-family="Times,serif" font-size="14.00">samples = 7</text>
<text text-anchor="middle" x="1641" y="-215.8" font-family="Times,serif" font-size="14.00">value = [3, 0, 4]</text>
<text text-anchor="middle" x="1641" y="-200.8" font-family="Times,serif" font-size="14.00">class = 1.0</text>
</g>
<!-- 34&#45;&gt;38 -->
<g id="edge38" class="edge"><title>34&#45;&gt;38</title>
<path fill="none" stroke="black" d="M1507.28,-296.884C1526.58,-286.946 1547.88,-275.971 1567.71,-265.757"/>
<polygon fill="black" stroke="black" points="1569.41,-268.816 1576.7,-261.125 1566.21,-262.593 1569.41,-268.816"/>
</g>
<!-- 36 -->
<g id="node37" class="node"><title>36</title>
<polygon fill="#8139e5" stroke="black" points="1446,-149.5 1340,-149.5 1340,-96.5 1446,-96.5 1446,-149.5"/>
<text text-anchor="middle" x="1393" y="-134.3" font-family="Times,serif" font-size="14.00">samples = 2</text>
<text text-anchor="middle" x="1393" y="-119.3" font-family="Times,serif" font-size="14.00">value = [0, 0, 2]</text>
<text text-anchor="middle" x="1393" y="-104.3" font-family="Times,serif" font-size="14.00">class = 1.0</text>
</g>
<!-- 35&#45;&gt;36 -->
<g id="edge36" class="edge"><title>35&#45;&gt;36</title>
<path fill="none" stroke="black" d="M1426.77,-192.884C1421.38,-181.886 1415.36,-169.617 1409.92,-158.517"/>
<polygon fill="black" stroke="black" points="1413.05,-156.959 1405.51,-149.52 1406.77,-160.04 1413.05,-156.959"/>
</g>
<!-- 37 -->
<g id="node38" class="node"><title>37</title>
<polygon fill="#39e581" stroke="black" points="1570,-149.5 1464,-149.5 1464,-96.5 1570,-96.5 1570,-149.5"/>
<text text-anchor="middle" x="1517" y="-134.3" font-family="Times,serif" font-size="14.00">samples = 8</text>
<text text-anchor="middle" x="1517" y="-119.3" font-family="Times,serif" font-size="14.00">value = [0, 8, 0]</text>
<text text-anchor="middle" x="1517" y="-104.3" font-family="Times,serif" font-size="14.00">class = 0.5</text>
</g>
<!-- 35&#45;&gt;37 -->
<g id="edge37" class="edge"><title>35&#45;&gt;37</title>
<path fill="none" stroke="black" d="M1467.03,-192.884C1475.16,-181.666 1484.26,-169.126 1492.44,-157.852"/>
<polygon fill="black" stroke="black" points="1495.45,-159.669 1498.49,-149.52 1489.78,-155.559 1495.45,-159.669"/>
</g>
<!-- 39 -->
<g id="node40" class="node"><title>39</title>
<polygon fill="#e58139" stroke="black" points="1694,-149.5 1588,-149.5 1588,-96.5 1694,-96.5 1694,-149.5"/>
<text text-anchor="middle" x="1641" y="-134.3" font-family="Times,serif" font-size="14.00">samples = 3</text>
<text text-anchor="middle" x="1641" y="-119.3" font-family="Times,serif" font-size="14.00">value = [3, 0, 0]</text>
<text text-anchor="middle" x="1641" y="-104.3" font-family="Times,serif" font-size="14.00">class = 0.0</text>
</g>
<!-- 38&#45;&gt;39 -->
<g id="edge39" class="edge"><title>38&#45;&gt;39</title>
<path fill="none" stroke="black" d="M1641,-192.884C1641,-182.326 1641,-170.597 1641,-159.854"/>
<polygon fill="black" stroke="black" points="1644.5,-159.52 1641,-149.52 1637.5,-159.52 1644.5,-159.52"/>
</g>
<!-- 40 -->
<g id="node41" class="node"><title>40</title>
<polygon fill="#8139e5" stroke="black" points="1818,-149.5 1712,-149.5 1712,-96.5 1818,-96.5 1818,-149.5"/>
<text text-anchor="middle" x="1765" y="-134.3" font-family="Times,serif" font-size="14.00">samples = 4</text>
<text text-anchor="middle" x="1765" y="-119.3" font-family="Times,serif" font-size="14.00">value = [0, 0, 4]</text>
<text text-anchor="middle" x="1765" y="-104.3" font-family="Times,serif" font-size="14.00">class = 1.0</text>
</g>
<!-- 38&#45;&gt;40 -->
<g id="edge40" class="edge"><title>38&#45;&gt;40</title>
<path fill="none" stroke="black" d="M1681.26,-192.884C1695.7,-181.006 1711.94,-167.646 1726.25,-155.876"/>
<polygon fill="black" stroke="black" points="1728.48,-158.576 1733.98,-149.52 1724.03,-153.17 1728.48,-158.576"/>
</g>
</g>
</svg>
