<?xml version="1.0" encoding="UTF-8" standalone="no"?>
<!DOCTYPE svg PUBLIC "-//W3C//DTD SVG 1.1//EN"
 "http://www.w3.org/Graphics/SVG/1.1/DTD/svg11.dtd">
<!-- Generated by graphviz version 2.38.0 (20140413.2041)
 -->
<!-- Title: Tree Pages: 1 -->
<svg width="1272pt" height="477pt"
 viewBox="0.00 0.00 1271.50 477.00" xmlns="http://www.w3.org/2000/svg" xmlns:xlink="http://www.w3.org/1999/xlink">
<g id="graph0" class="graph" transform="scale(1 1) rotate(0) translate(4 473)">
<title>Tree</title>
<polygon fill="white" stroke="none" points="-4,4 -4,-473 1267.5,-473 1267.5,4 -4,4"/>
<!-- 0 -->
<g id="node1" class="node"><title>0</title>
<polygon fill="#39e581" fill-opacity="0.054902" stroke="black" points="785,-469 603,-469 603,-401 785,-401 785,-469"/>
<text text-anchor="middle" x="694" y="-453.8" font-family="Times,serif" font-size="14.00">Joy_NRC_narrated &lt;= 1.4807</text>
<text text-anchor="middle" x="694" y="-438.8" font-family="Times,serif" font-size="14.00">samples = 112</text>
<text text-anchor="middle" x="694" y="-423.8" font-family="Times,serif" font-size="14.00">value = [41, 45, 26]</text>
<text text-anchor="middle" x="694" y="-408.8" font-family="Times,serif" font-size="14.00">class = 0.5</text>
</g>
<!-- 1 -->
<g id="node2" class="node"><title>1</title>
<polygon fill="#e58139" fill-opacity="0.490196" stroke="black" points="677,-365 487,-365 487,-297 677,-297 677,-365"/>
<text text-anchor="middle" x="582" y="-349.8" font-family="Times,serif" font-size="14.00">Anger_NRC_speech &lt;= 1.3037</text>
<text text-anchor="middle" x="582" y="-334.8" font-family="Times,serif" font-size="14.00">samples = 58</text>
<text text-anchor="middle" x="582" y="-319.8" font-family="Times,serif" font-size="14.00">value = [35, 13, 10]</text>
<text text-anchor="middle" x="582" y="-304.8" font-family="Times,serif" font-size="14.00">class = 0.0</text>
</g>
<!-- 0&#45;&gt;1 -->
<g id="edge1" class="edge"><title>0&#45;&gt;1</title>
<path fill="none" stroke="black" d="M657.637,-400.884C647.563,-391.709 636.518,-381.65 626.056,-372.123"/>
<polygon fill="black" stroke="black" points="628.314,-369.445 618.564,-365.299 623.601,-374.62 628.314,-369.445"/>
<text text-anchor="middle" x="619.731" y="-386.572" font-family="Times,serif" font-size="14.00">True</text>
</g>
<!-- 12 -->
<g id="node13" class="node"><title>12</title>
<polygon fill="#39e581" fill-opacity="0.419608" stroke="black" points="913.5,-365 700.5,-365 700.5,-297 913.5,-297 913.5,-365"/>
<text text-anchor="middle" x="807" y="-349.8" font-family="Times,serif" font-size="14.00">speech_emotional_WN &lt;= 13.7872</text>
<text text-anchor="middle" x="807" y="-334.8" font-family="Times,serif" font-size="14.00">samples = 54</text>
<text text-anchor="middle" x="807" y="-319.8" font-family="Times,serif" font-size="14.00">value = [6, 32, 16]</text>
<text text-anchor="middle" x="807" y="-304.8" font-family="Times,serif" font-size="14.00">class = 0.5</text>
</g>
<!-- 0&#45;&gt;12 -->
<g id="edge12" class="edge"><title>0&#45;&gt;12</title>
<path fill="none" stroke="black" d="M730.688,-400.884C740.852,-391.709 751.995,-381.65 762.55,-372.123"/>
<polygon fill="black" stroke="black" points="765.032,-374.598 770.11,-365.299 760.341,-369.402 765.032,-374.598"/>
<text text-anchor="middle" x="768.832" y="-386.567" font-family="Times,serif" font-size="14.00">False</text>
</g>
<!-- 2 -->
<g id="node3" class="node"><title>2</title>
<polygon fill="#e58139" fill-opacity="0.588235" stroke="black" points="422,-261 268,-261 268,-193 422,-193 422,-261"/>
<text text-anchor="middle" x="345" y="-245.8" font-family="Times,serif" font-size="14.00">negative_WN &lt;= 7.3864</text>
<text text-anchor="middle" x="345" y="-230.8" font-family="Times,serif" font-size="14.00">samples = 51</text>
<text text-anchor="middle" x="345" y="-215.8" font-family="Times,serif" font-size="14.00">value = [35, 12, 4]</text>
<text text-anchor="middle" x="345" y="-200.8" font-family="Times,serif" font-size="14.00">class = 0.0</text>
</g>
<!-- 1&#45;&gt;2 -->
<g id="edge2" class="edge"><title>1&#45;&gt;2</title>
<path fill="none" stroke="black" d="M505.053,-296.884C481.546,-286.767 455.542,-275.575 431.449,-265.206"/>
<polygon fill="black" stroke="black" points="432.535,-261.863 421.966,-261.125 429.768,-268.293 432.535,-261.863"/>
</g>
<!-- 9 -->
<g id="node10" class="node"><title>9</title>
<polygon fill="#8139e5" fill-opacity="0.831373" stroke="black" points="677,-261 487,-261 487,-193 677,-193 677,-261"/>
<text text-anchor="middle" x="582" y="-245.8" font-family="Times,serif" font-size="14.00">Anger_NRC_speech &lt;= 2.7711</text>
<text text-anchor="middle" x="582" y="-230.8" font-family="Times,serif" font-size="14.00">samples = 7</text>
<text text-anchor="middle" x="582" y="-215.8" font-family="Times,serif" font-size="14.00">value = [0, 1, 6]</text>
<text text-anchor="middle" x="582" y="-200.8" font-family="Times,serif" font-size="14.00">class = 1.0</text>
</g>
<!-- 1&#45;&gt;9 -->
<g id="edge9" class="edge"><title>1&#45;&gt;9</title>
<path fill="none" stroke="black" d="M582,-296.884C582,-288.778 582,-279.982 582,-271.472"/>
<polygon fill="black" stroke="black" points="585.5,-271.299 582,-261.299 578.5,-271.299 585.5,-271.299"/>
</g>
<!-- 3 -->
<g id="node4" class="node"><title>3</title>
<polygon fill="#e58139" fill-opacity="0.729412" stroke="black" points="242,-157 96,-157 96,-89 242,-89 242,-157"/>
<text text-anchor="middle" x="169" y="-141.8" font-family="Times,serif" font-size="14.00">Anger_NRC &lt;= 1.4306</text>
<text text-anchor="middle" x="169" y="-126.8" font-family="Times,serif" font-size="14.00">samples = 45</text>
<text text-anchor="middle" x="169" y="-111.8" font-family="Times,serif" font-size="14.00">value = [35, 8, 2]</text>
<text text-anchor="middle" x="169" y="-96.8" font-family="Times,serif" font-size="14.00">class = 0.0</text>
</g>
<!-- 2&#45;&gt;3 -->
<g id="edge3" class="edge"><title>2&#45;&gt;3</title>
<path fill="none" stroke="black" d="M287.858,-192.884C271.02,-183.125 252.455,-172.366 235.104,-162.31"/>
<polygon fill="black" stroke="black" points="236.563,-159.111 226.156,-157.125 233.053,-165.167 236.563,-159.111"/>
</g>
<!-- 6 -->
<g id="node7" class="node"><title>6</title>
<polygon fill="#39e581" fill-opacity="0.498039" stroke="black" points="430,-157 260,-157 260,-89 430,-89 430,-157"/>
<text text-anchor="middle" x="345" y="-141.8" font-family="Times,serif" font-size="14.00">emotional_WN &lt;= 36.8725</text>
<text text-anchor="middle" x="345" y="-126.8" font-family="Times,serif" font-size="14.00">samples = 6</text>
<text text-anchor="middle" x="345" y="-111.8" font-family="Times,serif" font-size="14.00">value = [0, 4, 2]</text>
<text text-anchor="middle" x="345" y="-96.8" font-family="Times,serif" font-size="14.00">class = 0.5</text>
</g>
<!-- 2&#45;&gt;6 -->
<g id="edge6" class="edge"><title>2&#45;&gt;6</title>
<path fill="none" stroke="black" d="M345,-192.884C345,-184.778 345,-175.982 345,-167.472"/>
<polygon fill="black" stroke="black" points="348.5,-167.299 345,-157.299 341.5,-167.299 348.5,-167.299"/>
</g>
<!-- 4 -->
<g id="node5" class="node"><title>4</title>
<polygon fill="none" stroke="black" points="106,-53 7.10543e-15,-53 7.10543e-15,-0 106,-0 106,-53"/>
<text text-anchor="middle" x="53" y="-37.8" font-family="Times,serif" font-size="14.00">samples = 14</text>
<text text-anchor="middle" x="53" y="-22.8" font-family="Times,serif" font-size="14.00">value = [6, 6, 2]</text>
<text text-anchor="middle" x="53" y="-7.8" font-family="Times,serif" font-size="14.00">class = 0.0</text>
</g>
<!-- 3&#45;&gt;4 -->
<g id="edge4" class="edge"><title>3&#45;&gt;4</title>
<path fill="none" stroke="black" d="M128.429,-88.9485C116.75,-79.4346 104.033,-69.074 92.4247,-59.6175"/>
<polygon fill="black" stroke="black" points="94.5557,-56.8392 84.5921,-53.2367 90.1345,-62.2663 94.5557,-56.8392"/>
</g>
<!-- 5 -->
<g id="node6" class="node"><title>5</title>
<polygon fill="#e58139" fill-opacity="0.929412" stroke="black" points="237.5,-53 124.5,-53 124.5,-0 237.5,-0 237.5,-53"/>
<text text-anchor="middle" x="181" y="-37.8" font-family="Times,serif" font-size="14.00">samples = 31</text>
<text text-anchor="middle" x="181" y="-22.8" font-family="Times,serif" font-size="14.00">value = [29, 2, 0]</text>
<text text-anchor="middle" x="181" y="-7.8" font-family="Times,serif" font-size="14.00">class = 0.0</text>
</g>
<!-- 3&#45;&gt;5 -->
<g id="edge5" class="edge"><title>3&#45;&gt;5</title>
<path fill="none" stroke="black" d="M173.197,-88.9485C174.254,-80.6238 175.394,-71.6509 176.466,-63.2027"/>
<polygon fill="black" stroke="black" points="179.944,-63.598 177.732,-53.2367 173,-62.7161 179.944,-63.598"/>
</g>
<!-- 7 -->
<g id="node8" class="node"><title>7</title>
<polygon fill="#39e581" stroke="black" points="374,-53 268,-53 268,-0 374,-0 374,-53"/>
<text text-anchor="middle" x="321" y="-37.8" font-family="Times,serif" font-size="14.00">samples = 4</text>
<text text-anchor="middle" x="321" y="-22.8" font-family="Times,serif" font-size="14.00">value = [0, 4, 0]</text>
<text text-anchor="middle" x="321" y="-7.8" font-family="Times,serif" font-size="14.00">class = 0.5</text>
</g>
<!-- 6&#45;&gt;7 -->
<g id="edge7" class="edge"><title>6&#45;&gt;7</title>
<path fill="none" stroke="black" d="M336.606,-88.9485C334.492,-80.6238 332.213,-71.6509 330.067,-63.2027"/>
<polygon fill="black" stroke="black" points="333.39,-62.0675 327.536,-53.2367 326.606,-63.7906 333.39,-62.0675"/>
</g>
<!-- 8 -->
<g id="node9" class="node"><title>8</title>
<polygon fill="#8139e5" stroke="black" points="498,-53 392,-53 392,-0 498,-0 498,-53"/>
<text text-anchor="middle" x="445" y="-37.8" font-family="Times,serif" font-size="14.00">samples = 2</text>
<text text-anchor="middle" x="445" y="-22.8" font-family="Times,serif" font-size="14.00">value = [0, 0, 2]</text>
<text text-anchor="middle" x="445" y="-7.8" font-family="Times,serif" font-size="14.00">class = 1.0</text>
</g>
<!-- 6&#45;&gt;8 -->
<g id="edge8" class="edge"><title>6&#45;&gt;8</title>
<path fill="none" stroke="black" d="M379.975,-88.9485C389.849,-79.6175 400.585,-69.4722 410.435,-60.1641"/>
<polygon fill="black" stroke="black" points="412.901,-62.649 417.765,-53.2367 408.093,-57.5613 412.901,-62.649"/>
</g>
<!-- 10 -->
<g id="node11" class="node"><title>10</title>
<polygon fill="#8139e5" stroke="black" points="554,-149.5 448,-149.5 448,-96.5 554,-96.5 554,-149.5"/>
<text text-anchor="middle" x="501" y="-134.3" font-family="Times,serif" font-size="14.00">samples = 6</text>
<text text-anchor="middle" x="501" y="-119.3" font-family="Times,serif" font-size="14.00">value = [0, 0, 6]</text>
<text text-anchor="middle" x="501" y="-104.3" font-family="Times,serif" font-size="14.00">class = 1.0</text>
</g>
<!-- 9&#45;&gt;10 -->
<g id="edge10" class="edge"><title>9&#45;&gt;10</title>
<path fill="none" stroke="black" d="M555.702,-192.884C546.706,-181.556 536.64,-168.88 527.619,-157.521"/>
<polygon fill="black" stroke="black" points="530.226,-155.174 521.266,-149.52 524.744,-159.528 530.226,-155.174"/>
</g>
<!-- 11 -->
<g id="node12" class="node"><title>11</title>
<polygon fill="#39e581" stroke="black" points="678,-149.5 572,-149.5 572,-96.5 678,-96.5 678,-149.5"/>
<text text-anchor="middle" x="625" y="-134.3" font-family="Times,serif" font-size="14.00">samples = 1</text>
<text text-anchor="middle" x="625" y="-119.3" font-family="Times,serif" font-size="14.00">value = [0, 1, 0]</text>
<text text-anchor="middle" x="625" y="-104.3" font-family="Times,serif" font-size="14.00">class = 0.5</text>
</g>
<!-- 9&#45;&gt;11 -->
<g id="edge11" class="edge"><title>9&#45;&gt;11</title>
<path fill="none" stroke="black" d="M595.961,-192.884C600.551,-181.996 605.666,-169.863 610.308,-158.85"/>
<polygon fill="black" stroke="black" points="613.582,-160.094 614.242,-149.52 607.132,-157.375 613.582,-160.094"/>
</g>
<!-- 13 -->
<g id="node14" class="node"><title>13</title>
<polygon fill="#39e581" fill-opacity="0.694118" stroke="black" points="884,-261 730,-261 730,-193 884,-193 884,-261"/>
<text text-anchor="middle" x="807" y="-245.8" font-family="Times,serif" font-size="14.00">negative_WN &lt;= 4.6893</text>
<text text-anchor="middle" x="807" y="-230.8" font-family="Times,serif" font-size="14.00">samples = 42</text>
<text text-anchor="middle" x="807" y="-215.8" font-family="Times,serif" font-size="14.00">value = [6, 31, 5]</text>
<text text-anchor="middle" x="807" y="-200.8" font-family="Times,serif" font-size="14.00">class = 0.5</text>
</g>
<!-- 12&#45;&gt;13 -->
<g id="edge13" class="edge"><title>12&#45;&gt;13</title>
<path fill="none" stroke="black" d="M807,-296.884C807,-288.778 807,-279.982 807,-271.472"/>
<polygon fill="black" stroke="black" points="810.5,-271.299 807,-261.299 803.5,-271.299 810.5,-271.299"/>
</g>
<!-- 20 -->
<g id="node21" class="node"><title>20</title>
<polygon fill="#8139e5" fill-opacity="0.909804" stroke="black" points="1180.5,-261 977.5,-261 977.5,-193 1180.5,-193 1180.5,-261"/>
<text text-anchor="middle" x="1079" y="-245.8" font-family="Times,serif" font-size="14.00">narrated_neutral_WN &lt;= 20.8404</text>
<text text-anchor="middle" x="1079" y="-230.8" font-family="Times,serif" font-size="14.00">samples = 12</text>
<text text-anchor="middle" x="1079" y="-215.8" font-family="Times,serif" font-size="14.00">value = [0, 1, 11]</text>
<text text-anchor="middle" x="1079" y="-200.8" font-family="Times,serif" font-size="14.00">class = 1.0</text>
</g>
<!-- 12&#45;&gt;20 -->
<g id="edge20" class="edge"><title>12&#45;&gt;20</title>
<path fill="none" stroke="black" d="M895.311,-296.884C922.766,-286.588 953.19,-275.179 981.25,-264.656"/>
<polygon fill="black" stroke="black" points="982.533,-267.913 990.667,-261.125 980.075,-261.359 982.533,-267.913"/>
</g>
<!-- 14 -->
<g id="node15" class="node"><title>14</title>
<polygon fill="#39e581" fill-opacity="0.333333" stroke="black" points="833.5,-157 696.5,-157 696.5,-89 833.5,-89 833.5,-157"/>
<text text-anchor="middle" x="765" y="-141.8" font-family="Times,serif" font-size="14.00">Fear_NRC &lt;= 5.3231</text>
<text text-anchor="middle" x="765" y="-126.8" font-family="Times,serif" font-size="14.00">samples = 21</text>
<text text-anchor="middle" x="765" y="-111.8" font-family="Times,serif" font-size="14.00">value = [6, 11, 4]</text>
<text text-anchor="middle" x="765" y="-96.8" font-family="Times,serif" font-size="14.00">class = 0.5</text>
</g>
<!-- 13&#45;&gt;14 -->
<g id="edge14" class="edge"><title>13&#45;&gt;14</title>
<path fill="none" stroke="black" d="M793.364,-192.884C789.916,-184.511 786.165,-175.401 782.554,-166.631"/>
<polygon fill="black" stroke="black" points="785.755,-165.214 778.712,-157.299 779.283,-167.879 785.755,-165.214"/>
</g>
<!-- 17 -->
<g id="node18" class="node"><title>17</title>
<polygon fill="#39e581" fill-opacity="0.949020" stroke="black" points="1008,-157 852,-157 852,-89 1008,-89 1008,-157"/>
<text text-anchor="middle" x="930" y="-141.8" font-family="Times,serif" font-size="14.00">Sadness_NRC &lt;= 5.7033</text>
<text text-anchor="middle" x="930" y="-126.8" font-family="Times,serif" font-size="14.00">samples = 21</text>
<text text-anchor="middle" x="930" y="-111.8" font-family="Times,serif" font-size="14.00">value = [0, 20, 1]</text>
<text text-anchor="middle" x="930" y="-96.8" font-family="Times,serif" font-size="14.00">class = 0.5</text>
</g>
<!-- 13&#45;&gt;17 -->
<g id="edge17" class="edge"><title>13&#45;&gt;17</title>
<path fill="none" stroke="black" d="M846.935,-192.884C858.105,-183.62 870.363,-173.455 881.951,-163.845"/>
<polygon fill="black" stroke="black" points="884.381,-166.377 889.845,-157.299 879.913,-160.989 884.381,-166.377"/>
</g>
<!-- 15 -->
<g id="node16" class="node"><title>15</title>
<polygon fill="#39e581" fill-opacity="0.666667" stroke="black" points="713.5,-53 600.5,-53 600.5,-0 713.5,-0 713.5,-53"/>
<text text-anchor="middle" x="657" y="-37.8" font-family="Times,serif" font-size="14.00">samples = 15</text>
<text text-anchor="middle" x="657" y="-22.8" font-family="Times,serif" font-size="14.00">value = [1, 11, 3]</text>
<text text-anchor="middle" x="657" y="-7.8" font-family="Times,serif" font-size="14.00">class = 0.5</text>
</g>
<!-- 14&#45;&gt;15 -->
<g id="edge15" class="edge"><title>14&#45;&gt;15</title>
<path fill="none" stroke="black" d="M727.227,-88.9485C716.458,-79.526 704.741,-69.2731 694.018,-59.8906"/>
<polygon fill="black" stroke="black" points="696.244,-57.1878 686.413,-53.2367 691.634,-62.4558 696.244,-57.1878"/>
</g>
<!-- 16 -->
<g id="node17" class="node"><title>16</title>
<polygon fill="#e58139" fill-opacity="0.800000" stroke="black" points="838,-53 732,-53 732,-0 838,-0 838,-53"/>
<text text-anchor="middle" x="785" y="-37.8" font-family="Times,serif" font-size="14.00">samples = 6</text>
<text text-anchor="middle" x="785" y="-22.8" font-family="Times,serif" font-size="14.00">value = [5, 0, 1]</text>
<text text-anchor="middle" x="785" y="-7.8" font-family="Times,serif" font-size="14.00">class = 0.0</text>
</g>
<!-- 14&#45;&gt;16 -->
<g id="edge16" class="edge"><title>14&#45;&gt;16</title>
<path fill="none" stroke="black" d="M771.995,-88.9485C773.757,-80.6238 775.656,-71.6509 777.444,-63.2027"/>
<polygon fill="black" stroke="black" points="780.907,-63.7447 779.553,-53.2367 774.058,-62.2953 780.907,-63.7447"/>
</g>
<!-- 18 -->
<g id="node19" class="node"><title>18</title>
<polygon fill="#8139e5" stroke="black" points="972,-53 866,-53 866,-0 972,-0 972,-53"/>
<text text-anchor="middle" x="919" y="-37.8" font-family="Times,serif" font-size="14.00">samples = 1</text>
<text text-anchor="middle" x="919" y="-22.8" font-family="Times,serif" font-size="14.00">value = [0, 0, 1]</text>
<text text-anchor="middle" x="919" y="-7.8" font-family="Times,serif" font-size="14.00">class = 1.0</text>
</g>
<!-- 17&#45;&gt;18 -->
<g id="edge18" class="edge"><title>17&#45;&gt;18</title>
<path fill="none" stroke="black" d="M926.153,-88.9485C925.184,-80.6238 924.139,-71.6509 923.156,-63.2027"/>
<polygon fill="black" stroke="black" points="926.629,-62.7649 921.996,-53.2367 919.676,-63.5743 926.629,-62.7649"/>
</g>
<!-- 19 -->
<g id="node20" class="node"><title>19</title>
<polygon fill="#39e581" stroke="black" points="1103.5,-53 990.5,-53 990.5,-0 1103.5,-0 1103.5,-53"/>
<text text-anchor="middle" x="1047" y="-37.8" font-family="Times,serif" font-size="14.00">samples = 20</text>
<text text-anchor="middle" x="1047" y="-22.8" font-family="Times,serif" font-size="14.00">value = [0, 20, 0]</text>
<text text-anchor="middle" x="1047" y="-7.8" font-family="Times,serif" font-size="14.00">class = 0.5</text>
</g>
<!-- 17&#45;&gt;19 -->
<g id="edge19" class="edge"><title>17&#45;&gt;19</title>
<path fill="none" stroke="black" d="M970.921,-88.9485C982.7,-79.4346 995.527,-69.074 1007.24,-59.6175"/>
<polygon fill="black" stroke="black" points="1009.56,-62.2429 1015.14,-53.2367 1005.16,-56.7973 1009.56,-62.2429"/>
</g>
<!-- 21 -->
<g id="node22" class="node"><title>21</title>
<polygon fill="#39e581" stroke="black" points="1132,-149.5 1026,-149.5 1026,-96.5 1132,-96.5 1132,-149.5"/>
<text text-anchor="middle" x="1079" y="-134.3" font-family="Times,serif" font-size="14.00">samples = 1</text>
<text text-anchor="middle" x="1079" y="-119.3" font-family="Times,serif" font-size="14.00">value = [0, 1, 0]</text>
<text text-anchor="middle" x="1079" y="-104.3" font-family="Times,serif" font-size="14.00">class = 0.5</text>
</g>
<!-- 20&#45;&gt;21 -->
<g id="edge21" class="edge"><title>20&#45;&gt;21</title>
<path fill="none" stroke="black" d="M1079,-192.884C1079,-182.326 1079,-170.597 1079,-159.854"/>
<polygon fill="black" stroke="black" points="1082.5,-159.52 1079,-149.52 1075.5,-159.52 1082.5,-159.52"/>
</g>
<!-- 22 -->
<g id="node23" class="node"><title>22</title>
<polygon fill="#8139e5" stroke="black" points="1263.5,-149.5 1150.5,-149.5 1150.5,-96.5 1263.5,-96.5 1263.5,-149.5"/>
<text text-anchor="middle" x="1207" y="-134.3" font-family="Times,serif" font-size="14.00">samples = 11</text>
<text text-anchor="middle" x="1207" y="-119.3" font-family="Times,serif" font-size="14.00">value = [0, 0, 11]</text>
<text text-anchor="middle" x="1207" y="-104.3" font-family="Times,serif" font-size="14.00">class = 1.0</text>
</g>
<!-- 20&#45;&gt;22 -->
<g id="edge22" class="edge"><title>20&#45;&gt;22</title>
<path fill="none" stroke="black" d="M1120.56,-192.884C1135.46,-181.006 1152.23,-167.646 1167,-155.876"/>
<polygon fill="black" stroke="black" points="1169.34,-158.489 1174.97,-149.52 1164.97,-153.015 1169.34,-158.489"/>
</g>
</g>
</svg>
