<?xml version="1.0" encoding="UTF-8" standalone="no"?>
<!DOCTYPE svg PUBLIC "-//W3C//DTD SVG 1.1//EN"
 "http://www.w3.org/Graphics/SVG/1.1/DTD/svg11.dtd">
<!-- Generated by graphviz version 2.38.0 (20140413.2041)
 -->
<!-- Title: Tree Pages: 1 -->
<svg width="2257pt" height="685pt"
 viewBox="0.00 0.00 2256.50 685.00" xmlns="http://www.w3.org/2000/svg" xmlns:xlink="http://www.w3.org/1999/xlink">
<g id="graph0" class="graph" transform="scale(1 1) rotate(0) translate(4 681)">
<title>Tree</title>
<polygon fill="white" stroke="none" points="-4,4 -4,-681 2252.5,-681 2252.5,4 -4,4"/>
<!-- 0 -->
<g id="node1" class="node"><title>0</title>
<polygon fill="#399de5" fill-opacity="0.047059" stroke="black" points="1572,-677 1425,-677 1425,-609 1572,-609 1572,-677"/>
<text text-anchor="middle" x="1498.5" y="-661.8" font-family="Times,serif" font-size="14.00">Fear_NRC &lt;= 6.4535</text>
<text text-anchor="middle" x="1498.5" y="-646.8" font-family="Times,serif" font-size="14.00">samples = 112</text>
<text text-anchor="middle" x="1498.5" y="-631.8" font-family="Times,serif" font-size="14.00">value = [22, 30, 34, 26]</text>
<text text-anchor="middle" x="1498.5" y="-616.8" font-family="Times,serif" font-size="14.00">class = sentimental</text>
</g>
<!-- 1 -->
<g id="node2" class="node"><title>1</title>
<polygon fill="#399de5" fill-opacity="0.109804" stroke="black" points="1255.5,-573 1037.5,-573 1037.5,-505 1255.5,-505 1255.5,-573"/>
<text text-anchor="middle" x="1146.5" y="-557.8" font-family="Times,serif" font-size="14.00">speech_emotional_NRC &lt;= 14.2456</text>
<text text-anchor="middle" x="1146.5" y="-542.8" font-family="Times,serif" font-size="14.00">samples = 78</text>
<text text-anchor="middle" x="1146.5" y="-527.8" font-family="Times,serif" font-size="14.00">value = [22, 4, 29, 23]</text>
<text text-anchor="middle" x="1146.5" y="-512.8" font-family="Times,serif" font-size="14.00">class = sentimental</text>
</g>
<!-- 0&#45;&gt;1 -->
<g id="edge1" class="edge"><title>0&#45;&gt;1</title>
<path fill="none" stroke="black" d="M1424.71,-620.617C1378.59,-607.254 1318.15,-589.738 1265.38,-574.449"/>
<polygon fill="black" stroke="black" points="1266.2,-571.043 1255.62,-571.621 1264.25,-577.766 1266.2,-571.043"/>
<text text-anchor="middle" x="1267.68" y="-589.82" font-family="Times,serif" font-size="14.00">True</text>
</g>
<!-- 32 -->
<g id="node33" class="node"><title>32</title>
<polygon fill="#47e539" fill-opacity="0.725490" stroke="black" points="1883.5,-573 1665.5,-573 1665.5,-505 1883.5,-505 1883.5,-573"/>
<text text-anchor="middle" x="1774.5" y="-557.8" font-family="Times,serif" font-size="14.00">speech_emotional_NRC &lt;= 25.6954</text>
<text text-anchor="middle" x="1774.5" y="-542.8" font-family="Times,serif" font-size="14.00">samples = 34</text>
<text text-anchor="middle" x="1774.5" y="-527.8" font-family="Times,serif" font-size="14.00">value = [0, 26, 5, 3]</text>
<text text-anchor="middle" x="1774.5" y="-512.8" font-family="Times,serif" font-size="14.00">class = historical</text>
</g>
<!-- 0&#45;&gt;32 -->
<g id="edge32" class="edge"><title>0&#45;&gt;32</title>
<path fill="none" stroke="black" d="M1572.1,-614.8C1603.85,-603.067 1641.46,-589.168 1675.59,-576.554"/>
<polygon fill="black" stroke="black" points="1676.95,-579.783 1685.12,-573.033 1674.52,-573.217 1676.95,-579.783"/>
<text text-anchor="middle" x="1674.66" y="-592.042" font-family="Times,serif" font-size="14.00">False</text>
</g>
<!-- 2 -->
<g id="node3" class="node"><title>2</title>
<polygon fill="#e58139" fill-opacity="0.050980" stroke="black" points="629.5,-469 455.5,-469 455.5,-401 629.5,-401 629.5,-469"/>
<text text-anchor="middle" x="542.5" y="-453.8" font-family="Times,serif" font-size="14.00">emotional_NRC &lt;= 37.1504</text>
<text text-anchor="middle" x="542.5" y="-438.8" font-family="Times,serif" font-size="14.00">samples = 35</text>
<text text-anchor="middle" x="542.5" y="-423.8" font-family="Times,serif" font-size="14.00">value = [17, 2, 0, 16]</text>
<text text-anchor="middle" x="542.5" y="-408.8" font-family="Times,serif" font-size="14.00">class = costumbrista</text>
</g>
<!-- 1&#45;&gt;2 -->
<g id="edge2" class="edge"><title>1&#45;&gt;2</title>
<path fill="none" stroke="black" d="M1037.47,-519.588C924.118,-500.445 748.358,-470.764 639.63,-452.403"/>
<polygon fill="black" stroke="black" points="640.09,-448.931 629.647,-450.717 638.924,-455.833 640.09,-448.931"/>
</g>
<!-- 15 -->
<g id="node16" class="node"><title>15</title>
<polygon fill="#399de5" fill-opacity="0.611765" stroke="black" points="1249,-469 1044,-469 1044,-401 1249,-401 1249,-469"/>
<text text-anchor="middle" x="1146.5" y="-453.8" font-family="Times,serif" font-size="14.00">Disgust_NRC_narrated &lt;= 0.8579</text>
<text text-anchor="middle" x="1146.5" y="-438.8" font-family="Times,serif" font-size="14.00">samples = 43</text>
<text text-anchor="middle" x="1146.5" y="-423.8" font-family="Times,serif" font-size="14.00">value = [5, 2, 29, 7]</text>
<text text-anchor="middle" x="1146.5" y="-408.8" font-family="Times,serif" font-size="14.00">class = sentimental</text>
</g>
<!-- 1&#45;&gt;15 -->
<g id="edge15" class="edge"><title>1&#45;&gt;15</title>
<path fill="none" stroke="black" d="M1146.5,-504.884C1146.5,-496.778 1146.5,-487.982 1146.5,-479.472"/>
<polygon fill="black" stroke="black" points="1150,-479.299 1146.5,-469.299 1143,-479.299 1150,-479.299"/>
</g>
<!-- 3 -->
<g id="node4" class="node"><title>3</title>
<polygon fill="#e58139" stroke="black" points="424.5,-357.5 296.5,-357.5 296.5,-304.5 424.5,-304.5 424.5,-357.5"/>
<text text-anchor="middle" x="360.5" y="-342.3" font-family="Times,serif" font-size="14.00">samples = 10</text>
<text text-anchor="middle" x="360.5" y="-327.3" font-family="Times,serif" font-size="14.00">value = [10, 0, 0, 0]</text>
<text text-anchor="middle" x="360.5" y="-312.3" font-family="Times,serif" font-size="14.00">class = costumbrista</text>
</g>
<!-- 2&#45;&gt;3 -->
<g id="edge3" class="edge"><title>2&#45;&gt;3</title>
<path fill="none" stroke="black" d="M483.41,-400.884C461.333,-388.511 436.388,-374.53 414.767,-362.413"/>
<polygon fill="black" stroke="black" points="416.47,-359.356 406.036,-357.52 413.048,-365.462 416.47,-359.356"/>
</g>
<!-- 4 -->
<g id="node5" class="node"><title>4</title>
<polygon fill="#d739e5" fill-opacity="0.501961" stroke="black" points="642.5,-365 442.5,-365 442.5,-297 642.5,-297 642.5,-365"/>
<text text-anchor="middle" x="542.5" y="-349.8" font-family="Times,serif" font-size="14.00">speech_neutral_NRC &lt;= 32.4398</text>
<text text-anchor="middle" x="542.5" y="-334.8" font-family="Times,serif" font-size="14.00">samples = 25</text>
<text text-anchor="middle" x="542.5" y="-319.8" font-family="Times,serif" font-size="14.00">value = [7, 2, 0, 16]</text>
<text text-anchor="middle" x="542.5" y="-304.8" font-family="Times,serif" font-size="14.00">class = sociopolitical</text>
</g>
<!-- 2&#45;&gt;4 -->
<g id="edge4" class="edge"><title>2&#45;&gt;4</title>
<path fill="none" stroke="black" d="M542.5,-400.884C542.5,-392.778 542.5,-383.982 542.5,-375.472"/>
<polygon fill="black" stroke="black" points="546,-375.299 542.5,-365.299 539,-375.299 546,-375.299"/>
</g>
<!-- 5 -->
<g id="node6" class="node"><title>5</title>
<polygon fill="#d739e5" fill-opacity="0.800000" stroke="black" points="341.5,-261 153.5,-261 153.5,-193 341.5,-193 341.5,-261"/>
<text text-anchor="middle" x="247.5" y="-245.8" font-family="Times,serif" font-size="14.00">Fear_NRC_narrated &lt;= 4.1818</text>
<text text-anchor="middle" x="247.5" y="-230.8" font-family="Times,serif" font-size="14.00">samples = 18</text>
<text text-anchor="middle" x="247.5" y="-215.8" font-family="Times,serif" font-size="14.00">value = [3, 0, 0, 15]</text>
<text text-anchor="middle" x="247.5" y="-200.8" font-family="Times,serif" font-size="14.00">class = sociopolitical</text>
</g>
<!-- 4&#45;&gt;5 -->
<g id="edge5" class="edge"><title>4&#45;&gt;5</title>
<path fill="none" stroke="black" d="M446.722,-296.884C416.152,-286.314 382.189,-274.571 351.091,-263.818"/>
<polygon fill="black" stroke="black" points="352.134,-260.475 341.539,-260.515 349.846,-267.091 352.134,-260.475"/>
</g>
<!-- 10 -->
<g id="node11" class="node"><title>10</title>
<polygon fill="#e58139" fill-opacity="0.400000" stroke="black" points="641,-261 444,-261 444,-193 641,-193 641,-261"/>
<text text-anchor="middle" x="542.5" y="-245.8" font-family="Times,serif" font-size="14.00">Disgust_NRC_speech &lt;= 0.3082</text>
<text text-anchor="middle" x="542.5" y="-230.8" font-family="Times,serif" font-size="14.00">samples = 7</text>
<text text-anchor="middle" x="542.5" y="-215.8" font-family="Times,serif" font-size="14.00">value = [4, 2, 0, 1]</text>
<text text-anchor="middle" x="542.5" y="-200.8" font-family="Times,serif" font-size="14.00">class = costumbrista</text>
</g>
<!-- 4&#45;&gt;10 -->
<g id="edge10" class="edge"><title>4&#45;&gt;10</title>
<path fill="none" stroke="black" d="M542.5,-296.884C542.5,-288.778 542.5,-279.982 542.5,-271.472"/>
<polygon fill="black" stroke="black" points="546,-271.299 542.5,-261.299 539,-271.299 546,-271.299"/>
</g>
<!-- 6 -->
<g id="node7" class="node"><title>6</title>
<polygon fill="#d739e5" stroke="black" points="131,-149.5 0,-149.5 0,-96.5 131,-96.5 131,-149.5"/>
<text text-anchor="middle" x="65.5" y="-134.3" font-family="Times,serif" font-size="14.00">samples = 13</text>
<text text-anchor="middle" x="65.5" y="-119.3" font-family="Times,serif" font-size="14.00">value = [0, 0, 0, 13]</text>
<text text-anchor="middle" x="65.5" y="-104.3" font-family="Times,serif" font-size="14.00">class = sociopolitical</text>
</g>
<!-- 5&#45;&gt;6 -->
<g id="edge6" class="edge"><title>5&#45;&gt;6</title>
<path fill="none" stroke="black" d="M188.41,-192.884C166.333,-180.511 141.388,-166.53 119.767,-154.413"/>
<polygon fill="black" stroke="black" points="121.47,-151.356 111.036,-149.52 118.048,-157.462 121.47,-151.356"/>
</g>
<!-- 7 -->
<g id="node8" class="node"><title>7</title>
<polygon fill="#e58139" fill-opacity="0.333333" stroke="black" points="346,-157 149,-157 149,-89 346,-89 346,-157"/>
<text text-anchor="middle" x="247.5" y="-141.8" font-family="Times,serif" font-size="14.00">Anger_NRC_narrated &lt;= 2.5893</text>
<text text-anchor="middle" x="247.5" y="-126.8" font-family="Times,serif" font-size="14.00">samples = 5</text>
<text text-anchor="middle" x="247.5" y="-111.8" font-family="Times,serif" font-size="14.00">value = [3, 0, 0, 2]</text>
<text text-anchor="middle" x="247.5" y="-96.8" font-family="Times,serif" font-size="14.00">class = costumbrista</text>
</g>
<!-- 5&#45;&gt;7 -->
<g id="edge7" class="edge"><title>5&#45;&gt;7</title>
<path fill="none" stroke="black" d="M247.5,-192.884C247.5,-184.778 247.5,-175.982 247.5,-167.472"/>
<polygon fill="black" stroke="black" points="251,-167.299 247.5,-157.299 244,-167.299 251,-167.299"/>
</g>
<!-- 8 -->
<g id="node9" class="node"><title>8</title>
<polygon fill="#e58139" stroke="black" points="163.5,-53 35.5,-53 35.5,-0 163.5,-0 163.5,-53"/>
<text text-anchor="middle" x="99.5" y="-37.8" font-family="Times,serif" font-size="14.00">samples = 3</text>
<text text-anchor="middle" x="99.5" y="-22.8" font-family="Times,serif" font-size="14.00">value = [3, 0, 0, 0]</text>
<text text-anchor="middle" x="99.5" y="-7.8" font-family="Times,serif" font-size="14.00">class = costumbrista</text>
</g>
<!-- 7&#45;&gt;8 -->
<g id="edge8" class="edge"><title>7&#45;&gt;8</title>
<path fill="none" stroke="black" d="M195.737,-88.9485C180.407,-79.1601 163.673,-68.4756 148.522,-58.8015"/>
<polygon fill="black" stroke="black" points="150.119,-55.6685 139.807,-53.2367 146.352,-61.5683 150.119,-55.6685"/>
</g>
<!-- 9 -->
<g id="node10" class="node"><title>9</title>
<polygon fill="#d739e5" stroke="black" points="313,-53 182,-53 182,-0 313,-0 313,-53"/>
<text text-anchor="middle" x="247.5" y="-37.8" font-family="Times,serif" font-size="14.00">samples = 2</text>
<text text-anchor="middle" x="247.5" y="-22.8" font-family="Times,serif" font-size="14.00">value = [0, 0, 0, 2]</text>
<text text-anchor="middle" x="247.5" y="-7.8" font-family="Times,serif" font-size="14.00">class = sociopolitical</text>
</g>
<!-- 7&#45;&gt;9 -->
<g id="edge9" class="edge"><title>7&#45;&gt;9</title>
<path fill="none" stroke="black" d="M247.5,-88.9485C247.5,-80.7153 247.5,-71.848 247.5,-63.4814"/>
<polygon fill="black" stroke="black" points="251,-63.2367 247.5,-53.2367 244,-63.2367 251,-63.2367"/>
</g>
<!-- 11 -->
<g id="node12" class="node"><title>11</title>
<polygon fill="#47e539" fill-opacity="0.498039" stroke="black" points="542,-157 377,-157 377,-89 542,-89 542,-157"/>
<text text-anchor="middle" x="459.5" y="-141.8" font-family="Times,serif" font-size="14.00">negative_NRC &lt;= 13.6383</text>
<text text-anchor="middle" x="459.5" y="-126.8" font-family="Times,serif" font-size="14.00">samples = 3</text>
<text text-anchor="middle" x="459.5" y="-111.8" font-family="Times,serif" font-size="14.00">value = [0, 2, 0, 1]</text>
<text text-anchor="middle" x="459.5" y="-96.8" font-family="Times,serif" font-size="14.00">class = historical</text>
</g>
<!-- 10&#45;&gt;11 -->
<g id="edge11" class="edge"><title>10&#45;&gt;11</title>
<path fill="none" stroke="black" d="M515.552,-192.884C508.377,-184.065 500.536,-174.43 493.054,-165.235"/>
<polygon fill="black" stroke="black" points="495.623,-162.847 486.597,-157.299 490.193,-167.265 495.623,-162.847"/>
</g>
<!-- 14 -->
<g id="node15" class="node"><title>14</title>
<polygon fill="#e58139" stroke="black" points="688.5,-149.5 560.5,-149.5 560.5,-96.5 688.5,-96.5 688.5,-149.5"/>
<text text-anchor="middle" x="624.5" y="-134.3" font-family="Times,serif" font-size="14.00">samples = 4</text>
<text text-anchor="middle" x="624.5" y="-119.3" font-family="Times,serif" font-size="14.00">value = [4, 0, 0, 0]</text>
<text text-anchor="middle" x="624.5" y="-104.3" font-family="Times,serif" font-size="14.00">class = costumbrista</text>
</g>
<!-- 10&#45;&gt;14 -->
<g id="edge14" class="edge"><title>10&#45;&gt;14</title>
<path fill="none" stroke="black" d="M569.123,-192.884C578.23,-181.556 588.42,-168.88 597.552,-157.521"/>
<polygon fill="black" stroke="black" points="600.446,-159.507 603.984,-149.52 594.991,-155.121 600.446,-159.507"/>
</g>
<!-- 12 -->
<g id="node13" class="node"><title>12</title>
<polygon fill="#47e539" stroke="black" points="451.5,-53 331.5,-53 331.5,-0 451.5,-0 451.5,-53"/>
<text text-anchor="middle" x="391.5" y="-37.8" font-family="Times,serif" font-size="14.00">samples = 2</text>
<text text-anchor="middle" x="391.5" y="-22.8" font-family="Times,serif" font-size="14.00">value = [0, 2, 0, 0]</text>
<text text-anchor="middle" x="391.5" y="-7.8" font-family="Times,serif" font-size="14.00">class = historical</text>
</g>
<!-- 11&#45;&gt;12 -->
<g id="edge12" class="edge"><title>11&#45;&gt;12</title>
<path fill="none" stroke="black" d="M435.717,-88.9485C429.332,-80.0749 422.416,-70.4648 415.993,-61.5388"/>
<polygon fill="black" stroke="black" points="418.701,-59.3094 410.02,-53.2367 413.019,-63.398 418.701,-59.3094"/>
</g>
<!-- 13 -->
<g id="node14" class="node"><title>13</title>
<polygon fill="#d739e5" stroke="black" points="601,-53 470,-53 470,-0 601,-0 601,-53"/>
<text text-anchor="middle" x="535.5" y="-37.8" font-family="Times,serif" font-size="14.00">samples = 1</text>
<text text-anchor="middle" x="535.5" y="-22.8" font-family="Times,serif" font-size="14.00">value = [0, 0, 0, 1]</text>
<text text-anchor="middle" x="535.5" y="-7.8" font-family="Times,serif" font-size="14.00">class = sociopolitical</text>
</g>
<!-- 11&#45;&gt;13 -->
<g id="edge13" class="edge"><title>11&#45;&gt;13</title>
<path fill="none" stroke="black" d="M486.081,-88.9485C493.291,-79.9834 501.106,-70.2666 508.347,-61.2629"/>
<polygon fill="black" stroke="black" points="511.262,-63.2228 514.802,-53.2367 505.807,-58.8358 511.262,-63.2228"/>
</g>
<!-- 16 -->
<g id="node17" class="node"><title>16</title>
<polygon fill="#399de5" fill-opacity="0.772549" stroke="black" points="1132,-365 931,-365 931,-297 1132,-297 1132,-365"/>
<text text-anchor="middle" x="1031.5" y="-349.8" font-family="Times,serif" font-size="14.00">narrated_neutral_NRC &lt;= 6.7615</text>
<text text-anchor="middle" x="1031.5" y="-334.8" font-family="Times,serif" font-size="14.00">samples = 35</text>
<text text-anchor="middle" x="1031.5" y="-319.8" font-family="Times,serif" font-size="14.00">value = [2, 1, 28, 4]</text>
<text text-anchor="middle" x="1031.5" y="-304.8" font-family="Times,serif" font-size="14.00">class = sentimental</text>
</g>
<!-- 15&#45;&gt;16 -->
<g id="edge16" class="edge"><title>15&#45;&gt;16</title>
<path fill="none" stroke="black" d="M1109.16,-400.884C1098.82,-391.709 1087.48,-381.65 1076.74,-372.123"/>
<polygon fill="black" stroke="black" points="1078.85,-369.317 1069.04,-365.299 1074.2,-374.553 1078.85,-369.317"/>
</g>
<!-- 25 -->
<g id="node26" class="node"><title>25</title>
<polygon fill="none" stroke="black" points="1375,-365 1150,-365 1150,-297 1375,-297 1375,-365"/>
<text text-anchor="middle" x="1262.5" y="-349.8" font-family="Times,serif" font-size="14.00">narrated_emotional_NRC &lt;= 34.5336</text>
<text text-anchor="middle" x="1262.5" y="-334.8" font-family="Times,serif" font-size="14.00">samples = 8</text>
<text text-anchor="middle" x="1262.5" y="-319.8" font-family="Times,serif" font-size="14.00">value = [3, 1, 1, 3]</text>
<text text-anchor="middle" x="1262.5" y="-304.8" font-family="Times,serif" font-size="14.00">class = costumbrista</text>
</g>
<!-- 15&#45;&gt;25 -->
<g id="edge25" class="edge"><title>15&#45;&gt;25</title>
<path fill="none" stroke="black" d="M1184.16,-400.884C1194.6,-391.709 1206.04,-381.65 1216.87,-372.123"/>
<polygon fill="black" stroke="black" points="1219.43,-374.531 1224.63,-365.299 1214.81,-369.274 1219.43,-374.531"/>
</g>
<!-- 17 -->
<g id="node18" class="node"><title>17</title>
<polygon fill="#d739e5" stroke="black" points="937,-253.5 806,-253.5 806,-200.5 937,-200.5 937,-253.5"/>
<text text-anchor="middle" x="871.5" y="-238.3" font-family="Times,serif" font-size="14.00">samples = 3</text>
<text text-anchor="middle" x="871.5" y="-223.3" font-family="Times,serif" font-size="14.00">value = [0, 0, 0, 3]</text>
<text text-anchor="middle" x="871.5" y="-208.3" font-family="Times,serif" font-size="14.00">class = sociopolitical</text>
</g>
<!-- 16&#45;&gt;17 -->
<g id="edge17" class="edge"><title>16&#45;&gt;17</title>
<path fill="none" stroke="black" d="M979.553,-296.884C960.403,-284.676 938.799,-270.903 919.969,-258.899"/>
<polygon fill="black" stroke="black" points="921.845,-255.944 911.531,-253.52 918.082,-261.847 921.845,-255.944"/>
</g>
<!-- 18 -->
<g id="node19" class="node"><title>18</title>
<polygon fill="#399de5" fill-opacity="0.866667" stroke="black" points="1116,-261 955,-261 955,-193 1116,-193 1116,-261"/>
<text text-anchor="middle" x="1035.5" y="-245.8" font-family="Times,serif" font-size="14.00">Joy_NRC_speech &lt;= 0.36</text>
<text text-anchor="middle" x="1035.5" y="-230.8" font-family="Times,serif" font-size="14.00">samples = 32</text>
<text text-anchor="middle" x="1035.5" y="-215.8" font-family="Times,serif" font-size="14.00">value = [2, 1, 28, 1]</text>
<text text-anchor="middle" x="1035.5" y="-200.8" font-family="Times,serif" font-size="14.00">class = sentimental</text>
</g>
<!-- 16&#45;&gt;18 -->
<g id="edge18" class="edge"><title>16&#45;&gt;18</title>
<path fill="none" stroke="black" d="M1032.8,-296.884C1033.12,-288.778 1033.46,-279.982 1033.8,-271.472"/>
<polygon fill="black" stroke="black" points="1037.3,-271.429 1034.19,-261.299 1030.3,-271.155 1037.3,-271.429"/>
</g>
<!-- 19 -->
<g id="node20" class="node"><title>19</title>
<polygon fill="none" stroke="black" points="919,-157 722,-157 722,-89 919,-89 919,-157"/>
<text text-anchor="middle" x="820.5" y="-141.8" font-family="Times,serif" font-size="14.00">Disgust_NRC_speech &lt;= 1.1934</text>
<text text-anchor="middle" x="820.5" y="-126.8" font-family="Times,serif" font-size="14.00">samples = 5</text>
<text text-anchor="middle" x="820.5" y="-111.8" font-family="Times,serif" font-size="14.00">value = [2, 0, 2, 1]</text>
<text text-anchor="middle" x="820.5" y="-96.8" font-family="Times,serif" font-size="14.00">class = costumbrista</text>
</g>
<!-- 18&#45;&gt;19 -->
<g id="edge19" class="edge"><title>18&#45;&gt;19</title>
<path fill="none" stroke="black" d="M965.696,-192.884C944.56,-182.856 921.198,-171.773 899.505,-161.482"/>
<polygon fill="black" stroke="black" points="900.857,-158.249 890.322,-157.125 897.856,-164.573 900.857,-158.249"/>
</g>
<!-- 22 -->
<g id="node23" class="node"><title>22</title>
<polygon fill="#399de5" fill-opacity="0.960784" stroke="black" points="1146,-157 937,-157 937,-89 1146,-89 1146,-157"/>
<text text-anchor="middle" x="1041.5" y="-141.8" font-family="Times,serif" font-size="14.00">Surprise_NRC_narrated &lt;= 1.4387</text>
<text text-anchor="middle" x="1041.5" y="-126.8" font-family="Times,serif" font-size="14.00">samples = 27</text>
<text text-anchor="middle" x="1041.5" y="-111.8" font-family="Times,serif" font-size="14.00">value = [0, 1, 26, 0]</text>
<text text-anchor="middle" x="1041.5" y="-96.8" font-family="Times,serif" font-size="14.00">class = sentimental</text>
</g>
<!-- 18&#45;&gt;22 -->
<g id="edge22" class="edge"><title>18&#45;&gt;22</title>
<path fill="none" stroke="black" d="M1037.45,-192.884C1037.92,-184.778 1038.44,-175.982 1038.94,-167.472"/>
<polygon fill="black" stroke="black" points="1042.45,-167.488 1039.54,-157.299 1035.46,-167.077 1042.45,-167.488"/>
</g>
<!-- 20 -->
<g id="node21" class="node"><title>20</title>
<polygon fill="#399de5" stroke="black" points="741.5,-53 619.5,-53 619.5,-0 741.5,-0 741.5,-53"/>
<text text-anchor="middle" x="680.5" y="-37.8" font-family="Times,serif" font-size="14.00">samples = 2</text>
<text text-anchor="middle" x="680.5" y="-22.8" font-family="Times,serif" font-size="14.00">value = [0, 0, 2, 0]</text>
<text text-anchor="middle" x="680.5" y="-7.8" font-family="Times,serif" font-size="14.00">class = sentimental</text>
</g>
<!-- 19&#45;&gt;20 -->
<g id="edge20" class="edge"><title>19&#45;&gt;20</title>
<path fill="none" stroke="black" d="M771.535,-88.9485C757.169,-79.2516 741.5,-68.6752 727.275,-59.073"/>
<polygon fill="black" stroke="black" points="728.875,-55.9305 718.628,-53.2367 724.959,-61.7325 728.875,-55.9305"/>
</g>
<!-- 21 -->
<g id="node22" class="node"><title>21</title>
<polygon fill="#e58139" fill-opacity="0.498039" stroke="black" points="887.5,-53 759.5,-53 759.5,-0 887.5,-0 887.5,-53"/>
<text text-anchor="middle" x="823.5" y="-37.8" font-family="Times,serif" font-size="14.00">samples = 3</text>
<text text-anchor="middle" x="823.5" y="-22.8" font-family="Times,serif" font-size="14.00">value = [2, 0, 0, 1]</text>
<text text-anchor="middle" x="823.5" y="-7.8" font-family="Times,serif" font-size="14.00">class = costumbrista</text>
</g>
<!-- 19&#45;&gt;21 -->
<g id="edge21" class="edge"><title>19&#45;&gt;21</title>
<path fill="none" stroke="black" d="M821.549,-88.9485C821.811,-80.7153 822.092,-71.848 822.358,-63.4814"/>
<polygon fill="black" stroke="black" points="825.864,-63.3428 822.683,-53.2367 818.867,-63.1206 825.864,-63.3428"/>
</g>
<!-- 23 -->
<g id="node24" class="node"><title>23</title>
<polygon fill="#399de5" stroke="black" points="1033,-53 906,-53 906,-0 1033,-0 1033,-53"/>
<text text-anchor="middle" x="969.5" y="-37.8" font-family="Times,serif" font-size="14.00">samples = 26</text>
<text text-anchor="middle" x="969.5" y="-22.8" font-family="Times,serif" font-size="14.00">value = [0, 0, 26, 0]</text>
<text text-anchor="middle" x="969.5" y="-7.8" font-family="Times,serif" font-size="14.00">class = sentimental</text>
</g>
<!-- 22&#45;&gt;23 -->
<g id="edge23" class="edge"><title>22&#45;&gt;23</title>
<path fill="none" stroke="black" d="M1016.32,-88.9485C1009.49,-79.9834 1002.08,-70.2666 995.224,-61.2629"/>
<polygon fill="black" stroke="black" points="997.953,-59.0699 989.109,-53.2367 992.385,-63.3122 997.953,-59.0699"/>
</g>
<!-- 24 -->
<g id="node25" class="node"><title>24</title>
<polygon fill="#47e539" stroke="black" points="1171.5,-53 1051.5,-53 1051.5,-0 1171.5,-0 1171.5,-53"/>
<text text-anchor="middle" x="1111.5" y="-37.8" font-family="Times,serif" font-size="14.00">samples = 1</text>
<text text-anchor="middle" x="1111.5" y="-22.8" font-family="Times,serif" font-size="14.00">value = [0, 1, 0, 0]</text>
<text text-anchor="middle" x="1111.5" y="-7.8" font-family="Times,serif" font-size="14.00">class = historical</text>
</g>
<!-- 22&#45;&gt;24 -->
<g id="edge24" class="edge"><title>22&#45;&gt;24</title>
<path fill="none" stroke="black" d="M1065.98,-88.9485C1072.56,-80.0749 1079.67,-70.4648 1086.29,-61.5388"/>
<polygon fill="black" stroke="black" points="1089.3,-63.3556 1092.44,-53.2367 1083.67,-59.189 1089.3,-63.3556"/>
</g>
<!-- 26 -->
<g id="node27" class="node"><title>26</title>
<polygon fill="#d739e5" fill-opacity="0.498039" stroke="black" points="1315,-261 1184,-261 1184,-193 1315,-193 1315,-261"/>
<text text-anchor="middle" x="1249.5" y="-245.8" font-family="Times,serif" font-size="14.00">Joy_NRC &lt;= 1.4775</text>
<text text-anchor="middle" x="1249.5" y="-230.8" font-family="Times,serif" font-size="14.00">samples = 5</text>
<text text-anchor="middle" x="1249.5" y="-215.8" font-family="Times,serif" font-size="14.00">value = [0, 1, 1, 3]</text>
<text text-anchor="middle" x="1249.5" y="-200.8" font-family="Times,serif" font-size="14.00">class = sociopolitical</text>
</g>
<!-- 25&#45;&gt;26 -->
<g id="edge26" class="edge"><title>25&#45;&gt;26</title>
<path fill="none" stroke="black" d="M1258.28,-296.884C1257.25,-288.778 1256.13,-279.982 1255.04,-271.472"/>
<polygon fill="black" stroke="black" points="1258.48,-270.777 1253.74,-261.299 1251.54,-271.662 1258.48,-270.777"/>
</g>
<!-- 31 -->
<g id="node32" class="node"><title>31</title>
<polygon fill="#e58139" stroke="black" points="1461.5,-253.5 1333.5,-253.5 1333.5,-200.5 1461.5,-200.5 1461.5,-253.5"/>
<text text-anchor="middle" x="1397.5" y="-238.3" font-family="Times,serif" font-size="14.00">samples = 3</text>
<text text-anchor="middle" x="1397.5" y="-223.3" font-family="Times,serif" font-size="14.00">value = [3, 0, 0, 0]</text>
<text text-anchor="middle" x="1397.5" y="-208.3" font-family="Times,serif" font-size="14.00">class = costumbrista</text>
</g>
<!-- 25&#45;&gt;31 -->
<g id="edge31" class="edge"><title>25&#45;&gt;31</title>
<path fill="none" stroke="black" d="M1306.33,-296.884C1322.2,-284.896 1340.06,-271.399 1355.74,-259.549"/>
<polygon fill="black" stroke="black" points="1357.85,-262.341 1363.72,-253.52 1353.63,-256.756 1357.85,-262.341"/>
</g>
<!-- 27 -->
<g id="node28" class="node"><title>27</title>
<polygon fill="none" stroke="black" points="1314,-157 1185,-157 1185,-89 1314,-89 1314,-157"/>
<text text-anchor="middle" x="1249.5" y="-141.8" font-family="Times,serif" font-size="14.00">narrated &lt;= 52.5014</text>
<text text-anchor="middle" x="1249.5" y="-126.8" font-family="Times,serif" font-size="14.00">samples = 2</text>
<text text-anchor="middle" x="1249.5" y="-111.8" font-family="Times,serif" font-size="14.00">value = [0, 1, 1, 0]</text>
<text text-anchor="middle" x="1249.5" y="-96.8" font-family="Times,serif" font-size="14.00">class = historical</text>
</g>
<!-- 26&#45;&gt;27 -->
<g id="edge27" class="edge"><title>26&#45;&gt;27</title>
<path fill="none" stroke="black" d="M1249.5,-192.884C1249.5,-184.778 1249.5,-175.982 1249.5,-167.472"/>
<polygon fill="black" stroke="black" points="1253,-167.299 1249.5,-157.299 1246,-167.299 1253,-167.299"/>
</g>
<!-- 30 -->
<g id="node31" class="node"><title>30</title>
<polygon fill="#d739e5" stroke="black" points="1463,-149.5 1332,-149.5 1332,-96.5 1463,-96.5 1463,-149.5"/>
<text text-anchor="middle" x="1397.5" y="-134.3" font-family="Times,serif" font-size="14.00">samples = 3</text>
<text text-anchor="middle" x="1397.5" y="-119.3" font-family="Times,serif" font-size="14.00">value = [0, 0, 0, 3]</text>
<text text-anchor="middle" x="1397.5" y="-104.3" font-family="Times,serif" font-size="14.00">class = sociopolitical</text>
</g>
<!-- 26&#45;&gt;30 -->
<g id="edge30" class="edge"><title>26&#45;&gt;30</title>
<path fill="none" stroke="black" d="M1297.55,-192.884C1315.1,-180.786 1334.89,-167.151 1352.19,-155.224"/>
<polygon fill="black" stroke="black" points="1354.22,-158.077 1360.47,-149.52 1350.25,-152.313 1354.22,-158.077"/>
</g>
<!-- 28 -->
<g id="node29" class="node"><title>28</title>
<polygon fill="#47e539" stroke="black" points="1309.5,-53 1189.5,-53 1189.5,-0 1309.5,-0 1309.5,-53"/>
<text text-anchor="middle" x="1249.5" y="-37.8" font-family="Times,serif" font-size="14.00">samples = 1</text>
<text text-anchor="middle" x="1249.5" y="-22.8" font-family="Times,serif" font-size="14.00">value = [0, 1, 0, 0]</text>
<text text-anchor="middle" x="1249.5" y="-7.8" font-family="Times,serif" font-size="14.00">class = historical</text>
</g>
<!-- 27&#45;&gt;28 -->
<g id="edge28" class="edge"><title>27&#45;&gt;28</title>
<path fill="none" stroke="black" d="M1249.5,-88.9485C1249.5,-80.7153 1249.5,-71.848 1249.5,-63.4814"/>
<polygon fill="black" stroke="black" points="1253,-63.2367 1249.5,-53.2367 1246,-63.2367 1253,-63.2367"/>
</g>
<!-- 29 -->
<g id="node30" class="node"><title>29</title>
<polygon fill="#399de5" stroke="black" points="1449.5,-53 1327.5,-53 1327.5,-0 1449.5,-0 1449.5,-53"/>
<text text-anchor="middle" x="1388.5" y="-37.8" font-family="Times,serif" font-size="14.00">samples = 1</text>
<text text-anchor="middle" x="1388.5" y="-22.8" font-family="Times,serif" font-size="14.00">value = [0, 0, 1, 0]</text>
<text text-anchor="middle" x="1388.5" y="-7.8" font-family="Times,serif" font-size="14.00">class = sentimental</text>
</g>
<!-- 27&#45;&gt;29 -->
<g id="edge29" class="edge"><title>27&#45;&gt;29</title>
<path fill="none" stroke="black" d="M1298.12,-88.9485C1312.38,-79.2516 1327.94,-68.6752 1342.06,-59.073"/>
<polygon fill="black" stroke="black" points="1344.34,-61.7535 1350.64,-53.2367 1340.41,-55.9646 1344.34,-61.7535"/>
</g>
<!-- 33 -->
<g id="node34" class="node"><title>33</title>
<polygon fill="#47e539" fill-opacity="0.847059" stroke="black" points="1869.5,-469 1679.5,-469 1679.5,-401 1869.5,-401 1869.5,-469"/>
<text text-anchor="middle" x="1774.5" y="-453.8" font-family="Times,serif" font-size="14.00">Anger_NRC_speech &lt;= 0.2148</text>
<text text-anchor="middle" x="1774.5" y="-438.8" font-family="Times,serif" font-size="14.00">samples = 29</text>
<text text-anchor="middle" x="1774.5" y="-423.8" font-family="Times,serif" font-size="14.00">value = [0, 25, 1, 3]</text>
<text text-anchor="middle" x="1774.5" y="-408.8" font-family="Times,serif" font-size="14.00">class = historical</text>
</g>
<!-- 32&#45;&gt;33 -->
<g id="edge33" class="edge"><title>32&#45;&gt;33</title>
<path fill="none" stroke="black" d="M1774.5,-504.884C1774.5,-496.778 1774.5,-487.982 1774.5,-479.472"/>
<polygon fill="black" stroke="black" points="1778,-479.299 1774.5,-469.299 1771,-479.299 1778,-479.299"/>
</g>
<!-- 42 -->
<g id="node43" class="node"><title>42</title>
<polygon fill="#399de5" fill-opacity="0.749020" stroke="black" points="2158.5,-469 1940.5,-469 1940.5,-401 2158.5,-401 2158.5,-469"/>
<text text-anchor="middle" x="2049.5" y="-453.8" font-family="Times,serif" font-size="14.00">speech_emotional_NRC &lt;= 30.7353</text>
<text text-anchor="middle" x="2049.5" y="-438.8" font-family="Times,serif" font-size="14.00">samples = 5</text>
<text text-anchor="middle" x="2049.5" y="-423.8" font-family="Times,serif" font-size="14.00">value = [0, 1, 4, 0]</text>
<text text-anchor="middle" x="2049.5" y="-408.8" font-family="Times,serif" font-size="14.00">class = sentimental</text>
</g>
<!-- 32&#45;&gt;42 -->
<g id="edge42" class="edge"><title>32&#45;&gt;42</title>
<path fill="none" stroke="black" d="M1863.78,-504.884C1891.54,-494.588 1922.3,-483.179 1950.67,-472.656"/>
<polygon fill="black" stroke="black" points="1952.03,-475.884 1960.19,-469.125 1949.6,-469.321 1952.03,-475.884"/>
</g>
<!-- 34 -->
<g id="node35" class="node"><title>34</title>
<polygon fill="#d739e5" fill-opacity="0.333333" stroke="black" points="1825,-365 1620,-365 1620,-297 1825,-297 1825,-365"/>
<text text-anchor="middle" x="1722.5" y="-349.8" font-family="Times,serif" font-size="14.00">Disgust_NRC_narrated &lt;= 0.6995</text>
<text text-anchor="middle" x="1722.5" y="-334.8" font-family="Times,serif" font-size="14.00">samples = 4</text>
<text text-anchor="middle" x="1722.5" y="-319.8" font-family="Times,serif" font-size="14.00">value = [0, 1, 1, 2]</text>
<text text-anchor="middle" x="1722.5" y="-304.8" font-family="Times,serif" font-size="14.00">class = sociopolitical</text>
</g>
<!-- 33&#45;&gt;34 -->
<g id="edge34" class="edge"><title>33&#45;&gt;34</title>
<path fill="none" stroke="black" d="M1757.62,-400.884C1753.3,-392.422 1748.61,-383.207 1744.09,-374.352"/>
<polygon fill="black" stroke="black" points="1747.14,-372.619 1739.48,-365.299 1740.9,-375.798 1747.14,-372.619"/>
</g>
<!-- 39 -->
<g id="node40" class="node"><title>39</title>
<polygon fill="#47e539" fill-opacity="0.956863" stroke="black" points="1970,-365 1843,-365 1843,-297 1970,-297 1970,-365"/>
<text text-anchor="middle" x="1906.5" y="-349.8" font-family="Times,serif" font-size="14.00">Joy_NRC &lt;= 0.342</text>
<text text-anchor="middle" x="1906.5" y="-334.8" font-family="Times,serif" font-size="14.00">samples = 25</text>
<text text-anchor="middle" x="1906.5" y="-319.8" font-family="Times,serif" font-size="14.00">value = [0, 24, 0, 1]</text>
<text text-anchor="middle" x="1906.5" y="-304.8" font-family="Times,serif" font-size="14.00">class = historical</text>
</g>
<!-- 33&#45;&gt;39 -->
<g id="edge39" class="edge"><title>33&#45;&gt;39</title>
<path fill="none" stroke="black" d="M1817.36,-400.884C1829.46,-391.531 1842.75,-381.259 1855.29,-371.568"/>
<polygon fill="black" stroke="black" points="1857.63,-374.183 1863.41,-365.299 1853.35,-368.644 1857.63,-374.183"/>
</g>
<!-- 35 -->
<g id="node36" class="node"><title>35</title>
<polygon fill="none" stroke="black" points="1673.5,-261 1479.5,-261 1479.5,-193 1673.5,-193 1673.5,-261"/>
<text text-anchor="middle" x="1576.5" y="-245.8" font-family="Times,serif" font-size="14.00">speech_neutral_NRC &lt;= 25.659</text>
<text text-anchor="middle" x="1576.5" y="-230.8" font-family="Times,serif" font-size="14.00">samples = 2</text>
<text text-anchor="middle" x="1576.5" y="-215.8" font-family="Times,serif" font-size="14.00">value = [0, 1, 1, 0]</text>
<text text-anchor="middle" x="1576.5" y="-200.8" font-family="Times,serif" font-size="14.00">class = historical</text>
</g>
<!-- 34&#45;&gt;35 -->
<g id="edge35" class="edge"><title>34&#45;&gt;35</title>
<path fill="none" stroke="black" d="M1675.1,-296.884C1661.58,-287.442 1646.73,-277.064 1632.74,-267.292"/>
<polygon fill="black" stroke="black" points="1634.37,-264.157 1624.16,-261.299 1630.36,-269.896 1634.37,-264.157"/>
</g>
<!-- 38 -->
<g id="node39" class="node"><title>38</title>
<polygon fill="#d739e5" stroke="black" points="1823,-253.5 1692,-253.5 1692,-200.5 1823,-200.5 1823,-253.5"/>
<text text-anchor="middle" x="1757.5" y="-238.3" font-family="Times,serif" font-size="14.00">samples = 2</text>
<text text-anchor="middle" x="1757.5" y="-223.3" font-family="Times,serif" font-size="14.00">value = [0, 0, 0, 2]</text>
<text text-anchor="middle" x="1757.5" y="-208.3" font-family="Times,serif" font-size="14.00">class = sociopolitical</text>
</g>
<!-- 34&#45;&gt;38 -->
<g id="edge38" class="edge"><title>34&#45;&gt;38</title>
<path fill="none" stroke="black" d="M1733.86,-296.884C1737.56,-286.106 1741.68,-274.108 1745.43,-263.184"/>
<polygon fill="black" stroke="black" points="1748.81,-264.115 1748.74,-253.52 1742.19,-261.843 1748.81,-264.115"/>
</g>
<!-- 36 -->
<g id="node37" class="node"><title>36</title>
<polygon fill="#399de5" stroke="black" points="1620.5,-149.5 1498.5,-149.5 1498.5,-96.5 1620.5,-96.5 1620.5,-149.5"/>
<text text-anchor="middle" x="1559.5" y="-134.3" font-family="Times,serif" font-size="14.00">samples = 1</text>
<text text-anchor="middle" x="1559.5" y="-119.3" font-family="Times,serif" font-size="14.00">value = [0, 0, 1, 0]</text>
<text text-anchor="middle" x="1559.5" y="-104.3" font-family="Times,serif" font-size="14.00">class = sentimental</text>
</g>
<!-- 35&#45;&gt;36 -->
<g id="edge36" class="edge"><title>35&#45;&gt;36</title>
<path fill="none" stroke="black" d="M1570.98,-192.884C1569.2,-182.216 1567.23,-170.352 1565.42,-159.519"/>
<polygon fill="black" stroke="black" points="1568.85,-158.808 1563.75,-149.52 1561.95,-159.959 1568.85,-158.808"/>
</g>
<!-- 37 -->
<g id="node38" class="node"><title>37</title>
<polygon fill="#47e539" stroke="black" points="1758.5,-149.5 1638.5,-149.5 1638.5,-96.5 1758.5,-96.5 1758.5,-149.5"/>
<text text-anchor="middle" x="1698.5" y="-134.3" font-family="Times,serif" font-size="14.00">samples = 1</text>
<text text-anchor="middle" x="1698.5" y="-119.3" font-family="Times,serif" font-size="14.00">value = [0, 1, 0, 0]</text>
<text text-anchor="middle" x="1698.5" y="-104.3" font-family="Times,serif" font-size="14.00">class = historical</text>
</g>
<!-- 35&#45;&gt;37 -->
<g id="edge37" class="edge"><title>35&#45;&gt;37</title>
<path fill="none" stroke="black" d="M1616.11,-192.884C1630.19,-181.116 1646,-167.894 1659.98,-156.203"/>
<polygon fill="black" stroke="black" points="1662.55,-158.619 1667.98,-149.52 1658.06,-153.249 1662.55,-158.619"/>
</g>
<!-- 40 -->
<g id="node41" class="node"><title>40</title>
<polygon fill="#d739e5" stroke="black" points="1972,-253.5 1841,-253.5 1841,-200.5 1972,-200.5 1972,-253.5"/>
<text text-anchor="middle" x="1906.5" y="-238.3" font-family="Times,serif" font-size="14.00">samples = 1</text>
<text text-anchor="middle" x="1906.5" y="-223.3" font-family="Times,serif" font-size="14.00">value = [0, 0, 0, 1]</text>
<text text-anchor="middle" x="1906.5" y="-208.3" font-family="Times,serif" font-size="14.00">class = sociopolitical</text>
</g>
<!-- 39&#45;&gt;40 -->
<g id="edge40" class="edge"><title>39&#45;&gt;40</title>
<path fill="none" stroke="black" d="M1906.5,-296.884C1906.5,-286.326 1906.5,-274.597 1906.5,-263.854"/>
<polygon fill="black" stroke="black" points="1910,-263.52 1906.5,-253.52 1903,-263.52 1910,-263.52"/>
</g>
<!-- 41 -->
<g id="node42" class="node"><title>41</title>
<polygon fill="#47e539" stroke="black" points="2117,-253.5 1990,-253.5 1990,-200.5 2117,-200.5 2117,-253.5"/>
<text text-anchor="middle" x="2053.5" y="-238.3" font-family="Times,serif" font-size="14.00">samples = 24</text>
<text text-anchor="middle" x="2053.5" y="-223.3" font-family="Times,serif" font-size="14.00">value = [0, 24, 0, 0]</text>
<text text-anchor="middle" x="2053.5" y="-208.3" font-family="Times,serif" font-size="14.00">class = historical</text>
</g>
<!-- 39&#45;&gt;41 -->
<g id="edge41" class="edge"><title>39&#45;&gt;41</title>
<path fill="none" stroke="black" d="M1954.23,-296.884C1971.66,-284.786 1991.31,-271.151 2008.5,-259.224"/>
<polygon fill="black" stroke="black" points="2010.5,-262.096 2016.72,-253.52 2006.51,-256.345 2010.5,-262.096"/>
</g>
<!-- 43 -->
<g id="node44" class="node"><title>43</title>
<polygon fill="#399de5" stroke="black" points="2110.5,-357.5 1988.5,-357.5 1988.5,-304.5 2110.5,-304.5 2110.5,-357.5"/>
<text text-anchor="middle" x="2049.5" y="-342.3" font-family="Times,serif" font-size="14.00">samples = 4</text>
<text text-anchor="middle" x="2049.5" y="-327.3" font-family="Times,serif" font-size="14.00">value = [0, 0, 4, 0]</text>
<text text-anchor="middle" x="2049.5" y="-312.3" font-family="Times,serif" font-size="14.00">class = sentimental</text>
</g>
<!-- 42&#45;&gt;43 -->
<g id="edge43" class="edge"><title>42&#45;&gt;43</title>
<path fill="none" stroke="black" d="M2049.5,-400.884C2049.5,-390.326 2049.5,-378.597 2049.5,-367.854"/>
<polygon fill="black" stroke="black" points="2053,-367.52 2049.5,-357.52 2046,-367.52 2053,-367.52"/>
</g>
<!-- 44 -->
<g id="node45" class="node"><title>44</title>
<polygon fill="#47e539" stroke="black" points="2248.5,-357.5 2128.5,-357.5 2128.5,-304.5 2248.5,-304.5 2248.5,-357.5"/>
<text text-anchor="middle" x="2188.5" y="-342.3" font-family="Times,serif" font-size="14.00">samples = 1</text>
<text text-anchor="middle" x="2188.5" y="-327.3" font-family="Times,serif" font-size="14.00">value = [0, 1, 0, 0]</text>
<text text-anchor="middle" x="2188.5" y="-312.3" font-family="Times,serif" font-size="14.00">class = historical</text>
</g>
<!-- 42&#45;&gt;44 -->
<g id="edge44" class="edge"><title>42&#45;&gt;44</title>
<path fill="none" stroke="black" d="M2094.63,-400.884C2110.97,-388.896 2129.36,-375.399 2145.51,-363.549"/>
<polygon fill="black" stroke="black" points="2147.73,-366.258 2153.72,-357.52 2143.59,-360.614 2147.73,-366.258"/>
</g>
</g>
</svg>
