<?xml version="1.0" encoding="UTF-8" standalone="no"?>
<!DOCTYPE svg PUBLIC "-//W3C//DTD SVG 1.1//EN"
 "http://www.w3.org/Graphics/SVG/1.1/DTD/svg11.dtd">
<!-- Generated by graphviz version 2.38.0 (20140413.2041)
 -->
<!-- Title: Tree Pages: 1 -->
<svg width="2023pt" height="685pt"
 viewBox="0.00 0.00 2022.50 685.00" xmlns="http://www.w3.org/2000/svg" xmlns:xlink="http://www.w3.org/1999/xlink">
<g id="graph0" class="graph" transform="scale(1 1) rotate(0) translate(4 681)">
<title>Tree</title>
<polygon fill="white" stroke="none" points="-4,4 -4,-681 2018.5,-681 2018.5,4 -4,4"/>
<!-- 0 -->
<g id="node1" class="node"><title>0</title>
<polygon fill="#399de5" fill-opacity="0.047059" stroke="black" points="1240.5,-677 1022.5,-677 1022.5,-609 1240.5,-609 1240.5,-677"/>
<text text-anchor="middle" x="1131.5" y="-661.8" font-family="Times,serif" font-size="14.00">speech_emotional_NRC &lt;= 16.5845</text>
<text text-anchor="middle" x="1131.5" y="-646.8" font-family="Times,serif" font-size="14.00">samples = 112</text>
<text text-anchor="middle" x="1131.5" y="-631.8" font-family="Times,serif" font-size="14.00">value = [22, 30, 34, 26]</text>
<text text-anchor="middle" x="1131.5" y="-616.8" font-family="Times,serif" font-size="14.00">class = sentimental</text>
</g>
<!-- 1 -->
<g id="node2" class="node"><title>1</title>
<polygon fill="#d739e5" fill-opacity="0.066667" stroke="black" points="1105.5,-573 931.5,-573 931.5,-505 1105.5,-505 1105.5,-573"/>
<text text-anchor="middle" x="1018.5" y="-557.8" font-family="Times,serif" font-size="14.00">emotional_NRC &lt;= 58.7417</text>
<text text-anchor="middle" x="1018.5" y="-542.8" font-family="Times,serif" font-size="14.00">samples = 63</text>
<text text-anchor="middle" x="1018.5" y="-527.8" font-family="Times,serif" font-size="14.00">value = [18, 19, 4, 22]</text>
<text text-anchor="middle" x="1018.5" y="-512.8" font-family="Times,serif" font-size="14.00">class = sociopolitical</text>
</g>
<!-- 0&#45;&gt;1 -->
<g id="edge1" class="edge"><title>0&#45;&gt;1</title>
<path fill="none" stroke="black" d="M1094.81,-608.884C1084.65,-599.709 1073.5,-589.65 1062.95,-580.123"/>
<polygon fill="black" stroke="black" points="1065.16,-577.402 1055.39,-573.299 1060.47,-582.598 1065.16,-577.402"/>
<text text-anchor="middle" x="1056.67" y="-594.567" font-family="Times,serif" font-size="14.00">True</text>
</g>
<!-- 22 -->
<g id="node23" class="node"><title>22</title>
<polygon fill="#399de5" fill-opacity="0.501961" stroke="black" points="1312.5,-573 1178.5,-573 1178.5,-505 1312.5,-505 1312.5,-573"/>
<text text-anchor="middle" x="1245.5" y="-557.8" font-family="Times,serif" font-size="14.00">speech &lt;= 34.3885</text>
<text text-anchor="middle" x="1245.5" y="-542.8" font-family="Times,serif" font-size="14.00">samples = 49</text>
<text text-anchor="middle" x="1245.5" y="-527.8" font-family="Times,serif" font-size="14.00">value = [4, 11, 30, 4]</text>
<text text-anchor="middle" x="1245.5" y="-512.8" font-family="Times,serif" font-size="14.00">class = sentimental</text>
</g>
<!-- 0&#45;&gt;22 -->
<g id="edge22" class="edge"><title>0&#45;&gt;22</title>
<path fill="none" stroke="black" d="M1168.51,-608.884C1178.77,-599.709 1190.01,-589.65 1200.66,-580.123"/>
<polygon fill="black" stroke="black" points="1203.16,-582.576 1208.28,-573.299 1198.5,-577.359 1203.16,-582.576"/>
<text text-anchor="middle" x="1206.9" y="-594.561" font-family="Times,serif" font-size="14.00">False</text>
</g>
<!-- 2 -->
<g id="node3" class="node"><title>2</title>
<polygon fill="#d739e5" fill-opacity="0.121569" stroke="black" points="809,-469 652,-469 652,-401 809,-401 809,-469"/>
<text text-anchor="middle" x="730.5" y="-453.8" font-family="Times,serif" font-size="14.00">neutral_NRC &lt;= 62.8496</text>
<text text-anchor="middle" x="730.5" y="-438.8" font-family="Times,serif" font-size="14.00">samples = 51</text>
<text text-anchor="middle" x="730.5" y="-423.8" font-family="Times,serif" font-size="14.00">value = [18, 9, 2, 22]</text>
<text text-anchor="middle" x="730.5" y="-408.8" font-family="Times,serif" font-size="14.00">class = sociopolitical</text>
</g>
<!-- 1&#45;&gt;2 -->
<g id="edge2" class="edge"><title>1&#45;&gt;2</title>
<path fill="none" stroke="black" d="M931.309,-507.12C895.594,-494.471 854.327,-479.855 818.527,-467.176"/>
<polygon fill="black" stroke="black" points="819.663,-463.865 809.068,-463.826 817.326,-470.464 819.663,-463.865"/>
</g>
<!-- 19 -->
<g id="node20" class="node"><title>19</title>
<polygon fill="#47e539" fill-opacity="0.800000" stroke="black" points="1122.5,-469 914.5,-469 914.5,-401 1122.5,-401 1122.5,-469"/>
<text text-anchor="middle" x="1018.5" y="-453.8" font-family="Times,serif" font-size="14.00">narrated_neutral_NRC &lt;= 18.9371</text>
<text text-anchor="middle" x="1018.5" y="-438.8" font-family="Times,serif" font-size="14.00">samples = 12</text>
<text text-anchor="middle" x="1018.5" y="-423.8" font-family="Times,serif" font-size="14.00">value = [0, 10, 2, 0]</text>
<text text-anchor="middle" x="1018.5" y="-408.8" font-family="Times,serif" font-size="14.00">class = historical</text>
</g>
<!-- 1&#45;&gt;19 -->
<g id="edge19" class="edge"><title>1&#45;&gt;19</title>
<path fill="none" stroke="black" d="M1018.5,-504.884C1018.5,-496.778 1018.5,-487.982 1018.5,-479.472"/>
<polygon fill="black" stroke="black" points="1022,-479.299 1018.5,-469.299 1015,-479.299 1022,-479.299"/>
</g>
<!-- 3 -->
<g id="node4" class="node"><title>3</title>
<polygon fill="#d739e5" fill-opacity="0.388235" stroke="black" points="603.5,-365 395.5,-365 395.5,-297 603.5,-297 603.5,-365"/>
<text text-anchor="middle" x="499.5" y="-349.8" font-family="Times,serif" font-size="14.00">narrated_neutral_NRC &lt;= 27.9151</text>
<text text-anchor="middle" x="499.5" y="-334.8" font-family="Times,serif" font-size="14.00">samples = 40</text>
<text text-anchor="middle" x="499.5" y="-319.8" font-family="Times,serif" font-size="14.00">value = [8, 9, 2, 21]</text>
<text text-anchor="middle" x="499.5" y="-304.8" font-family="Times,serif" font-size="14.00">class = sociopolitical</text>
</g>
<!-- 2&#45;&gt;3 -->
<g id="edge3" class="edge"><title>2&#45;&gt;3</title>
<path fill="none" stroke="black" d="M655.501,-400.884C632.59,-390.767 607.244,-379.575 583.761,-369.206"/>
<polygon fill="black" stroke="black" points="585.079,-365.962 574.518,-365.125 582.252,-372.366 585.079,-365.962"/>
</g>
<!-- 16 -->
<g id="node17" class="node"><title>16</title>
<polygon fill="#e58139" fill-opacity="0.901961" stroke="black" points="839.5,-365 621.5,-365 621.5,-297 839.5,-297 839.5,-365"/>
<text text-anchor="middle" x="730.5" y="-349.8" font-family="Times,serif" font-size="14.00">speech_emotional_NRC &lt;= 15.1323</text>
<text text-anchor="middle" x="730.5" y="-334.8" font-family="Times,serif" font-size="14.00">samples = 11</text>
<text text-anchor="middle" x="730.5" y="-319.8" font-family="Times,serif" font-size="14.00">value = [10, 0, 0, 1]</text>
<text text-anchor="middle" x="730.5" y="-304.8" font-family="Times,serif" font-size="14.00">class = costumbrista</text>
</g>
<!-- 2&#45;&gt;16 -->
<g id="edge16" class="edge"><title>2&#45;&gt;16</title>
<path fill="none" stroke="black" d="M730.5,-400.884C730.5,-392.778 730.5,-383.982 730.5,-375.472"/>
<polygon fill="black" stroke="black" points="734,-375.299 730.5,-365.299 727,-375.299 734,-375.299"/>
</g>
<!-- 4 -->
<g id="node5" class="node"><title>4</title>
<polygon fill="#47e539" fill-opacity="0.062745" stroke="black" points="424.5,-261 206.5,-261 206.5,-193 424.5,-193 424.5,-261"/>
<text text-anchor="middle" x="315.5" y="-245.8" font-family="Times,serif" font-size="14.00">speech_emotional_NRC &lt;= 15.1436</text>
<text text-anchor="middle" x="315.5" y="-230.8" font-family="Times,serif" font-size="14.00">samples = 24</text>
<text text-anchor="middle" x="315.5" y="-215.8" font-family="Times,serif" font-size="14.00">value = [6, 9, 1, 8]</text>
<text text-anchor="middle" x="315.5" y="-200.8" font-family="Times,serif" font-size="14.00">class = historical</text>
</g>
<!-- 3&#45;&gt;4 -->
<g id="edge4" class="edge"><title>3&#45;&gt;4</title>
<path fill="none" stroke="black" d="M439.76,-296.884C421.995,-287.035 402.393,-276.169 384.11,-266.034"/>
<polygon fill="black" stroke="black" points="385.697,-262.912 375.254,-261.125 382.304,-269.034 385.697,-262.912"/>
</g>
<!-- 9 -->
<g id="node10" class="node"><title>9</title>
<polygon fill="#d739e5" fill-opacity="0.784314" stroke="black" points="594.5,-261 442.5,-261 442.5,-193 594.5,-193 594.5,-261"/>
<text text-anchor="middle" x="518.5" y="-245.8" font-family="Times,serif" font-size="14.00">negative_NRC &lt;= 5.977</text>
<text text-anchor="middle" x="518.5" y="-230.8" font-family="Times,serif" font-size="14.00">samples = 16</text>
<text text-anchor="middle" x="518.5" y="-215.8" font-family="Times,serif" font-size="14.00">value = [2, 0, 1, 13]</text>
<text text-anchor="middle" x="518.5" y="-200.8" font-family="Times,serif" font-size="14.00">class = sociopolitical</text>
</g>
<!-- 3&#45;&gt;9 -->
<g id="edge9" class="edge"><title>3&#45;&gt;9</title>
<path fill="none" stroke="black" d="M505.669,-296.884C507.195,-288.689 508.853,-279.789 510.454,-271.192"/>
<polygon fill="black" stroke="black" points="513.907,-271.771 512.297,-261.299 507.025,-270.489 513.907,-271.771"/>
</g>
<!-- 5 -->
<g id="node6" class="node"><title>5</title>
<polygon fill="#d739e5" fill-opacity="0.133333" stroke="black" points="243.5,-157 35.5,-157 35.5,-89 243.5,-89 243.5,-157"/>
<text text-anchor="middle" x="139.5" y="-141.8" font-family="Times,serif" font-size="14.00">narrated_neutral_NRC &lt;= 25.8875</text>
<text text-anchor="middle" x="139.5" y="-126.8" font-family="Times,serif" font-size="14.00">samples = 21</text>
<text text-anchor="middle" x="139.5" y="-111.8" font-family="Times,serif" font-size="14.00">value = [6, 6, 1, 8]</text>
<text text-anchor="middle" x="139.5" y="-96.8" font-family="Times,serif" font-size="14.00">class = sociopolitical</text>
</g>
<!-- 4&#45;&gt;5 -->
<g id="edge5" class="edge"><title>4&#45;&gt;5</title>
<path fill="none" stroke="black" d="M258.358,-192.884C241.52,-183.125 222.955,-172.366 205.604,-162.31"/>
<polygon fill="black" stroke="black" points="207.063,-159.111 196.656,-157.125 203.553,-165.167 207.063,-159.111"/>
</g>
<!-- 8 -->
<g id="node9" class="node"><title>8</title>
<polygon fill="#47e539" stroke="black" points="381.5,-149.5 261.5,-149.5 261.5,-96.5 381.5,-96.5 381.5,-149.5"/>
<text text-anchor="middle" x="321.5" y="-134.3" font-family="Times,serif" font-size="14.00">samples = 3</text>
<text text-anchor="middle" x="321.5" y="-119.3" font-family="Times,serif" font-size="14.00">value = [0, 3, 0, 0]</text>
<text text-anchor="middle" x="321.5" y="-104.3" font-family="Times,serif" font-size="14.00">class = historical</text>
</g>
<!-- 4&#45;&gt;8 -->
<g id="edge8" class="edge"><title>4&#45;&gt;8</title>
<path fill="none" stroke="black" d="M317.448,-192.884C318.076,-182.216 318.773,-170.352 319.411,-159.519"/>
<polygon fill="black" stroke="black" points="322.905,-159.708 319.999,-149.52 315.918,-159.297 322.905,-159.708"/>
</g>
<!-- 6 -->
<g id="node7" class="node"><title>6</title>
<polygon fill="#d739e5" fill-opacity="0.333333" stroke="black" points="131,-53 0,-53 0,-0 131,-0 131,-53"/>
<text text-anchor="middle" x="65.5" y="-37.8" font-family="Times,serif" font-size="14.00">samples = 16</text>
<text text-anchor="middle" x="65.5" y="-22.8" font-family="Times,serif" font-size="14.00">value = [3, 4, 1, 8]</text>
<text text-anchor="middle" x="65.5" y="-7.8" font-family="Times,serif" font-size="14.00">class = sociopolitical</text>
</g>
<!-- 5&#45;&gt;6 -->
<g id="edge6" class="edge"><title>5&#45;&gt;6</title>
<path fill="none" stroke="black" d="M113.618,-88.9485C106.598,-79.9834 98.9892,-70.2666 91.9387,-61.2629"/>
<polygon fill="black" stroke="black" points="94.5746,-58.9521 85.6536,-53.2367 89.0633,-63.2679 94.5746,-58.9521"/>
</g>
<!-- 7 -->
<g id="node8" class="node"><title>7</title>
<polygon fill="#e58139" fill-opacity="0.333333" stroke="black" points="277.5,-53 149.5,-53 149.5,-0 277.5,-0 277.5,-53"/>
<text text-anchor="middle" x="213.5" y="-37.8" font-family="Times,serif" font-size="14.00">samples = 5</text>
<text text-anchor="middle" x="213.5" y="-22.8" font-family="Times,serif" font-size="14.00">value = [3, 2, 0, 0]</text>
<text text-anchor="middle" x="213.5" y="-7.8" font-family="Times,serif" font-size="14.00">class = costumbrista</text>
</g>
<!-- 5&#45;&gt;7 -->
<g id="edge7" class="edge"><title>5&#45;&gt;7</title>
<path fill="none" stroke="black" d="M165.382,-88.9485C172.402,-79.9834 180.011,-70.2666 187.061,-61.2629"/>
<polygon fill="black" stroke="black" points="189.937,-63.2679 193.346,-53.2367 184.425,-58.9521 189.937,-63.2679"/>
</g>
<!-- 10 -->
<g id="node11" class="node"><title>10</title>
<polygon fill="none" stroke="black" points="617.5,-157 409.5,-157 409.5,-89 617.5,-89 617.5,-157"/>
<text text-anchor="middle" x="513.5" y="-141.8" font-family="Times,serif" font-size="14.00">narrated_neutral_NRC &lt;= 31.2121</text>
<text text-anchor="middle" x="513.5" y="-126.8" font-family="Times,serif" font-size="14.00">samples = 2</text>
<text text-anchor="middle" x="513.5" y="-111.8" font-family="Times,serif" font-size="14.00">value = [1, 0, 1, 0]</text>
<text text-anchor="middle" x="513.5" y="-96.8" font-family="Times,serif" font-size="14.00">class = costumbrista</text>
</g>
<!-- 9&#45;&gt;10 -->
<g id="edge10" class="edge"><title>9&#45;&gt;10</title>
<path fill="none" stroke="black" d="M516.877,-192.884C516.479,-184.778 516.048,-175.982 515.631,-167.472"/>
<polygon fill="black" stroke="black" points="519.118,-167.116 515.132,-157.299 512.126,-167.459 519.118,-167.116"/>
</g>
<!-- 13 -->
<g id="node14" class="node"><title>13</title>
<polygon fill="#d739e5" fill-opacity="0.921569" stroke="black" points="847,-157 636,-157 636,-89 847,-89 847,-157"/>
<text text-anchor="middle" x="741.5" y="-141.8" font-family="Times,serif" font-size="14.00">speech_emotional_NRC &lt;= 5.9594</text>
<text text-anchor="middle" x="741.5" y="-126.8" font-family="Times,serif" font-size="14.00">samples = 14</text>
<text text-anchor="middle" x="741.5" y="-111.8" font-family="Times,serif" font-size="14.00">value = [1, 0, 0, 13]</text>
<text text-anchor="middle" x="741.5" y="-96.8" font-family="Times,serif" font-size="14.00">class = sociopolitical</text>
</g>
<!-- 9&#45;&gt;13 -->
<g id="edge13" class="edge"><title>9&#45;&gt;13</title>
<path fill="none" stroke="black" d="M590.902,-192.884C612.922,-182.812 637.271,-171.674 659.856,-161.344"/>
<polygon fill="black" stroke="black" points="661.442,-164.467 669.08,-157.125 658.531,-158.101 661.442,-164.467"/>
</g>
<!-- 11 -->
<g id="node12" class="node"><title>11</title>
<polygon fill="#399de5" stroke="black" points="451.5,-53 329.5,-53 329.5,-0 451.5,-0 451.5,-53"/>
<text text-anchor="middle" x="390.5" y="-37.8" font-family="Times,serif" font-size="14.00">samples = 1</text>
<text text-anchor="middle" x="390.5" y="-22.8" font-family="Times,serif" font-size="14.00">value = [0, 0, 1, 0]</text>
<text text-anchor="middle" x="390.5" y="-7.8" font-family="Times,serif" font-size="14.00">class = sentimental</text>
</g>
<!-- 10&#45;&gt;11 -->
<g id="edge11" class="edge"><title>10&#45;&gt;11</title>
<path fill="none" stroke="black" d="M470.481,-88.9485C457.978,-79.3431 444.353,-68.8747 431.949,-59.345"/>
<polygon fill="black" stroke="black" points="434.061,-56.5537 423.999,-53.2367 429.796,-62.1046 434.061,-56.5537"/>
</g>
<!-- 12 -->
<g id="node13" class="node"><title>12</title>
<polygon fill="#e58139" stroke="black" points="597.5,-53 469.5,-53 469.5,-0 597.5,-0 597.5,-53"/>
<text text-anchor="middle" x="533.5" y="-37.8" font-family="Times,serif" font-size="14.00">samples = 1</text>
<text text-anchor="middle" x="533.5" y="-22.8" font-family="Times,serif" font-size="14.00">value = [1, 0, 0, 0]</text>
<text text-anchor="middle" x="533.5" y="-7.8" font-family="Times,serif" font-size="14.00">class = costumbrista</text>
</g>
<!-- 10&#45;&gt;12 -->
<g id="edge12" class="edge"><title>10&#45;&gt;12</title>
<path fill="none" stroke="black" d="M520.495,-88.9485C522.257,-80.6238 524.156,-71.6509 525.944,-63.2027"/>
<polygon fill="black" stroke="black" points="529.407,-63.7447 528.053,-53.2367 522.558,-62.2953 529.407,-63.7447"/>
</g>
<!-- 14 -->
<g id="node15" class="node"><title>14</title>
<polygon fill="#d739e5" fill-opacity="0.498039" stroke="black" points="767,-53 636,-53 636,-0 767,-0 767,-53"/>
<text text-anchor="middle" x="701.5" y="-37.8" font-family="Times,serif" font-size="14.00">samples = 3</text>
<text text-anchor="middle" x="701.5" y="-22.8" font-family="Times,serif" font-size="14.00">value = [1, 0, 0, 2]</text>
<text text-anchor="middle" x="701.5" y="-7.8" font-family="Times,serif" font-size="14.00">class = sociopolitical</text>
</g>
<!-- 13&#45;&gt;14 -->
<g id="edge14" class="edge"><title>13&#45;&gt;14</title>
<path fill="none" stroke="black" d="M727.51,-88.9485C723.909,-80.4408 720.021,-71.2562 716.377,-62.6464"/>
<polygon fill="black" stroke="black" points="719.515,-61.0814 712.394,-53.2367 713.069,-63.81 719.515,-61.0814"/>
</g>
<!-- 15 -->
<g id="node16" class="node"><title>15</title>
<polygon fill="#d739e5" stroke="black" points="916,-53 785,-53 785,-0 916,-0 916,-53"/>
<text text-anchor="middle" x="850.5" y="-37.8" font-family="Times,serif" font-size="14.00">samples = 11</text>
<text text-anchor="middle" x="850.5" y="-22.8" font-family="Times,serif" font-size="14.00">value = [0, 0, 0, 11]</text>
<text text-anchor="middle" x="850.5" y="-7.8" font-family="Times,serif" font-size="14.00">class = sociopolitical</text>
</g>
<!-- 13&#45;&gt;15 -->
<g id="edge15" class="edge"><title>13&#45;&gt;15</title>
<path fill="none" stroke="black" d="M779.623,-88.9485C790.491,-79.526 802.317,-69.2731 813.139,-59.8906"/>
<polygon fill="black" stroke="black" points="815.551,-62.4319 820.814,-53.2367 810.966,-57.1428 815.551,-62.4319"/>
</g>
<!-- 17 -->
<g id="node18" class="node"><title>17</title>
<polygon fill="#e58139" stroke="black" points="776.5,-253.5 648.5,-253.5 648.5,-200.5 776.5,-200.5 776.5,-253.5"/>
<text text-anchor="middle" x="712.5" y="-238.3" font-family="Times,serif" font-size="14.00">samples = 10</text>
<text text-anchor="middle" x="712.5" y="-223.3" font-family="Times,serif" font-size="14.00">value = [10, 0, 0, 0]</text>
<text text-anchor="middle" x="712.5" y="-208.3" font-family="Times,serif" font-size="14.00">class = costumbrista</text>
</g>
<!-- 16&#45;&gt;17 -->
<g id="edge17" class="edge"><title>16&#45;&gt;17</title>
<path fill="none" stroke="black" d="M724.656,-296.884C722.773,-286.216 720.68,-274.352 718.768,-263.519"/>
<polygon fill="black" stroke="black" points="722.188,-262.759 717.004,-253.52 715.295,-263.976 722.188,-262.759"/>
</g>
<!-- 18 -->
<g id="node19" class="node"><title>18</title>
<polygon fill="#d739e5" stroke="black" points="926,-253.5 795,-253.5 795,-200.5 926,-200.5 926,-253.5"/>
<text text-anchor="middle" x="860.5" y="-238.3" font-family="Times,serif" font-size="14.00">samples = 1</text>
<text text-anchor="middle" x="860.5" y="-223.3" font-family="Times,serif" font-size="14.00">value = [0, 0, 0, 1]</text>
<text text-anchor="middle" x="860.5" y="-208.3" font-family="Times,serif" font-size="14.00">class = sociopolitical</text>
</g>
<!-- 16&#45;&gt;18 -->
<g id="edge18" class="edge"><title>16&#45;&gt;18</title>
<path fill="none" stroke="black" d="M772.707,-296.884C787.846,-285.006 804.872,-271.646 819.874,-259.876"/>
<polygon fill="black" stroke="black" points="822.268,-262.446 827.975,-253.52 817.947,-256.939 822.268,-262.446"/>
</g>
<!-- 20 -->
<g id="node21" class="node"><title>20</title>
<polygon fill="#399de5" stroke="black" points="979.5,-357.5 857.5,-357.5 857.5,-304.5 979.5,-304.5 979.5,-357.5"/>
<text text-anchor="middle" x="918.5" y="-342.3" font-family="Times,serif" font-size="14.00">samples = 2</text>
<text text-anchor="middle" x="918.5" y="-327.3" font-family="Times,serif" font-size="14.00">value = [0, 0, 2, 0]</text>
<text text-anchor="middle" x="918.5" y="-312.3" font-family="Times,serif" font-size="14.00">class = sentimental</text>
</g>
<!-- 19&#45;&gt;20 -->
<g id="edge20" class="edge"><title>19&#45;&gt;20</title>
<path fill="none" stroke="black" d="M986.033,-400.884C974.712,-389.336 962.017,-376.387 950.716,-364.86"/>
<polygon fill="black" stroke="black" points="953.02,-362.21 943.52,-357.52 948.021,-367.111 953.02,-362.21"/>
</g>
<!-- 21 -->
<g id="node22" class="node"><title>21</title>
<polygon fill="#47e539" stroke="black" points="1125,-357.5 998,-357.5 998,-304.5 1125,-304.5 1125,-357.5"/>
<text text-anchor="middle" x="1061.5" y="-342.3" font-family="Times,serif" font-size="14.00">samples = 10</text>
<text text-anchor="middle" x="1061.5" y="-327.3" font-family="Times,serif" font-size="14.00">value = [0, 10, 0, 0]</text>
<text text-anchor="middle" x="1061.5" y="-312.3" font-family="Times,serif" font-size="14.00">class = historical</text>
</g>
<!-- 19&#45;&gt;21 -->
<g id="edge21" class="edge"><title>19&#45;&gt;21</title>
<path fill="none" stroke="black" d="M1032.46,-400.884C1037.05,-389.996 1042.17,-377.863 1046.81,-366.85"/>
<polygon fill="black" stroke="black" points="1050.08,-368.094 1050.74,-357.52 1043.63,-365.375 1050.08,-368.094"/>
</g>
<!-- 23 -->
<g id="node24" class="node"><title>23</title>
<polygon fill="#47e539" fill-opacity="0.831373" stroke="black" points="1305.5,-469 1185.5,-469 1185.5,-401 1305.5,-401 1305.5,-469"/>
<text text-anchor="middle" x="1245.5" y="-453.8" font-family="Times,serif" font-size="14.00">section &lt;= 3.5</text>
<text text-anchor="middle" x="1245.5" y="-438.8" font-family="Times,serif" font-size="14.00">samples = 7</text>
<text text-anchor="middle" x="1245.5" y="-423.8" font-family="Times,serif" font-size="14.00">value = [1, 6, 0, 0]</text>
<text text-anchor="middle" x="1245.5" y="-408.8" font-family="Times,serif" font-size="14.00">class = historical</text>
</g>
<!-- 22&#45;&gt;23 -->
<g id="edge23" class="edge"><title>22&#45;&gt;23</title>
<path fill="none" stroke="black" d="M1245.5,-504.884C1245.5,-496.778 1245.5,-487.982 1245.5,-479.472"/>
<polygon fill="black" stroke="black" points="1249,-479.299 1245.5,-469.299 1242,-479.299 1249,-479.299"/>
</g>
<!-- 26 -->
<g id="node27" class="node"><title>26</title>
<polygon fill="#399de5" fill-opacity="0.674510" stroke="black" points="1594,-469 1393,-469 1393,-401 1594,-401 1594,-469"/>
<text text-anchor="middle" x="1493.5" y="-453.8" font-family="Times,serif" font-size="14.00">narrated_neutral_NRC &lt;= 6.7615</text>
<text text-anchor="middle" x="1493.5" y="-438.8" font-family="Times,serif" font-size="14.00">samples = 42</text>
<text text-anchor="middle" x="1493.5" y="-423.8" font-family="Times,serif" font-size="14.00">value = [3, 5, 30, 4]</text>
<text text-anchor="middle" x="1493.5" y="-408.8" font-family="Times,serif" font-size="14.00">class = sentimental</text>
</g>
<!-- 22&#45;&gt;26 -->
<g id="edge26" class="edge"><title>22&#45;&gt;26</title>
<path fill="none" stroke="black" d="M1312.61,-510.397C1340.57,-498.898 1373.46,-485.372 1403.47,-473.03"/>
<polygon fill="black" stroke="black" points="1405.18,-476.109 1413.1,-469.068 1402.52,-469.635 1405.18,-476.109"/>
</g>
<!-- 24 -->
<g id="node25" class="node"><title>24</title>
<polygon fill="#47e539" stroke="black" points="1263.5,-357.5 1143.5,-357.5 1143.5,-304.5 1263.5,-304.5 1263.5,-357.5"/>
<text text-anchor="middle" x="1203.5" y="-342.3" font-family="Times,serif" font-size="14.00">samples = 6</text>
<text text-anchor="middle" x="1203.5" y="-327.3" font-family="Times,serif" font-size="14.00">value = [0, 6, 0, 0]</text>
<text text-anchor="middle" x="1203.5" y="-312.3" font-family="Times,serif" font-size="14.00">class = historical</text>
</g>
<!-- 23&#45;&gt;24 -->
<g id="edge24" class="edge"><title>23&#45;&gt;24</title>
<path fill="none" stroke="black" d="M1231.86,-400.884C1227.38,-389.996 1222.38,-377.863 1217.85,-366.85"/>
<polygon fill="black" stroke="black" points="1221.05,-365.434 1214.01,-357.52 1214.58,-368.099 1221.05,-365.434"/>
</g>
<!-- 25 -->
<g id="node26" class="node"><title>25</title>
<polygon fill="#e58139" stroke="black" points="1409.5,-357.5 1281.5,-357.5 1281.5,-304.5 1409.5,-304.5 1409.5,-357.5"/>
<text text-anchor="middle" x="1345.5" y="-342.3" font-family="Times,serif" font-size="14.00">samples = 1</text>
<text text-anchor="middle" x="1345.5" y="-327.3" font-family="Times,serif" font-size="14.00">value = [1, 0, 0, 0]</text>
<text text-anchor="middle" x="1345.5" y="-312.3" font-family="Times,serif" font-size="14.00">class = costumbrista</text>
</g>
<!-- 23&#45;&gt;25 -->
<g id="edge25" class="edge"><title>23&#45;&gt;25</title>
<path fill="none" stroke="black" d="M1277.97,-400.884C1289.29,-389.336 1301.98,-376.387 1313.28,-364.86"/>
<polygon fill="black" stroke="black" points="1315.98,-367.111 1320.48,-357.52 1310.98,-362.21 1315.98,-367.111"/>
</g>
<!-- 27 -->
<g id="node28" class="node"><title>27</title>
<polygon fill="#d739e5" stroke="black" points="1559,-357.5 1428,-357.5 1428,-304.5 1559,-304.5 1559,-357.5"/>
<text text-anchor="middle" x="1493.5" y="-342.3" font-family="Times,serif" font-size="14.00">samples = 3</text>
<text text-anchor="middle" x="1493.5" y="-327.3" font-family="Times,serif" font-size="14.00">value = [0, 0, 0, 3]</text>
<text text-anchor="middle" x="1493.5" y="-312.3" font-family="Times,serif" font-size="14.00">class = sociopolitical</text>
</g>
<!-- 26&#45;&gt;27 -->
<g id="edge27" class="edge"><title>26&#45;&gt;27</title>
<path fill="none" stroke="black" d="M1493.5,-400.884C1493.5,-390.326 1493.5,-378.597 1493.5,-367.854"/>
<polygon fill="black" stroke="black" points="1497,-367.52 1493.5,-357.52 1490,-367.52 1497,-367.52"/>
</g>
<!-- 28 -->
<g id="node29" class="node"><title>28</title>
<polygon fill="#399de5" fill-opacity="0.737255" stroke="black" points="1729.5,-365 1577.5,-365 1577.5,-297 1729.5,-297 1729.5,-365"/>
<text text-anchor="middle" x="1653.5" y="-349.8" font-family="Times,serif" font-size="14.00">negative_NRC &lt;= 4.647</text>
<text text-anchor="middle" x="1653.5" y="-334.8" font-family="Times,serif" font-size="14.00">samples = 39</text>
<text text-anchor="middle" x="1653.5" y="-319.8" font-family="Times,serif" font-size="14.00">value = [3, 5, 30, 1]</text>
<text text-anchor="middle" x="1653.5" y="-304.8" font-family="Times,serif" font-size="14.00">class = sentimental</text>
</g>
<!-- 26&#45;&gt;28 -->
<g id="edge28" class="edge"><title>26&#45;&gt;28</title>
<path fill="none" stroke="black" d="M1545.45,-400.884C1560.61,-391.214 1577.32,-380.563 1592.97,-370.587"/>
<polygon fill="black" stroke="black" points="1594.99,-373.452 1601.54,-365.125 1591.23,-367.549 1594.99,-373.452"/>
</g>
<!-- 29 -->
<g id="node30" class="node"><title>29</title>
<polygon fill="#e58139" stroke="black" points="1635.5,-253.5 1507.5,-253.5 1507.5,-200.5 1635.5,-200.5 1635.5,-253.5"/>
<text text-anchor="middle" x="1571.5" y="-238.3" font-family="Times,serif" font-size="14.00">samples = 1</text>
<text text-anchor="middle" x="1571.5" y="-223.3" font-family="Times,serif" font-size="14.00">value = [1, 0, 0, 0]</text>
<text text-anchor="middle" x="1571.5" y="-208.3" font-family="Times,serif" font-size="14.00">class = costumbrista</text>
</g>
<!-- 28&#45;&gt;29 -->
<g id="edge29" class="edge"><title>28&#45;&gt;29</title>
<path fill="none" stroke="black" d="M1626.88,-296.884C1617.77,-285.556 1607.58,-272.88 1598.45,-261.521"/>
<polygon fill="black" stroke="black" points="1601.01,-259.121 1592.02,-253.52 1595.55,-263.507 1601.01,-259.121"/>
</g>
<!-- 30 -->
<g id="node31" class="node"><title>30</title>
<polygon fill="#399de5" fill-opacity="0.756863" stroke="black" points="1815.5,-261 1653.5,-261 1653.5,-193 1815.5,-193 1815.5,-261"/>
<text text-anchor="middle" x="1734.5" y="-245.8" font-family="Times,serif" font-size="14.00">positive_NRC &lt;= 17.4161</text>
<text text-anchor="middle" x="1734.5" y="-230.8" font-family="Times,serif" font-size="14.00">samples = 38</text>
<text text-anchor="middle" x="1734.5" y="-215.8" font-family="Times,serif" font-size="14.00">value = [2, 5, 30, 1]</text>
<text text-anchor="middle" x="1734.5" y="-200.8" font-family="Times,serif" font-size="14.00">class = sentimental</text>
</g>
<!-- 28&#45;&gt;30 -->
<g id="edge30" class="edge"><title>28&#45;&gt;30</title>
<path fill="none" stroke="black" d="M1679.8,-296.884C1686.8,-288.065 1694.45,-278.43 1701.75,-269.235"/>
<polygon fill="black" stroke="black" points="1704.58,-271.307 1708.06,-261.299 1699.1,-266.954 1704.58,-271.307"/>
</g>
<!-- 31 -->
<g id="node32" class="node"><title>31</title>
<polygon fill="#399de5" fill-opacity="0.560784" stroke="black" points="1733.5,-157 1571.5,-157 1571.5,-89 1733.5,-89 1733.5,-157"/>
<text text-anchor="middle" x="1652.5" y="-141.8" font-family="Times,serif" font-size="14.00">positive_NRC &lt;= 15.4142</text>
<text text-anchor="middle" x="1652.5" y="-126.8" font-family="Times,serif" font-size="14.00">samples = 21</text>
<text text-anchor="middle" x="1652.5" y="-111.8" font-family="Times,serif" font-size="14.00">value = [1, 5, 14, 1]</text>
<text text-anchor="middle" x="1652.5" y="-96.8" font-family="Times,serif" font-size="14.00">class = sentimental</text>
</g>
<!-- 30&#45;&gt;31 -->
<g id="edge31" class="edge"><title>30&#45;&gt;31</title>
<path fill="none" stroke="black" d="M1707.88,-192.884C1700.79,-184.065 1693.04,-174.43 1685.65,-165.235"/>
<polygon fill="black" stroke="black" points="1688.26,-162.9 1679.27,-157.299 1682.81,-167.286 1688.26,-162.9"/>
</g>
<!-- 34 -->
<g id="node35" class="node"><title>34</title>
<polygon fill="#399de5" fill-opacity="0.937255" stroke="black" points="1879,-157 1752,-157 1752,-89 1879,-89 1879,-157"/>
<text text-anchor="middle" x="1815.5" y="-141.8" font-family="Times,serif" font-size="14.00">section &lt;= 4.5</text>
<text text-anchor="middle" x="1815.5" y="-126.8" font-family="Times,serif" font-size="14.00">samples = 17</text>
<text text-anchor="middle" x="1815.5" y="-111.8" font-family="Times,serif" font-size="14.00">value = [1, 0, 16, 0]</text>
<text text-anchor="middle" x="1815.5" y="-96.8" font-family="Times,serif" font-size="14.00">class = sentimental</text>
</g>
<!-- 30&#45;&gt;34 -->
<g id="edge34" class="edge"><title>30&#45;&gt;34</title>
<path fill="none" stroke="black" d="M1760.8,-192.884C1767.8,-184.065 1775.45,-174.43 1782.75,-165.235"/>
<polygon fill="black" stroke="black" points="1785.58,-167.307 1789.06,-157.299 1780.1,-162.954 1785.58,-167.307"/>
</g>
<!-- 32 -->
<g id="node33" class="node"><title>32</title>
<polygon fill="#399de5" fill-opacity="0.784314" stroke="black" points="1580,-53 1453,-53 1453,-0 1580,-0 1580,-53"/>
<text text-anchor="middle" x="1516.5" y="-37.8" font-family="Times,serif" font-size="14.00">samples = 15</text>
<text text-anchor="middle" x="1516.5" y="-22.8" font-family="Times,serif" font-size="14.00">value = [1, 1, 12, 1]</text>
<text text-anchor="middle" x="1516.5" y="-7.8" font-family="Times,serif" font-size="14.00">class = sentimental</text>
</g>
<!-- 31&#45;&gt;32 -->
<g id="edge32" class="edge"><title>31&#45;&gt;32</title>
<path fill="none" stroke="black" d="M1604.93,-88.9485C1590.98,-79.2516 1575.76,-68.6752 1561.94,-59.073"/>
<polygon fill="black" stroke="black" points="1563.75,-56.0687 1553.54,-53.2367 1559.75,-61.8172 1563.75,-56.0687"/>
</g>
<!-- 33 -->
<g id="node34" class="node"><title>33</title>
<polygon fill="#47e539" fill-opacity="0.498039" stroke="black" points="1718.5,-53 1598.5,-53 1598.5,-0 1718.5,-0 1718.5,-53"/>
<text text-anchor="middle" x="1658.5" y="-37.8" font-family="Times,serif" font-size="14.00">samples = 6</text>
<text text-anchor="middle" x="1658.5" y="-22.8" font-family="Times,serif" font-size="14.00">value = [0, 4, 2, 0]</text>
<text text-anchor="middle" x="1658.5" y="-7.8" font-family="Times,serif" font-size="14.00">class = historical</text>
</g>
<!-- 31&#45;&gt;33 -->
<g id="edge33" class="edge"><title>31&#45;&gt;33</title>
<path fill="none" stroke="black" d="M1654.6,-88.9485C1655.12,-80.7153 1655.68,-71.848 1656.22,-63.4814"/>
<polygon fill="black" stroke="black" points="1659.73,-63.4384 1656.87,-53.2367 1652.74,-62.9948 1659.73,-63.4384"/>
</g>
<!-- 35 -->
<g id="node36" class="node"><title>35</title>
<polygon fill="#399de5" stroke="black" points="1874,-53 1747,-53 1747,-0 1874,-0 1874,-53"/>
<text text-anchor="middle" x="1810.5" y="-37.8" font-family="Times,serif" font-size="14.00">samples = 14</text>
<text text-anchor="middle" x="1810.5" y="-22.8" font-family="Times,serif" font-size="14.00">value = [0, 0, 14, 0]</text>
<text text-anchor="middle" x="1810.5" y="-7.8" font-family="Times,serif" font-size="14.00">class = sentimental</text>
</g>
<!-- 34&#45;&gt;35 -->
<g id="edge35" class="edge"><title>34&#45;&gt;35</title>
<path fill="none" stroke="black" d="M1813.75,-88.9485C1813.32,-80.7153 1812.85,-71.848 1812.4,-63.4814"/>
<polygon fill="black" stroke="black" points="1815.89,-63.0378 1811.86,-53.2367 1808.9,-63.4077 1815.89,-63.0378"/>
</g>
<!-- 36 -->
<g id="node37" class="node"><title>36</title>
<polygon fill="#399de5" fill-opacity="0.498039" stroke="black" points="2014.5,-53 1892.5,-53 1892.5,-0 2014.5,-0 2014.5,-53"/>
<text text-anchor="middle" x="1953.5" y="-37.8" font-family="Times,serif" font-size="14.00">samples = 3</text>
<text text-anchor="middle" x="1953.5" y="-22.8" font-family="Times,serif" font-size="14.00">value = [1, 0, 2, 0]</text>
<text text-anchor="middle" x="1953.5" y="-7.8" font-family="Times,serif" font-size="14.00">class = sentimental</text>
</g>
<!-- 34&#45;&gt;36 -->
<g id="edge36" class="edge"><title>34&#45;&gt;36</title>
<path fill="none" stroke="black" d="M1863.77,-88.9485C1877.93,-79.2516 1893.37,-68.6752 1907.39,-59.073"/>
<polygon fill="black" stroke="black" points="1909.64,-61.7746 1915.92,-53.2367 1905.69,-55.999 1909.64,-61.7746"/>
</g>
</g>
</svg>
