<?xml version="1.0" encoding="UTF-8" standalone="no"?>
<!DOCTYPE svg PUBLIC "-//W3C//DTD SVG 1.1//EN"
 "http://www.w3.org/Graphics/SVG/1.1/DTD/svg11.dtd">
<!-- Generated by graphviz version 2.38.0 (20140413.2041)
 -->
<!-- Title: Tree Pages: 1 -->
<svg width="1508pt" height="581pt"
 viewBox="0.00 0.00 1508.00 581.00" xmlns="http://www.w3.org/2000/svg" xmlns:xlink="http://www.w3.org/1999/xlink">
<g id="graph0" class="graph" transform="scale(1 1) rotate(0) translate(4 577)">
<title>Tree</title>
<polygon fill="white" stroke="none" points="-4,4 -4,-577 1504,-577 1504,4 -4,4"/>
<!-- 0 -->
<g id="node1" class="node"><title>0</title>
<polygon fill="#39e581" fill-opacity="0.054902" stroke="black" points="1030,-573 848,-573 848,-505 1030,-505 1030,-573"/>
<text text-anchor="middle" x="939" y="-557.8" font-family="Times,serif" font-size="14.00">Joy_NRC_narrated &lt;= 1.4807</text>
<text text-anchor="middle" x="939" y="-542.8" font-family="Times,serif" font-size="14.00">samples = 112</text>
<text text-anchor="middle" x="939" y="-527.8" font-family="Times,serif" font-size="14.00">value = [41, 45, 26]</text>
<text text-anchor="middle" x="939" y="-512.8" font-family="Times,serif" font-size="14.00">class = 0.5</text>
</g>
<!-- 1 -->
<g id="node2" class="node"><title>1</title>
<polygon fill="#e58139" fill-opacity="0.490196" stroke="black" points="922,-469 732,-469 732,-401 922,-401 922,-469"/>
<text text-anchor="middle" x="827" y="-453.8" font-family="Times,serif" font-size="14.00">Anger_NRC_speech &lt;= 1.3037</text>
<text text-anchor="middle" x="827" y="-438.8" font-family="Times,serif" font-size="14.00">samples = 58</text>
<text text-anchor="middle" x="827" y="-423.8" font-family="Times,serif" font-size="14.00">value = [35, 13, 10]</text>
<text text-anchor="middle" x="827" y="-408.8" font-family="Times,serif" font-size="14.00">class = 0.0</text>
</g>
<!-- 0&#45;&gt;1 -->
<g id="edge1" class="edge"><title>0&#45;&gt;1</title>
<path fill="none" stroke="black" d="M902.637,-504.884C892.563,-495.709 881.518,-485.65 871.056,-476.123"/>
<polygon fill="black" stroke="black" points="873.314,-473.445 863.564,-469.299 868.601,-478.62 873.314,-473.445"/>
<text text-anchor="middle" x="864.731" y="-490.572" font-family="Times,serif" font-size="14.00">True</text>
</g>
<!-- 16 -->
<g id="node17" class="node"><title>16</title>
<polygon fill="#39e581" fill-opacity="0.419608" stroke="black" points="1157.5,-469 944.5,-469 944.5,-401 1157.5,-401 1157.5,-469"/>
<text text-anchor="middle" x="1051" y="-453.8" font-family="Times,serif" font-size="14.00">speech_emotional_WN &lt;= 13.7872</text>
<text text-anchor="middle" x="1051" y="-438.8" font-family="Times,serif" font-size="14.00">samples = 54</text>
<text text-anchor="middle" x="1051" y="-423.8" font-family="Times,serif" font-size="14.00">value = [6, 32, 16]</text>
<text text-anchor="middle" x="1051" y="-408.8" font-family="Times,serif" font-size="14.00">class = 0.5</text>
</g>
<!-- 0&#45;&gt;16 -->
<g id="edge16" class="edge"><title>0&#45;&gt;16</title>
<path fill="none" stroke="black" d="M975.363,-504.884C985.437,-495.709 996.482,-485.65 1006.94,-476.123"/>
<polygon fill="black" stroke="black" points="1009.4,-478.62 1014.44,-469.299 1004.69,-473.445 1009.4,-478.62"/>
<text text-anchor="middle" x="1013.27" y="-490.572" font-family="Times,serif" font-size="14.00">False</text>
</g>
<!-- 2 -->
<g id="node3" class="node"><title>2</title>
<polygon fill="#e58139" fill-opacity="0.588235" stroke="black" points="643,-365 489,-365 489,-297 643,-297 643,-365"/>
<text text-anchor="middle" x="566" y="-349.8" font-family="Times,serif" font-size="14.00">negative_WN &lt;= 7.3864</text>
<text text-anchor="middle" x="566" y="-334.8" font-family="Times,serif" font-size="14.00">samples = 51</text>
<text text-anchor="middle" x="566" y="-319.8" font-family="Times,serif" font-size="14.00">value = [35, 12, 4]</text>
<text text-anchor="middle" x="566" y="-304.8" font-family="Times,serif" font-size="14.00">class = 0.0</text>
</g>
<!-- 1&#45;&gt;2 -->
<g id="edge2" class="edge"><title>1&#45;&gt;2</title>
<path fill="none" stroke="black" d="M742.261,-400.884C713.642,-389.699 681.662,-377.201 652.881,-365.953"/>
<polygon fill="black" stroke="black" points="653.84,-362.571 643.252,-362.19 651.292,-369.09 653.84,-362.571"/>
</g>
<!-- 13 -->
<g id="node14" class="node"><title>13</title>
<polygon fill="#8139e5" fill-opacity="0.831373" stroke="black" points="936,-365 718,-365 718,-297 936,-297 936,-365"/>
<text text-anchor="middle" x="827" y="-349.8" font-family="Times,serif" font-size="14.00">speech_emotional_NRC &lt;= 16.3523</text>
<text text-anchor="middle" x="827" y="-334.8" font-family="Times,serif" font-size="14.00">samples = 7</text>
<text text-anchor="middle" x="827" y="-319.8" font-family="Times,serif" font-size="14.00">value = [0, 1, 6]</text>
<text text-anchor="middle" x="827" y="-304.8" font-family="Times,serif" font-size="14.00">class = 1.0</text>
</g>
<!-- 1&#45;&gt;13 -->
<g id="edge13" class="edge"><title>1&#45;&gt;13</title>
<path fill="none" stroke="black" d="M827,-400.884C827,-392.778 827,-383.982 827,-375.472"/>
<polygon fill="black" stroke="black" points="830.5,-375.299 827,-365.299 823.5,-375.299 830.5,-375.299"/>
</g>
<!-- 3 -->
<g id="node4" class="node"><title>3</title>
<polygon fill="#e58139" fill-opacity="0.729412" stroke="black" points="446,-261 300,-261 300,-193 446,-193 446,-261"/>
<text text-anchor="middle" x="373" y="-245.8" font-family="Times,serif" font-size="14.00">Anger_NRC &lt;= 1.4306</text>
<text text-anchor="middle" x="373" y="-230.8" font-family="Times,serif" font-size="14.00">samples = 45</text>
<text text-anchor="middle" x="373" y="-215.8" font-family="Times,serif" font-size="14.00">value = [35, 8, 2]</text>
<text text-anchor="middle" x="373" y="-200.8" font-family="Times,serif" font-size="14.00">class = 0.0</text>
</g>
<!-- 2&#45;&gt;3 -->
<g id="edge3" class="edge"><title>2&#45;&gt;3</title>
<path fill="none" stroke="black" d="M503.338,-296.884C484.62,-286.991 463.956,-276.07 444.704,-265.895"/>
<polygon fill="black" stroke="black" points="446.154,-262.703 435.677,-261.125 442.883,-268.892 446.154,-262.703"/>
</g>
<!-- 10 -->
<g id="node11" class="node"><title>10</title>
<polygon fill="#39e581" fill-opacity="0.498039" stroke="black" points="664,-261 468,-261 468,-193 664,-193 664,-261"/>
<text text-anchor="middle" x="566" y="-245.8" font-family="Times,serif" font-size="14.00">speech_neutral_WN &lt;= 28.9718</text>
<text text-anchor="middle" x="566" y="-230.8" font-family="Times,serif" font-size="14.00">samples = 6</text>
<text text-anchor="middle" x="566" y="-215.8" font-family="Times,serif" font-size="14.00">value = [0, 4, 2]</text>
<text text-anchor="middle" x="566" y="-200.8" font-family="Times,serif" font-size="14.00">class = 0.5</text>
</g>
<!-- 2&#45;&gt;10 -->
<g id="edge10" class="edge"><title>2&#45;&gt;10</title>
<path fill="none" stroke="black" d="M566,-296.884C566,-288.778 566,-279.982 566,-271.472"/>
<polygon fill="black" stroke="black" points="569.5,-271.299 566,-261.299 562.5,-271.299 569.5,-271.299"/>
</g>
<!-- 4 -->
<g id="node5" class="node"><title>4</title>
<polygon fill="none" stroke="black" points="239,-157 69,-157 69,-89 239,-89 239,-157"/>
<text text-anchor="middle" x="154" y="-141.8" font-family="Times,serif" font-size="14.00">emotional_WN &lt;= 20.3598</text>
<text text-anchor="middle" x="154" y="-126.8" font-family="Times,serif" font-size="14.00">samples = 14</text>
<text text-anchor="middle" x="154" y="-111.8" font-family="Times,serif" font-size="14.00">value = [6, 6, 2]</text>
<text text-anchor="middle" x="154" y="-96.8" font-family="Times,serif" font-size="14.00">class = 0.0</text>
</g>
<!-- 3&#45;&gt;4 -->
<g id="edge4" class="edge"><title>3&#45;&gt;4</title>
<path fill="none" stroke="black" d="M301.897,-192.884C280.368,-182.856 256.572,-171.773 234.475,-161.482"/>
<polygon fill="black" stroke="black" points="235.664,-158.174 225.121,-157.125 232.708,-164.52 235.664,-158.174"/>
</g>
<!-- 7 -->
<g id="node8" class="node"><title>7</title>
<polygon fill="#e58139" fill-opacity="0.929412" stroke="black" points="488.5,-157 257.5,-157 257.5,-89 488.5,-89 488.5,-157"/>
<text text-anchor="middle" x="373" y="-141.8" font-family="Times,serif" font-size="14.00">Anticipation_NRC_narrated &lt;= 6.8204</text>
<text text-anchor="middle" x="373" y="-126.8" font-family="Times,serif" font-size="14.00">samples = 31</text>
<text text-anchor="middle" x="373" y="-111.8" font-family="Times,serif" font-size="14.00">value = [29, 2, 0]</text>
<text text-anchor="middle" x="373" y="-96.8" font-family="Times,serif" font-size="14.00">class = 0.0</text>
</g>
<!-- 3&#45;&gt;7 -->
<g id="edge7" class="edge"><title>3&#45;&gt;7</title>
<path fill="none" stroke="black" d="M373,-192.884C373,-184.778 373,-175.982 373,-167.472"/>
<polygon fill="black" stroke="black" points="376.5,-167.299 373,-157.299 369.5,-167.299 376.5,-167.299"/>
</g>
<!-- 5 -->
<g id="node6" class="node"><title>5</title>
<polygon fill="#e58139" fill-opacity="0.572549" stroke="black" points="106,-53 7.10543e-15,-53 7.10543e-15,-0 106,-0 106,-53"/>
<text text-anchor="middle" x="53" y="-37.8" font-family="Times,serif" font-size="14.00">samples = 9</text>
<text text-anchor="middle" x="53" y="-22.8" font-family="Times,serif" font-size="14.00">value = [6, 1, 2]</text>
<text text-anchor="middle" x="53" y="-7.8" font-family="Times,serif" font-size="14.00">class = 0.0</text>
</g>
<!-- 4&#45;&gt;5 -->
<g id="edge5" class="edge"><title>4&#45;&gt;5</title>
<path fill="none" stroke="black" d="M118.675,-88.9485C108.702,-79.6175 97.8591,-69.4722 87.9108,-60.1641"/>
<polygon fill="black" stroke="black" points="90.2004,-57.5132 80.507,-53.2367 85.4178,-62.6247 90.2004,-57.5132"/>
</g>
<!-- 6 -->
<g id="node7" class="node"><title>6</title>
<polygon fill="#39e581" stroke="black" points="230,-53 124,-53 124,-0 230,-0 230,-53"/>
<text text-anchor="middle" x="177" y="-37.8" font-family="Times,serif" font-size="14.00">samples = 5</text>
<text text-anchor="middle" x="177" y="-22.8" font-family="Times,serif" font-size="14.00">value = [0, 5, 0]</text>
<text text-anchor="middle" x="177" y="-7.8" font-family="Times,serif" font-size="14.00">class = 0.5</text>
</g>
<!-- 4&#45;&gt;6 -->
<g id="edge6" class="edge"><title>4&#45;&gt;6</title>
<path fill="none" stroke="black" d="M162.044,-88.9485C164.07,-80.6238 166.254,-71.6509 168.31,-63.2027"/>
<polygon fill="black" stroke="black" points="171.772,-63.7808 170.736,-53.2367 164.97,-62.1253 171.772,-63.7808"/>
</g>
<!-- 8 -->
<g id="node9" class="node"><title>8</title>
<polygon fill="#e58139" stroke="black" points="384.5,-53 271.5,-53 271.5,-0 384.5,-0 384.5,-53"/>
<text text-anchor="middle" x="328" y="-37.8" font-family="Times,serif" font-size="14.00">samples = 28</text>
<text text-anchor="middle" x="328" y="-22.8" font-family="Times,serif" font-size="14.00">value = [28, 0, 0]</text>
<text text-anchor="middle" x="328" y="-7.8" font-family="Times,serif" font-size="14.00">class = 0.0</text>
</g>
<!-- 7&#45;&gt;8 -->
<g id="edge8" class="edge"><title>7&#45;&gt;8</title>
<path fill="none" stroke="black" d="M357.261,-88.9485C353.166,-80.3494 348.742,-71.0586 344.604,-62.3689"/>
<polygon fill="black" stroke="black" points="347.715,-60.7605 340.256,-53.2367 341.395,-63.7701 347.715,-60.7605"/>
</g>
<!-- 9 -->
<g id="node10" class="node"><title>9</title>
<polygon fill="#39e581" fill-opacity="0.498039" stroke="black" points="509,-53 403,-53 403,-0 509,-0 509,-53"/>
<text text-anchor="middle" x="456" y="-37.8" font-family="Times,serif" font-size="14.00">samples = 3</text>
<text text-anchor="middle" x="456" y="-22.8" font-family="Times,serif" font-size="14.00">value = [1, 2, 0]</text>
<text text-anchor="middle" x="456" y="-7.8" font-family="Times,serif" font-size="14.00">class = 0.5</text>
</g>
<!-- 7&#45;&gt;9 -->
<g id="edge9" class="edge"><title>7&#45;&gt;9</title>
<path fill="none" stroke="black" d="M402.029,-88.9485C409.984,-79.892 418.612,-70.0682 426.588,-60.9875"/>
<polygon fill="black" stroke="black" points="429.426,-63.0599 433.395,-53.2367 424.166,-58.4405 429.426,-63.0599"/>
</g>
<!-- 11 -->
<g id="node12" class="node"><title>11</title>
<polygon fill="#39e581" stroke="black" points="612,-149.5 506,-149.5 506,-96.5 612,-96.5 612,-149.5"/>
<text text-anchor="middle" x="559" y="-134.3" font-family="Times,serif" font-size="14.00">samples = 4</text>
<text text-anchor="middle" x="559" y="-119.3" font-family="Times,serif" font-size="14.00">value = [0, 4, 0]</text>
<text text-anchor="middle" x="559" y="-104.3" font-family="Times,serif" font-size="14.00">class = 0.5</text>
</g>
<!-- 10&#45;&gt;11 -->
<g id="edge11" class="edge"><title>10&#45;&gt;11</title>
<path fill="none" stroke="black" d="M563.727,-192.884C562.995,-182.216 562.181,-170.352 561.438,-159.519"/>
<polygon fill="black" stroke="black" points="564.928,-159.257 560.751,-149.52 557.944,-159.736 564.928,-159.257"/>
</g>
<!-- 12 -->
<g id="node13" class="node"><title>12</title>
<polygon fill="#8139e5" stroke="black" points="736,-149.5 630,-149.5 630,-96.5 736,-96.5 736,-149.5"/>
<text text-anchor="middle" x="683" y="-134.3" font-family="Times,serif" font-size="14.00">samples = 2</text>
<text text-anchor="middle" x="683" y="-119.3" font-family="Times,serif" font-size="14.00">value = [0, 0, 2]</text>
<text text-anchor="middle" x="683" y="-104.3" font-family="Times,serif" font-size="14.00">class = 1.0</text>
</g>
<!-- 10&#45;&gt;12 -->
<g id="edge12" class="edge"><title>10&#45;&gt;12</title>
<path fill="none" stroke="black" d="M603.987,-192.884C617.485,-181.116 632.651,-167.894 646.061,-156.203"/>
<polygon fill="black" stroke="black" points="648.489,-158.73 653.727,-149.52 643.889,-153.453 648.489,-158.73"/>
</g>
<!-- 14 -->
<g id="node15" class="node"><title>14</title>
<polygon fill="#39e581" stroke="black" points="796,-253.5 690,-253.5 690,-200.5 796,-200.5 796,-253.5"/>
<text text-anchor="middle" x="743" y="-238.3" font-family="Times,serif" font-size="14.00">samples = 1</text>
<text text-anchor="middle" x="743" y="-223.3" font-family="Times,serif" font-size="14.00">value = [0, 1, 0]</text>
<text text-anchor="middle" x="743" y="-208.3" font-family="Times,serif" font-size="14.00">class = 0.5</text>
</g>
<!-- 13&#45;&gt;14 -->
<g id="edge14" class="edge"><title>13&#45;&gt;14</title>
<path fill="none" stroke="black" d="M799.728,-296.884C790.399,-285.556 779.96,-272.88 770.605,-261.521"/>
<polygon fill="black" stroke="black" points="773.075,-259.014 764.016,-253.52 767.672,-263.464 773.075,-259.014"/>
</g>
<!-- 15 -->
<g id="node16" class="node"><title>15</title>
<polygon fill="#8139e5" stroke="black" points="920,-253.5 814,-253.5 814,-200.5 920,-200.5 920,-253.5"/>
<text text-anchor="middle" x="867" y="-238.3" font-family="Times,serif" font-size="14.00">samples = 6</text>
<text text-anchor="middle" x="867" y="-223.3" font-family="Times,serif" font-size="14.00">value = [0, 0, 6]</text>
<text text-anchor="middle" x="867" y="-208.3" font-family="Times,serif" font-size="14.00">class = 1.0</text>
</g>
<!-- 13&#45;&gt;15 -->
<g id="edge15" class="edge"><title>13&#45;&gt;15</title>
<path fill="none" stroke="black" d="M839.987,-296.884C844.257,-285.996 849.015,-273.863 853.333,-262.85"/>
<polygon fill="black" stroke="black" points="856.6,-264.107 856.992,-253.52 850.083,-261.552 856.6,-264.107"/>
</g>
<!-- 17 -->
<g id="node18" class="node"><title>17</title>
<polygon fill="#39e581" fill-opacity="0.694118" stroke="black" points="1128,-365 974,-365 974,-297 1128,-297 1128,-365"/>
<text text-anchor="middle" x="1051" y="-349.8" font-family="Times,serif" font-size="14.00">negative_WN &lt;= 4.6893</text>
<text text-anchor="middle" x="1051" y="-334.8" font-family="Times,serif" font-size="14.00">samples = 42</text>
<text text-anchor="middle" x="1051" y="-319.8" font-family="Times,serif" font-size="14.00">value = [6, 31, 5]</text>
<text text-anchor="middle" x="1051" y="-304.8" font-family="Times,serif" font-size="14.00">class = 0.5</text>
</g>
<!-- 16&#45;&gt;17 -->
<g id="edge17" class="edge"><title>16&#45;&gt;17</title>
<path fill="none" stroke="black" d="M1051,-400.884C1051,-392.778 1051,-383.982 1051,-375.472"/>
<polygon fill="black" stroke="black" points="1054.5,-375.299 1051,-365.299 1047.5,-375.299 1054.5,-375.299"/>
</g>
<!-- 28 -->
<g id="node29" class="node"><title>28</title>
<polygon fill="#8139e5" fill-opacity="0.909804" stroke="black" points="1393,-365 1245,-365 1245,-297 1393,-297 1393,-365"/>
<text text-anchor="middle" x="1319" y="-349.8" font-family="Times,serif" font-size="14.00">Trust_NRC &lt;= 21.1124</text>
<text text-anchor="middle" x="1319" y="-334.8" font-family="Times,serif" font-size="14.00">samples = 12</text>
<text text-anchor="middle" x="1319" y="-319.8" font-family="Times,serif" font-size="14.00">value = [0, 1, 11]</text>
<text text-anchor="middle" x="1319" y="-304.8" font-family="Times,serif" font-size="14.00">class = 1.0</text>
</g>
<!-- 16&#45;&gt;28 -->
<g id="edge28" class="edge"><title>16&#45;&gt;28</title>
<path fill="none" stroke="black" d="M1138.01,-400.884C1169.18,-389.022 1204.22,-375.683 1235.12,-363.925"/>
<polygon fill="black" stroke="black" points="1236.46,-367.158 1244.57,-360.33 1233.97,-360.616 1236.46,-367.158"/>
</g>
<!-- 18 -->
<g id="node19" class="node"><title>18</title>
<polygon fill="#39e581" fill-opacity="0.333333" stroke="black" points="1079.5,-261 942.5,-261 942.5,-193 1079.5,-193 1079.5,-261"/>
<text text-anchor="middle" x="1011" y="-245.8" font-family="Times,serif" font-size="14.00">Fear_NRC &lt;= 5.3231</text>
<text text-anchor="middle" x="1011" y="-230.8" font-family="Times,serif" font-size="14.00">samples = 21</text>
<text text-anchor="middle" x="1011" y="-215.8" font-family="Times,serif" font-size="14.00">value = [6, 11, 4]</text>
<text text-anchor="middle" x="1011" y="-200.8" font-family="Times,serif" font-size="14.00">class = 0.5</text>
</g>
<!-- 17&#45;&gt;18 -->
<g id="edge18" class="edge"><title>17&#45;&gt;18</title>
<path fill="none" stroke="black" d="M1038.01,-296.884C1034.73,-288.511 1031.16,-279.401 1027.72,-270.631"/>
<polygon fill="black" stroke="black" points="1030.97,-269.331 1024.06,-261.299 1024.45,-271.887 1030.97,-269.331"/>
</g>
<!-- 25 -->
<g id="node26" class="node"><title>25</title>
<polygon fill="#39e581" fill-opacity="0.949020" stroke="black" points="1244.5,-261 1097.5,-261 1097.5,-193 1244.5,-193 1244.5,-261"/>
<text text-anchor="middle" x="1171" y="-245.8" font-family="Times,serif" font-size="14.00">Disgust_NRC &lt;= 0.137</text>
<text text-anchor="middle" x="1171" y="-230.8" font-family="Times,serif" font-size="14.00">samples = 21</text>
<text text-anchor="middle" x="1171" y="-215.8" font-family="Times,serif" font-size="14.00">value = [0, 20, 1]</text>
<text text-anchor="middle" x="1171" y="-200.8" font-family="Times,serif" font-size="14.00">class = 0.5</text>
</g>
<!-- 17&#45;&gt;25 -->
<g id="edge25" class="edge"><title>17&#45;&gt;25</title>
<path fill="none" stroke="black" d="M1089.96,-296.884C1100.86,-287.62 1112.82,-277.455 1124.12,-267.845"/>
<polygon fill="black" stroke="black" points="1126.47,-270.443 1131.82,-261.299 1121.94,-265.109 1126.47,-270.443"/>
</g>
<!-- 19 -->
<g id="node20" class="node"><title>19</title>
<polygon fill="#39e581" fill-opacity="0.666667" stroke="black" points="929.5,-157 754.5,-157 754.5,-89 929.5,-89 929.5,-157"/>
<text text-anchor="middle" x="842" y="-141.8" font-family="Times,serif" font-size="14.00">Joy_NRC_speech &lt;= 1.0295</text>
<text text-anchor="middle" x="842" y="-126.8" font-family="Times,serif" font-size="14.00">samples = 15</text>
<text text-anchor="middle" x="842" y="-111.8" font-family="Times,serif" font-size="14.00">value = [1, 11, 3]</text>
<text text-anchor="middle" x="842" y="-96.8" font-family="Times,serif" font-size="14.00">class = 0.5</text>
</g>
<!-- 18&#45;&gt;19 -->
<g id="edge19" class="edge"><title>18&#45;&gt;19</title>
<path fill="none" stroke="black" d="M956.131,-192.884C939.962,-183.125 922.136,-172.366 905.475,-162.31"/>
<polygon fill="black" stroke="black" points="907.253,-159.296 896.883,-157.125 903.636,-165.289 907.253,-159.296"/>
</g>
<!-- 22 -->
<g id="node23" class="node"><title>22</title>
<polygon fill="#e58139" fill-opacity="0.800000" stroke="black" points="1100,-157 948,-157 948,-89 1100,-89 1100,-157"/>
<text text-anchor="middle" x="1024" y="-141.8" font-family="Times,serif" font-size="14.00">neutral_WN &lt;= 74.1788</text>
<text text-anchor="middle" x="1024" y="-126.8" font-family="Times,serif" font-size="14.00">samples = 6</text>
<text text-anchor="middle" x="1024" y="-111.8" font-family="Times,serif" font-size="14.00">value = [5, 0, 1]</text>
<text text-anchor="middle" x="1024" y="-96.8" font-family="Times,serif" font-size="14.00">class = 0.0</text>
</g>
<!-- 18&#45;&gt;22 -->
<g id="edge22" class="edge"><title>18&#45;&gt;22</title>
<path fill="none" stroke="black" d="M1015.22,-192.884C1016.25,-184.778 1017.37,-175.982 1018.46,-167.472"/>
<polygon fill="black" stroke="black" points="1021.96,-167.662 1019.76,-157.299 1015.02,-166.777 1021.96,-167.662"/>
</g>
<!-- 20 -->
<g id="node21" class="node"><title>20</title>
<polygon fill="#39e581" stroke="black" points="784.5,-53 671.5,-53 671.5,-0 784.5,-0 784.5,-53"/>
<text text-anchor="middle" x="728" y="-37.8" font-family="Times,serif" font-size="14.00">samples = 10</text>
<text text-anchor="middle" x="728" y="-22.8" font-family="Times,serif" font-size="14.00">value = [0, 10, 0]</text>
<text text-anchor="middle" x="728" y="-7.8" font-family="Times,serif" font-size="14.00">class = 0.5</text>
</g>
<!-- 19&#45;&gt;20 -->
<g id="edge20" class="edge"><title>19&#45;&gt;20</title>
<path fill="none" stroke="black" d="M802.128,-88.9485C790.762,-79.526 778.393,-69.2731 767.074,-59.8906"/>
<polygon fill="black" stroke="black" points="768.98,-56.924 759.047,-53.2367 764.513,-62.3132 768.98,-56.924"/>
</g>
<!-- 21 -->
<g id="node22" class="node"><title>21</title>
<polygon fill="#8139e5" fill-opacity="0.498039" stroke="black" points="909,-53 803,-53 803,-0 909,-0 909,-53"/>
<text text-anchor="middle" x="856" y="-37.8" font-family="Times,serif" font-size="14.00">samples = 5</text>
<text text-anchor="middle" x="856" y="-22.8" font-family="Times,serif" font-size="14.00">value = [1, 1, 3]</text>
<text text-anchor="middle" x="856" y="-7.8" font-family="Times,serif" font-size="14.00">class = 1.0</text>
</g>
<!-- 19&#45;&gt;21 -->
<g id="edge21" class="edge"><title>19&#45;&gt;21</title>
<path fill="none" stroke="black" d="M846.897,-88.9485C848.13,-80.6238 849.459,-71.6509 850.711,-63.2027"/>
<polygon fill="black" stroke="black" points="854.184,-63.6417 852.187,-53.2367 847.259,-62.6158 854.184,-63.6417"/>
</g>
<!-- 23 -->
<g id="node24" class="node"><title>23</title>
<polygon fill="#e58139" stroke="black" points="1062,-53 956,-53 956,-0 1062,-0 1062,-53"/>
<text text-anchor="middle" x="1009" y="-37.8" font-family="Times,serif" font-size="14.00">samples = 5</text>
<text text-anchor="middle" x="1009" y="-22.8" font-family="Times,serif" font-size="14.00">value = [5, 0, 0]</text>
<text text-anchor="middle" x="1009" y="-7.8" font-family="Times,serif" font-size="14.00">class = 0.0</text>
</g>
<!-- 22&#45;&gt;23 -->
<g id="edge23" class="edge"><title>22&#45;&gt;23</title>
<path fill="none" stroke="black" d="M1018.75,-88.9485C1017.43,-80.6238 1016.01,-71.6509 1014.67,-63.2027"/>
<polygon fill="black" stroke="black" points="1018.11,-62.5643 1013.09,-53.2367 1011.2,-63.6618 1018.11,-62.5643"/>
</g>
<!-- 24 -->
<g id="node25" class="node"><title>24</title>
<polygon fill="#8139e5" stroke="black" points="1186,-53 1080,-53 1080,-0 1186,-0 1186,-53"/>
<text text-anchor="middle" x="1133" y="-37.8" font-family="Times,serif" font-size="14.00">samples = 1</text>
<text text-anchor="middle" x="1133" y="-22.8" font-family="Times,serif" font-size="14.00">value = [0, 0, 1]</text>
<text text-anchor="middle" x="1133" y="-7.8" font-family="Times,serif" font-size="14.00">class = 1.0</text>
</g>
<!-- 22&#45;&gt;24 -->
<g id="edge24" class="edge"><title>22&#45;&gt;24</title>
<path fill="none" stroke="black" d="M1062.12,-88.9485C1072.99,-79.526 1084.82,-69.2731 1095.64,-59.8906"/>
<polygon fill="black" stroke="black" points="1098.05,-62.4319 1103.31,-53.2367 1093.47,-57.1428 1098.05,-62.4319"/>
</g>
<!-- 26 -->
<g id="node27" class="node"><title>26</title>
<polygon fill="#8139e5" stroke="black" points="1224,-149.5 1118,-149.5 1118,-96.5 1224,-96.5 1224,-149.5"/>
<text text-anchor="middle" x="1171" y="-134.3" font-family="Times,serif" font-size="14.00">samples = 1</text>
<text text-anchor="middle" x="1171" y="-119.3" font-family="Times,serif" font-size="14.00">value = [0, 0, 1]</text>
<text text-anchor="middle" x="1171" y="-104.3" font-family="Times,serif" font-size="14.00">class = 1.0</text>
</g>
<!-- 25&#45;&gt;26 -->
<g id="edge26" class="edge"><title>25&#45;&gt;26</title>
<path fill="none" stroke="black" d="M1171,-192.884C1171,-182.326 1171,-170.597 1171,-159.854"/>
<polygon fill="black" stroke="black" points="1174.5,-159.52 1171,-149.52 1167.5,-159.52 1174.5,-159.52"/>
</g>
<!-- 27 -->
<g id="node28" class="node"><title>27</title>
<polygon fill="#39e581" stroke="black" points="1355.5,-149.5 1242.5,-149.5 1242.5,-96.5 1355.5,-96.5 1355.5,-149.5"/>
<text text-anchor="middle" x="1299" y="-134.3" font-family="Times,serif" font-size="14.00">samples = 20</text>
<text text-anchor="middle" x="1299" y="-119.3" font-family="Times,serif" font-size="14.00">value = [0, 20, 0]</text>
<text text-anchor="middle" x="1299" y="-104.3" font-family="Times,serif" font-size="14.00">class = 0.5</text>
</g>
<!-- 25&#45;&gt;27 -->
<g id="edge27" class="edge"><title>25&#45;&gt;27</title>
<path fill="none" stroke="black" d="M1212.56,-192.884C1227.46,-181.006 1244.23,-167.646 1259,-155.876"/>
<polygon fill="black" stroke="black" points="1261.34,-158.489 1266.97,-149.52 1256.97,-153.015 1261.34,-158.489"/>
</g>
<!-- 29 -->
<g id="node30" class="node"><title>29</title>
<polygon fill="#8139e5" stroke="black" points="1375.5,-253.5 1262.5,-253.5 1262.5,-200.5 1375.5,-200.5 1375.5,-253.5"/>
<text text-anchor="middle" x="1319" y="-238.3" font-family="Times,serif" font-size="14.00">samples = 11</text>
<text text-anchor="middle" x="1319" y="-223.3" font-family="Times,serif" font-size="14.00">value = [0, 0, 11]</text>
<text text-anchor="middle" x="1319" y="-208.3" font-family="Times,serif" font-size="14.00">class = 1.0</text>
</g>
<!-- 28&#45;&gt;29 -->
<g id="edge29" class="edge"><title>28&#45;&gt;29</title>
<path fill="none" stroke="black" d="M1319,-296.884C1319,-286.326 1319,-274.597 1319,-263.854"/>
<polygon fill="black" stroke="black" points="1322.5,-263.52 1319,-253.52 1315.5,-263.52 1322.5,-263.52"/>
</g>
<!-- 30 -->
<g id="node31" class="node"><title>30</title>
<polygon fill="#39e581" stroke="black" points="1500,-253.5 1394,-253.5 1394,-200.5 1500,-200.5 1500,-253.5"/>
<text text-anchor="middle" x="1447" y="-238.3" font-family="Times,serif" font-size="14.00">samples = 1</text>
<text text-anchor="middle" x="1447" y="-223.3" font-family="Times,serif" font-size="14.00">value = [0, 1, 0]</text>
<text text-anchor="middle" x="1447" y="-208.3" font-family="Times,serif" font-size="14.00">class = 0.5</text>
</g>
<!-- 28&#45;&gt;30 -->
<g id="edge30" class="edge"><title>28&#45;&gt;30</title>
<path fill="none" stroke="black" d="M1360.56,-296.884C1375.46,-285.006 1392.23,-271.646 1407,-259.876"/>
<polygon fill="black" stroke="black" points="1409.34,-262.489 1414.97,-253.52 1404.97,-257.015 1409.34,-262.489"/>
</g>
</g>
</svg>
