<?xml version="1.0" encoding="UTF-8" standalone="no"?>
<!DOCTYPE svg PUBLIC "-//W3C//DTD SVG 1.1//EN"
 "http://www.w3.org/Graphics/SVG/1.1/DTD/svg11.dtd">
<!-- Generated by graphviz version 2.38.0 (20140413.2041)
 -->
<!-- Title: Tree Pages: 1 -->
<svg width="1107pt" height="477pt"
 viewBox="0.00 0.00 1106.50 477.00" xmlns="http://www.w3.org/2000/svg" xmlns:xlink="http://www.w3.org/1999/xlink">
<g id="graph0" class="graph" transform="scale(1 1) rotate(0) translate(4 473)">
<title>Tree</title>
<polygon fill="white" stroke="none" points="-4,4 -4,-473 1102.5,-473 1102.5,4 -4,4"/>
<!-- 0 -->
<g id="node1" class="node"><title>0</title>
<polygon fill="#39e581" fill-opacity="0.054902" stroke="black" points="789.5,-469 571.5,-469 571.5,-401 789.5,-401 789.5,-469"/>
<text text-anchor="middle" x="680.5" y="-453.8" font-family="Times,serif" font-size="14.00">speech_emotional_NRC &lt;= 18.3738</text>
<text text-anchor="middle" x="680.5" y="-438.8" font-family="Times,serif" font-size="14.00">samples = 112</text>
<text text-anchor="middle" x="680.5" y="-423.8" font-family="Times,serif" font-size="14.00">value = [41, 45, 26]</text>
<text text-anchor="middle" x="680.5" y="-408.8" font-family="Times,serif" font-size="14.00">class = 0.5</text>
</g>
<!-- 1 -->
<g id="node2" class="node"><title>1</title>
<polygon fill="#39e581" fill-opacity="0.101961" stroke="black" points="661.5,-365 499.5,-365 499.5,-297 661.5,-297 661.5,-365"/>
<text text-anchor="middle" x="580.5" y="-349.8" font-family="Times,serif" font-size="14.00">positive_NRC &lt;= 20.2381</text>
<text text-anchor="middle" x="580.5" y="-334.8" font-family="Times,serif" font-size="14.00">samples = 72</text>
<text text-anchor="middle" x="580.5" y="-319.8" font-family="Times,serif" font-size="14.00">value = [32, 36, 4]</text>
<text text-anchor="middle" x="580.5" y="-304.8" font-family="Times,serif" font-size="14.00">class = 0.5</text>
</g>
<!-- 0&#45;&gt;1 -->
<g id="edge1" class="edge"><title>0&#45;&gt;1</title>
<path fill="none" stroke="black" d="M648.033,-400.884C639.213,-391.887 629.559,-382.041 620.381,-372.678"/>
<polygon fill="black" stroke="black" points="622.646,-369.99 613.146,-365.299 617.648,-374.89 622.646,-369.99"/>
<text text-anchor="middle" x="612.899" y="-386.598" font-family="Times,serif" font-size="14.00">True</text>
</g>
<!-- 14 -->
<g id="node15" class="node"><title>14</title>
<polygon fill="#8139e5" fill-opacity="0.419608" stroke="black" points="881,-365 680,-365 680,-297 881,-297 881,-365"/>
<text text-anchor="middle" x="780.5" y="-349.8" font-family="Times,serif" font-size="14.00">narrated_neutral_NRC &lt;= 6.7615</text>
<text text-anchor="middle" x="780.5" y="-334.8" font-family="Times,serif" font-size="14.00">samples = 40</text>
<text text-anchor="middle" x="780.5" y="-319.8" font-family="Times,serif" font-size="14.00">value = [9, 9, 22]</text>
<text text-anchor="middle" x="780.5" y="-304.8" font-family="Times,serif" font-size="14.00">class = 1.0</text>
</g>
<!-- 0&#45;&gt;14 -->
<g id="edge14" class="edge"><title>0&#45;&gt;14</title>
<path fill="none" stroke="black" d="M712.967,-400.884C721.787,-391.887 731.441,-382.041 740.619,-372.678"/>
<polygon fill="black" stroke="black" points="743.352,-374.89 747.854,-365.299 738.354,-369.99 743.352,-374.89"/>
<text text-anchor="middle" x="748.101" y="-386.598" font-family="Times,serif" font-size="14.00">False</text>
</g>
<!-- 2 -->
<g id="node3" class="node"><title>2</title>
<polygon fill="#e58139" fill-opacity="0.176471" stroke="black" points="454,-261 243,-261 243,-193 454,-193 454,-261"/>
<text text-anchor="middle" x="348.5" y="-245.8" font-family="Times,serif" font-size="14.00">speech_emotional_NRC &lt;= 9.0148</text>
<text text-anchor="middle" x="348.5" y="-230.8" font-family="Times,serif" font-size="14.00">samples = 59</text>
<text text-anchor="middle" x="348.5" y="-215.8" font-family="Times,serif" font-size="14.00">value = [31, 25, 3]</text>
<text text-anchor="middle" x="348.5" y="-200.8" font-family="Times,serif" font-size="14.00">class = 0.0</text>
</g>
<!-- 1&#45;&gt;2 -->
<g id="edge2" class="edge"><title>1&#45;&gt;2</title>
<path fill="none" stroke="black" d="M505.176,-296.884C482.166,-286.767 456.71,-275.575 433.126,-265.206"/>
<polygon fill="black" stroke="black" points="434.406,-261.946 423.843,-261.125 431.588,-268.354 434.406,-261.946"/>
</g>
<!-- 9 -->
<g id="node10" class="node"><title>9</title>
<polygon fill="#39e581" fill-opacity="0.831373" stroke="black" points="697,-261 472,-261 472,-193 697,-193 697,-261"/>
<text text-anchor="middle" x="584.5" y="-245.8" font-family="Times,serif" font-size="14.00">narrated_emotional_NRC &lt;= 55.9714</text>
<text text-anchor="middle" x="584.5" y="-230.8" font-family="Times,serif" font-size="14.00">samples = 13</text>
<text text-anchor="middle" x="584.5" y="-215.8" font-family="Times,serif" font-size="14.00">value = [1, 11, 1]</text>
<text text-anchor="middle" x="584.5" y="-200.8" font-family="Times,serif" font-size="14.00">class = 0.5</text>
</g>
<!-- 1&#45;&gt;9 -->
<g id="edge9" class="edge"><title>1&#45;&gt;9</title>
<path fill="none" stroke="black" d="M581.799,-296.884C582.117,-288.778 582.461,-279.982 582.795,-271.472"/>
<polygon fill="black" stroke="black" points="586.3,-271.429 583.194,-261.299 579.305,-271.155 586.3,-271.429"/>
</g>
<!-- 3 -->
<g id="node4" class="node"><title>3</title>
<polygon fill="#e58139" fill-opacity="0.733333" stroke="black" points="265,-157 100,-157 100,-89 265,-89 265,-157"/>
<text text-anchor="middle" x="182.5" y="-141.8" font-family="Times,serif" font-size="14.00">negative_NRC &lt;= 20.4021</text>
<text text-anchor="middle" x="182.5" y="-126.8" font-family="Times,serif" font-size="14.00">samples = 19</text>
<text text-anchor="middle" x="182.5" y="-111.8" font-family="Times,serif" font-size="14.00">value = [15, 4, 0]</text>
<text text-anchor="middle" x="182.5" y="-96.8" font-family="Times,serif" font-size="14.00">class = 0.0</text>
</g>
<!-- 2&#45;&gt;3 -->
<g id="edge3" class="edge"><title>2&#45;&gt;3</title>
<path fill="none" stroke="black" d="M294.605,-192.884C278.869,-183.214 261.535,-172.563 245.299,-162.587"/>
<polygon fill="black" stroke="black" points="246.761,-159.378 236.409,-157.125 243.097,-165.342 246.761,-159.378"/>
</g>
<!-- 6 -->
<g id="node7" class="node"><title>6</title>
<polygon fill="#39e581" fill-opacity="0.207843" stroke="black" points="440,-157 283,-157 283,-89 440,-89 440,-157"/>
<text text-anchor="middle" x="361.5" y="-141.8" font-family="Times,serif" font-size="14.00">neutral_NRC &lt;= 41.3236</text>
<text text-anchor="middle" x="361.5" y="-126.8" font-family="Times,serif" font-size="14.00">samples = 40</text>
<text text-anchor="middle" x="361.5" y="-111.8" font-family="Times,serif" font-size="14.00">value = [16, 21, 3]</text>
<text text-anchor="middle" x="361.5" y="-96.8" font-family="Times,serif" font-size="14.00">class = 0.5</text>
</g>
<!-- 2&#45;&gt;6 -->
<g id="edge6" class="edge"><title>2&#45;&gt;6</title>
<path fill="none" stroke="black" d="M352.721,-192.884C353.754,-184.778 354.875,-175.982 355.959,-167.472"/>
<polygon fill="black" stroke="black" points="359.464,-167.662 357.256,-157.299 352.52,-166.777 359.464,-167.662"/>
</g>
<!-- 4 -->
<g id="node5" class="node"><title>4</title>
<polygon fill="#e58139" stroke="black" points="113,-53 0,-53 0,-0 113,-0 113,-53"/>
<text text-anchor="middle" x="56.5" y="-37.8" font-family="Times,serif" font-size="14.00">samples = 15</text>
<text text-anchor="middle" x="56.5" y="-22.8" font-family="Times,serif" font-size="14.00">value = [15, 0, 0]</text>
<text text-anchor="middle" x="56.5" y="-7.8" font-family="Times,serif" font-size="14.00">class = 0.0</text>
</g>
<!-- 3&#45;&gt;4 -->
<g id="edge4" class="edge"><title>3&#45;&gt;4</title>
<path fill="none" stroke="black" d="M138.431,-88.9485C125.624,-79.3431 111.666,-68.8747 98.96,-59.345"/>
<polygon fill="black" stroke="black" points="100.916,-56.4367 90.8156,-53.2367 96.7156,-62.0368 100.916,-56.4367"/>
</g>
<!-- 5 -->
<g id="node6" class="node"><title>5</title>
<polygon fill="#39e581" stroke="black" points="237.5,-53 131.5,-53 131.5,-0 237.5,-0 237.5,-53"/>
<text text-anchor="middle" x="184.5" y="-37.8" font-family="Times,serif" font-size="14.00">samples = 4</text>
<text text-anchor="middle" x="184.5" y="-22.8" font-family="Times,serif" font-size="14.00">value = [0, 4, 0]</text>
<text text-anchor="middle" x="184.5" y="-7.8" font-family="Times,serif" font-size="14.00">class = 0.5</text>
</g>
<!-- 3&#45;&gt;5 -->
<g id="edge5" class="edge"><title>3&#45;&gt;5</title>
<path fill="none" stroke="black" d="M183.2,-88.9485C183.374,-80.7153 183.561,-71.848 183.738,-63.4814"/>
<polygon fill="black" stroke="black" points="187.243,-63.3086 183.955,-53.2367 180.244,-63.1604 187.243,-63.3086"/>
</g>
<!-- 7 -->
<g id="node8" class="node"><title>7</title>
<polygon fill="#e58139" fill-opacity="0.800000" stroke="black" points="368.5,-53 262.5,-53 262.5,-0 368.5,-0 368.5,-53"/>
<text text-anchor="middle" x="315.5" y="-37.8" font-family="Times,serif" font-size="14.00">samples = 11</text>
<text text-anchor="middle" x="315.5" y="-22.8" font-family="Times,serif" font-size="14.00">value = [9, 1, 1]</text>
<text text-anchor="middle" x="315.5" y="-7.8" font-family="Times,serif" font-size="14.00">class = 0.0</text>
</g>
<!-- 6&#45;&gt;7 -->
<g id="edge7" class="edge"><title>6&#45;&gt;7</title>
<path fill="none" stroke="black" d="M345.411,-88.9485C341.226,-80.3494 336.703,-71.0586 332.473,-62.3689"/>
<polygon fill="black" stroke="black" points="335.552,-60.6962 328.028,-53.2367 329.258,-63.7599 335.552,-60.6962"/>
</g>
<!-- 8 -->
<g id="node9" class="node"><title>8</title>
<polygon fill="#39e581" fill-opacity="0.592157" stroke="black" points="500,-53 387,-53 387,-0 500,-0 500,-53"/>
<text text-anchor="middle" x="443.5" y="-37.8" font-family="Times,serif" font-size="14.00">samples = 29</text>
<text text-anchor="middle" x="443.5" y="-22.8" font-family="Times,serif" font-size="14.00">value = [7, 20, 2]</text>
<text text-anchor="middle" x="443.5" y="-7.8" font-family="Times,serif" font-size="14.00">class = 0.5</text>
</g>
<!-- 6&#45;&gt;8 -->
<g id="edge8" class="edge"><title>6&#45;&gt;8</title>
<path fill="none" stroke="black" d="M390.18,-88.9485C398.038,-79.892 406.562,-70.0682 414.442,-60.9875"/>
<polygon fill="black" stroke="black" points="417.257,-63.0835 421.168,-53.2367 411.97,-58.4958 417.257,-63.0835"/>
</g>
<!-- 10 -->
<g id="node11" class="node"><title>10</title>
<polygon fill="#39e581" fill-opacity="0.909804" stroke="black" points="690,-157 465,-157 465,-89 690,-89 690,-157"/>
<text text-anchor="middle" x="577.5" y="-141.8" font-family="Times,serif" font-size="14.00">narrated_emotional_NRC &lt;= 45.2831</text>
<text text-anchor="middle" x="577.5" y="-126.8" font-family="Times,serif" font-size="14.00">samples = 12</text>
<text text-anchor="middle" x="577.5" y="-111.8" font-family="Times,serif" font-size="14.00">value = [1, 11, 0]</text>
<text text-anchor="middle" x="577.5" y="-96.8" font-family="Times,serif" font-size="14.00">class = 0.5</text>
</g>
<!-- 9&#45;&gt;10 -->
<g id="edge10" class="edge"><title>9&#45;&gt;10</title>
<path fill="none" stroke="black" d="M582.227,-192.884C581.671,-184.778 581.067,-175.982 580.483,-167.472"/>
<polygon fill="black" stroke="black" points="583.962,-167.036 579.785,-157.299 576.978,-167.516 583.962,-167.036"/>
</g>
<!-- 13 -->
<g id="node14" class="node"><title>13</title>
<polygon fill="#8139e5" stroke="black" points="814.5,-149.5 708.5,-149.5 708.5,-96.5 814.5,-96.5 814.5,-149.5"/>
<text text-anchor="middle" x="761.5" y="-134.3" font-family="Times,serif" font-size="14.00">samples = 1</text>
<text text-anchor="middle" x="761.5" y="-119.3" font-family="Times,serif" font-size="14.00">value = [0, 0, 1]</text>
<text text-anchor="middle" x="761.5" y="-104.3" font-family="Times,serif" font-size="14.00">class = 1.0</text>
</g>
<!-- 9&#45;&gt;13 -->
<g id="edge13" class="edge"><title>9&#45;&gt;13</title>
<path fill="none" stroke="black" d="M641.967,-192.884C663.342,-180.566 687.482,-166.655 708.444,-154.575"/>
<polygon fill="black" stroke="black" points="710.299,-157.545 717.215,-149.52 706.804,-151.48 710.299,-157.545"/>
</g>
<!-- 11 -->
<g id="node12" class="node"><title>11</title>
<polygon fill="#39e581" stroke="black" points="628.5,-53 522.5,-53 522.5,-0 628.5,-0 628.5,-53"/>
<text text-anchor="middle" x="575.5" y="-37.8" font-family="Times,serif" font-size="14.00">samples = 8</text>
<text text-anchor="middle" x="575.5" y="-22.8" font-family="Times,serif" font-size="14.00">value = [0, 8, 0]</text>
<text text-anchor="middle" x="575.5" y="-7.8" font-family="Times,serif" font-size="14.00">class = 0.5</text>
</g>
<!-- 10&#45;&gt;11 -->
<g id="edge11" class="edge"><title>10&#45;&gt;11</title>
<path fill="none" stroke="black" d="M576.8,-88.9485C576.626,-80.7153 576.439,-71.848 576.262,-63.4814"/>
<polygon fill="black" stroke="black" points="579.756,-63.1604 576.045,-53.2367 572.757,-63.3086 579.756,-63.1604"/>
</g>
<!-- 12 -->
<g id="node13" class="node"><title>12</title>
<polygon fill="#39e581" fill-opacity="0.666667" stroke="black" points="752.5,-53 646.5,-53 646.5,-0 752.5,-0 752.5,-53"/>
<text text-anchor="middle" x="699.5" y="-37.8" font-family="Times,serif" font-size="14.00">samples = 4</text>
<text text-anchor="middle" x="699.5" y="-22.8" font-family="Times,serif" font-size="14.00">value = [1, 3, 0]</text>
<text text-anchor="middle" x="699.5" y="-7.8" font-family="Times,serif" font-size="14.00">class = 0.5</text>
</g>
<!-- 10&#45;&gt;12 -->
<g id="edge12" class="edge"><title>10&#45;&gt;12</title>
<path fill="none" stroke="black" d="M620.17,-88.9485C632.452,-79.4346 645.828,-69.074 658.036,-59.6175"/>
<polygon fill="black" stroke="black" points="660.511,-62.1274 666.274,-53.2367 656.225,-56.5934 660.511,-62.1274"/>
</g>
<!-- 15 -->
<g id="node16" class="node"><title>15</title>
<polygon fill="#e58139" stroke="black" points="829.5,-253.5 723.5,-253.5 723.5,-200.5 829.5,-200.5 829.5,-253.5"/>
<text text-anchor="middle" x="776.5" y="-238.3" font-family="Times,serif" font-size="14.00">samples = 4</text>
<text text-anchor="middle" x="776.5" y="-223.3" font-family="Times,serif" font-size="14.00">value = [4, 0, 0]</text>
<text text-anchor="middle" x="776.5" y="-208.3" font-family="Times,serif" font-size="14.00">class = 0.0</text>
</g>
<!-- 14&#45;&gt;15 -->
<g id="edge15" class="edge"><title>14&#45;&gt;15</title>
<path fill="none" stroke="black" d="M779.201,-296.884C778.783,-286.216 778.318,-274.352 777.893,-263.519"/>
<polygon fill="black" stroke="black" points="781.39,-263.375 777.501,-253.52 774.395,-263.649 781.39,-263.375"/>
</g>
<!-- 16 -->
<g id="node17" class="node"><title>16</title>
<polygon fill="#8139e5" fill-opacity="0.482353" stroke="black" points="1003,-261 848,-261 848,-193 1003,-193 1003,-261"/>
<text text-anchor="middle" x="925.5" y="-245.8" font-family="Times,serif" font-size="14.00">positive_NRC &lt;= 30.357</text>
<text text-anchor="middle" x="925.5" y="-230.8" font-family="Times,serif" font-size="14.00">samples = 36</text>
<text text-anchor="middle" x="925.5" y="-215.8" font-family="Times,serif" font-size="14.00">value = [5, 9, 22]</text>
<text text-anchor="middle" x="925.5" y="-200.8" font-family="Times,serif" font-size="14.00">class = 1.0</text>
</g>
<!-- 14&#45;&gt;16 -->
<g id="edge16" class="edge"><title>14&#45;&gt;16</title>
<path fill="none" stroke="black" d="M827.577,-296.884C841,-287.442 855.753,-277.064 869.644,-267.292"/>
<polygon fill="black" stroke="black" points="871.997,-269.916 878.163,-261.299 867.97,-264.19 871.997,-269.916"/>
</g>
<!-- 17 -->
<g id="node18" class="node"><title>17</title>
<polygon fill="#8139e5" fill-opacity="0.592157" stroke="black" points="974.5,-157 852.5,-157 852.5,-89 974.5,-89 974.5,-157"/>
<text text-anchor="middle" x="913.5" y="-141.8" font-family="Times,serif" font-size="14.00">speech &lt;= 34.3885</text>
<text text-anchor="middle" x="913.5" y="-126.8" font-family="Times,serif" font-size="14.00">samples = 33</text>
<text text-anchor="middle" x="913.5" y="-111.8" font-family="Times,serif" font-size="14.00">value = [5, 6, 22]</text>
<text text-anchor="middle" x="913.5" y="-96.8" font-family="Times,serif" font-size="14.00">class = 1.0</text>
</g>
<!-- 16&#45;&gt;17 -->
<g id="edge17" class="edge"><title>16&#45;&gt;17</title>
<path fill="none" stroke="black" d="M921.604,-192.884C920.65,-184.778 919.616,-175.982 918.614,-167.472"/>
<polygon fill="black" stroke="black" points="922.062,-166.822 917.418,-157.299 915.11,-167.64 922.062,-166.822"/>
</g>
<!-- 20 -->
<g id="node21" class="node"><title>20</title>
<polygon fill="#39e581" stroke="black" points="1098.5,-149.5 992.5,-149.5 992.5,-96.5 1098.5,-96.5 1098.5,-149.5"/>
<text text-anchor="middle" x="1045.5" y="-134.3" font-family="Times,serif" font-size="14.00">samples = 3</text>
<text text-anchor="middle" x="1045.5" y="-119.3" font-family="Times,serif" font-size="14.00">value = [0, 3, 0]</text>
<text text-anchor="middle" x="1045.5" y="-104.3" font-family="Times,serif" font-size="14.00">class = 0.5</text>
</g>
<!-- 16&#45;&gt;20 -->
<g id="edge20" class="edge"><title>16&#45;&gt;20</title>
<path fill="none" stroke="black" d="M964.461,-192.884C978.305,-181.116 993.86,-167.894 1007.61,-156.203"/>
<polygon fill="black" stroke="black" points="1010.12,-158.663 1015.48,-149.52 1005.59,-153.33 1010.12,-158.663"/>
</g>
<!-- 18 -->
<g id="node19" class="node"><title>18</title>
<polygon fill="#e58139" stroke="black" points="921.5,-53 815.5,-53 815.5,-0 921.5,-0 921.5,-53"/>
<text text-anchor="middle" x="868.5" y="-37.8" font-family="Times,serif" font-size="14.00">samples = 2</text>
<text text-anchor="middle" x="868.5" y="-22.8" font-family="Times,serif" font-size="14.00">value = [2, 0, 0]</text>
<text text-anchor="middle" x="868.5" y="-7.8" font-family="Times,serif" font-size="14.00">class = 0.0</text>
</g>
<!-- 17&#45;&gt;18 -->
<g id="edge18" class="edge"><title>17&#45;&gt;18</title>
<path fill="none" stroke="black" d="M897.761,-88.9485C893.666,-80.3494 889.242,-71.0586 885.104,-62.3689"/>
<polygon fill="black" stroke="black" points="888.215,-60.7605 880.756,-53.2367 881.895,-63.7701 888.215,-60.7605"/>
</g>
<!-- 19 -->
<g id="node20" class="node"><title>19</title>
<polygon fill="#8139e5" fill-opacity="0.639216" stroke="black" points="1053,-53 940,-53 940,-0 1053,-0 1053,-53"/>
<text text-anchor="middle" x="996.5" y="-37.8" font-family="Times,serif" font-size="14.00">samples = 31</text>
<text text-anchor="middle" x="996.5" y="-22.8" font-family="Times,serif" font-size="14.00">value = [3, 6, 22]</text>
<text text-anchor="middle" x="996.5" y="-7.8" font-family="Times,serif" font-size="14.00">class = 1.0</text>
</g>
<!-- 17&#45;&gt;19 -->
<g id="edge19" class="edge"><title>17&#45;&gt;19</title>
<path fill="none" stroke="black" d="M942.529,-88.9485C950.484,-79.892 959.112,-70.0682 967.088,-60.9875"/>
<polygon fill="black" stroke="black" points="969.926,-63.0599 973.895,-53.2367 964.666,-58.4405 969.926,-63.0599"/>
</g>
</g>
</svg>
