<?xml version="1.0" encoding="UTF-8" standalone="no"?>
<!DOCTYPE svg PUBLIC "-//W3C//DTD SVG 1.1//EN"
 "http://www.w3.org/Graphics/SVG/1.1/DTD/svg11.dtd">
<!-- Generated by graphviz version 2.38.0 (20140413.2041)
 -->
<!-- Title: Tree Pages: 1 -->
<svg width="1978pt" height="581pt"
 viewBox="0.00 0.00 1978.00 581.00" xmlns="http://www.w3.org/2000/svg" xmlns:xlink="http://www.w3.org/1999/xlink">
<g id="graph0" class="graph" transform="scale(1 1) rotate(0) translate(4 577)">
<title>Tree</title>
<polygon fill="white" stroke="none" points="-4,4 -4,-577 1974,-577 1974,4 -4,4"/>
<!-- 0 -->
<g id="node1" class="node"><title>0</title>
<polygon fill="#39e581" fill-opacity="0.054902" stroke="black" points="1050,-573 868,-573 868,-505 1050,-505 1050,-573"/>
<text text-anchor="middle" x="959" y="-557.8" font-family="Times,serif" font-size="14.00">Joy_NRC_narrated &lt;= 1.4807</text>
<text text-anchor="middle" x="959" y="-542.8" font-family="Times,serif" font-size="14.00">samples = 112</text>
<text text-anchor="middle" x="959" y="-527.8" font-family="Times,serif" font-size="14.00">value = [41, 45, 26]</text>
<text text-anchor="middle" x="959" y="-512.8" font-family="Times,serif" font-size="14.00">class = 0.5</text>
</g>
<!-- 1 -->
<g id="node2" class="node"><title>1</title>
<polygon fill="#e58139" fill-opacity="0.490196" stroke="black" points="925,-469 735,-469 735,-401 925,-401 925,-469"/>
<text text-anchor="middle" x="830" y="-453.8" font-family="Times,serif" font-size="14.00">Anger_NRC_speech &lt;= 1.3037</text>
<text text-anchor="middle" x="830" y="-438.8" font-family="Times,serif" font-size="14.00">samples = 58</text>
<text text-anchor="middle" x="830" y="-423.8" font-family="Times,serif" font-size="14.00">value = [35, 13, 10]</text>
<text text-anchor="middle" x="830" y="-408.8" font-family="Times,serif" font-size="14.00">class = 0.0</text>
</g>
<!-- 0&#45;&gt;1 -->
<g id="edge1" class="edge"><title>0&#45;&gt;1</title>
<path fill="none" stroke="black" d="M917.117,-504.884C905.289,-495.531 892.299,-485.259 880.042,-475.568"/>
<polygon fill="black" stroke="black" points="882.129,-472.756 872.114,-469.299 877.787,-478.247 882.129,-472.756"/>
<text text-anchor="middle" x="875.016" y="-490.43" font-family="Times,serif" font-size="14.00">True</text>
</g>
<!-- 16 -->
<g id="node17" class="node"><title>16</title>
<polygon fill="#39e581" fill-opacity="0.419608" stroke="black" points="1198.5,-469 977.5,-469 977.5,-401 1198.5,-401 1198.5,-469"/>
<text text-anchor="middle" x="1088" y="-453.8" font-family="Times,serif" font-size="14.00">narrated_emotional_WN &lt;= 44.8441</text>
<text text-anchor="middle" x="1088" y="-438.8" font-family="Times,serif" font-size="14.00">samples = 54</text>
<text text-anchor="middle" x="1088" y="-423.8" font-family="Times,serif" font-size="14.00">value = [6, 32, 16]</text>
<text text-anchor="middle" x="1088" y="-408.8" font-family="Times,serif" font-size="14.00">class = 0.5</text>
</g>
<!-- 0&#45;&gt;16 -->
<g id="edge16" class="edge"><title>0&#45;&gt;16</title>
<path fill="none" stroke="black" d="M1000.88,-504.884C1012.71,-495.531 1025.7,-485.259 1037.96,-475.568"/>
<polygon fill="black" stroke="black" points="1040.21,-478.247 1045.89,-469.299 1035.87,-472.756 1040.21,-478.247"/>
<text text-anchor="middle" x="1042.98" y="-490.43" font-family="Times,serif" font-size="14.00">False</text>
</g>
<!-- 2 -->
<g id="node3" class="node"><title>2</title>
<polygon fill="#e58139" fill-opacity="0.588235" stroke="black" points="650,-365 496,-365 496,-297 650,-297 650,-365"/>
<text text-anchor="middle" x="573" y="-349.8" font-family="Times,serif" font-size="14.00">negative_WN &lt;= 7.3864</text>
<text text-anchor="middle" x="573" y="-334.8" font-family="Times,serif" font-size="14.00">samples = 51</text>
<text text-anchor="middle" x="573" y="-319.8" font-family="Times,serif" font-size="14.00">value = [35, 12, 4]</text>
<text text-anchor="middle" x="573" y="-304.8" font-family="Times,serif" font-size="14.00">class = 0.0</text>
</g>
<!-- 1&#45;&gt;2 -->
<g id="edge2" class="edge"><title>1&#45;&gt;2</title>
<path fill="none" stroke="black" d="M746.559,-400.884C718.775,-389.856 687.772,-377.551 659.743,-366.427"/>
<polygon fill="black" stroke="black" points="660.946,-363.139 650.36,-362.703 658.364,-369.645 660.946,-363.139"/>
</g>
<!-- 13 -->
<g id="node14" class="node"><title>13</title>
<polygon fill="#8139e5" fill-opacity="0.831373" stroke="black" points="939,-365 721,-365 721,-297 939,-297 939,-365"/>
<text text-anchor="middle" x="830" y="-349.8" font-family="Times,serif" font-size="14.00">speech_emotional_NRC &lt;= 26.9295</text>
<text text-anchor="middle" x="830" y="-334.8" font-family="Times,serif" font-size="14.00">samples = 7</text>
<text text-anchor="middle" x="830" y="-319.8" font-family="Times,serif" font-size="14.00">value = [0, 1, 6]</text>
<text text-anchor="middle" x="830" y="-304.8" font-family="Times,serif" font-size="14.00">class = 1.0</text>
</g>
<!-- 1&#45;&gt;13 -->
<g id="edge13" class="edge"><title>1&#45;&gt;13</title>
<path fill="none" stroke="black" d="M830,-400.884C830,-392.778 830,-383.982 830,-375.472"/>
<polygon fill="black" stroke="black" points="833.5,-375.299 830,-365.299 826.5,-375.299 833.5,-375.299"/>
</g>
<!-- 3 -->
<g id="node4" class="node"><title>3</title>
<polygon fill="#e58139" fill-opacity="0.729412" stroke="black" points="454,-261 308,-261 308,-193 454,-193 454,-261"/>
<text text-anchor="middle" x="381" y="-245.8" font-family="Times,serif" font-size="14.00">Anger_NRC &lt;= 1.4306</text>
<text text-anchor="middle" x="381" y="-230.8" font-family="Times,serif" font-size="14.00">samples = 45</text>
<text text-anchor="middle" x="381" y="-215.8" font-family="Times,serif" font-size="14.00">value = [35, 8, 2]</text>
<text text-anchor="middle" x="381" y="-200.8" font-family="Times,serif" font-size="14.00">class = 0.0</text>
</g>
<!-- 2&#45;&gt;3 -->
<g id="edge3" class="edge"><title>2&#45;&gt;3</title>
<path fill="none" stroke="black" d="M510.663,-296.884C492.041,-286.991 471.484,-276.07 452.333,-265.895"/>
<polygon fill="black" stroke="black" points="453.826,-262.725 443.352,-261.125 450.542,-268.907 453.826,-262.725"/>
</g>
<!-- 10 -->
<g id="node11" class="node"><title>10</title>
<polygon fill="#39e581" fill-opacity="0.498039" stroke="black" points="673.5,-261 472.5,-261 472.5,-193 673.5,-193 673.5,-261"/>
<text text-anchor="middle" x="573" y="-245.8" font-family="Times,serif" font-size="14.00">Surprise_NRC_speech &lt;= 0.3693</text>
<text text-anchor="middle" x="573" y="-230.8" font-family="Times,serif" font-size="14.00">samples = 6</text>
<text text-anchor="middle" x="573" y="-215.8" font-family="Times,serif" font-size="14.00">value = [0, 4, 2]</text>
<text text-anchor="middle" x="573" y="-200.8" font-family="Times,serif" font-size="14.00">class = 0.5</text>
</g>
<!-- 2&#45;&gt;10 -->
<g id="edge10" class="edge"><title>2&#45;&gt;10</title>
<path fill="none" stroke="black" d="M573,-296.884C573,-288.778 573,-279.982 573,-271.472"/>
<polygon fill="black" stroke="black" points="576.5,-271.299 573,-261.299 569.5,-271.299 576.5,-271.299"/>
</g>
<!-- 4 -->
<g id="node5" class="node"><title>4</title>
<polygon fill="none" stroke="black" points="249.5,-157 52.5,-157 52.5,-89 249.5,-89 249.5,-157"/>
<text text-anchor="middle" x="151" y="-141.8" font-family="Times,serif" font-size="14.00">Disgust_NRC_speech &lt;= 0.2589</text>
<text text-anchor="middle" x="151" y="-126.8" font-family="Times,serif" font-size="14.00">samples = 14</text>
<text text-anchor="middle" x="151" y="-111.8" font-family="Times,serif" font-size="14.00">value = [6, 6, 2]</text>
<text text-anchor="middle" x="151" y="-96.8" font-family="Times,serif" font-size="14.00">class = 0.0</text>
</g>
<!-- 3&#45;&gt;4 -->
<g id="edge4" class="edge"><title>3&#45;&gt;4</title>
<path fill="none" stroke="black" d="M307.911,-193.586C284.686,-183.287 258.819,-171.816 234.895,-161.206"/>
<polygon fill="black" stroke="black" points="236.041,-157.885 225.481,-157.031 233.203,-164.284 236.041,-157.885"/>
</g>
<!-- 7 -->
<g id="node8" class="node"><title>7</title>
<polygon fill="#e58139" fill-opacity="0.929412" stroke="black" points="498.5,-157 267.5,-157 267.5,-89 498.5,-89 498.5,-157"/>
<text text-anchor="middle" x="383" y="-141.8" font-family="Times,serif" font-size="14.00">Anticipation_NRC_narrated &lt;= 6.8204</text>
<text text-anchor="middle" x="383" y="-126.8" font-family="Times,serif" font-size="14.00">samples = 31</text>
<text text-anchor="middle" x="383" y="-111.8" font-family="Times,serif" font-size="14.00">value = [29, 2, 0]</text>
<text text-anchor="middle" x="383" y="-96.8" font-family="Times,serif" font-size="14.00">class = 0.0</text>
</g>
<!-- 3&#45;&gt;7 -->
<g id="edge7" class="edge"><title>3&#45;&gt;7</title>
<path fill="none" stroke="black" d="M381.649,-192.884C381.808,-184.778 381.981,-175.982 382.148,-167.472"/>
<polygon fill="black" stroke="black" points="385.65,-167.366 382.347,-157.299 378.652,-167.229 385.65,-167.366"/>
</g>
<!-- 5 -->
<g id="node6" class="node"><title>5</title>
<polygon fill="#e58139" fill-opacity="0.800000" stroke="black" points="106,-53 7.10543e-15,-53 7.10543e-15,-0 106,-0 106,-53"/>
<text text-anchor="middle" x="53" y="-37.8" font-family="Times,serif" font-size="14.00">samples = 6</text>
<text text-anchor="middle" x="53" y="-22.8" font-family="Times,serif" font-size="14.00">value = [5, 0, 1]</text>
<text text-anchor="middle" x="53" y="-7.8" font-family="Times,serif" font-size="14.00">class = 0.0</text>
</g>
<!-- 4&#45;&gt;5 -->
<g id="edge5" class="edge"><title>4&#45;&gt;5</title>
<path fill="none" stroke="black" d="M116.724,-88.9485C107.143,-79.709 96.7329,-69.671 87.158,-60.4381"/>
<polygon fill="black" stroke="black" points="89.3179,-57.6586 79.6899,-53.2367 84.4589,-62.6976 89.3179,-57.6586"/>
</g>
<!-- 6 -->
<g id="node7" class="node"><title>6</title>
<polygon fill="#39e581" fill-opacity="0.713725" stroke="black" points="230,-53 124,-53 124,-0 230,-0 230,-53"/>
<text text-anchor="middle" x="177" y="-37.8" font-family="Times,serif" font-size="14.00">samples = 8</text>
<text text-anchor="middle" x="177" y="-22.8" font-family="Times,serif" font-size="14.00">value = [1, 6, 1]</text>
<text text-anchor="middle" x="177" y="-7.8" font-family="Times,serif" font-size="14.00">class = 0.5</text>
</g>
<!-- 4&#45;&gt;6 -->
<g id="edge6" class="edge"><title>4&#45;&gt;6</title>
<path fill="none" stroke="black" d="M160.094,-88.9485C162.409,-80.5323 164.907,-71.4536 167.254,-62.9243"/>
<polygon fill="black" stroke="black" points="170.641,-63.8069 169.919,-53.2367 163.892,-61.9499 170.641,-63.8069"/>
</g>
<!-- 8 -->
<g id="node9" class="node"><title>8</title>
<polygon fill="#e58139" stroke="black" points="413.5,-53 300.5,-53 300.5,-0 413.5,-0 413.5,-53"/>
<text text-anchor="middle" x="357" y="-37.8" font-family="Times,serif" font-size="14.00">samples = 28</text>
<text text-anchor="middle" x="357" y="-22.8" font-family="Times,serif" font-size="14.00">value = [28, 0, 0]</text>
<text text-anchor="middle" x="357" y="-7.8" font-family="Times,serif" font-size="14.00">class = 0.0</text>
</g>
<!-- 7&#45;&gt;8 -->
<g id="edge8" class="edge"><title>7&#45;&gt;8</title>
<path fill="none" stroke="black" d="M373.906,-88.9485C371.591,-80.5323 369.093,-71.4536 366.746,-62.9243"/>
<polygon fill="black" stroke="black" points="370.108,-61.9499 364.081,-53.2367 363.359,-63.8069 370.108,-61.9499"/>
</g>
<!-- 9 -->
<g id="node10" class="node"><title>9</title>
<polygon fill="#39e581" fill-opacity="0.498039" stroke="black" points="538,-53 432,-53 432,-0 538,-0 538,-53"/>
<text text-anchor="middle" x="485" y="-37.8" font-family="Times,serif" font-size="14.00">samples = 3</text>
<text text-anchor="middle" x="485" y="-22.8" font-family="Times,serif" font-size="14.00">value = [1, 2, 0]</text>
<text text-anchor="middle" x="485" y="-7.8" font-family="Times,serif" font-size="14.00">class = 0.5</text>
</g>
<!-- 7&#45;&gt;9 -->
<g id="edge9" class="edge"><title>7&#45;&gt;9</title>
<path fill="none" stroke="black" d="M418.675,-88.9485C428.746,-79.6175 439.697,-69.4722 449.744,-60.1641"/>
<polygon fill="black" stroke="black" points="452.264,-62.6004 457.221,-53.2367 447.506,-57.4655 452.264,-62.6004"/>
</g>
<!-- 11 -->
<g id="node12" class="node"><title>11</title>
<polygon fill="#39e581" stroke="black" points="625,-149.5 519,-149.5 519,-96.5 625,-96.5 625,-149.5"/>
<text text-anchor="middle" x="572" y="-134.3" font-family="Times,serif" font-size="14.00">samples = 4</text>
<text text-anchor="middle" x="572" y="-119.3" font-family="Times,serif" font-size="14.00">value = [0, 4, 0]</text>
<text text-anchor="middle" x="572" y="-104.3" font-family="Times,serif" font-size="14.00">class = 0.5</text>
</g>
<!-- 10&#45;&gt;11 -->
<g id="edge11" class="edge"><title>10&#45;&gt;11</title>
<path fill="none" stroke="black" d="M572.675,-192.884C572.572,-182.326 572.457,-170.597 572.352,-159.854"/>
<polygon fill="black" stroke="black" points="575.848,-159.485 572.25,-149.52 568.848,-159.554 575.848,-159.485"/>
</g>
<!-- 12 -->
<g id="node13" class="node"><title>12</title>
<polygon fill="#8139e5" stroke="black" points="749,-149.5 643,-149.5 643,-96.5 749,-96.5 749,-149.5"/>
<text text-anchor="middle" x="696" y="-134.3" font-family="Times,serif" font-size="14.00">samples = 2</text>
<text text-anchor="middle" x="696" y="-119.3" font-family="Times,serif" font-size="14.00">value = [0, 0, 2]</text>
<text text-anchor="middle" x="696" y="-104.3" font-family="Times,serif" font-size="14.00">class = 1.0</text>
</g>
<!-- 10&#45;&gt;12 -->
<g id="edge12" class="edge"><title>10&#45;&gt;12</title>
<path fill="none" stroke="black" d="M612.935,-192.884C627.125,-181.116 643.069,-167.894 657.167,-156.203"/>
<polygon fill="black" stroke="black" points="659.763,-158.597 665.226,-149.52 655.294,-153.209 659.763,-158.597"/>
</g>
<!-- 14 -->
<g id="node15" class="node"><title>14</title>
<polygon fill="#39e581" stroke="black" points="798,-253.5 692,-253.5 692,-200.5 798,-200.5 798,-253.5"/>
<text text-anchor="middle" x="745" y="-238.3" font-family="Times,serif" font-size="14.00">samples = 1</text>
<text text-anchor="middle" x="745" y="-223.3" font-family="Times,serif" font-size="14.00">value = [0, 1, 0]</text>
<text text-anchor="middle" x="745" y="-208.3" font-family="Times,serif" font-size="14.00">class = 0.5</text>
</g>
<!-- 13&#45;&gt;14 -->
<g id="edge14" class="edge"><title>13&#45;&gt;14</title>
<path fill="none" stroke="black" d="M802.403,-296.884C792.963,-285.556 782.4,-272.88 772.934,-261.521"/>
<polygon fill="black" stroke="black" points="775.357,-258.962 766.267,-253.52 769.98,-263.443 775.357,-258.962"/>
</g>
<!-- 15 -->
<g id="node16" class="node"><title>15</title>
<polygon fill="#8139e5" stroke="black" points="922,-253.5 816,-253.5 816,-200.5 922,-200.5 922,-253.5"/>
<text text-anchor="middle" x="869" y="-238.3" font-family="Times,serif" font-size="14.00">samples = 6</text>
<text text-anchor="middle" x="869" y="-223.3" font-family="Times,serif" font-size="14.00">value = [0, 0, 6]</text>
<text text-anchor="middle" x="869" y="-208.3" font-family="Times,serif" font-size="14.00">class = 1.0</text>
</g>
<!-- 13&#45;&gt;15 -->
<g id="edge15" class="edge"><title>13&#45;&gt;15</title>
<path fill="none" stroke="black" d="M842.662,-296.884C846.783,-286.106 851.371,-274.108 855.547,-263.184"/>
<polygon fill="black" stroke="black" points="858.94,-264.11 859.242,-253.52 852.402,-261.61 858.94,-264.11"/>
</g>
<!-- 17 -->
<g id="node18" class="node"><title>17</title>
<polygon fill="#8139e5" fill-opacity="0.831373" stroke="black" points="1203.5,-365 972.5,-365 972.5,-297 1203.5,-297 1203.5,-365"/>
<text text-anchor="middle" x="1088" y="-349.8" font-family="Times,serif" font-size="14.00">Anticipation_NRC_narrated &lt;= 1.7246</text>
<text text-anchor="middle" x="1088" y="-334.8" font-family="Times,serif" font-size="14.00">samples = 13</text>
<text text-anchor="middle" x="1088" y="-319.8" font-family="Times,serif" font-size="14.00">value = [1, 1, 11]</text>
<text text-anchor="middle" x="1088" y="-304.8" font-family="Times,serif" font-size="14.00">class = 1.0</text>
</g>
<!-- 16&#45;&gt;17 -->
<g id="edge17" class="edge"><title>16&#45;&gt;17</title>
<path fill="none" stroke="black" d="M1088,-400.884C1088,-392.778 1088,-383.982 1088,-375.472"/>
<polygon fill="black" stroke="black" points="1091.5,-375.299 1088,-365.299 1084.5,-375.299 1091.5,-375.299"/>
</g>
<!-- 22 -->
<g id="node23" class="node"><title>22</title>
<polygon fill="#39e581" fill-opacity="0.721569" stroke="black" points="1522.5,-365 1297.5,-365 1297.5,-297 1522.5,-297 1522.5,-365"/>
<text text-anchor="middle" x="1410" y="-349.8" font-family="Times,serif" font-size="14.00">narrated_emotional_NRC &lt;= 54.8921</text>
<text text-anchor="middle" x="1410" y="-334.8" font-family="Times,serif" font-size="14.00">samples = 41</text>
<text text-anchor="middle" x="1410" y="-319.8" font-family="Times,serif" font-size="14.00">value = [5, 31, 5]</text>
<text text-anchor="middle" x="1410" y="-304.8" font-family="Times,serif" font-size="14.00">class = 0.5</text>
</g>
<!-- 16&#45;&gt;22 -->
<g id="edge22" class="edge"><title>16&#45;&gt;22</title>
<path fill="none" stroke="black" d="M1192.54,-400.884C1225.55,-390.427 1262.19,-378.822 1295.84,-368.164"/>
<polygon fill="black" stroke="black" points="1297.23,-371.394 1305.71,-365.038 1295.12,-364.721 1297.23,-371.394"/>
</g>
<!-- 18 -->
<g id="node19" class="node"><title>18</title>
<polygon fill="none" stroke="black" points="1160.5,-261 939.5,-261 939.5,-193 1160.5,-193 1160.5,-261"/>
<text text-anchor="middle" x="1050" y="-245.8" font-family="Times,serif" font-size="14.00">narrated_emotional_WN &lt;= 33.3261</text>
<text text-anchor="middle" x="1050" y="-230.8" font-family="Times,serif" font-size="14.00">samples = 2</text>
<text text-anchor="middle" x="1050" y="-215.8" font-family="Times,serif" font-size="14.00">value = [1, 1, 0]</text>
<text text-anchor="middle" x="1050" y="-200.8" font-family="Times,serif" font-size="14.00">class = 0.0</text>
</g>
<!-- 17&#45;&gt;18 -->
<g id="edge18" class="edge"><title>17&#45;&gt;18</title>
<path fill="none" stroke="black" d="M1075.66,-296.884C1072.58,-288.6 1069.22,-279.595 1065.99,-270.911"/>
<polygon fill="black" stroke="black" points="1069.18,-269.448 1062.41,-261.299 1062.62,-271.892 1069.18,-269.448"/>
</g>
<!-- 21 -->
<g id="node22" class="node"><title>21</title>
<polygon fill="#8139e5" stroke="black" points="1291.5,-253.5 1178.5,-253.5 1178.5,-200.5 1291.5,-200.5 1291.5,-253.5"/>
<text text-anchor="middle" x="1235" y="-238.3" font-family="Times,serif" font-size="14.00">samples = 11</text>
<text text-anchor="middle" x="1235" y="-223.3" font-family="Times,serif" font-size="14.00">value = [0, 0, 11]</text>
<text text-anchor="middle" x="1235" y="-208.3" font-family="Times,serif" font-size="14.00">class = 1.0</text>
</g>
<!-- 17&#45;&gt;21 -->
<g id="edge21" class="edge"><title>17&#45;&gt;21</title>
<path fill="none" stroke="black" d="M1135.73,-296.884C1153.16,-284.786 1172.81,-271.151 1190,-259.224"/>
<polygon fill="black" stroke="black" points="1192,-262.096 1198.22,-253.52 1188.01,-256.345 1192,-262.096"/>
</g>
<!-- 19 -->
<g id="node20" class="node"><title>19</title>
<polygon fill="#e58139" stroke="black" points="1029,-149.5 923,-149.5 923,-96.5 1029,-96.5 1029,-149.5"/>
<text text-anchor="middle" x="976" y="-134.3" font-family="Times,serif" font-size="14.00">samples = 1</text>
<text text-anchor="middle" x="976" y="-119.3" font-family="Times,serif" font-size="14.00">value = [1, 0, 0]</text>
<text text-anchor="middle" x="976" y="-104.3" font-family="Times,serif" font-size="14.00">class = 0.0</text>
</g>
<!-- 18&#45;&gt;19 -->
<g id="edge19" class="edge"><title>18&#45;&gt;19</title>
<path fill="none" stroke="black" d="M1025.97,-192.884C1017.84,-181.666 1008.74,-169.126 1000.56,-157.852"/>
<polygon fill="black" stroke="black" points="1003.22,-155.559 994.514,-149.52 997.554,-159.669 1003.22,-155.559"/>
</g>
<!-- 20 -->
<g id="node21" class="node"><title>20</title>
<polygon fill="#39e581" stroke="black" points="1153,-149.5 1047,-149.5 1047,-96.5 1153,-96.5 1153,-149.5"/>
<text text-anchor="middle" x="1100" y="-134.3" font-family="Times,serif" font-size="14.00">samples = 1</text>
<text text-anchor="middle" x="1100" y="-119.3" font-family="Times,serif" font-size="14.00">value = [0, 1, 0]</text>
<text text-anchor="middle" x="1100" y="-104.3" font-family="Times,serif" font-size="14.00">class = 0.5</text>
</g>
<!-- 18&#45;&gt;20 -->
<g id="edge20" class="edge"><title>18&#45;&gt;20</title>
<path fill="none" stroke="black" d="M1066.23,-192.884C1071.62,-181.886 1077.64,-169.617 1083.08,-158.517"/>
<polygon fill="black" stroke="black" points="1086.23,-160.04 1087.49,-149.52 1079.95,-156.959 1086.23,-160.04"/>
</g>
<!-- 23 -->
<g id="node24" class="node"><title>23</title>
<polygon fill="#39e581" fill-opacity="0.956863" stroke="black" points="1510,-261 1310,-261 1310,-193 1510,-193 1510,-261"/>
<text text-anchor="middle" x="1410" y="-245.8" font-family="Times,serif" font-size="14.00">speech_neutral_NRC &lt;= 28.5037</text>
<text text-anchor="middle" x="1410" y="-230.8" font-family="Times,serif" font-size="14.00">samples = 24</text>
<text text-anchor="middle" x="1410" y="-215.8" font-family="Times,serif" font-size="14.00">value = [1, 23, 0]</text>
<text text-anchor="middle" x="1410" y="-200.8" font-family="Times,serif" font-size="14.00">class = 0.5</text>
</g>
<!-- 22&#45;&gt;23 -->
<g id="edge23" class="edge"><title>22&#45;&gt;23</title>
<path fill="none" stroke="black" d="M1410,-296.884C1410,-288.778 1410,-279.982 1410,-271.472"/>
<polygon fill="black" stroke="black" points="1413.5,-271.299 1410,-261.299 1406.5,-271.299 1413.5,-271.299"/>
</g>
<!-- 26 -->
<g id="node27" class="node"><title>26</title>
<polygon fill="#39e581" fill-opacity="0.250980" stroke="black" points="1665.5,-261 1528.5,-261 1528.5,-193 1665.5,-193 1665.5,-261"/>
<text text-anchor="middle" x="1597" y="-245.8" font-family="Times,serif" font-size="14.00">Fear_NRC &lt;= 5.6652</text>
<text text-anchor="middle" x="1597" y="-230.8" font-family="Times,serif" font-size="14.00">samples = 17</text>
<text text-anchor="middle" x="1597" y="-215.8" font-family="Times,serif" font-size="14.00">value = [4, 8, 5]</text>
<text text-anchor="middle" x="1597" y="-200.8" font-family="Times,serif" font-size="14.00">class = 0.5</text>
</g>
<!-- 22&#45;&gt;26 -->
<g id="edge26" class="edge"><title>22&#45;&gt;26</title>
<path fill="none" stroke="black" d="M1470.71,-296.884C1488.77,-287.035 1508.69,-276.169 1527.27,-266.034"/>
<polygon fill="black" stroke="black" points="1529.17,-268.986 1536.27,-261.125 1525.82,-262.841 1529.17,-268.986"/>
</g>
<!-- 24 -->
<g id="node25" class="node"><title>24</title>
<polygon fill="#39e581" stroke="black" points="1341.5,-149.5 1228.5,-149.5 1228.5,-96.5 1341.5,-96.5 1341.5,-149.5"/>
<text text-anchor="middle" x="1285" y="-134.3" font-family="Times,serif" font-size="14.00">samples = 23</text>
<text text-anchor="middle" x="1285" y="-119.3" font-family="Times,serif" font-size="14.00">value = [0, 23, 0]</text>
<text text-anchor="middle" x="1285" y="-104.3" font-family="Times,serif" font-size="14.00">class = 0.5</text>
</g>
<!-- 23&#45;&gt;24 -->
<g id="edge24" class="edge"><title>23&#45;&gt;24</title>
<path fill="none" stroke="black" d="M1369.42,-192.884C1354.86,-181.006 1338.49,-167.646 1324.06,-155.876"/>
<polygon fill="black" stroke="black" points="1326.24,-153.13 1316.27,-149.52 1321.81,-158.554 1326.24,-153.13"/>
</g>
<!-- 25 -->
<g id="node26" class="node"><title>25</title>
<polygon fill="#e58139" stroke="black" points="1466,-149.5 1360,-149.5 1360,-96.5 1466,-96.5 1466,-149.5"/>
<text text-anchor="middle" x="1413" y="-134.3" font-family="Times,serif" font-size="14.00">samples = 1</text>
<text text-anchor="middle" x="1413" y="-119.3" font-family="Times,serif" font-size="14.00">value = [1, 0, 0]</text>
<text text-anchor="middle" x="1413" y="-104.3" font-family="Times,serif" font-size="14.00">class = 0.0</text>
</g>
<!-- 23&#45;&gt;25 -->
<g id="edge25" class="edge"><title>23&#45;&gt;25</title>
<path fill="none" stroke="black" d="M1410.97,-192.884C1411.29,-182.216 1411.64,-170.352 1411.96,-159.519"/>
<polygon fill="black" stroke="black" points="1415.45,-159.619 1412.25,-149.52 1408.46,-159.413 1415.45,-159.619"/>
</g>
<!-- 27 -->
<g id="node28" class="node"><title>27</title>
<polygon fill="#39e581" fill-opacity="0.858824" stroke="black" points="1698.5,-157 1489.5,-157 1489.5,-89 1698.5,-89 1698.5,-157"/>
<text text-anchor="middle" x="1594" y="-141.8" font-family="Times,serif" font-size="14.00">Surprise_NRC_narrated &lt;= 2.6978</text>
<text text-anchor="middle" x="1594" y="-126.8" font-family="Times,serif" font-size="14.00">samples = 8</text>
<text text-anchor="middle" x="1594" y="-111.8" font-family="Times,serif" font-size="14.00">value = [0, 7, 1]</text>
<text text-anchor="middle" x="1594" y="-96.8" font-family="Times,serif" font-size="14.00">class = 0.5</text>
</g>
<!-- 26&#45;&gt;27 -->
<g id="edge27" class="edge"><title>26&#45;&gt;27</title>
<path fill="none" stroke="black" d="M1596.03,-192.884C1595.79,-184.778 1595.53,-175.982 1595.28,-167.472"/>
<polygon fill="black" stroke="black" points="1598.77,-167.192 1594.98,-157.299 1591.77,-167.398 1598.77,-167.192"/>
</g>
<!-- 30 -->
<g id="node31" class="node"><title>30</title>
<polygon fill="none" stroke="black" points="1921.5,-157 1716.5,-157 1716.5,-89 1921.5,-89 1921.5,-157"/>
<text text-anchor="middle" x="1819" y="-141.8" font-family="Times,serif" font-size="14.00">Disgust_NRC_narrated &lt;= 0.4471</text>
<text text-anchor="middle" x="1819" y="-126.8" font-family="Times,serif" font-size="14.00">samples = 9</text>
<text text-anchor="middle" x="1819" y="-111.8" font-family="Times,serif" font-size="14.00">value = [4, 1, 4]</text>
<text text-anchor="middle" x="1819" y="-96.8" font-family="Times,serif" font-size="14.00">class = 0.0</text>
</g>
<!-- 26&#45;&gt;30 -->
<g id="edge30" class="edge"><title>26&#45;&gt;30</title>
<path fill="none" stroke="black" d="M1665.72,-194.425C1688.54,-183.94 1714.17,-172.166 1737.84,-161.291"/>
<polygon fill="black" stroke="black" points="1739.52,-164.369 1747.15,-157.013 1736.6,-158.008 1739.52,-164.369"/>
</g>
<!-- 28 -->
<g id="node29" class="node"><title>28</title>
<polygon fill="#39e581" stroke="black" points="1548,-53 1442,-53 1442,-0 1548,-0 1548,-53"/>
<text text-anchor="middle" x="1495" y="-37.8" font-family="Times,serif" font-size="14.00">samples = 7</text>
<text text-anchor="middle" x="1495" y="-22.8" font-family="Times,serif" font-size="14.00">value = [0, 7, 0]</text>
<text text-anchor="middle" x="1495" y="-7.8" font-family="Times,serif" font-size="14.00">class = 0.5</text>
</g>
<!-- 27&#45;&gt;28 -->
<g id="edge28" class="edge"><title>27&#45;&gt;28</title>
<path fill="none" stroke="black" d="M1559.37,-88.9485C1549.6,-79.6175 1538.97,-69.4722 1529.22,-60.1641"/>
<polygon fill="black" stroke="black" points="1531.61,-57.6097 1521.96,-53.2367 1526.78,-62.6732 1531.61,-57.6097"/>
</g>
<!-- 29 -->
<g id="node30" class="node"><title>29</title>
<polygon fill="#8139e5" stroke="black" points="1672,-53 1566,-53 1566,-0 1672,-0 1672,-53"/>
<text text-anchor="middle" x="1619" y="-37.8" font-family="Times,serif" font-size="14.00">samples = 1</text>
<text text-anchor="middle" x="1619" y="-22.8" font-family="Times,serif" font-size="14.00">value = [0, 0, 1]</text>
<text text-anchor="middle" x="1619" y="-7.8" font-family="Times,serif" font-size="14.00">class = 1.0</text>
</g>
<!-- 27&#45;&gt;29 -->
<g id="edge29" class="edge"><title>27&#45;&gt;29</title>
<path fill="none" stroke="black" d="M1602.74,-88.9485C1604.97,-80.5323 1607.37,-71.4536 1609.63,-62.9243"/>
<polygon fill="black" stroke="black" points="1613.02,-63.7993 1612.19,-53.2367 1606.25,-62.009 1613.02,-63.7993"/>
</g>
<!-- 31 -->
<g id="node32" class="node"><title>31</title>
<polygon fill="#8139e5" stroke="black" points="1846,-53 1740,-53 1740,-0 1846,-0 1846,-53"/>
<text text-anchor="middle" x="1793" y="-37.8" font-family="Times,serif" font-size="14.00">samples = 3</text>
<text text-anchor="middle" x="1793" y="-22.8" font-family="Times,serif" font-size="14.00">value = [0, 0, 3]</text>
<text text-anchor="middle" x="1793" y="-7.8" font-family="Times,serif" font-size="14.00">class = 1.0</text>
</g>
<!-- 30&#45;&gt;31 -->
<g id="edge31" class="edge"><title>30&#45;&gt;31</title>
<path fill="none" stroke="black" d="M1809.91,-88.9485C1807.59,-80.5323 1805.09,-71.4536 1802.75,-62.9243"/>
<polygon fill="black" stroke="black" points="1806.11,-61.9499 1800.08,-53.2367 1799.36,-63.8069 1806.11,-61.9499"/>
</g>
<!-- 32 -->
<g id="node33" class="node"><title>32</title>
<polygon fill="#e58139" fill-opacity="0.600000" stroke="black" points="1970,-53 1864,-53 1864,-0 1970,-0 1970,-53"/>
<text text-anchor="middle" x="1917" y="-37.8" font-family="Times,serif" font-size="14.00">samples = 6</text>
<text text-anchor="middle" x="1917" y="-22.8" font-family="Times,serif" font-size="14.00">value = [4, 1, 1]</text>
<text text-anchor="middle" x="1917" y="-7.8" font-family="Times,serif" font-size="14.00">class = 0.0</text>
</g>
<!-- 30&#45;&gt;32 -->
<g id="edge32" class="edge"><title>30&#45;&gt;32</title>
<path fill="none" stroke="black" d="M1853.28,-88.9485C1862.86,-79.709 1873.27,-69.671 1882.84,-60.4381"/>
<polygon fill="black" stroke="black" points="1885.54,-62.6976 1890.31,-53.2367 1880.68,-57.6586 1885.54,-62.6976"/>
</g>
</g>
</svg>
