<?xml version="1.0" encoding="UTF-8" standalone="no"?>
<!DOCTYPE svg PUBLIC "-//W3C//DTD SVG 1.1//EN"
 "http://www.w3.org/Graphics/SVG/1.1/DTD/svg11.dtd">
<!-- Generated by graphviz version 2.38.0 (20140413.2041)
 -->
<!-- Title: Tree Pages: 1 -->
<svg width="1690pt" height="581pt"
 viewBox="0.00 0.00 1689.50 581.00" xmlns="http://www.w3.org/2000/svg" xmlns:xlink="http://www.w3.org/1999/xlink">
<g id="graph0" class="graph" transform="scale(1 1) rotate(0) translate(4 577)">
<title>Tree</title>
<polygon fill="white" stroke="none" points="-4,4 -4,-577 1685.5,-577 1685.5,4 -4,4"/>
<!-- 0 -->
<g id="node1" class="node"><title>0</title>
<polygon fill="#399de5" fill-opacity="0.047059" stroke="black" points="1095.5,-573 877.5,-573 877.5,-505 1095.5,-505 1095.5,-573"/>
<text text-anchor="middle" x="986.5" y="-557.8" font-family="Times,serif" font-size="14.00">speech_emotional_NRC &lt;= 16.5845</text>
<text text-anchor="middle" x="986.5" y="-542.8" font-family="Times,serif" font-size="14.00">samples = 112</text>
<text text-anchor="middle" x="986.5" y="-527.8" font-family="Times,serif" font-size="14.00">value = [22, 30, 34, 26]</text>
<text text-anchor="middle" x="986.5" y="-512.8" font-family="Times,serif" font-size="14.00">class = sentimental</text>
</g>
<!-- 1 -->
<g id="node2" class="node"><title>1</title>
<polygon fill="#d739e5" fill-opacity="0.066667" stroke="black" points="948.5,-469 774.5,-469 774.5,-401 948.5,-401 948.5,-469"/>
<text text-anchor="middle" x="861.5" y="-453.8" font-family="Times,serif" font-size="14.00">emotional_NRC &lt;= 58.7417</text>
<text text-anchor="middle" x="861.5" y="-438.8" font-family="Times,serif" font-size="14.00">samples = 63</text>
<text text-anchor="middle" x="861.5" y="-423.8" font-family="Times,serif" font-size="14.00">value = [18, 19, 4, 22]</text>
<text text-anchor="middle" x="861.5" y="-408.8" font-family="Times,serif" font-size="14.00">class = sociopolitical</text>
</g>
<!-- 0&#45;&gt;1 -->
<g id="edge1" class="edge"><title>0&#45;&gt;1</title>
<path fill="none" stroke="black" d="M945.916,-504.884C934.564,-495.62 922.106,-485.455 910.33,-475.845"/>
<polygon fill="black" stroke="black" points="912.269,-472.91 902.308,-469.299 907.843,-478.333 912.269,-472.91"/>
<text text-anchor="middle" x="904.828" y="-490.472" font-family="Times,serif" font-size="14.00">True</text>
</g>
<!-- 16 -->
<g id="node17" class="node"><title>16</title>
<polygon fill="#399de5" fill-opacity="0.501961" stroke="black" points="1179.5,-469 1045.5,-469 1045.5,-401 1179.5,-401 1179.5,-469"/>
<text text-anchor="middle" x="1112.5" y="-453.8" font-family="Times,serif" font-size="14.00">speech &lt;= 34.3885</text>
<text text-anchor="middle" x="1112.5" y="-438.8" font-family="Times,serif" font-size="14.00">samples = 49</text>
<text text-anchor="middle" x="1112.5" y="-423.8" font-family="Times,serif" font-size="14.00">value = [4, 11, 30, 4]</text>
<text text-anchor="middle" x="1112.5" y="-408.8" font-family="Times,serif" font-size="14.00">class = sentimental</text>
</g>
<!-- 0&#45;&gt;16 -->
<g id="edge16" class="edge"><title>0&#45;&gt;16</title>
<path fill="none" stroke="black" d="M1027.41,-504.884C1038.85,-495.62 1051.41,-485.455 1063.28,-475.845"/>
<polygon fill="black" stroke="black" points="1065.8,-478.312 1071.37,-469.299 1061.39,-472.871 1065.8,-478.312"/>
<text text-anchor="middle" x="1068.75" y="-490.462" font-family="Times,serif" font-size="14.00">False</text>
</g>
<!-- 2 -->
<g id="node3" class="node"><title>2</title>
<polygon fill="#d739e5" fill-opacity="0.121569" stroke="black" points="687,-365 530,-365 530,-297 687,-297 687,-365"/>
<text text-anchor="middle" x="608.5" y="-349.8" font-family="Times,serif" font-size="14.00">neutral_NRC &lt;= 62.8496</text>
<text text-anchor="middle" x="608.5" y="-334.8" font-family="Times,serif" font-size="14.00">samples = 51</text>
<text text-anchor="middle" x="608.5" y="-319.8" font-family="Times,serif" font-size="14.00">value = [18, 9, 2, 22]</text>
<text text-anchor="middle" x="608.5" y="-304.8" font-family="Times,serif" font-size="14.00">class = sociopolitical</text>
</g>
<!-- 1&#45;&gt;2 -->
<g id="edge2" class="edge"><title>1&#45;&gt;2</title>
<path fill="none" stroke="black" d="M779.358,-400.884C752.899,-390.216 723.476,-378.354 696.605,-367.521"/>
<polygon fill="black" stroke="black" points="697.8,-364.229 687.217,-363.736 695.183,-370.721 697.8,-364.229"/>
</g>
<!-- 13 -->
<g id="node14" class="node"><title>13</title>
<polygon fill="#47e539" fill-opacity="0.800000" stroke="black" points="965.5,-365 757.5,-365 757.5,-297 965.5,-297 965.5,-365"/>
<text text-anchor="middle" x="861.5" y="-349.8" font-family="Times,serif" font-size="14.00">narrated_neutral_NRC &lt;= 18.9371</text>
<text text-anchor="middle" x="861.5" y="-334.8" font-family="Times,serif" font-size="14.00">samples = 12</text>
<text text-anchor="middle" x="861.5" y="-319.8" font-family="Times,serif" font-size="14.00">value = [0, 10, 2, 0]</text>
<text text-anchor="middle" x="861.5" y="-304.8" font-family="Times,serif" font-size="14.00">class = historical</text>
</g>
<!-- 1&#45;&gt;13 -->
<g id="edge13" class="edge"><title>1&#45;&gt;13</title>
<path fill="none" stroke="black" d="M861.5,-400.884C861.5,-392.778 861.5,-383.982 861.5,-375.472"/>
<polygon fill="black" stroke="black" points="865,-375.299 861.5,-365.299 858,-375.299 865,-375.299"/>
</g>
<!-- 3 -->
<g id="node4" class="node"><title>3</title>
<polygon fill="#d739e5" fill-opacity="0.388235" stroke="black" points="481.5,-261 273.5,-261 273.5,-193 481.5,-193 481.5,-261"/>
<text text-anchor="middle" x="377.5" y="-245.8" font-family="Times,serif" font-size="14.00">narrated_neutral_NRC &lt;= 27.9151</text>
<text text-anchor="middle" x="377.5" y="-230.8" font-family="Times,serif" font-size="14.00">samples = 40</text>
<text text-anchor="middle" x="377.5" y="-215.8" font-family="Times,serif" font-size="14.00">value = [8, 9, 2, 21]</text>
<text text-anchor="middle" x="377.5" y="-200.8" font-family="Times,serif" font-size="14.00">class = sociopolitical</text>
</g>
<!-- 2&#45;&gt;3 -->
<g id="edge3" class="edge"><title>2&#45;&gt;3</title>
<path fill="none" stroke="black" d="M533.501,-296.884C510.59,-286.767 485.244,-275.575 461.761,-265.206"/>
<polygon fill="black" stroke="black" points="463.079,-261.962 452.518,-261.125 460.252,-268.366 463.079,-261.962"/>
</g>
<!-- 10 -->
<g id="node11" class="node"><title>10</title>
<polygon fill="#e58139" fill-opacity="0.901961" stroke="black" points="717.5,-261 499.5,-261 499.5,-193 717.5,-193 717.5,-261"/>
<text text-anchor="middle" x="608.5" y="-245.8" font-family="Times,serif" font-size="14.00">speech_emotional_NRC &lt;= 15.1323</text>
<text text-anchor="middle" x="608.5" y="-230.8" font-family="Times,serif" font-size="14.00">samples = 11</text>
<text text-anchor="middle" x="608.5" y="-215.8" font-family="Times,serif" font-size="14.00">value = [10, 0, 0, 1]</text>
<text text-anchor="middle" x="608.5" y="-200.8" font-family="Times,serif" font-size="14.00">class = costumbrista</text>
</g>
<!-- 2&#45;&gt;10 -->
<g id="edge10" class="edge"><title>2&#45;&gt;10</title>
<path fill="none" stroke="black" d="M608.5,-296.884C608.5,-288.778 608.5,-279.982 608.5,-271.472"/>
<polygon fill="black" stroke="black" points="612,-271.299 608.5,-261.299 605,-271.299 612,-271.299"/>
</g>
<!-- 4 -->
<g id="node5" class="node"><title>4</title>
<polygon fill="#47e539" fill-opacity="0.062745" stroke="black" points="302.5,-157 84.5,-157 84.5,-89 302.5,-89 302.5,-157"/>
<text text-anchor="middle" x="193.5" y="-141.8" font-family="Times,serif" font-size="14.00">speech_emotional_NRC &lt;= 15.1436</text>
<text text-anchor="middle" x="193.5" y="-126.8" font-family="Times,serif" font-size="14.00">samples = 24</text>
<text text-anchor="middle" x="193.5" y="-111.8" font-family="Times,serif" font-size="14.00">value = [6, 9, 1, 8]</text>
<text text-anchor="middle" x="193.5" y="-96.8" font-family="Times,serif" font-size="14.00">class = historical</text>
</g>
<!-- 3&#45;&gt;4 -->
<g id="edge4" class="edge"><title>3&#45;&gt;4</title>
<path fill="none" stroke="black" d="M317.76,-192.884C299.995,-183.035 280.393,-172.169 262.11,-162.034"/>
<polygon fill="black" stroke="black" points="263.697,-158.912 253.254,-157.125 260.304,-165.034 263.697,-158.912"/>
</g>
<!-- 7 -->
<g id="node8" class="node"><title>7</title>
<polygon fill="#d739e5" fill-opacity="0.784314" stroke="black" points="472.5,-157 320.5,-157 320.5,-89 472.5,-89 472.5,-157"/>
<text text-anchor="middle" x="396.5" y="-141.8" font-family="Times,serif" font-size="14.00">negative_NRC &lt;= 5.977</text>
<text text-anchor="middle" x="396.5" y="-126.8" font-family="Times,serif" font-size="14.00">samples = 16</text>
<text text-anchor="middle" x="396.5" y="-111.8" font-family="Times,serif" font-size="14.00">value = [2, 0, 1, 13]</text>
<text text-anchor="middle" x="396.5" y="-96.8" font-family="Times,serif" font-size="14.00">class = sociopolitical</text>
</g>
<!-- 3&#45;&gt;7 -->
<g id="edge7" class="edge"><title>3&#45;&gt;7</title>
<path fill="none" stroke="black" d="M383.669,-192.884C385.195,-184.689 386.853,-175.789 388.454,-167.192"/>
<polygon fill="black" stroke="black" points="391.907,-167.771 390.297,-157.299 385.025,-166.489 391.907,-167.771"/>
</g>
<!-- 5 -->
<g id="node6" class="node"><title>5</title>
<polygon fill="#d739e5" fill-opacity="0.133333" stroke="black" points="131,-53 0,-53 0,-0 131,-0 131,-53"/>
<text text-anchor="middle" x="65.5" y="-37.8" font-family="Times,serif" font-size="14.00">samples = 21</text>
<text text-anchor="middle" x="65.5" y="-22.8" font-family="Times,serif" font-size="14.00">value = [6, 6, 1, 8]</text>
<text text-anchor="middle" x="65.5" y="-7.8" font-family="Times,serif" font-size="14.00">class = sociopolitical</text>
</g>
<!-- 4&#45;&gt;5 -->
<g id="edge5" class="edge"><title>4&#45;&gt;5</title>
<path fill="none" stroke="black" d="M148.732,-88.9485C135.721,-79.3431 121.542,-68.8747 108.634,-59.345"/>
<polygon fill="black" stroke="black" points="110.484,-56.3605 100.36,-53.2367 106.327,-61.992 110.484,-56.3605"/>
</g>
<!-- 6 -->
<g id="node7" class="node"><title>6</title>
<polygon fill="#47e539" stroke="black" points="269.5,-53 149.5,-53 149.5,-0 269.5,-0 269.5,-53"/>
<text text-anchor="middle" x="209.5" y="-37.8" font-family="Times,serif" font-size="14.00">samples = 3</text>
<text text-anchor="middle" x="209.5" y="-22.8" font-family="Times,serif" font-size="14.00">value = [0, 3, 0, 0]</text>
<text text-anchor="middle" x="209.5" y="-7.8" font-family="Times,serif" font-size="14.00">class = historical</text>
</g>
<!-- 4&#45;&gt;6 -->
<g id="edge6" class="edge"><title>4&#45;&gt;6</title>
<path fill="none" stroke="black" d="M199.096,-88.9485C200.505,-80.6238 202.025,-71.6509 203.455,-63.2027"/>
<polygon fill="black" stroke="black" points="206.924,-63.6807 205.142,-53.2367 200.022,-62.5121 206.924,-63.6807"/>
</g>
<!-- 8 -->
<g id="node9" class="node"><title>8</title>
<polygon fill="none" stroke="black" points="445.5,-53 317.5,-53 317.5,-0 445.5,-0 445.5,-53"/>
<text text-anchor="middle" x="381.5" y="-37.8" font-family="Times,serif" font-size="14.00">samples = 2</text>
<text text-anchor="middle" x="381.5" y="-22.8" font-family="Times,serif" font-size="14.00">value = [1, 0, 1, 0]</text>
<text text-anchor="middle" x="381.5" y="-7.8" font-family="Times,serif" font-size="14.00">class = costumbrista</text>
</g>
<!-- 7&#45;&gt;8 -->
<g id="edge8" class="edge"><title>7&#45;&gt;8</title>
<path fill="none" stroke="black" d="M391.254,-88.9485C389.932,-80.6238 388.508,-71.6509 387.167,-63.2027"/>
<polygon fill="black" stroke="black" points="390.61,-62.5643 385.585,-53.2367 383.696,-63.6618 390.61,-62.5643"/>
</g>
<!-- 9 -->
<g id="node10" class="node"><title>9</title>
<polygon fill="#d739e5" fill-opacity="0.921569" stroke="black" points="595,-53 464,-53 464,-0 595,-0 595,-53"/>
<text text-anchor="middle" x="529.5" y="-37.8" font-family="Times,serif" font-size="14.00">samples = 14</text>
<text text-anchor="middle" x="529.5" y="-22.8" font-family="Times,serif" font-size="14.00">value = [1, 0, 0, 13]</text>
<text text-anchor="middle" x="529.5" y="-7.8" font-family="Times,serif" font-size="14.00">class = sociopolitical</text>
</g>
<!-- 7&#45;&gt;9 -->
<g id="edge9" class="edge"><title>7&#45;&gt;9</title>
<path fill="none" stroke="black" d="M443.017,-88.9485C456.664,-79.2516 471.55,-68.6752 485.064,-59.073"/>
<polygon fill="black" stroke="black" points="487.153,-61.882 493.278,-53.2367 483.099,-56.1757 487.153,-61.882"/>
</g>
<!-- 11 -->
<g id="node12" class="node"><title>11</title>
<polygon fill="#e58139" stroke="black" points="654.5,-149.5 526.5,-149.5 526.5,-96.5 654.5,-96.5 654.5,-149.5"/>
<text text-anchor="middle" x="590.5" y="-134.3" font-family="Times,serif" font-size="14.00">samples = 10</text>
<text text-anchor="middle" x="590.5" y="-119.3" font-family="Times,serif" font-size="14.00">value = [10, 0, 0, 0]</text>
<text text-anchor="middle" x="590.5" y="-104.3" font-family="Times,serif" font-size="14.00">class = costumbrista</text>
</g>
<!-- 10&#45;&gt;11 -->
<g id="edge11" class="edge"><title>10&#45;&gt;11</title>
<path fill="none" stroke="black" d="M602.656,-192.884C600.773,-182.216 598.68,-170.352 596.768,-159.519"/>
<polygon fill="black" stroke="black" points="600.188,-158.759 595.004,-149.52 593.295,-159.976 600.188,-158.759"/>
</g>
<!-- 12 -->
<g id="node13" class="node"><title>12</title>
<polygon fill="#d739e5" stroke="black" points="804,-149.5 673,-149.5 673,-96.5 804,-96.5 804,-149.5"/>
<text text-anchor="middle" x="738.5" y="-134.3" font-family="Times,serif" font-size="14.00">samples = 1</text>
<text text-anchor="middle" x="738.5" y="-119.3" font-family="Times,serif" font-size="14.00">value = [0, 0, 0, 1]</text>
<text text-anchor="middle" x="738.5" y="-104.3" font-family="Times,serif" font-size="14.00">class = sociopolitical</text>
</g>
<!-- 10&#45;&gt;12 -->
<g id="edge12" class="edge"><title>10&#45;&gt;12</title>
<path fill="none" stroke="black" d="M650.707,-192.884C665.846,-181.006 682.872,-167.646 697.874,-155.876"/>
<polygon fill="black" stroke="black" points="700.268,-158.446 705.975,-149.52 695.947,-152.939 700.268,-158.446"/>
</g>
<!-- 14 -->
<g id="node15" class="node"><title>14</title>
<polygon fill="#399de5" stroke="black" points="857.5,-253.5 735.5,-253.5 735.5,-200.5 857.5,-200.5 857.5,-253.5"/>
<text text-anchor="middle" x="796.5" y="-238.3" font-family="Times,serif" font-size="14.00">samples = 2</text>
<text text-anchor="middle" x="796.5" y="-223.3" font-family="Times,serif" font-size="14.00">value = [0, 0, 2, 0]</text>
<text text-anchor="middle" x="796.5" y="-208.3" font-family="Times,serif" font-size="14.00">class = sentimental</text>
</g>
<!-- 13&#45;&gt;14 -->
<g id="edge14" class="edge"><title>13&#45;&gt;14</title>
<path fill="none" stroke="black" d="M840.396,-296.884C833.318,-285.776 825.413,-273.372 818.284,-262.184"/>
<polygon fill="black" stroke="black" points="821.088,-260.072 812.763,-253.52 815.185,-263.834 821.088,-260.072"/>
</g>
<!-- 15 -->
<g id="node16" class="node"><title>15</title>
<polygon fill="#47e539" stroke="black" points="1003,-253.5 876,-253.5 876,-200.5 1003,-200.5 1003,-253.5"/>
<text text-anchor="middle" x="939.5" y="-238.3" font-family="Times,serif" font-size="14.00">samples = 10</text>
<text text-anchor="middle" x="939.5" y="-223.3" font-family="Times,serif" font-size="14.00">value = [0, 10, 0, 0]</text>
<text text-anchor="middle" x="939.5" y="-208.3" font-family="Times,serif" font-size="14.00">class = historical</text>
</g>
<!-- 13&#45;&gt;15 -->
<g id="edge15" class="edge"><title>13&#45;&gt;15</title>
<path fill="none" stroke="black" d="M886.824,-296.884C895.487,-285.556 905.18,-272.88 913.867,-261.521"/>
<polygon fill="black" stroke="black" points="916.69,-263.59 919.985,-253.52 911.13,-259.337 916.69,-263.59"/>
</g>
<!-- 17 -->
<g id="node18" class="node"><title>17</title>
<polygon fill="#47e539" fill-opacity="0.831373" stroke="black" points="1221.5,-365 1003.5,-365 1003.5,-297 1221.5,-297 1221.5,-365"/>
<text text-anchor="middle" x="1112.5" y="-349.8" font-family="Times,serif" font-size="14.00">speech_emotional_NRC &lt;= 22.5564</text>
<text text-anchor="middle" x="1112.5" y="-334.8" font-family="Times,serif" font-size="14.00">samples = 7</text>
<text text-anchor="middle" x="1112.5" y="-319.8" font-family="Times,serif" font-size="14.00">value = [1, 6, 0, 0]</text>
<text text-anchor="middle" x="1112.5" y="-304.8" font-family="Times,serif" font-size="14.00">class = historical</text>
</g>
<!-- 16&#45;&gt;17 -->
<g id="edge17" class="edge"><title>16&#45;&gt;17</title>
<path fill="none" stroke="black" d="M1112.5,-400.884C1112.5,-392.778 1112.5,-383.982 1112.5,-375.472"/>
<polygon fill="black" stroke="black" points="1116,-375.299 1112.5,-365.299 1109,-375.299 1116,-375.299"/>
</g>
<!-- 20 -->
<g id="node21" class="node"><title>20</title>
<polygon fill="#399de5" fill-opacity="0.674510" stroke="black" points="1472,-365 1271,-365 1271,-297 1472,-297 1472,-365"/>
<text text-anchor="middle" x="1371.5" y="-349.8" font-family="Times,serif" font-size="14.00">narrated_neutral_NRC &lt;= 6.7615</text>
<text text-anchor="middle" x="1371.5" y="-334.8" font-family="Times,serif" font-size="14.00">samples = 42</text>
<text text-anchor="middle" x="1371.5" y="-319.8" font-family="Times,serif" font-size="14.00">value = [3, 5, 30, 4]</text>
<text text-anchor="middle" x="1371.5" y="-304.8" font-family="Times,serif" font-size="14.00">class = sentimental</text>
</g>
<!-- 16&#45;&gt;20 -->
<g id="edge20" class="edge"><title>16&#45;&gt;20</title>
<path fill="none" stroke="black" d="M1179.54,-407.6C1209.55,-395.78 1245.45,-381.643 1278.04,-368.809"/>
<polygon fill="black" stroke="black" points="1279.56,-371.97 1287.58,-365.049 1276.99,-365.457 1279.56,-371.97"/>
</g>
<!-- 18 -->
<g id="node19" class="node"><title>18</title>
<polygon fill="#47e539" stroke="black" points="1141.5,-253.5 1021.5,-253.5 1021.5,-200.5 1141.5,-200.5 1141.5,-253.5"/>
<text text-anchor="middle" x="1081.5" y="-238.3" font-family="Times,serif" font-size="14.00">samples = 6</text>
<text text-anchor="middle" x="1081.5" y="-223.3" font-family="Times,serif" font-size="14.00">value = [0, 6, 0, 0]</text>
<text text-anchor="middle" x="1081.5" y="-208.3" font-family="Times,serif" font-size="14.00">class = historical</text>
</g>
<!-- 17&#45;&gt;18 -->
<g id="edge18" class="edge"><title>17&#45;&gt;18</title>
<path fill="none" stroke="black" d="M1102.44,-296.884C1099.16,-286.106 1095.51,-274.108 1092.19,-263.184"/>
<polygon fill="black" stroke="black" points="1095.51,-262.07 1089.26,-253.52 1088.82,-264.106 1095.51,-262.07"/>
</g>
<!-- 19 -->
<g id="node20" class="node"><title>19</title>
<polygon fill="#e58139" stroke="black" points="1287.5,-253.5 1159.5,-253.5 1159.5,-200.5 1287.5,-200.5 1287.5,-253.5"/>
<text text-anchor="middle" x="1223.5" y="-238.3" font-family="Times,serif" font-size="14.00">samples = 1</text>
<text text-anchor="middle" x="1223.5" y="-223.3" font-family="Times,serif" font-size="14.00">value = [1, 0, 0, 0]</text>
<text text-anchor="middle" x="1223.5" y="-208.3" font-family="Times,serif" font-size="14.00">class = costumbrista</text>
</g>
<!-- 17&#45;&gt;19 -->
<g id="edge19" class="edge"><title>17&#45;&gt;19</title>
<path fill="none" stroke="black" d="M1148.54,-296.884C1161.22,-285.226 1175.46,-272.141 1188.1,-260.532"/>
<polygon fill="black" stroke="black" points="1190.73,-262.863 1195.73,-253.52 1186,-257.709 1190.73,-262.863"/>
</g>
<!-- 21 -->
<g id="node22" class="node"><title>21</title>
<polygon fill="#d739e5" stroke="black" points="1437,-253.5 1306,-253.5 1306,-200.5 1437,-200.5 1437,-253.5"/>
<text text-anchor="middle" x="1371.5" y="-238.3" font-family="Times,serif" font-size="14.00">samples = 3</text>
<text text-anchor="middle" x="1371.5" y="-223.3" font-family="Times,serif" font-size="14.00">value = [0, 0, 0, 3]</text>
<text text-anchor="middle" x="1371.5" y="-208.3" font-family="Times,serif" font-size="14.00">class = sociopolitical</text>
</g>
<!-- 20&#45;&gt;21 -->
<g id="edge21" class="edge"><title>20&#45;&gt;21</title>
<path fill="none" stroke="black" d="M1371.5,-296.884C1371.5,-286.326 1371.5,-274.597 1371.5,-263.854"/>
<polygon fill="black" stroke="black" points="1375,-263.52 1371.5,-253.52 1368,-263.52 1375,-263.52"/>
</g>
<!-- 22 -->
<g id="node23" class="node"><title>22</title>
<polygon fill="#399de5" fill-opacity="0.737255" stroke="black" points="1617.5,-261 1455.5,-261 1455.5,-193 1617.5,-193 1617.5,-261"/>
<text text-anchor="middle" x="1536.5" y="-245.8" font-family="Times,serif" font-size="14.00">positive_NRC &lt;= 36.6967</text>
<text text-anchor="middle" x="1536.5" y="-230.8" font-family="Times,serif" font-size="14.00">samples = 39</text>
<text text-anchor="middle" x="1536.5" y="-215.8" font-family="Times,serif" font-size="14.00">value = [3, 5, 30, 1]</text>
<text text-anchor="middle" x="1536.5" y="-200.8" font-family="Times,serif" font-size="14.00">class = sentimental</text>
</g>
<!-- 20&#45;&gt;22 -->
<g id="edge22" class="edge"><title>20&#45;&gt;22</title>
<path fill="none" stroke="black" d="M1425.07,-296.884C1440.71,-287.214 1457.94,-276.563 1474.08,-266.587"/>
<polygon fill="black" stroke="black" points="1476.25,-269.36 1482.92,-261.125 1472.57,-263.406 1476.25,-269.36"/>
</g>
<!-- 23 -->
<g id="node24" class="node"><title>23</title>
<polygon fill="#399de5" fill-opacity="0.756863" stroke="black" points="1535.5,-157 1373.5,-157 1373.5,-89 1535.5,-89 1535.5,-157"/>
<text text-anchor="middle" x="1454.5" y="-141.8" font-family="Times,serif" font-size="14.00">positive_NRC &lt;= 17.4161</text>
<text text-anchor="middle" x="1454.5" y="-126.8" font-family="Times,serif" font-size="14.00">samples = 38</text>
<text text-anchor="middle" x="1454.5" y="-111.8" font-family="Times,serif" font-size="14.00">value = [2, 5, 30, 1]</text>
<text text-anchor="middle" x="1454.5" y="-96.8" font-family="Times,serif" font-size="14.00">class = sentimental</text>
</g>
<!-- 22&#45;&gt;23 -->
<g id="edge23" class="edge"><title>22&#45;&gt;23</title>
<path fill="none" stroke="black" d="M1509.88,-192.884C1502.79,-184.065 1495.04,-174.43 1487.65,-165.235"/>
<polygon fill="black" stroke="black" points="1490.26,-162.9 1481.27,-157.299 1484.81,-167.286 1490.26,-162.9"/>
</g>
<!-- 26 -->
<g id="node27" class="node"><title>26</title>
<polygon fill="#e58139" stroke="black" points="1681.5,-149.5 1553.5,-149.5 1553.5,-96.5 1681.5,-96.5 1681.5,-149.5"/>
<text text-anchor="middle" x="1617.5" y="-134.3" font-family="Times,serif" font-size="14.00">samples = 1</text>
<text text-anchor="middle" x="1617.5" y="-119.3" font-family="Times,serif" font-size="14.00">value = [1, 0, 0, 0]</text>
<text text-anchor="middle" x="1617.5" y="-104.3" font-family="Times,serif" font-size="14.00">class = costumbrista</text>
</g>
<!-- 22&#45;&gt;26 -->
<g id="edge26" class="edge"><title>22&#45;&gt;26</title>
<path fill="none" stroke="black" d="M1562.8,-192.884C1571.79,-181.556 1581.86,-168.88 1590.88,-157.521"/>
<polygon fill="black" stroke="black" points="1593.76,-159.528 1597.23,-149.52 1588.27,-155.174 1593.76,-159.528"/>
</g>
<!-- 24 -->
<g id="node25" class="node"><title>24</title>
<polygon fill="#399de5" fill-opacity="0.560784" stroke="black" points="1445,-53 1318,-53 1318,-0 1445,-0 1445,-53"/>
<text text-anchor="middle" x="1381.5" y="-37.8" font-family="Times,serif" font-size="14.00">samples = 21</text>
<text text-anchor="middle" x="1381.5" y="-22.8" font-family="Times,serif" font-size="14.00">value = [1, 5, 14, 1]</text>
<text text-anchor="middle" x="1381.5" y="-7.8" font-family="Times,serif" font-size="14.00">class = sentimental</text>
</g>
<!-- 23&#45;&gt;24 -->
<g id="edge24" class="edge"><title>23&#45;&gt;24</title>
<path fill="none" stroke="black" d="M1428.97,-88.9485C1422.04,-79.9834 1414.54,-70.2666 1407.58,-61.2629"/>
<polygon fill="black" stroke="black" points="1410.26,-59.0108 1401.38,-53.2367 1404.72,-63.2902 1410.26,-59.0108"/>
</g>
<!-- 25 -->
<g id="node26" class="node"><title>25</title>
<polygon fill="#399de5" fill-opacity="0.937255" stroke="black" points="1590,-53 1463,-53 1463,-0 1590,-0 1590,-53"/>
<text text-anchor="middle" x="1526.5" y="-37.8" font-family="Times,serif" font-size="14.00">samples = 17</text>
<text text-anchor="middle" x="1526.5" y="-22.8" font-family="Times,serif" font-size="14.00">value = [1, 0, 16, 0]</text>
<text text-anchor="middle" x="1526.5" y="-7.8" font-family="Times,serif" font-size="14.00">class = sentimental</text>
</g>
<!-- 23&#45;&gt;25 -->
<g id="edge25" class="edge"><title>23&#45;&gt;25</title>
<path fill="none" stroke="black" d="M1479.68,-88.9485C1486.51,-79.9834 1493.92,-70.2666 1500.78,-61.2629"/>
<polygon fill="black" stroke="black" points="1503.61,-63.3122 1506.89,-53.2367 1498.05,-59.0699 1503.61,-63.3122"/>
</g>
</g>
</svg>
