<?xml version="1.0" encoding="UTF-8" standalone="no"?>
<!DOCTYPE svg PUBLIC "-//W3C//DTD SVG 1.1//EN"
 "http://www.w3.org/Graphics/SVG/1.1/DTD/svg11.dtd">
<!-- Generated by graphviz version 2.38.0 (20140413.2041)
 -->
<!-- Title: Tree Pages: 1 -->
<svg width="1150pt" height="477pt"
 viewBox="0.00 0.00 1150.00 477.00" xmlns="http://www.w3.org/2000/svg" xmlns:xlink="http://www.w3.org/1999/xlink">
<g id="graph0" class="graph" transform="scale(1 1) rotate(0) translate(4 473)">
<title>Tree</title>
<polygon fill="white" stroke="none" points="-4,4 -4,-473 1146,-473 1146,4 -4,4"/>
<!-- 0 -->
<g id="node1" class="node"><title>0</title>
<polygon fill="#39e581" fill-opacity="0.054902" stroke="black" points="669,-469 487,-469 487,-401 669,-401 669,-469"/>
<text text-anchor="middle" x="578" y="-453.8" font-family="Times,serif" font-size="14.00">Joy_NRC_narrated &lt;= 1.4807</text>
<text text-anchor="middle" x="578" y="-438.8" font-family="Times,serif" font-size="14.00">samples = 112</text>
<text text-anchor="middle" x="578" y="-423.8" font-family="Times,serif" font-size="14.00">value = [41, 45, 26]</text>
<text text-anchor="middle" x="578" y="-408.8" font-family="Times,serif" font-size="14.00">class = 0.5</text>
</g>
<!-- 1 -->
<g id="node2" class="node"><title>1</title>
<polygon fill="#e58139" fill-opacity="0.490196" stroke="black" points="579,-365 389,-365 389,-297 579,-297 579,-365"/>
<text text-anchor="middle" x="484" y="-349.8" font-family="Times,serif" font-size="14.00">Anger_NRC_speech &lt;= 1.3037</text>
<text text-anchor="middle" x="484" y="-334.8" font-family="Times,serif" font-size="14.00">samples = 58</text>
<text text-anchor="middle" x="484" y="-319.8" font-family="Times,serif" font-size="14.00">value = [35, 13, 10]</text>
<text text-anchor="middle" x="484" y="-304.8" font-family="Times,serif" font-size="14.00">class = 0.0</text>
</g>
<!-- 0&#45;&gt;1 -->
<g id="edge1" class="edge"><title>0&#45;&gt;1</title>
<path fill="none" stroke="black" d="M547.481,-400.884C539.19,-391.887 530.116,-382.041 521.488,-372.678"/>
<polygon fill="black" stroke="black" points="524.038,-370.281 514.688,-365.299 518.891,-375.025 524.038,-370.281"/>
<text text-anchor="middle" x="513.668" y="-386.579" font-family="Times,serif" font-size="14.00">True</text>
</g>
<!-- 10 -->
<g id="node11" class="node"><title>10</title>
<polygon fill="#39e581" fill-opacity="0.419608" stroke="black" points="732.5,-365 613.5,-365 613.5,-297 732.5,-297 732.5,-365"/>
<text text-anchor="middle" x="673" y="-349.8" font-family="Times,serif" font-size="14.00">speech &lt;= 53.538</text>
<text text-anchor="middle" x="673" y="-334.8" font-family="Times,serif" font-size="14.00">samples = 54</text>
<text text-anchor="middle" x="673" y="-319.8" font-family="Times,serif" font-size="14.00">value = [6, 32, 16]</text>
<text text-anchor="middle" x="673" y="-304.8" font-family="Times,serif" font-size="14.00">class = 0.5</text>
</g>
<!-- 0&#45;&gt;10 -->
<g id="edge10" class="edge"><title>0&#45;&gt;10</title>
<path fill="none" stroke="black" d="M608.844,-400.884C617.223,-391.887 626.394,-382.041 635.113,-372.678"/>
<polygon fill="black" stroke="black" points="637.732,-375.003 641.986,-365.299 632.609,-370.232 637.732,-375.003"/>
<text text-anchor="middle" x="642.874" y="-386.584" font-family="Times,serif" font-size="14.00">False</text>
</g>
<!-- 2 -->
<g id="node3" class="node"><title>2</title>
<polygon fill="#e58139" fill-opacity="0.588235" stroke="black" points="338,-261 184,-261 184,-193 338,-193 338,-261"/>
<text text-anchor="middle" x="261" y="-245.8" font-family="Times,serif" font-size="14.00">Disgust_NRC &lt;= 2.3166</text>
<text text-anchor="middle" x="261" y="-230.8" font-family="Times,serif" font-size="14.00">samples = 51</text>
<text text-anchor="middle" x="261" y="-215.8" font-family="Times,serif" font-size="14.00">value = [35, 12, 4]</text>
<text text-anchor="middle" x="261" y="-200.8" font-family="Times,serif" font-size="14.00">class = 0.0</text>
</g>
<!-- 1&#45;&gt;2 -->
<g id="edge2" class="edge"><title>1&#45;&gt;2</title>
<path fill="none" stroke="black" d="M411.598,-296.884C389.578,-286.812 365.229,-275.674 342.644,-265.344"/>
<polygon fill="black" stroke="black" points="343.969,-262.101 333.42,-261.125 341.058,-268.467 343.969,-262.101"/>
</g>
<!-- 7 -->
<g id="node8" class="node"><title>7</title>
<polygon fill="#8139e5" fill-opacity="0.831373" stroke="black" points="582.5,-261 385.5,-261 385.5,-193 582.5,-193 582.5,-261"/>
<text text-anchor="middle" x="484" y="-245.8" font-family="Times,serif" font-size="14.00">Disgust_NRC_speech &lt;= 0.2262</text>
<text text-anchor="middle" x="484" y="-230.8" font-family="Times,serif" font-size="14.00">samples = 7</text>
<text text-anchor="middle" x="484" y="-215.8" font-family="Times,serif" font-size="14.00">value = [0, 1, 6]</text>
<text text-anchor="middle" x="484" y="-200.8" font-family="Times,serif" font-size="14.00">class = 1.0</text>
</g>
<!-- 1&#45;&gt;7 -->
<g id="edge7" class="edge"><title>1&#45;&gt;7</title>
<path fill="none" stroke="black" d="M484,-296.884C484,-288.778 484,-279.982 484,-271.472"/>
<polygon fill="black" stroke="black" points="487.5,-271.299 484,-261.299 480.5,-271.299 487.5,-271.299"/>
</g>
<!-- 3 -->
<g id="node4" class="node"><title>3</title>
<polygon fill="#e58139" fill-opacity="0.666667" stroke="black" points="190,-157 44,-157 44,-89 190,-89 190,-157"/>
<text text-anchor="middle" x="117" y="-141.8" font-family="Times,serif" font-size="14.00">Anger_NRC &lt;= 1.2476</text>
<text text-anchor="middle" x="117" y="-126.8" font-family="Times,serif" font-size="14.00">samples = 48</text>
<text text-anchor="middle" x="117" y="-111.8" font-family="Times,serif" font-size="14.00">value = [35, 9, 4]</text>
<text text-anchor="middle" x="117" y="-96.8" font-family="Times,serif" font-size="14.00">class = 0.0</text>
</g>
<!-- 2&#45;&gt;3 -->
<g id="edge3" class="edge"><title>2&#45;&gt;3</title>
<path fill="none" stroke="black" d="M214.247,-192.884C200.918,-183.442 186.266,-173.064 172.471,-163.292"/>
<polygon fill="black" stroke="black" points="174.194,-160.223 164.011,-157.299 170.148,-165.936 174.194,-160.223"/>
</g>
<!-- 6 -->
<g id="node7" class="node"><title>6</title>
<polygon fill="#39e581" stroke="black" points="314,-149.5 208,-149.5 208,-96.5 314,-96.5 314,-149.5"/>
<text text-anchor="middle" x="261" y="-134.3" font-family="Times,serif" font-size="14.00">samples = 3</text>
<text text-anchor="middle" x="261" y="-119.3" font-family="Times,serif" font-size="14.00">value = [0, 3, 0]</text>
<text text-anchor="middle" x="261" y="-104.3" font-family="Times,serif" font-size="14.00">class = 0.5</text>
</g>
<!-- 2&#45;&gt;6 -->
<g id="edge6" class="edge"><title>2&#45;&gt;6</title>
<path fill="none" stroke="black" d="M261,-192.884C261,-182.326 261,-170.597 261,-159.854"/>
<polygon fill="black" stroke="black" points="264.5,-159.52 261,-149.52 257.5,-159.52 264.5,-159.52"/>
</g>
<!-- 4 -->
<g id="node5" class="node"><title>4</title>
<polygon fill="none" stroke="black" points="106,-53 7.10543e-15,-53 7.10543e-15,-0 106,-0 106,-53"/>
<text text-anchor="middle" x="53" y="-37.8" font-family="Times,serif" font-size="14.00">samples = 11</text>
<text text-anchor="middle" x="53" y="-22.8" font-family="Times,serif" font-size="14.00">value = [4, 4, 3]</text>
<text text-anchor="middle" x="53" y="-7.8" font-family="Times,serif" font-size="14.00">class = 0.0</text>
</g>
<!-- 3&#45;&gt;4 -->
<g id="edge4" class="edge"><title>3&#45;&gt;4</title>
<path fill="none" stroke="black" d="M94.6159,-88.9485C88.6063,-80.0749 82.0979,-70.4648 76.0527,-61.5388"/>
<polygon fill="black" stroke="black" points="78.9357,-59.5539 70.4301,-53.2367 73.1398,-63.4792 78.9357,-59.5539"/>
</g>
<!-- 5 -->
<g id="node6" class="node"><title>5</title>
<polygon fill="#e58139" fill-opacity="0.811765" stroke="black" points="237.5,-53 124.5,-53 124.5,-0 237.5,-0 237.5,-53"/>
<text text-anchor="middle" x="181" y="-37.8" font-family="Times,serif" font-size="14.00">samples = 37</text>
<text text-anchor="middle" x="181" y="-22.8" font-family="Times,serif" font-size="14.00">value = [31, 5, 1]</text>
<text text-anchor="middle" x="181" y="-7.8" font-family="Times,serif" font-size="14.00">class = 0.0</text>
</g>
<!-- 3&#45;&gt;5 -->
<g id="edge5" class="edge"><title>3&#45;&gt;5</title>
<path fill="none" stroke="black" d="M139.384,-88.9485C145.394,-80.0749 151.902,-70.4648 157.947,-61.5388"/>
<polygon fill="black" stroke="black" points="160.86,-63.4792 163.57,-53.2367 155.064,-59.5539 160.86,-63.4792"/>
</g>
<!-- 8 -->
<g id="node9" class="node"><title>8</title>
<polygon fill="#39e581" stroke="black" points="438,-149.5 332,-149.5 332,-96.5 438,-96.5 438,-149.5"/>
<text text-anchor="middle" x="385" y="-134.3" font-family="Times,serif" font-size="14.00">samples = 1</text>
<text text-anchor="middle" x="385" y="-119.3" font-family="Times,serif" font-size="14.00">value = [0, 1, 0]</text>
<text text-anchor="middle" x="385" y="-104.3" font-family="Times,serif" font-size="14.00">class = 0.5</text>
</g>
<!-- 7&#45;&gt;8 -->
<g id="edge8" class="edge"><title>7&#45;&gt;8</title>
<path fill="none" stroke="black" d="M451.858,-192.884C440.649,-181.336 428.082,-168.387 416.894,-156.86"/>
<polygon fill="black" stroke="black" points="419.246,-154.258 409.769,-149.52 414.223,-159.133 419.246,-154.258"/>
</g>
<!-- 9 -->
<g id="node10" class="node"><title>9</title>
<polygon fill="#8139e5" stroke="black" points="562,-149.5 456,-149.5 456,-96.5 562,-96.5 562,-149.5"/>
<text text-anchor="middle" x="509" y="-134.3" font-family="Times,serif" font-size="14.00">samples = 6</text>
<text text-anchor="middle" x="509" y="-119.3" font-family="Times,serif" font-size="14.00">value = [0, 0, 6]</text>
<text text-anchor="middle" x="509" y="-104.3" font-family="Times,serif" font-size="14.00">class = 1.0</text>
</g>
<!-- 7&#45;&gt;9 -->
<g id="edge9" class="edge"><title>7&#45;&gt;9</title>
<path fill="none" stroke="black" d="M492.117,-192.884C494.731,-182.216 497.639,-170.352 500.294,-159.519"/>
<polygon fill="black" stroke="black" points="503.764,-160.066 502.745,-149.52 496.965,-158.399 503.764,-160.066"/>
</g>
<!-- 11 -->
<g id="node12" class="node"><title>11</title>
<polygon fill="#39e581" fill-opacity="0.674510" stroke="black" points="740,-261 606,-261 606,-193 740,-193 740,-261"/>
<text text-anchor="middle" x="673" y="-245.8" font-family="Times,serif" font-size="14.00">Trust_NRC &lt;= 13.67</text>
<text text-anchor="middle" x="673" y="-230.8" font-family="Times,serif" font-size="14.00">samples = 44</text>
<text text-anchor="middle" x="673" y="-215.8" font-family="Times,serif" font-size="14.00">value = [5, 32, 7]</text>
<text text-anchor="middle" x="673" y="-200.8" font-family="Times,serif" font-size="14.00">class = 0.5</text>
</g>
<!-- 10&#45;&gt;11 -->
<g id="edge11" class="edge"><title>10&#45;&gt;11</title>
<path fill="none" stroke="black" d="M673,-296.884C673,-288.778 673,-279.982 673,-271.472"/>
<polygon fill="black" stroke="black" points="676.5,-271.299 673,-261.299 669.5,-271.299 676.5,-271.299"/>
</g>
<!-- 18 -->
<g id="node19" class="node"><title>18</title>
<polygon fill="#8139e5" fill-opacity="0.890196" stroke="black" points="1077.5,-261 852.5,-261 852.5,-193 1077.5,-193 1077.5,-261"/>
<text text-anchor="middle" x="965" y="-245.8" font-family="Times,serif" font-size="14.00">narrated_emotional_NRC &lt;= 25.2395</text>
<text text-anchor="middle" x="965" y="-230.8" font-family="Times,serif" font-size="14.00">samples = 10</text>
<text text-anchor="middle" x="965" y="-215.8" font-family="Times,serif" font-size="14.00">value = [1, 0, 9]</text>
<text text-anchor="middle" x="965" y="-200.8" font-family="Times,serif" font-size="14.00">class = 1.0</text>
</g>
<!-- 10&#45;&gt;18 -->
<g id="edge18" class="edge"><title>10&#45;&gt;18</title>
<path fill="none" stroke="black" d="M732.795,-309.113C769.636,-296.243 817.887,-279.389 860.854,-264.38"/>
<polygon fill="black" stroke="black" points="862.219,-267.61 870.506,-261.008 859.911,-261.002 862.219,-267.61"/>
</g>
<!-- 12 -->
<g id="node13" class="node"><title>12</title>
<polygon fill="#39e581" fill-opacity="0.878431" stroke="black" points="717.5,-157 580.5,-157 580.5,-89 717.5,-89 717.5,-157"/>
<text text-anchor="middle" x="649" y="-141.8" font-family="Times,serif" font-size="14.00">Fear_NRC &lt;= 8.7387</text>
<text text-anchor="middle" x="649" y="-126.8" font-family="Times,serif" font-size="14.00">samples = 27</text>
<text text-anchor="middle" x="649" y="-111.8" font-family="Times,serif" font-size="14.00">value = [2, 24, 1]</text>
<text text-anchor="middle" x="649" y="-96.8" font-family="Times,serif" font-size="14.00">class = 0.5</text>
</g>
<!-- 11&#45;&gt;12 -->
<g id="edge12" class="edge"><title>11&#45;&gt;12</title>
<path fill="none" stroke="black" d="M665.208,-192.884C663.28,-184.689 661.186,-175.789 659.163,-167.192"/>
<polygon fill="black" stroke="black" points="662.533,-166.232 656.835,-157.299 655.719,-167.835 662.533,-166.232"/>
</g>
<!-- 15 -->
<g id="node16" class="node"><title>15</title>
<polygon fill="#39e581" fill-opacity="0.180392" stroke="black" points="894,-157 736,-157 736,-89 894,-89 894,-157"/>
<text text-anchor="middle" x="815" y="-141.8" font-family="Times,serif" font-size="14.00">Surprise_NRC &lt;= 0.9856</text>
<text text-anchor="middle" x="815" y="-126.8" font-family="Times,serif" font-size="14.00">samples = 17</text>
<text text-anchor="middle" x="815" y="-111.8" font-family="Times,serif" font-size="14.00">value = [3, 8, 6]</text>
<text text-anchor="middle" x="815" y="-96.8" font-family="Times,serif" font-size="14.00">class = 0.5</text>
</g>
<!-- 11&#45;&gt;15 -->
<g id="edge15" class="edge"><title>11&#45;&gt;15</title>
<path fill="none" stroke="black" d="M719.103,-192.884C732.248,-183.442 746.696,-173.064 760.3,-163.292"/>
<polygon fill="black" stroke="black" points="762.562,-165.976 768.642,-157.299 758.478,-160.291 762.562,-165.976"/>
</g>
<!-- 13 -->
<g id="node14" class="node"><title>13</title>
<polygon fill="#39e581" fill-opacity="0.956863" stroke="black" points="587.5,-53 474.5,-53 474.5,-0 587.5,-0 587.5,-53"/>
<text text-anchor="middle" x="531" y="-37.8" font-family="Times,serif" font-size="14.00">samples = 25</text>
<text text-anchor="middle" x="531" y="-22.8" font-family="Times,serif" font-size="14.00">value = [1, 24, 0]</text>
<text text-anchor="middle" x="531" y="-7.8" font-family="Times,serif" font-size="14.00">class = 0.5</text>
</g>
<!-- 12&#45;&gt;13 -->
<g id="edge13" class="edge"><title>12&#45;&gt;13</title>
<path fill="none" stroke="black" d="M607.729,-88.9485C595.85,-79.4346 582.912,-69.074 571.104,-59.6175"/>
<polygon fill="black" stroke="black" points="573.13,-56.7558 563.137,-53.2367 568.754,-62.2196 573.13,-56.7558"/>
</g>
<!-- 14 -->
<g id="node15" class="node"><title>14</title>
<polygon fill="none" stroke="black" points="712,-53 606,-53 606,-0 712,-0 712,-53"/>
<text text-anchor="middle" x="659" y="-37.8" font-family="Times,serif" font-size="14.00">samples = 2</text>
<text text-anchor="middle" x="659" y="-22.8" font-family="Times,serif" font-size="14.00">value = [1, 0, 1]</text>
<text text-anchor="middle" x="659" y="-7.8" font-family="Times,serif" font-size="14.00">class = 0.0</text>
</g>
<!-- 12&#45;&gt;14 -->
<g id="edge14" class="edge"><title>12&#45;&gt;14</title>
<path fill="none" stroke="black" d="M652.498,-88.9485C653.378,-80.6238 654.328,-71.6509 655.222,-63.2027"/>
<polygon fill="black" stroke="black" points="658.705,-63.5495 656.277,-53.2367 651.744,-62.8128 658.705,-63.5495"/>
</g>
<!-- 16 -->
<g id="node17" class="node"><title>16</title>
<polygon fill="#39e581" fill-opacity="0.749020" stroke="black" points="857,-53 751,-53 751,-0 857,-0 857,-53"/>
<text text-anchor="middle" x="804" y="-37.8" font-family="Times,serif" font-size="14.00">samples = 10</text>
<text text-anchor="middle" x="804" y="-22.8" font-family="Times,serif" font-size="14.00">value = [0, 8, 2]</text>
<text text-anchor="middle" x="804" y="-7.8" font-family="Times,serif" font-size="14.00">class = 0.5</text>
</g>
<!-- 15&#45;&gt;16 -->
<g id="edge16" class="edge"><title>15&#45;&gt;16</title>
<path fill="none" stroke="black" d="M811.153,-88.9485C810.184,-80.6238 809.139,-71.6509 808.156,-63.2027"/>
<polygon fill="black" stroke="black" points="811.629,-62.7649 806.996,-53.2367 804.676,-63.5743 811.629,-62.7649"/>
</g>
<!-- 17 -->
<g id="node18" class="node"><title>17</title>
<polygon fill="#8139e5" fill-opacity="0.250980" stroke="black" points="981,-53 875,-53 875,-0 981,-0 981,-53"/>
<text text-anchor="middle" x="928" y="-37.8" font-family="Times,serif" font-size="14.00">samples = 7</text>
<text text-anchor="middle" x="928" y="-22.8" font-family="Times,serif" font-size="14.00">value = [3, 0, 4]</text>
<text text-anchor="middle" x="928" y="-7.8" font-family="Times,serif" font-size="14.00">class = 1.0</text>
</g>
<!-- 15&#45;&gt;17 -->
<g id="edge17" class="edge"><title>15&#45;&gt;17</title>
<path fill="none" stroke="black" d="M854.522,-88.9485C865.789,-79.526 878.049,-69.2731 889.268,-59.8906"/>
<polygon fill="black" stroke="black" points="891.799,-62.3368 897.225,-53.2367 887.308,-56.967 891.799,-62.3368"/>
</g>
<!-- 19 -->
<g id="node20" class="node"><title>19</title>
<polygon fill="#e58139" stroke="black" points="1018,-149.5 912,-149.5 912,-96.5 1018,-96.5 1018,-149.5"/>
<text text-anchor="middle" x="965" y="-134.3" font-family="Times,serif" font-size="14.00">samples = 1</text>
<text text-anchor="middle" x="965" y="-119.3" font-family="Times,serif" font-size="14.00">value = [1, 0, 0]</text>
<text text-anchor="middle" x="965" y="-104.3" font-family="Times,serif" font-size="14.00">class = 0.0</text>
</g>
<!-- 18&#45;&gt;19 -->
<g id="edge19" class="edge"><title>18&#45;&gt;19</title>
<path fill="none" stroke="black" d="M965,-192.884C965,-182.326 965,-170.597 965,-159.854"/>
<polygon fill="black" stroke="black" points="968.5,-159.52 965,-149.52 961.5,-159.52 968.5,-159.52"/>
</g>
<!-- 20 -->
<g id="node21" class="node"><title>20</title>
<polygon fill="#8139e5" stroke="black" points="1142,-149.5 1036,-149.5 1036,-96.5 1142,-96.5 1142,-149.5"/>
<text text-anchor="middle" x="1089" y="-134.3" font-family="Times,serif" font-size="14.00">samples = 9</text>
<text text-anchor="middle" x="1089" y="-119.3" font-family="Times,serif" font-size="14.00">value = [0, 0, 9]</text>
<text text-anchor="middle" x="1089" y="-104.3" font-family="Times,serif" font-size="14.00">class = 1.0</text>
</g>
<!-- 18&#45;&gt;20 -->
<g id="edge20" class="edge"><title>18&#45;&gt;20</title>
<path fill="none" stroke="black" d="M1005.26,-192.884C1019.7,-181.006 1035.94,-167.646 1050.25,-155.876"/>
<polygon fill="black" stroke="black" points="1052.48,-158.576 1057.98,-149.52 1048.03,-153.17 1052.48,-158.576"/>
</g>
</g>
</svg>
