<?xml version="1.0" encoding="UTF-8" standalone="no"?>
<!DOCTYPE svg PUBLIC "-//W3C//DTD SVG 1.1//EN"
 "http://www.w3.org/Graphics/SVG/1.1/DTD/svg11.dtd">
<!-- Generated by graphviz version 2.38.0 (20140413.2041)
 -->
<!-- Title: Tree Pages: 1 -->
<svg width="1575pt" height="581pt"
 viewBox="0.00 0.00 1574.50 581.00" xmlns="http://www.w3.org/2000/svg" xmlns:xlink="http://www.w3.org/1999/xlink">
<g id="graph0" class="graph" transform="scale(1 1) rotate(0) translate(4 577)">
<title>Tree</title>
<polygon fill="white" stroke="none" points="-4,4 -4,-577 1570.5,-577 1570.5,4 -4,4"/>
<!-- 0 -->
<g id="node1" class="node"><title>0</title>
<polygon fill="#399de5" fill-opacity="0.047059" stroke="black" points="1055.5,-573 849.5,-573 849.5,-505 1055.5,-505 1055.5,-573"/>
<text text-anchor="middle" x="952.5" y="-557.8" font-family="Times,serif" font-size="14.00">speech_emotional_WN &lt;= 30.333</text>
<text text-anchor="middle" x="952.5" y="-542.8" font-family="Times,serif" font-size="14.00">samples = 112</text>
<text text-anchor="middle" x="952.5" y="-527.8" font-family="Times,serif" font-size="14.00">value = [22, 30, 34, 26]</text>
<text text-anchor="middle" x="952.5" y="-512.8" font-family="Times,serif" font-size="14.00">class = sentimental</text>
</g>
<!-- 1 -->
<g id="node2" class="node"><title>1</title>
<polygon fill="#47e539" fill-opacity="0.074510" stroke="black" points="911.5,-469 741.5,-469 741.5,-401 911.5,-401 911.5,-469"/>
<text text-anchor="middle" x="826.5" y="-453.8" font-family="Times,serif" font-size="14.00">emotional_WN &lt;= 90.4224</text>
<text text-anchor="middle" x="826.5" y="-438.8" font-family="Times,serif" font-size="14.00">samples = 58</text>
<text text-anchor="middle" x="826.5" y="-423.8" font-family="Times,serif" font-size="14.00">value = [15, 21, 4, 18]</text>
<text text-anchor="middle" x="826.5" y="-408.8" font-family="Times,serif" font-size="14.00">class = historical</text>
</g>
<!-- 0&#45;&gt;1 -->
<g id="edge1" class="edge"><title>0&#45;&gt;1</title>
<path fill="none" stroke="black" d="M911.591,-504.884C900.148,-495.62 887.591,-485.455 875.721,-475.845"/>
<polygon fill="black" stroke="black" points="877.609,-472.871 867.635,-469.299 873.205,-478.312 877.609,-472.871"/>
<text text-anchor="middle" x="870.252" y="-490.462" font-family="Times,serif" font-size="14.00">True</text>
</g>
<!-- 18 -->
<g id="node19" class="node"><title>18</title>
<polygon fill="#399de5" fill-opacity="0.466667" stroke="black" points="1177.5,-469 981.5,-469 981.5,-401 1177.5,-401 1177.5,-469"/>
<text text-anchor="middle" x="1079.5" y="-453.8" font-family="Times,serif" font-size="14.00">speech_neutral_WN &lt;= 28.1496</text>
<text text-anchor="middle" x="1079.5" y="-438.8" font-family="Times,serif" font-size="14.00">samples = 54</text>
<text text-anchor="middle" x="1079.5" y="-423.8" font-family="Times,serif" font-size="14.00">value = [7, 9, 30, 8]</text>
<text text-anchor="middle" x="1079.5" y="-408.8" font-family="Times,serif" font-size="14.00">class = sentimental</text>
</g>
<!-- 0&#45;&gt;18 -->
<g id="edge18" class="edge"><title>0&#45;&gt;18</title>
<path fill="none" stroke="black" d="M993.733,-504.884C1005.38,-495.531 1018.17,-485.259 1030.23,-475.568"/>
<polygon fill="black" stroke="black" points="1032.43,-478.29 1038.04,-469.299 1028.05,-472.832 1032.43,-478.29"/>
<text text-anchor="middle" x="1035.33" y="-490.452" font-family="Times,serif" font-size="14.00">False</text>
</g>
<!-- 2 -->
<g id="node3" class="node"><title>2</title>
<polygon fill="#d739e5" fill-opacity="0.141176" stroke="black" points="669.5,-365 517.5,-365 517.5,-297 669.5,-297 669.5,-365"/>
<text text-anchor="middle" x="593.5" y="-349.8" font-family="Times,serif" font-size="14.00">neutral_WN &lt;= 23.8716</text>
<text text-anchor="middle" x="593.5" y="-334.8" font-family="Times,serif" font-size="14.00">samples = 42</text>
<text text-anchor="middle" x="593.5" y="-319.8" font-family="Times,serif" font-size="14.00">value = [14, 6, 4, 18]</text>
<text text-anchor="middle" x="593.5" y="-304.8" font-family="Times,serif" font-size="14.00">class = sociopolitical</text>
</g>
<!-- 1&#45;&gt;2 -->
<g id="edge2" class="edge"><title>1&#45;&gt;2</title>
<path fill="none" stroke="black" d="M750.852,-400.884C727.742,-390.767 702.177,-379.575 678.49,-369.206"/>
<polygon fill="black" stroke="black" points="679.732,-365.929 669.167,-365.125 676.924,-372.341 679.732,-365.929"/>
</g>
<!-- 15 -->
<g id="node16" class="node"><title>15</title>
<polygon fill="#47e539" fill-opacity="0.933333" stroke="black" points="903.5,-365 749.5,-365 749.5,-297 903.5,-297 903.5,-365"/>
<text text-anchor="middle" x="826.5" y="-349.8" font-family="Times,serif" font-size="14.00">negative_WN &lt;= 1.8275</text>
<text text-anchor="middle" x="826.5" y="-334.8" font-family="Times,serif" font-size="14.00">samples = 16</text>
<text text-anchor="middle" x="826.5" y="-319.8" font-family="Times,serif" font-size="14.00">value = [1, 15, 0, 0]</text>
<text text-anchor="middle" x="826.5" y="-304.8" font-family="Times,serif" font-size="14.00">class = historical</text>
</g>
<!-- 1&#45;&gt;15 -->
<g id="edge15" class="edge"><title>1&#45;&gt;15</title>
<path fill="none" stroke="black" d="M826.5,-400.884C826.5,-392.778 826.5,-383.982 826.5,-375.472"/>
<polygon fill="black" stroke="black" points="830,-375.299 826.5,-365.299 823,-375.299 830,-375.299"/>
</g>
<!-- 3 -->
<g id="node4" class="node"><title>3</title>
<polygon fill="#d739e5" fill-opacity="0.537255" stroke="black" points="476.5,-261 270.5,-261 270.5,-193 476.5,-193 476.5,-261"/>
<text text-anchor="middle" x="373.5" y="-245.8" font-family="Times,serif" font-size="14.00">speech_emotional_WN &lt;= 26.546</text>
<text text-anchor="middle" x="373.5" y="-230.8" font-family="Times,serif" font-size="14.00">samples = 30</text>
<text text-anchor="middle" x="373.5" y="-215.8" font-family="Times,serif" font-size="14.00">value = [4, 4, 4, 18]</text>
<text text-anchor="middle" x="373.5" y="-200.8" font-family="Times,serif" font-size="14.00">class = sociopolitical</text>
</g>
<!-- 2&#45;&gt;3 -->
<g id="edge3" class="edge"><title>2&#45;&gt;3</title>
<path fill="none" stroke="black" d="M522.072,-296.884C500.349,-286.812 476.327,-275.674 454.045,-265.344"/>
<polygon fill="black" stroke="black" points="455.49,-262.156 444.946,-261.125 452.546,-268.506 455.49,-262.156"/>
</g>
<!-- 10 -->
<g id="node11" class="node"><title>10</title>
<polygon fill="#e58139" fill-opacity="0.800000" stroke="black" points="692,-261 495,-261 495,-193 692,-193 692,-261"/>
<text text-anchor="middle" x="593.5" y="-245.8" font-family="Times,serif" font-size="14.00">narrated_neutral_WN &lt;= 4.9868</text>
<text text-anchor="middle" x="593.5" y="-230.8" font-family="Times,serif" font-size="14.00">samples = 12</text>
<text text-anchor="middle" x="593.5" y="-215.8" font-family="Times,serif" font-size="14.00">value = [10, 2, 0, 0]</text>
<text text-anchor="middle" x="593.5" y="-200.8" font-family="Times,serif" font-size="14.00">class = costumbrista</text>
</g>
<!-- 2&#45;&gt;10 -->
<g id="edge10" class="edge"><title>2&#45;&gt;10</title>
<path fill="none" stroke="black" d="M593.5,-296.884C593.5,-288.778 593.5,-279.982 593.5,-271.472"/>
<polygon fill="black" stroke="black" points="597,-271.299 593.5,-261.299 590,-271.299 597,-271.299"/>
</g>
<!-- 4 -->
<g id="node5" class="node"><title>4</title>
<polygon fill="#d739e5" fill-opacity="0.698039" stroke="black" points="284.5,-157 126.5,-157 126.5,-89 284.5,-89 284.5,-157"/>
<text text-anchor="middle" x="205.5" y="-141.8" font-family="Times,serif" font-size="14.00">positive_WN &lt;= 13.8983</text>
<text text-anchor="middle" x="205.5" y="-126.8" font-family="Times,serif" font-size="14.00">samples = 23</text>
<text text-anchor="middle" x="205.5" y="-111.8" font-family="Times,serif" font-size="14.00">value = [3, 2, 1, 17]</text>
<text text-anchor="middle" x="205.5" y="-96.8" font-family="Times,serif" font-size="14.00">class = sociopolitical</text>
</g>
<!-- 3&#45;&gt;4 -->
<g id="edge4" class="edge"><title>3&#45;&gt;4</title>
<path fill="none" stroke="black" d="M318.955,-192.884C303.03,-183.214 285.487,-172.563 269.055,-162.587"/>
<polygon fill="black" stroke="black" points="270.423,-159.323 260.058,-157.125 266.79,-165.306 270.423,-159.323"/>
</g>
<!-- 7 -->
<g id="node8" class="node"><title>7</title>
<polygon fill="#399de5" fill-opacity="0.200000" stroke="black" points="456.5,-157 302.5,-157 302.5,-89 456.5,-89 456.5,-157"/>
<text text-anchor="middle" x="379.5" y="-141.8" font-family="Times,serif" font-size="14.00">negative_WN &lt;= 6.7707</text>
<text text-anchor="middle" x="379.5" y="-126.8" font-family="Times,serif" font-size="14.00">samples = 7</text>
<text text-anchor="middle" x="379.5" y="-111.8" font-family="Times,serif" font-size="14.00">value = [1, 2, 3, 1]</text>
<text text-anchor="middle" x="379.5" y="-96.8" font-family="Times,serif" font-size="14.00">class = sentimental</text>
</g>
<!-- 3&#45;&gt;7 -->
<g id="edge7" class="edge"><title>3&#45;&gt;7</title>
<path fill="none" stroke="black" d="M375.448,-192.884C375.925,-184.778 376.442,-175.982 376.943,-167.472"/>
<polygon fill="black" stroke="black" points="380.448,-167.488 377.541,-157.299 373.46,-167.077 380.448,-167.488"/>
</g>
<!-- 5 -->
<g id="node6" class="node"><title>5</title>
<polygon fill="#d739e5" fill-opacity="0.788235" stroke="black" points="131,-53 0,-53 0,-0 131,-0 131,-53"/>
<text text-anchor="middle" x="65.5" y="-37.8" font-family="Times,serif" font-size="14.00">samples = 21</text>
<text text-anchor="middle" x="65.5" y="-22.8" font-family="Times,serif" font-size="14.00">value = [2, 2, 0, 17]</text>
<text text-anchor="middle" x="65.5" y="-7.8" font-family="Times,serif" font-size="14.00">class = sociopolitical</text>
</g>
<!-- 4&#45;&gt;5 -->
<g id="edge5" class="edge"><title>4&#45;&gt;5</title>
<path fill="none" stroke="black" d="M156.535,-88.9485C142.169,-79.2516 126.5,-68.6752 112.275,-59.073"/>
<polygon fill="black" stroke="black" points="113.875,-55.9305 103.628,-53.2367 109.959,-61.7325 113.875,-55.9305"/>
</g>
<!-- 6 -->
<g id="node7" class="node"><title>6</title>
<polygon fill="none" stroke="black" points="277.5,-53 149.5,-53 149.5,-0 277.5,-0 277.5,-53"/>
<text text-anchor="middle" x="213.5" y="-37.8" font-family="Times,serif" font-size="14.00">samples = 2</text>
<text text-anchor="middle" x="213.5" y="-22.8" font-family="Times,serif" font-size="14.00">value = [1, 0, 1, 0]</text>
<text text-anchor="middle" x="213.5" y="-7.8" font-family="Times,serif" font-size="14.00">class = costumbrista</text>
</g>
<!-- 4&#45;&gt;6 -->
<g id="edge6" class="edge"><title>4&#45;&gt;6</title>
<path fill="none" stroke="black" d="M208.298,-88.9485C209.003,-80.6238 209.762,-71.6509 210.478,-63.2027"/>
<polygon fill="black" stroke="black" points="213.965,-63.4963 211.321,-53.2367 206.99,-62.9058 213.965,-63.4963"/>
</g>
<!-- 8 -->
<g id="node9" class="node"><title>8</title>
<polygon fill="#47e539" fill-opacity="0.333333" stroke="black" points="431.5,-53 311.5,-53 311.5,-0 431.5,-0 431.5,-53"/>
<text text-anchor="middle" x="371.5" y="-37.8" font-family="Times,serif" font-size="14.00">samples = 4</text>
<text text-anchor="middle" x="371.5" y="-22.8" font-family="Times,serif" font-size="14.00">value = [1, 2, 0, 1]</text>
<text text-anchor="middle" x="371.5" y="-7.8" font-family="Times,serif" font-size="14.00">class = historical</text>
</g>
<!-- 7&#45;&gt;8 -->
<g id="edge8" class="edge"><title>7&#45;&gt;8</title>
<path fill="none" stroke="black" d="M376.702,-88.9485C375.997,-80.6238 375.238,-71.6509 374.522,-63.2027"/>
<polygon fill="black" stroke="black" points="378.01,-62.9058 373.679,-53.2367 371.035,-63.4963 378.01,-62.9058"/>
</g>
<!-- 9 -->
<g id="node10" class="node"><title>9</title>
<polygon fill="#399de5" stroke="black" points="571.5,-53 449.5,-53 449.5,-0 571.5,-0 571.5,-53"/>
<text text-anchor="middle" x="510.5" y="-37.8" font-family="Times,serif" font-size="14.00">samples = 3</text>
<text text-anchor="middle" x="510.5" y="-22.8" font-family="Times,serif" font-size="14.00">value = [0, 0, 3, 0]</text>
<text text-anchor="middle" x="510.5" y="-7.8" font-family="Times,serif" font-size="14.00">class = sentimental</text>
</g>
<!-- 7&#45;&gt;9 -->
<g id="edge9" class="edge"><title>7&#45;&gt;9</title>
<path fill="none" stroke="black" d="M425.317,-88.9485C438.633,-79.3431 453.145,-68.8747 466.355,-59.345"/>
<polygon fill="black" stroke="black" points="468.76,-61.9257 474.823,-53.2367 464.665,-56.2486 468.76,-61.9257"/>
</g>
<!-- 11 -->
<g id="node12" class="node"><title>11</title>
<polygon fill="#47e539" stroke="black" points="627.5,-149.5 507.5,-149.5 507.5,-96.5 627.5,-96.5 627.5,-149.5"/>
<text text-anchor="middle" x="567.5" y="-134.3" font-family="Times,serif" font-size="14.00">samples = 1</text>
<text text-anchor="middle" x="567.5" y="-119.3" font-family="Times,serif" font-size="14.00">value = [0, 1, 0, 0]</text>
<text text-anchor="middle" x="567.5" y="-104.3" font-family="Times,serif" font-size="14.00">class = historical</text>
</g>
<!-- 10&#45;&gt;11 -->
<g id="edge11" class="edge"><title>10&#45;&gt;11</title>
<path fill="none" stroke="black" d="M585.059,-192.884C582.339,-182.216 579.315,-170.352 576.554,-159.519"/>
<polygon fill="black" stroke="black" points="579.867,-158.346 574.005,-149.52 573.084,-160.075 579.867,-158.346"/>
</g>
<!-- 12 -->
<g id="node13" class="node"><title>12</title>
<polygon fill="#e58139" fill-opacity="0.901961" stroke="black" points="799.5,-157 645.5,-157 645.5,-89 799.5,-89 799.5,-157"/>
<text text-anchor="middle" x="722.5" y="-141.8" font-family="Times,serif" font-size="14.00">negative_WN &lt;= 5.7428</text>
<text text-anchor="middle" x="722.5" y="-126.8" font-family="Times,serif" font-size="14.00">samples = 11</text>
<text text-anchor="middle" x="722.5" y="-111.8" font-family="Times,serif" font-size="14.00">value = [10, 1, 0, 0]</text>
<text text-anchor="middle" x="722.5" y="-96.8" font-family="Times,serif" font-size="14.00">class = costumbrista</text>
</g>
<!-- 10&#45;&gt;12 -->
<g id="edge12" class="edge"><title>10&#45;&gt;12</title>
<path fill="none" stroke="black" d="M635.383,-192.884C647.211,-183.531 660.201,-173.259 672.458,-163.568"/>
<polygon fill="black" stroke="black" points="674.713,-166.247 680.386,-157.299 670.371,-160.756 674.713,-166.247"/>
</g>
<!-- 13 -->
<g id="node14" class="node"><title>13</title>
<polygon fill="#e58139" stroke="black" points="723.5,-53 595.5,-53 595.5,-0 723.5,-0 723.5,-53"/>
<text text-anchor="middle" x="659.5" y="-37.8" font-family="Times,serif" font-size="14.00">samples = 10</text>
<text text-anchor="middle" x="659.5" y="-22.8" font-family="Times,serif" font-size="14.00">value = [10, 0, 0, 0]</text>
<text text-anchor="middle" x="659.5" y="-7.8" font-family="Times,serif" font-size="14.00">class = costumbrista</text>
</g>
<!-- 12&#45;&gt;13 -->
<g id="edge13" class="edge"><title>12&#45;&gt;13</title>
<path fill="none" stroke="black" d="M700.466,-88.9485C694.611,-80.1664 688.275,-70.6629 682.377,-61.815"/>
<polygon fill="black" stroke="black" points="685.117,-59.6158 676.658,-53.2367 679.293,-63.4987 685.117,-59.6158"/>
</g>
<!-- 14 -->
<g id="node15" class="node"><title>14</title>
<polygon fill="#47e539" stroke="black" points="861.5,-53 741.5,-53 741.5,-0 861.5,-0 861.5,-53"/>
<text text-anchor="middle" x="801.5" y="-37.8" font-family="Times,serif" font-size="14.00">samples = 1</text>
<text text-anchor="middle" x="801.5" y="-22.8" font-family="Times,serif" font-size="14.00">value = [0, 1, 0, 0]</text>
<text text-anchor="middle" x="801.5" y="-7.8" font-family="Times,serif" font-size="14.00">class = historical</text>
</g>
<!-- 12&#45;&gt;14 -->
<g id="edge14" class="edge"><title>12&#45;&gt;14</title>
<path fill="none" stroke="black" d="M750.13,-88.9485C757.701,-79.892 765.914,-70.0682 773.505,-60.9875"/>
<polygon fill="black" stroke="black" points="776.256,-63.1538 779.985,-53.2367 770.886,-58.6641 776.256,-63.1538"/>
</g>
<!-- 16 -->
<g id="node17" class="node"><title>16</title>
<polygon fill="#e58139" stroke="black" points="838.5,-253.5 710.5,-253.5 710.5,-200.5 838.5,-200.5 838.5,-253.5"/>
<text text-anchor="middle" x="774.5" y="-238.3" font-family="Times,serif" font-size="14.00">samples = 1</text>
<text text-anchor="middle" x="774.5" y="-223.3" font-family="Times,serif" font-size="14.00">value = [1, 0, 0, 0]</text>
<text text-anchor="middle" x="774.5" y="-208.3" font-family="Times,serif" font-size="14.00">class = costumbrista</text>
</g>
<!-- 15&#45;&gt;16 -->
<g id="edge16" class="edge"><title>15&#45;&gt;16</title>
<path fill="none" stroke="black" d="M809.617,-296.884C804.01,-285.886 797.756,-273.617 792.097,-262.517"/>
<polygon fill="black" stroke="black" points="795.17,-260.839 787.51,-253.52 788.934,-264.019 795.17,-260.839"/>
</g>
<!-- 17 -->
<g id="node18" class="node"><title>17</title>
<polygon fill="#47e539" stroke="black" points="984,-253.5 857,-253.5 857,-200.5 984,-200.5 984,-253.5"/>
<text text-anchor="middle" x="920.5" y="-238.3" font-family="Times,serif" font-size="14.00">samples = 15</text>
<text text-anchor="middle" x="920.5" y="-223.3" font-family="Times,serif" font-size="14.00">value = [0, 15, 0, 0]</text>
<text text-anchor="middle" x="920.5" y="-208.3" font-family="Times,serif" font-size="14.00">class = historical</text>
</g>
<!-- 15&#45;&gt;17 -->
<g id="edge17" class="edge"><title>15&#45;&gt;17</title>
<path fill="none" stroke="black" d="M857.019,-296.884C867.56,-285.446 879.367,-272.634 889.913,-261.19"/>
<polygon fill="black" stroke="black" points="892.779,-263.245 896.982,-253.52 887.631,-258.502 892.779,-263.245"/>
</g>
<!-- 19 -->
<g id="node20" class="node"><title>19</title>
<polygon fill="#399de5" fill-opacity="0.501961" stroke="black" points="1186,-365 973,-365 973,-297 1186,-297 1186,-365"/>
<text text-anchor="middle" x="1079.5" y="-349.8" font-family="Times,serif" font-size="14.00">speech_emotional_WN &lt;= 45.8963</text>
<text text-anchor="middle" x="1079.5" y="-334.8" font-family="Times,serif" font-size="14.00">samples = 51</text>
<text text-anchor="middle" x="1079.5" y="-319.8" font-family="Times,serif" font-size="14.00">value = [7, 9, 30, 5]</text>
<text text-anchor="middle" x="1079.5" y="-304.8" font-family="Times,serif" font-size="14.00">class = sentimental</text>
</g>
<!-- 18&#45;&gt;19 -->
<g id="edge19" class="edge"><title>18&#45;&gt;19</title>
<path fill="none" stroke="black" d="M1079.5,-400.884C1079.5,-392.778 1079.5,-383.982 1079.5,-375.472"/>
<polygon fill="black" stroke="black" points="1083,-375.299 1079.5,-365.299 1076,-375.299 1083,-375.299"/>
</g>
<!-- 30 -->
<g id="node31" class="node"><title>30</title>
<polygon fill="#d739e5" stroke="black" points="1335,-357.5 1204,-357.5 1204,-304.5 1335,-304.5 1335,-357.5"/>
<text text-anchor="middle" x="1269.5" y="-342.3" font-family="Times,serif" font-size="14.00">samples = 3</text>
<text text-anchor="middle" x="1269.5" y="-327.3" font-family="Times,serif" font-size="14.00">value = [0, 0, 0, 3]</text>
<text text-anchor="middle" x="1269.5" y="-312.3" font-family="Times,serif" font-size="14.00">class = sociopolitical</text>
</g>
<!-- 18&#45;&gt;30 -->
<g id="edge30" class="edge"><title>18&#45;&gt;30</title>
<path fill="none" stroke="black" d="M1141.19,-400.884C1164.34,-388.456 1190.51,-374.406 1213.15,-362.252"/>
<polygon fill="black" stroke="black" points="1214.81,-365.334 1221.96,-357.52 1211.5,-359.166 1214.81,-365.334"/>
</g>
<!-- 20 -->
<g id="node21" class="node"><title>20</title>
<polygon fill="#399de5" fill-opacity="0.270588" stroke="black" points="1156.5,-261 1002.5,-261 1002.5,-193 1156.5,-193 1156.5,-261"/>
<text text-anchor="middle" x="1079.5" y="-245.8" font-family="Times,serif" font-size="14.00">negative_WN &lt;= 7.8418</text>
<text text-anchor="middle" x="1079.5" y="-230.8" font-family="Times,serif" font-size="14.00">samples = 33</text>
<text text-anchor="middle" x="1079.5" y="-215.8" font-family="Times,serif" font-size="14.00">value = [7, 7, 14, 5]</text>
<text text-anchor="middle" x="1079.5" y="-200.8" font-family="Times,serif" font-size="14.00">class = sentimental</text>
</g>
<!-- 19&#45;&gt;20 -->
<g id="edge20" class="edge"><title>19&#45;&gt;20</title>
<path fill="none" stroke="black" d="M1079.5,-296.884C1079.5,-288.778 1079.5,-279.982 1079.5,-271.472"/>
<polygon fill="black" stroke="black" points="1083,-271.299 1079.5,-261.299 1076,-271.299 1083,-271.299"/>
</g>
<!-- 25 -->
<g id="node26" class="node"><title>25</title>
<polygon fill="#399de5" fill-opacity="0.874510" stroke="black" points="1388,-261 1175,-261 1175,-193 1388,-193 1388,-261"/>
<text text-anchor="middle" x="1281.5" y="-245.8" font-family="Times,serif" font-size="14.00">speech_emotional_WN &lt;= 54.8312</text>
<text text-anchor="middle" x="1281.5" y="-230.8" font-family="Times,serif" font-size="14.00">samples = 18</text>
<text text-anchor="middle" x="1281.5" y="-215.8" font-family="Times,serif" font-size="14.00">value = [0, 2, 16, 0]</text>
<text text-anchor="middle" x="1281.5" y="-200.8" font-family="Times,serif" font-size="14.00">class = sentimental</text>
</g>
<!-- 19&#45;&gt;25 -->
<g id="edge25" class="edge"><title>19&#45;&gt;25</title>
<path fill="none" stroke="black" d="M1145.08,-296.884C1164.76,-286.946 1186.5,-275.971 1206.73,-265.757"/>
<polygon fill="black" stroke="black" points="1208.55,-268.757 1215.9,-261.125 1205.4,-262.508 1208.55,-268.757"/>
</g>
<!-- 21 -->
<g id="node22" class="node"><title>21</title>
<polygon fill="#399de5" fill-opacity="0.094118" stroke="black" points="1046,-157 849,-157 849,-89 1046,-89 1046,-157"/>
<text text-anchor="middle" x="947.5" y="-141.8" font-family="Times,serif" font-size="14.00">narrated_neutral_WN &lt;= 6.9985</text>
<text text-anchor="middle" x="947.5" y="-126.8" font-family="Times,serif" font-size="14.00">samples = 28</text>
<text text-anchor="middle" x="947.5" y="-111.8" font-family="Times,serif" font-size="14.00">value = [7, 7, 9, 5]</text>
<text text-anchor="middle" x="947.5" y="-96.8" font-family="Times,serif" font-size="14.00">class = sentimental</text>
</g>
<!-- 20&#45;&gt;21 -->
<g id="edge21" class="edge"><title>20&#45;&gt;21</title>
<path fill="none" stroke="black" d="M1036.64,-192.884C1024.54,-183.531 1011.25,-173.259 998.706,-163.568"/>
<polygon fill="black" stroke="black" points="1000.65,-160.644 990.593,-157.299 996.366,-166.183 1000.65,-160.644"/>
</g>
<!-- 24 -->
<g id="node25" class="node"><title>24</title>
<polygon fill="#399de5" stroke="black" points="1186.5,-149.5 1064.5,-149.5 1064.5,-96.5 1186.5,-96.5 1186.5,-149.5"/>
<text text-anchor="middle" x="1125.5" y="-134.3" font-family="Times,serif" font-size="14.00">samples = 5</text>
<text text-anchor="middle" x="1125.5" y="-119.3" font-family="Times,serif" font-size="14.00">value = [0, 0, 5, 0]</text>
<text text-anchor="middle" x="1125.5" y="-104.3" font-family="Times,serif" font-size="14.00">class = sentimental</text>
</g>
<!-- 20&#45;&gt;24 -->
<g id="edge24" class="edge"><title>20&#45;&gt;24</title>
<path fill="none" stroke="black" d="M1094.43,-192.884C1099.35,-181.996 1104.82,-169.863 1109.78,-158.85"/>
<polygon fill="black" stroke="black" points="1113.07,-160.075 1113.99,-149.52 1106.69,-157.197 1113.07,-160.075"/>
</g>
<!-- 22 -->
<g id="node23" class="node"><title>22</title>
<polygon fill="#47e539" fill-opacity="0.164706" stroke="black" points="1002.5,-53 882.5,-53 882.5,-0 1002.5,-0 1002.5,-53"/>
<text text-anchor="middle" x="942.5" y="-37.8" font-family="Times,serif" font-size="14.00">samples = 17</text>
<text text-anchor="middle" x="942.5" y="-22.8" font-family="Times,serif" font-size="14.00">value = [5, 7, 5, 0]</text>
<text text-anchor="middle" x="942.5" y="-7.8" font-family="Times,serif" font-size="14.00">class = historical</text>
</g>
<!-- 21&#45;&gt;22 -->
<g id="edge22" class="edge"><title>21&#45;&gt;22</title>
<path fill="none" stroke="black" d="M945.751,-88.9485C945.316,-80.7153 944.846,-71.848 944.404,-63.4814"/>
<polygon fill="black" stroke="black" points="947.885,-63.0378 943.862,-53.2367 940.895,-63.4077 947.885,-63.0378"/>
</g>
<!-- 23 -->
<g id="node24" class="node"><title>23</title>
<polygon fill="#d739e5" fill-opacity="0.141176" stroke="black" points="1152,-53 1021,-53 1021,-0 1152,-0 1152,-53"/>
<text text-anchor="middle" x="1086.5" y="-37.8" font-family="Times,serif" font-size="14.00">samples = 11</text>
<text text-anchor="middle" x="1086.5" y="-22.8" font-family="Times,serif" font-size="14.00">value = [2, 0, 4, 5]</text>
<text text-anchor="middle" x="1086.5" y="-7.8" font-family="Times,serif" font-size="14.00">class = sociopolitical</text>
</g>
<!-- 21&#45;&gt;23 -->
<g id="edge23" class="edge"><title>21&#45;&gt;23</title>
<path fill="none" stroke="black" d="M996.115,-88.9485C1010.38,-79.2516 1025.94,-68.6752 1040.06,-59.073"/>
<polygon fill="black" stroke="black" points="1042.34,-61.7535 1048.64,-53.2367 1038.41,-55.9646 1042.34,-61.7535"/>
</g>
<!-- 26 -->
<g id="node27" class="node"><title>26</title>
<polygon fill="#399de5" stroke="black" points="1341,-149.5 1214,-149.5 1214,-96.5 1341,-96.5 1341,-149.5"/>
<text text-anchor="middle" x="1277.5" y="-134.3" font-family="Times,serif" font-size="14.00">samples = 15</text>
<text text-anchor="middle" x="1277.5" y="-119.3" font-family="Times,serif" font-size="14.00">value = [0, 0, 15, 0]</text>
<text text-anchor="middle" x="1277.5" y="-104.3" font-family="Times,serif" font-size="14.00">class = sentimental</text>
</g>
<!-- 25&#45;&gt;26 -->
<g id="edge26" class="edge"><title>25&#45;&gt;26</title>
<path fill="none" stroke="black" d="M1280.2,-192.884C1279.78,-182.216 1279.32,-170.352 1278.89,-159.519"/>
<polygon fill="black" stroke="black" points="1282.39,-159.375 1278.5,-149.52 1275.4,-159.649 1282.39,-159.375"/>
</g>
<!-- 27 -->
<g id="node28" class="node"><title>27</title>
<polygon fill="#47e539" fill-opacity="0.498039" stroke="black" points="1513.5,-157 1359.5,-157 1359.5,-89 1513.5,-89 1513.5,-157"/>
<text text-anchor="middle" x="1436.5" y="-141.8" font-family="Times,serif" font-size="14.00">negative_WN &lt;= 5.4268</text>
<text text-anchor="middle" x="1436.5" y="-126.8" font-family="Times,serif" font-size="14.00">samples = 3</text>
<text text-anchor="middle" x="1436.5" y="-111.8" font-family="Times,serif" font-size="14.00">value = [0, 2, 1, 0]</text>
<text text-anchor="middle" x="1436.5" y="-96.8" font-family="Times,serif" font-size="14.00">class = historical</text>
</g>
<!-- 25&#45;&gt;27 -->
<g id="edge27" class="edge"><title>25&#45;&gt;27</title>
<path fill="none" stroke="black" d="M1331.82,-192.884C1346.38,-183.304 1362.4,-172.761 1377.44,-162.864"/>
<polygon fill="black" stroke="black" points="1379.73,-165.546 1386.16,-157.125 1375.89,-159.698 1379.73,-165.546"/>
</g>
<!-- 28 -->
<g id="node29" class="node"><title>28</title>
<polygon fill="#47e539" stroke="black" points="1426.5,-53 1306.5,-53 1306.5,-0 1426.5,-0 1426.5,-53"/>
<text text-anchor="middle" x="1366.5" y="-37.8" font-family="Times,serif" font-size="14.00">samples = 2</text>
<text text-anchor="middle" x="1366.5" y="-22.8" font-family="Times,serif" font-size="14.00">value = [0, 2, 0, 0]</text>
<text text-anchor="middle" x="1366.5" y="-7.8" font-family="Times,serif" font-size="14.00">class = historical</text>
</g>
<!-- 27&#45;&gt;28 -->
<g id="edge28" class="edge"><title>27&#45;&gt;28</title>
<path fill="none" stroke="black" d="M1412.02,-88.9485C1405.44,-80.0749 1398.33,-70.4648 1391.71,-61.5388"/>
<polygon fill="black" stroke="black" points="1394.33,-59.189 1385.56,-53.2367 1388.7,-63.3556 1394.33,-59.189"/>
</g>
<!-- 29 -->
<g id="node30" class="node"><title>29</title>
<polygon fill="#399de5" stroke="black" points="1566.5,-53 1444.5,-53 1444.5,-0 1566.5,-0 1566.5,-53"/>
<text text-anchor="middle" x="1505.5" y="-37.8" font-family="Times,serif" font-size="14.00">samples = 1</text>
<text text-anchor="middle" x="1505.5" y="-22.8" font-family="Times,serif" font-size="14.00">value = [0, 0, 1, 0]</text>
<text text-anchor="middle" x="1505.5" y="-7.8" font-family="Times,serif" font-size="14.00">class = sentimental</text>
</g>
<!-- 27&#45;&gt;29 -->
<g id="edge29" class="edge"><title>27&#45;&gt;29</title>
<path fill="none" stroke="black" d="M1460.63,-88.9485C1467.11,-80.0749 1474.13,-70.4648 1480.65,-61.5388"/>
<polygon fill="black" stroke="black" points="1483.64,-63.3769 1486.71,-53.2367 1477.98,-59.249 1483.64,-63.3769"/>
</g>
</g>
</svg>
