<?xml version="1.0" encoding="UTF-8" standalone="no"?>
<!DOCTYPE svg PUBLIC "-//W3C//DTD SVG 1.1//EN"
 "http://www.w3.org/Graphics/SVG/1.1/DTD/svg11.dtd">
<!-- Generated by graphviz version 2.38.0 (20140413.2041)
 -->
<!-- Title: Tree Pages: 1 -->
<svg width="2351pt" height="581pt"
 viewBox="0.00 0.00 2350.50 581.00" xmlns="http://www.w3.org/2000/svg" xmlns:xlink="http://www.w3.org/1999/xlink">
<g id="graph0" class="graph" transform="scale(1 1) rotate(0) translate(4 577)">
<title>Tree</title>
<polygon fill="white" stroke="none" points="-4,4 -4,-577 2346.5,-577 2346.5,4 -4,4"/>
<!-- 0 -->
<g id="node1" class="node"><title>0</title>
<polygon fill="#399de5" fill-opacity="0.047059" stroke="black" points="1713.5,-573 1566.5,-573 1566.5,-505 1713.5,-505 1713.5,-573"/>
<text text-anchor="middle" x="1640" y="-557.8" font-family="Times,serif" font-size="14.00">Fear_NRC &lt;= 6.4535</text>
<text text-anchor="middle" x="1640" y="-542.8" font-family="Times,serif" font-size="14.00">samples = 112</text>
<text text-anchor="middle" x="1640" y="-527.8" font-family="Times,serif" font-size="14.00">value = [22, 30, 34, 26]</text>
<text text-anchor="middle" x="1640" y="-512.8" font-family="Times,serif" font-size="14.00">class = sentimental</text>
</g>
<!-- 1 -->
<g id="node2" class="node"><title>1</title>
<polygon fill="#399de5" fill-opacity="0.109804" stroke="black" points="1447,-469 1249,-469 1249,-401 1447,-401 1447,-469"/>
<text text-anchor="middle" x="1348" y="-453.8" font-family="Times,serif" font-size="14.00">Disgust_NRC_narrated &lt;= 0.485</text>
<text text-anchor="middle" x="1348" y="-438.8" font-family="Times,serif" font-size="14.00">samples = 78</text>
<text text-anchor="middle" x="1348" y="-423.8" font-family="Times,serif" font-size="14.00">value = [22, 4, 29, 23]</text>
<text text-anchor="middle" x="1348" y="-408.8" font-family="Times,serif" font-size="14.00">class = sentimental</text>
</g>
<!-- 0&#45;&gt;1 -->
<g id="edge1" class="edge"><title>0&#45;&gt;1</title>
<path fill="none" stroke="black" d="M1566.32,-512.261C1531.74,-500.183 1489.92,-485.576 1452.18,-472.391"/>
<polygon fill="black" stroke="black" points="1453.27,-469.066 1442.68,-469.072 1450.96,-475.674 1453.27,-469.066"/>
<text text-anchor="middle" x="1453.54" y="-487.891" font-family="Times,serif" font-size="14.00">True</text>
</g>
<!-- 28 -->
<g id="node29" class="node"><title>28</title>
<polygon fill="#47e539" fill-opacity="0.725490" stroke="black" points="1963.5,-469 1812.5,-469 1812.5,-401 1963.5,-401 1963.5,-469"/>
<text text-anchor="middle" x="1888" y="-453.8" font-family="Times,serif" font-size="14.00">positive_WN &lt;= 11.038</text>
<text text-anchor="middle" x="1888" y="-438.8" font-family="Times,serif" font-size="14.00">samples = 34</text>
<text text-anchor="middle" x="1888" y="-423.8" font-family="Times,serif" font-size="14.00">value = [0, 26, 5, 3]</text>
<text text-anchor="middle" x="1888" y="-408.8" font-family="Times,serif" font-size="14.00">class = historical</text>
</g>
<!-- 0&#45;&gt;28 -->
<g id="edge28" class="edge"><title>0&#45;&gt;28</title>
<path fill="none" stroke="black" d="M1713.74,-507.673C1741.82,-496.121 1774.05,-482.866 1803.09,-470.922"/>
<polygon fill="black" stroke="black" points="1804.48,-474.134 1812.4,-467.094 1801.82,-467.66 1804.48,-474.134"/>
<text text-anchor="middle" x="1802.78" y="-486.467" font-family="Times,serif" font-size="14.00">False</text>
</g>
<!-- 2 -->
<g id="node3" class="node"><title>2</title>
<polygon fill="#399de5" fill-opacity="0.647059" stroke="black" points="898,-365 750,-365 750,-297 898,-297 898,-365"/>
<text text-anchor="middle" x="824" y="-349.8" font-family="Times,serif" font-size="14.00">Trust_NRC &lt;= 16.1612</text>
<text text-anchor="middle" x="824" y="-334.8" font-family="Times,serif" font-size="14.00">samples = 37</text>
<text text-anchor="middle" x="824" y="-319.8" font-family="Times,serif" font-size="14.00">value = [4, 1, 26, 6]</text>
<text text-anchor="middle" x="824" y="-304.8" font-family="Times,serif" font-size="14.00">class = sentimental</text>
</g>
<!-- 1&#45;&gt;2 -->
<g id="edge2" class="edge"><title>1&#45;&gt;2</title>
<path fill="none" stroke="black" d="M1248.82,-414.695C1150.35,-395.525 1001.02,-366.458 908.155,-348.381"/>
<polygon fill="black" stroke="black" points="908.718,-344.925 898.234,-346.45 907.381,-351.796 908.718,-344.925"/>
</g>
<!-- 17 -->
<g id="node18" class="node"><title>17</title>
<polygon fill="#e58139" fill-opacity="0.043137" stroke="black" points="1425,-365 1271,-365 1271,-297 1425,-297 1425,-365"/>
<text text-anchor="middle" x="1348" y="-349.8" font-family="Times,serif" font-size="14.00">negative_WN &lt;= 2.5572</text>
<text text-anchor="middle" x="1348" y="-334.8" font-family="Times,serif" font-size="14.00">samples = 41</text>
<text text-anchor="middle" x="1348" y="-319.8" font-family="Times,serif" font-size="14.00">value = [18, 3, 3, 17]</text>
<text text-anchor="middle" x="1348" y="-304.8" font-family="Times,serif" font-size="14.00">class = costumbrista</text>
</g>
<!-- 1&#45;&gt;17 -->
<g id="edge17" class="edge"><title>1&#45;&gt;17</title>
<path fill="none" stroke="black" d="M1348,-400.884C1348,-392.778 1348,-383.982 1348,-375.472"/>
<polygon fill="black" stroke="black" points="1351.5,-375.299 1348,-365.299 1344.5,-375.299 1351.5,-375.299"/>
</g>
<!-- 3 -->
<g id="node4" class="node"><title>3</title>
<polygon fill="#399de5" fill-opacity="0.815686" stroke="black" points="527.5,-261 366.5,-261 366.5,-193 527.5,-193 527.5,-261"/>
<text text-anchor="middle" x="447" y="-245.8" font-family="Times,serif" font-size="14.00">Joy_NRC_speech &lt;= 0.36</text>
<text text-anchor="middle" x="447" y="-230.8" font-family="Times,serif" font-size="14.00">samples = 30</text>
<text text-anchor="middle" x="447" y="-215.8" font-family="Times,serif" font-size="14.00">value = [3, 0, 25, 2]</text>
<text text-anchor="middle" x="447" y="-200.8" font-family="Times,serif" font-size="14.00">class = sentimental</text>
</g>
<!-- 2&#45;&gt;3 -->
<g id="edge3" class="edge"><title>2&#45;&gt;3</title>
<path fill="none" stroke="black" d="M749.967,-309.97C689.082,-293.497 602.557,-270.087 537.551,-252.499"/>
<polygon fill="black" stroke="black" points="538.284,-249.072 527.716,-249.838 536.455,-255.829 538.284,-249.072"/>
</g>
<!-- 10 -->
<g id="node11" class="node"><title>10</title>
<polygon fill="#d739e5" fill-opacity="0.498039" stroke="black" points="889.5,-261 758.5,-261 758.5,-193 889.5,-193 889.5,-261"/>
<text text-anchor="middle" x="824" y="-245.8" font-family="Times,serif" font-size="14.00">Joy_NRC &lt;= 2.0459</text>
<text text-anchor="middle" x="824" y="-230.8" font-family="Times,serif" font-size="14.00">samples = 7</text>
<text text-anchor="middle" x="824" y="-215.8" font-family="Times,serif" font-size="14.00">value = [1, 1, 1, 4]</text>
<text text-anchor="middle" x="824" y="-200.8" font-family="Times,serif" font-size="14.00">class = sociopolitical</text>
</g>
<!-- 2&#45;&gt;10 -->
<g id="edge10" class="edge"><title>2&#45;&gt;10</title>
<path fill="none" stroke="black" d="M824,-296.884C824,-288.778 824,-279.982 824,-271.472"/>
<polygon fill="black" stroke="black" points="827.5,-271.299 824,-261.299 820.5,-271.299 827.5,-271.299"/>
</g>
<!-- 4 -->
<g id="node5" class="node"><title>4</title>
<polygon fill="#e58139" fill-opacity="0.666667" stroke="black" points="292,-157 122,-157 122,-89 292,-89 292,-157"/>
<text text-anchor="middle" x="207" y="-141.8" font-family="Times,serif" font-size="14.00">emotional_WN &lt;= 93.1163</text>
<text text-anchor="middle" x="207" y="-126.8" font-family="Times,serif" font-size="14.00">samples = 4</text>
<text text-anchor="middle" x="207" y="-111.8" font-family="Times,serif" font-size="14.00">value = [3, 0, 1, 0]</text>
<text text-anchor="middle" x="207" y="-96.8" font-family="Times,serif" font-size="14.00">class = costumbrista</text>
</g>
<!-- 3&#45;&gt;4 -->
<g id="edge4" class="edge"><title>3&#45;&gt;4</title>
<path fill="none" stroke="black" d="M369.079,-192.884C345.17,-182.722 318.709,-171.476 294.22,-161.069"/>
<polygon fill="black" stroke="black" points="295.513,-157.815 284.941,-157.125 292.775,-164.257 295.513,-157.815"/>
</g>
<!-- 7 -->
<g id="node8" class="node"><title>7</title>
<polygon fill="#399de5" fill-opacity="0.917647" stroke="black" points="553.5,-157 340.5,-157 340.5,-89 553.5,-89 553.5,-157"/>
<text text-anchor="middle" x="447" y="-141.8" font-family="Times,serif" font-size="14.00">speech_emotional_WN &lt;= 25.5088</text>
<text text-anchor="middle" x="447" y="-126.8" font-family="Times,serif" font-size="14.00">samples = 26</text>
<text text-anchor="middle" x="447" y="-111.8" font-family="Times,serif" font-size="14.00">value = [0, 0, 24, 2]</text>
<text text-anchor="middle" x="447" y="-96.8" font-family="Times,serif" font-size="14.00">class = sentimental</text>
</g>
<!-- 3&#45;&gt;7 -->
<g id="edge7" class="edge"><title>3&#45;&gt;7</title>
<path fill="none" stroke="black" d="M447,-192.884C447,-184.778 447,-175.982 447,-167.472"/>
<polygon fill="black" stroke="black" points="450.5,-167.299 447,-157.299 443.5,-167.299 450.5,-167.299"/>
</g>
<!-- 5 -->
<g id="node6" class="node"><title>5</title>
<polygon fill="#e58139" stroke="black" points="128,-53 0,-53 0,-0 128,-0 128,-53"/>
<text text-anchor="middle" x="64" y="-37.8" font-family="Times,serif" font-size="14.00">samples = 3</text>
<text text-anchor="middle" x="64" y="-22.8" font-family="Times,serif" font-size="14.00">value = [3, 0, 0, 0]</text>
<text text-anchor="middle" x="64" y="-7.8" font-family="Times,serif" font-size="14.00">class = costumbrista</text>
</g>
<!-- 4&#45;&gt;5 -->
<g id="edge5" class="edge"><title>4&#45;&gt;5</title>
<path fill="none" stroke="black" d="M156.986,-88.9485C142.174,-79.1601 126.005,-68.4756 111.366,-58.8015"/>
<polygon fill="black" stroke="black" points="113.218,-55.83 102.945,-53.2367 109.359,-61.6701 113.218,-55.83"/>
</g>
<!-- 6 -->
<g id="node7" class="node"><title>6</title>
<polygon fill="#399de5" stroke="black" points="268,-53 146,-53 146,-0 268,-0 268,-53"/>
<text text-anchor="middle" x="207" y="-37.8" font-family="Times,serif" font-size="14.00">samples = 1</text>
<text text-anchor="middle" x="207" y="-22.8" font-family="Times,serif" font-size="14.00">value = [0, 0, 1, 0]</text>
<text text-anchor="middle" x="207" y="-7.8" font-family="Times,serif" font-size="14.00">class = sentimental</text>
</g>
<!-- 4&#45;&gt;6 -->
<g id="edge6" class="edge"><title>4&#45;&gt;6</title>
<path fill="none" stroke="black" d="M207,-88.9485C207,-80.7153 207,-71.848 207,-63.4814"/>
<polygon fill="black" stroke="black" points="210.5,-63.2367 207,-53.2367 203.5,-63.2367 210.5,-63.2367"/>
</g>
<!-- 8 -->
<g id="node9" class="node"><title>8</title>
<polygon fill="#d739e5" stroke="black" points="417.5,-53 286.5,-53 286.5,-0 417.5,-0 417.5,-53"/>
<text text-anchor="middle" x="352" y="-37.8" font-family="Times,serif" font-size="14.00">samples = 1</text>
<text text-anchor="middle" x="352" y="-22.8" font-family="Times,serif" font-size="14.00">value = [0, 0, 0, 1]</text>
<text text-anchor="middle" x="352" y="-7.8" font-family="Times,serif" font-size="14.00">class = sociopolitical</text>
</g>
<!-- 7&#45;&gt;8 -->
<g id="edge8" class="edge"><title>7&#45;&gt;8</title>
<path fill="none" stroke="black" d="M413.774,-88.9485C404.485,-79.709 394.394,-69.671 385.112,-60.4381"/>
<polygon fill="black" stroke="black" points="387.431,-57.8077 377.873,-53.2367 382.494,-62.7705 387.431,-57.8077"/>
</g>
<!-- 9 -->
<g id="node10" class="node"><title>9</title>
<polygon fill="#399de5" fill-opacity="0.956863" stroke="black" points="562.5,-53 435.5,-53 435.5,-0 562.5,-0 562.5,-53"/>
<text text-anchor="middle" x="499" y="-37.8" font-family="Times,serif" font-size="14.00">samples = 25</text>
<text text-anchor="middle" x="499" y="-22.8" font-family="Times,serif" font-size="14.00">value = [0, 0, 24, 1]</text>
<text text-anchor="middle" x="499" y="-7.8" font-family="Times,serif" font-size="14.00">class = sentimental</text>
</g>
<!-- 7&#45;&gt;9 -->
<g id="edge9" class="edge"><title>7&#45;&gt;9</title>
<path fill="none" stroke="black" d="M465.187,-88.9485C469.969,-80.2579 475.14,-70.8608 479.965,-62.0917"/>
<polygon fill="black" stroke="black" points="483.083,-63.6853 484.838,-53.2367 476.951,-60.3105 483.083,-63.6853"/>
</g>
<!-- 11 -->
<g id="node12" class="node"><title>11</title>
<polygon fill="#d739e5" fill-opacity="0.749020" stroke="black" points="825,-157 601,-157 601,-89 825,-89 825,-157"/>
<text text-anchor="middle" x="713" y="-141.8" font-family="Times,serif" font-size="14.00">Anticipation_NRC_speech &lt;= 4.0622</text>
<text text-anchor="middle" x="713" y="-126.8" font-family="Times,serif" font-size="14.00">samples = 5</text>
<text text-anchor="middle" x="713" y="-111.8" font-family="Times,serif" font-size="14.00">value = [0, 0, 1, 4]</text>
<text text-anchor="middle" x="713" y="-96.8" font-family="Times,serif" font-size="14.00">class = sociopolitical</text>
</g>
<!-- 10&#45;&gt;11 -->
<g id="edge11" class="edge"><title>10&#45;&gt;11</title>
<path fill="none" stroke="black" d="M787.961,-192.884C777.977,-183.709 767.031,-173.65 756.663,-164.123"/>
<polygon fill="black" stroke="black" points="758.969,-161.488 749.238,-157.299 754.233,-166.643 758.969,-161.488"/>
</g>
<!-- 14 -->
<g id="node15" class="node"><title>14</title>
<polygon fill="none" stroke="black" points="1025,-157 843,-157 843,-89 1025,-89 1025,-157"/>
<text text-anchor="middle" x="934" y="-141.8" font-family="Times,serif" font-size="14.00">Joy_NRC_narrated &lt;= 2.4052</text>
<text text-anchor="middle" x="934" y="-126.8" font-family="Times,serif" font-size="14.00">samples = 2</text>
<text text-anchor="middle" x="934" y="-111.8" font-family="Times,serif" font-size="14.00">value = [1, 1, 0, 0]</text>
<text text-anchor="middle" x="934" y="-96.8" font-family="Times,serif" font-size="14.00">class = costumbrista</text>
</g>
<!-- 10&#45;&gt;14 -->
<g id="edge14" class="edge"><title>10&#45;&gt;14</title>
<path fill="none" stroke="black" d="M859.714,-192.884C869.608,-183.709 880.456,-173.65 890.73,-164.123"/>
<polygon fill="black" stroke="black" points="893.136,-166.665 898.089,-157.299 888.376,-161.532 893.136,-166.665"/>
</g>
<!-- 12 -->
<g id="node13" class="node"><title>12</title>
<polygon fill="#d739e5" stroke="black" points="711.5,-53 580.5,-53 580.5,-0 711.5,-0 711.5,-53"/>
<text text-anchor="middle" x="646" y="-37.8" font-family="Times,serif" font-size="14.00">samples = 4</text>
<text text-anchor="middle" x="646" y="-22.8" font-family="Times,serif" font-size="14.00">value = [0, 0, 0, 4]</text>
<text text-anchor="middle" x="646" y="-7.8" font-family="Times,serif" font-size="14.00">class = sociopolitical</text>
</g>
<!-- 11&#45;&gt;12 -->
<g id="edge12" class="edge"><title>11&#45;&gt;12</title>
<path fill="none" stroke="black" d="M689.567,-88.9485C683.275,-80.0749 676.462,-70.4648 670.133,-61.5388"/>
<polygon fill="black" stroke="black" points="672.886,-59.3701 664.247,-53.2367 667.176,-63.4188 672.886,-59.3701"/>
</g>
<!-- 13 -->
<g id="node14" class="node"><title>13</title>
<polygon fill="#399de5" stroke="black" points="852,-53 730,-53 730,-0 852,-0 852,-53"/>
<text text-anchor="middle" x="791" y="-37.8" font-family="Times,serif" font-size="14.00">samples = 1</text>
<text text-anchor="middle" x="791" y="-22.8" font-family="Times,serif" font-size="14.00">value = [0, 0, 1, 0]</text>
<text text-anchor="middle" x="791" y="-7.8" font-family="Times,serif" font-size="14.00">class = sentimental</text>
</g>
<!-- 11&#45;&gt;13 -->
<g id="edge13" class="edge"><title>11&#45;&gt;13</title>
<path fill="none" stroke="black" d="M740.281,-88.9485C747.756,-79.892 755.864,-70.0682 763.36,-60.9875"/>
<polygon fill="black" stroke="black" points="766.091,-63.1769 769.757,-53.2367 760.692,-58.721 766.091,-63.1769"/>
</g>
<!-- 15 -->
<g id="node16" class="node"><title>15</title>
<polygon fill="#e58139" stroke="black" points="998,-53 870,-53 870,-0 998,-0 998,-53"/>
<text text-anchor="middle" x="934" y="-37.8" font-family="Times,serif" font-size="14.00">samples = 1</text>
<text text-anchor="middle" x="934" y="-22.8" font-family="Times,serif" font-size="14.00">value = [1, 0, 0, 0]</text>
<text text-anchor="middle" x="934" y="-7.8" font-family="Times,serif" font-size="14.00">class = costumbrista</text>
</g>
<!-- 14&#45;&gt;15 -->
<g id="edge15" class="edge"><title>14&#45;&gt;15</title>
<path fill="none" stroke="black" d="M934,-88.9485C934,-80.7153 934,-71.848 934,-63.4814"/>
<polygon fill="black" stroke="black" points="937.5,-63.2367 934,-53.2367 930.5,-63.2367 937.5,-63.2367"/>
</g>
<!-- 16 -->
<g id="node17" class="node"><title>16</title>
<polygon fill="#47e539" stroke="black" points="1136,-53 1016,-53 1016,-0 1136,-0 1136,-53"/>
<text text-anchor="middle" x="1076" y="-37.8" font-family="Times,serif" font-size="14.00">samples = 1</text>
<text text-anchor="middle" x="1076" y="-22.8" font-family="Times,serif" font-size="14.00">value = [0, 1, 0, 0]</text>
<text text-anchor="middle" x="1076" y="-7.8" font-family="Times,serif" font-size="14.00">class = historical</text>
</g>
<!-- 14&#45;&gt;16 -->
<g id="edge16" class="edge"><title>14&#45;&gt;16</title>
<path fill="none" stroke="black" d="M983.665,-88.9485C998.373,-79.1601 1014.43,-68.4756 1028.96,-58.8015"/>
<polygon fill="black" stroke="black" points="1030.94,-61.6907 1037.33,-53.2367 1027.06,-55.8632 1030.94,-61.6907"/>
</g>
<!-- 18 -->
<g id="node19" class="node"><title>18</title>
<polygon fill="#e58139" fill-opacity="0.917647" stroke="black" points="1327,-261 1169,-261 1169,-193 1327,-193 1327,-261"/>
<text text-anchor="middle" x="1248" y="-245.8" font-family="Times,serif" font-size="14.00">negative_NRC &lt;= 5.0831</text>
<text text-anchor="middle" x="1248" y="-230.8" font-family="Times,serif" font-size="14.00">samples = 13</text>
<text text-anchor="middle" x="1248" y="-215.8" font-family="Times,serif" font-size="14.00">value = [12, 0, 0, 1]</text>
<text text-anchor="middle" x="1248" y="-200.8" font-family="Times,serif" font-size="14.00">class = costumbrista</text>
</g>
<!-- 17&#45;&gt;18 -->
<g id="edge18" class="edge"><title>17&#45;&gt;18</title>
<path fill="none" stroke="black" d="M1315.53,-296.884C1306.71,-287.887 1297.06,-278.041 1287.88,-268.678"/>
<polygon fill="black" stroke="black" points="1290.15,-265.99 1280.65,-261.299 1285.15,-270.89 1290.15,-265.99"/>
</g>
<!-- 21 -->
<g id="node22" class="node"><title>21</title>
<polygon fill="#d739e5" fill-opacity="0.454902" stroke="black" points="1553,-261 1345,-261 1345,-193 1553,-193 1553,-261"/>
<text text-anchor="middle" x="1449" y="-245.8" font-family="Times,serif" font-size="14.00">narrated_neutral_NRC &lt;= 17.5616</text>
<text text-anchor="middle" x="1449" y="-230.8" font-family="Times,serif" font-size="14.00">samples = 28</text>
<text text-anchor="middle" x="1449" y="-215.8" font-family="Times,serif" font-size="14.00">value = [6, 3, 3, 16]</text>
<text text-anchor="middle" x="1449" y="-200.8" font-family="Times,serif" font-size="14.00">class = sociopolitical</text>
</g>
<!-- 17&#45;&gt;21 -->
<g id="edge21" class="edge"><title>17&#45;&gt;21</title>
<path fill="none" stroke="black" d="M1380.79,-296.884C1389.7,-287.887 1399.45,-278.041 1408.72,-268.678"/>
<polygon fill="black" stroke="black" points="1411.48,-270.868 1416.03,-261.299 1406.5,-265.943 1411.48,-270.868"/>
</g>
<!-- 19 -->
<g id="node20" class="node"><title>19</title>
<polygon fill="#d739e5" stroke="black" points="1174.5,-149.5 1043.5,-149.5 1043.5,-96.5 1174.5,-96.5 1174.5,-149.5"/>
<text text-anchor="middle" x="1109" y="-134.3" font-family="Times,serif" font-size="14.00">samples = 1</text>
<text text-anchor="middle" x="1109" y="-119.3" font-family="Times,serif" font-size="14.00">value = [0, 0, 0, 1]</text>
<text text-anchor="middle" x="1109" y="-104.3" font-family="Times,serif" font-size="14.00">class = sociopolitical</text>
</g>
<!-- 18&#45;&gt;19 -->
<g id="edge19" class="edge"><title>18&#45;&gt;19</title>
<path fill="none" stroke="black" d="M1202.87,-192.884C1186.53,-180.896 1168.14,-167.399 1151.99,-155.549"/>
<polygon fill="black" stroke="black" points="1153.91,-152.614 1143.78,-149.52 1149.77,-158.258 1153.91,-152.614"/>
</g>
<!-- 20 -->
<g id="node21" class="node"><title>20</title>
<polygon fill="#e58139" stroke="black" points="1321,-149.5 1193,-149.5 1193,-96.5 1321,-96.5 1321,-149.5"/>
<text text-anchor="middle" x="1257" y="-134.3" font-family="Times,serif" font-size="14.00">samples = 12</text>
<text text-anchor="middle" x="1257" y="-119.3" font-family="Times,serif" font-size="14.00">value = [12, 0, 0, 0]</text>
<text text-anchor="middle" x="1257" y="-104.3" font-family="Times,serif" font-size="14.00">class = costumbrista</text>
</g>
<!-- 18&#45;&gt;20 -->
<g id="edge20" class="edge"><title>18&#45;&gt;20</title>
<path fill="none" stroke="black" d="M1250.92,-192.884C1251.86,-182.216 1252.91,-170.352 1253.87,-159.519"/>
<polygon fill="black" stroke="black" points="1257.36,-159.789 1254.75,-149.52 1250.38,-159.174 1257.36,-159.789"/>
</g>
<!-- 22 -->
<g id="node23" class="node"><title>22</title>
<polygon fill="#e58139" fill-opacity="0.090196" stroke="black" points="1540.5,-157 1339.5,-157 1339.5,-89 1540.5,-89 1540.5,-157"/>
<text text-anchor="middle" x="1440" y="-141.8" font-family="Times,serif" font-size="14.00">Surprise_NRC_speech &lt;= 0.2586</text>
<text text-anchor="middle" x="1440" y="-126.8" font-family="Times,serif" font-size="14.00">samples = 15</text>
<text text-anchor="middle" x="1440" y="-111.8" font-family="Times,serif" font-size="14.00">value = [5, 3, 3, 4]</text>
<text text-anchor="middle" x="1440" y="-96.8" font-family="Times,serif" font-size="14.00">class = costumbrista</text>
</g>
<!-- 21&#45;&gt;22 -->
<g id="edge22" class="edge"><title>21&#45;&gt;22</title>
<path fill="none" stroke="black" d="M1446.08,-192.884C1445.36,-184.778 1444.59,-175.982 1443.84,-167.472"/>
<polygon fill="black" stroke="black" points="1447.3,-166.953 1442.94,-157.299 1440.33,-167.568 1447.3,-166.953"/>
</g>
<!-- 25 -->
<g id="node26" class="node"><title>25</title>
<polygon fill="#d739e5" fill-opacity="0.917647" stroke="black" points="1739.5,-157 1558.5,-157 1558.5,-89 1739.5,-89 1739.5,-157"/>
<text text-anchor="middle" x="1649" y="-141.8" font-family="Times,serif" font-size="14.00">Fear_NRC_narrated &lt;= 4.001</text>
<text text-anchor="middle" x="1649" y="-126.8" font-family="Times,serif" font-size="14.00">samples = 13</text>
<text text-anchor="middle" x="1649" y="-111.8" font-family="Times,serif" font-size="14.00">value = [1, 0, 0, 12]</text>
<text text-anchor="middle" x="1649" y="-96.8" font-family="Times,serif" font-size="14.00">class = sociopolitical</text>
</g>
<!-- 21&#45;&gt;25 -->
<g id="edge25" class="edge"><title>21&#45;&gt;25</title>
<path fill="none" stroke="black" d="M1513.93,-192.884C1533.42,-182.946 1554.94,-171.971 1574.97,-161.757"/>
<polygon fill="black" stroke="black" points="1576.73,-164.786 1584.05,-157.125 1573.55,-158.55 1576.73,-164.786"/>
</g>
<!-- 23 -->
<g id="node24" class="node"><title>23</title>
<polygon fill="#e58139" stroke="black" points="1386,-53 1258,-53 1258,-0 1386,-0 1386,-53"/>
<text text-anchor="middle" x="1322" y="-37.8" font-family="Times,serif" font-size="14.00">samples = 4</text>
<text text-anchor="middle" x="1322" y="-22.8" font-family="Times,serif" font-size="14.00">value = [4, 0, 0, 0]</text>
<text text-anchor="middle" x="1322" y="-7.8" font-family="Times,serif" font-size="14.00">class = costumbrista</text>
</g>
<!-- 22&#45;&gt;23 -->
<g id="edge23" class="edge"><title>22&#45;&gt;23</title>
<path fill="none" stroke="black" d="M1398.73,-88.9485C1386.85,-79.4346 1373.91,-69.074 1362.1,-59.6175"/>
<polygon fill="black" stroke="black" points="1364.13,-56.7558 1354.14,-53.2367 1359.75,-62.2196 1364.13,-56.7558"/>
</g>
<!-- 24 -->
<g id="node25" class="node"><title>24</title>
<polygon fill="#d739e5" fill-opacity="0.125490" stroke="black" points="1535.5,-53 1404.5,-53 1404.5,-0 1535.5,-0 1535.5,-53"/>
<text text-anchor="middle" x="1470" y="-37.8" font-family="Times,serif" font-size="14.00">samples = 11</text>
<text text-anchor="middle" x="1470" y="-22.8" font-family="Times,serif" font-size="14.00">value = [1, 3, 3, 4]</text>
<text text-anchor="middle" x="1470" y="-7.8" font-family="Times,serif" font-size="14.00">class = sociopolitical</text>
</g>
<!-- 22&#45;&gt;24 -->
<g id="edge24" class="edge"><title>22&#45;&gt;24</title>
<path fill="none" stroke="black" d="M1450.49,-88.9485C1453.16,-80.5323 1456.05,-71.4536 1458.75,-62.9243"/>
<polygon fill="black" stroke="black" points="1462.14,-63.827 1461.83,-53.2367 1455.47,-61.7089 1462.14,-63.827"/>
</g>
<!-- 26 -->
<g id="node27" class="node"><title>26</title>
<polygon fill="#d739e5" stroke="black" points="1699.5,-53 1568.5,-53 1568.5,-0 1699.5,-0 1699.5,-53"/>
<text text-anchor="middle" x="1634" y="-37.8" font-family="Times,serif" font-size="14.00">samples = 12</text>
<text text-anchor="middle" x="1634" y="-22.8" font-family="Times,serif" font-size="14.00">value = [0, 0, 0, 12]</text>
<text text-anchor="middle" x="1634" y="-7.8" font-family="Times,serif" font-size="14.00">class = sociopolitical</text>
</g>
<!-- 25&#45;&gt;26 -->
<g id="edge26" class="edge"><title>25&#45;&gt;26</title>
<path fill="none" stroke="black" d="M1643.75,-88.9485C1642.43,-80.6238 1641.01,-71.6509 1639.67,-63.2027"/>
<polygon fill="black" stroke="black" points="1643.11,-62.5643 1638.09,-53.2367 1636.2,-63.6618 1643.11,-62.5643"/>
</g>
<!-- 27 -->
<g id="node28" class="node"><title>27</title>
<polygon fill="#e58139" stroke="black" points="1846,-53 1718,-53 1718,-0 1846,-0 1846,-53"/>
<text text-anchor="middle" x="1782" y="-37.8" font-family="Times,serif" font-size="14.00">samples = 1</text>
<text text-anchor="middle" x="1782" y="-22.8" font-family="Times,serif" font-size="14.00">value = [1, 0, 0, 0]</text>
<text text-anchor="middle" x="1782" y="-7.8" font-family="Times,serif" font-size="14.00">class = costumbrista</text>
</g>
<!-- 25&#45;&gt;27 -->
<g id="edge27" class="edge"><title>25&#45;&gt;27</title>
<path fill="none" stroke="black" d="M1695.52,-88.9485C1709.16,-79.2516 1724.05,-68.6752 1737.56,-59.073"/>
<polygon fill="black" stroke="black" points="1739.65,-61.882 1745.78,-53.2367 1735.6,-56.1757 1739.65,-61.882"/>
</g>
<!-- 29 -->
<g id="node30" class="node"><title>29</title>
<polygon fill="#47e539" fill-opacity="0.858824" stroke="black" points="1969.5,-365 1806.5,-365 1806.5,-297 1969.5,-297 1969.5,-365"/>
<text text-anchor="middle" x="1888" y="-349.8" font-family="Times,serif" font-size="14.00">Sadness_NRC &lt;= 13.0615</text>
<text text-anchor="middle" x="1888" y="-334.8" font-family="Times,serif" font-size="14.00">samples = 30</text>
<text text-anchor="middle" x="1888" y="-319.8" font-family="Times,serif" font-size="14.00">value = [0, 26, 2, 2]</text>
<text text-anchor="middle" x="1888" y="-304.8" font-family="Times,serif" font-size="14.00">class = historical</text>
</g>
<!-- 28&#45;&gt;29 -->
<g id="edge29" class="edge"><title>28&#45;&gt;29</title>
<path fill="none" stroke="black" d="M1888,-400.884C1888,-392.778 1888,-383.982 1888,-375.472"/>
<polygon fill="black" stroke="black" points="1891.5,-375.299 1888,-365.299 1884.5,-375.299 1891.5,-375.299"/>
</g>
<!-- 36 -->
<g id="node37" class="node"><title>36</title>
<polygon fill="#399de5" fill-opacity="0.666667" stroke="black" points="2211,-365 2053,-365 2053,-297 2211,-297 2211,-365"/>
<text text-anchor="middle" x="2132" y="-349.8" font-family="Times,serif" font-size="14.00">Surprise_NRC &lt;= 1.0502</text>
<text text-anchor="middle" x="2132" y="-334.8" font-family="Times,serif" font-size="14.00">samples = 4</text>
<text text-anchor="middle" x="2132" y="-319.8" font-family="Times,serif" font-size="14.00">value = [0, 0, 3, 1]</text>
<text text-anchor="middle" x="2132" y="-304.8" font-family="Times,serif" font-size="14.00">class = sentimental</text>
</g>
<!-- 28&#45;&gt;36 -->
<g id="edge36" class="edge"><title>28&#45;&gt;36</title>
<path fill="none" stroke="black" d="M1963.53,-402.425C1988.84,-391.847 2017.28,-379.958 2043.48,-369.003"/>
<polygon fill="black" stroke="black" points="2045.15,-372.099 2053.03,-365.013 2042.45,-365.641 2045.15,-372.099"/>
</g>
<!-- 30 -->
<g id="node31" class="node"><title>30</title>
<polygon fill="#47e539" fill-opacity="0.921569" stroke="black" points="1913,-261 1733,-261 1733,-193 1913,-193 1913,-261"/>
<text text-anchor="middle" x="1823" y="-245.8" font-family="Times,serif" font-size="14.00">Anticipation_NRC &lt;= 4.0321</text>
<text text-anchor="middle" x="1823" y="-230.8" font-family="Times,serif" font-size="14.00">samples = 28</text>
<text text-anchor="middle" x="1823" y="-215.8" font-family="Times,serif" font-size="14.00">value = [0, 26, 0, 2]</text>
<text text-anchor="middle" x="1823" y="-200.8" font-family="Times,serif" font-size="14.00">class = historical</text>
</g>
<!-- 29&#45;&gt;30 -->
<g id="edge30" class="edge"><title>29&#45;&gt;30</title>
<path fill="none" stroke="black" d="M1866.9,-296.884C1861.39,-288.243 1855.38,-278.819 1849.63,-269.793"/>
<polygon fill="black" stroke="black" points="1852.55,-267.852 1844.22,-261.299 1846.64,-271.614 1852.55,-267.852"/>
</g>
<!-- 35 -->
<g id="node36" class="node"><title>35</title>
<polygon fill="#399de5" stroke="black" points="2053,-253.5 1931,-253.5 1931,-200.5 2053,-200.5 2053,-253.5"/>
<text text-anchor="middle" x="1992" y="-238.3" font-family="Times,serif" font-size="14.00">samples = 2</text>
<text text-anchor="middle" x="1992" y="-223.3" font-family="Times,serif" font-size="14.00">value = [0, 0, 2, 0]</text>
<text text-anchor="middle" x="1992" y="-208.3" font-family="Times,serif" font-size="14.00">class = sentimental</text>
</g>
<!-- 29&#45;&gt;35 -->
<g id="edge35" class="edge"><title>29&#45;&gt;35</title>
<path fill="none" stroke="black" d="M1921.77,-296.884C1933.65,-285.226 1946.99,-272.141 1958.83,-260.532"/>
<polygon fill="black" stroke="black" points="1961.29,-263.021 1965.98,-253.52 1956.39,-258.023 1961.29,-263.021"/>
</g>
<!-- 31 -->
<g id="node32" class="node"><title>31</title>
<polygon fill="#d739e5" stroke="black" points="1888.5,-149.5 1757.5,-149.5 1757.5,-96.5 1888.5,-96.5 1888.5,-149.5"/>
<text text-anchor="middle" x="1823" y="-134.3" font-family="Times,serif" font-size="14.00">samples = 1</text>
<text text-anchor="middle" x="1823" y="-119.3" font-family="Times,serif" font-size="14.00">value = [0, 0, 0, 1]</text>
<text text-anchor="middle" x="1823" y="-104.3" font-family="Times,serif" font-size="14.00">class = sociopolitical</text>
</g>
<!-- 30&#45;&gt;31 -->
<g id="edge31" class="edge"><title>30&#45;&gt;31</title>
<path fill="none" stroke="black" d="M1823,-192.884C1823,-182.326 1823,-170.597 1823,-159.854"/>
<polygon fill="black" stroke="black" points="1826.5,-159.52 1823,-149.52 1819.5,-159.52 1826.5,-159.52"/>
</g>
<!-- 32 -->
<g id="node33" class="node"><title>32</title>
<polygon fill="#47e539" fill-opacity="0.960784" stroke="black" points="2033.5,-157 1906.5,-157 1906.5,-89 2033.5,-89 2033.5,-157"/>
<text text-anchor="middle" x="1970" y="-141.8" font-family="Times,serif" font-size="14.00">Joy_NRC &lt;= 0.342</text>
<text text-anchor="middle" x="1970" y="-126.8" font-family="Times,serif" font-size="14.00">samples = 27</text>
<text text-anchor="middle" x="1970" y="-111.8" font-family="Times,serif" font-size="14.00">value = [0, 26, 0, 1]</text>
<text text-anchor="middle" x="1970" y="-96.8" font-family="Times,serif" font-size="14.00">class = historical</text>
</g>
<!-- 30&#45;&gt;32 -->
<g id="edge32" class="edge"><title>30&#45;&gt;32</title>
<path fill="none" stroke="black" d="M1870.73,-192.884C1884.53,-183.304 1899.73,-172.761 1913.99,-162.864"/>
<polygon fill="black" stroke="black" points="1916.04,-165.701 1922.26,-157.125 1912.05,-159.95 1916.04,-165.701"/>
</g>
<!-- 33 -->
<g id="node34" class="node"><title>33</title>
<polygon fill="#d739e5" stroke="black" points="2015.5,-53 1884.5,-53 1884.5,-0 2015.5,-0 2015.5,-53"/>
<text text-anchor="middle" x="1950" y="-37.8" font-family="Times,serif" font-size="14.00">samples = 1</text>
<text text-anchor="middle" x="1950" y="-22.8" font-family="Times,serif" font-size="14.00">value = [0, 0, 0, 1]</text>
<text text-anchor="middle" x="1950" y="-7.8" font-family="Times,serif" font-size="14.00">class = sociopolitical</text>
</g>
<!-- 32&#45;&gt;33 -->
<g id="edge33" class="edge"><title>32&#45;&gt;33</title>
<path fill="none" stroke="black" d="M1963,-88.9485C1961.24,-80.6238 1959.34,-71.6509 1957.56,-63.2027"/>
<polygon fill="black" stroke="black" points="1960.94,-62.2953 1955.45,-53.2367 1954.09,-63.7447 1960.94,-62.2953"/>
</g>
<!-- 34 -->
<g id="node35" class="node"><title>34</title>
<polygon fill="#47e539" stroke="black" points="2160.5,-53 2033.5,-53 2033.5,-0 2160.5,-0 2160.5,-53"/>
<text text-anchor="middle" x="2097" y="-37.8" font-family="Times,serif" font-size="14.00">samples = 26</text>
<text text-anchor="middle" x="2097" y="-22.8" font-family="Times,serif" font-size="14.00">value = [0, 26, 0, 0]</text>
<text text-anchor="middle" x="2097" y="-7.8" font-family="Times,serif" font-size="14.00">class = historical</text>
</g>
<!-- 32&#45;&gt;34 -->
<g id="edge34" class="edge"><title>32&#45;&gt;34</title>
<path fill="none" stroke="black" d="M2014.42,-88.9485C2027.33,-79.3431 2041.4,-68.8747 2054.2,-59.345"/>
<polygon fill="black" stroke="black" points="2056.48,-62.0143 2062.41,-53.2367 2052.3,-56.3984 2056.48,-62.0143"/>
</g>
<!-- 37 -->
<g id="node38" class="node"><title>37</title>
<polygon fill="#399de5" stroke="black" points="2193,-253.5 2071,-253.5 2071,-200.5 2193,-200.5 2193,-253.5"/>
<text text-anchor="middle" x="2132" y="-238.3" font-family="Times,serif" font-size="14.00">samples = 3</text>
<text text-anchor="middle" x="2132" y="-223.3" font-family="Times,serif" font-size="14.00">value = [0, 0, 3, 0]</text>
<text text-anchor="middle" x="2132" y="-208.3" font-family="Times,serif" font-size="14.00">class = sentimental</text>
</g>
<!-- 36&#45;&gt;37 -->
<g id="edge37" class="edge"><title>36&#45;&gt;37</title>
<path fill="none" stroke="black" d="M2132,-296.884C2132,-286.326 2132,-274.597 2132,-263.854"/>
<polygon fill="black" stroke="black" points="2135.5,-263.52 2132,-253.52 2128.5,-263.52 2135.5,-263.52"/>
</g>
<!-- 38 -->
<g id="node39" class="node"><title>38</title>
<polygon fill="#d739e5" stroke="black" points="2342.5,-253.5 2211.5,-253.5 2211.5,-200.5 2342.5,-200.5 2342.5,-253.5"/>
<text text-anchor="middle" x="2277" y="-238.3" font-family="Times,serif" font-size="14.00">samples = 1</text>
<text text-anchor="middle" x="2277" y="-223.3" font-family="Times,serif" font-size="14.00">value = [0, 0, 0, 1]</text>
<text text-anchor="middle" x="2277" y="-208.3" font-family="Times,serif" font-size="14.00">class = sociopolitical</text>
</g>
<!-- 36&#45;&gt;38 -->
<g id="edge38" class="edge"><title>36&#45;&gt;38</title>
<path fill="none" stroke="black" d="M2179.08,-296.884C2196.12,-284.896 2215.31,-271.399 2232.15,-259.549"/>
<polygon fill="black" stroke="black" points="2234.56,-262.136 2240.72,-253.52 2230.53,-256.411 2234.56,-262.136"/>
</g>
</g>
</svg>
