<?xml version="1.0" encoding="UTF-8" standalone="no"?>
<!DOCTYPE svg PUBLIC "-//W3C//DTD SVG 1.1//EN"
 "http://www.w3.org/Graphics/SVG/1.1/DTD/svg11.dtd">
<!-- Generated by graphviz version 2.38.0 (20140413.2041)
 -->
<!-- Title: Tree Pages: 1 -->
<svg width="1708pt" height="581pt"
 viewBox="0.00 0.00 1707.50 581.00" xmlns="http://www.w3.org/2000/svg" xmlns:xlink="http://www.w3.org/1999/xlink">
<g id="graph0" class="graph" transform="scale(1 1) rotate(0) translate(4 577)">
<title>Tree</title>
<polygon fill="white" stroke="none" points="-4,4 -4,-577 1703.5,-577 1703.5,4 -4,4"/>
<!-- 0 -->
<g id="node1" class="node"><title>0</title>
<polygon fill="#39e581" fill-opacity="0.054902" stroke="black" points="1321.5,-573 1108.5,-573 1108.5,-505 1321.5,-505 1321.5,-573"/>
<text text-anchor="middle" x="1215" y="-557.8" font-family="Times,serif" font-size="14.00">speech_emotional_WN &lt;= 13.7734</text>
<text text-anchor="middle" x="1215" y="-542.8" font-family="Times,serif" font-size="14.00">samples = 112</text>
<text text-anchor="middle" x="1215" y="-527.8" font-family="Times,serif" font-size="14.00">value = [41, 45, 26]</text>
<text text-anchor="middle" x="1215" y="-512.8" font-family="Times,serif" font-size="14.00">class = 0.5</text>
</g>
<!-- 1 -->
<g id="node2" class="node"><title>1</title>
<polygon fill="#39e581" fill-opacity="0.094118" stroke="black" points="1190,-469 1036,-469 1036,-401 1190,-401 1190,-469"/>
<text text-anchor="middle" x="1113" y="-453.8" font-family="Times,serif" font-size="14.00">negative_WN &lt;= 4.6893</text>
<text text-anchor="middle" x="1113" y="-438.8" font-family="Times,serif" font-size="14.00">samples = 91</text>
<text text-anchor="middle" x="1113" y="-423.8" font-family="Times,serif" font-size="14.00">value = [38, 43, 10]</text>
<text text-anchor="middle" x="1113" y="-408.8" font-family="Times,serif" font-size="14.00">class = 0.5</text>
</g>
<!-- 0&#45;&gt;1 -->
<g id="edge1" class="edge"><title>0&#45;&gt;1</title>
<path fill="none" stroke="black" d="M1181.88,-504.884C1172.8,-495.798 1162.85,-485.845 1153.4,-476.4"/>
<polygon fill="black" stroke="black" points="1155.85,-473.896 1146.3,-469.299 1150.9,-478.845 1155.85,-473.896"/>
<text text-anchor="middle" x="1146.3" y="-490.599" font-family="Times,serif" font-size="14.00">True</text>
</g>
<!-- 24 -->
<g id="node25" class="node"><title>24</title>
<polygon fill="#8139e5" fill-opacity="0.721569" stroke="black" points="1403,-469 1233,-469 1233,-401 1403,-401 1403,-469"/>
<text text-anchor="middle" x="1318" y="-453.8" font-family="Times,serif" font-size="14.00">emotional_WN &lt;= 23.2626</text>
<text text-anchor="middle" x="1318" y="-438.8" font-family="Times,serif" font-size="14.00">samples = 21</text>
<text text-anchor="middle" x="1318" y="-423.8" font-family="Times,serif" font-size="14.00">value = [3, 2, 16]</text>
<text text-anchor="middle" x="1318" y="-408.8" font-family="Times,serif" font-size="14.00">class = 1.0</text>
</g>
<!-- 0&#45;&gt;24 -->
<g id="edge24" class="edge"><title>0&#45;&gt;24</title>
<path fill="none" stroke="black" d="M1248.44,-504.884C1257.62,-495.798 1267.67,-485.845 1277.2,-476.4"/>
<polygon fill="black" stroke="black" points="1279.73,-478.823 1284.37,-469.299 1274.81,-473.849 1279.73,-478.823"/>
<text text-anchor="middle" x="1284.25" y="-490.599" font-family="Times,serif" font-size="14.00">False</text>
</g>
<!-- 2 -->
<g id="node3" class="node"><title>2</title>
<polygon fill="#e58139" fill-opacity="0.360784" stroke="black" points="740,-365 582,-365 582,-297 740,-297 740,-365"/>
<text text-anchor="middle" x="661" y="-349.8" font-family="Times,serif" font-size="14.00">positive_WN &lt;= 10.7334</text>
<text text-anchor="middle" x="661" y="-334.8" font-family="Times,serif" font-size="14.00">samples = 55</text>
<text text-anchor="middle" x="661" y="-319.8" font-family="Times,serif" font-size="14.00">value = [30, 16, 9]</text>
<text text-anchor="middle" x="661" y="-304.8" font-family="Times,serif" font-size="14.00">class = 0.0</text>
</g>
<!-- 1&#45;&gt;2 -->
<g id="edge2" class="edge"><title>1&#45;&gt;2</title>
<path fill="none" stroke="black" d="M1035.81,-416.581C956.582,-398.702 833.427,-370.911 750.106,-352.108"/>
<polygon fill="black" stroke="black" points="750.673,-348.648 740.147,-349.861 749.132,-355.476 750.673,-348.648"/>
</g>
<!-- 15 -->
<g id="node16" class="node"><title>15</title>
<polygon fill="#39e581" fill-opacity="0.678431" stroke="black" points="1214.5,-365 1011.5,-365 1011.5,-297 1214.5,-297 1214.5,-365"/>
<text text-anchor="middle" x="1113" y="-349.8" font-family="Times,serif" font-size="14.00">narrated_neutral_WN &lt;= 48.2614</text>
<text text-anchor="middle" x="1113" y="-334.8" font-family="Times,serif" font-size="14.00">samples = 36</text>
<text text-anchor="middle" x="1113" y="-319.8" font-family="Times,serif" font-size="14.00">value = [8, 27, 1]</text>
<text text-anchor="middle" x="1113" y="-304.8" font-family="Times,serif" font-size="14.00">class = 0.5</text>
</g>
<!-- 1&#45;&gt;15 -->
<g id="edge15" class="edge"><title>1&#45;&gt;15</title>
<path fill="none" stroke="black" d="M1113,-400.884C1113,-392.778 1113,-383.982 1113,-375.472"/>
<polygon fill="black" stroke="black" points="1116.5,-375.299 1113,-365.299 1109.5,-375.299 1116.5,-375.299"/>
</g>
<!-- 3 -->
<g id="node4" class="node"><title>3</title>
<polygon fill="#e58139" fill-opacity="0.513725" stroke="black" points="465,-261 251,-261 251,-193 465,-193 465,-261"/>
<text text-anchor="middle" x="358" y="-245.8" font-family="Times,serif" font-size="14.00">narrated_emotional_WN &lt;= 8.0126</text>
<text text-anchor="middle" x="358" y="-230.8" font-family="Times,serif" font-size="14.00">samples = 47</text>
<text text-anchor="middle" x="358" y="-215.8" font-family="Times,serif" font-size="14.00">value = [29, 10, 8]</text>
<text text-anchor="middle" x="358" y="-200.8" font-family="Times,serif" font-size="14.00">class = 0.0</text>
</g>
<!-- 2&#45;&gt;3 -->
<g id="edge3" class="edge"><title>2&#45;&gt;3</title>
<path fill="none" stroke="black" d="M581.786,-303.334C546.386,-291.417 504.108,-277.185 465.88,-264.316"/>
<polygon fill="black" stroke="black" points="466.849,-260.949 456.255,-261.076 464.616,-267.584 466.849,-260.949"/>
</g>
<!-- 10 -->
<g id="node11" class="node"><title>10</title>
<polygon fill="#39e581" fill-opacity="0.713725" stroke="black" points="764,-261 558,-261 558,-193 764,-193 764,-261"/>
<text text-anchor="middle" x="661" y="-245.8" font-family="Times,serif" font-size="14.00">speech_emotional_WN &lt;= 3.8036</text>
<text text-anchor="middle" x="661" y="-230.8" font-family="Times,serif" font-size="14.00">samples = 8</text>
<text text-anchor="middle" x="661" y="-215.8" font-family="Times,serif" font-size="14.00">value = [1, 6, 1]</text>
<text text-anchor="middle" x="661" y="-200.8" font-family="Times,serif" font-size="14.00">class = 0.5</text>
</g>
<!-- 2&#45;&gt;10 -->
<g id="edge10" class="edge"><title>2&#45;&gt;10</title>
<path fill="none" stroke="black" d="M661,-296.884C661,-288.778 661,-279.982 661,-271.472"/>
<polygon fill="black" stroke="black" points="664.5,-271.299 661,-261.299 657.5,-271.299 664.5,-271.299"/>
</g>
<!-- 4 -->
<g id="node5" class="node"><title>4</title>
<polygon fill="#8139e5" fill-opacity="0.749020" stroke="black" points="253,-157 101,-157 101,-89 253,-89 253,-157"/>
<text text-anchor="middle" x="177" y="-141.8" font-family="Times,serif" font-size="14.00">neutral_WN &lt;= 88.6522</text>
<text text-anchor="middle" x="177" y="-126.8" font-family="Times,serif" font-size="14.00">samples = 5</text>
<text text-anchor="middle" x="177" y="-111.8" font-family="Times,serif" font-size="14.00">value = [1, 0, 4]</text>
<text text-anchor="middle" x="177" y="-96.8" font-family="Times,serif" font-size="14.00">class = 1.0</text>
</g>
<!-- 3&#45;&gt;4 -->
<g id="edge4" class="edge"><title>3&#45;&gt;4</title>
<path fill="none" stroke="black" d="M299.234,-192.884C281.918,-183.125 262.826,-172.366 244.982,-162.31"/>
<polygon fill="black" stroke="black" points="246.21,-158.985 235.78,-157.125 242.774,-165.083 246.21,-158.985"/>
</g>
<!-- 7 -->
<g id="node8" class="node"><title>7</title>
<polygon fill="#e58139" fill-opacity="0.560784" stroke="black" points="419,-157 297,-157 297,-89 419,-89 419,-157"/>
<text text-anchor="middle" x="358" y="-141.8" font-family="Times,serif" font-size="14.00">speech &lt;= 44.2367</text>
<text text-anchor="middle" x="358" y="-126.8" font-family="Times,serif" font-size="14.00">samples = 42</text>
<text text-anchor="middle" x="358" y="-111.8" font-family="Times,serif" font-size="14.00">value = [28, 10, 4]</text>
<text text-anchor="middle" x="358" y="-96.8" font-family="Times,serif" font-size="14.00">class = 0.0</text>
</g>
<!-- 3&#45;&gt;7 -->
<g id="edge7" class="edge"><title>3&#45;&gt;7</title>
<path fill="none" stroke="black" d="M358,-192.884C358,-184.778 358,-175.982 358,-167.472"/>
<polygon fill="black" stroke="black" points="361.5,-167.299 358,-157.299 354.5,-167.299 361.5,-167.299"/>
</g>
<!-- 5 -->
<g id="node6" class="node"><title>5</title>
<polygon fill="#8139e5" stroke="black" points="106,-53 7.10543e-15,-53 7.10543e-15,-0 106,-0 106,-53"/>
<text text-anchor="middle" x="53" y="-37.8" font-family="Times,serif" font-size="14.00">samples = 4</text>
<text text-anchor="middle" x="53" y="-22.8" font-family="Times,serif" font-size="14.00">value = [0, 0, 4]</text>
<text text-anchor="middle" x="53" y="-7.8" font-family="Times,serif" font-size="14.00">class = 1.0</text>
</g>
<!-- 4&#45;&gt;5 -->
<g id="edge5" class="edge"><title>4&#45;&gt;5</title>
<path fill="none" stroke="black" d="M133.631,-88.9485C121.027,-79.3431 107.291,-68.8747 94.786,-59.345"/>
<polygon fill="black" stroke="black" points="96.846,-56.5144 86.7709,-53.2367 92.603,-62.0819 96.846,-56.5144"/>
</g>
<!-- 6 -->
<g id="node7" class="node"><title>6</title>
<polygon fill="#e58139" stroke="black" points="230,-53 124,-53 124,-0 230,-0 230,-53"/>
<text text-anchor="middle" x="177" y="-37.8" font-family="Times,serif" font-size="14.00">samples = 1</text>
<text text-anchor="middle" x="177" y="-22.8" font-family="Times,serif" font-size="14.00">value = [1, 0, 0]</text>
<text text-anchor="middle" x="177" y="-7.8" font-family="Times,serif" font-size="14.00">class = 0.0</text>
</g>
<!-- 4&#45;&gt;6 -->
<g id="edge6" class="edge"><title>4&#45;&gt;6</title>
<path fill="none" stroke="black" d="M177,-88.9485C177,-80.7153 177,-71.848 177,-63.4814"/>
<polygon fill="black" stroke="black" points="180.5,-63.2367 177,-53.2367 173.5,-63.2367 180.5,-63.2367"/>
</g>
<!-- 8 -->
<g id="node9" class="node"><title>8</title>
<polygon fill="#e58139" fill-opacity="0.831373" stroke="black" points="361.5,-53 248.5,-53 248.5,-0 361.5,-0 361.5,-53"/>
<text text-anchor="middle" x="305" y="-37.8" font-family="Times,serif" font-size="14.00">samples = 20</text>
<text text-anchor="middle" x="305" y="-22.8" font-family="Times,serif" font-size="14.00">value = [17, 2, 1]</text>
<text text-anchor="middle" x="305" y="-7.8" font-family="Times,serif" font-size="14.00">class = 0.0</text>
</g>
<!-- 7&#45;&gt;8 -->
<g id="edge8" class="edge"><title>7&#45;&gt;8</title>
<path fill="none" stroke="black" d="M339.463,-88.9485C334.589,-80.2579 329.319,-70.8608 324.401,-62.0917"/>
<polygon fill="black" stroke="black" points="327.379,-60.2465 319.434,-53.2367 321.273,-63.6707 327.379,-60.2465"/>
</g>
<!-- 9 -->
<g id="node10" class="node"><title>9</title>
<polygon fill="#e58139" fill-opacity="0.215686" stroke="black" points="492.5,-53 379.5,-53 379.5,-0 492.5,-0 492.5,-53"/>
<text text-anchor="middle" x="436" y="-37.8" font-family="Times,serif" font-size="14.00">samples = 22</text>
<text text-anchor="middle" x="436" y="-22.8" font-family="Times,serif" font-size="14.00">value = [11, 8, 3]</text>
<text text-anchor="middle" x="436" y="-7.8" font-family="Times,serif" font-size="14.00">class = 0.0</text>
</g>
<!-- 7&#45;&gt;9 -->
<g id="edge9" class="edge"><title>7&#45;&gt;9</title>
<path fill="none" stroke="black" d="M385.281,-88.9485C392.756,-79.892 400.864,-70.0682 408.36,-60.9875"/>
<polygon fill="black" stroke="black" points="411.091,-63.1769 414.757,-53.2367 405.692,-58.721 411.091,-63.1769"/>
</g>
<!-- 11 -->
<g id="node12" class="node"><title>11</title>
<polygon fill="none" stroke="black" points="665.5,-157 462.5,-157 462.5,-89 665.5,-89 665.5,-157"/>
<text text-anchor="middle" x="564" y="-141.8" font-family="Times,serif" font-size="14.00">narrated_neutral_WN &lt;= 35.6348</text>
<text text-anchor="middle" x="564" y="-126.8" font-family="Times,serif" font-size="14.00">samples = 2</text>
<text text-anchor="middle" x="564" y="-111.8" font-family="Times,serif" font-size="14.00">value = [1, 0, 1]</text>
<text text-anchor="middle" x="564" y="-96.8" font-family="Times,serif" font-size="14.00">class = 0.0</text>
</g>
<!-- 10&#45;&gt;11 -->
<g id="edge11" class="edge"><title>10&#45;&gt;11</title>
<path fill="none" stroke="black" d="M629.507,-192.884C620.951,-183.887 611.588,-174.041 602.684,-164.678"/>
<polygon fill="black" stroke="black" points="605.095,-162.134 595.667,-157.299 600.022,-166.958 605.095,-162.134"/>
</g>
<!-- 14 -->
<g id="node15" class="node"><title>14</title>
<polygon fill="#39e581" stroke="black" points="789,-149.5 683,-149.5 683,-96.5 789,-96.5 789,-149.5"/>
<text text-anchor="middle" x="736" y="-134.3" font-family="Times,serif" font-size="14.00">samples = 6</text>
<text text-anchor="middle" x="736" y="-119.3" font-family="Times,serif" font-size="14.00">value = [0, 6, 0]</text>
<text text-anchor="middle" x="736" y="-104.3" font-family="Times,serif" font-size="14.00">class = 0.5</text>
</g>
<!-- 10&#45;&gt;14 -->
<g id="edge14" class="edge"><title>10&#45;&gt;14</title>
<path fill="none" stroke="black" d="M685.35,-192.884C693.599,-181.666 702.819,-169.126 711.109,-157.852"/>
<polygon fill="black" stroke="black" points="714.131,-159.65 717.235,-149.52 708.492,-155.503 714.131,-159.65"/>
</g>
<!-- 12 -->
<g id="node13" class="node"><title>12</title>
<polygon fill="#8139e5" stroke="black" points="617,-53 511,-53 511,-0 617,-0 617,-53"/>
<text text-anchor="middle" x="564" y="-37.8" font-family="Times,serif" font-size="14.00">samples = 1</text>
<text text-anchor="middle" x="564" y="-22.8" font-family="Times,serif" font-size="14.00">value = [0, 0, 1]</text>
<text text-anchor="middle" x="564" y="-7.8" font-family="Times,serif" font-size="14.00">class = 1.0</text>
</g>
<!-- 11&#45;&gt;12 -->
<g id="edge12" class="edge"><title>11&#45;&gt;12</title>
<path fill="none" stroke="black" d="M564,-88.9485C564,-80.7153 564,-71.848 564,-63.4814"/>
<polygon fill="black" stroke="black" points="567.5,-63.2367 564,-53.2367 560.5,-63.2367 567.5,-63.2367"/>
</g>
<!-- 13 -->
<g id="node14" class="node"><title>13</title>
<polygon fill="#e58139" stroke="black" points="741,-53 635,-53 635,-0 741,-0 741,-53"/>
<text text-anchor="middle" x="688" y="-37.8" font-family="Times,serif" font-size="14.00">samples = 1</text>
<text text-anchor="middle" x="688" y="-22.8" font-family="Times,serif" font-size="14.00">value = [1, 0, 0]</text>
<text text-anchor="middle" x="688" y="-7.8" font-family="Times,serif" font-size="14.00">class = 0.0</text>
</g>
<!-- 11&#45;&gt;13 -->
<g id="edge13" class="edge"><title>11&#45;&gt;13</title>
<path fill="none" stroke="black" d="M607.369,-88.9485C619.973,-79.3431 633.709,-68.8747 646.214,-59.345"/>
<polygon fill="black" stroke="black" points="648.397,-62.0819 654.229,-53.2367 644.154,-56.5144 648.397,-62.0819"/>
</g>
<!-- 16 -->
<g id="node17" class="node"><title>16</title>
<polygon fill="#39e581" fill-opacity="0.886275" stroke="black" points="1162,-261 966,-261 966,-193 1162,-193 1162,-261"/>
<text text-anchor="middle" x="1064" y="-245.8" font-family="Times,serif" font-size="14.00">speech_neutral_WN &lt;= 25.1298</text>
<text text-anchor="middle" x="1064" y="-230.8" font-family="Times,serif" font-size="14.00">samples = 28</text>
<text text-anchor="middle" x="1064" y="-215.8" font-family="Times,serif" font-size="14.00">value = [2, 25, 1]</text>
<text text-anchor="middle" x="1064" y="-200.8" font-family="Times,serif" font-size="14.00">class = 0.5</text>
</g>
<!-- 15&#45;&gt;16 -->
<g id="edge16" class="edge"><title>15&#45;&gt;16</title>
<path fill="none" stroke="black" d="M1097.09,-296.884C1093.03,-288.422 1088.6,-279.207 1084.35,-270.352"/>
<polygon fill="black" stroke="black" points="1087.48,-268.798 1080,-261.299 1081.17,-271.829 1087.48,-268.798"/>
</g>
<!-- 21 -->
<g id="node22" class="node"><title>21</title>
<polygon fill="#e58139" fill-opacity="0.666667" stroke="black" points="1324,-261 1180,-261 1180,-193 1324,-193 1324,-261"/>
<text text-anchor="middle" x="1252" y="-245.8" font-family="Times,serif" font-size="14.00">positive_WN &lt;= 4.212</text>
<text text-anchor="middle" x="1252" y="-230.8" font-family="Times,serif" font-size="14.00">samples = 8</text>
<text text-anchor="middle" x="1252" y="-215.8" font-family="Times,serif" font-size="14.00">value = [6, 2, 0]</text>
<text text-anchor="middle" x="1252" y="-200.8" font-family="Times,serif" font-size="14.00">class = 0.0</text>
</g>
<!-- 15&#45;&gt;21 -->
<g id="edge21" class="edge"><title>15&#45;&gt;21</title>
<path fill="none" stroke="black" d="M1158.13,-296.884C1171,-287.442 1185.14,-277.064 1198.46,-267.292"/>
<polygon fill="black" stroke="black" points="1200.63,-270.037 1206.62,-261.299 1196.49,-264.394 1200.63,-270.037"/>
</g>
<!-- 17 -->
<g id="node18" class="node"><title>17</title>
<polygon fill="#39e581" fill-opacity="0.623529" stroke="black" points="1019.5,-157 806.5,-157 806.5,-89 1019.5,-89 1019.5,-157"/>
<text text-anchor="middle" x="913" y="-141.8" font-family="Times,serif" font-size="14.00">speech_emotional_WN &lt;= 10.7002</text>
<text text-anchor="middle" x="913" y="-126.8" font-family="Times,serif" font-size="14.00">samples = 10</text>
<text text-anchor="middle" x="913" y="-111.8" font-family="Times,serif" font-size="14.00">value = [2, 7, 1]</text>
<text text-anchor="middle" x="913" y="-96.8" font-family="Times,serif" font-size="14.00">class = 0.5</text>
</g>
<!-- 16&#45;&gt;17 -->
<g id="edge17" class="edge"><title>16&#45;&gt;17</title>
<path fill="none" stroke="black" d="M1014.97,-192.884C1000.79,-183.304 985.185,-172.761 970.535,-162.864"/>
<polygon fill="black" stroke="black" points="972.283,-159.822 962.038,-157.125 968.365,-165.623 972.283,-159.822"/>
</g>
<!-- 20 -->
<g id="node21" class="node"><title>20</title>
<polygon fill="#39e581" stroke="black" points="1150.5,-149.5 1037.5,-149.5 1037.5,-96.5 1150.5,-96.5 1150.5,-149.5"/>
<text text-anchor="middle" x="1094" y="-134.3" font-family="Times,serif" font-size="14.00">samples = 18</text>
<text text-anchor="middle" x="1094" y="-119.3" font-family="Times,serif" font-size="14.00">value = [0, 18, 0]</text>
<text text-anchor="middle" x="1094" y="-104.3" font-family="Times,serif" font-size="14.00">class = 0.5</text>
</g>
<!-- 16&#45;&gt;20 -->
<g id="edge20" class="edge"><title>16&#45;&gt;20</title>
<path fill="none" stroke="black" d="M1073.74,-192.884C1076.91,-182.106 1080.44,-170.108 1083.65,-159.184"/>
<polygon fill="black" stroke="black" points="1087.03,-160.101 1086.49,-149.52 1080.31,-158.126 1087.03,-160.101"/>
</g>
<!-- 18 -->
<g id="node19" class="node"><title>18</title>
<polygon fill="#39e581" fill-opacity="0.858824" stroke="black" points="916,-53 810,-53 810,-0 916,-0 916,-53"/>
<text text-anchor="middle" x="863" y="-37.8" font-family="Times,serif" font-size="14.00">samples = 8</text>
<text text-anchor="middle" x="863" y="-22.8" font-family="Times,serif" font-size="14.00">value = [0, 7, 1]</text>
<text text-anchor="middle" x="863" y="-7.8" font-family="Times,serif" font-size="14.00">class = 0.5</text>
</g>
<!-- 17&#45;&gt;18 -->
<g id="edge18" class="edge"><title>17&#45;&gt;18</title>
<path fill="none" stroke="black" d="M895.512,-88.9485C890.914,-80.2579 885.942,-70.8608 881.303,-62.0917"/>
<polygon fill="black" stroke="black" points="884.388,-60.4389 876.617,-53.2367 878.2,-63.7126 884.388,-60.4389"/>
</g>
<!-- 19 -->
<g id="node20" class="node"><title>19</title>
<polygon fill="#e58139" stroke="black" points="1040,-53 934,-53 934,-0 1040,-0 1040,-53"/>
<text text-anchor="middle" x="987" y="-37.8" font-family="Times,serif" font-size="14.00">samples = 2</text>
<text text-anchor="middle" x="987" y="-22.8" font-family="Times,serif" font-size="14.00">value = [2, 0, 0]</text>
<text text-anchor="middle" x="987" y="-7.8" font-family="Times,serif" font-size="14.00">class = 0.0</text>
</g>
<!-- 17&#45;&gt;19 -->
<g id="edge19" class="edge"><title>17&#45;&gt;19</title>
<path fill="none" stroke="black" d="M938.882,-88.9485C945.902,-79.9834 953.511,-70.2666 960.561,-61.2629"/>
<polygon fill="black" stroke="black" points="963.437,-63.2679 966.846,-53.2367 957.925,-58.9521 963.437,-63.2679"/>
</g>
<!-- 22 -->
<g id="node23" class="node"><title>22</title>
<polygon fill="#39e581" stroke="black" points="1275,-149.5 1169,-149.5 1169,-96.5 1275,-96.5 1275,-149.5"/>
<text text-anchor="middle" x="1222" y="-134.3" font-family="Times,serif" font-size="14.00">samples = 2</text>
<text text-anchor="middle" x="1222" y="-119.3" font-family="Times,serif" font-size="14.00">value = [0, 2, 0]</text>
<text text-anchor="middle" x="1222" y="-104.3" font-family="Times,serif" font-size="14.00">class = 0.5</text>
</g>
<!-- 21&#45;&gt;22 -->
<g id="edge22" class="edge"><title>21&#45;&gt;22</title>
<path fill="none" stroke="black" d="M1242.26,-192.884C1239.09,-182.106 1235.56,-170.108 1232.35,-159.184"/>
<polygon fill="black" stroke="black" points="1235.69,-158.126 1229.51,-149.52 1228.97,-160.101 1235.69,-158.126"/>
</g>
<!-- 23 -->
<g id="node24" class="node"><title>23</title>
<polygon fill="#e58139" stroke="black" points="1399,-149.5 1293,-149.5 1293,-96.5 1399,-96.5 1399,-149.5"/>
<text text-anchor="middle" x="1346" y="-134.3" font-family="Times,serif" font-size="14.00">samples = 6</text>
<text text-anchor="middle" x="1346" y="-119.3" font-family="Times,serif" font-size="14.00">value = [6, 0, 0]</text>
<text text-anchor="middle" x="1346" y="-104.3" font-family="Times,serif" font-size="14.00">class = 0.0</text>
</g>
<!-- 21&#45;&gt;23 -->
<g id="edge23" class="edge"><title>21&#45;&gt;23</title>
<path fill="none" stroke="black" d="M1282.52,-192.884C1293.06,-181.446 1304.87,-168.634 1315.41,-157.19"/>
<polygon fill="black" stroke="black" points="1318.28,-159.245 1322.48,-149.52 1313.13,-154.502 1318.28,-159.245"/>
</g>
<!-- 25 -->
<g id="node26" class="node"><title>25</title>
<polygon fill="#e58139" stroke="black" points="1371,-357.5 1265,-357.5 1265,-304.5 1371,-304.5 1371,-357.5"/>
<text text-anchor="middle" x="1318" y="-342.3" font-family="Times,serif" font-size="14.00">samples = 2</text>
<text text-anchor="middle" x="1318" y="-327.3" font-family="Times,serif" font-size="14.00">value = [2, 0, 0]</text>
<text text-anchor="middle" x="1318" y="-312.3" font-family="Times,serif" font-size="14.00">class = 0.0</text>
</g>
<!-- 24&#45;&gt;25 -->
<g id="edge25" class="edge"><title>24&#45;&gt;25</title>
<path fill="none" stroke="black" d="M1318,-400.884C1318,-390.326 1318,-378.597 1318,-367.854"/>
<polygon fill="black" stroke="black" points="1321.5,-367.52 1318,-357.52 1314.5,-367.52 1321.5,-367.52"/>
</g>
<!-- 26 -->
<g id="node27" class="node"><title>26</title>
<polygon fill="#8139e5" fill-opacity="0.823529" stroke="black" points="1572,-365 1414,-365 1414,-297 1572,-297 1572,-365"/>
<text text-anchor="middle" x="1493" y="-349.8" font-family="Times,serif" font-size="14.00">positive_WN &lt;= 18.3673</text>
<text text-anchor="middle" x="1493" y="-334.8" font-family="Times,serif" font-size="14.00">samples = 19</text>
<text text-anchor="middle" x="1493" y="-319.8" font-family="Times,serif" font-size="14.00">value = [1, 2, 16]</text>
<text text-anchor="middle" x="1493" y="-304.8" font-family="Times,serif" font-size="14.00">class = 1.0</text>
</g>
<!-- 24&#45;&gt;26 -->
<g id="edge26" class="edge"><title>24&#45;&gt;26</title>
<path fill="none" stroke="black" d="M1374.82,-400.884C1391.56,-391.125 1410.02,-380.366 1427.27,-370.31"/>
<polygon fill="black" stroke="black" points="1429.29,-373.184 1436.17,-365.125 1425.77,-367.137 1429.29,-373.184"/>
</g>
<!-- 27 -->
<g id="node28" class="node"><title>27</title>
<polygon fill="#8139e5" fill-opacity="0.882353" stroke="black" points="1549.5,-261 1436.5,-261 1436.5,-193 1549.5,-193 1549.5,-261"/>
<text text-anchor="middle" x="1493" y="-245.8" font-family="Times,serif" font-size="14.00">section &lt;= 1.5</text>
<text text-anchor="middle" x="1493" y="-230.8" font-family="Times,serif" font-size="14.00">samples = 18</text>
<text text-anchor="middle" x="1493" y="-215.8" font-family="Times,serif" font-size="14.00">value = [1, 1, 16]</text>
<text text-anchor="middle" x="1493" y="-200.8" font-family="Times,serif" font-size="14.00">class = 1.0</text>
</g>
<!-- 26&#45;&gt;27 -->
<g id="edge27" class="edge"><title>26&#45;&gt;27</title>
<path fill="none" stroke="black" d="M1493,-296.884C1493,-288.778 1493,-279.982 1493,-271.472"/>
<polygon fill="black" stroke="black" points="1496.5,-271.299 1493,-261.299 1489.5,-271.299 1496.5,-271.299"/>
</g>
<!-- 32 -->
<g id="node33" class="node"><title>32</title>
<polygon fill="#39e581" stroke="black" points="1674,-253.5 1568,-253.5 1568,-200.5 1674,-200.5 1674,-253.5"/>
<text text-anchor="middle" x="1621" y="-238.3" font-family="Times,serif" font-size="14.00">samples = 1</text>
<text text-anchor="middle" x="1621" y="-223.3" font-family="Times,serif" font-size="14.00">value = [0, 1, 0]</text>
<text text-anchor="middle" x="1621" y="-208.3" font-family="Times,serif" font-size="14.00">class = 0.5</text>
</g>
<!-- 26&#45;&gt;32 -->
<g id="edge32" class="edge"><title>26&#45;&gt;32</title>
<path fill="none" stroke="black" d="M1534.56,-296.884C1549.46,-285.006 1566.23,-271.646 1581,-259.876"/>
<polygon fill="black" stroke="black" points="1583.34,-262.489 1588.97,-253.52 1578.97,-257.015 1583.34,-262.489"/>
</g>
<!-- 28 -->
<g id="node29" class="node"><title>28</title>
<polygon fill="#8139e5" fill-opacity="0.498039" stroke="black" points="1568.5,-157 1417.5,-157 1417.5,-89 1568.5,-89 1568.5,-157"/>
<text text-anchor="middle" x="1493" y="-141.8" font-family="Times,serif" font-size="14.00">positive_WN &lt;= 7.5917</text>
<text text-anchor="middle" x="1493" y="-126.8" font-family="Times,serif" font-size="14.00">samples = 5</text>
<text text-anchor="middle" x="1493" y="-111.8" font-family="Times,serif" font-size="14.00">value = [1, 1, 3]</text>
<text text-anchor="middle" x="1493" y="-96.8" font-family="Times,serif" font-size="14.00">class = 1.0</text>
</g>
<!-- 27&#45;&gt;28 -->
<g id="edge28" class="edge"><title>27&#45;&gt;28</title>
<path fill="none" stroke="black" d="M1493,-192.884C1493,-184.778 1493,-175.982 1493,-167.472"/>
<polygon fill="black" stroke="black" points="1496.5,-167.299 1493,-157.299 1489.5,-167.299 1496.5,-167.299"/>
</g>
<!-- 31 -->
<g id="node32" class="node"><title>31</title>
<polygon fill="#8139e5" stroke="black" points="1699.5,-149.5 1586.5,-149.5 1586.5,-96.5 1699.5,-96.5 1699.5,-149.5"/>
<text text-anchor="middle" x="1643" y="-134.3" font-family="Times,serif" font-size="14.00">samples = 13</text>
<text text-anchor="middle" x="1643" y="-119.3" font-family="Times,serif" font-size="14.00">value = [0, 0, 13]</text>
<text text-anchor="middle" x="1643" y="-104.3" font-family="Times,serif" font-size="14.00">class = 1.0</text>
</g>
<!-- 27&#45;&gt;31 -->
<g id="edge31" class="edge"><title>27&#45;&gt;31</title>
<path fill="none" stroke="black" d="M1541.7,-192.884C1559.49,-180.786 1579.54,-167.151 1597.08,-155.224"/>
<polygon fill="black" stroke="black" points="1599.17,-158.037 1605.47,-149.52 1595.23,-152.249 1599.17,-158.037"/>
</g>
<!-- 29 -->
<g id="node30" class="node"><title>29</title>
<polygon fill="none" stroke="black" points="1484,-53 1378,-53 1378,-0 1484,-0 1484,-53"/>
<text text-anchor="middle" x="1431" y="-37.8" font-family="Times,serif" font-size="14.00">samples = 2</text>
<text text-anchor="middle" x="1431" y="-22.8" font-family="Times,serif" font-size="14.00">value = [1, 1, 0]</text>
<text text-anchor="middle" x="1431" y="-7.8" font-family="Times,serif" font-size="14.00">class = 0.0</text>
</g>
<!-- 28&#45;&gt;29 -->
<g id="edge29" class="edge"><title>28&#45;&gt;29</title>
<path fill="none" stroke="black" d="M1471.32,-88.9485C1465.55,-80.1664 1459.32,-70.6629 1453.51,-61.815"/>
<polygon fill="black" stroke="black" points="1456.3,-59.6779 1447.89,-53.2367 1450.44,-63.5178 1456.3,-59.6779"/>
</g>
<!-- 30 -->
<g id="node31" class="node"><title>30</title>
<polygon fill="#8139e5" stroke="black" points="1608,-53 1502,-53 1502,-0 1608,-0 1608,-53"/>
<text text-anchor="middle" x="1555" y="-37.8" font-family="Times,serif" font-size="14.00">samples = 3</text>
<text text-anchor="middle" x="1555" y="-22.8" font-family="Times,serif" font-size="14.00">value = [0, 0, 3]</text>
<text text-anchor="middle" x="1555" y="-7.8" font-family="Times,serif" font-size="14.00">class = 1.0</text>
</g>
<!-- 28&#45;&gt;30 -->
<g id="edge30" class="edge"><title>28&#45;&gt;30</title>
<path fill="none" stroke="black" d="M1514.68,-88.9485C1520.45,-80.1664 1526.68,-70.6629 1532.49,-61.815"/>
<polygon fill="black" stroke="black" points="1535.56,-63.5178 1538.11,-53.2367 1529.7,-59.6779 1535.56,-63.5178"/>
</g>
</g>
</svg>
