<?xml version="1.0" encoding="UTF-8" standalone="no"?>
<!DOCTYPE svg PUBLIC "-//W3C//DTD SVG 1.1//EN"
 "http://www.w3.org/Graphics/SVG/1.1/DTD/svg11.dtd">
<!-- Generated by graphviz version 2.38.0 (20140413.2041)
 -->
<!-- Title: Tree Pages: 1 -->
<svg width="1894pt" height="685pt"
 viewBox="0.00 0.00 1894.00 685.00" xmlns="http://www.w3.org/2000/svg" xmlns:xlink="http://www.w3.org/1999/xlink">
<g id="graph0" class="graph" transform="scale(1 1) rotate(0) translate(4 681)">
<title>Tree</title>
<polygon fill="white" stroke="none" points="-4,4 -4,-681 1890,-681 1890,4 -4,4"/>
<!-- 0 -->
<g id="node1" class="node"><title>0</title>
<polygon fill="#399de5" fill-opacity="0.047059" stroke="black" points="1370,-677 1164,-677 1164,-609 1370,-609 1370,-677"/>
<text text-anchor="middle" x="1267" y="-661.8" font-family="Times,serif" font-size="14.00">speech_emotional_WN &lt;= 30.333</text>
<text text-anchor="middle" x="1267" y="-646.8" font-family="Times,serif" font-size="14.00">samples = 112</text>
<text text-anchor="middle" x="1267" y="-631.8" font-family="Times,serif" font-size="14.00">value = [22, 30, 34, 26]</text>
<text text-anchor="middle" x="1267" y="-616.8" font-family="Times,serif" font-size="14.00">class = sentimental</text>
</g>
<!-- 1 -->
<g id="node2" class="node"><title>1</title>
<polygon fill="#47e539" fill-opacity="0.074510" stroke="black" points="1227,-573 1057,-573 1057,-505 1227,-505 1227,-573"/>
<text text-anchor="middle" x="1142" y="-557.8" font-family="Times,serif" font-size="14.00">emotional_WN &lt;= 90.4224</text>
<text text-anchor="middle" x="1142" y="-542.8" font-family="Times,serif" font-size="14.00">samples = 58</text>
<text text-anchor="middle" x="1142" y="-527.8" font-family="Times,serif" font-size="14.00">value = [15, 21, 4, 18]</text>
<text text-anchor="middle" x="1142" y="-512.8" font-family="Times,serif" font-size="14.00">class = historical</text>
</g>
<!-- 0&#45;&gt;1 -->
<g id="edge1" class="edge"><title>0&#45;&gt;1</title>
<path fill="none" stroke="black" d="M1226.42,-608.884C1215.06,-599.62 1202.61,-589.455 1190.83,-579.845"/>
<polygon fill="black" stroke="black" points="1192.77,-576.91 1182.81,-573.299 1188.34,-582.333 1192.77,-576.91"/>
<text text-anchor="middle" x="1185.33" y="-594.472" font-family="Times,serif" font-size="14.00">True</text>
</g>
<!-- 24 -->
<g id="node25" class="node"><title>24</title>
<polygon fill="#399de5" fill-opacity="0.466667" stroke="black" points="1490,-573 1294,-573 1294,-505 1490,-505 1490,-573"/>
<text text-anchor="middle" x="1392" y="-557.8" font-family="Times,serif" font-size="14.00">speech_neutral_WN &lt;= 28.1496</text>
<text text-anchor="middle" x="1392" y="-542.8" font-family="Times,serif" font-size="14.00">samples = 54</text>
<text text-anchor="middle" x="1392" y="-527.8" font-family="Times,serif" font-size="14.00">value = [7, 9, 30, 8]</text>
<text text-anchor="middle" x="1392" y="-512.8" font-family="Times,serif" font-size="14.00">class = sentimental</text>
</g>
<!-- 0&#45;&gt;24 -->
<g id="edge24" class="edge"><title>0&#45;&gt;24</title>
<path fill="none" stroke="black" d="M1307.58,-608.884C1318.94,-599.62 1331.39,-589.455 1343.17,-579.845"/>
<polygon fill="black" stroke="black" points="1345.66,-582.333 1351.19,-573.299 1341.23,-576.91 1345.66,-582.333"/>
<text text-anchor="middle" x="1348.67" y="-594.472" font-family="Times,serif" font-size="14.00">False</text>
</g>
<!-- 2 -->
<g id="node3" class="node"><title>2</title>
<polygon fill="#d739e5" fill-opacity="0.141176" stroke="black" points="998,-469 846,-469 846,-401 998,-401 998,-469"/>
<text text-anchor="middle" x="922" y="-453.8" font-family="Times,serif" font-size="14.00">neutral_WN &lt;= 23.8716</text>
<text text-anchor="middle" x="922" y="-438.8" font-family="Times,serif" font-size="14.00">samples = 42</text>
<text text-anchor="middle" x="922" y="-423.8" font-family="Times,serif" font-size="14.00">value = [14, 6, 4, 18]</text>
<text text-anchor="middle" x="922" y="-408.8" font-family="Times,serif" font-size="14.00">class = sociopolitical</text>
</g>
<!-- 1&#45;&gt;2 -->
<g id="edge2" class="edge"><title>1&#45;&gt;2</title>
<path fill="none" stroke="black" d="M1070.57,-504.884C1048.85,-494.812 1024.83,-483.674 1002.55,-473.344"/>
<polygon fill="black" stroke="black" points="1003.99,-470.156 993.446,-469.125 1001.05,-476.506 1003.99,-470.156"/>
</g>
<!-- 21 -->
<g id="node22" class="node"><title>21</title>
<polygon fill="#47e539" fill-opacity="0.933333" stroke="black" points="1240.5,-469 1043.5,-469 1043.5,-401 1240.5,-401 1240.5,-469"/>
<text text-anchor="middle" x="1142" y="-453.8" font-family="Times,serif" font-size="14.00">narrated_neutral_WN &lt;= 6.9444</text>
<text text-anchor="middle" x="1142" y="-438.8" font-family="Times,serif" font-size="14.00">samples = 16</text>
<text text-anchor="middle" x="1142" y="-423.8" font-family="Times,serif" font-size="14.00">value = [1, 15, 0, 0]</text>
<text text-anchor="middle" x="1142" y="-408.8" font-family="Times,serif" font-size="14.00">class = historical</text>
</g>
<!-- 1&#45;&gt;21 -->
<g id="edge21" class="edge"><title>1&#45;&gt;21</title>
<path fill="none" stroke="black" d="M1142,-504.884C1142,-496.778 1142,-487.982 1142,-479.472"/>
<polygon fill="black" stroke="black" points="1145.5,-479.299 1142,-469.299 1138.5,-479.299 1145.5,-479.299"/>
</g>
<!-- 3 -->
<g id="node4" class="node"><title>3</title>
<polygon fill="#d739e5" fill-opacity="0.537255" stroke="black" points="798,-365 592,-365 592,-297 798,-297 798,-365"/>
<text text-anchor="middle" x="695" y="-349.8" font-family="Times,serif" font-size="14.00">speech_emotional_WN &lt;= 26.546</text>
<text text-anchor="middle" x="695" y="-334.8" font-family="Times,serif" font-size="14.00">samples = 30</text>
<text text-anchor="middle" x="695" y="-319.8" font-family="Times,serif" font-size="14.00">value = [4, 4, 4, 18]</text>
<text text-anchor="middle" x="695" y="-304.8" font-family="Times,serif" font-size="14.00">class = sociopolitical</text>
</g>
<!-- 2&#45;&gt;3 -->
<g id="edge3" class="edge"><title>2&#45;&gt;3</title>
<path fill="none" stroke="black" d="M848.3,-400.884C825.885,-390.812 801.098,-379.674 778.108,-369.344"/>
<polygon fill="black" stroke="black" points="779.275,-366.031 768.719,-365.125 776.406,-372.416 779.275,-366.031"/>
</g>
<!-- 16 -->
<g id="node17" class="node"><title>16</title>
<polygon fill="#e58139" fill-opacity="0.800000" stroke="black" points="999,-365 845,-365 845,-297 999,-297 999,-365"/>
<text text-anchor="middle" x="922" y="-349.8" font-family="Times,serif" font-size="14.00">negative_WN &lt;= 5.7428</text>
<text text-anchor="middle" x="922" y="-334.8" font-family="Times,serif" font-size="14.00">samples = 12</text>
<text text-anchor="middle" x="922" y="-319.8" font-family="Times,serif" font-size="14.00">value = [10, 2, 0, 0]</text>
<text text-anchor="middle" x="922" y="-304.8" font-family="Times,serif" font-size="14.00">class = costumbrista</text>
</g>
<!-- 2&#45;&gt;16 -->
<g id="edge16" class="edge"><title>2&#45;&gt;16</title>
<path fill="none" stroke="black" d="M922,-400.884C922,-392.778 922,-383.982 922,-375.472"/>
<polygon fill="black" stroke="black" points="925.5,-375.299 922,-365.299 918.5,-375.299 925.5,-375.299"/>
</g>
<!-- 4 -->
<g id="node5" class="node"><title>4</title>
<polygon fill="#d739e5" fill-opacity="0.698039" stroke="black" points="505,-261 347,-261 347,-193 505,-193 505,-261"/>
<text text-anchor="middle" x="426" y="-245.8" font-family="Times,serif" font-size="14.00">positive_WN &lt;= 13.8983</text>
<text text-anchor="middle" x="426" y="-230.8" font-family="Times,serif" font-size="14.00">samples = 23</text>
<text text-anchor="middle" x="426" y="-215.8" font-family="Times,serif" font-size="14.00">value = [3, 2, 1, 17]</text>
<text text-anchor="middle" x="426" y="-200.8" font-family="Times,serif" font-size="14.00">class = sociopolitical</text>
</g>
<!-- 3&#45;&gt;4 -->
<g id="edge4" class="edge"><title>3&#45;&gt;4</title>
<path fill="none" stroke="black" d="M607.663,-296.884C577.901,-285.598 544.611,-272.975 514.74,-261.649"/>
<polygon fill="black" stroke="black" points="515.762,-258.293 505.17,-258.02 513.28,-264.838 515.762,-258.293"/>
</g>
<!-- 11 -->
<g id="node12" class="node"><title>11</title>
<polygon fill="#399de5" fill-opacity="0.200000" stroke="black" points="772,-261 618,-261 618,-193 772,-193 772,-261"/>
<text text-anchor="middle" x="695" y="-245.8" font-family="Times,serif" font-size="14.00">negative_WN &lt;= 6.7707</text>
<text text-anchor="middle" x="695" y="-230.8" font-family="Times,serif" font-size="14.00">samples = 7</text>
<text text-anchor="middle" x="695" y="-215.8" font-family="Times,serif" font-size="14.00">value = [1, 2, 3, 1]</text>
<text text-anchor="middle" x="695" y="-200.8" font-family="Times,serif" font-size="14.00">class = sentimental</text>
</g>
<!-- 3&#45;&gt;11 -->
<g id="edge11" class="edge"><title>3&#45;&gt;11</title>
<path fill="none" stroke="black" d="M695,-296.884C695,-288.778 695,-279.982 695,-271.472"/>
<polygon fill="black" stroke="black" points="698.5,-271.299 695,-261.299 691.5,-271.299 698.5,-271.299"/>
</g>
<!-- 5 -->
<g id="node6" class="node"><title>5</title>
<polygon fill="#d739e5" fill-opacity="0.788235" stroke="black" points="277.5,-157 130.5,-157 130.5,-89 277.5,-89 277.5,-157"/>
<text text-anchor="middle" x="204" y="-141.8" font-family="Times,serif" font-size="14.00">negative_WN &lt;= 2.026</text>
<text text-anchor="middle" x="204" y="-126.8" font-family="Times,serif" font-size="14.00">samples = 21</text>
<text text-anchor="middle" x="204" y="-111.8" font-family="Times,serif" font-size="14.00">value = [2, 2, 0, 17]</text>
<text text-anchor="middle" x="204" y="-96.8" font-family="Times,serif" font-size="14.00">class = sociopolitical</text>
</g>
<!-- 4&#45;&gt;5 -->
<g id="edge5" class="edge"><title>4&#45;&gt;5</title>
<path fill="none" stroke="black" d="M353.923,-192.884C332.002,-182.812 307.761,-171.674 285.278,-161.344"/>
<polygon fill="black" stroke="black" points="286.643,-158.119 276.095,-157.125 283.721,-164.48 286.643,-158.119"/>
</g>
<!-- 8 -->
<g id="node9" class="node"><title>8</title>
<polygon fill="none" stroke="black" points="490.5,-157 361.5,-157 361.5,-89 490.5,-89 490.5,-157"/>
<text text-anchor="middle" x="426" y="-141.8" font-family="Times,serif" font-size="14.00">narrated &lt;= 68.8596</text>
<text text-anchor="middle" x="426" y="-126.8" font-family="Times,serif" font-size="14.00">samples = 2</text>
<text text-anchor="middle" x="426" y="-111.8" font-family="Times,serif" font-size="14.00">value = [1, 0, 1, 0]</text>
<text text-anchor="middle" x="426" y="-96.8" font-family="Times,serif" font-size="14.00">class = costumbrista</text>
</g>
<!-- 4&#45;&gt;8 -->
<g id="edge8" class="edge"><title>4&#45;&gt;8</title>
<path fill="none" stroke="black" d="M426,-192.884C426,-184.778 426,-175.982 426,-167.472"/>
<polygon fill="black" stroke="black" points="429.5,-167.299 426,-157.299 422.5,-167.299 429.5,-167.299"/>
</g>
<!-- 6 -->
<g id="node7" class="node"><title>6</title>
<polygon fill="#47e539" stroke="black" points="120,-53 7.10543e-15,-53 7.10543e-15,-0 120,-0 120,-53"/>
<text text-anchor="middle" x="60" y="-37.8" font-family="Times,serif" font-size="14.00">samples = 1</text>
<text text-anchor="middle" x="60" y="-22.8" font-family="Times,serif" font-size="14.00">value = [0, 1, 0, 0]</text>
<text text-anchor="middle" x="60" y="-7.8" font-family="Times,serif" font-size="14.00">class = historical</text>
</g>
<!-- 5&#45;&gt;6 -->
<g id="edge6" class="edge"><title>5&#45;&gt;6</title>
<path fill="none" stroke="black" d="M153.636,-88.9485C138.72,-79.1601 122.439,-68.4756 107.697,-58.8015"/>
<polygon fill="black" stroke="black" points="109.499,-55.7971 99.2178,-53.2367 105.658,-61.6495 109.499,-55.7971"/>
</g>
<!-- 7 -->
<g id="node8" class="node"><title>7</title>
<polygon fill="#d739e5" fill-opacity="0.831373" stroke="black" points="269.5,-53 138.5,-53 138.5,-0 269.5,-0 269.5,-53"/>
<text text-anchor="middle" x="204" y="-37.8" font-family="Times,serif" font-size="14.00">samples = 20</text>
<text text-anchor="middle" x="204" y="-22.8" font-family="Times,serif" font-size="14.00">value = [2, 1, 0, 17]</text>
<text text-anchor="middle" x="204" y="-7.8" font-family="Times,serif" font-size="14.00">class = sociopolitical</text>
</g>
<!-- 5&#45;&gt;7 -->
<g id="edge7" class="edge"><title>5&#45;&gt;7</title>
<path fill="none" stroke="black" d="M204,-88.9485C204,-80.7153 204,-71.848 204,-63.4814"/>
<polygon fill="black" stroke="black" points="207.5,-63.2367 204,-53.2367 200.5,-63.2367 207.5,-63.2367"/>
</g>
<!-- 9 -->
<g id="node10" class="node"><title>9</title>
<polygon fill="#e58139" stroke="black" points="416,-53 288,-53 288,-0 416,-0 416,-53"/>
<text text-anchor="middle" x="352" y="-37.8" font-family="Times,serif" font-size="14.00">samples = 1</text>
<text text-anchor="middle" x="352" y="-22.8" font-family="Times,serif" font-size="14.00">value = [1, 0, 0, 0]</text>
<text text-anchor="middle" x="352" y="-7.8" font-family="Times,serif" font-size="14.00">class = costumbrista</text>
</g>
<!-- 8&#45;&gt;9 -->
<g id="edge9" class="edge"><title>8&#45;&gt;9</title>
<path fill="none" stroke="black" d="M400.118,-88.9485C393.098,-79.9834 385.489,-70.2666 378.439,-61.2629"/>
<polygon fill="black" stroke="black" points="381.075,-58.9521 372.154,-53.2367 375.563,-63.2679 381.075,-58.9521"/>
</g>
<!-- 10 -->
<g id="node11" class="node"><title>10</title>
<polygon fill="#399de5" stroke="black" points="556,-53 434,-53 434,-0 556,-0 556,-53"/>
<text text-anchor="middle" x="495" y="-37.8" font-family="Times,serif" font-size="14.00">samples = 1</text>
<text text-anchor="middle" x="495" y="-22.8" font-family="Times,serif" font-size="14.00">value = [0, 0, 1, 0]</text>
<text text-anchor="middle" x="495" y="-7.8" font-family="Times,serif" font-size="14.00">class = sentimental</text>
</g>
<!-- 8&#45;&gt;10 -->
<g id="edge10" class="edge"><title>8&#45;&gt;10</title>
<path fill="none" stroke="black" d="M450.133,-88.9485C456.612,-80.0749 463.629,-70.4648 470.146,-61.5388"/>
<polygon fill="black" stroke="black" points="473.138,-63.3769 476.208,-53.2367 467.484,-59.249 473.138,-63.3769"/>
</g>
<!-- 12 -->
<g id="node13" class="node"><title>12</title>
<polygon fill="#47e539" fill-opacity="0.333333" stroke="black" points="702.5,-157 573.5,-157 573.5,-89 702.5,-89 702.5,-157"/>
<text text-anchor="middle" x="638" y="-141.8" font-family="Times,serif" font-size="14.00">narrated &lt;= 59.9028</text>
<text text-anchor="middle" x="638" y="-126.8" font-family="Times,serif" font-size="14.00">samples = 4</text>
<text text-anchor="middle" x="638" y="-111.8" font-family="Times,serif" font-size="14.00">value = [1, 2, 0, 1]</text>
<text text-anchor="middle" x="638" y="-96.8" font-family="Times,serif" font-size="14.00">class = historical</text>
</g>
<!-- 11&#45;&gt;12 -->
<g id="edge12" class="edge"><title>11&#45;&gt;12</title>
<path fill="none" stroke="black" d="M676.494,-192.884C671.715,-184.332 666.507,-175.013 661.511,-166.072"/>
<polygon fill="black" stroke="black" points="664.542,-164.321 656.608,-157.299 658.431,-167.736 664.542,-164.321"/>
</g>
<!-- 15 -->
<g id="node16" class="node"><title>15</title>
<polygon fill="#399de5" stroke="black" points="843,-149.5 721,-149.5 721,-96.5 843,-96.5 843,-149.5"/>
<text text-anchor="middle" x="782" y="-134.3" font-family="Times,serif" font-size="14.00">samples = 3</text>
<text text-anchor="middle" x="782" y="-119.3" font-family="Times,serif" font-size="14.00">value = [0, 0, 3, 0]</text>
<text text-anchor="middle" x="782" y="-104.3" font-family="Times,serif" font-size="14.00">class = sentimental</text>
</g>
<!-- 11&#45;&gt;15 -->
<g id="edge15" class="edge"><title>11&#45;&gt;15</title>
<path fill="none" stroke="black" d="M723.246,-192.884C733.002,-181.446 743.93,-168.634 753.691,-157.19"/>
<polygon fill="black" stroke="black" points="756.406,-159.4 760.233,-149.52 751.081,-154.857 756.406,-159.4"/>
</g>
<!-- 13 -->
<g id="node14" class="node"><title>13</title>
<polygon fill="none" stroke="black" points="702,-53 574,-53 574,-0 702,-0 702,-53"/>
<text text-anchor="middle" x="638" y="-37.8" font-family="Times,serif" font-size="14.00">samples = 2</text>
<text text-anchor="middle" x="638" y="-22.8" font-family="Times,serif" font-size="14.00">value = [1, 0, 0, 1]</text>
<text text-anchor="middle" x="638" y="-7.8" font-family="Times,serif" font-size="14.00">class = costumbrista</text>
</g>
<!-- 12&#45;&gt;13 -->
<g id="edge13" class="edge"><title>12&#45;&gt;13</title>
<path fill="none" stroke="black" d="M638,-88.9485C638,-80.7153 638,-71.848 638,-63.4814"/>
<polygon fill="black" stroke="black" points="641.5,-63.2367 638,-53.2367 634.5,-63.2367 641.5,-63.2367"/>
</g>
<!-- 14 -->
<g id="node15" class="node"><title>14</title>
<polygon fill="#47e539" stroke="black" points="840,-53 720,-53 720,-0 840,-0 840,-53"/>
<text text-anchor="middle" x="780" y="-37.8" font-family="Times,serif" font-size="14.00">samples = 2</text>
<text text-anchor="middle" x="780" y="-22.8" font-family="Times,serif" font-size="14.00">value = [0, 2, 0, 0]</text>
<text text-anchor="middle" x="780" y="-7.8" font-family="Times,serif" font-size="14.00">class = historical</text>
</g>
<!-- 12&#45;&gt;14 -->
<g id="edge14" class="edge"><title>12&#45;&gt;14</title>
<path fill="none" stroke="black" d="M687.665,-88.9485C702.373,-79.1601 718.428,-68.4756 732.965,-58.8015"/>
<polygon fill="black" stroke="black" points="734.941,-61.6907 741.327,-53.2367 731.063,-55.8632 734.941,-61.6907"/>
</g>
<!-- 17 -->
<g id="node18" class="node"><title>17</title>
<polygon fill="#e58139" fill-opacity="0.901961" stroke="black" points="1019.5,-261 822.5,-261 822.5,-193 1019.5,-193 1019.5,-261"/>
<text text-anchor="middle" x="921" y="-245.8" font-family="Times,serif" font-size="14.00">narrated_neutral_WN &lt;= 4.9868</text>
<text text-anchor="middle" x="921" y="-230.8" font-family="Times,serif" font-size="14.00">samples = 11</text>
<text text-anchor="middle" x="921" y="-215.8" font-family="Times,serif" font-size="14.00">value = [10, 1, 0, 0]</text>
<text text-anchor="middle" x="921" y="-200.8" font-family="Times,serif" font-size="14.00">class = costumbrista</text>
</g>
<!-- 16&#45;&gt;17 -->
<g id="edge17" class="edge"><title>16&#45;&gt;17</title>
<path fill="none" stroke="black" d="M921.675,-296.884C921.596,-288.778 921.51,-279.982 921.426,-271.472"/>
<polygon fill="black" stroke="black" points="924.924,-271.265 921.326,-261.299 917.925,-271.333 924.924,-271.265"/>
</g>
<!-- 20 -->
<g id="node21" class="node"><title>20</title>
<polygon fill="#47e539" stroke="black" points="1158,-253.5 1038,-253.5 1038,-200.5 1158,-200.5 1158,-253.5"/>
<text text-anchor="middle" x="1098" y="-238.3" font-family="Times,serif" font-size="14.00">samples = 1</text>
<text text-anchor="middle" x="1098" y="-223.3" font-family="Times,serif" font-size="14.00">value = [0, 1, 0, 0]</text>
<text text-anchor="middle" x="1098" y="-208.3" font-family="Times,serif" font-size="14.00">class = historical</text>
</g>
<!-- 16&#45;&gt;20 -->
<g id="edge20" class="edge"><title>16&#45;&gt;20</title>
<path fill="none" stroke="black" d="M979.142,-296.884C1000.4,-284.566 1024.4,-270.655 1045.24,-258.575"/>
<polygon fill="black" stroke="black" points="1047.07,-261.562 1053.97,-253.52 1043.56,-255.506 1047.07,-261.562"/>
</g>
<!-- 18 -->
<g id="node19" class="node"><title>18</title>
<polygon fill="#47e539" stroke="black" points="981,-149.5 861,-149.5 861,-96.5 981,-96.5 981,-149.5"/>
<text text-anchor="middle" x="921" y="-134.3" font-family="Times,serif" font-size="14.00">samples = 1</text>
<text text-anchor="middle" x="921" y="-119.3" font-family="Times,serif" font-size="14.00">value = [0, 1, 0, 0]</text>
<text text-anchor="middle" x="921" y="-104.3" font-family="Times,serif" font-size="14.00">class = historical</text>
</g>
<!-- 17&#45;&gt;18 -->
<g id="edge18" class="edge"><title>17&#45;&gt;18</title>
<path fill="none" stroke="black" d="M921,-192.884C921,-182.326 921,-170.597 921,-159.854"/>
<polygon fill="black" stroke="black" points="924.5,-159.52 921,-149.52 917.5,-159.52 924.5,-159.52"/>
</g>
<!-- 19 -->
<g id="node20" class="node"><title>19</title>
<polygon fill="#e58139" stroke="black" points="1127,-149.5 999,-149.5 999,-96.5 1127,-96.5 1127,-149.5"/>
<text text-anchor="middle" x="1063" y="-134.3" font-family="Times,serif" font-size="14.00">samples = 10</text>
<text text-anchor="middle" x="1063" y="-119.3" font-family="Times,serif" font-size="14.00">value = [10, 0, 0, 0]</text>
<text text-anchor="middle" x="1063" y="-104.3" font-family="Times,serif" font-size="14.00">class = costumbrista</text>
</g>
<!-- 17&#45;&gt;19 -->
<g id="edge19" class="edge"><title>17&#45;&gt;19</title>
<path fill="none" stroke="black" d="M967.103,-192.884C983.792,-180.896 1002.58,-167.399 1019.08,-155.549"/>
<polygon fill="black" stroke="black" points="1021.39,-158.197 1027.47,-149.52 1017.31,-152.511 1021.39,-158.197"/>
</g>
<!-- 22 -->
<g id="node23" class="node"><title>22</title>
<polygon fill="#47e539" stroke="black" points="1146.5,-357.5 1019.5,-357.5 1019.5,-304.5 1146.5,-304.5 1146.5,-357.5"/>
<text text-anchor="middle" x="1083" y="-342.3" font-family="Times,serif" font-size="14.00">samples = 15</text>
<text text-anchor="middle" x="1083" y="-327.3" font-family="Times,serif" font-size="14.00">value = [0, 15, 0, 0]</text>
<text text-anchor="middle" x="1083" y="-312.3" font-family="Times,serif" font-size="14.00">class = historical</text>
</g>
<!-- 21&#45;&gt;22 -->
<g id="edge22" class="edge"><title>21&#45;&gt;22</title>
<path fill="none" stroke="black" d="M1122.84,-400.884C1116.42,-389.776 1109.24,-377.372 1102.77,-366.184"/>
<polygon fill="black" stroke="black" points="1105.8,-364.424 1097.76,-357.52 1099.74,-367.929 1105.8,-364.424"/>
</g>
<!-- 23 -->
<g id="node24" class="node"><title>23</title>
<polygon fill="#e58139" stroke="black" points="1293,-357.5 1165,-357.5 1165,-304.5 1293,-304.5 1293,-357.5"/>
<text text-anchor="middle" x="1229" y="-342.3" font-family="Times,serif" font-size="14.00">samples = 1</text>
<text text-anchor="middle" x="1229" y="-327.3" font-family="Times,serif" font-size="14.00">value = [1, 0, 0, 0]</text>
<text text-anchor="middle" x="1229" y="-312.3" font-family="Times,serif" font-size="14.00">class = costumbrista</text>
</g>
<!-- 21&#45;&gt;23 -->
<g id="edge23" class="edge"><title>21&#45;&gt;23</title>
<path fill="none" stroke="black" d="M1170.25,-400.884C1180,-389.446 1190.93,-376.634 1200.69,-365.19"/>
<polygon fill="black" stroke="black" points="1203.41,-367.4 1207.23,-357.52 1198.08,-362.857 1203.41,-367.4"/>
</g>
<!-- 25 -->
<g id="node26" class="node"><title>25</title>
<polygon fill="#399de5" fill-opacity="0.501961" stroke="black" points="1498.5,-469 1285.5,-469 1285.5,-401 1498.5,-401 1498.5,-469"/>
<text text-anchor="middle" x="1392" y="-453.8" font-family="Times,serif" font-size="14.00">speech_emotional_WN &lt;= 45.8963</text>
<text text-anchor="middle" x="1392" y="-438.8" font-family="Times,serif" font-size="14.00">samples = 51</text>
<text text-anchor="middle" x="1392" y="-423.8" font-family="Times,serif" font-size="14.00">value = [7, 9, 30, 5]</text>
<text text-anchor="middle" x="1392" y="-408.8" font-family="Times,serif" font-size="14.00">class = sentimental</text>
</g>
<!-- 24&#45;&gt;25 -->
<g id="edge25" class="edge"><title>24&#45;&gt;25</title>
<path fill="none" stroke="black" d="M1392,-504.884C1392,-496.778 1392,-487.982 1392,-479.472"/>
<polygon fill="black" stroke="black" points="1395.5,-479.299 1392,-469.299 1388.5,-479.299 1395.5,-479.299"/>
</g>
<!-- 40 -->
<g id="node41" class="node"><title>40</title>
<polygon fill="#d739e5" stroke="black" points="1647.5,-461.5 1516.5,-461.5 1516.5,-408.5 1647.5,-408.5 1647.5,-461.5"/>
<text text-anchor="middle" x="1582" y="-446.3" font-family="Times,serif" font-size="14.00">samples = 3</text>
<text text-anchor="middle" x="1582" y="-431.3" font-family="Times,serif" font-size="14.00">value = [0, 0, 0, 3]</text>
<text text-anchor="middle" x="1582" y="-416.3" font-family="Times,serif" font-size="14.00">class = sociopolitical</text>
</g>
<!-- 24&#45;&gt;40 -->
<g id="edge40" class="edge"><title>24&#45;&gt;40</title>
<path fill="none" stroke="black" d="M1453.69,-504.884C1476.84,-492.456 1503.01,-478.406 1525.65,-466.252"/>
<polygon fill="black" stroke="black" points="1527.31,-469.334 1534.46,-461.52 1524,-463.166 1527.31,-469.334"/>
</g>
<!-- 26 -->
<g id="node27" class="node"><title>26</title>
<polygon fill="#399de5" fill-opacity="0.270588" stroke="black" points="1469,-365 1315,-365 1315,-297 1469,-297 1469,-365"/>
<text text-anchor="middle" x="1392" y="-349.8" font-family="Times,serif" font-size="14.00">negative_WN &lt;= 7.8418</text>
<text text-anchor="middle" x="1392" y="-334.8" font-family="Times,serif" font-size="14.00">samples = 33</text>
<text text-anchor="middle" x="1392" y="-319.8" font-family="Times,serif" font-size="14.00">value = [7, 7, 14, 5]</text>
<text text-anchor="middle" x="1392" y="-304.8" font-family="Times,serif" font-size="14.00">class = sentimental</text>
</g>
<!-- 25&#45;&gt;26 -->
<g id="edge26" class="edge"><title>25&#45;&gt;26</title>
<path fill="none" stroke="black" d="M1392,-400.884C1392,-392.778 1392,-383.982 1392,-375.472"/>
<polygon fill="black" stroke="black" points="1395.5,-375.299 1392,-365.299 1388.5,-375.299 1395.5,-375.299"/>
</g>
<!-- 35 -->
<g id="node36" class="node"><title>35</title>
<polygon fill="#399de5" fill-opacity="0.874510" stroke="black" points="1702.5,-365 1489.5,-365 1489.5,-297 1702.5,-297 1702.5,-365"/>
<text text-anchor="middle" x="1596" y="-349.8" font-family="Times,serif" font-size="14.00">speech_emotional_WN &lt;= 54.8312</text>
<text text-anchor="middle" x="1596" y="-334.8" font-family="Times,serif" font-size="14.00">samples = 18</text>
<text text-anchor="middle" x="1596" y="-319.8" font-family="Times,serif" font-size="14.00">value = [0, 2, 16, 0]</text>
<text text-anchor="middle" x="1596" y="-304.8" font-family="Times,serif" font-size="14.00">class = sentimental</text>
</g>
<!-- 25&#45;&gt;35 -->
<g id="edge35" class="edge"><title>25&#45;&gt;35</title>
<path fill="none" stroke="black" d="M1458.23,-400.884C1478.2,-390.901 1500.26,-379.872 1520.76,-369.619"/>
<polygon fill="black" stroke="black" points="1522.37,-372.727 1529.75,-365.125 1519.24,-366.466 1522.37,-372.727"/>
</g>
<!-- 27 -->
<g id="node28" class="node"><title>27</title>
<polygon fill="#399de5" fill-opacity="0.094118" stroke="black" points="1373.5,-261 1176.5,-261 1176.5,-193 1373.5,-193 1373.5,-261"/>
<text text-anchor="middle" x="1275" y="-245.8" font-family="Times,serif" font-size="14.00">narrated_neutral_WN &lt;= 6.9985</text>
<text text-anchor="middle" x="1275" y="-230.8" font-family="Times,serif" font-size="14.00">samples = 28</text>
<text text-anchor="middle" x="1275" y="-215.8" font-family="Times,serif" font-size="14.00">value = [7, 7, 9, 5]</text>
<text text-anchor="middle" x="1275" y="-200.8" font-family="Times,serif" font-size="14.00">class = sentimental</text>
</g>
<!-- 26&#45;&gt;27 -->
<g id="edge27" class="edge"><title>26&#45;&gt;27</title>
<path fill="none" stroke="black" d="M1354.01,-296.884C1343.49,-287.709 1331.95,-277.65 1321.02,-268.123"/>
<polygon fill="black" stroke="black" points="1323.03,-265.233 1313.2,-261.299 1318.43,-270.509 1323.03,-265.233"/>
</g>
<!-- 34 -->
<g id="node35" class="node"><title>34</title>
<polygon fill="#399de5" stroke="black" points="1514,-253.5 1392,-253.5 1392,-200.5 1514,-200.5 1514,-253.5"/>
<text text-anchor="middle" x="1453" y="-238.3" font-family="Times,serif" font-size="14.00">samples = 5</text>
<text text-anchor="middle" x="1453" y="-223.3" font-family="Times,serif" font-size="14.00">value = [0, 0, 5, 0]</text>
<text text-anchor="middle" x="1453" y="-208.3" font-family="Times,serif" font-size="14.00">class = sentimental</text>
</g>
<!-- 26&#45;&gt;34 -->
<g id="edge34" class="edge"><title>26&#45;&gt;34</title>
<path fill="none" stroke="black" d="M1411.8,-296.884C1418.45,-285.776 1425.87,-273.372 1432.56,-262.184"/>
<polygon fill="black" stroke="black" points="1435.61,-263.899 1437.74,-253.52 1429.6,-260.306 1435.61,-263.899"/>
</g>
<!-- 28 -->
<g id="node29" class="node"><title>28</title>
<polygon fill="#47e539" fill-opacity="0.164706" stroke="black" points="1358.5,-157 1161.5,-157 1161.5,-89 1358.5,-89 1358.5,-157"/>
<text text-anchor="middle" x="1260" y="-141.8" font-family="Times,serif" font-size="14.00">narrated_neutral_WN &lt;= 3.4034</text>
<text text-anchor="middle" x="1260" y="-126.8" font-family="Times,serif" font-size="14.00">samples = 17</text>
<text text-anchor="middle" x="1260" y="-111.8" font-family="Times,serif" font-size="14.00">value = [5, 7, 5, 0]</text>
<text text-anchor="middle" x="1260" y="-96.8" font-family="Times,serif" font-size="14.00">class = historical</text>
</g>
<!-- 27&#45;&gt;28 -->
<g id="edge28" class="edge"><title>27&#45;&gt;28</title>
<path fill="none" stroke="black" d="M1270.13,-192.884C1268.94,-184.778 1267.64,-175.982 1266.39,-167.472"/>
<polygon fill="black" stroke="black" points="1269.81,-166.684 1264.9,-157.299 1262.89,-167.702 1269.81,-166.684"/>
</g>
<!-- 31 -->
<g id="node32" class="node"><title>31</title>
<polygon fill="#d739e5" fill-opacity="0.141176" stroke="black" points="1531,-157 1377,-157 1377,-89 1531,-89 1531,-157"/>
<text text-anchor="middle" x="1454" y="-141.8" font-family="Times,serif" font-size="14.00">negative_WN &lt;= 2.6689</text>
<text text-anchor="middle" x="1454" y="-126.8" font-family="Times,serif" font-size="14.00">samples = 11</text>
<text text-anchor="middle" x="1454" y="-111.8" font-family="Times,serif" font-size="14.00">value = [2, 0, 4, 5]</text>
<text text-anchor="middle" x="1454" y="-96.8" font-family="Times,serif" font-size="14.00">class = sociopolitical</text>
</g>
<!-- 27&#45;&gt;31 -->
<g id="edge31" class="edge"><title>27&#45;&gt;31</title>
<path fill="none" stroke="black" d="M1333.12,-192.884C1350.24,-183.125 1369.12,-172.366 1386.77,-162.31"/>
<polygon fill="black" stroke="black" points="1388.91,-165.117 1395.87,-157.125 1385.45,-159.035 1388.91,-165.117"/>
</g>
<!-- 29 -->
<g id="node30" class="node"><title>29</title>
<polygon fill="#e58139" fill-opacity="0.498039" stroke="black" points="1207,-53 1079,-53 1079,-0 1207,-0 1207,-53"/>
<text text-anchor="middle" x="1143" y="-37.8" font-family="Times,serif" font-size="14.00">samples = 6</text>
<text text-anchor="middle" x="1143" y="-22.8" font-family="Times,serif" font-size="14.00">value = [4, 0, 2, 0]</text>
<text text-anchor="middle" x="1143" y="-7.8" font-family="Times,serif" font-size="14.00">class = costumbrista</text>
</g>
<!-- 28&#45;&gt;29 -->
<g id="edge29" class="edge"><title>28&#45;&gt;29</title>
<path fill="none" stroke="black" d="M1219.08,-88.9485C1207.3,-79.4346 1194.47,-69.074 1182.76,-59.6175"/>
<polygon fill="black" stroke="black" points="1184.84,-56.7973 1174.86,-53.2367 1180.44,-62.2429 1184.84,-56.7973"/>
</g>
<!-- 30 -->
<g id="node31" class="node"><title>30</title>
<polygon fill="#47e539" fill-opacity="0.501961" stroke="black" points="1345,-53 1225,-53 1225,-0 1345,-0 1345,-53"/>
<text text-anchor="middle" x="1285" y="-37.8" font-family="Times,serif" font-size="14.00">samples = 11</text>
<text text-anchor="middle" x="1285" y="-22.8" font-family="Times,serif" font-size="14.00">value = [1, 7, 3, 0]</text>
<text text-anchor="middle" x="1285" y="-7.8" font-family="Times,serif" font-size="14.00">class = historical</text>
</g>
<!-- 28&#45;&gt;30 -->
<g id="edge30" class="edge"><title>28&#45;&gt;30</title>
<path fill="none" stroke="black" d="M1268.74,-88.9485C1270.97,-80.5323 1273.37,-71.4536 1275.63,-62.9243"/>
<polygon fill="black" stroke="black" points="1279.02,-63.7993 1278.19,-53.2367 1272.25,-62.009 1279.02,-63.7993"/>
</g>
<!-- 32 -->
<g id="node33" class="node"><title>32</title>
<polygon fill="#d739e5" fill-opacity="0.333333" stroke="black" points="1506.5,-53 1375.5,-53 1375.5,-0 1506.5,-0 1506.5,-53"/>
<text text-anchor="middle" x="1441" y="-37.8" font-family="Times,serif" font-size="14.00">samples = 5</text>
<text text-anchor="middle" x="1441" y="-22.8" font-family="Times,serif" font-size="14.00">value = [2, 0, 0, 3]</text>
<text text-anchor="middle" x="1441" y="-7.8" font-family="Times,serif" font-size="14.00">class = sociopolitical</text>
</g>
<!-- 31&#45;&gt;32 -->
<g id="edge32" class="edge"><title>31&#45;&gt;32</title>
<path fill="none" stroke="black" d="M1449.45,-88.9485C1448.31,-80.6238 1447.07,-71.6509 1445.91,-63.2027"/>
<polygon fill="black" stroke="black" points="1449.37,-62.6664 1444.54,-53.2367 1442.44,-63.6204 1449.37,-62.6664"/>
</g>
<!-- 33 -->
<g id="node34" class="node"><title>33</title>
<polygon fill="#399de5" fill-opacity="0.498039" stroke="black" points="1647,-53 1525,-53 1525,-0 1647,-0 1647,-53"/>
<text text-anchor="middle" x="1586" y="-37.8" font-family="Times,serif" font-size="14.00">samples = 6</text>
<text text-anchor="middle" x="1586" y="-22.8" font-family="Times,serif" font-size="14.00">value = [0, 0, 4, 2]</text>
<text text-anchor="middle" x="1586" y="-7.8" font-family="Times,serif" font-size="14.00">class = sentimental</text>
</g>
<!-- 31&#45;&gt;33 -->
<g id="edge33" class="edge"><title>31&#45;&gt;33</title>
<path fill="none" stroke="black" d="M1500.17,-88.9485C1513.71,-79.2516 1528.49,-68.6752 1541.9,-59.073"/>
<polygon fill="black" stroke="black" points="1543.96,-61.9038 1550.05,-53.2367 1539.88,-56.212 1543.96,-61.9038"/>
</g>
<!-- 36 -->
<g id="node37" class="node"><title>36</title>
<polygon fill="#399de5" stroke="black" points="1659.5,-253.5 1532.5,-253.5 1532.5,-200.5 1659.5,-200.5 1659.5,-253.5"/>
<text text-anchor="middle" x="1596" y="-238.3" font-family="Times,serif" font-size="14.00">samples = 15</text>
<text text-anchor="middle" x="1596" y="-223.3" font-family="Times,serif" font-size="14.00">value = [0, 0, 15, 0]</text>
<text text-anchor="middle" x="1596" y="-208.3" font-family="Times,serif" font-size="14.00">class = sentimental</text>
</g>
<!-- 35&#45;&gt;36 -->
<g id="edge36" class="edge"><title>35&#45;&gt;36</title>
<path fill="none" stroke="black" d="M1596,-296.884C1596,-286.326 1596,-274.597 1596,-263.854"/>
<polygon fill="black" stroke="black" points="1599.5,-263.52 1596,-253.52 1592.5,-263.52 1599.5,-263.52"/>
</g>
<!-- 37 -->
<g id="node38" class="node"><title>37</title>
<polygon fill="#47e539" fill-opacity="0.498039" stroke="black" points="1832,-261 1678,-261 1678,-193 1832,-193 1832,-261"/>
<text text-anchor="middle" x="1755" y="-245.8" font-family="Times,serif" font-size="14.00">negative_WN &lt;= 5.4268</text>
<text text-anchor="middle" x="1755" y="-230.8" font-family="Times,serif" font-size="14.00">samples = 3</text>
<text text-anchor="middle" x="1755" y="-215.8" font-family="Times,serif" font-size="14.00">value = [0, 2, 1, 0]</text>
<text text-anchor="middle" x="1755" y="-200.8" font-family="Times,serif" font-size="14.00">class = historical</text>
</g>
<!-- 35&#45;&gt;37 -->
<g id="edge37" class="edge"><title>35&#45;&gt;37</title>
<path fill="none" stroke="black" d="M1647.62,-296.884C1662.7,-287.214 1679.3,-276.563 1694.85,-266.587"/>
<polygon fill="black" stroke="black" points="1696.84,-269.47 1703.36,-261.125 1693.06,-263.578 1696.84,-269.47"/>
</g>
<!-- 38 -->
<g id="node39" class="node"><title>38</title>
<polygon fill="#47e539" stroke="black" points="1746,-149.5 1626,-149.5 1626,-96.5 1746,-96.5 1746,-149.5"/>
<text text-anchor="middle" x="1686" y="-134.3" font-family="Times,serif" font-size="14.00">samples = 2</text>
<text text-anchor="middle" x="1686" y="-119.3" font-family="Times,serif" font-size="14.00">value = [0, 2, 0, 0]</text>
<text text-anchor="middle" x="1686" y="-104.3" font-family="Times,serif" font-size="14.00">class = historical</text>
</g>
<!-- 37&#45;&gt;38 -->
<g id="edge38" class="edge"><title>37&#45;&gt;38</title>
<path fill="none" stroke="black" d="M1732.6,-192.884C1725.01,-181.666 1716.53,-169.126 1708.9,-157.852"/>
<polygon fill="black" stroke="black" points="1711.77,-155.842 1703.26,-149.52 1705.97,-159.764 1711.77,-155.842"/>
</g>
<!-- 39 -->
<g id="node40" class="node"><title>39</title>
<polygon fill="#399de5" stroke="black" points="1886,-149.5 1764,-149.5 1764,-96.5 1886,-96.5 1886,-149.5"/>
<text text-anchor="middle" x="1825" y="-134.3" font-family="Times,serif" font-size="14.00">samples = 1</text>
<text text-anchor="middle" x="1825" y="-119.3" font-family="Times,serif" font-size="14.00">value = [0, 0, 1, 0]</text>
<text text-anchor="middle" x="1825" y="-104.3" font-family="Times,serif" font-size="14.00">class = sentimental</text>
</g>
<!-- 37&#45;&gt;39 -->
<g id="edge39" class="edge"><title>37&#45;&gt;39</title>
<path fill="none" stroke="black" d="M1777.73,-192.884C1785.43,-181.666 1794.03,-169.126 1801.77,-157.852"/>
<polygon fill="black" stroke="black" points="1804.71,-159.746 1807.49,-149.52 1798.94,-155.785 1804.71,-159.746"/>
</g>
</g>
</svg>
