<?xml version="1.0" encoding="UTF-8" standalone="no"?>
<!DOCTYPE svg PUBLIC "-//W3C//DTD SVG 1.1//EN"
 "http://www.w3.org/Graphics/SVG/1.1/DTD/svg11.dtd">
<!-- Generated by graphviz version 2.38.0 (20140413.2041)
 -->
<!-- Title: Tree Pages: 1 -->
<svg width="2366pt" height="581pt"
 viewBox="0.00 0.00 2365.50 581.00" xmlns="http://www.w3.org/2000/svg" xmlns:xlink="http://www.w3.org/1999/xlink">
<g id="graph0" class="graph" transform="scale(1 1) rotate(0) translate(4 577)">
<title>Tree</title>
<polygon fill="white" stroke="none" points="-4,4 -4,-577 2361.5,-577 2361.5,4 -4,4"/>
<!-- 0 -->
<g id="node1" class="node"><title>0</title>
<polygon fill="#399de5" fill-opacity="0.047059" stroke="black" points="1711.5,-573 1564.5,-573 1564.5,-505 1711.5,-505 1711.5,-573"/>
<text text-anchor="middle" x="1638" y="-557.8" font-family="Times,serif" font-size="14.00">Fear_NRC &lt;= 6.4535</text>
<text text-anchor="middle" x="1638" y="-542.8" font-family="Times,serif" font-size="14.00">samples = 112</text>
<text text-anchor="middle" x="1638" y="-527.8" font-family="Times,serif" font-size="14.00">value = [22, 30, 34, 26]</text>
<text text-anchor="middle" x="1638" y="-512.8" font-family="Times,serif" font-size="14.00">class = sentimental</text>
</g>
<!-- 1 -->
<g id="node2" class="node"><title>1</title>
<polygon fill="#399de5" fill-opacity="0.109804" stroke="black" points="1566,-469 1368,-469 1368,-401 1566,-401 1566,-469"/>
<text text-anchor="middle" x="1467" y="-453.8" font-family="Times,serif" font-size="14.00">Disgust_NRC_narrated &lt;= 0.485</text>
<text text-anchor="middle" x="1467" y="-438.8" font-family="Times,serif" font-size="14.00">samples = 78</text>
<text text-anchor="middle" x="1467" y="-423.8" font-family="Times,serif" font-size="14.00">value = [22, 4, 29, 23]</text>
<text text-anchor="middle" x="1467" y="-408.8" font-family="Times,serif" font-size="14.00">class = sentimental</text>
</g>
<!-- 0&#45;&gt;1 -->
<g id="edge1" class="edge"><title>0&#45;&gt;1</title>
<path fill="none" stroke="black" d="M1582.48,-504.884C1566.12,-495.125 1548.08,-484.366 1531.23,-474.31"/>
<polygon fill="black" stroke="black" points="1532.91,-471.242 1522.53,-469.125 1529.33,-477.253 1532.91,-471.242"/>
<text text-anchor="middle" x="1528.66" y="-489.663" font-family="Times,serif" font-size="14.00">True</text>
</g>
<!-- 26 -->
<g id="node27" class="node"><title>26</title>
<polygon fill="#47e539" fill-opacity="0.725490" stroke="black" points="1937,-469 1791,-469 1791,-401 1937,-401 1937,-469"/>
<text text-anchor="middle" x="1864" y="-453.8" font-family="Times,serif" font-size="14.00">Anger_NRC &lt;= 2.4647</text>
<text text-anchor="middle" x="1864" y="-438.8" font-family="Times,serif" font-size="14.00">samples = 34</text>
<text text-anchor="middle" x="1864" y="-423.8" font-family="Times,serif" font-size="14.00">value = [0, 26, 5, 3]</text>
<text text-anchor="middle" x="1864" y="-408.8" font-family="Times,serif" font-size="14.00">class = historical</text>
</g>
<!-- 0&#45;&gt;26 -->
<g id="edge26" class="edge"><title>0&#45;&gt;26</title>
<path fill="none" stroke="black" d="M1711.38,-504.884C1733.81,-494.76 1758.62,-483.561 1781.61,-473.187"/>
<polygon fill="black" stroke="black" points="1783.32,-476.254 1790.99,-468.95 1780.44,-469.874 1783.32,-476.254"/>
<text text-anchor="middle" x="1782.15" y="-488.635" font-family="Times,serif" font-size="14.00">False</text>
</g>
<!-- 2 -->
<g id="node3" class="node"><title>2</title>
<polygon fill="#399de5" fill-opacity="0.647059" stroke="black" points="935,-365 787,-365 787,-297 935,-297 935,-365"/>
<text text-anchor="middle" x="861" y="-349.8" font-family="Times,serif" font-size="14.00">Trust_NRC &lt;= 16.1612</text>
<text text-anchor="middle" x="861" y="-334.8" font-family="Times,serif" font-size="14.00">samples = 37</text>
<text text-anchor="middle" x="861" y="-319.8" font-family="Times,serif" font-size="14.00">value = [4, 1, 26, 6]</text>
<text text-anchor="middle" x="861" y="-304.8" font-family="Times,serif" font-size="14.00">class = sentimental</text>
</g>
<!-- 1&#45;&gt;2 -->
<g id="edge2" class="edge"><title>1&#45;&gt;2</title>
<path fill="none" stroke="black" d="M1367.95,-417.328C1250.31,-397.527 1056.11,-364.84 945.336,-346.195"/>
<polygon fill="black" stroke="black" points="945.652,-342.699 935.21,-344.491 944.49,-349.602 945.652,-342.699"/>
</g>
<!-- 17 -->
<g id="node18" class="node"><title>17</title>
<polygon fill="#e58139" fill-opacity="0.043137" stroke="black" points="1545.5,-365 1388.5,-365 1388.5,-297 1545.5,-297 1545.5,-365"/>
<text text-anchor="middle" x="1467" y="-349.8" font-family="Times,serif" font-size="14.00">neutral_NRC &lt;= 44.4333</text>
<text text-anchor="middle" x="1467" y="-334.8" font-family="Times,serif" font-size="14.00">samples = 41</text>
<text text-anchor="middle" x="1467" y="-319.8" font-family="Times,serif" font-size="14.00">value = [18, 3, 3, 17]</text>
<text text-anchor="middle" x="1467" y="-304.8" font-family="Times,serif" font-size="14.00">class = costumbrista</text>
</g>
<!-- 1&#45;&gt;17 -->
<g id="edge17" class="edge"><title>1&#45;&gt;17</title>
<path fill="none" stroke="black" d="M1467,-400.884C1467,-392.778 1467,-383.982 1467,-375.472"/>
<polygon fill="black" stroke="black" points="1470.5,-375.299 1467,-365.299 1463.5,-375.299 1470.5,-375.299"/>
</g>
<!-- 3 -->
<g id="node4" class="node"><title>3</title>
<polygon fill="#399de5" fill-opacity="0.815686" stroke="black" points="532.5,-261 371.5,-261 371.5,-193 532.5,-193 532.5,-261"/>
<text text-anchor="middle" x="452" y="-245.8" font-family="Times,serif" font-size="14.00">Joy_NRC_speech &lt;= 0.36</text>
<text text-anchor="middle" x="452" y="-230.8" font-family="Times,serif" font-size="14.00">samples = 30</text>
<text text-anchor="middle" x="452" y="-215.8" font-family="Times,serif" font-size="14.00">value = [3, 0, 25, 2]</text>
<text text-anchor="middle" x="452" y="-200.8" font-family="Times,serif" font-size="14.00">class = sentimental</text>
</g>
<!-- 2&#45;&gt;3 -->
<g id="edge3" class="edge"><title>2&#45;&gt;3</title>
<path fill="none" stroke="black" d="M786.933,-311.529C718.197,-294.386 615.719,-268.83 542.232,-250.503"/>
<polygon fill="black" stroke="black" points="543.065,-247.103 532.515,-248.08 541.371,-253.895 543.065,-247.103"/>
</g>
<!-- 10 -->
<g id="node11" class="node"><title>10</title>
<polygon fill="#d739e5" fill-opacity="0.498039" stroke="black" points="952,-261 770,-261 770,-193 952,-193 952,-261"/>
<text text-anchor="middle" x="861" y="-245.8" font-family="Times,serif" font-size="14.00">Joy_NRC_narrated &lt;= 1.7353</text>
<text text-anchor="middle" x="861" y="-230.8" font-family="Times,serif" font-size="14.00">samples = 7</text>
<text text-anchor="middle" x="861" y="-215.8" font-family="Times,serif" font-size="14.00">value = [1, 1, 1, 4]</text>
<text text-anchor="middle" x="861" y="-200.8" font-family="Times,serif" font-size="14.00">class = sociopolitical</text>
</g>
<!-- 2&#45;&gt;10 -->
<g id="edge10" class="edge"><title>2&#45;&gt;10</title>
<path fill="none" stroke="black" d="M861,-296.884C861,-288.778 861,-279.982 861,-271.472"/>
<polygon fill="black" stroke="black" points="864.5,-271.299 861,-261.299 857.5,-271.299 864.5,-271.299"/>
</g>
<!-- 4 -->
<g id="node5" class="node"><title>4</title>
<polygon fill="#e58139" fill-opacity="0.666667" stroke="black" points="286,-157 128,-157 128,-89 286,-89 286,-157"/>
<text text-anchor="middle" x="207" y="-141.8" font-family="Times,serif" font-size="14.00">Surprise_NRC &lt;= 0.6092</text>
<text text-anchor="middle" x="207" y="-126.8" font-family="Times,serif" font-size="14.00">samples = 4</text>
<text text-anchor="middle" x="207" y="-111.8" font-family="Times,serif" font-size="14.00">value = [3, 0, 1, 0]</text>
<text text-anchor="middle" x="207" y="-96.8" font-family="Times,serif" font-size="14.00">class = costumbrista</text>
</g>
<!-- 3&#45;&gt;4 -->
<g id="edge4" class="edge"><title>3&#45;&gt;4</title>
<path fill="none" stroke="black" d="M372.456,-192.884C347.924,-182.67 320.761,-171.362 295.657,-160.91"/>
<polygon fill="black" stroke="black" points="296.723,-157.563 286.145,-156.95 294.032,-164.025 296.723,-157.563"/>
</g>
<!-- 7 -->
<g id="node8" class="node"><title>7</title>
<polygon fill="#399de5" fill-opacity="0.917647" stroke="black" points="552.5,-157 351.5,-157 351.5,-89 552.5,-89 552.5,-157"/>
<text text-anchor="middle" x="452" y="-141.8" font-family="Times,serif" font-size="14.00">narrated_neutral_NRC &lt;= 3.1494</text>
<text text-anchor="middle" x="452" y="-126.8" font-family="Times,serif" font-size="14.00">samples = 26</text>
<text text-anchor="middle" x="452" y="-111.8" font-family="Times,serif" font-size="14.00">value = [0, 0, 24, 2]</text>
<text text-anchor="middle" x="452" y="-96.8" font-family="Times,serif" font-size="14.00">class = sentimental</text>
</g>
<!-- 3&#45;&gt;7 -->
<g id="edge7" class="edge"><title>3&#45;&gt;7</title>
<path fill="none" stroke="black" d="M452,-192.884C452,-184.778 452,-175.982 452,-167.472"/>
<polygon fill="black" stroke="black" points="455.5,-167.299 452,-157.299 448.5,-167.299 455.5,-167.299"/>
</g>
<!-- 5 -->
<g id="node6" class="node"><title>5</title>
<polygon fill="#e58139" stroke="black" points="128,-53 0,-53 0,-0 128,-0 128,-53"/>
<text text-anchor="middle" x="64" y="-37.8" font-family="Times,serif" font-size="14.00">samples = 3</text>
<text text-anchor="middle" x="64" y="-22.8" font-family="Times,serif" font-size="14.00">value = [3, 0, 0, 0]</text>
<text text-anchor="middle" x="64" y="-7.8" font-family="Times,serif" font-size="14.00">class = costumbrista</text>
</g>
<!-- 4&#45;&gt;5 -->
<g id="edge5" class="edge"><title>4&#45;&gt;5</title>
<path fill="none" stroke="black" d="M156.986,-88.9485C142.174,-79.1601 126.005,-68.4756 111.366,-58.8015"/>
<polygon fill="black" stroke="black" points="113.218,-55.83 102.945,-53.2367 109.359,-61.6701 113.218,-55.83"/>
</g>
<!-- 6 -->
<g id="node7" class="node"><title>6</title>
<polygon fill="#399de5" stroke="black" points="268,-53 146,-53 146,-0 268,-0 268,-53"/>
<text text-anchor="middle" x="207" y="-37.8" font-family="Times,serif" font-size="14.00">samples = 1</text>
<text text-anchor="middle" x="207" y="-22.8" font-family="Times,serif" font-size="14.00">value = [0, 0, 1, 0]</text>
<text text-anchor="middle" x="207" y="-7.8" font-family="Times,serif" font-size="14.00">class = sentimental</text>
</g>
<!-- 4&#45;&gt;6 -->
<g id="edge6" class="edge"><title>4&#45;&gt;6</title>
<path fill="none" stroke="black" d="M207,-88.9485C207,-80.7153 207,-71.848 207,-63.4814"/>
<polygon fill="black" stroke="black" points="210.5,-63.2367 207,-53.2367 203.5,-63.2367 210.5,-63.2367"/>
</g>
<!-- 8 -->
<g id="node9" class="node"><title>8</title>
<polygon fill="#d739e5" stroke="black" points="417.5,-53 286.5,-53 286.5,-0 417.5,-0 417.5,-53"/>
<text text-anchor="middle" x="352" y="-37.8" font-family="Times,serif" font-size="14.00">samples = 1</text>
<text text-anchor="middle" x="352" y="-22.8" font-family="Times,serif" font-size="14.00">value = [0, 0, 0, 1]</text>
<text text-anchor="middle" x="352" y="-7.8" font-family="Times,serif" font-size="14.00">class = sociopolitical</text>
</g>
<!-- 7&#45;&gt;8 -->
<g id="edge8" class="edge"><title>7&#45;&gt;8</title>
<path fill="none" stroke="black" d="M417.025,-88.9485C407.151,-79.6175 396.415,-69.4722 386.565,-60.1641"/>
<polygon fill="black" stroke="black" points="388.907,-57.5613 379.235,-53.2367 384.099,-62.649 388.907,-57.5613"/>
</g>
<!-- 9 -->
<g id="node10" class="node"><title>9</title>
<polygon fill="#399de5" fill-opacity="0.956863" stroke="black" points="562.5,-53 435.5,-53 435.5,-0 562.5,-0 562.5,-53"/>
<text text-anchor="middle" x="499" y="-37.8" font-family="Times,serif" font-size="14.00">samples = 25</text>
<text text-anchor="middle" x="499" y="-22.8" font-family="Times,serif" font-size="14.00">value = [0, 0, 24, 1]</text>
<text text-anchor="middle" x="499" y="-7.8" font-family="Times,serif" font-size="14.00">class = sentimental</text>
</g>
<!-- 7&#45;&gt;9 -->
<g id="edge9" class="edge"><title>7&#45;&gt;9</title>
<path fill="none" stroke="black" d="M468.438,-88.9485C472.715,-80.3494 477.336,-71.0586 481.658,-62.3689"/>
<polygon fill="black" stroke="black" points="484.88,-63.7491 486.2,-53.2367 478.613,-60.6318 484.88,-63.7491"/>
</g>
<!-- 11 -->
<g id="node12" class="node"><title>11</title>
<polygon fill="#d739e5" fill-opacity="0.749020" stroke="black" points="865.5,-157 660.5,-157 660.5,-89 865.5,-89 865.5,-157"/>
<text text-anchor="middle" x="763" y="-141.8" font-family="Times,serif" font-size="14.00">Disgust_NRC_narrated &lt;= 0.1075</text>
<text text-anchor="middle" x="763" y="-126.8" font-family="Times,serif" font-size="14.00">samples = 5</text>
<text text-anchor="middle" x="763" y="-111.8" font-family="Times,serif" font-size="14.00">value = [0, 0, 1, 4]</text>
<text text-anchor="middle" x="763" y="-96.8" font-family="Times,serif" font-size="14.00">class = sociopolitical</text>
</g>
<!-- 10&#45;&gt;11 -->
<g id="edge11" class="edge"><title>10&#45;&gt;11</title>
<path fill="none" stroke="black" d="M829.182,-192.884C820.539,-183.887 811.078,-174.041 802.083,-164.678"/>
<polygon fill="black" stroke="black" points="804.446,-162.086 794.994,-157.299 799.398,-166.935 804.446,-162.086"/>
</g>
<!-- 14 -->
<g id="node15" class="node"><title>14</title>
<polygon fill="none" stroke="black" points="1032,-157 884,-157 884,-89 1032,-89 1032,-157"/>
<text text-anchor="middle" x="958" y="-141.8" font-family="Times,serif" font-size="14.00">Trust_NRC &lt;= 16.6272</text>
<text text-anchor="middle" x="958" y="-126.8" font-family="Times,serif" font-size="14.00">samples = 2</text>
<text text-anchor="middle" x="958" y="-111.8" font-family="Times,serif" font-size="14.00">value = [1, 1, 0, 0]</text>
<text text-anchor="middle" x="958" y="-96.8" font-family="Times,serif" font-size="14.00">class = costumbrista</text>
</g>
<!-- 10&#45;&gt;14 -->
<g id="edge14" class="edge"><title>10&#45;&gt;14</title>
<path fill="none" stroke="black" d="M892.493,-192.884C901.049,-183.887 910.412,-174.041 919.316,-164.678"/>
<polygon fill="black" stroke="black" points="921.978,-166.958 926.333,-157.299 916.905,-162.134 921.978,-166.958"/>
</g>
<!-- 12 -->
<g id="node13" class="node"><title>12</title>
<polygon fill="#d739e5" stroke="black" points="711.5,-53 580.5,-53 580.5,-0 711.5,-0 711.5,-53"/>
<text text-anchor="middle" x="646" y="-37.8" font-family="Times,serif" font-size="14.00">samples = 4</text>
<text text-anchor="middle" x="646" y="-22.8" font-family="Times,serif" font-size="14.00">value = [0, 0, 0, 4]</text>
<text text-anchor="middle" x="646" y="-7.8" font-family="Times,serif" font-size="14.00">class = sociopolitical</text>
</g>
<!-- 11&#45;&gt;12 -->
<g id="edge12" class="edge"><title>11&#45;&gt;12</title>
<path fill="none" stroke="black" d="M722.079,-88.9485C710.3,-79.4346 697.473,-69.074 685.765,-59.6175"/>
<polygon fill="black" stroke="black" points="687.843,-56.7973 677.864,-53.2367 683.445,-62.2429 687.843,-56.7973"/>
</g>
<!-- 13 -->
<g id="node14" class="node"><title>13</title>
<polygon fill="#399de5" stroke="black" points="852,-53 730,-53 730,-0 852,-0 852,-53"/>
<text text-anchor="middle" x="791" y="-37.8" font-family="Times,serif" font-size="14.00">samples = 1</text>
<text text-anchor="middle" x="791" y="-22.8" font-family="Times,serif" font-size="14.00">value = [0, 0, 1, 0]</text>
<text text-anchor="middle" x="791" y="-7.8" font-family="Times,serif" font-size="14.00">class = sentimental</text>
</g>
<!-- 11&#45;&gt;13 -->
<g id="edge13" class="edge"><title>11&#45;&gt;13</title>
<path fill="none" stroke="black" d="M772.793,-88.9485C775.287,-80.5323 777.977,-71.4536 780.504,-62.9243"/>
<polygon fill="black" stroke="black" points="783.889,-63.819 783.374,-53.2367 777.178,-61.8304 783.889,-63.819"/>
</g>
<!-- 15 -->
<g id="node16" class="node"><title>15</title>
<polygon fill="#47e539" stroke="black" points="990,-53 870,-53 870,-0 990,-0 990,-53"/>
<text text-anchor="middle" x="930" y="-37.8" font-family="Times,serif" font-size="14.00">samples = 1</text>
<text text-anchor="middle" x="930" y="-22.8" font-family="Times,serif" font-size="14.00">value = [0, 1, 0, 0]</text>
<text text-anchor="middle" x="930" y="-7.8" font-family="Times,serif" font-size="14.00">class = historical</text>
</g>
<!-- 14&#45;&gt;15 -->
<g id="edge15" class="edge"><title>14&#45;&gt;15</title>
<path fill="none" stroke="black" d="M948.207,-88.9485C945.713,-80.5323 943.023,-71.4536 940.496,-62.9243"/>
<polygon fill="black" stroke="black" points="943.822,-61.8304 937.626,-53.2367 937.111,-63.819 943.822,-61.8304"/>
</g>
<!-- 16 -->
<g id="node17" class="node"><title>16</title>
<polygon fill="#e58139" stroke="black" points="1136,-53 1008,-53 1008,-0 1136,-0 1136,-53"/>
<text text-anchor="middle" x="1072" y="-37.8" font-family="Times,serif" font-size="14.00">samples = 1</text>
<text text-anchor="middle" x="1072" y="-22.8" font-family="Times,serif" font-size="14.00">value = [1, 0, 0, 0]</text>
<text text-anchor="middle" x="1072" y="-7.8" font-family="Times,serif" font-size="14.00">class = costumbrista</text>
</g>
<!-- 14&#45;&gt;16 -->
<g id="edge16" class="edge"><title>14&#45;&gt;16</title>
<path fill="none" stroke="black" d="M997.872,-88.9485C1009.24,-79.526 1021.61,-69.2731 1032.93,-59.8906"/>
<polygon fill="black" stroke="black" points="1035.49,-62.3132 1040.95,-53.2367 1031.02,-56.924 1035.49,-62.3132"/>
</g>
<!-- 18 -->
<g id="node19" class="node"><title>18</title>
<polygon fill="#d739e5" fill-opacity="0.392157" stroke="black" points="1476.5,-261 1275.5,-261 1275.5,-193 1476.5,-193 1476.5,-261"/>
<text text-anchor="middle" x="1376" y="-245.8" font-family="Times,serif" font-size="14.00">Surprise_NRC_speech &lt;= 0.1549</text>
<text text-anchor="middle" x="1376" y="-230.8" font-family="Times,serif" font-size="14.00">samples = 31</text>
<text text-anchor="middle" x="1376" y="-215.8" font-family="Times,serif" font-size="14.00">value = [8, 3, 3, 17]</text>
<text text-anchor="middle" x="1376" y="-200.8" font-family="Times,serif" font-size="14.00">class = sociopolitical</text>
</g>
<!-- 17&#45;&gt;18 -->
<g id="edge18" class="edge"><title>17&#45;&gt;18</title>
<path fill="none" stroke="black" d="M1437.45,-296.884C1429.51,-287.976 1420.82,-278.235 1412.54,-268.957"/>
<polygon fill="black" stroke="black" points="1414.98,-266.431 1405.71,-261.299 1409.75,-271.091 1414.98,-266.431"/>
</g>
<!-- 25 -->
<g id="node26" class="node"><title>25</title>
<polygon fill="#e58139" stroke="black" points="1623,-253.5 1495,-253.5 1495,-200.5 1623,-200.5 1623,-253.5"/>
<text text-anchor="middle" x="1559" y="-238.3" font-family="Times,serif" font-size="14.00">samples = 10</text>
<text text-anchor="middle" x="1559" y="-223.3" font-family="Times,serif" font-size="14.00">value = [10, 0, 0, 0]</text>
<text text-anchor="middle" x="1559" y="-208.3" font-family="Times,serif" font-size="14.00">class = costumbrista</text>
</g>
<!-- 17&#45;&gt;25 -->
<g id="edge25" class="edge"><title>17&#45;&gt;25</title>
<path fill="none" stroke="black" d="M1496.87,-296.884C1507.19,-285.446 1518.74,-272.634 1529.06,-261.19"/>
<polygon fill="black" stroke="black" points="1531.88,-263.29 1535.98,-253.52 1526.69,-258.601 1531.88,-263.29"/>
</g>
<!-- 19 -->
<g id="node20" class="node"><title>19</title>
<polygon fill="#e58139" fill-opacity="0.800000" stroke="black" points="1392.5,-157 1227.5,-157 1227.5,-89 1392.5,-89 1392.5,-157"/>
<text text-anchor="middle" x="1310" y="-141.8" font-family="Times,serif" font-size="14.00">negative_NRC &lt;= 14.1199</text>
<text text-anchor="middle" x="1310" y="-126.8" font-family="Times,serif" font-size="14.00">samples = 6</text>
<text text-anchor="middle" x="1310" y="-111.8" font-family="Times,serif" font-size="14.00">value = [5, 0, 0, 1]</text>
<text text-anchor="middle" x="1310" y="-96.8" font-family="Times,serif" font-size="14.00">class = costumbrista</text>
</g>
<!-- 18&#45;&gt;19 -->
<g id="edge19" class="edge"><title>18&#45;&gt;19</title>
<path fill="none" stroke="black" d="M1354.57,-192.884C1348.98,-184.243 1342.88,-174.819 1337.04,-165.793"/>
<polygon fill="black" stroke="black" points="1339.92,-163.794 1331.55,-157.299 1334.04,-167.596 1339.92,-163.794"/>
</g>
<!-- 22 -->
<g id="node23" class="node"><title>22</title>
<polygon fill="#d739e5" fill-opacity="0.592157" stroke="black" points="1619,-157 1411,-157 1411,-89 1619,-89 1619,-157"/>
<text text-anchor="middle" x="1515" y="-141.8" font-family="Times,serif" font-size="14.00">narrated_neutral_NRC &lt;= 17.5341</text>
<text text-anchor="middle" x="1515" y="-126.8" font-family="Times,serif" font-size="14.00">samples = 25</text>
<text text-anchor="middle" x="1515" y="-111.8" font-family="Times,serif" font-size="14.00">value = [3, 3, 3, 16]</text>
<text text-anchor="middle" x="1515" y="-96.8" font-family="Times,serif" font-size="14.00">class = sociopolitical</text>
</g>
<!-- 18&#45;&gt;22 -->
<g id="edge22" class="edge"><title>18&#45;&gt;22</title>
<path fill="none" stroke="black" d="M1421.13,-192.884C1434,-183.442 1448.14,-173.064 1461.46,-163.292"/>
<polygon fill="black" stroke="black" points="1463.63,-166.037 1469.62,-157.299 1459.49,-160.394 1463.63,-166.037"/>
</g>
<!-- 20 -->
<g id="node21" class="node"><title>20</title>
<polygon fill="#e58139" stroke="black" points="1282,-53 1154,-53 1154,-0 1282,-0 1282,-53"/>
<text text-anchor="middle" x="1218" y="-37.8" font-family="Times,serif" font-size="14.00">samples = 5</text>
<text text-anchor="middle" x="1218" y="-22.8" font-family="Times,serif" font-size="14.00">value = [5, 0, 0, 0]</text>
<text text-anchor="middle" x="1218" y="-7.8" font-family="Times,serif" font-size="14.00">class = costumbrista</text>
</g>
<!-- 19&#45;&gt;20 -->
<g id="edge20" class="edge"><title>19&#45;&gt;20</title>
<path fill="none" stroke="black" d="M1277.82,-88.9485C1268.83,-79.709 1259.06,-69.671 1250.07,-60.4381"/>
<polygon fill="black" stroke="black" points="1252.54,-57.9605 1243.06,-53.2367 1247.52,-62.8434 1252.54,-57.9605"/>
</g>
<!-- 21 -->
<g id="node22" class="node"><title>21</title>
<polygon fill="#d739e5" stroke="black" points="1431.5,-53 1300.5,-53 1300.5,-0 1431.5,-0 1431.5,-53"/>
<text text-anchor="middle" x="1366" y="-37.8" font-family="Times,serif" font-size="14.00">samples = 1</text>
<text text-anchor="middle" x="1366" y="-22.8" font-family="Times,serif" font-size="14.00">value = [0, 0, 0, 1]</text>
<text text-anchor="middle" x="1366" y="-7.8" font-family="Times,serif" font-size="14.00">class = sociopolitical</text>
</g>
<!-- 19&#45;&gt;21 -->
<g id="edge21" class="edge"><title>19&#45;&gt;21</title>
<path fill="none" stroke="black" d="M1329.59,-88.9485C1334.74,-80.2579 1340.3,-70.8608 1345.5,-62.0917"/>
<polygon fill="black" stroke="black" points="1348.66,-63.624 1350.75,-53.2367 1342.64,-60.0553 1348.66,-63.624"/>
</g>
<!-- 23 -->
<g id="node24" class="node"><title>23</title>
<polygon fill="#d739e5" fill-opacity="0.180392" stroke="black" points="1580.5,-53 1449.5,-53 1449.5,-0 1580.5,-0 1580.5,-53"/>
<text text-anchor="middle" x="1515" y="-37.8" font-family="Times,serif" font-size="14.00">samples = 14</text>
<text text-anchor="middle" x="1515" y="-22.8" font-family="Times,serif" font-size="14.00">value = [3, 3, 3, 5]</text>
<text text-anchor="middle" x="1515" y="-7.8" font-family="Times,serif" font-size="14.00">class = sociopolitical</text>
</g>
<!-- 22&#45;&gt;23 -->
<g id="edge23" class="edge"><title>22&#45;&gt;23</title>
<path fill="none" stroke="black" d="M1515,-88.9485C1515,-80.7153 1515,-71.848 1515,-63.4814"/>
<polygon fill="black" stroke="black" points="1518.5,-63.2367 1515,-53.2367 1511.5,-63.2367 1518.5,-63.2367"/>
</g>
<!-- 24 -->
<g id="node25" class="node"><title>24</title>
<polygon fill="#d739e5" stroke="black" points="1729.5,-53 1598.5,-53 1598.5,-0 1729.5,-0 1729.5,-53"/>
<text text-anchor="middle" x="1664" y="-37.8" font-family="Times,serif" font-size="14.00">samples = 11</text>
<text text-anchor="middle" x="1664" y="-22.8" font-family="Times,serif" font-size="14.00">value = [0, 0, 0, 11]</text>
<text text-anchor="middle" x="1664" y="-7.8" font-family="Times,serif" font-size="14.00">class = sociopolitical</text>
</g>
<!-- 22&#45;&gt;24 -->
<g id="edge24" class="edge"><title>22&#45;&gt;24</title>
<path fill="none" stroke="black" d="M1567.11,-88.9485C1582.55,-79.1601 1599.39,-68.4756 1614.65,-58.8015"/>
<polygon fill="black" stroke="black" points="1616.85,-61.5483 1623.42,-53.2367 1613.1,-55.637 1616.85,-61.5483"/>
</g>
<!-- 27 -->
<g id="node28" class="node"><title>27</title>
<polygon fill="#47e539" fill-opacity="0.125490" stroke="black" points="1958,-365 1770,-365 1770,-297 1958,-297 1958,-365"/>
<text text-anchor="middle" x="1864" y="-349.8" font-family="Times,serif" font-size="14.00">Fear_NRC_narrated &lt;= 5.4284</text>
<text text-anchor="middle" x="1864" y="-334.8" font-family="Times,serif" font-size="14.00">samples = 12</text>
<text text-anchor="middle" x="1864" y="-319.8" font-family="Times,serif" font-size="14.00">value = [0, 5, 4, 3]</text>
<text text-anchor="middle" x="1864" y="-304.8" font-family="Times,serif" font-size="14.00">class = historical</text>
</g>
<!-- 26&#45;&gt;27 -->
<g id="edge27" class="edge"><title>26&#45;&gt;27</title>
<path fill="none" stroke="black" d="M1864,-400.884C1864,-392.778 1864,-383.982 1864,-375.472"/>
<polygon fill="black" stroke="black" points="1867.5,-375.299 1864,-365.299 1860.5,-375.299 1867.5,-375.299"/>
</g>
<!-- 34 -->
<g id="node35" class="node"><title>34</title>
<polygon fill="#47e539" fill-opacity="0.952941" stroke="black" points="2246,-365 2056,-365 2056,-297 2246,-297 2246,-365"/>
<text text-anchor="middle" x="2151" y="-349.8" font-family="Times,serif" font-size="14.00">Anger_NRC_speech &lt;= 0.2148</text>
<text text-anchor="middle" x="2151" y="-334.8" font-family="Times,serif" font-size="14.00">samples = 22</text>
<text text-anchor="middle" x="2151" y="-319.8" font-family="Times,serif" font-size="14.00">value = [0, 21, 1, 0]</text>
<text text-anchor="middle" x="2151" y="-304.8" font-family="Times,serif" font-size="14.00">class = historical</text>
</g>
<!-- 26&#45;&gt;34 -->
<g id="edge34" class="edge"><title>26&#45;&gt;34</title>
<path fill="none" stroke="black" d="M1937.16,-407.997C1970.93,-395.996 2011.6,-381.541 2048.37,-368.474"/>
<polygon fill="black" stroke="black" points="2049.88,-371.654 2058.13,-365.007 2047.53,-365.058 2049.88,-371.654"/>
</g>
<!-- 28 -->
<g id="node29" class="node"><title>28</title>
<polygon fill="#47e539" fill-opacity="0.800000" stroke="black" points="1861.5,-261 1706.5,-261 1706.5,-193 1861.5,-193 1861.5,-261"/>
<text text-anchor="middle" x="1784" y="-245.8" font-family="Times,serif" font-size="14.00">positive_NRC &lt;= 13.279</text>
<text text-anchor="middle" x="1784" y="-230.8" font-family="Times,serif" font-size="14.00">samples = 6</text>
<text text-anchor="middle" x="1784" y="-215.8" font-family="Times,serif" font-size="14.00">value = [0, 5, 1, 0]</text>
<text text-anchor="middle" x="1784" y="-200.8" font-family="Times,serif" font-size="14.00">class = historical</text>
</g>
<!-- 27&#45;&gt;28 -->
<g id="edge28" class="edge"><title>27&#45;&gt;28</title>
<path fill="none" stroke="black" d="M1838.03,-296.884C1831.11,-288.065 1823.55,-278.43 1816.34,-269.235"/>
<polygon fill="black" stroke="black" points="1819.04,-267.008 1810.12,-261.299 1813.53,-271.328 1819.04,-267.008"/>
</g>
<!-- 31 -->
<g id="node32" class="node"><title>31</title>
<polygon fill="none" stroke="black" points="2072,-261 1880,-261 1880,-193 2072,-193 2072,-261"/>
<text text-anchor="middle" x="1976" y="-245.8" font-family="Times,serif" font-size="14.00">Trust_NRC_narrated &lt;= 4.1238</text>
<text text-anchor="middle" x="1976" y="-230.8" font-family="Times,serif" font-size="14.00">samples = 6</text>
<text text-anchor="middle" x="1976" y="-215.8" font-family="Times,serif" font-size="14.00">value = [0, 0, 3, 3]</text>
<text text-anchor="middle" x="1976" y="-200.8" font-family="Times,serif" font-size="14.00">class = sentimental</text>
</g>
<!-- 27&#45;&gt;31 -->
<g id="edge31" class="edge"><title>27&#45;&gt;31</title>
<path fill="none" stroke="black" d="M1900.36,-296.884C1910.44,-287.709 1921.48,-277.65 1931.94,-268.123"/>
<polygon fill="black" stroke="black" points="1934.4,-270.62 1939.44,-261.299 1929.69,-265.445 1934.4,-270.62"/>
</g>
<!-- 29 -->
<g id="node30" class="node"><title>29</title>
<polygon fill="#399de5" stroke="black" points="1759,-149.5 1637,-149.5 1637,-96.5 1759,-96.5 1759,-149.5"/>
<text text-anchor="middle" x="1698" y="-134.3" font-family="Times,serif" font-size="14.00">samples = 1</text>
<text text-anchor="middle" x="1698" y="-119.3" font-family="Times,serif" font-size="14.00">value = [0, 0, 1, 0]</text>
<text text-anchor="middle" x="1698" y="-104.3" font-family="Times,serif" font-size="14.00">class = sentimental</text>
</g>
<!-- 28&#45;&gt;29 -->
<g id="edge29" class="edge"><title>28&#45;&gt;29</title>
<path fill="none" stroke="black" d="M1756.08,-192.884C1746.43,-181.446 1735.63,-168.634 1725.98,-157.19"/>
<polygon fill="black" stroke="black" points="1728.64,-154.909 1719.52,-149.52 1723.29,-159.421 1728.64,-154.909"/>
</g>
<!-- 30 -->
<g id="node31" class="node"><title>30</title>
<polygon fill="#47e539" stroke="black" points="1897,-149.5 1777,-149.5 1777,-96.5 1897,-96.5 1897,-149.5"/>
<text text-anchor="middle" x="1837" y="-134.3" font-family="Times,serif" font-size="14.00">samples = 5</text>
<text text-anchor="middle" x="1837" y="-119.3" font-family="Times,serif" font-size="14.00">value = [0, 5, 0, 0]</text>
<text text-anchor="middle" x="1837" y="-104.3" font-family="Times,serif" font-size="14.00">class = historical</text>
</g>
<!-- 28&#45;&gt;30 -->
<g id="edge30" class="edge"><title>28&#45;&gt;30</title>
<path fill="none" stroke="black" d="M1801.21,-192.884C1806.92,-181.886 1813.3,-169.617 1819.06,-158.517"/>
<polygon fill="black" stroke="black" points="1822.23,-160.007 1823.74,-149.52 1816.02,-156.78 1822.23,-160.007"/>
</g>
<!-- 32 -->
<g id="node33" class="node"><title>32</title>
<polygon fill="#399de5" stroke="black" points="2037,-149.5 1915,-149.5 1915,-96.5 2037,-96.5 2037,-149.5"/>
<text text-anchor="middle" x="1976" y="-134.3" font-family="Times,serif" font-size="14.00">samples = 3</text>
<text text-anchor="middle" x="1976" y="-119.3" font-family="Times,serif" font-size="14.00">value = [0, 0, 3, 0]</text>
<text text-anchor="middle" x="1976" y="-104.3" font-family="Times,serif" font-size="14.00">class = sentimental</text>
</g>
<!-- 31&#45;&gt;32 -->
<g id="edge32" class="edge"><title>31&#45;&gt;32</title>
<path fill="none" stroke="black" d="M1976,-192.884C1976,-182.326 1976,-170.597 1976,-159.854"/>
<polygon fill="black" stroke="black" points="1979.5,-159.52 1976,-149.52 1972.5,-159.52 1979.5,-159.52"/>
</g>
<!-- 33 -->
<g id="node34" class="node"><title>33</title>
<polygon fill="#d739e5" stroke="black" points="2186.5,-149.5 2055.5,-149.5 2055.5,-96.5 2186.5,-96.5 2186.5,-149.5"/>
<text text-anchor="middle" x="2121" y="-134.3" font-family="Times,serif" font-size="14.00">samples = 3</text>
<text text-anchor="middle" x="2121" y="-119.3" font-family="Times,serif" font-size="14.00">value = [0, 0, 0, 3]</text>
<text text-anchor="middle" x="2121" y="-104.3" font-family="Times,serif" font-size="14.00">class = sociopolitical</text>
</g>
<!-- 31&#45;&gt;33 -->
<g id="edge33" class="edge"><title>31&#45;&gt;33</title>
<path fill="none" stroke="black" d="M2023.08,-192.884C2040.12,-180.896 2059.31,-167.399 2076.15,-155.549"/>
<polygon fill="black" stroke="black" points="2078.56,-158.136 2084.72,-149.52 2074.53,-152.411 2078.56,-158.136"/>
</g>
<!-- 35 -->
<g id="node36" class="node"><title>35</title>
<polygon fill="#399de5" stroke="black" points="2212,-253.5 2090,-253.5 2090,-200.5 2212,-200.5 2212,-253.5"/>
<text text-anchor="middle" x="2151" y="-238.3" font-family="Times,serif" font-size="14.00">samples = 1</text>
<text text-anchor="middle" x="2151" y="-223.3" font-family="Times,serif" font-size="14.00">value = [0, 0, 1, 0]</text>
<text text-anchor="middle" x="2151" y="-208.3" font-family="Times,serif" font-size="14.00">class = sentimental</text>
</g>
<!-- 34&#45;&gt;35 -->
<g id="edge35" class="edge"><title>34&#45;&gt;35</title>
<path fill="none" stroke="black" d="M2151,-296.884C2151,-286.326 2151,-274.597 2151,-263.854"/>
<polygon fill="black" stroke="black" points="2154.5,-263.52 2151,-253.52 2147.5,-263.52 2154.5,-263.52"/>
</g>
<!-- 36 -->
<g id="node37" class="node"><title>36</title>
<polygon fill="#47e539" stroke="black" points="2357.5,-253.5 2230.5,-253.5 2230.5,-200.5 2357.5,-200.5 2357.5,-253.5"/>
<text text-anchor="middle" x="2294" y="-238.3" font-family="Times,serif" font-size="14.00">samples = 21</text>
<text text-anchor="middle" x="2294" y="-223.3" font-family="Times,serif" font-size="14.00">value = [0, 21, 0, 0]</text>
<text text-anchor="middle" x="2294" y="-208.3" font-family="Times,serif" font-size="14.00">class = historical</text>
</g>
<!-- 34&#45;&gt;36 -->
<g id="edge36" class="edge"><title>34&#45;&gt;36</title>
<path fill="none" stroke="black" d="M2197.43,-296.884C2214.23,-284.896 2233.16,-271.399 2249.77,-259.549"/>
<polygon fill="black" stroke="black" points="2252.11,-262.176 2258.22,-253.52 2248.05,-256.478 2252.11,-262.176"/>
</g>
</g>
</svg>
