<?xml version="1.0" encoding="UTF-8" standalone="no"?>
<!DOCTYPE svg PUBLIC "-//W3C//DTD SVG 1.1//EN"
 "http://www.w3.org/Graphics/SVG/1.1/DTD/svg11.dtd">
<!-- Generated by graphviz version 2.38.0 (20140413.2041)
 -->
<!-- Title: Tree Pages: 1 -->
<svg width="1854pt" height="685pt"
 viewBox="0.00 0.00 1853.50 685.00" xmlns="http://www.w3.org/2000/svg" xmlns:xlink="http://www.w3.org/1999/xlink">
<g id="graph0" class="graph" transform="scale(1 1) rotate(0) translate(4 681)">
<title>Tree</title>
<polygon fill="white" stroke="none" points="-4,4 -4,-681 1849.5,-681 1849.5,4 -4,4"/>
<!-- 0 -->
<g id="node1" class="node"><title>0</title>
<polygon fill="#39e581" fill-opacity="0.054902" stroke="black" points="1578.5,-677 1365.5,-677 1365.5,-609 1578.5,-609 1578.5,-677"/>
<text text-anchor="middle" x="1472" y="-661.8" font-family="Times,serif" font-size="14.00">speech_emotional_WN &lt;= 13.7734</text>
<text text-anchor="middle" x="1472" y="-646.8" font-family="Times,serif" font-size="14.00">samples = 112</text>
<text text-anchor="middle" x="1472" y="-631.8" font-family="Times,serif" font-size="14.00">value = [41, 45, 26]</text>
<text text-anchor="middle" x="1472" y="-616.8" font-family="Times,serif" font-size="14.00">class = 0.5</text>
</g>
<!-- 1 -->
<g id="node2" class="node"><title>1</title>
<polygon fill="#39e581" fill-opacity="0.094118" stroke="black" points="1382,-573 1228,-573 1228,-505 1382,-505 1382,-573"/>
<text text-anchor="middle" x="1305" y="-557.8" font-family="Times,serif" font-size="14.00">negative_WN &lt;= 4.6893</text>
<text text-anchor="middle" x="1305" y="-542.8" font-family="Times,serif" font-size="14.00">samples = 91</text>
<text text-anchor="middle" x="1305" y="-527.8" font-family="Times,serif" font-size="14.00">value = [38, 43, 10]</text>
<text text-anchor="middle" x="1305" y="-512.8" font-family="Times,serif" font-size="14.00">class = 0.5</text>
</g>
<!-- 0&#45;&gt;1 -->
<g id="edge1" class="edge"><title>0&#45;&gt;1</title>
<path fill="none" stroke="black" d="M1417.78,-608.884C1401.95,-599.214 1384.51,-588.563 1368.18,-578.587"/>
<polygon fill="black" stroke="black" points="1369.59,-575.35 1359.23,-573.125 1365.94,-581.324 1369.59,-575.35"/>
<text text-anchor="middle" x="1365.11" y="-593.725" font-family="Times,serif" font-size="14.00">True</text>
</g>
<!-- 30 -->
<g id="node31" class="node"><title>30</title>
<polygon fill="#8139e5" fill-opacity="0.721569" stroke="black" points="1715,-573 1563,-573 1563,-505 1715,-505 1715,-573"/>
<text text-anchor="middle" x="1639" y="-557.8" font-family="Times,serif" font-size="14.00">neutral_WN &lt;= 76.7374</text>
<text text-anchor="middle" x="1639" y="-542.8" font-family="Times,serif" font-size="14.00">samples = 21</text>
<text text-anchor="middle" x="1639" y="-527.8" font-family="Times,serif" font-size="14.00">value = [3, 2, 16]</text>
<text text-anchor="middle" x="1639" y="-512.8" font-family="Times,serif" font-size="14.00">class = 1.0</text>
</g>
<!-- 0&#45;&gt;30 -->
<g id="edge30" class="edge"><title>0&#45;&gt;30</title>
<path fill="none" stroke="black" d="M1526.22,-608.884C1542.05,-599.214 1559.49,-588.563 1575.82,-578.587"/>
<polygon fill="black" stroke="black" points="1578.06,-581.324 1584.77,-573.125 1574.41,-575.35 1578.06,-581.324"/>
<text text-anchor="middle" x="1578.89" y="-593.725" font-family="Times,serif" font-size="14.00">False</text>
</g>
<!-- 2 -->
<g id="node3" class="node"><title>2</title>
<polygon fill="#e58139" fill-opacity="0.360784" stroke="black" points="897,-469 739,-469 739,-401 897,-401 897,-469"/>
<text text-anchor="middle" x="818" y="-453.8" font-family="Times,serif" font-size="14.00">positive_WN &lt;= 10.7334</text>
<text text-anchor="middle" x="818" y="-438.8" font-family="Times,serif" font-size="14.00">samples = 55</text>
<text text-anchor="middle" x="818" y="-423.8" font-family="Times,serif" font-size="14.00">value = [30, 16, 9]</text>
<text text-anchor="middle" x="818" y="-408.8" font-family="Times,serif" font-size="14.00">class = 0.0</text>
</g>
<!-- 1&#45;&gt;2 -->
<g id="edge2" class="edge"><title>1&#45;&gt;2</title>
<path fill="none" stroke="black" d="M1227.83,-521.838C1140.63,-503.573 998.895,-473.888 907.064,-454.654"/>
<polygon fill="black" stroke="black" points="907.734,-451.219 897.229,-452.594 906.299,-458.07 907.734,-451.219"/>
</g>
<!-- 19 -->
<g id="node20" class="node"><title>19</title>
<polygon fill="#39e581" fill-opacity="0.678431" stroke="black" points="1406.5,-469 1203.5,-469 1203.5,-401 1406.5,-401 1406.5,-469"/>
<text text-anchor="middle" x="1305" y="-453.8" font-family="Times,serif" font-size="14.00">narrated_neutral_WN &lt;= 48.2614</text>
<text text-anchor="middle" x="1305" y="-438.8" font-family="Times,serif" font-size="14.00">samples = 36</text>
<text text-anchor="middle" x="1305" y="-423.8" font-family="Times,serif" font-size="14.00">value = [8, 27, 1]</text>
<text text-anchor="middle" x="1305" y="-408.8" font-family="Times,serif" font-size="14.00">class = 0.5</text>
</g>
<!-- 1&#45;&gt;19 -->
<g id="edge19" class="edge"><title>1&#45;&gt;19</title>
<path fill="none" stroke="black" d="M1305,-504.884C1305,-496.778 1305,-487.982 1305,-479.472"/>
<polygon fill="black" stroke="black" points="1308.5,-479.299 1305,-469.299 1301.5,-479.299 1308.5,-479.299"/>
</g>
<!-- 3 -->
<g id="node4" class="node"><title>3</title>
<polygon fill="#e58139" fill-opacity="0.513725" stroke="black" points="575,-365 361,-365 361,-297 575,-297 575,-365"/>
<text text-anchor="middle" x="468" y="-349.8" font-family="Times,serif" font-size="14.00">narrated_emotional_WN &lt;= 8.0126</text>
<text text-anchor="middle" x="468" y="-334.8" font-family="Times,serif" font-size="14.00">samples = 47</text>
<text text-anchor="middle" x="468" y="-319.8" font-family="Times,serif" font-size="14.00">value = [29, 10, 8]</text>
<text text-anchor="middle" x="468" y="-304.8" font-family="Times,serif" font-size="14.00">class = 0.0</text>
</g>
<!-- 2&#45;&gt;3 -->
<g id="edge3" class="edge"><title>2&#45;&gt;3</title>
<path fill="none" stroke="black" d="M738.58,-410.855C693.2,-397.63 635.451,-380.8 584.968,-366.088"/>
<polygon fill="black" stroke="black" points="585.882,-362.709 575.303,-363.271 583.924,-369.429 585.882,-362.709"/>
</g>
<!-- 14 -->
<g id="node15" class="node"><title>14</title>
<polygon fill="#39e581" fill-opacity="0.713725" stroke="black" points="921,-365 715,-365 715,-297 921,-297 921,-365"/>
<text text-anchor="middle" x="818" y="-349.8" font-family="Times,serif" font-size="14.00">speech_emotional_WN &lt;= 3.8036</text>
<text text-anchor="middle" x="818" y="-334.8" font-family="Times,serif" font-size="14.00">samples = 8</text>
<text text-anchor="middle" x="818" y="-319.8" font-family="Times,serif" font-size="14.00">value = [1, 6, 1]</text>
<text text-anchor="middle" x="818" y="-304.8" font-family="Times,serif" font-size="14.00">class = 0.5</text>
</g>
<!-- 2&#45;&gt;14 -->
<g id="edge14" class="edge"><title>2&#45;&gt;14</title>
<path fill="none" stroke="black" d="M818,-400.884C818,-392.778 818,-383.982 818,-375.472"/>
<polygon fill="black" stroke="black" points="821.5,-375.299 818,-365.299 814.5,-375.299 821.5,-375.299"/>
</g>
<!-- 4 -->
<g id="node5" class="node"><title>4</title>
<polygon fill="#8139e5" fill-opacity="0.749020" stroke="black" points="253,-261 101,-261 101,-193 253,-193 253,-261"/>
<text text-anchor="middle" x="177" y="-245.8" font-family="Times,serif" font-size="14.00">neutral_WN &lt;= 88.6522</text>
<text text-anchor="middle" x="177" y="-230.8" font-family="Times,serif" font-size="14.00">samples = 5</text>
<text text-anchor="middle" x="177" y="-215.8" font-family="Times,serif" font-size="14.00">value = [1, 0, 4]</text>
<text text-anchor="middle" x="177" y="-200.8" font-family="Times,serif" font-size="14.00">class = 1.0</text>
</g>
<!-- 3&#45;&gt;4 -->
<g id="edge4" class="edge"><title>3&#45;&gt;4</title>
<path fill="none" stroke="black" d="M373.521,-296.884C337.872,-284.388 297.545,-270.253 262.74,-258.053"/>
<polygon fill="black" stroke="black" points="263.673,-254.672 253.078,-254.667 261.358,-261.277 263.673,-254.672"/>
</g>
<!-- 7 -->
<g id="node8" class="node"><title>7</title>
<polygon fill="#e58139" fill-opacity="0.560784" stroke="black" points="529,-261 407,-261 407,-193 529,-193 529,-261"/>
<text text-anchor="middle" x="468" y="-245.8" font-family="Times,serif" font-size="14.00">speech &lt;= 44.2367</text>
<text text-anchor="middle" x="468" y="-230.8" font-family="Times,serif" font-size="14.00">samples = 42</text>
<text text-anchor="middle" x="468" y="-215.8" font-family="Times,serif" font-size="14.00">value = [28, 10, 4]</text>
<text text-anchor="middle" x="468" y="-200.8" font-family="Times,serif" font-size="14.00">class = 0.0</text>
</g>
<!-- 3&#45;&gt;7 -->
<g id="edge7" class="edge"><title>3&#45;&gt;7</title>
<path fill="none" stroke="black" d="M468,-296.884C468,-288.778 468,-279.982 468,-271.472"/>
<polygon fill="black" stroke="black" points="471.5,-271.299 468,-261.299 464.5,-271.299 471.5,-271.299"/>
</g>
<!-- 5 -->
<g id="node6" class="node"><title>5</title>
<polygon fill="#8139e5" stroke="black" points="106,-149.5 7.10543e-15,-149.5 7.10543e-15,-96.5 106,-96.5 106,-149.5"/>
<text text-anchor="middle" x="53" y="-134.3" font-family="Times,serif" font-size="14.00">samples = 4</text>
<text text-anchor="middle" x="53" y="-119.3" font-family="Times,serif" font-size="14.00">value = [0, 0, 4]</text>
<text text-anchor="middle" x="53" y="-104.3" font-family="Times,serif" font-size="14.00">class = 1.0</text>
</g>
<!-- 4&#45;&gt;5 -->
<g id="edge5" class="edge"><title>4&#45;&gt;5</title>
<path fill="none" stroke="black" d="M136.741,-192.884C122.301,-181.006 106.06,-167.646 91.7512,-155.876"/>
<polygon fill="black" stroke="black" points="93.9706,-153.17 84.0242,-149.52 89.5237,-158.576 93.9706,-153.17"/>
</g>
<!-- 6 -->
<g id="node7" class="node"><title>6</title>
<polygon fill="#e58139" stroke="black" points="230,-149.5 124,-149.5 124,-96.5 230,-96.5 230,-149.5"/>
<text text-anchor="middle" x="177" y="-134.3" font-family="Times,serif" font-size="14.00">samples = 1</text>
<text text-anchor="middle" x="177" y="-119.3" font-family="Times,serif" font-size="14.00">value = [1, 0, 0]</text>
<text text-anchor="middle" x="177" y="-104.3" font-family="Times,serif" font-size="14.00">class = 0.0</text>
</g>
<!-- 4&#45;&gt;6 -->
<g id="edge6" class="edge"><title>4&#45;&gt;6</title>
<path fill="none" stroke="black" d="M177,-192.884C177,-182.326 177,-170.597 177,-159.854"/>
<polygon fill="black" stroke="black" points="180.5,-159.52 177,-149.52 173.5,-159.52 180.5,-159.52"/>
</g>
<!-- 8 -->
<g id="node9" class="node"><title>8</title>
<polygon fill="#e58139" fill-opacity="0.831373" stroke="black" points="462,-157 248,-157 248,-89 462,-89 462,-157"/>
<text text-anchor="middle" x="355" y="-141.8" font-family="Times,serif" font-size="14.00">narrated_emotional_WN &lt;= 29.439</text>
<text text-anchor="middle" x="355" y="-126.8" font-family="Times,serif" font-size="14.00">samples = 20</text>
<text text-anchor="middle" x="355" y="-111.8" font-family="Times,serif" font-size="14.00">value = [17, 2, 1]</text>
<text text-anchor="middle" x="355" y="-96.8" font-family="Times,serif" font-size="14.00">class = 0.0</text>
</g>
<!-- 7&#45;&gt;8 -->
<g id="edge8" class="edge"><title>7&#45;&gt;8</title>
<path fill="none" stroke="black" d="M431.312,-192.884C421.148,-183.709 410.005,-173.65 399.45,-164.123"/>
<polygon fill="black" stroke="black" points="401.659,-161.402 391.89,-157.299 396.968,-166.598 401.659,-161.402"/>
</g>
<!-- 11 -->
<g id="node12" class="node"><title>11</title>
<polygon fill="#e58139" fill-opacity="0.215686" stroke="black" points="682.5,-157 479.5,-157 479.5,-89 682.5,-89 682.5,-157"/>
<text text-anchor="middle" x="581" y="-141.8" font-family="Times,serif" font-size="14.00">narrated_neutral_WN &lt;= 38.0176</text>
<text text-anchor="middle" x="581" y="-126.8" font-family="Times,serif" font-size="14.00">samples = 22</text>
<text text-anchor="middle" x="581" y="-111.8" font-family="Times,serif" font-size="14.00">value = [11, 8, 3]</text>
<text text-anchor="middle" x="581" y="-96.8" font-family="Times,serif" font-size="14.00">class = 0.0</text>
</g>
<!-- 7&#45;&gt;11 -->
<g id="edge11" class="edge"><title>7&#45;&gt;11</title>
<path fill="none" stroke="black" d="M504.688,-192.884C514.852,-183.709 525.995,-173.65 536.55,-164.123"/>
<polygon fill="black" stroke="black" points="539.032,-166.598 544.11,-157.299 534.341,-161.402 539.032,-166.598"/>
</g>
<!-- 9 -->
<g id="node10" class="node"><title>9</title>
<polygon fill="#e58139" fill-opacity="0.890196" stroke="black" points="307.5,-53 194.5,-53 194.5,-0 307.5,-0 307.5,-53"/>
<text text-anchor="middle" x="251" y="-37.8" font-family="Times,serif" font-size="14.00">samples = 19</text>
<text text-anchor="middle" x="251" y="-22.8" font-family="Times,serif" font-size="14.00">value = [17, 1, 1]</text>
<text text-anchor="middle" x="251" y="-7.8" font-family="Times,serif" font-size="14.00">class = 0.0</text>
</g>
<!-- 8&#45;&gt;9 -->
<g id="edge9" class="edge"><title>8&#45;&gt;9</title>
<path fill="none" stroke="black" d="M318.626,-88.9485C308.357,-79.6175 297.192,-69.4722 286.948,-60.1641"/>
<polygon fill="black" stroke="black" points="289.079,-57.3713 279.324,-53.2367 284.371,-62.5521 289.079,-57.3713"/>
</g>
<!-- 10 -->
<g id="node11" class="node"><title>10</title>
<polygon fill="#39e581" stroke="black" points="432,-53 326,-53 326,-0 432,-0 432,-53"/>
<text text-anchor="middle" x="379" y="-37.8" font-family="Times,serif" font-size="14.00">samples = 1</text>
<text text-anchor="middle" x="379" y="-22.8" font-family="Times,serif" font-size="14.00">value = [0, 1, 0]</text>
<text text-anchor="middle" x="379" y="-7.8" font-family="Times,serif" font-size="14.00">class = 0.5</text>
</g>
<!-- 8&#45;&gt;10 -->
<g id="edge10" class="edge"><title>8&#45;&gt;10</title>
<path fill="none" stroke="black" d="M363.394,-88.9485C365.508,-80.6238 367.787,-71.6509 369.933,-63.2027"/>
<polygon fill="black" stroke="black" points="373.394,-63.7906 372.464,-53.2367 366.61,-62.0675 373.394,-63.7906"/>
</g>
<!-- 12 -->
<g id="node13" class="node"><title>12</title>
<polygon fill="#e58139" fill-opacity="0.462745" stroke="black" points="612.5,-53 499.5,-53 499.5,-0 612.5,-0 612.5,-53"/>
<text text-anchor="middle" x="556" y="-37.8" font-family="Times,serif" font-size="14.00">samples = 18</text>
<text text-anchor="middle" x="556" y="-22.8" font-family="Times,serif" font-size="14.00">value = [11, 5, 2]</text>
<text text-anchor="middle" x="556" y="-7.8" font-family="Times,serif" font-size="14.00">class = 0.0</text>
</g>
<!-- 11&#45;&gt;12 -->
<g id="edge12" class="edge"><title>11&#45;&gt;12</title>
<path fill="none" stroke="black" d="M572.256,-88.9485C570.03,-80.5323 567.628,-71.4536 565.372,-62.9243"/>
<polygon fill="black" stroke="black" points="568.75,-62.009 562.809,-53.2367 561.983,-63.7993 568.75,-62.009"/>
</g>
<!-- 13 -->
<g id="node14" class="node"><title>13</title>
<polygon fill="#39e581" fill-opacity="0.666667" stroke="black" points="737,-53 631,-53 631,-0 737,-0 737,-53"/>
<text text-anchor="middle" x="684" y="-37.8" font-family="Times,serif" font-size="14.00">samples = 4</text>
<text text-anchor="middle" x="684" y="-22.8" font-family="Times,serif" font-size="14.00">value = [0, 3, 1]</text>
<text text-anchor="middle" x="684" y="-7.8" font-family="Times,serif" font-size="14.00">class = 0.5</text>
</g>
<!-- 11&#45;&gt;13 -->
<g id="edge13" class="edge"><title>11&#45;&gt;13</title>
<path fill="none" stroke="black" d="M617.024,-88.9485C627.195,-79.6175 638.253,-69.4722 648.398,-60.1641"/>
<polygon fill="black" stroke="black" points="650.946,-62.5762 655.948,-53.2367 646.214,-57.4182 650.946,-62.5762"/>
</g>
<!-- 15 -->
<g id="node16" class="node"><title>15</title>
<polygon fill="none" stroke="black" points="810.5,-261 695.5,-261 695.5,-193 810.5,-193 810.5,-261"/>
<text text-anchor="middle" x="753" y="-245.8" font-family="Times,serif" font-size="14.00">speech &lt;= 26.994</text>
<text text-anchor="middle" x="753" y="-230.8" font-family="Times,serif" font-size="14.00">samples = 2</text>
<text text-anchor="middle" x="753" y="-215.8" font-family="Times,serif" font-size="14.00">value = [1, 0, 1]</text>
<text text-anchor="middle" x="753" y="-200.8" font-family="Times,serif" font-size="14.00">class = 0.0</text>
</g>
<!-- 14&#45;&gt;15 -->
<g id="edge15" class="edge"><title>14&#45;&gt;15</title>
<path fill="none" stroke="black" d="M796.896,-296.884C791.39,-288.243 785.385,-278.819 779.633,-269.793"/>
<polygon fill="black" stroke="black" points="782.546,-267.852 774.22,-261.299 776.643,-271.614 782.546,-267.852"/>
</g>
<!-- 18 -->
<g id="node19" class="node"><title>18</title>
<polygon fill="#39e581" stroke="black" points="935,-253.5 829,-253.5 829,-200.5 935,-200.5 935,-253.5"/>
<text text-anchor="middle" x="882" y="-238.3" font-family="Times,serif" font-size="14.00">samples = 6</text>
<text text-anchor="middle" x="882" y="-223.3" font-family="Times,serif" font-size="14.00">value = [0, 6, 0]</text>
<text text-anchor="middle" x="882" y="-208.3" font-family="Times,serif" font-size="14.00">class = 0.5</text>
</g>
<!-- 14&#45;&gt;18 -->
<g id="edge18" class="edge"><title>14&#45;&gt;18</title>
<path fill="none" stroke="black" d="M838.779,-296.884C845.749,-285.776 853.531,-273.372 860.551,-262.184"/>
<polygon fill="black" stroke="black" points="863.637,-263.851 865.987,-253.52 857.708,-260.13 863.637,-263.851"/>
</g>
<!-- 16 -->
<g id="node17" class="node"><title>16</title>
<polygon fill="#8139e5" stroke="black" points="806,-149.5 700,-149.5 700,-96.5 806,-96.5 806,-149.5"/>
<text text-anchor="middle" x="753" y="-134.3" font-family="Times,serif" font-size="14.00">samples = 1</text>
<text text-anchor="middle" x="753" y="-119.3" font-family="Times,serif" font-size="14.00">value = [0, 0, 1]</text>
<text text-anchor="middle" x="753" y="-104.3" font-family="Times,serif" font-size="14.00">class = 1.0</text>
</g>
<!-- 15&#45;&gt;16 -->
<g id="edge16" class="edge"><title>15&#45;&gt;16</title>
<path fill="none" stroke="black" d="M753,-192.884C753,-182.326 753,-170.597 753,-159.854"/>
<polygon fill="black" stroke="black" points="756.5,-159.52 753,-149.52 749.5,-159.52 756.5,-159.52"/>
</g>
<!-- 17 -->
<g id="node18" class="node"><title>17</title>
<polygon fill="#e58139" stroke="black" points="930,-149.5 824,-149.5 824,-96.5 930,-96.5 930,-149.5"/>
<text text-anchor="middle" x="877" y="-134.3" font-family="Times,serif" font-size="14.00">samples = 1</text>
<text text-anchor="middle" x="877" y="-119.3" font-family="Times,serif" font-size="14.00">value = [1, 0, 0]</text>
<text text-anchor="middle" x="877" y="-104.3" font-family="Times,serif" font-size="14.00">class = 0.0</text>
</g>
<!-- 15&#45;&gt;17 -->
<g id="edge17" class="edge"><title>15&#45;&gt;17</title>
<path fill="none" stroke="black" d="M793.259,-192.884C807.699,-181.006 823.94,-167.646 838.249,-155.876"/>
<polygon fill="black" stroke="black" points="840.476,-158.576 845.976,-149.52 836.029,-153.17 840.476,-158.576"/>
</g>
<!-- 20 -->
<g id="node21" class="node"><title>20</title>
<polygon fill="#39e581" fill-opacity="0.886275" stroke="black" points="1306,-365 1110,-365 1110,-297 1306,-297 1306,-365"/>
<text text-anchor="middle" x="1208" y="-349.8" font-family="Times,serif" font-size="14.00">speech_neutral_WN &lt;= 25.1298</text>
<text text-anchor="middle" x="1208" y="-334.8" font-family="Times,serif" font-size="14.00">samples = 28</text>
<text text-anchor="middle" x="1208" y="-319.8" font-family="Times,serif" font-size="14.00">value = [2, 25, 1]</text>
<text text-anchor="middle" x="1208" y="-304.8" font-family="Times,serif" font-size="14.00">class = 0.5</text>
</g>
<!-- 19&#45;&gt;20 -->
<g id="edge20" class="edge"><title>19&#45;&gt;20</title>
<path fill="none" stroke="black" d="M1273.51,-400.884C1264.95,-391.887 1255.59,-382.041 1246.68,-372.678"/>
<polygon fill="black" stroke="black" points="1249.09,-370.134 1239.67,-365.299 1244.02,-374.958 1249.09,-370.134"/>
</g>
<!-- 27 -->
<g id="node28" class="node"><title>27</title>
<polygon fill="#e58139" fill-opacity="0.666667" stroke="black" points="1478,-365 1324,-365 1324,-297 1478,-297 1478,-365"/>
<text text-anchor="middle" x="1401" y="-349.8" font-family="Times,serif" font-size="14.00">negative_WN &lt;= 7.7692</text>
<text text-anchor="middle" x="1401" y="-334.8" font-family="Times,serif" font-size="14.00">samples = 8</text>
<text text-anchor="middle" x="1401" y="-319.8" font-family="Times,serif" font-size="14.00">value = [6, 2, 0]</text>
<text text-anchor="middle" x="1401" y="-304.8" font-family="Times,serif" font-size="14.00">class = 0.0</text>
</g>
<!-- 19&#45;&gt;27 -->
<g id="edge27" class="edge"><title>19&#45;&gt;27</title>
<path fill="none" stroke="black" d="M1336.17,-400.884C1344.64,-391.887 1353.9,-382.041 1362.71,-372.678"/>
<polygon fill="black" stroke="black" points="1365.35,-374.98 1369.66,-365.299 1360.26,-370.183 1365.35,-374.98"/>
</g>
<!-- 21 -->
<g id="node22" class="node"><title>21</title>
<polygon fill="#39e581" fill-opacity="0.623529" stroke="black" points="1165.5,-261 952.5,-261 952.5,-193 1165.5,-193 1165.5,-261"/>
<text text-anchor="middle" x="1059" y="-245.8" font-family="Times,serif" font-size="14.00">speech_emotional_WN &lt;= 10.7002</text>
<text text-anchor="middle" x="1059" y="-230.8" font-family="Times,serif" font-size="14.00">samples = 10</text>
<text text-anchor="middle" x="1059" y="-215.8" font-family="Times,serif" font-size="14.00">value = [2, 7, 1]</text>
<text text-anchor="middle" x="1059" y="-200.8" font-family="Times,serif" font-size="14.00">class = 0.5</text>
</g>
<!-- 20&#45;&gt;21 -->
<g id="edge21" class="edge"><title>20&#45;&gt;21</title>
<path fill="none" stroke="black" d="M1159.62,-296.884C1145.63,-287.304 1130.23,-276.761 1115.77,-266.864"/>
<polygon fill="black" stroke="black" points="1117.62,-263.885 1107.39,-261.125 1113.66,-269.662 1117.62,-263.885"/>
</g>
<!-- 26 -->
<g id="node27" class="node"><title>26</title>
<polygon fill="#39e581" stroke="black" points="1296.5,-253.5 1183.5,-253.5 1183.5,-200.5 1296.5,-200.5 1296.5,-253.5"/>
<text text-anchor="middle" x="1240" y="-238.3" font-family="Times,serif" font-size="14.00">samples = 18</text>
<text text-anchor="middle" x="1240" y="-223.3" font-family="Times,serif" font-size="14.00">value = [0, 18, 0]</text>
<text text-anchor="middle" x="1240" y="-208.3" font-family="Times,serif" font-size="14.00">class = 0.5</text>
</g>
<!-- 20&#45;&gt;26 -->
<g id="edge26" class="edge"><title>20&#45;&gt;26</title>
<path fill="none" stroke="black" d="M1218.39,-296.884C1221.77,-286.106 1225.53,-274.108 1228.96,-263.184"/>
<polygon fill="black" stroke="black" points="1232.34,-264.109 1231.99,-253.52 1225.66,-262.014 1232.34,-264.109"/>
</g>
<!-- 22 -->
<g id="node23" class="node"><title>22</title>
<polygon fill="#39e581" fill-opacity="0.858824" stroke="black" points="1155.5,-157 952.5,-157 952.5,-89 1155.5,-89 1155.5,-157"/>
<text text-anchor="middle" x="1054" y="-141.8" font-family="Times,serif" font-size="14.00">narrated_neutral_WN &lt;= 32.7143</text>
<text text-anchor="middle" x="1054" y="-126.8" font-family="Times,serif" font-size="14.00">samples = 8</text>
<text text-anchor="middle" x="1054" y="-111.8" font-family="Times,serif" font-size="14.00">value = [0, 7, 1]</text>
<text text-anchor="middle" x="1054" y="-96.8" font-family="Times,serif" font-size="14.00">class = 0.5</text>
</g>
<!-- 21&#45;&gt;22 -->
<g id="edge22" class="edge"><title>21&#45;&gt;22</title>
<path fill="none" stroke="black" d="M1057.38,-192.884C1056.98,-184.778 1056.55,-175.982 1056.13,-167.472"/>
<polygon fill="black" stroke="black" points="1059.62,-167.116 1055.63,-157.299 1052.63,-167.459 1059.62,-167.116"/>
</g>
<!-- 25 -->
<g id="node26" class="node"><title>25</title>
<polygon fill="#e58139" stroke="black" points="1279,-149.5 1173,-149.5 1173,-96.5 1279,-96.5 1279,-149.5"/>
<text text-anchor="middle" x="1226" y="-134.3" font-family="Times,serif" font-size="14.00">samples = 2</text>
<text text-anchor="middle" x="1226" y="-119.3" font-family="Times,serif" font-size="14.00">value = [2, 0, 0]</text>
<text text-anchor="middle" x="1226" y="-104.3" font-family="Times,serif" font-size="14.00">class = 0.0</text>
</g>
<!-- 21&#45;&gt;25 -->
<g id="edge25" class="edge"><title>21&#45;&gt;25</title>
<path fill="none" stroke="black" d="M1113.22,-192.884C1133.3,-180.621 1155.96,-166.779 1175.68,-154.737"/>
<polygon fill="black" stroke="black" points="1177.51,-157.719 1184.22,-149.52 1173.86,-151.745 1177.51,-157.719"/>
</g>
<!-- 23 -->
<g id="node24" class="node"><title>23</title>
<polygon fill="#8139e5" stroke="black" points="1045,-53 939,-53 939,-0 1045,-0 1045,-53"/>
<text text-anchor="middle" x="992" y="-37.8" font-family="Times,serif" font-size="14.00">samples = 1</text>
<text text-anchor="middle" x="992" y="-22.8" font-family="Times,serif" font-size="14.00">value = [0, 0, 1]</text>
<text text-anchor="middle" x="992" y="-7.8" font-family="Times,serif" font-size="14.00">class = 1.0</text>
</g>
<!-- 22&#45;&gt;23 -->
<g id="edge23" class="edge"><title>22&#45;&gt;23</title>
<path fill="none" stroke="black" d="M1032.32,-88.9485C1026.55,-80.1664 1020.32,-70.6629 1014.51,-61.815"/>
<polygon fill="black" stroke="black" points="1017.3,-59.6779 1008.89,-53.2367 1011.44,-63.5178 1017.3,-59.6779"/>
</g>
<!-- 24 -->
<g id="node25" class="node"><title>24</title>
<polygon fill="#39e581" stroke="black" points="1169,-53 1063,-53 1063,-0 1169,-0 1169,-53"/>
<text text-anchor="middle" x="1116" y="-37.8" font-family="Times,serif" font-size="14.00">samples = 7</text>
<text text-anchor="middle" x="1116" y="-22.8" font-family="Times,serif" font-size="14.00">value = [0, 7, 0]</text>
<text text-anchor="middle" x="1116" y="-7.8" font-family="Times,serif" font-size="14.00">class = 0.5</text>
</g>
<!-- 22&#45;&gt;24 -->
<g id="edge24" class="edge"><title>22&#45;&gt;24</title>
<path fill="none" stroke="black" d="M1075.68,-88.9485C1081.45,-80.1664 1087.68,-70.6629 1093.49,-61.815"/>
<polygon fill="black" stroke="black" points="1096.56,-63.5178 1099.11,-53.2367 1090.7,-59.6779 1096.56,-63.5178"/>
</g>
<!-- 28 -->
<g id="node29" class="node"><title>28</title>
<polygon fill="#e58139" stroke="black" points="1421,-253.5 1315,-253.5 1315,-200.5 1421,-200.5 1421,-253.5"/>
<text text-anchor="middle" x="1368" y="-238.3" font-family="Times,serif" font-size="14.00">samples = 6</text>
<text text-anchor="middle" x="1368" y="-223.3" font-family="Times,serif" font-size="14.00">value = [6, 0, 0]</text>
<text text-anchor="middle" x="1368" y="-208.3" font-family="Times,serif" font-size="14.00">class = 0.0</text>
</g>
<!-- 27&#45;&gt;28 -->
<g id="edge28" class="edge"><title>27&#45;&gt;28</title>
<path fill="none" stroke="black" d="M1390.29,-296.884C1386.8,-286.106 1382.92,-274.108 1379.38,-263.184"/>
<polygon fill="black" stroke="black" points="1382.66,-261.957 1376.26,-253.52 1376,-264.112 1382.66,-261.957"/>
</g>
<!-- 29 -->
<g id="node30" class="node"><title>29</title>
<polygon fill="#39e581" stroke="black" points="1545,-253.5 1439,-253.5 1439,-200.5 1545,-200.5 1545,-253.5"/>
<text text-anchor="middle" x="1492" y="-238.3" font-family="Times,serif" font-size="14.00">samples = 2</text>
<text text-anchor="middle" x="1492" y="-223.3" font-family="Times,serif" font-size="14.00">value = [0, 2, 0]</text>
<text text-anchor="middle" x="1492" y="-208.3" font-family="Times,serif" font-size="14.00">class = 0.5</text>
</g>
<!-- 27&#45;&gt;29 -->
<g id="edge29" class="edge"><title>27&#45;&gt;29</title>
<path fill="none" stroke="black" d="M1430.55,-296.884C1440.75,-285.446 1452.18,-272.634 1462.39,-261.19"/>
<polygon fill="black" stroke="black" points="1465.19,-263.312 1469.23,-253.52 1459.96,-258.652 1465.19,-263.312"/>
</g>
<!-- 31 -->
<g id="node32" class="node"><title>31</title>
<polygon fill="#8139e5" fill-opacity="0.823529" stroke="black" points="1718,-469 1560,-469 1560,-401 1718,-401 1718,-469"/>
<text text-anchor="middle" x="1639" y="-453.8" font-family="Times,serif" font-size="14.00">positive_WN &lt;= 18.3673</text>
<text text-anchor="middle" x="1639" y="-438.8" font-family="Times,serif" font-size="14.00">samples = 19</text>
<text text-anchor="middle" x="1639" y="-423.8" font-family="Times,serif" font-size="14.00">value = [1, 2, 16]</text>
<text text-anchor="middle" x="1639" y="-408.8" font-family="Times,serif" font-size="14.00">class = 1.0</text>
</g>
<!-- 30&#45;&gt;31 -->
<g id="edge31" class="edge"><title>30&#45;&gt;31</title>
<path fill="none" stroke="black" d="M1639,-504.884C1639,-496.778 1639,-487.982 1639,-479.472"/>
<polygon fill="black" stroke="black" points="1642.5,-479.299 1639,-469.299 1635.5,-479.299 1642.5,-479.299"/>
</g>
<!-- 40 -->
<g id="node41" class="node"><title>40</title>
<polygon fill="#e58139" stroke="black" points="1842,-461.5 1736,-461.5 1736,-408.5 1842,-408.5 1842,-461.5"/>
<text text-anchor="middle" x="1789" y="-446.3" font-family="Times,serif" font-size="14.00">samples = 2</text>
<text text-anchor="middle" x="1789" y="-431.3" font-family="Times,serif" font-size="14.00">value = [2, 0, 0]</text>
<text text-anchor="middle" x="1789" y="-416.3" font-family="Times,serif" font-size="14.00">class = 0.0</text>
</g>
<!-- 30&#45;&gt;40 -->
<g id="edge40" class="edge"><title>30&#45;&gt;40</title>
<path fill="none" stroke="black" d="M1687.7,-504.884C1705.49,-492.786 1725.54,-479.151 1743.08,-467.224"/>
<polygon fill="black" stroke="black" points="1745.17,-470.037 1751.47,-461.52 1741.23,-464.249 1745.17,-470.037"/>
</g>
<!-- 32 -->
<g id="node33" class="node"><title>32</title>
<polygon fill="#8139e5" fill-opacity="0.882353" stroke="black" points="1695.5,-365 1582.5,-365 1582.5,-297 1695.5,-297 1695.5,-365"/>
<text text-anchor="middle" x="1639" y="-349.8" font-family="Times,serif" font-size="14.00">section &lt;= 1.5</text>
<text text-anchor="middle" x="1639" y="-334.8" font-family="Times,serif" font-size="14.00">samples = 18</text>
<text text-anchor="middle" x="1639" y="-319.8" font-family="Times,serif" font-size="14.00">value = [1, 1, 16]</text>
<text text-anchor="middle" x="1639" y="-304.8" font-family="Times,serif" font-size="14.00">class = 1.0</text>
</g>
<!-- 31&#45;&gt;32 -->
<g id="edge32" class="edge"><title>31&#45;&gt;32</title>
<path fill="none" stroke="black" d="M1639,-400.884C1639,-392.778 1639,-383.982 1639,-375.472"/>
<polygon fill="black" stroke="black" points="1642.5,-375.299 1639,-365.299 1635.5,-375.299 1642.5,-375.299"/>
</g>
<!-- 39 -->
<g id="node40" class="node"><title>39</title>
<polygon fill="#39e581" stroke="black" points="1820,-357.5 1714,-357.5 1714,-304.5 1820,-304.5 1820,-357.5"/>
<text text-anchor="middle" x="1767" y="-342.3" font-family="Times,serif" font-size="14.00">samples = 1</text>
<text text-anchor="middle" x="1767" y="-327.3" font-family="Times,serif" font-size="14.00">value = [0, 1, 0]</text>
<text text-anchor="middle" x="1767" y="-312.3" font-family="Times,serif" font-size="14.00">class = 0.5</text>
</g>
<!-- 31&#45;&gt;39 -->
<g id="edge39" class="edge"><title>31&#45;&gt;39</title>
<path fill="none" stroke="black" d="M1680.56,-400.884C1695.46,-389.006 1712.23,-375.646 1727,-363.876"/>
<polygon fill="black" stroke="black" points="1729.34,-366.489 1734.97,-357.52 1724.97,-361.015 1729.34,-366.489"/>
</g>
<!-- 33 -->
<g id="node34" class="node"><title>33</title>
<polygon fill="#8139e5" fill-opacity="0.498039" stroke="black" points="1714.5,-261 1563.5,-261 1563.5,-193 1714.5,-193 1714.5,-261"/>
<text text-anchor="middle" x="1639" y="-245.8" font-family="Times,serif" font-size="14.00">positive_WN &lt;= 7.5917</text>
<text text-anchor="middle" x="1639" y="-230.8" font-family="Times,serif" font-size="14.00">samples = 5</text>
<text text-anchor="middle" x="1639" y="-215.8" font-family="Times,serif" font-size="14.00">value = [1, 1, 3]</text>
<text text-anchor="middle" x="1639" y="-200.8" font-family="Times,serif" font-size="14.00">class = 1.0</text>
</g>
<!-- 32&#45;&gt;33 -->
<g id="edge33" class="edge"><title>32&#45;&gt;33</title>
<path fill="none" stroke="black" d="M1639,-296.884C1639,-288.778 1639,-279.982 1639,-271.472"/>
<polygon fill="black" stroke="black" points="1642.5,-271.299 1639,-261.299 1635.5,-271.299 1642.5,-271.299"/>
</g>
<!-- 38 -->
<g id="node39" class="node"><title>38</title>
<polygon fill="#8139e5" stroke="black" points="1845.5,-253.5 1732.5,-253.5 1732.5,-200.5 1845.5,-200.5 1845.5,-253.5"/>
<text text-anchor="middle" x="1789" y="-238.3" font-family="Times,serif" font-size="14.00">samples = 13</text>
<text text-anchor="middle" x="1789" y="-223.3" font-family="Times,serif" font-size="14.00">value = [0, 0, 13]</text>
<text text-anchor="middle" x="1789" y="-208.3" font-family="Times,serif" font-size="14.00">class = 1.0</text>
</g>
<!-- 32&#45;&gt;38 -->
<g id="edge38" class="edge"><title>32&#45;&gt;38</title>
<path fill="none" stroke="black" d="M1687.7,-296.884C1705.49,-284.786 1725.54,-271.151 1743.08,-259.224"/>
<polygon fill="black" stroke="black" points="1745.17,-262.037 1751.47,-253.52 1741.23,-256.249 1745.17,-262.037"/>
</g>
<!-- 34 -->
<g id="node35" class="node"><title>34</title>
<polygon fill="none" stroke="black" points="1642,-157 1488,-157 1488,-89 1642,-89 1642,-157"/>
<text text-anchor="middle" x="1565" y="-141.8" font-family="Times,serif" font-size="14.00">negative_WN &lt;= 4.4337</text>
<text text-anchor="middle" x="1565" y="-126.8" font-family="Times,serif" font-size="14.00">samples = 2</text>
<text text-anchor="middle" x="1565" y="-111.8" font-family="Times,serif" font-size="14.00">value = [1, 1, 0]</text>
<text text-anchor="middle" x="1565" y="-96.8" font-family="Times,serif" font-size="14.00">class = 0.0</text>
</g>
<!-- 33&#45;&gt;34 -->
<g id="edge34" class="edge"><title>33&#45;&gt;34</title>
<path fill="none" stroke="black" d="M1614.97,-192.884C1608.64,-184.154 1601.73,-174.625 1595.12,-165.514"/>
<polygon fill="black" stroke="black" points="1597.86,-163.338 1589.16,-157.299 1592.2,-167.449 1597.86,-163.338"/>
</g>
<!-- 37 -->
<g id="node38" class="node"><title>37</title>
<polygon fill="#8139e5" stroke="black" points="1766,-149.5 1660,-149.5 1660,-96.5 1766,-96.5 1766,-149.5"/>
<text text-anchor="middle" x="1713" y="-134.3" font-family="Times,serif" font-size="14.00">samples = 3</text>
<text text-anchor="middle" x="1713" y="-119.3" font-family="Times,serif" font-size="14.00">value = [0, 0, 3]</text>
<text text-anchor="middle" x="1713" y="-104.3" font-family="Times,serif" font-size="14.00">class = 1.0</text>
</g>
<!-- 33&#45;&gt;37 -->
<g id="edge37" class="edge"><title>33&#45;&gt;37</title>
<path fill="none" stroke="black" d="M1663.03,-192.884C1671.16,-181.666 1680.26,-169.126 1688.44,-157.852"/>
<polygon fill="black" stroke="black" points="1691.45,-159.669 1694.49,-149.52 1685.78,-155.559 1691.45,-159.669"/>
</g>
<!-- 35 -->
<g id="node36" class="node"><title>35</title>
<polygon fill="#e58139" stroke="black" points="1556,-53 1450,-53 1450,-0 1556,-0 1556,-53"/>
<text text-anchor="middle" x="1503" y="-37.8" font-family="Times,serif" font-size="14.00">samples = 1</text>
<text text-anchor="middle" x="1503" y="-22.8" font-family="Times,serif" font-size="14.00">value = [1, 0, 0]</text>
<text text-anchor="middle" x="1503" y="-7.8" font-family="Times,serif" font-size="14.00">class = 0.0</text>
</g>
<!-- 34&#45;&gt;35 -->
<g id="edge35" class="edge"><title>34&#45;&gt;35</title>
<path fill="none" stroke="black" d="M1543.32,-88.9485C1537.55,-80.1664 1531.32,-70.6629 1525.51,-61.815"/>
<polygon fill="black" stroke="black" points="1528.3,-59.6779 1519.89,-53.2367 1522.44,-63.5178 1528.3,-59.6779"/>
</g>
<!-- 36 -->
<g id="node37" class="node"><title>36</title>
<polygon fill="#39e581" stroke="black" points="1680,-53 1574,-53 1574,-0 1680,-0 1680,-53"/>
<text text-anchor="middle" x="1627" y="-37.8" font-family="Times,serif" font-size="14.00">samples = 1</text>
<text text-anchor="middle" x="1627" y="-22.8" font-family="Times,serif" font-size="14.00">value = [0, 1, 0]</text>
<text text-anchor="middle" x="1627" y="-7.8" font-family="Times,serif" font-size="14.00">class = 0.5</text>
</g>
<!-- 34&#45;&gt;36 -->
<g id="edge36" class="edge"><title>34&#45;&gt;36</title>
<path fill="none" stroke="black" d="M1586.68,-88.9485C1592.45,-80.1664 1598.68,-70.6629 1604.49,-61.815"/>
<polygon fill="black" stroke="black" points="1607.56,-63.5178 1610.11,-53.2367 1601.7,-59.6779 1607.56,-63.5178"/>
</g>
</g>
</svg>
