<?xml version="1.0" encoding="UTF-8" standalone="no"?>
<!DOCTYPE svg PUBLIC "-//W3C//DTD SVG 1.1//EN"
 "http://www.w3.org/Graphics/SVG/1.1/DTD/svg11.dtd">
<!-- Generated by graphviz version 2.38.0 (20140413.2041)
 -->
<!-- Title: Tree Pages: 1 -->
<svg width="2648pt" height="685pt"
 viewBox="0.00 0.00 2647.50 685.00" xmlns="http://www.w3.org/2000/svg" xmlns:xlink="http://www.w3.org/1999/xlink">
<g id="graph0" class="graph" transform="scale(1 1) rotate(0) translate(4 681)">
<title>Tree</title>
<polygon fill="white" stroke="none" points="-4,4 -4,-681 2643.5,-681 2643.5,4 -4,4"/>
<!-- 0 -->
<g id="node1" class="node"><title>0</title>
<polygon fill="#399de5" fill-opacity="0.047059" stroke="black" points="1569.5,-677 1368.5,-677 1368.5,-609 1569.5,-609 1569.5,-677"/>
<text text-anchor="middle" x="1469" y="-661.8" font-family="Times,serif" font-size="14.00">narrated_neutral_NRC &lt;= 16.378</text>
<text text-anchor="middle" x="1469" y="-646.8" font-family="Times,serif" font-size="14.00">samples = 112</text>
<text text-anchor="middle" x="1469" y="-631.8" font-family="Times,serif" font-size="14.00">value = [22, 30, 34, 26]</text>
<text text-anchor="middle" x="1469" y="-616.8" font-family="Times,serif" font-size="14.00">class = sentimental</text>
</g>
<!-- 1 -->
<g id="node2" class="node"><title>1</title>
<polygon fill="#399de5" fill-opacity="0.109804" stroke="black" points="1305,-573 1165,-573 1165,-505 1305,-505 1305,-573"/>
<text text-anchor="middle" x="1235" y="-557.8" font-family="Times,serif" font-size="14.00">speech &lt;= 34.237</text>
<text text-anchor="middle" x="1235" y="-542.8" font-family="Times,serif" font-size="14.00">samples = 82</text>
<text text-anchor="middle" x="1235" y="-527.8" font-family="Times,serif" font-size="14.00">value = [9, 28, 34, 11]</text>
<text text-anchor="middle" x="1235" y="-512.8" font-family="Times,serif" font-size="14.00">class = sentimental</text>
</g>
<!-- 0&#45;&gt;1 -->
<g id="edge1" class="edge"><title>0&#45;&gt;1</title>
<path fill="none" stroke="black" d="M1393.03,-608.884C1367.83,-597.9 1339.73,-585.65 1314.29,-574.561"/>
<polygon fill="black" stroke="black" points="1315.61,-571.32 1305.04,-570.532 1312.81,-577.736 1315.61,-571.32"/>
<text text-anchor="middle" x="1314.19" y="-590.101" font-family="Times,serif" font-size="14.00">True</text>
</g>
<!-- 34 -->
<g id="node35" class="node"><title>34</title>
<polygon fill="#d739e5" fill-opacity="0.117647" stroke="black" points="1791,-573 1617,-573 1617,-505 1791,-505 1791,-573"/>
<text text-anchor="middle" x="1704" y="-557.8" font-family="Times,serif" font-size="14.00">emotional_NRC &lt;= 55.5667</text>
<text text-anchor="middle" x="1704" y="-542.8" font-family="Times,serif" font-size="14.00">samples = 30</text>
<text text-anchor="middle" x="1704" y="-527.8" font-family="Times,serif" font-size="14.00">value = [13, 2, 0, 15]</text>
<text text-anchor="middle" x="1704" y="-512.8" font-family="Times,serif" font-size="14.00">class = sociopolitical</text>
</g>
<!-- 0&#45;&gt;34 -->
<g id="edge34" class="edge"><title>0&#45;&gt;34</title>
<path fill="none" stroke="black" d="M1545.3,-608.884C1568.61,-598.767 1594.39,-587.575 1618.28,-577.206"/>
<polygon fill="black" stroke="black" points="1619.9,-580.317 1627.68,-573.125 1617.12,-573.896 1619.9,-580.317"/>
<text text-anchor="middle" x="1618.51" y="-592.679" font-family="Times,serif" font-size="14.00">False</text>
</g>
<!-- 2 -->
<g id="node3" class="node"><title>2</title>
<polygon fill="#47e539" fill-opacity="0.713725" stroke="black" points="552.5,-469 395.5,-469 395.5,-401 552.5,-401 552.5,-469"/>
<text text-anchor="middle" x="474" y="-453.8" font-family="Times,serif" font-size="14.00">neutral_NRC &lt;= 21.1257</text>
<text text-anchor="middle" x="474" y="-438.8" font-family="Times,serif" font-size="14.00">samples = 24</text>
<text text-anchor="middle" x="474" y="-423.8" font-family="Times,serif" font-size="14.00">value = [1, 18, 2, 3]</text>
<text text-anchor="middle" x="474" y="-408.8" font-family="Times,serif" font-size="14.00">class = historical</text>
</g>
<!-- 1&#45;&gt;2 -->
<g id="edge2" class="edge"><title>1&#45;&gt;2</title>
<path fill="none" stroke="black" d="M1164.77,-528.587C1025.75,-509.954 715.754,-468.403 562.819,-447.905"/>
<polygon fill="black" stroke="black" points="562.906,-444.385 552.53,-446.526 561.976,-451.323 562.906,-444.385"/>
</g>
<!-- 13 -->
<g id="node14" class="node"><title>13</title>
<polygon fill="#399de5" fill-opacity="0.458824" stroke="black" points="1344,-469 1126,-469 1126,-401 1344,-401 1344,-469"/>
<text text-anchor="middle" x="1235" y="-453.8" font-family="Times,serif" font-size="14.00">speech_emotional_NRC &lt;= 21.6699</text>
<text text-anchor="middle" x="1235" y="-438.8" font-family="Times,serif" font-size="14.00">samples = 58</text>
<text text-anchor="middle" x="1235" y="-423.8" font-family="Times,serif" font-size="14.00">value = [8, 10, 32, 8]</text>
<text text-anchor="middle" x="1235" y="-408.8" font-family="Times,serif" font-size="14.00">class = sentimental</text>
</g>
<!-- 1&#45;&gt;13 -->
<g id="edge13" class="edge"><title>1&#45;&gt;13</title>
<path fill="none" stroke="black" d="M1235,-504.884C1235,-496.778 1235,-487.982 1235,-479.472"/>
<polygon fill="black" stroke="black" points="1238.5,-479.299 1235,-469.299 1231.5,-479.299 1238.5,-479.299"/>
</g>
<!-- 3 -->
<g id="node4" class="node"><title>3</title>
<polygon fill="#47e539" fill-opacity="0.933333" stroke="black" points="292.5,-365 127.5,-365 127.5,-297 292.5,-297 292.5,-365"/>
<text text-anchor="middle" x="210" y="-349.8" font-family="Times,serif" font-size="14.00">negative_NRC &lt;= 15.2432</text>
<text text-anchor="middle" x="210" y="-334.8" font-family="Times,serif" font-size="14.00">samples = 16</text>
<text text-anchor="middle" x="210" y="-319.8" font-family="Times,serif" font-size="14.00">value = [1, 15, 0, 0]</text>
<text text-anchor="middle" x="210" y="-304.8" font-family="Times,serif" font-size="14.00">class = historical</text>
</g>
<!-- 2&#45;&gt;3 -->
<g id="edge3" class="edge"><title>2&#45;&gt;3</title>
<path fill="none" stroke="black" d="M395.149,-403.535C365.947,-392.252 332.578,-379.36 302.287,-367.656"/>
<polygon fill="black" stroke="black" points="303.158,-364.241 292.569,-363.902 300.635,-370.77 303.158,-364.241"/>
</g>
<!-- 6 -->
<g id="node7" class="node"><title>6</title>
<polygon fill="none" stroke="black" points="578,-365 370,-365 370,-297 578,-297 578,-365"/>
<text text-anchor="middle" x="474" y="-349.8" font-family="Times,serif" font-size="14.00">narrated_neutral_NRC &lt;= 12.2885</text>
<text text-anchor="middle" x="474" y="-334.8" font-family="Times,serif" font-size="14.00">samples = 8</text>
<text text-anchor="middle" x="474" y="-319.8" font-family="Times,serif" font-size="14.00">value = [0, 3, 2, 3]</text>
<text text-anchor="middle" x="474" y="-304.8" font-family="Times,serif" font-size="14.00">class = historical</text>
</g>
<!-- 2&#45;&gt;6 -->
<g id="edge6" class="edge"><title>2&#45;&gt;6</title>
<path fill="none" stroke="black" d="M474,-400.884C474,-392.778 474,-383.982 474,-375.472"/>
<polygon fill="black" stroke="black" points="477.5,-375.299 474,-365.299 470.5,-375.299 477.5,-375.299"/>
</g>
<!-- 4 -->
<g id="node5" class="node"><title>4</title>
<polygon fill="#e58139" stroke="black" points="128,-253.5 0,-253.5 0,-200.5 128,-200.5 128,-253.5"/>
<text text-anchor="middle" x="64" y="-238.3" font-family="Times,serif" font-size="14.00">samples = 1</text>
<text text-anchor="middle" x="64" y="-223.3" font-family="Times,serif" font-size="14.00">value = [1, 0, 0, 0]</text>
<text text-anchor="middle" x="64" y="-208.3" font-family="Times,serif" font-size="14.00">class = costumbrista</text>
</g>
<!-- 3&#45;&gt;4 -->
<g id="edge4" class="edge"><title>3&#45;&gt;4</title>
<path fill="none" stroke="black" d="M162.598,-296.884C145.439,-284.896 126.12,-271.399 109.159,-259.549"/>
<polygon fill="black" stroke="black" points="110.731,-256.378 100.529,-253.52 106.722,-262.116 110.731,-256.378"/>
</g>
<!-- 5 -->
<g id="node6" class="node"><title>5</title>
<polygon fill="#47e539" stroke="black" points="273.5,-253.5 146.5,-253.5 146.5,-200.5 273.5,-200.5 273.5,-253.5"/>
<text text-anchor="middle" x="210" y="-238.3" font-family="Times,serif" font-size="14.00">samples = 15</text>
<text text-anchor="middle" x="210" y="-223.3" font-family="Times,serif" font-size="14.00">value = [0, 15, 0, 0]</text>
<text text-anchor="middle" x="210" y="-208.3" font-family="Times,serif" font-size="14.00">class = historical</text>
</g>
<!-- 3&#45;&gt;5 -->
<g id="edge5" class="edge"><title>3&#45;&gt;5</title>
<path fill="none" stroke="black" d="M210,-296.884C210,-286.326 210,-274.597 210,-263.854"/>
<polygon fill="black" stroke="black" points="213.5,-263.52 210,-253.52 206.5,-263.52 213.5,-263.52"/>
</g>
<!-- 7 -->
<g id="node8" class="node"><title>7</title>
<polygon fill="#399de5" stroke="black" points="414,-253.5 292,-253.5 292,-200.5 414,-200.5 414,-253.5"/>
<text text-anchor="middle" x="353" y="-238.3" font-family="Times,serif" font-size="14.00">samples = 2</text>
<text text-anchor="middle" x="353" y="-223.3" font-family="Times,serif" font-size="14.00">value = [0, 0, 2, 0]</text>
<text text-anchor="middle" x="353" y="-208.3" font-family="Times,serif" font-size="14.00">class = sentimental</text>
</g>
<!-- 6&#45;&gt;7 -->
<g id="edge7" class="edge"><title>6&#45;&gt;7</title>
<path fill="none" stroke="black" d="M434.715,-296.884C420.755,-285.116 405.07,-271.894 391.202,-260.203"/>
<polygon fill="black" stroke="black" points="393.175,-257.289 383.274,-253.52 388.664,-262.641 393.175,-257.289"/>
</g>
<!-- 8 -->
<g id="node9" class="node"><title>8</title>
<polygon fill="none" stroke="black" points="632,-261 432,-261 432,-193 632,-193 632,-261"/>
<text text-anchor="middle" x="532" y="-245.8" font-family="Times,serif" font-size="14.00">speech_neutral_NRC &lt;= 10.6484</text>
<text text-anchor="middle" x="532" y="-230.8" font-family="Times,serif" font-size="14.00">samples = 6</text>
<text text-anchor="middle" x="532" y="-215.8" font-family="Times,serif" font-size="14.00">value = [0, 3, 0, 3]</text>
<text text-anchor="middle" x="532" y="-200.8" font-family="Times,serif" font-size="14.00">class = historical</text>
</g>
<!-- 6&#45;&gt;8 -->
<g id="edge8" class="edge"><title>6&#45;&gt;8</title>
<path fill="none" stroke="black" d="M492.831,-296.884C497.693,-288.332 502.992,-279.013 508.077,-270.072"/>
<polygon fill="black" stroke="black" points="511.165,-271.722 513.065,-261.299 505.079,-268.262 511.165,-271.722"/>
</g>
<!-- 9 -->
<g id="node10" class="node"><title>9</title>
<polygon fill="#d739e5" stroke="black" points="413.5,-149.5 282.5,-149.5 282.5,-96.5 413.5,-96.5 413.5,-149.5"/>
<text text-anchor="middle" x="348" y="-134.3" font-family="Times,serif" font-size="14.00">samples = 2</text>
<text text-anchor="middle" x="348" y="-119.3" font-family="Times,serif" font-size="14.00">value = [0, 0, 0, 2]</text>
<text text-anchor="middle" x="348" y="-104.3" font-family="Times,serif" font-size="14.00">class = sociopolitical</text>
</g>
<!-- 8&#45;&gt;9 -->
<g id="edge9" class="edge"><title>8&#45;&gt;9</title>
<path fill="none" stroke="black" d="M472.26,-192.884C449.941,-180.511 424.722,-166.53 402.863,-154.413"/>
<polygon fill="black" stroke="black" points="404.479,-151.307 394.036,-149.52 401.085,-157.429 404.479,-151.307"/>
</g>
<!-- 10 -->
<g id="node11" class="node"><title>10</title>
<polygon fill="#47e539" fill-opacity="0.666667" stroke="black" points="632,-157 432,-157 432,-89 632,-89 632,-157"/>
<text text-anchor="middle" x="532" y="-141.8" font-family="Times,serif" font-size="14.00">speech_neutral_NRC &lt;= 15.0099</text>
<text text-anchor="middle" x="532" y="-126.8" font-family="Times,serif" font-size="14.00">samples = 4</text>
<text text-anchor="middle" x="532" y="-111.8" font-family="Times,serif" font-size="14.00">value = [0, 3, 0, 1]</text>
<text text-anchor="middle" x="532" y="-96.8" font-family="Times,serif" font-size="14.00">class = historical</text>
</g>
<!-- 8&#45;&gt;10 -->
<g id="edge10" class="edge"><title>8&#45;&gt;10</title>
<path fill="none" stroke="black" d="M532,-192.884C532,-184.778 532,-175.982 532,-167.472"/>
<polygon fill="black" stroke="black" points="535.5,-167.299 532,-157.299 528.5,-167.299 535.5,-167.299"/>
</g>
<!-- 11 -->
<g id="node12" class="node"><title>11</title>
<polygon fill="#47e539" stroke="black" points="520,-53 400,-53 400,-0 520,-0 520,-53"/>
<text text-anchor="middle" x="460" y="-37.8" font-family="Times,serif" font-size="14.00">samples = 3</text>
<text text-anchor="middle" x="460" y="-22.8" font-family="Times,serif" font-size="14.00">value = [0, 3, 0, 0]</text>
<text text-anchor="middle" x="460" y="-7.8" font-family="Times,serif" font-size="14.00">class = historical</text>
</g>
<!-- 10&#45;&gt;11 -->
<g id="edge11" class="edge"><title>10&#45;&gt;11</title>
<path fill="none" stroke="black" d="M506.818,-88.9485C499.987,-79.9834 492.584,-70.2666 485.724,-61.2629"/>
<polygon fill="black" stroke="black" points="488.453,-59.0699 479.609,-53.2367 482.885,-63.3122 488.453,-59.0699"/>
</g>
<!-- 12 -->
<g id="node13" class="node"><title>12</title>
<polygon fill="#d739e5" stroke="black" points="669.5,-53 538.5,-53 538.5,-0 669.5,-0 669.5,-53"/>
<text text-anchor="middle" x="604" y="-37.8" font-family="Times,serif" font-size="14.00">samples = 1</text>
<text text-anchor="middle" x="604" y="-22.8" font-family="Times,serif" font-size="14.00">value = [0, 0, 0, 1]</text>
<text text-anchor="middle" x="604" y="-7.8" font-family="Times,serif" font-size="14.00">class = sociopolitical</text>
</g>
<!-- 10&#45;&gt;12 -->
<g id="edge12" class="edge"><title>10&#45;&gt;12</title>
<path fill="none" stroke="black" d="M557.182,-88.9485C564.013,-79.9834 571.416,-70.2666 578.276,-61.2629"/>
<polygon fill="black" stroke="black" points="581.115,-63.3122 584.391,-53.2367 575.547,-59.0699 581.115,-63.3122"/>
</g>
<!-- 14 -->
<g id="node15" class="node"><title>14</title>
<polygon fill="#d739e5" fill-opacity="0.286275" stroke="black" points="1174.5,-365 1017.5,-365 1017.5,-297 1174.5,-297 1174.5,-365"/>
<text text-anchor="middle" x="1096" y="-349.8" font-family="Times,serif" font-size="14.00">neutral_NRC &lt;= 38.7749</text>
<text text-anchor="middle" x="1096" y="-334.8" font-family="Times,serif" font-size="14.00">samples = 10</text>
<text text-anchor="middle" x="1096" y="-319.8" font-family="Times,serif" font-size="14.00">value = [3, 1, 1, 5]</text>
<text text-anchor="middle" x="1096" y="-304.8" font-family="Times,serif" font-size="14.00">class = sociopolitical</text>
</g>
<!-- 13&#45;&gt;14 -->
<g id="edge14" class="edge"><title>13&#45;&gt;14</title>
<path fill="none" stroke="black" d="M1189.87,-400.884C1177,-391.442 1162.86,-381.064 1149.54,-371.292"/>
<polygon fill="black" stroke="black" points="1151.51,-368.394 1141.38,-365.299 1147.37,-374.037 1151.51,-368.394"/>
</g>
<!-- 21 -->
<g id="node22" class="node"><title>21</title>
<polygon fill="#399de5" fill-opacity="0.564706" stroke="black" points="1479,-365 1321,-365 1321,-297 1479,-297 1479,-365"/>
<text text-anchor="middle" x="1400" y="-349.8" font-family="Times,serif" font-size="14.00">negative_NRC &lt;= 5.4608</text>
<text text-anchor="middle" x="1400" y="-334.8" font-family="Times,serif" font-size="14.00">samples = 48</text>
<text text-anchor="middle" x="1400" y="-319.8" font-family="Times,serif" font-size="14.00">value = [5, 9, 31, 3]</text>
<text text-anchor="middle" x="1400" y="-304.8" font-family="Times,serif" font-size="14.00">class = sentimental</text>
</g>
<!-- 13&#45;&gt;21 -->
<g id="edge21" class="edge"><title>13&#45;&gt;21</title>
<path fill="none" stroke="black" d="M1288.57,-400.884C1304.21,-391.214 1321.44,-380.563 1337.58,-370.587"/>
<polygon fill="black" stroke="black" points="1339.75,-373.36 1346.42,-365.125 1336.07,-367.406 1339.75,-373.36"/>
</g>
<!-- 15 -->
<g id="node16" class="node"><title>15</title>
<polygon fill="#d739e5" fill-opacity="0.800000" stroke="black" points="921.5,-261 790.5,-261 790.5,-193 921.5,-193 921.5,-261"/>
<text text-anchor="middle" x="856" y="-245.8" font-family="Times,serif" font-size="14.00">speech &lt;= 35.0562</text>
<text text-anchor="middle" x="856" y="-230.8" font-family="Times,serif" font-size="14.00">samples = 6</text>
<text text-anchor="middle" x="856" y="-215.8" font-family="Times,serif" font-size="14.00">value = [0, 0, 1, 5]</text>
<text text-anchor="middle" x="856" y="-200.8" font-family="Times,serif" font-size="14.00">class = sociopolitical</text>
</g>
<!-- 14&#45;&gt;15 -->
<g id="edge15" class="edge"><title>14&#45;&gt;15</title>
<path fill="none" stroke="black" d="M1018.08,-296.884C990.164,-285.02 958.772,-271.678 931.101,-259.918"/>
<polygon fill="black" stroke="black" points="932.442,-256.685 921.87,-255.995 929.704,-263.127 932.442,-256.685"/>
</g>
<!-- 18 -->
<g id="node19" class="node"><title>18</title>
<polygon fill="#e58139" fill-opacity="0.666667" stroke="black" points="1201.5,-261 990.5,-261 990.5,-193 1201.5,-193 1201.5,-261"/>
<text text-anchor="middle" x="1096" y="-245.8" font-family="Times,serif" font-size="14.00">speech_emotional_NRC &lt;= 18.041</text>
<text text-anchor="middle" x="1096" y="-230.8" font-family="Times,serif" font-size="14.00">samples = 4</text>
<text text-anchor="middle" x="1096" y="-215.8" font-family="Times,serif" font-size="14.00">value = [3, 1, 0, 0]</text>
<text text-anchor="middle" x="1096" y="-200.8" font-family="Times,serif" font-size="14.00">class = costumbrista</text>
</g>
<!-- 14&#45;&gt;18 -->
<g id="edge18" class="edge"><title>14&#45;&gt;18</title>
<path fill="none" stroke="black" d="M1096,-296.884C1096,-288.778 1096,-279.982 1096,-271.472"/>
<polygon fill="black" stroke="black" points="1099.5,-271.299 1096,-261.299 1092.5,-271.299 1099.5,-271.299"/>
</g>
<!-- 16 -->
<g id="node17" class="node"><title>16</title>
<polygon fill="#399de5" stroke="black" points="772,-149.5 650,-149.5 650,-96.5 772,-96.5 772,-149.5"/>
<text text-anchor="middle" x="711" y="-134.3" font-family="Times,serif" font-size="14.00">samples = 1</text>
<text text-anchor="middle" x="711" y="-119.3" font-family="Times,serif" font-size="14.00">value = [0, 0, 1, 0]</text>
<text text-anchor="middle" x="711" y="-104.3" font-family="Times,serif" font-size="14.00">class = sentimental</text>
</g>
<!-- 15&#45;&gt;16 -->
<g id="edge16" class="edge"><title>15&#45;&gt;16</title>
<path fill="none" stroke="black" d="M808.923,-192.884C791.881,-180.896 772.694,-167.399 755.85,-155.549"/>
<polygon fill="black" stroke="black" points="757.471,-152.411 747.278,-149.52 753.444,-158.136 757.471,-152.411"/>
</g>
<!-- 17 -->
<g id="node18" class="node"><title>17</title>
<polygon fill="#d739e5" stroke="black" points="921.5,-149.5 790.5,-149.5 790.5,-96.5 921.5,-96.5 921.5,-149.5"/>
<text text-anchor="middle" x="856" y="-134.3" font-family="Times,serif" font-size="14.00">samples = 5</text>
<text text-anchor="middle" x="856" y="-119.3" font-family="Times,serif" font-size="14.00">value = [0, 0, 0, 5]</text>
<text text-anchor="middle" x="856" y="-104.3" font-family="Times,serif" font-size="14.00">class = sociopolitical</text>
</g>
<!-- 15&#45;&gt;17 -->
<g id="edge17" class="edge"><title>15&#45;&gt;17</title>
<path fill="none" stroke="black" d="M856,-192.884C856,-182.326 856,-170.597 856,-159.854"/>
<polygon fill="black" stroke="black" points="859.5,-159.52 856,-149.52 852.5,-159.52 859.5,-159.52"/>
</g>
<!-- 19 -->
<g id="node20" class="node"><title>19</title>
<polygon fill="#e58139" stroke="black" points="1068,-149.5 940,-149.5 940,-96.5 1068,-96.5 1068,-149.5"/>
<text text-anchor="middle" x="1004" y="-134.3" font-family="Times,serif" font-size="14.00">samples = 3</text>
<text text-anchor="middle" x="1004" y="-119.3" font-family="Times,serif" font-size="14.00">value = [3, 0, 0, 0]</text>
<text text-anchor="middle" x="1004" y="-104.3" font-family="Times,serif" font-size="14.00">class = costumbrista</text>
</g>
<!-- 18&#45;&gt;19 -->
<g id="edge19" class="edge"><title>18&#45;&gt;19</title>
<path fill="none" stroke="black" d="M1066.13,-192.884C1055.81,-181.446 1044.26,-168.634 1033.94,-157.19"/>
<polygon fill="black" stroke="black" points="1036.31,-154.601 1027.02,-149.52 1031.12,-159.29 1036.31,-154.601"/>
</g>
<!-- 20 -->
<g id="node21" class="node"><title>20</title>
<polygon fill="#47e539" stroke="black" points="1206,-149.5 1086,-149.5 1086,-96.5 1206,-96.5 1206,-149.5"/>
<text text-anchor="middle" x="1146" y="-134.3" font-family="Times,serif" font-size="14.00">samples = 1</text>
<text text-anchor="middle" x="1146" y="-119.3" font-family="Times,serif" font-size="14.00">value = [0, 1, 0, 0]</text>
<text text-anchor="middle" x="1146" y="-104.3" font-family="Times,serif" font-size="14.00">class = historical</text>
</g>
<!-- 18&#45;&gt;20 -->
<g id="edge20" class="edge"><title>18&#45;&gt;20</title>
<path fill="none" stroke="black" d="M1112.23,-192.884C1117.62,-181.886 1123.64,-169.617 1129.08,-158.517"/>
<polygon fill="black" stroke="black" points="1132.23,-160.04 1133.49,-149.52 1125.95,-156.959 1132.23,-160.04"/>
</g>
<!-- 22 -->
<g id="node23" class="node"><title>22</title>
<polygon fill="#d739e5" fill-opacity="0.498039" stroke="black" points="1500.5,-261 1299.5,-261 1299.5,-193 1500.5,-193 1500.5,-261"/>
<text text-anchor="middle" x="1400" y="-245.8" font-family="Times,serif" font-size="14.00">narrated_neutral_NRC &lt;= 5.6475</text>
<text text-anchor="middle" x="1400" y="-230.8" font-family="Times,serif" font-size="14.00">samples = 5</text>
<text text-anchor="middle" x="1400" y="-215.8" font-family="Times,serif" font-size="14.00">value = [1, 0, 1, 3]</text>
<text text-anchor="middle" x="1400" y="-200.8" font-family="Times,serif" font-size="14.00">class = sociopolitical</text>
</g>
<!-- 21&#45;&gt;22 -->
<g id="edge22" class="edge"><title>21&#45;&gt;22</title>
<path fill="none" stroke="black" d="M1400,-296.884C1400,-288.778 1400,-279.982 1400,-271.472"/>
<polygon fill="black" stroke="black" points="1403.5,-271.299 1400,-261.299 1396.5,-271.299 1403.5,-271.299"/>
</g>
<!-- 27 -->
<g id="node28" class="node"><title>27</title>
<polygon fill="#399de5" fill-opacity="0.619608" stroke="black" points="1796,-261 1634,-261 1634,-193 1796,-193 1796,-261"/>
<text text-anchor="middle" x="1715" y="-245.8" font-family="Times,serif" font-size="14.00">positive_NRC &lt;= 18.3536</text>
<text text-anchor="middle" x="1715" y="-230.8" font-family="Times,serif" font-size="14.00">samples = 43</text>
<text text-anchor="middle" x="1715" y="-215.8" font-family="Times,serif" font-size="14.00">value = [4, 9, 30, 0]</text>
<text text-anchor="middle" x="1715" y="-200.8" font-family="Times,serif" font-size="14.00">class = sentimental</text>
</g>
<!-- 21&#45;&gt;27 -->
<g id="edge27" class="edge"><title>21&#45;&gt;27</title>
<path fill="none" stroke="black" d="M1479.08,-304.393C1523.23,-290.096 1578.42,-272.225 1624.32,-257.363"/>
<polygon fill="black" stroke="black" points="1625.53,-260.65 1633.97,-254.24 1623.37,-253.991 1625.53,-260.65"/>
</g>
<!-- 23 -->
<g id="node24" class="node"><title>23</title>
<polygon fill="#d739e5" stroke="black" points="1355.5,-149.5 1224.5,-149.5 1224.5,-96.5 1355.5,-96.5 1355.5,-149.5"/>
<text text-anchor="middle" x="1290" y="-134.3" font-family="Times,serif" font-size="14.00">samples = 3</text>
<text text-anchor="middle" x="1290" y="-119.3" font-family="Times,serif" font-size="14.00">value = [0, 0, 0, 3]</text>
<text text-anchor="middle" x="1290" y="-104.3" font-family="Times,serif" font-size="14.00">class = sociopolitical</text>
</g>
<!-- 22&#45;&gt;23 -->
<g id="edge23" class="edge"><title>22&#45;&gt;23</title>
<path fill="none" stroke="black" d="M1364.29,-192.884C1351.71,-181.226 1337.6,-168.141 1325.08,-156.532"/>
<polygon fill="black" stroke="black" points="1327.23,-153.753 1317.52,-149.52 1322.47,-158.886 1327.23,-153.753"/>
</g>
<!-- 24 -->
<g id="node25" class="node"><title>24</title>
<polygon fill="none" stroke="black" points="1584.5,-157 1373.5,-157 1373.5,-89 1584.5,-89 1584.5,-157"/>
<text text-anchor="middle" x="1479" y="-141.8" font-family="Times,serif" font-size="14.00">speech_emotional_NRC &lt;= 35.642</text>
<text text-anchor="middle" x="1479" y="-126.8" font-family="Times,serif" font-size="14.00">samples = 2</text>
<text text-anchor="middle" x="1479" y="-111.8" font-family="Times,serif" font-size="14.00">value = [1, 0, 1, 0]</text>
<text text-anchor="middle" x="1479" y="-96.8" font-family="Times,serif" font-size="14.00">class = costumbrista</text>
</g>
<!-- 22&#45;&gt;24 -->
<g id="edge24" class="edge"><title>22&#45;&gt;24</title>
<path fill="none" stroke="black" d="M1425.65,-192.884C1432.48,-184.065 1439.94,-174.43 1447.06,-165.235"/>
<polygon fill="black" stroke="black" points="1449.85,-167.349 1453.21,-157.299 1444.32,-163.062 1449.85,-167.349"/>
</g>
<!-- 25 -->
<g id="node26" class="node"><title>25</title>
<polygon fill="#e58139" stroke="black" points="1402,-53 1274,-53 1274,-0 1402,-0 1402,-53"/>
<text text-anchor="middle" x="1338" y="-37.8" font-family="Times,serif" font-size="14.00">samples = 1</text>
<text text-anchor="middle" x="1338" y="-22.8" font-family="Times,serif" font-size="14.00">value = [1, 0, 0, 0]</text>
<text text-anchor="middle" x="1338" y="-7.8" font-family="Times,serif" font-size="14.00">class = costumbrista</text>
</g>
<!-- 24&#45;&gt;25 -->
<g id="edge25" class="edge"><title>24&#45;&gt;25</title>
<path fill="none" stroke="black" d="M1429.69,-88.9485C1415.22,-79.2516 1399.44,-68.6752 1385.11,-59.073"/>
<polygon fill="black" stroke="black" points="1386.66,-55.8967 1376.4,-53.2367 1382.76,-61.7115 1386.66,-55.8967"/>
</g>
<!-- 26 -->
<g id="node27" class="node"><title>26</title>
<polygon fill="#399de5" stroke="black" points="1542,-53 1420,-53 1420,-0 1542,-0 1542,-53"/>
<text text-anchor="middle" x="1481" y="-37.8" font-family="Times,serif" font-size="14.00">samples = 1</text>
<text text-anchor="middle" x="1481" y="-22.8" font-family="Times,serif" font-size="14.00">value = [0, 0, 1, 0]</text>
<text text-anchor="middle" x="1481" y="-7.8" font-family="Times,serif" font-size="14.00">class = sentimental</text>
</g>
<!-- 24&#45;&gt;26 -->
<g id="edge26" class="edge"><title>24&#45;&gt;26</title>
<path fill="none" stroke="black" d="M1479.7,-88.9485C1479.87,-80.7153 1480.06,-71.848 1480.24,-63.4814"/>
<polygon fill="black" stroke="black" points="1483.74,-63.3086 1480.46,-53.2367 1476.74,-63.1604 1483.74,-63.3086"/>
</g>
<!-- 28 -->
<g id="node29" class="node"><title>28</title>
<polygon fill="#399de5" fill-opacity="0.368627" stroke="black" points="1827.5,-157 1602.5,-157 1602.5,-89 1827.5,-89 1827.5,-157"/>
<text text-anchor="middle" x="1715" y="-141.8" font-family="Times,serif" font-size="14.00">narrated_emotional_NRC &lt;= 38.2533</text>
<text text-anchor="middle" x="1715" y="-126.8" font-family="Times,serif" font-size="14.00">samples = 28</text>
<text text-anchor="middle" x="1715" y="-111.8" font-family="Times,serif" font-size="14.00">value = [3, 9, 16, 0]</text>
<text text-anchor="middle" x="1715" y="-96.8" font-family="Times,serif" font-size="14.00">class = sentimental</text>
</g>
<!-- 27&#45;&gt;28 -->
<g id="edge28" class="edge"><title>27&#45;&gt;28</title>
<path fill="none" stroke="black" d="M1715,-192.884C1715,-184.778 1715,-175.982 1715,-167.472"/>
<polygon fill="black" stroke="black" points="1718.5,-167.299 1715,-157.299 1711.5,-167.299 1718.5,-167.299"/>
</g>
<!-- 31 -->
<g id="node32" class="node"><title>31</title>
<polygon fill="#399de5" fill-opacity="0.929412" stroke="black" points="2002.5,-157 1845.5,-157 1845.5,-89 2002.5,-89 2002.5,-157"/>
<text text-anchor="middle" x="1924" y="-141.8" font-family="Times,serif" font-size="14.00">neutral_NRC &lt;= 14.7506</text>
<text text-anchor="middle" x="1924" y="-126.8" font-family="Times,serif" font-size="14.00">samples = 15</text>
<text text-anchor="middle" x="1924" y="-111.8" font-family="Times,serif" font-size="14.00">value = [1, 0, 14, 0]</text>
<text text-anchor="middle" x="1924" y="-96.8" font-family="Times,serif" font-size="14.00">class = sentimental</text>
</g>
<!-- 27&#45;&gt;31 -->
<g id="edge31" class="edge"><title>27&#45;&gt;31</title>
<path fill="none" stroke="black" d="M1782.86,-192.884C1803.31,-182.901 1825.91,-171.872 1846.92,-161.619"/>
<polygon fill="black" stroke="black" points="1848.67,-164.656 1856.13,-157.125 1845.6,-158.365 1848.67,-164.656"/>
</g>
<!-- 29 -->
<g id="node30" class="node"><title>29</title>
<polygon fill="#399de5" fill-opacity="0.705882" stroke="black" points="1696.5,-53 1569.5,-53 1569.5,-0 1696.5,-0 1696.5,-53"/>
<text text-anchor="middle" x="1633" y="-37.8" font-family="Times,serif" font-size="14.00">samples = 20</text>
<text text-anchor="middle" x="1633" y="-22.8" font-family="Times,serif" font-size="14.00">value = [2, 3, 15, 0]</text>
<text text-anchor="middle" x="1633" y="-7.8" font-family="Times,serif" font-size="14.00">class = sentimental</text>
</g>
<!-- 28&#45;&gt;29 -->
<g id="edge29" class="edge"><title>28&#45;&gt;29</title>
<path fill="none" stroke="black" d="M1686.32,-88.9485C1678.46,-79.892 1669.94,-70.0682 1662.06,-60.9875"/>
<polygon fill="black" stroke="black" points="1664.53,-58.4958 1655.33,-53.2367 1659.24,-63.0835 1664.53,-58.4958"/>
</g>
<!-- 30 -->
<g id="node31" class="node"><title>30</title>
<polygon fill="#47e539" fill-opacity="0.713725" stroke="black" points="1835,-53 1715,-53 1715,-0 1835,-0 1835,-53"/>
<text text-anchor="middle" x="1775" y="-37.8" font-family="Times,serif" font-size="14.00">samples = 8</text>
<text text-anchor="middle" x="1775" y="-22.8" font-family="Times,serif" font-size="14.00">value = [1, 6, 1, 0]</text>
<text text-anchor="middle" x="1775" y="-7.8" font-family="Times,serif" font-size="14.00">class = historical</text>
</g>
<!-- 28&#45;&gt;30 -->
<g id="edge30" class="edge"><title>28&#45;&gt;30</title>
<path fill="none" stroke="black" d="M1735.99,-88.9485C1741.56,-80.1664 1747.59,-70.6629 1753.21,-61.815"/>
<polygon fill="black" stroke="black" points="1756.25,-63.5549 1758.66,-53.2367 1750.34,-59.8028 1756.25,-63.5549"/>
</g>
<!-- 32 -->
<g id="node33" class="node"><title>32</title>
<polygon fill="#e58139" stroke="black" points="1985,-53 1857,-53 1857,-0 1985,-0 1985,-53"/>
<text text-anchor="middle" x="1921" y="-37.8" font-family="Times,serif" font-size="14.00">samples = 1</text>
<text text-anchor="middle" x="1921" y="-22.8" font-family="Times,serif" font-size="14.00">value = [1, 0, 0, 0]</text>
<text text-anchor="middle" x="1921" y="-7.8" font-family="Times,serif" font-size="14.00">class = costumbrista</text>
</g>
<!-- 31&#45;&gt;32 -->
<g id="edge32" class="edge"><title>31&#45;&gt;32</title>
<path fill="none" stroke="black" d="M1922.95,-88.9485C1922.69,-80.7153 1922.41,-71.848 1922.14,-63.4814"/>
<polygon fill="black" stroke="black" points="1925.63,-63.1206 1921.82,-53.2367 1918.64,-63.3428 1925.63,-63.1206"/>
</g>
<!-- 33 -->
<g id="node34" class="node"><title>33</title>
<polygon fill="#399de5" stroke="black" points="2130.5,-53 2003.5,-53 2003.5,-0 2130.5,-0 2130.5,-53"/>
<text text-anchor="middle" x="2067" y="-37.8" font-family="Times,serif" font-size="14.00">samples = 14</text>
<text text-anchor="middle" x="2067" y="-22.8" font-family="Times,serif" font-size="14.00">value = [0, 0, 14, 0]</text>
<text text-anchor="middle" x="2067" y="-7.8" font-family="Times,serif" font-size="14.00">class = sentimental</text>
</g>
<!-- 31&#45;&gt;33 -->
<g id="edge33" class="edge"><title>31&#45;&gt;33</title>
<path fill="none" stroke="black" d="M1974.01,-88.9485C1988.83,-79.1601 2004.99,-68.4756 2019.63,-58.8015"/>
<polygon fill="black" stroke="black" points="2021.64,-61.6701 2028.05,-53.2367 2017.78,-55.83 2021.64,-61.6701"/>
</g>
<!-- 35 -->
<g id="node36" class="node"><title>35</title>
<polygon fill="#e58139" stroke="black" points="1768,-461.5 1640,-461.5 1640,-408.5 1768,-408.5 1768,-461.5"/>
<text text-anchor="middle" x="1704" y="-446.3" font-family="Times,serif" font-size="14.00">samples = 9</text>
<text text-anchor="middle" x="1704" y="-431.3" font-family="Times,serif" font-size="14.00">value = [9, 0, 0, 0]</text>
<text text-anchor="middle" x="1704" y="-416.3" font-family="Times,serif" font-size="14.00">class = costumbrista</text>
</g>
<!-- 34&#45;&gt;35 -->
<g id="edge35" class="edge"><title>34&#45;&gt;35</title>
<path fill="none" stroke="black" d="M1704,-504.884C1704,-494.326 1704,-482.597 1704,-471.854"/>
<polygon fill="black" stroke="black" points="1707.5,-471.52 1704,-461.52 1700.5,-471.52 1707.5,-471.52"/>
</g>
<!-- 36 -->
<g id="node37" class="node"><title>36</title>
<polygon fill="#d739e5" fill-opacity="0.647059" stroke="black" points="2260,-469 2042,-469 2042,-401 2260,-401 2260,-469"/>
<text text-anchor="middle" x="2151" y="-453.8" font-family="Times,serif" font-size="14.00">speech_emotional_NRC &lt;= 14.6617</text>
<text text-anchor="middle" x="2151" y="-438.8" font-family="Times,serif" font-size="14.00">samples = 21</text>
<text text-anchor="middle" x="2151" y="-423.8" font-family="Times,serif" font-size="14.00">value = [4, 2, 0, 15]</text>
<text text-anchor="middle" x="2151" y="-408.8" font-family="Times,serif" font-size="14.00">class = sociopolitical</text>
</g>
<!-- 34&#45;&gt;36 -->
<g id="edge36" class="edge"><title>34&#45;&gt;36</title>
<path fill="none" stroke="black" d="M1791.25,-518.091C1859.82,-502.444 1956.06,-480.484 2031.74,-463.213"/>
<polygon fill="black" stroke="black" points="2032.84,-466.553 2041.81,-460.916 2031.28,-459.729 2032.84,-466.553"/>
</g>
<!-- 37 -->
<g id="node38" class="node"><title>37</title>
<polygon fill="#d739e5" fill-opacity="0.164706" stroke="black" points="2263.5,-365 2038.5,-365 2038.5,-297 2263.5,-297 2263.5,-365"/>
<text text-anchor="middle" x="2151" y="-349.8" font-family="Times,serif" font-size="14.00">narrated_emotional_NRC &lt;= 54.9016</text>
<text text-anchor="middle" x="2151" y="-334.8" font-family="Times,serif" font-size="14.00">samples = 9</text>
<text text-anchor="middle" x="2151" y="-319.8" font-family="Times,serif" font-size="14.00">value = [3, 2, 0, 4]</text>
<text text-anchor="middle" x="2151" y="-304.8" font-family="Times,serif" font-size="14.00">class = sociopolitical</text>
</g>
<!-- 36&#45;&gt;37 -->
<g id="edge37" class="edge"><title>36&#45;&gt;37</title>
<path fill="none" stroke="black" d="M2151,-400.884C2151,-392.778 2151,-383.982 2151,-375.472"/>
<polygon fill="black" stroke="black" points="2154.5,-375.299 2151,-365.299 2147.5,-375.299 2154.5,-375.299"/>
</g>
<!-- 42 -->
<g id="node43" class="node"><title>42</title>
<polygon fill="#d739e5" fill-opacity="0.909804" stroke="black" points="2504.5,-365 2347.5,-365 2347.5,-297 2504.5,-297 2504.5,-365"/>
<text text-anchor="middle" x="2426" y="-349.8" font-family="Times,serif" font-size="14.00">neutral_NRC &lt;= 28.3533</text>
<text text-anchor="middle" x="2426" y="-334.8" font-family="Times,serif" font-size="14.00">samples = 12</text>
<text text-anchor="middle" x="2426" y="-319.8" font-family="Times,serif" font-size="14.00">value = [1, 0, 0, 11]</text>
<text text-anchor="middle" x="2426" y="-304.8" font-family="Times,serif" font-size="14.00">class = sociopolitical</text>
</g>
<!-- 36&#45;&gt;42 -->
<g id="edge42" class="edge"><title>36&#45;&gt;42</title>
<path fill="none" stroke="black" d="M2240.28,-400.884C2271.55,-389.286 2306.63,-376.275 2337.81,-364.711"/>
<polygon fill="black" stroke="black" points="2339.19,-367.931 2347.35,-361.171 2336.76,-361.368 2339.19,-367.931"/>
</g>
<!-- 38 -->
<g id="node39" class="node"><title>38</title>
<polygon fill="#e58139" fill-opacity="0.333333" stroke="black" points="2194,-261 1976,-261 1976,-193 2194,-193 2194,-261"/>
<text text-anchor="middle" x="2085" y="-245.8" font-family="Times,serif" font-size="14.00">speech_emotional_NRC &lt;= 14.0811</text>
<text text-anchor="middle" x="2085" y="-230.8" font-family="Times,serif" font-size="14.00">samples = 5</text>
<text text-anchor="middle" x="2085" y="-215.8" font-family="Times,serif" font-size="14.00">value = [3, 2, 0, 0]</text>
<text text-anchor="middle" x="2085" y="-200.8" font-family="Times,serif" font-size="14.00">class = costumbrista</text>
</g>
<!-- 37&#45;&gt;38 -->
<g id="edge38" class="edge"><title>37&#45;&gt;38</title>
<path fill="none" stroke="black" d="M2129.57,-296.884C2123.98,-288.243 2117.88,-278.819 2112.04,-269.793"/>
<polygon fill="black" stroke="black" points="2114.92,-267.794 2106.55,-261.299 2109.04,-271.596 2114.92,-267.794"/>
</g>
<!-- 41 -->
<g id="node42" class="node"><title>41</title>
<polygon fill="#d739e5" stroke="black" points="2343.5,-253.5 2212.5,-253.5 2212.5,-200.5 2343.5,-200.5 2343.5,-253.5"/>
<text text-anchor="middle" x="2278" y="-238.3" font-family="Times,serif" font-size="14.00">samples = 4</text>
<text text-anchor="middle" x="2278" y="-223.3" font-family="Times,serif" font-size="14.00">value = [0, 0, 0, 4]</text>
<text text-anchor="middle" x="2278" y="-208.3" font-family="Times,serif" font-size="14.00">class = sociopolitical</text>
</g>
<!-- 37&#45;&gt;41 -->
<g id="edge41" class="edge"><title>37&#45;&gt;41</title>
<path fill="none" stroke="black" d="M2192.23,-296.884C2207.02,-285.006 2223.66,-271.646 2238.31,-259.876"/>
<polygon fill="black" stroke="black" points="2240.62,-262.511 2246.23,-253.52 2236.24,-257.053 2240.62,-262.511"/>
</g>
<!-- 39 -->
<g id="node40" class="node"><title>39</title>
<polygon fill="#e58139" stroke="black" points="2149,-149.5 2021,-149.5 2021,-96.5 2149,-96.5 2149,-149.5"/>
<text text-anchor="middle" x="2085" y="-134.3" font-family="Times,serif" font-size="14.00">samples = 3</text>
<text text-anchor="middle" x="2085" y="-119.3" font-family="Times,serif" font-size="14.00">value = [3, 0, 0, 0]</text>
<text text-anchor="middle" x="2085" y="-104.3" font-family="Times,serif" font-size="14.00">class = costumbrista</text>
</g>
<!-- 38&#45;&gt;39 -->
<g id="edge39" class="edge"><title>38&#45;&gt;39</title>
<path fill="none" stroke="black" d="M2085,-192.884C2085,-182.326 2085,-170.597 2085,-159.854"/>
<polygon fill="black" stroke="black" points="2088.5,-159.52 2085,-149.52 2081.5,-159.52 2088.5,-159.52"/>
</g>
<!-- 40 -->
<g id="node41" class="node"><title>40</title>
<polygon fill="#47e539" stroke="black" points="2287,-149.5 2167,-149.5 2167,-96.5 2287,-96.5 2287,-149.5"/>
<text text-anchor="middle" x="2227" y="-134.3" font-family="Times,serif" font-size="14.00">samples = 2</text>
<text text-anchor="middle" x="2227" y="-119.3" font-family="Times,serif" font-size="14.00">value = [0, 2, 0, 0]</text>
<text text-anchor="middle" x="2227" y="-104.3" font-family="Times,serif" font-size="14.00">class = historical</text>
</g>
<!-- 38&#45;&gt;40 -->
<g id="edge40" class="edge"><title>38&#45;&gt;40</title>
<path fill="none" stroke="black" d="M2131.1,-192.884C2147.79,-180.896 2166.58,-167.399 2183.08,-155.549"/>
<polygon fill="black" stroke="black" points="2185.39,-158.197 2191.47,-149.52 2181.31,-152.511 2185.39,-158.197"/>
</g>
<!-- 43 -->
<g id="node44" class="node"><title>43</title>
<polygon fill="#e58139" stroke="black" points="2490,-253.5 2362,-253.5 2362,-200.5 2490,-200.5 2490,-253.5"/>
<text text-anchor="middle" x="2426" y="-238.3" font-family="Times,serif" font-size="14.00">samples = 1</text>
<text text-anchor="middle" x="2426" y="-223.3" font-family="Times,serif" font-size="14.00">value = [1, 0, 0, 0]</text>
<text text-anchor="middle" x="2426" y="-208.3" font-family="Times,serif" font-size="14.00">class = costumbrista</text>
</g>
<!-- 42&#45;&gt;43 -->
<g id="edge43" class="edge"><title>42&#45;&gt;43</title>
<path fill="none" stroke="black" d="M2426,-296.884C2426,-286.326 2426,-274.597 2426,-263.854"/>
<polygon fill="black" stroke="black" points="2429.5,-263.52 2426,-253.52 2422.5,-263.52 2429.5,-263.52"/>
</g>
<!-- 44 -->
<g id="node45" class="node"><title>44</title>
<polygon fill="#d739e5" stroke="black" points="2639.5,-253.5 2508.5,-253.5 2508.5,-200.5 2639.5,-200.5 2639.5,-253.5"/>
<text text-anchor="middle" x="2574" y="-238.3" font-family="Times,serif" font-size="14.00">samples = 11</text>
<text text-anchor="middle" x="2574" y="-223.3" font-family="Times,serif" font-size="14.00">value = [0, 0, 0, 11]</text>
<text text-anchor="middle" x="2574" y="-208.3" font-family="Times,serif" font-size="14.00">class = sociopolitical</text>
</g>
<!-- 42&#45;&gt;44 -->
<g id="edge44" class="edge"><title>42&#45;&gt;44</title>
<path fill="none" stroke="black" d="M2474.05,-296.884C2491.6,-284.786 2511.39,-271.151 2528.69,-259.224"/>
<polygon fill="black" stroke="black" points="2530.72,-262.077 2536.97,-253.52 2526.75,-256.313 2530.72,-262.077"/>
</g>
</g>
</svg>
