<?xml version="1.0" encoding="UTF-8" standalone="no"?>
<!DOCTYPE svg PUBLIC "-//W3C//DTD SVG 1.1//EN"
 "http://www.w3.org/Graphics/SVG/1.1/DTD/svg11.dtd">
<!-- Generated by graphviz version 2.38.0 (20140413.2041)
 -->
<!-- Title: Tree Pages: 1 -->
<svg width="1293pt" height="477pt"
 viewBox="0.00 0.00 1292.50 477.00" xmlns="http://www.w3.org/2000/svg" xmlns:xlink="http://www.w3.org/1999/xlink">
<g id="graph0" class="graph" transform="scale(1 1) rotate(0) translate(4 473)">
<title>Tree</title>
<polygon fill="white" stroke="none" points="-4,4 -4,-473 1288.5,-473 1288.5,4 -4,4"/>
<!-- 0 -->
<g id="node1" class="node"><title>0</title>
<polygon fill="#399de5" fill-opacity="0.047059" stroke="black" points="869.5,-469 663.5,-469 663.5,-401 869.5,-401 869.5,-469"/>
<text text-anchor="middle" x="766.5" y="-453.8" font-family="Times,serif" font-size="14.00">speech_emotional_WN &lt;= 30.333</text>
<text text-anchor="middle" x="766.5" y="-438.8" font-family="Times,serif" font-size="14.00">samples = 112</text>
<text text-anchor="middle" x="766.5" y="-423.8" font-family="Times,serif" font-size="14.00">value = [22, 30, 34, 26]</text>
<text text-anchor="middle" x="766.5" y="-408.8" font-family="Times,serif" font-size="14.00">class = sentimental</text>
</g>
<!-- 1 -->
<g id="node2" class="node"><title>1</title>
<polygon fill="#47e539" fill-opacity="0.074510" stroke="black" points="722.5,-365 552.5,-365 552.5,-297 722.5,-297 722.5,-365"/>
<text text-anchor="middle" x="637.5" y="-349.8" font-family="Times,serif" font-size="14.00">emotional_WN &lt;= 90.4224</text>
<text text-anchor="middle" x="637.5" y="-334.8" font-family="Times,serif" font-size="14.00">samples = 58</text>
<text text-anchor="middle" x="637.5" y="-319.8" font-family="Times,serif" font-size="14.00">value = [15, 21, 4, 18]</text>
<text text-anchor="middle" x="637.5" y="-304.8" font-family="Times,serif" font-size="14.00">class = historical</text>
</g>
<!-- 0&#45;&gt;1 -->
<g id="edge1" class="edge"><title>0&#45;&gt;1</title>
<path fill="none" stroke="black" d="M724.617,-400.884C712.789,-391.531 699.799,-381.259 687.542,-371.568"/>
<polygon fill="black" stroke="black" points="689.629,-368.756 679.614,-365.299 685.287,-374.247 689.629,-368.756"/>
<text text-anchor="middle" x="682.516" y="-386.43" font-family="Times,serif" font-size="14.00">True</text>
</g>
<!-- 12 -->
<g id="node13" class="node"><title>12</title>
<polygon fill="#399de5" fill-opacity="0.466667" stroke="black" points="993.5,-365 797.5,-365 797.5,-297 993.5,-297 993.5,-365"/>
<text text-anchor="middle" x="895.5" y="-349.8" font-family="Times,serif" font-size="14.00">speech_neutral_WN &lt;= 28.1496</text>
<text text-anchor="middle" x="895.5" y="-334.8" font-family="Times,serif" font-size="14.00">samples = 54</text>
<text text-anchor="middle" x="895.5" y="-319.8" font-family="Times,serif" font-size="14.00">value = [7, 9, 30, 8]</text>
<text text-anchor="middle" x="895.5" y="-304.8" font-family="Times,serif" font-size="14.00">class = sentimental</text>
</g>
<!-- 0&#45;&gt;12 -->
<g id="edge12" class="edge"><title>0&#45;&gt;12</title>
<path fill="none" stroke="black" d="M808.383,-400.884C820.211,-391.531 833.201,-381.259 845.458,-371.568"/>
<polygon fill="black" stroke="black" points="847.713,-374.247 853.386,-365.299 843.371,-368.756 847.713,-374.247"/>
<text text-anchor="middle" x="850.484" y="-386.43" font-family="Times,serif" font-size="14.00">False</text>
</g>
<!-- 2 -->
<g id="node3" class="node"><title>2</title>
<polygon fill="#d739e5" fill-opacity="0.141176" stroke="black" points="485.5,-261 333.5,-261 333.5,-193 485.5,-193 485.5,-261"/>
<text text-anchor="middle" x="409.5" y="-245.8" font-family="Times,serif" font-size="14.00">neutral_WN &lt;= 23.8716</text>
<text text-anchor="middle" x="409.5" y="-230.8" font-family="Times,serif" font-size="14.00">samples = 42</text>
<text text-anchor="middle" x="409.5" y="-215.8" font-family="Times,serif" font-size="14.00">value = [14, 6, 4, 18]</text>
<text text-anchor="middle" x="409.5" y="-200.8" font-family="Times,serif" font-size="14.00">class = sociopolitical</text>
</g>
<!-- 1&#45;&gt;2 -->
<g id="edge2" class="edge"><title>1&#45;&gt;2</title>
<path fill="none" stroke="black" d="M563.475,-296.884C540.961,-286.812 516.066,-275.674 492.974,-265.344"/>
<polygon fill="black" stroke="black" points="494.101,-262.014 483.544,-261.125 491.242,-268.403 494.101,-262.014"/>
</g>
<!-- 9 -->
<g id="node10" class="node"><title>9</title>
<polygon fill="#47e539" fill-opacity="0.933333" stroke="black" points="732,-261 543,-261 543,-193 732,-193 732,-261"/>
<text text-anchor="middle" x="637.5" y="-245.8" font-family="Times,serif" font-size="14.00">speech_neutral_WN &lt;= 0.4386</text>
<text text-anchor="middle" x="637.5" y="-230.8" font-family="Times,serif" font-size="14.00">samples = 16</text>
<text text-anchor="middle" x="637.5" y="-215.8" font-family="Times,serif" font-size="14.00">value = [1, 15, 0, 0]</text>
<text text-anchor="middle" x="637.5" y="-200.8" font-family="Times,serif" font-size="14.00">class = historical</text>
</g>
<!-- 1&#45;&gt;9 -->
<g id="edge9" class="edge"><title>1&#45;&gt;9</title>
<path fill="none" stroke="black" d="M637.5,-296.884C637.5,-288.778 637.5,-279.982 637.5,-271.472"/>
<polygon fill="black" stroke="black" points="641,-271.299 637.5,-261.299 634,-271.299 641,-271.299"/>
</g>
<!-- 3 -->
<g id="node4" class="node"><title>3</title>
<polygon fill="#d739e5" fill-opacity="0.537255" stroke="black" points="292.5,-157 86.5,-157 86.5,-89 292.5,-89 292.5,-157"/>
<text text-anchor="middle" x="189.5" y="-141.8" font-family="Times,serif" font-size="14.00">speech_emotional_WN &lt;= 26.546</text>
<text text-anchor="middle" x="189.5" y="-126.8" font-family="Times,serif" font-size="14.00">samples = 30</text>
<text text-anchor="middle" x="189.5" y="-111.8" font-family="Times,serif" font-size="14.00">value = [4, 4, 4, 18]</text>
<text text-anchor="middle" x="189.5" y="-96.8" font-family="Times,serif" font-size="14.00">class = sociopolitical</text>
</g>
<!-- 2&#45;&gt;3 -->
<g id="edge3" class="edge"><title>2&#45;&gt;3</title>
<path fill="none" stroke="black" d="M338.072,-192.884C316.349,-182.812 292.327,-171.674 270.045,-161.344"/>
<polygon fill="black" stroke="black" points="271.49,-158.156 260.946,-157.125 268.546,-164.506 271.49,-158.156"/>
</g>
<!-- 6 -->
<g id="node7" class="node"><title>6</title>
<polygon fill="#e58139" fill-opacity="0.800000" stroke="black" points="508,-157 311,-157 311,-89 508,-89 508,-157"/>
<text text-anchor="middle" x="409.5" y="-141.8" font-family="Times,serif" font-size="14.00">narrated_neutral_WN &lt;= 4.9868</text>
<text text-anchor="middle" x="409.5" y="-126.8" font-family="Times,serif" font-size="14.00">samples = 12</text>
<text text-anchor="middle" x="409.5" y="-111.8" font-family="Times,serif" font-size="14.00">value = [10, 2, 0, 0]</text>
<text text-anchor="middle" x="409.5" y="-96.8" font-family="Times,serif" font-size="14.00">class = costumbrista</text>
</g>
<!-- 2&#45;&gt;6 -->
<g id="edge6" class="edge"><title>2&#45;&gt;6</title>
<path fill="none" stroke="black" d="M409.5,-192.884C409.5,-184.778 409.5,-175.982 409.5,-167.472"/>
<polygon fill="black" stroke="black" points="413,-167.299 409.5,-157.299 406,-167.299 413,-167.299"/>
</g>
<!-- 4 -->
<g id="node5" class="node"><title>4</title>
<polygon fill="#d739e5" fill-opacity="0.698039" stroke="black" points="131,-53 0,-53 0,-0 131,-0 131,-53"/>
<text text-anchor="middle" x="65.5" y="-37.8" font-family="Times,serif" font-size="14.00">samples = 23</text>
<text text-anchor="middle" x="65.5" y="-22.8" font-family="Times,serif" font-size="14.00">value = [3, 2, 1, 17]</text>
<text text-anchor="middle" x="65.5" y="-7.8" font-family="Times,serif" font-size="14.00">class = sociopolitical</text>
</g>
<!-- 3&#45;&gt;4 -->
<g id="edge4" class="edge"><title>3&#45;&gt;4</title>
<path fill="none" stroke="black" d="M146.131,-88.9485C133.527,-79.3431 119.791,-68.8747 107.286,-59.345"/>
<polygon fill="black" stroke="black" points="109.346,-56.5144 99.2709,-53.2367 105.103,-62.0819 109.346,-56.5144"/>
</g>
<!-- 5 -->
<g id="node6" class="node"><title>5</title>
<polygon fill="#399de5" fill-opacity="0.200000" stroke="black" points="271.5,-53 149.5,-53 149.5,-0 271.5,-0 271.5,-53"/>
<text text-anchor="middle" x="210.5" y="-37.8" font-family="Times,serif" font-size="14.00">samples = 7</text>
<text text-anchor="middle" x="210.5" y="-22.8" font-family="Times,serif" font-size="14.00">value = [1, 2, 3, 1]</text>
<text text-anchor="middle" x="210.5" y="-7.8" font-family="Times,serif" font-size="14.00">class = sentimental</text>
</g>
<!-- 3&#45;&gt;5 -->
<g id="edge5" class="edge"><title>3&#45;&gt;5</title>
<path fill="none" stroke="black" d="M196.845,-88.9485C198.695,-80.6238 200.689,-71.6509 202.566,-63.2027"/>
<polygon fill="black" stroke="black" points="206.028,-63.7579 204.781,-53.2367 199.195,-62.2393 206.028,-63.7579"/>
</g>
<!-- 7 -->
<g id="node8" class="node"><title>7</title>
<polygon fill="#47e539" stroke="black" points="449.5,-53 329.5,-53 329.5,-0 449.5,-0 449.5,-53"/>
<text text-anchor="middle" x="389.5" y="-37.8" font-family="Times,serif" font-size="14.00">samples = 1</text>
<text text-anchor="middle" x="389.5" y="-22.8" font-family="Times,serif" font-size="14.00">value = [0, 1, 0, 0]</text>
<text text-anchor="middle" x="389.5" y="-7.8" font-family="Times,serif" font-size="14.00">class = historical</text>
</g>
<!-- 6&#45;&gt;7 -->
<g id="edge7" class="edge"><title>6&#45;&gt;7</title>
<path fill="none" stroke="black" d="M402.505,-88.9485C400.743,-80.6238 398.844,-71.6509 397.056,-63.2027"/>
<polygon fill="black" stroke="black" points="400.442,-62.2953 394.947,-53.2367 393.593,-63.7447 400.442,-62.2953"/>
</g>
<!-- 8 -->
<g id="node9" class="node"><title>8</title>
<polygon fill="#e58139" fill-opacity="0.901961" stroke="black" points="595.5,-53 467.5,-53 467.5,-0 595.5,-0 595.5,-53"/>
<text text-anchor="middle" x="531.5" y="-37.8" font-family="Times,serif" font-size="14.00">samples = 11</text>
<text text-anchor="middle" x="531.5" y="-22.8" font-family="Times,serif" font-size="14.00">value = [10, 1, 0, 0]</text>
<text text-anchor="middle" x="531.5" y="-7.8" font-family="Times,serif" font-size="14.00">class = costumbrista</text>
</g>
<!-- 6&#45;&gt;8 -->
<g id="edge8" class="edge"><title>6&#45;&gt;8</title>
<path fill="none" stroke="black" d="M452.17,-88.9485C464.452,-79.4346 477.828,-69.074 490.036,-59.6175"/>
<polygon fill="black" stroke="black" points="492.511,-62.1274 498.274,-53.2367 488.225,-56.5934 492.511,-62.1274"/>
</g>
<!-- 10 -->
<g id="node11" class="node"><title>10</title>
<polygon fill="#e58139" stroke="black" points="654.5,-149.5 526.5,-149.5 526.5,-96.5 654.5,-96.5 654.5,-149.5"/>
<text text-anchor="middle" x="590.5" y="-134.3" font-family="Times,serif" font-size="14.00">samples = 1</text>
<text text-anchor="middle" x="590.5" y="-119.3" font-family="Times,serif" font-size="14.00">value = [1, 0, 0, 0]</text>
<text text-anchor="middle" x="590.5" y="-104.3" font-family="Times,serif" font-size="14.00">class = costumbrista</text>
</g>
<!-- 9&#45;&gt;10 -->
<g id="edge10" class="edge"><title>9&#45;&gt;10</title>
<path fill="none" stroke="black" d="M622.24,-192.884C617.223,-181.996 611.633,-169.863 606.558,-158.85"/>
<polygon fill="black" stroke="black" points="609.623,-157.137 602.259,-149.52 603.265,-160.067 609.623,-157.137"/>
</g>
<!-- 11 -->
<g id="node12" class="node"><title>11</title>
<polygon fill="#47e539" stroke="black" points="800,-149.5 673,-149.5 673,-96.5 800,-96.5 800,-149.5"/>
<text text-anchor="middle" x="736.5" y="-134.3" font-family="Times,serif" font-size="14.00">samples = 15</text>
<text text-anchor="middle" x="736.5" y="-119.3" font-family="Times,serif" font-size="14.00">value = [0, 15, 0, 0]</text>
<text text-anchor="middle" x="736.5" y="-104.3" font-family="Times,serif" font-size="14.00">class = historical</text>
</g>
<!-- 9&#45;&gt;11 -->
<g id="edge11" class="edge"><title>9&#45;&gt;11</title>
<path fill="none" stroke="black" d="M669.642,-192.884C680.851,-181.336 693.418,-168.387 704.606,-156.86"/>
<polygon fill="black" stroke="black" points="707.277,-159.133 711.731,-149.52 702.254,-154.258 707.277,-159.133"/>
</g>
<!-- 13 -->
<g id="node14" class="node"><title>13</title>
<polygon fill="#399de5" fill-opacity="0.501961" stroke="black" points="1002,-261 789,-261 789,-193 1002,-193 1002,-261"/>
<text text-anchor="middle" x="895.5" y="-245.8" font-family="Times,serif" font-size="14.00">speech_emotional_WN &lt;= 45.8963</text>
<text text-anchor="middle" x="895.5" y="-230.8" font-family="Times,serif" font-size="14.00">samples = 51</text>
<text text-anchor="middle" x="895.5" y="-215.8" font-family="Times,serif" font-size="14.00">value = [7, 9, 30, 5]</text>
<text text-anchor="middle" x="895.5" y="-200.8" font-family="Times,serif" font-size="14.00">class = sentimental</text>
</g>
<!-- 12&#45;&gt;13 -->
<g id="edge13" class="edge"><title>12&#45;&gt;13</title>
<path fill="none" stroke="black" d="M895.5,-296.884C895.5,-288.778 895.5,-279.982 895.5,-271.472"/>
<polygon fill="black" stroke="black" points="899,-271.299 895.5,-261.299 892,-271.299 899,-271.299"/>
</g>
<!-- 20 -->
<g id="node21" class="node"><title>20</title>
<polygon fill="#d739e5" stroke="black" points="1151,-253.5 1020,-253.5 1020,-200.5 1151,-200.5 1151,-253.5"/>
<text text-anchor="middle" x="1085.5" y="-238.3" font-family="Times,serif" font-size="14.00">samples = 3</text>
<text text-anchor="middle" x="1085.5" y="-223.3" font-family="Times,serif" font-size="14.00">value = [0, 0, 0, 3]</text>
<text text-anchor="middle" x="1085.5" y="-208.3" font-family="Times,serif" font-size="14.00">class = sociopolitical</text>
</g>
<!-- 12&#45;&gt;20 -->
<g id="edge20" class="edge"><title>12&#45;&gt;20</title>
<path fill="none" stroke="black" d="M957.188,-296.884C980.337,-284.456 1006.51,-270.406 1029.15,-258.252"/>
<polygon fill="black" stroke="black" points="1030.81,-261.334 1037.96,-253.52 1027.5,-255.166 1030.81,-261.334"/>
</g>
<!-- 14 -->
<g id="node15" class="node"><title>14</title>
<polygon fill="#399de5" fill-opacity="0.270588" stroke="black" points="972.5,-157 818.5,-157 818.5,-89 972.5,-89 972.5,-157"/>
<text text-anchor="middle" x="895.5" y="-141.8" font-family="Times,serif" font-size="14.00">negative_WN &lt;= 7.8418</text>
<text text-anchor="middle" x="895.5" y="-126.8" font-family="Times,serif" font-size="14.00">samples = 33</text>
<text text-anchor="middle" x="895.5" y="-111.8" font-family="Times,serif" font-size="14.00">value = [7, 7, 14, 5]</text>
<text text-anchor="middle" x="895.5" y="-96.8" font-family="Times,serif" font-size="14.00">class = sentimental</text>
</g>
<!-- 13&#45;&gt;14 -->
<g id="edge14" class="edge"><title>13&#45;&gt;14</title>
<path fill="none" stroke="black" d="M895.5,-192.884C895.5,-184.778 895.5,-175.982 895.5,-167.472"/>
<polygon fill="black" stroke="black" points="899,-167.299 895.5,-157.299 892,-167.299 899,-167.299"/>
</g>
<!-- 17 -->
<g id="node18" class="node"><title>17</title>
<polygon fill="#399de5" fill-opacity="0.874510" stroke="black" points="1204,-157 991,-157 991,-89 1204,-89 1204,-157"/>
<text text-anchor="middle" x="1097.5" y="-141.8" font-family="Times,serif" font-size="14.00">speech_emotional_WN &lt;= 54.8312</text>
<text text-anchor="middle" x="1097.5" y="-126.8" font-family="Times,serif" font-size="14.00">samples = 18</text>
<text text-anchor="middle" x="1097.5" y="-111.8" font-family="Times,serif" font-size="14.00">value = [0, 2, 16, 0]</text>
<text text-anchor="middle" x="1097.5" y="-96.8" font-family="Times,serif" font-size="14.00">class = sentimental</text>
</g>
<!-- 13&#45;&gt;17 -->
<g id="edge17" class="edge"><title>13&#45;&gt;17</title>
<path fill="none" stroke="black" d="M961.084,-192.884C980.764,-182.946 1002.5,-171.971 1022.73,-161.757"/>
<polygon fill="black" stroke="black" points="1024.55,-164.757 1031.9,-157.125 1021.4,-158.508 1024.55,-164.757"/>
</g>
<!-- 15 -->
<g id="node16" class="node"><title>15</title>
<polygon fill="#399de5" fill-opacity="0.094118" stroke="black" points="845.5,-53 723.5,-53 723.5,-0 845.5,-0 845.5,-53"/>
<text text-anchor="middle" x="784.5" y="-37.8" font-family="Times,serif" font-size="14.00">samples = 28</text>
<text text-anchor="middle" x="784.5" y="-22.8" font-family="Times,serif" font-size="14.00">value = [7, 7, 9, 5]</text>
<text text-anchor="middle" x="784.5" y="-7.8" font-family="Times,serif" font-size="14.00">class = sentimental</text>
</g>
<!-- 14&#45;&gt;15 -->
<g id="edge15" class="edge"><title>14&#45;&gt;15</title>
<path fill="none" stroke="black" d="M856.678,-88.9485C845.61,-79.526 833.567,-69.2731 822.546,-59.8906"/>
<polygon fill="black" stroke="black" points="824.614,-57.0542 814.73,-53.2367 820.076,-62.3842 824.614,-57.0542"/>
</g>
<!-- 16 -->
<g id="node17" class="node"><title>16</title>
<polygon fill="#399de5" stroke="black" points="985.5,-53 863.5,-53 863.5,-0 985.5,-0 985.5,-53"/>
<text text-anchor="middle" x="924.5" y="-37.8" font-family="Times,serif" font-size="14.00">samples = 5</text>
<text text-anchor="middle" x="924.5" y="-22.8" font-family="Times,serif" font-size="14.00">value = [0, 0, 5, 0]</text>
<text text-anchor="middle" x="924.5" y="-7.8" font-family="Times,serif" font-size="14.00">class = sentimental</text>
</g>
<!-- 14&#45;&gt;16 -->
<g id="edge16" class="edge"><title>14&#45;&gt;16</title>
<path fill="none" stroke="black" d="M905.643,-88.9485C908.226,-80.5323 911.012,-71.4536 913.629,-62.9243"/>
<polygon fill="black" stroke="black" points="917.014,-63.8235 916.602,-53.2367 910.322,-61.7698 917.014,-63.8235"/>
</g>
<!-- 18 -->
<g id="node19" class="node"><title>18</title>
<polygon fill="#399de5" stroke="black" points="1146,-53 1019,-53 1019,-0 1146,-0 1146,-53"/>
<text text-anchor="middle" x="1082.5" y="-37.8" font-family="Times,serif" font-size="14.00">samples = 15</text>
<text text-anchor="middle" x="1082.5" y="-22.8" font-family="Times,serif" font-size="14.00">value = [0, 0, 15, 0]</text>
<text text-anchor="middle" x="1082.5" y="-7.8" font-family="Times,serif" font-size="14.00">class = sentimental</text>
</g>
<!-- 17&#45;&gt;18 -->
<g id="edge18" class="edge"><title>17&#45;&gt;18</title>
<path fill="none" stroke="black" d="M1092.25,-88.9485C1090.93,-80.6238 1089.51,-71.6509 1088.17,-63.2027"/>
<polygon fill="black" stroke="black" points="1091.61,-62.5643 1086.59,-53.2367 1084.7,-63.6618 1091.61,-62.5643"/>
</g>
<!-- 19 -->
<g id="node20" class="node"><title>19</title>
<polygon fill="#47e539" fill-opacity="0.498039" stroke="black" points="1284.5,-53 1164.5,-53 1164.5,-0 1284.5,-0 1284.5,-53"/>
<text text-anchor="middle" x="1224.5" y="-37.8" font-family="Times,serif" font-size="14.00">samples = 3</text>
<text text-anchor="middle" x="1224.5" y="-22.8" font-family="Times,serif" font-size="14.00">value = [0, 2, 1, 0]</text>
<text text-anchor="middle" x="1224.5" y="-7.8" font-family="Times,serif" font-size="14.00">class = historical</text>
</g>
<!-- 17&#45;&gt;19 -->
<g id="edge19" class="edge"><title>17&#45;&gt;19</title>
<path fill="none" stroke="black" d="M1141.92,-88.9485C1154.83,-79.3431 1168.9,-68.8747 1181.7,-59.345"/>
<polygon fill="black" stroke="black" points="1183.98,-62.0143 1189.91,-53.2367 1179.8,-56.3984 1183.98,-62.0143"/>
</g>
</g>
</svg>
