<?xml version="1.0" encoding="UTF-8" standalone="no"?>
<!DOCTYPE svg PUBLIC "-//W3C//DTD SVG 1.1//EN"
 "http://www.w3.org/Graphics/SVG/1.1/DTD/svg11.dtd">
<!-- Generated by graphviz version 2.38.0 (20140413.2041)
 -->
<!-- Title: Tree Pages: 1 -->
<svg width="2492pt" height="685pt"
 viewBox="0.00 0.00 2491.50 685.00" xmlns="http://www.w3.org/2000/svg" xmlns:xlink="http://www.w3.org/1999/xlink">
<g id="graph0" class="graph" transform="scale(1 1) rotate(0) translate(4 681)">
<title>Tree</title>
<polygon fill="white" stroke="none" points="-4,4 -4,-681 2487.5,-681 2487.5,4 -4,4"/>
<!-- 0 -->
<g id="node1" class="node"><title>0</title>
<polygon fill="#399de5" fill-opacity="0.047059" stroke="black" points="1609.5,-677 1462.5,-677 1462.5,-609 1609.5,-609 1609.5,-677"/>
<text text-anchor="middle" x="1536" y="-661.8" font-family="Times,serif" font-size="14.00">Fear_NRC &lt;= 6.4535</text>
<text text-anchor="middle" x="1536" y="-646.8" font-family="Times,serif" font-size="14.00">samples = 112</text>
<text text-anchor="middle" x="1536" y="-631.8" font-family="Times,serif" font-size="14.00">value = [22, 30, 34, 26]</text>
<text text-anchor="middle" x="1536" y="-616.8" font-family="Times,serif" font-size="14.00">class = sentimental</text>
</g>
<!-- 1 -->
<g id="node2" class="node"><title>1</title>
<polygon fill="#399de5" fill-opacity="0.109804" stroke="black" points="1403,-573 1185,-573 1185,-505 1403,-505 1403,-573"/>
<text text-anchor="middle" x="1294" y="-557.8" font-family="Times,serif" font-size="14.00">speech_emotional_NRC &lt;= 14.2456</text>
<text text-anchor="middle" x="1294" y="-542.8" font-family="Times,serif" font-size="14.00">samples = 78</text>
<text text-anchor="middle" x="1294" y="-527.8" font-family="Times,serif" font-size="14.00">value = [22, 4, 29, 23]</text>
<text text-anchor="middle" x="1294" y="-512.8" font-family="Times,serif" font-size="14.00">class = sentimental</text>
</g>
<!-- 0&#45;&gt;1 -->
<g id="edge1" class="edge"><title>0&#45;&gt;1</title>
<path fill="none" stroke="black" d="M1462.41,-610.981C1437.03,-600.286 1408.35,-588.197 1381.94,-577.068"/>
<polygon fill="black" stroke="black" points="1383.28,-573.834 1372.71,-573.175 1380.56,-580.284 1383.28,-573.834"/>
<text text-anchor="middle" x="1382.13" y="-592.631" font-family="Times,serif" font-size="14.00">True</text>
</g>
<!-- 32 -->
<g id="node33" class="node"><title>32</title>
<polygon fill="#47e539" fill-opacity="0.725490" stroke="black" points="1863,-573 1711,-573 1711,-505 1863,-505 1863,-573"/>
<text text-anchor="middle" x="1787" y="-557.8" font-family="Times,serif" font-size="14.00">neutral_WN &lt;= 60.8918</text>
<text text-anchor="middle" x="1787" y="-542.8" font-family="Times,serif" font-size="14.00">samples = 34</text>
<text text-anchor="middle" x="1787" y="-527.8" font-family="Times,serif" font-size="14.00">value = [0, 26, 5, 3]</text>
<text text-anchor="middle" x="1787" y="-512.8" font-family="Times,serif" font-size="14.00">class = historical</text>
</g>
<!-- 0&#45;&gt;32 -->
<g id="edge32" class="edge"><title>0&#45;&gt;32</title>
<path fill="none" stroke="black" d="M1609.61,-612.086C1638.33,-600.416 1671.44,-586.959 1701.23,-574.855"/>
<polygon fill="black" stroke="black" points="1702.83,-577.984 1710.77,-570.977 1700.19,-571.499 1702.83,-577.984"/>
<text text-anchor="middle" x="1701.05" y="-590.309" font-family="Times,serif" font-size="14.00">False</text>
</g>
<!-- 2 -->
<g id="node3" class="node"><title>2</title>
<polygon fill="#e58139" fill-opacity="0.050980" stroke="black" points="660,-469 506,-469 506,-401 660,-401 660,-469"/>
<text text-anchor="middle" x="583" y="-453.8" font-family="Times,serif" font-size="14.00">negative_WN &lt;= 2.5572</text>
<text text-anchor="middle" x="583" y="-438.8" font-family="Times,serif" font-size="14.00">samples = 35</text>
<text text-anchor="middle" x="583" y="-423.8" font-family="Times,serif" font-size="14.00">value = [17, 2, 0, 16]</text>
<text text-anchor="middle" x="583" y="-408.8" font-family="Times,serif" font-size="14.00">class = costumbrista</text>
</g>
<!-- 1&#45;&gt;2 -->
<g id="edge2" class="edge"><title>1&#45;&gt;2</title>
<path fill="none" stroke="black" d="M1184.85,-522.342C1043.58,-502.074 800.187,-467.158 670.429,-448.543"/>
<polygon fill="black" stroke="black" points="670.537,-445.022 660.141,-447.067 669.543,-451.951 670.537,-445.022"/>
</g>
<!-- 15 -->
<g id="node16" class="node"><title>15</title>
<polygon fill="#399de5" fill-opacity="0.611765" stroke="black" points="1396.5,-469 1191.5,-469 1191.5,-401 1396.5,-401 1396.5,-469"/>
<text text-anchor="middle" x="1294" y="-453.8" font-family="Times,serif" font-size="14.00">Disgust_NRC_narrated &lt;= 0.8579</text>
<text text-anchor="middle" x="1294" y="-438.8" font-family="Times,serif" font-size="14.00">samples = 43</text>
<text text-anchor="middle" x="1294" y="-423.8" font-family="Times,serif" font-size="14.00">value = [5, 2, 29, 7]</text>
<text text-anchor="middle" x="1294" y="-408.8" font-family="Times,serif" font-size="14.00">class = sentimental</text>
</g>
<!-- 1&#45;&gt;15 -->
<g id="edge15" class="edge"><title>1&#45;&gt;15</title>
<path fill="none" stroke="black" d="M1294,-504.884C1294,-496.778 1294,-487.982 1294,-479.472"/>
<polygon fill="black" stroke="black" points="1297.5,-479.299 1294,-469.299 1290.5,-479.299 1297.5,-479.299"/>
</g>
<!-- 3 -->
<g id="node4" class="node"><title>3</title>
<polygon fill="#e58139" fill-opacity="0.847059" stroke="black" points="312,-365 130,-365 130,-297 312,-297 312,-365"/>
<text text-anchor="middle" x="221" y="-349.8" font-family="Times,serif" font-size="14.00">Joy_NRC_narrated &lt;= 2.5605</text>
<text text-anchor="middle" x="221" y="-334.8" font-family="Times,serif" font-size="14.00">samples = 14</text>
<text text-anchor="middle" x="221" y="-319.8" font-family="Times,serif" font-size="14.00">value = [12, 1, 0, 1]</text>
<text text-anchor="middle" x="221" y="-304.8" font-family="Times,serif" font-size="14.00">class = costumbrista</text>
</g>
<!-- 2&#45;&gt;3 -->
<g id="edge3" class="edge"><title>2&#45;&gt;3</title>
<path fill="none" stroke="black" d="M505.786,-412.244C452.198,-397.144 380.279,-376.88 322.122,-360.493"/>
<polygon fill="black" stroke="black" points="322.748,-357.033 312.173,-357.69 320.849,-363.771 322.748,-357.033"/>
</g>
<!-- 8 -->
<g id="node9" class="node"><title>8</title>
<polygon fill="#d739e5" fill-opacity="0.623529" stroke="black" points="661,-365 505,-365 505,-297 661,-297 661,-365"/>
<text text-anchor="middle" x="583" y="-349.8" font-family="Times,serif" font-size="14.00">Sadness_NRC &lt;= 6.6248</text>
<text text-anchor="middle" x="583" y="-334.8" font-family="Times,serif" font-size="14.00">samples = 21</text>
<text text-anchor="middle" x="583" y="-319.8" font-family="Times,serif" font-size="14.00">value = [5, 1, 0, 15]</text>
<text text-anchor="middle" x="583" y="-304.8" font-family="Times,serif" font-size="14.00">class = sociopolitical</text>
</g>
<!-- 2&#45;&gt;8 -->
<g id="edge8" class="edge"><title>2&#45;&gt;8</title>
<path fill="none" stroke="black" d="M583,-400.884C583,-392.778 583,-383.982 583,-375.472"/>
<polygon fill="black" stroke="black" points="586.5,-375.299 583,-365.299 579.5,-375.299 586.5,-375.299"/>
</g>
<!-- 4 -->
<g id="node5" class="node"><title>4</title>
<polygon fill="#e58139" stroke="black" points="128,-253.5 0,-253.5 0,-200.5 128,-200.5 128,-253.5"/>
<text text-anchor="middle" x="64" y="-238.3" font-family="Times,serif" font-size="14.00">samples = 12</text>
<text text-anchor="middle" x="64" y="-223.3" font-family="Times,serif" font-size="14.00">value = [12, 0, 0, 0]</text>
<text text-anchor="middle" x="64" y="-208.3" font-family="Times,serif" font-size="14.00">class = costumbrista</text>
</g>
<!-- 3&#45;&gt;4 -->
<g id="edge4" class="edge"><title>3&#45;&gt;4</title>
<path fill="none" stroke="black" d="M170.027,-296.884C151.321,-284.731 130.228,-271.027 111.81,-259.061"/>
<polygon fill="black" stroke="black" points="113.573,-256.033 103.281,-253.52 109.76,-261.903 113.573,-256.033"/>
</g>
<!-- 5 -->
<g id="node6" class="node"><title>5</title>
<polygon fill="none" stroke="black" points="296,-261 146,-261 146,-193 296,-193 296,-261"/>
<text text-anchor="middle" x="221" y="-245.8" font-family="Times,serif" font-size="14.00">neutral_NRC &lt;= 56.168</text>
<text text-anchor="middle" x="221" y="-230.8" font-family="Times,serif" font-size="14.00">samples = 2</text>
<text text-anchor="middle" x="221" y="-215.8" font-family="Times,serif" font-size="14.00">value = [0, 1, 0, 1]</text>
<text text-anchor="middle" x="221" y="-200.8" font-family="Times,serif" font-size="14.00">class = historical</text>
</g>
<!-- 3&#45;&gt;5 -->
<g id="edge5" class="edge"><title>3&#45;&gt;5</title>
<path fill="none" stroke="black" d="M221,-296.884C221,-288.778 221,-279.982 221,-271.472"/>
<polygon fill="black" stroke="black" points="224.5,-271.299 221,-261.299 217.5,-271.299 224.5,-271.299"/>
</g>
<!-- 6 -->
<g id="node7" class="node"><title>6</title>
<polygon fill="#d739e5" stroke="black" points="142.5,-149.5 11.5,-149.5 11.5,-96.5 142.5,-96.5 142.5,-149.5"/>
<text text-anchor="middle" x="77" y="-134.3" font-family="Times,serif" font-size="14.00">samples = 1</text>
<text text-anchor="middle" x="77" y="-119.3" font-family="Times,serif" font-size="14.00">value = [0, 0, 0, 1]</text>
<text text-anchor="middle" x="77" y="-104.3" font-family="Times,serif" font-size="14.00">class = sociopolitical</text>
</g>
<!-- 5&#45;&gt;6 -->
<g id="edge6" class="edge"><title>5&#45;&gt;6</title>
<path fill="none" stroke="black" d="M174.247,-192.884C157.324,-180.896 138.269,-167.399 121.54,-155.549"/>
<polygon fill="black" stroke="black" points="123.211,-152.444 113.028,-149.52 119.165,-158.156 123.211,-152.444"/>
</g>
<!-- 7 -->
<g id="node8" class="node"><title>7</title>
<polygon fill="#47e539" stroke="black" points="281,-149.5 161,-149.5 161,-96.5 281,-96.5 281,-149.5"/>
<text text-anchor="middle" x="221" y="-134.3" font-family="Times,serif" font-size="14.00">samples = 1</text>
<text text-anchor="middle" x="221" y="-119.3" font-family="Times,serif" font-size="14.00">value = [0, 1, 0, 0]</text>
<text text-anchor="middle" x="221" y="-104.3" font-family="Times,serif" font-size="14.00">class = historical</text>
</g>
<!-- 5&#45;&gt;7 -->
<g id="edge7" class="edge"><title>5&#45;&gt;7</title>
<path fill="none" stroke="black" d="M221,-192.884C221,-182.326 221,-170.597 221,-159.854"/>
<polygon fill="black" stroke="black" points="224.5,-159.52 221,-149.52 217.5,-159.52 224.5,-159.52"/>
</g>
<!-- 9 -->
<g id="node10" class="node"><title>9</title>
<polygon fill="#e58139" fill-opacity="0.200000" stroke="black" points="567,-261 387,-261 387,-193 567,-193 567,-261"/>
<text text-anchor="middle" x="477" y="-245.8" font-family="Times,serif" font-size="14.00">Anticipation_NRC &lt;= 6.7475</text>
<text text-anchor="middle" x="477" y="-230.8" font-family="Times,serif" font-size="14.00">samples = 9</text>
<text text-anchor="middle" x="477" y="-215.8" font-family="Times,serif" font-size="14.00">value = [5, 0, 0, 4]</text>
<text text-anchor="middle" x="477" y="-200.8" font-family="Times,serif" font-size="14.00">class = costumbrista</text>
</g>
<!-- 8&#45;&gt;9 -->
<g id="edge9" class="edge"><title>8&#45;&gt;9</title>
<path fill="none" stroke="black" d="M548.585,-296.884C539.143,-287.798 528.8,-277.845 518.985,-268.4"/>
<polygon fill="black" stroke="black" points="521.238,-265.711 511.605,-261.299 516.384,-270.755 521.238,-265.711"/>
</g>
<!-- 12 -->
<g id="node13" class="node"><title>12</title>
<polygon fill="#d739e5" fill-opacity="0.909804" stroke="black" points="793,-261 585,-261 585,-193 793,-193 793,-261"/>
<text text-anchor="middle" x="689" y="-245.8" font-family="Times,serif" font-size="14.00">narrated_neutral_NRC &lt;= 22.8423</text>
<text text-anchor="middle" x="689" y="-230.8" font-family="Times,serif" font-size="14.00">samples = 12</text>
<text text-anchor="middle" x="689" y="-215.8" font-family="Times,serif" font-size="14.00">value = [0, 1, 0, 11]</text>
<text text-anchor="middle" x="689" y="-200.8" font-family="Times,serif" font-size="14.00">class = sociopolitical</text>
</g>
<!-- 8&#45;&gt;12 -->
<g id="edge12" class="edge"><title>8&#45;&gt;12</title>
<path fill="none" stroke="black" d="M617.415,-296.884C626.857,-287.798 637.2,-277.845 647.015,-268.4"/>
<polygon fill="black" stroke="black" points="649.616,-270.755 654.395,-261.299 644.762,-265.711 649.616,-270.755"/>
</g>
<!-- 10 -->
<g id="node11" class="node"><title>10</title>
<polygon fill="#e58139" stroke="black" points="427,-149.5 299,-149.5 299,-96.5 427,-96.5 427,-149.5"/>
<text text-anchor="middle" x="363" y="-134.3" font-family="Times,serif" font-size="14.00">samples = 5</text>
<text text-anchor="middle" x="363" y="-119.3" font-family="Times,serif" font-size="14.00">value = [5, 0, 0, 0]</text>
<text text-anchor="middle" x="363" y="-104.3" font-family="Times,serif" font-size="14.00">class = costumbrista</text>
</g>
<!-- 9&#45;&gt;10 -->
<g id="edge10" class="edge"><title>9&#45;&gt;10</title>
<path fill="none" stroke="black" d="M439.987,-192.884C426.835,-181.116 412.058,-167.894 398.992,-156.203"/>
<polygon fill="black" stroke="black" points="401.309,-153.58 391.522,-149.52 396.641,-158.796 401.309,-153.58"/>
</g>
<!-- 11 -->
<g id="node12" class="node"><title>11</title>
<polygon fill="#d739e5" stroke="black" points="576.5,-149.5 445.5,-149.5 445.5,-96.5 576.5,-96.5 576.5,-149.5"/>
<text text-anchor="middle" x="511" y="-134.3" font-family="Times,serif" font-size="14.00">samples = 4</text>
<text text-anchor="middle" x="511" y="-119.3" font-family="Times,serif" font-size="14.00">value = [0, 0, 0, 4]</text>
<text text-anchor="middle" x="511" y="-104.3" font-family="Times,serif" font-size="14.00">class = sociopolitical</text>
</g>
<!-- 9&#45;&gt;11 -->
<g id="edge11" class="edge"><title>9&#45;&gt;11</title>
<path fill="none" stroke="black" d="M488.039,-192.884C491.631,-182.106 495.631,-170.108 499.272,-159.184"/>
<polygon fill="black" stroke="black" points="502.651,-160.114 502.493,-149.52 496.011,-157.9 502.651,-160.114"/>
</g>
<!-- 13 -->
<g id="node14" class="node"><title>13</title>
<polygon fill="#47e539" stroke="black" points="715,-149.5 595,-149.5 595,-96.5 715,-96.5 715,-149.5"/>
<text text-anchor="middle" x="655" y="-134.3" font-family="Times,serif" font-size="14.00">samples = 1</text>
<text text-anchor="middle" x="655" y="-119.3" font-family="Times,serif" font-size="14.00">value = [0, 1, 0, 0]</text>
<text text-anchor="middle" x="655" y="-104.3" font-family="Times,serif" font-size="14.00">class = historical</text>
</g>
<!-- 12&#45;&gt;13 -->
<g id="edge13" class="edge"><title>12&#45;&gt;13</title>
<path fill="none" stroke="black" d="M677.961,-192.884C674.369,-182.106 670.369,-170.108 666.728,-159.184"/>
<polygon fill="black" stroke="black" points="669.989,-157.9 663.507,-149.52 663.349,-160.114 669.989,-157.9"/>
</g>
<!-- 14 -->
<g id="node15" class="node"><title>14</title>
<polygon fill="#d739e5" stroke="black" points="864.5,-149.5 733.5,-149.5 733.5,-96.5 864.5,-96.5 864.5,-149.5"/>
<text text-anchor="middle" x="799" y="-134.3" font-family="Times,serif" font-size="14.00">samples = 11</text>
<text text-anchor="middle" x="799" y="-119.3" font-family="Times,serif" font-size="14.00">value = [0, 0, 0, 11]</text>
<text text-anchor="middle" x="799" y="-104.3" font-family="Times,serif" font-size="14.00">class = sociopolitical</text>
</g>
<!-- 12&#45;&gt;14 -->
<g id="edge14" class="edge"><title>12&#45;&gt;14</title>
<path fill="none" stroke="black" d="M724.714,-192.884C737.286,-181.226 751.397,-168.141 763.917,-156.532"/>
<polygon fill="black" stroke="black" points="766.526,-158.886 771.479,-149.52 761.766,-153.753 766.526,-158.886"/>
</g>
<!-- 16 -->
<g id="node17" class="node"><title>16</title>
<polygon fill="#399de5" fill-opacity="0.772549" stroke="black" points="1267,-365 1111,-365 1111,-297 1267,-297 1267,-365"/>
<text text-anchor="middle" x="1189" y="-349.8" font-family="Times,serif" font-size="14.00">Sadness_NRC &lt;= 4.2783</text>
<text text-anchor="middle" x="1189" y="-334.8" font-family="Times,serif" font-size="14.00">samples = 35</text>
<text text-anchor="middle" x="1189" y="-319.8" font-family="Times,serif" font-size="14.00">value = [2, 1, 28, 4]</text>
<text text-anchor="middle" x="1189" y="-304.8" font-family="Times,serif" font-size="14.00">class = sentimental</text>
</g>
<!-- 15&#45;&gt;16 -->
<g id="edge16" class="edge"><title>15&#45;&gt;16</title>
<path fill="none" stroke="black" d="M1259.91,-400.884C1250.56,-391.798 1240.31,-381.845 1230.59,-372.4"/>
<polygon fill="black" stroke="black" points="1232.89,-369.757 1223.28,-365.299 1228.01,-374.778 1232.89,-369.757"/>
</g>
<!-- 25 -->
<g id="node26" class="node"><title>25</title>
<polygon fill="none" stroke="black" points="1511.5,-365 1286.5,-365 1286.5,-297 1511.5,-297 1511.5,-365"/>
<text text-anchor="middle" x="1399" y="-349.8" font-family="Times,serif" font-size="14.00">narrated_emotional_NRC &lt;= 34.5336</text>
<text text-anchor="middle" x="1399" y="-334.8" font-family="Times,serif" font-size="14.00">samples = 8</text>
<text text-anchor="middle" x="1399" y="-319.8" font-family="Times,serif" font-size="14.00">value = [3, 1, 1, 3]</text>
<text text-anchor="middle" x="1399" y="-304.8" font-family="Times,serif" font-size="14.00">class = costumbrista</text>
</g>
<!-- 15&#45;&gt;25 -->
<g id="edge25" class="edge"><title>15&#45;&gt;25</title>
<path fill="none" stroke="black" d="M1328.09,-400.884C1337.44,-391.798 1347.69,-381.845 1357.41,-372.4"/>
<polygon fill="black" stroke="black" points="1359.99,-374.778 1364.72,-365.299 1355.11,-369.757 1359.99,-374.778"/>
</g>
<!-- 17 -->
<g id="node18" class="node"><title>17</title>
<polygon fill="#d739e5" stroke="black" points="1090.5,-253.5 959.5,-253.5 959.5,-200.5 1090.5,-200.5 1090.5,-253.5"/>
<text text-anchor="middle" x="1025" y="-238.3" font-family="Times,serif" font-size="14.00">samples = 3</text>
<text text-anchor="middle" x="1025" y="-223.3" font-family="Times,serif" font-size="14.00">value = [0, 0, 0, 3]</text>
<text text-anchor="middle" x="1025" y="-208.3" font-family="Times,serif" font-size="14.00">class = sociopolitical</text>
</g>
<!-- 16&#45;&gt;17 -->
<g id="edge17" class="edge"><title>16&#45;&gt;17</title>
<path fill="none" stroke="black" d="M1135.75,-296.884C1116.13,-284.676 1093.98,-270.903 1074.68,-258.899"/>
<polygon fill="black" stroke="black" points="1076.37,-255.829 1066.03,-253.52 1072.68,-261.773 1076.37,-255.829"/>
</g>
<!-- 18 -->
<g id="node19" class="node"><title>18</title>
<polygon fill="#399de5" fill-opacity="0.866667" stroke="black" points="1269.5,-261 1108.5,-261 1108.5,-193 1269.5,-193 1269.5,-261"/>
<text text-anchor="middle" x="1189" y="-245.8" font-family="Times,serif" font-size="14.00">Joy_NRC_speech &lt;= 0.36</text>
<text text-anchor="middle" x="1189" y="-230.8" font-family="Times,serif" font-size="14.00">samples = 32</text>
<text text-anchor="middle" x="1189" y="-215.8" font-family="Times,serif" font-size="14.00">value = [2, 1, 28, 1]</text>
<text text-anchor="middle" x="1189" y="-200.8" font-family="Times,serif" font-size="14.00">class = sentimental</text>
</g>
<!-- 16&#45;&gt;18 -->
<g id="edge18" class="edge"><title>16&#45;&gt;18</title>
<path fill="none" stroke="black" d="M1189,-296.884C1189,-288.778 1189,-279.982 1189,-271.472"/>
<polygon fill="black" stroke="black" points="1192.5,-271.299 1189,-261.299 1185.5,-271.299 1192.5,-271.299"/>
</g>
<!-- 19 -->
<g id="node20" class="node"><title>19</title>
<polygon fill="none" stroke="black" points="1065,-157 883,-157 883,-89 1065,-89 1065,-157"/>
<text text-anchor="middle" x="974" y="-141.8" font-family="Times,serif" font-size="14.00">Joy_NRC_narrated &lt;= 0.3413</text>
<text text-anchor="middle" x="974" y="-126.8" font-family="Times,serif" font-size="14.00">samples = 5</text>
<text text-anchor="middle" x="974" y="-111.8" font-family="Times,serif" font-size="14.00">value = [2, 0, 2, 1]</text>
<text text-anchor="middle" x="974" y="-96.8" font-family="Times,serif" font-size="14.00">class = costumbrista</text>
</g>
<!-- 18&#45;&gt;19 -->
<g id="edge19" class="edge"><title>18&#45;&gt;19</title>
<path fill="none" stroke="black" d="M1119.2,-192.884C1098.06,-182.856 1074.7,-171.773 1053.01,-161.482"/>
<polygon fill="black" stroke="black" points="1054.36,-158.249 1043.82,-157.125 1051.36,-164.573 1054.36,-158.249"/>
</g>
<!-- 22 -->
<g id="node23" class="node"><title>22</title>
<polygon fill="#399de5" fill-opacity="0.960784" stroke="black" points="1293.5,-157 1084.5,-157 1084.5,-89 1293.5,-89 1293.5,-157"/>
<text text-anchor="middle" x="1189" y="-141.8" font-family="Times,serif" font-size="14.00">Surprise_NRC_narrated &lt;= 1.4387</text>
<text text-anchor="middle" x="1189" y="-126.8" font-family="Times,serif" font-size="14.00">samples = 27</text>
<text text-anchor="middle" x="1189" y="-111.8" font-family="Times,serif" font-size="14.00">value = [0, 1, 26, 0]</text>
<text text-anchor="middle" x="1189" y="-96.8" font-family="Times,serif" font-size="14.00">class = sentimental</text>
</g>
<!-- 18&#45;&gt;22 -->
<g id="edge22" class="edge"><title>18&#45;&gt;22</title>
<path fill="none" stroke="black" d="M1189,-192.884C1189,-184.778 1189,-175.982 1189,-167.472"/>
<polygon fill="black" stroke="black" points="1192.5,-167.299 1189,-157.299 1185.5,-167.299 1192.5,-167.299"/>
</g>
<!-- 20 -->
<g id="node21" class="node"><title>20</title>
<polygon fill="#399de5" fill-opacity="0.498039" stroke="black" points="891,-53 769,-53 769,-0 891,-0 891,-53"/>
<text text-anchor="middle" x="830" y="-37.8" font-family="Times,serif" font-size="14.00">samples = 3</text>
<text text-anchor="middle" x="830" y="-22.8" font-family="Times,serif" font-size="14.00">value = [0, 0, 2, 1]</text>
<text text-anchor="middle" x="830" y="-7.8" font-family="Times,serif" font-size="14.00">class = sentimental</text>
</g>
<!-- 19&#45;&gt;20 -->
<g id="edge20" class="edge"><title>19&#45;&gt;20</title>
<path fill="none" stroke="black" d="M923.636,-88.9485C908.72,-79.1601 892.439,-68.4756 877.697,-58.8015"/>
<polygon fill="black" stroke="black" points="879.499,-55.7971 869.218,-53.2367 875.658,-61.6495 879.499,-55.7971"/>
</g>
<!-- 21 -->
<g id="node22" class="node"><title>21</title>
<polygon fill="#e58139" stroke="black" points="1037,-53 909,-53 909,-0 1037,-0 1037,-53"/>
<text text-anchor="middle" x="973" y="-37.8" font-family="Times,serif" font-size="14.00">samples = 2</text>
<text text-anchor="middle" x="973" y="-22.8" font-family="Times,serif" font-size="14.00">value = [2, 0, 0, 0]</text>
<text text-anchor="middle" x="973" y="-7.8" font-family="Times,serif" font-size="14.00">class = costumbrista</text>
</g>
<!-- 19&#45;&gt;21 -->
<g id="edge21" class="edge"><title>19&#45;&gt;21</title>
<path fill="none" stroke="black" d="M973.65,-88.9485C973.563,-80.7153 973.469,-71.848 973.381,-63.4814"/>
<polygon fill="black" stroke="black" points="976.878,-63.1991 973.272,-53.2367 969.878,-63.2732 976.878,-63.1991"/>
</g>
<!-- 23 -->
<g id="node24" class="node"><title>23</title>
<polygon fill="#399de5" stroke="black" points="1182.5,-53 1055.5,-53 1055.5,-0 1182.5,-0 1182.5,-53"/>
<text text-anchor="middle" x="1119" y="-37.8" font-family="Times,serif" font-size="14.00">samples = 26</text>
<text text-anchor="middle" x="1119" y="-22.8" font-family="Times,serif" font-size="14.00">value = [0, 0, 26, 0]</text>
<text text-anchor="middle" x="1119" y="-7.8" font-family="Times,serif" font-size="14.00">class = sentimental</text>
</g>
<!-- 22&#45;&gt;23 -->
<g id="edge23" class="edge"><title>22&#45;&gt;23</title>
<path fill="none" stroke="black" d="M1164.52,-88.9485C1157.94,-80.0749 1150.83,-70.4648 1144.21,-61.5388"/>
<polygon fill="black" stroke="black" points="1146.83,-59.189 1138.06,-53.2367 1141.2,-63.3556 1146.83,-59.189"/>
</g>
<!-- 24 -->
<g id="node25" class="node"><title>24</title>
<polygon fill="#47e539" stroke="black" points="1321,-53 1201,-53 1201,-0 1321,-0 1321,-53"/>
<text text-anchor="middle" x="1261" y="-37.8" font-family="Times,serif" font-size="14.00">samples = 1</text>
<text text-anchor="middle" x="1261" y="-22.8" font-family="Times,serif" font-size="14.00">value = [0, 1, 0, 0]</text>
<text text-anchor="middle" x="1261" y="-7.8" font-family="Times,serif" font-size="14.00">class = historical</text>
</g>
<!-- 22&#45;&gt;24 -->
<g id="edge24" class="edge"><title>22&#45;&gt;24</title>
<path fill="none" stroke="black" d="M1214.18,-88.9485C1221.01,-79.9834 1228.42,-70.2666 1235.28,-61.2629"/>
<polygon fill="black" stroke="black" points="1238.11,-63.3122 1241.39,-53.2367 1232.55,-59.0699 1238.11,-63.3122"/>
</g>
<!-- 26 -->
<g id="node27" class="node"><title>26</title>
<polygon fill="#d739e5" fill-opacity="0.498039" stroke="black" points="1464.5,-261 1333.5,-261 1333.5,-193 1464.5,-193 1464.5,-261"/>
<text text-anchor="middle" x="1399" y="-245.8" font-family="Times,serif" font-size="14.00">Joy_NRC &lt;= 1.4775</text>
<text text-anchor="middle" x="1399" y="-230.8" font-family="Times,serif" font-size="14.00">samples = 5</text>
<text text-anchor="middle" x="1399" y="-215.8" font-family="Times,serif" font-size="14.00">value = [0, 1, 1, 3]</text>
<text text-anchor="middle" x="1399" y="-200.8" font-family="Times,serif" font-size="14.00">class = sociopolitical</text>
</g>
<!-- 25&#45;&gt;26 -->
<g id="edge26" class="edge"><title>25&#45;&gt;26</title>
<path fill="none" stroke="black" d="M1399,-296.884C1399,-288.778 1399,-279.982 1399,-271.472"/>
<polygon fill="black" stroke="black" points="1402.5,-271.299 1399,-261.299 1395.5,-271.299 1402.5,-271.299"/>
</g>
<!-- 31 -->
<g id="node32" class="node"><title>31</title>
<polygon fill="#e58139" stroke="black" points="1611,-253.5 1483,-253.5 1483,-200.5 1611,-200.5 1611,-253.5"/>
<text text-anchor="middle" x="1547" y="-238.3" font-family="Times,serif" font-size="14.00">samples = 3</text>
<text text-anchor="middle" x="1547" y="-223.3" font-family="Times,serif" font-size="14.00">value = [3, 0, 0, 0]</text>
<text text-anchor="middle" x="1547" y="-208.3" font-family="Times,serif" font-size="14.00">class = costumbrista</text>
</g>
<!-- 25&#45;&gt;31 -->
<g id="edge31" class="edge"><title>25&#45;&gt;31</title>
<path fill="none" stroke="black" d="M1447.05,-296.884C1464.6,-284.786 1484.39,-271.151 1501.69,-259.224"/>
<polygon fill="black" stroke="black" points="1503.72,-262.077 1509.97,-253.52 1499.75,-256.313 1503.72,-262.077"/>
</g>
<!-- 27 -->
<g id="node28" class="node"><title>27</title>
<polygon fill="none" stroke="black" points="1475,-157 1323,-157 1323,-89 1475,-89 1475,-157"/>
<text text-anchor="middle" x="1399" y="-141.8" font-family="Times,serif" font-size="14.00">neutral_WN &lt;= 75.9862</text>
<text text-anchor="middle" x="1399" y="-126.8" font-family="Times,serif" font-size="14.00">samples = 2</text>
<text text-anchor="middle" x="1399" y="-111.8" font-family="Times,serif" font-size="14.00">value = [0, 1, 1, 0]</text>
<text text-anchor="middle" x="1399" y="-96.8" font-family="Times,serif" font-size="14.00">class = historical</text>
</g>
<!-- 26&#45;&gt;27 -->
<g id="edge27" class="edge"><title>26&#45;&gt;27</title>
<path fill="none" stroke="black" d="M1399,-192.884C1399,-184.778 1399,-175.982 1399,-167.472"/>
<polygon fill="black" stroke="black" points="1402.5,-167.299 1399,-157.299 1395.5,-167.299 1402.5,-167.299"/>
</g>
<!-- 30 -->
<g id="node31" class="node"><title>30</title>
<polygon fill="#d739e5" stroke="black" points="1624.5,-149.5 1493.5,-149.5 1493.5,-96.5 1624.5,-96.5 1624.5,-149.5"/>
<text text-anchor="middle" x="1559" y="-134.3" font-family="Times,serif" font-size="14.00">samples = 3</text>
<text text-anchor="middle" x="1559" y="-119.3" font-family="Times,serif" font-size="14.00">value = [0, 0, 0, 3]</text>
<text text-anchor="middle" x="1559" y="-104.3" font-family="Times,serif" font-size="14.00">class = sociopolitical</text>
</g>
<!-- 26&#45;&gt;30 -->
<g id="edge30" class="edge"><title>26&#45;&gt;30</title>
<path fill="none" stroke="black" d="M1450.95,-192.884C1470.1,-180.676 1491.7,-166.903 1510.53,-154.899"/>
<polygon fill="black" stroke="black" points="1512.42,-157.847 1518.97,-149.52 1508.65,-151.944 1512.42,-157.847"/>
</g>
<!-- 28 -->
<g id="node29" class="node"><title>28</title>
<polygon fill="#47e539" stroke="black" points="1459,-53 1339,-53 1339,-0 1459,-0 1459,-53"/>
<text text-anchor="middle" x="1399" y="-37.8" font-family="Times,serif" font-size="14.00">samples = 1</text>
<text text-anchor="middle" x="1399" y="-22.8" font-family="Times,serif" font-size="14.00">value = [0, 1, 0, 0]</text>
<text text-anchor="middle" x="1399" y="-7.8" font-family="Times,serif" font-size="14.00">class = historical</text>
</g>
<!-- 27&#45;&gt;28 -->
<g id="edge28" class="edge"><title>27&#45;&gt;28</title>
<path fill="none" stroke="black" d="M1399,-88.9485C1399,-80.7153 1399,-71.848 1399,-63.4814"/>
<polygon fill="black" stroke="black" points="1402.5,-63.2367 1399,-53.2367 1395.5,-63.2367 1402.5,-63.2367"/>
</g>
<!-- 29 -->
<g id="node30" class="node"><title>29</title>
<polygon fill="#399de5" stroke="black" points="1599,-53 1477,-53 1477,-0 1599,-0 1599,-53"/>
<text text-anchor="middle" x="1538" y="-37.8" font-family="Times,serif" font-size="14.00">samples = 1</text>
<text text-anchor="middle" x="1538" y="-22.8" font-family="Times,serif" font-size="14.00">value = [0, 0, 1, 0]</text>
<text text-anchor="middle" x="1538" y="-7.8" font-family="Times,serif" font-size="14.00">class = sentimental</text>
</g>
<!-- 27&#45;&gt;29 -->
<g id="edge29" class="edge"><title>27&#45;&gt;29</title>
<path fill="none" stroke="black" d="M1447.62,-88.9485C1461.88,-79.2516 1477.44,-68.6752 1491.56,-59.073"/>
<polygon fill="black" stroke="black" points="1493.84,-61.7535 1500.14,-53.2367 1489.91,-55.9646 1493.84,-61.7535"/>
</g>
<!-- 33 -->
<g id="node34" class="node"><title>33</title>
<polygon fill="#399de5" fill-opacity="0.600000" stroke="black" points="1864,-469 1710,-469 1710,-401 1864,-401 1864,-469"/>
<text text-anchor="middle" x="1787" y="-453.8" font-family="Times,serif" font-size="14.00">negative_WN &lt;= 7.3402</text>
<text text-anchor="middle" x="1787" y="-438.8" font-family="Times,serif" font-size="14.00">samples = 6</text>
<text text-anchor="middle" x="1787" y="-423.8" font-family="Times,serif" font-size="14.00">value = [0, 1, 4, 1]</text>
<text text-anchor="middle" x="1787" y="-408.8" font-family="Times,serif" font-size="14.00">class = sentimental</text>
</g>
<!-- 32&#45;&gt;33 -->
<g id="edge33" class="edge"><title>32&#45;&gt;33</title>
<path fill="none" stroke="black" d="M1787,-504.884C1787,-496.778 1787,-487.982 1787,-479.472"/>
<polygon fill="black" stroke="black" points="1790.5,-479.299 1787,-469.299 1783.5,-479.299 1790.5,-479.299"/>
</g>
<!-- 38 -->
<g id="node39" class="node"><title>38</title>
<polygon fill="#47e539" fill-opacity="0.886275" stroke="black" points="2163,-469 1983,-469 1983,-401 2163,-401 2163,-469"/>
<text text-anchor="middle" x="2073" y="-453.8" font-family="Times,serif" font-size="14.00">Anticipation_NRC &lt;= 4.0321</text>
<text text-anchor="middle" x="2073" y="-438.8" font-family="Times,serif" font-size="14.00">samples = 28</text>
<text text-anchor="middle" x="2073" y="-423.8" font-family="Times,serif" font-size="14.00">value = [0, 25, 1, 2]</text>
<text text-anchor="middle" x="2073" y="-408.8" font-family="Times,serif" font-size="14.00">class = historical</text>
</g>
<!-- 32&#45;&gt;38 -->
<g id="edge38" class="edge"><title>32&#45;&gt;38</title>
<path fill="none" stroke="black" d="M1863.27,-510.8C1897.07,-498.746 1937.27,-484.406 1973.4,-471.521"/>
<polygon fill="black" stroke="black" points="1974.74,-474.761 1982.98,-468.105 1972.39,-468.168 1974.74,-474.761"/>
</g>
<!-- 34 -->
<g id="node35" class="node"><title>34</title>
<polygon fill="none" stroke="black" points="1791,-365 1617,-365 1617,-297 1791,-297 1791,-365"/>
<text text-anchor="middle" x="1704" y="-349.8" font-family="Times,serif" font-size="14.00">emotional_NRC &lt;= 69.4471</text>
<text text-anchor="middle" x="1704" y="-334.8" font-family="Times,serif" font-size="14.00">samples = 2</text>
<text text-anchor="middle" x="1704" y="-319.8" font-family="Times,serif" font-size="14.00">value = [0, 1, 0, 1]</text>
<text text-anchor="middle" x="1704" y="-304.8" font-family="Times,serif" font-size="14.00">class = historical</text>
</g>
<!-- 33&#45;&gt;34 -->
<g id="edge34" class="edge"><title>33&#45;&gt;34</title>
<path fill="none" stroke="black" d="M1760.05,-400.884C1752.88,-392.065 1745.04,-382.43 1737.55,-373.235"/>
<polygon fill="black" stroke="black" points="1740.12,-370.847 1731.1,-365.299 1734.69,-375.265 1740.12,-370.847"/>
</g>
<!-- 37 -->
<g id="node38" class="node"><title>37</title>
<polygon fill="#399de5" stroke="black" points="1931,-357.5 1809,-357.5 1809,-304.5 1931,-304.5 1931,-357.5"/>
<text text-anchor="middle" x="1870" y="-342.3" font-family="Times,serif" font-size="14.00">samples = 4</text>
<text text-anchor="middle" x="1870" y="-327.3" font-family="Times,serif" font-size="14.00">value = [0, 0, 4, 0]</text>
<text text-anchor="middle" x="1870" y="-312.3" font-family="Times,serif" font-size="14.00">class = sentimental</text>
</g>
<!-- 33&#45;&gt;37 -->
<g id="edge37" class="edge"><title>33&#45;&gt;37</title>
<path fill="none" stroke="black" d="M1813.95,-400.884C1823.17,-389.556 1833.48,-376.88 1842.72,-365.521"/>
<polygon fill="black" stroke="black" points="1845.64,-367.486 1849.23,-357.52 1840.21,-363.067 1845.64,-367.486"/>
</g>
<!-- 35 -->
<g id="node36" class="node"><title>35</title>
<polygon fill="#d739e5" stroke="black" points="1760.5,-253.5 1629.5,-253.5 1629.5,-200.5 1760.5,-200.5 1760.5,-253.5"/>
<text text-anchor="middle" x="1695" y="-238.3" font-family="Times,serif" font-size="14.00">samples = 1</text>
<text text-anchor="middle" x="1695" y="-223.3" font-family="Times,serif" font-size="14.00">value = [0, 0, 0, 1]</text>
<text text-anchor="middle" x="1695" y="-208.3" font-family="Times,serif" font-size="14.00">class = sociopolitical</text>
</g>
<!-- 34&#45;&gt;35 -->
<g id="edge35" class="edge"><title>34&#45;&gt;35</title>
<path fill="none" stroke="black" d="M1701.08,-296.884C1700.14,-286.216 1699.09,-274.352 1698.13,-263.519"/>
<polygon fill="black" stroke="black" points="1701.62,-263.174 1697.25,-253.52 1694.64,-263.789 1701.62,-263.174"/>
</g>
<!-- 36 -->
<g id="node37" class="node"><title>36</title>
<polygon fill="#47e539" stroke="black" points="1899,-253.5 1779,-253.5 1779,-200.5 1899,-200.5 1899,-253.5"/>
<text text-anchor="middle" x="1839" y="-238.3" font-family="Times,serif" font-size="14.00">samples = 1</text>
<text text-anchor="middle" x="1839" y="-223.3" font-family="Times,serif" font-size="14.00">value = [0, 1, 0, 0]</text>
<text text-anchor="middle" x="1839" y="-208.3" font-family="Times,serif" font-size="14.00">class = historical</text>
</g>
<!-- 34&#45;&gt;36 -->
<g id="edge36" class="edge"><title>34&#45;&gt;36</title>
<path fill="none" stroke="black" d="M1747.83,-296.884C1763.7,-284.896 1781.56,-271.399 1797.24,-259.549"/>
<polygon fill="black" stroke="black" points="1799.35,-262.341 1805.22,-253.52 1795.13,-256.756 1799.35,-262.341"/>
</g>
<!-- 39 -->
<g id="node40" class="node"><title>39</title>
<polygon fill="none" stroke="black" points="2180,-365 1966,-365 1966,-297 2180,-297 2180,-365"/>
<text text-anchor="middle" x="2073" y="-349.8" font-family="Times,serif" font-size="14.00">narrated_emotional_WN &lt;= 25.379</text>
<text text-anchor="middle" x="2073" y="-334.8" font-family="Times,serif" font-size="14.00">samples = 2</text>
<text text-anchor="middle" x="2073" y="-319.8" font-family="Times,serif" font-size="14.00">value = [0, 0, 1, 1]</text>
<text text-anchor="middle" x="2073" y="-304.8" font-family="Times,serif" font-size="14.00">class = sentimental</text>
</g>
<!-- 38&#45;&gt;39 -->
<g id="edge39" class="edge"><title>38&#45;&gt;39</title>
<path fill="none" stroke="black" d="M2073,-400.884C2073,-392.778 2073,-383.982 2073,-375.472"/>
<polygon fill="black" stroke="black" points="2076.5,-375.299 2073,-365.299 2069.5,-375.299 2076.5,-375.299"/>
</g>
<!-- 42 -->
<g id="node43" class="node"><title>42</title>
<polygon fill="#47e539" fill-opacity="0.960784" stroke="black" points="2338.5,-365 2207.5,-365 2207.5,-297 2338.5,-297 2338.5,-365"/>
<text text-anchor="middle" x="2273" y="-349.8" font-family="Times,serif" font-size="14.00">Joy_NRC &lt;= 0.4097</text>
<text text-anchor="middle" x="2273" y="-334.8" font-family="Times,serif" font-size="14.00">samples = 26</text>
<text text-anchor="middle" x="2273" y="-319.8" font-family="Times,serif" font-size="14.00">value = [0, 25, 0, 1]</text>
<text text-anchor="middle" x="2273" y="-304.8" font-family="Times,serif" font-size="14.00">class = historical</text>
</g>
<!-- 38&#45;&gt;42 -->
<g id="edge42" class="edge"><title>38&#45;&gt;42</title>
<path fill="none" stroke="black" d="M2137.93,-400.884C2157.42,-390.946 2178.94,-379.971 2198.97,-369.757"/>
<polygon fill="black" stroke="black" points="2200.73,-372.786 2208.05,-365.125 2197.55,-366.55 2200.73,-372.786"/>
</g>
<!-- 40 -->
<g id="node41" class="node"><title>40</title>
<polygon fill="#d739e5" stroke="black" points="2048.5,-253.5 1917.5,-253.5 1917.5,-200.5 2048.5,-200.5 2048.5,-253.5"/>
<text text-anchor="middle" x="1983" y="-238.3" font-family="Times,serif" font-size="14.00">samples = 1</text>
<text text-anchor="middle" x="1983" y="-223.3" font-family="Times,serif" font-size="14.00">value = [0, 0, 0, 1]</text>
<text text-anchor="middle" x="1983" y="-208.3" font-family="Times,serif" font-size="14.00">class = sociopolitical</text>
</g>
<!-- 39&#45;&gt;40 -->
<g id="edge40" class="edge"><title>39&#45;&gt;40</title>
<path fill="none" stroke="black" d="M2043.78,-296.884C2033.69,-285.446 2022.38,-272.634 2012.29,-261.19"/>
<polygon fill="black" stroke="black" points="2014.76,-258.703 2005.52,-253.52 2009.51,-263.334 2014.76,-258.703"/>
</g>
<!-- 41 -->
<g id="node42" class="node"><title>41</title>
<polygon fill="#399de5" stroke="black" points="2189,-253.5 2067,-253.5 2067,-200.5 2189,-200.5 2189,-253.5"/>
<text text-anchor="middle" x="2128" y="-238.3" font-family="Times,serif" font-size="14.00">samples = 1</text>
<text text-anchor="middle" x="2128" y="-223.3" font-family="Times,serif" font-size="14.00">value = [0, 0, 1, 0]</text>
<text text-anchor="middle" x="2128" y="-208.3" font-family="Times,serif" font-size="14.00">class = sentimental</text>
</g>
<!-- 39&#45;&gt;41 -->
<g id="edge41" class="edge"><title>39&#45;&gt;41</title>
<path fill="none" stroke="black" d="M2090.86,-296.884C2096.79,-285.886 2103.4,-273.617 2109.39,-262.517"/>
<polygon fill="black" stroke="black" points="2112.57,-263.983 2114.24,-253.52 2106.41,-260.661 2112.57,-263.983"/>
</g>
<!-- 43 -->
<g id="node44" class="node"><title>43</title>
<polygon fill="#d739e5" stroke="black" points="2338.5,-253.5 2207.5,-253.5 2207.5,-200.5 2338.5,-200.5 2338.5,-253.5"/>
<text text-anchor="middle" x="2273" y="-238.3" font-family="Times,serif" font-size="14.00">samples = 1</text>
<text text-anchor="middle" x="2273" y="-223.3" font-family="Times,serif" font-size="14.00">value = [0, 0, 0, 1]</text>
<text text-anchor="middle" x="2273" y="-208.3" font-family="Times,serif" font-size="14.00">class = sociopolitical</text>
</g>
<!-- 42&#45;&gt;43 -->
<g id="edge43" class="edge"><title>42&#45;&gt;43</title>
<path fill="none" stroke="black" d="M2273,-296.884C2273,-286.326 2273,-274.597 2273,-263.854"/>
<polygon fill="black" stroke="black" points="2276.5,-263.52 2273,-253.52 2269.5,-263.52 2276.5,-263.52"/>
</g>
<!-- 44 -->
<g id="node45" class="node"><title>44</title>
<polygon fill="#47e539" stroke="black" points="2483.5,-253.5 2356.5,-253.5 2356.5,-200.5 2483.5,-200.5 2483.5,-253.5"/>
<text text-anchor="middle" x="2420" y="-238.3" font-family="Times,serif" font-size="14.00">samples = 25</text>
<text text-anchor="middle" x="2420" y="-223.3" font-family="Times,serif" font-size="14.00">value = [0, 25, 0, 0]</text>
<text text-anchor="middle" x="2420" y="-208.3" font-family="Times,serif" font-size="14.00">class = historical</text>
</g>
<!-- 42&#45;&gt;44 -->
<g id="edge44" class="edge"><title>42&#45;&gt;44</title>
<path fill="none" stroke="black" d="M2320.73,-296.884C2338.16,-284.786 2357.81,-271.151 2375,-259.224"/>
<polygon fill="black" stroke="black" points="2377,-262.096 2383.22,-253.52 2373.01,-256.345 2377,-262.096"/>
</g>
</g>
</svg>
