<?xml version="1.0" encoding="UTF-8" standalone="no"?>
<!DOCTYPE svg PUBLIC "-//W3C//DTD SVG 1.1//EN"
 "http://www.w3.org/Graphics/SVG/1.1/DTD/svg11.dtd">
<!-- Generated by graphviz version 2.38.0 (20140413.2041)
 -->
<!-- Title: Tree Pages: 1 -->
<svg width="1333pt" height="477pt"
 viewBox="0.00 0.00 1332.50 477.00" xmlns="http://www.w3.org/2000/svg" xmlns:xlink="http://www.w3.org/1999/xlink">
<g id="graph0" class="graph" transform="scale(1 1) rotate(0) translate(4 473)">
<title>Tree</title>
<polygon fill="white" stroke="none" points="-4,4 -4,-473 1328.5,-473 1328.5,4 -4,4"/>
<!-- 0 -->
<g id="node1" class="node"><title>0</title>
<polygon fill="#39e581" fill-opacity="0.054902" stroke="black" points="975,-469 762,-469 762,-401 975,-401 975,-469"/>
<text text-anchor="middle" x="868.5" y="-453.8" font-family="Times,serif" font-size="14.00">speech_emotional_WN &lt;= 37.0743</text>
<text text-anchor="middle" x="868.5" y="-438.8" font-family="Times,serif" font-size="14.00">samples = 112</text>
<text text-anchor="middle" x="868.5" y="-423.8" font-family="Times,serif" font-size="14.00">value = [41, 45, 26]</text>
<text text-anchor="middle" x="868.5" y="-408.8" font-family="Times,serif" font-size="14.00">class = 0.5</text>
</g>
<!-- 1 -->
<g id="node2" class="node"><title>1</title>
<polygon fill="#39e581" fill-opacity="0.070588" stroke="black" points="808.5,-365 654.5,-365 654.5,-297 808.5,-297 808.5,-365"/>
<text text-anchor="middle" x="731.5" y="-349.8" font-family="Times,serif" font-size="14.00">negative_WN &lt;= 5.5874</text>
<text text-anchor="middle" x="731.5" y="-334.8" font-family="Times,serif" font-size="14.00">samples = 75</text>
<text text-anchor="middle" x="731.5" y="-319.8" font-family="Times,serif" font-size="14.00">value = [33, 36, 6]</text>
<text text-anchor="middle" x="731.5" y="-304.8" font-family="Times,serif" font-size="14.00">class = 0.5</text>
</g>
<!-- 0&#45;&gt;1 -->
<g id="edge1" class="edge"><title>0&#45;&gt;1</title>
<path fill="none" stroke="black" d="M824.02,-400.884C811.338,-391.442 797.399,-381.064 784.274,-371.292"/>
<polygon fill="black" stroke="black" points="786.337,-368.464 776.226,-365.299 782.156,-374.079 786.337,-368.464"/>
<text text-anchor="middle" x="779.848" y="-386.336" font-family="Times,serif" font-size="14.00">True</text>
</g>
<!-- 16 -->
<g id="node17" class="node"><title>16</title>
<polygon fill="#8139e5" fill-opacity="0.392157" stroke="black" points="1104.5,-365 908.5,-365 908.5,-297 1104.5,-297 1104.5,-365"/>
<text text-anchor="middle" x="1006.5" y="-349.8" font-family="Times,serif" font-size="14.00">speech_neutral_WN &lt;= 28.1496</text>
<text text-anchor="middle" x="1006.5" y="-334.8" font-family="Times,serif" font-size="14.00">samples = 37</text>
<text text-anchor="middle" x="1006.5" y="-319.8" font-family="Times,serif" font-size="14.00">value = [8, 9, 20]</text>
<text text-anchor="middle" x="1006.5" y="-304.8" font-family="Times,serif" font-size="14.00">class = 1.0</text>
</g>
<!-- 0&#45;&gt;16 -->
<g id="edge16" class="edge"><title>0&#45;&gt;16</title>
<path fill="none" stroke="black" d="M913.305,-400.884C926.079,-391.442 940.12,-381.064 953.341,-371.292"/>
<polygon fill="black" stroke="black" points="955.487,-374.058 961.448,-365.299 951.326,-368.429 955.487,-374.058"/>
<text text-anchor="middle" x="957.739" y="-386.323" font-family="Times,serif" font-size="14.00">False</text>
</g>
<!-- 2 -->
<g id="node3" class="node"><title>2</title>
<polygon fill="#e58139" fill-opacity="0.364706" stroke="black" points="489.5,-261 331.5,-261 331.5,-193 489.5,-193 489.5,-261"/>
<text text-anchor="middle" x="410.5" y="-245.8" font-family="Times,serif" font-size="14.00">positive_WN &lt;= 10.3947</text>
<text text-anchor="middle" x="410.5" y="-230.8" font-family="Times,serif" font-size="14.00">samples = 51</text>
<text text-anchor="middle" x="410.5" y="-215.8" font-family="Times,serif" font-size="14.00">value = [30, 18, 3]</text>
<text text-anchor="middle" x="410.5" y="-200.8" font-family="Times,serif" font-size="14.00">class = 0.0</text>
</g>
<!-- 1&#45;&gt;2 -->
<g id="edge2" class="edge"><title>1&#45;&gt;2</title>
<path fill="none" stroke="black" d="M654.204,-305.439C607.506,-290.6 547.82,-271.634 499.204,-256.186"/>
<polygon fill="black" stroke="black" points="500.226,-252.839 489.636,-253.146 498.106,-259.51 500.226,-252.839"/>
</g>
<!-- 9 -->
<g id="node10" class="node"><title>9</title>
<polygon fill="#39e581" fill-opacity="0.713725" stroke="black" points="830,-261 633,-261 633,-193 830,-193 830,-261"/>
<text text-anchor="middle" x="731.5" y="-245.8" font-family="Times,serif" font-size="14.00">narrated_neutral_WN &lt;= 4.4136</text>
<text text-anchor="middle" x="731.5" y="-230.8" font-family="Times,serif" font-size="14.00">samples = 24</text>
<text text-anchor="middle" x="731.5" y="-215.8" font-family="Times,serif" font-size="14.00">value = [3, 18, 3]</text>
<text text-anchor="middle" x="731.5" y="-200.8" font-family="Times,serif" font-size="14.00">class = 0.5</text>
</g>
<!-- 1&#45;&gt;9 -->
<g id="edge9" class="edge"><title>1&#45;&gt;9</title>
<path fill="none" stroke="black" d="M731.5,-296.884C731.5,-288.778 731.5,-279.982 731.5,-271.472"/>
<polygon fill="black" stroke="black" points="735,-271.299 731.5,-261.299 728,-271.299 735,-271.299"/>
</g>
<!-- 3 -->
<g id="node4" class="node"><title>3</title>
<polygon fill="#e58139" fill-opacity="0.611765" stroke="black" points="282,-157 93,-157 93,-89 282,-89 282,-157"/>
<text text-anchor="middle" x="187.5" y="-141.8" font-family="Times,serif" font-size="14.00">speech_neutral_WN &lt;= 7.6155</text>
<text text-anchor="middle" x="187.5" y="-126.8" font-family="Times,serif" font-size="14.00">samples = 41</text>
<text text-anchor="middle" x="187.5" y="-111.8" font-family="Times,serif" font-size="14.00">value = [29, 10, 2]</text>
<text text-anchor="middle" x="187.5" y="-96.8" font-family="Times,serif" font-size="14.00">class = 0.0</text>
</g>
<!-- 2&#45;&gt;3 -->
<g id="edge3" class="edge"><title>2&#45;&gt;3</title>
<path fill="none" stroke="black" d="M338.098,-192.884C316.078,-182.812 291.729,-171.674 269.144,-161.344"/>
<polygon fill="black" stroke="black" points="270.469,-158.101 259.92,-157.125 267.558,-164.467 270.469,-158.101"/>
</g>
<!-- 6 -->
<g id="node7" class="node"><title>6</title>
<polygon fill="#39e581" fill-opacity="0.776471" stroke="black" points="521,-157 300,-157 300,-89 521,-89 521,-157"/>
<text text-anchor="middle" x="410.5" y="-141.8" font-family="Times,serif" font-size="14.00">narrated_emotional_WN &lt;= 76.3641</text>
<text text-anchor="middle" x="410.5" y="-126.8" font-family="Times,serif" font-size="14.00">samples = 10</text>
<text text-anchor="middle" x="410.5" y="-111.8" font-family="Times,serif" font-size="14.00">value = [1, 8, 1]</text>
<text text-anchor="middle" x="410.5" y="-96.8" font-family="Times,serif" font-size="14.00">class = 0.5</text>
</g>
<!-- 2&#45;&gt;6 -->
<g id="edge6" class="edge"><title>2&#45;&gt;6</title>
<path fill="none" stroke="black" d="M410.5,-192.884C410.5,-184.778 410.5,-175.982 410.5,-167.472"/>
<polygon fill="black" stroke="black" points="414,-167.299 410.5,-157.299 407,-167.299 414,-167.299"/>
</g>
<!-- 4 -->
<g id="node5" class="node"><title>4</title>
<polygon fill="#e58139" fill-opacity="0.937255" stroke="black" points="113,-53 0,-53 0,-0 113,-0 113,-53"/>
<text text-anchor="middle" x="56.5" y="-37.8" font-family="Times,serif" font-size="14.00">samples = 17</text>
<text text-anchor="middle" x="56.5" y="-22.8" font-family="Times,serif" font-size="14.00">value = [16, 0, 1]</text>
<text text-anchor="middle" x="56.5" y="-7.8" font-family="Times,serif" font-size="14.00">class = 0.0</text>
</g>
<!-- 3&#45;&gt;4 -->
<g id="edge4" class="edge"><title>3&#45;&gt;4</title>
<path fill="none" stroke="black" d="M141.683,-88.9485C128.367,-79.3431 113.855,-68.8747 100.645,-59.345"/>
<polygon fill="black" stroke="black" points="102.335,-56.2486 92.1773,-53.2367 98.2398,-61.9257 102.335,-56.2486"/>
</g>
<!-- 5 -->
<g id="node6" class="node"><title>5</title>
<polygon fill="#e58139" fill-opacity="0.215686" stroke="black" points="250,-53 131,-53 131,-0 250,-0 250,-53"/>
<text text-anchor="middle" x="190.5" y="-37.8" font-family="Times,serif" font-size="14.00">samples = 24</text>
<text text-anchor="middle" x="190.5" y="-22.8" font-family="Times,serif" font-size="14.00">value = [13, 10, 1]</text>
<text text-anchor="middle" x="190.5" y="-7.8" font-family="Times,serif" font-size="14.00">class = 0.0</text>
</g>
<!-- 3&#45;&gt;5 -->
<g id="edge5" class="edge"><title>3&#45;&gt;5</title>
<path fill="none" stroke="black" d="M188.549,-88.9485C188.811,-80.7153 189.092,-71.848 189.358,-63.4814"/>
<polygon fill="black" stroke="black" points="192.864,-63.3428 189.683,-53.2367 185.867,-63.1206 192.864,-63.3428"/>
</g>
<!-- 7 -->
<g id="node8" class="node"><title>7</title>
<polygon fill="#39e581" fill-opacity="0.874510" stroke="black" points="393.5,-53 287.5,-53 287.5,-0 393.5,-0 393.5,-53"/>
<text text-anchor="middle" x="340.5" y="-37.8" font-family="Times,serif" font-size="14.00">samples = 9</text>
<text text-anchor="middle" x="340.5" y="-22.8" font-family="Times,serif" font-size="14.00">value = [1, 8, 0]</text>
<text text-anchor="middle" x="340.5" y="-7.8" font-family="Times,serif" font-size="14.00">class = 0.5</text>
</g>
<!-- 6&#45;&gt;7 -->
<g id="edge7" class="edge"><title>6&#45;&gt;7</title>
<path fill="none" stroke="black" d="M386.017,-88.9485C379.444,-80.0749 372.326,-70.4648 365.714,-61.5388"/>
<polygon fill="black" stroke="black" points="368.329,-59.189 359.564,-53.2367 362.704,-63.3556 368.329,-59.189"/>
</g>
<!-- 8 -->
<g id="node9" class="node"><title>8</title>
<polygon fill="#8139e5" stroke="black" points="517.5,-53 411.5,-53 411.5,-0 517.5,-0 517.5,-53"/>
<text text-anchor="middle" x="464.5" y="-37.8" font-family="Times,serif" font-size="14.00">samples = 1</text>
<text text-anchor="middle" x="464.5" y="-22.8" font-family="Times,serif" font-size="14.00">value = [0, 0, 1]</text>
<text text-anchor="middle" x="464.5" y="-7.8" font-family="Times,serif" font-size="14.00">class = 1.0</text>
</g>
<!-- 6&#45;&gt;8 -->
<g id="edge8" class="edge"><title>6&#45;&gt;8</title>
<path fill="none" stroke="black" d="M429.387,-88.9485C434.353,-80.2579 439.722,-70.8608 444.733,-62.0917"/>
<polygon fill="black" stroke="black" points="447.871,-63.6557 449.793,-53.2367 441.793,-60.1826 447.871,-63.6557"/>
</g>
<!-- 10 -->
<g id="node11" class="node"><title>10</title>
<polygon fill="#e58139" fill-opacity="0.250980" stroke="black" points="760,-157 539,-157 539,-89 760,-89 760,-157"/>
<text text-anchor="middle" x="649.5" y="-141.8" font-family="Times,serif" font-size="14.00">narrated_emotional_WN &lt;= 65.1786</text>
<text text-anchor="middle" x="649.5" y="-126.8" font-family="Times,serif" font-size="14.00">samples = 6</text>
<text text-anchor="middle" x="649.5" y="-111.8" font-family="Times,serif" font-size="14.00">value = [3, 1, 2]</text>
<text text-anchor="middle" x="649.5" y="-96.8" font-family="Times,serif" font-size="14.00">class = 0.0</text>
</g>
<!-- 9&#45;&gt;10 -->
<g id="edge10" class="edge"><title>9&#45;&gt;10</title>
<path fill="none" stroke="black" d="M704.877,-192.884C697.788,-184.065 690.042,-174.43 682.65,-165.235"/>
<polygon fill="black" stroke="black" points="685.264,-162.9 676.27,-157.299 679.808,-167.286 685.264,-162.9"/>
</g>
<!-- 13 -->
<g id="node14" class="node"><title>13</title>
<polygon fill="#39e581" fill-opacity="0.941176" stroke="black" points="935.5,-157 777.5,-157 777.5,-89 935.5,-89 935.5,-157"/>
<text text-anchor="middle" x="856.5" y="-141.8" font-family="Times,serif" font-size="14.00">positive_WN &lt;= 13.4559</text>
<text text-anchor="middle" x="856.5" y="-126.8" font-family="Times,serif" font-size="14.00">samples = 18</text>
<text text-anchor="middle" x="856.5" y="-111.8" font-family="Times,serif" font-size="14.00">value = [0, 17, 1]</text>
<text text-anchor="middle" x="856.5" y="-96.8" font-family="Times,serif" font-size="14.00">class = 0.5</text>
</g>
<!-- 9&#45;&gt;13 -->
<g id="edge13" class="edge"><title>9&#45;&gt;13</title>
<path fill="none" stroke="black" d="M772.084,-192.884C783.436,-183.62 795.894,-173.455 807.67,-163.845"/>
<polygon fill="black" stroke="black" points="810.157,-166.333 815.692,-157.299 805.731,-160.91 810.157,-166.333"/>
</g>
<!-- 11 -->
<g id="node12" class="node"><title>11</title>
<polygon fill="#8139e5" fill-opacity="0.498039" stroke="black" points="650.5,-53 544.5,-53 544.5,-0 650.5,-0 650.5,-53"/>
<text text-anchor="middle" x="597.5" y="-37.8" font-family="Times,serif" font-size="14.00">samples = 3</text>
<text text-anchor="middle" x="597.5" y="-22.8" font-family="Times,serif" font-size="14.00">value = [0, 1, 2]</text>
<text text-anchor="middle" x="597.5" y="-7.8" font-family="Times,serif" font-size="14.00">class = 1.0</text>
</g>
<!-- 10&#45;&gt;11 -->
<g id="edge11" class="edge"><title>10&#45;&gt;11</title>
<path fill="none" stroke="black" d="M631.313,-88.9485C626.531,-80.2579 621.36,-70.8608 616.535,-62.0917"/>
<polygon fill="black" stroke="black" points="619.549,-60.3105 611.662,-53.2367 613.417,-63.6853 619.549,-60.3105"/>
</g>
<!-- 12 -->
<g id="node13" class="node"><title>12</title>
<polygon fill="#e58139" stroke="black" points="774.5,-53 668.5,-53 668.5,-0 774.5,-0 774.5,-53"/>
<text text-anchor="middle" x="721.5" y="-37.8" font-family="Times,serif" font-size="14.00">samples = 3</text>
<text text-anchor="middle" x="721.5" y="-22.8" font-family="Times,serif" font-size="14.00">value = [3, 0, 0]</text>
<text text-anchor="middle" x="721.5" y="-7.8" font-family="Times,serif" font-size="14.00">class = 0.0</text>
</g>
<!-- 10&#45;&gt;12 -->
<g id="edge12" class="edge"><title>10&#45;&gt;12</title>
<path fill="none" stroke="black" d="M674.682,-88.9485C681.513,-79.9834 688.916,-70.2666 695.776,-61.2629"/>
<polygon fill="black" stroke="black" points="698.615,-63.3122 701.891,-53.2367 693.047,-59.0699 698.615,-63.3122"/>
</g>
<!-- 14 -->
<g id="node15" class="node"><title>14</title>
<polygon fill="#39e581" stroke="black" points="911,-53 798,-53 798,-0 911,-0 911,-53"/>
<text text-anchor="middle" x="854.5" y="-37.8" font-family="Times,serif" font-size="14.00">samples = 16</text>
<text text-anchor="middle" x="854.5" y="-22.8" font-family="Times,serif" font-size="14.00">value = [0, 16, 0]</text>
<text text-anchor="middle" x="854.5" y="-7.8" font-family="Times,serif" font-size="14.00">class = 0.5</text>
</g>
<!-- 13&#45;&gt;14 -->
<g id="edge14" class="edge"><title>13&#45;&gt;14</title>
<path fill="none" stroke="black" d="M855.8,-88.9485C855.626,-80.7153 855.439,-71.848 855.262,-63.4814"/>
<polygon fill="black" stroke="black" points="858.756,-63.1604 855.045,-53.2367 851.757,-63.3086 858.756,-63.1604"/>
</g>
<!-- 15 -->
<g id="node16" class="node"><title>15</title>
<polygon fill="none" stroke="black" points="1035.5,-53 929.5,-53 929.5,-0 1035.5,-0 1035.5,-53"/>
<text text-anchor="middle" x="982.5" y="-37.8" font-family="Times,serif" font-size="14.00">samples = 2</text>
<text text-anchor="middle" x="982.5" y="-22.8" font-family="Times,serif" font-size="14.00">value = [0, 1, 1]</text>
<text text-anchor="middle" x="982.5" y="-7.8" font-family="Times,serif" font-size="14.00">class = 0.5</text>
</g>
<!-- 13&#45;&gt;15 -->
<g id="edge15" class="edge"><title>13&#45;&gt;15</title>
<path fill="none" stroke="black" d="M900.569,-88.9485C913.376,-79.3431 927.334,-68.8747 940.04,-59.345"/>
<polygon fill="black" stroke="black" points="942.284,-62.0368 948.184,-53.2367 938.084,-56.4367 942.284,-62.0368"/>
</g>
<!-- 17 -->
<g id="node18" class="node"><title>17</title>
<polygon fill="#8139e5" fill-opacity="0.458824" stroke="black" points="1067.5,-261 945.5,-261 945.5,-193 1067.5,-193 1067.5,-261"/>
<text text-anchor="middle" x="1006.5" y="-245.8" font-family="Times,serif" font-size="14.00">speech &lt;= 47.4861</text>
<text text-anchor="middle" x="1006.5" y="-230.8" font-family="Times,serif" font-size="14.00">samples = 33</text>
<text text-anchor="middle" x="1006.5" y="-215.8" font-family="Times,serif" font-size="14.00">value = [4, 9, 20]</text>
<text text-anchor="middle" x="1006.5" y="-200.8" font-family="Times,serif" font-size="14.00">class = 1.0</text>
</g>
<!-- 16&#45;&gt;17 -->
<g id="edge17" class="edge"><title>16&#45;&gt;17</title>
<path fill="none" stroke="black" d="M1006.5,-296.884C1006.5,-288.778 1006.5,-279.982 1006.5,-271.472"/>
<polygon fill="black" stroke="black" points="1010,-271.299 1006.5,-261.299 1003,-271.299 1010,-271.299"/>
</g>
<!-- 22 -->
<g id="node23" class="node"><title>22</title>
<polygon fill="#e58139" stroke="black" points="1191.5,-253.5 1085.5,-253.5 1085.5,-200.5 1191.5,-200.5 1191.5,-253.5"/>
<text text-anchor="middle" x="1138.5" y="-238.3" font-family="Times,serif" font-size="14.00">samples = 4</text>
<text text-anchor="middle" x="1138.5" y="-223.3" font-family="Times,serif" font-size="14.00">value = [4, 0, 0]</text>
<text text-anchor="middle" x="1138.5" y="-208.3" font-family="Times,serif" font-size="14.00">class = 0.0</text>
</g>
<!-- 16&#45;&gt;22 -->
<g id="edge22" class="edge"><title>16&#45;&gt;22</title>
<path fill="none" stroke="black" d="M1049.36,-296.884C1064.73,-285.006 1082.02,-271.646 1097.25,-259.876"/>
<polygon fill="black" stroke="black" points="1099.7,-262.404 1105.47,-253.52 1095.42,-256.865 1099.7,-262.404"/>
</g>
<!-- 18 -->
<g id="node19" class="node"><title>18</title>
<polygon fill="#39e581" stroke="black" points="1059.5,-149.5 953.5,-149.5 953.5,-96.5 1059.5,-96.5 1059.5,-149.5"/>
<text text-anchor="middle" x="1006.5" y="-134.3" font-family="Times,serif" font-size="14.00">samples = 3</text>
<text text-anchor="middle" x="1006.5" y="-119.3" font-family="Times,serif" font-size="14.00">value = [0, 3, 0]</text>
<text text-anchor="middle" x="1006.5" y="-104.3" font-family="Times,serif" font-size="14.00">class = 0.5</text>
</g>
<!-- 17&#45;&gt;18 -->
<g id="edge18" class="edge"><title>17&#45;&gt;18</title>
<path fill="none" stroke="black" d="M1006.5,-192.884C1006.5,-182.326 1006.5,-170.597 1006.5,-159.854"/>
<polygon fill="black" stroke="black" points="1010,-159.52 1006.5,-149.52 1003,-159.52 1010,-159.52"/>
</g>
<!-- 19 -->
<g id="node20" class="node"><title>19</title>
<polygon fill="#8139e5" fill-opacity="0.584314" stroke="black" points="1273.5,-157 1077.5,-157 1077.5,-89 1273.5,-89 1273.5,-157"/>
<text text-anchor="middle" x="1175.5" y="-141.8" font-family="Times,serif" font-size="14.00">speech_neutral_WN &lt;= 24.1195</text>
<text text-anchor="middle" x="1175.5" y="-126.8" font-family="Times,serif" font-size="14.00">samples = 30</text>
<text text-anchor="middle" x="1175.5" y="-111.8" font-family="Times,serif" font-size="14.00">value = [4, 6, 20]</text>
<text text-anchor="middle" x="1175.5" y="-96.8" font-family="Times,serif" font-size="14.00">class = 1.0</text>
</g>
<!-- 17&#45;&gt;19 -->
<g id="edge19" class="edge"><title>17&#45;&gt;19</title>
<path fill="none" stroke="black" d="M1061.37,-192.884C1077.54,-183.125 1095.36,-172.366 1112.03,-162.31"/>
<polygon fill="black" stroke="black" points="1113.86,-165.289 1120.62,-157.125 1110.25,-159.296 1113.86,-165.289"/>
</g>
<!-- 20 -->
<g id="node21" class="node"><title>20</title>
<polygon fill="#8139e5" fill-opacity="0.666667" stroke="black" points="1200,-53 1087,-53 1087,-0 1200,-0 1200,-53"/>
<text text-anchor="middle" x="1143.5" y="-37.8" font-family="Times,serif" font-size="14.00">samples = 28</text>
<text text-anchor="middle" x="1143.5" y="-22.8" font-family="Times,serif" font-size="14.00">value = [4, 4, 20]</text>
<text text-anchor="middle" x="1143.5" y="-7.8" font-family="Times,serif" font-size="14.00">class = 1.0</text>
</g>
<!-- 19&#45;&gt;20 -->
<g id="edge20" class="edge"><title>19&#45;&gt;20</title>
<path fill="none" stroke="black" d="M1164.31,-88.9485C1161.46,-80.5323 1158.38,-71.4536 1155.5,-62.9243"/>
<polygon fill="black" stroke="black" points="1158.74,-61.5858 1152.22,-53.2367 1152.11,-63.831 1158.74,-61.5858"/>
</g>
<!-- 21 -->
<g id="node22" class="node"><title>21</title>
<polygon fill="#39e581" stroke="black" points="1324.5,-53 1218.5,-53 1218.5,-0 1324.5,-0 1324.5,-53"/>
<text text-anchor="middle" x="1271.5" y="-37.8" font-family="Times,serif" font-size="14.00">samples = 2</text>
<text text-anchor="middle" x="1271.5" y="-22.8" font-family="Times,serif" font-size="14.00">value = [0, 2, 0]</text>
<text text-anchor="middle" x="1271.5" y="-7.8" font-family="Times,serif" font-size="14.00">class = 0.5</text>
</g>
<!-- 19&#45;&gt;21 -->
<g id="edge21" class="edge"><title>19&#45;&gt;21</title>
<path fill="none" stroke="black" d="M1209.08,-88.9485C1218.46,-79.709 1228.66,-69.671 1238.04,-60.4381"/>
<polygon fill="black" stroke="black" points="1240.68,-62.7462 1245.35,-53.2367 1235.77,-57.7576 1240.68,-62.7462"/>
</g>
</g>
</svg>
