<?xml version="1.0" encoding="UTF-8" standalone="no"?>
<!DOCTYPE svg PUBLIC "-//W3C//DTD SVG 1.1//EN"
 "http://www.w3.org/Graphics/SVG/1.1/DTD/svg11.dtd">
<!-- Generated by graphviz version 2.38.0 (20140413.2041)
 -->
<!-- Title: Tree Pages: 1 -->
<svg width="2369pt" height="581pt"
 viewBox="0.00 0.00 2369.00 581.00" xmlns="http://www.w3.org/2000/svg" xmlns:xlink="http://www.w3.org/1999/xlink">
<g id="graph0" class="graph" transform="scale(1 1) rotate(0) translate(4 577)">
<title>Tree</title>
<polygon fill="white" stroke="none" points="-4,4 -4,-577 2365,-577 2365,4 -4,4"/>
<!-- 0 -->
<g id="node1" class="node"><title>0</title>
<polygon fill="#399de5" fill-opacity="0.047059" stroke="black" points="1077.5,-573 874.5,-573 874.5,-505 1077.5,-505 1077.5,-573"/>
<text text-anchor="middle" x="976" y="-557.8" font-family="Times,serif" font-size="14.00">narrated_neutral_WN &lt;= 32.3925</text>
<text text-anchor="middle" x="976" y="-542.8" font-family="Times,serif" font-size="14.00">samples = 112</text>
<text text-anchor="middle" x="976" y="-527.8" font-family="Times,serif" font-size="14.00">value = [22, 30, 34, 26]</text>
<text text-anchor="middle" x="976" y="-512.8" font-family="Times,serif" font-size="14.00">class = sentimental</text>
</g>
<!-- 1 -->
<g id="node2" class="node"><title>1</title>
<polygon fill="#399de5" fill-opacity="0.627451" stroke="black" points="942,-469 746,-469 746,-401 942,-401 942,-469"/>
<text text-anchor="middle" x="844" y="-453.8" font-family="Times,serif" font-size="14.00">speech_neutral_WN &lt;= 65.7407</text>
<text text-anchor="middle" x="844" y="-438.8" font-family="Times,serif" font-size="14.00">samples = 40</text>
<text text-anchor="middle" x="844" y="-423.8" font-family="Times,serif" font-size="14.00">value = [5, 5, 27, 3]</text>
<text text-anchor="middle" x="844" y="-408.8" font-family="Times,serif" font-size="14.00">class = sentimental</text>
</g>
<!-- 0&#45;&gt;1 -->
<g id="edge1" class="edge"><title>0&#45;&gt;1</title>
<path fill="none" stroke="black" d="M933.143,-504.884C921.04,-495.531 907.747,-485.259 895.206,-475.568"/>
<polygon fill="black" stroke="black" points="897.146,-472.644 887.093,-469.299 892.866,-478.183 897.146,-472.644"/>
<text text-anchor="middle" x="890.272" y="-490.396" font-family="Times,serif" font-size="14.00">True</text>
</g>
<!-- 20 -->
<g id="node21" class="node"><title>20</title>
<polygon fill="#47e539" fill-opacity="0.039216" stroke="black" points="1186,-469 1032,-469 1032,-401 1186,-401 1186,-469"/>
<text text-anchor="middle" x="1109" y="-453.8" font-family="Times,serif" font-size="14.00">negative_WN &lt;= 2.5572</text>
<text text-anchor="middle" x="1109" y="-438.8" font-family="Times,serif" font-size="14.00">samples = 72</text>
<text text-anchor="middle" x="1109" y="-423.8" font-family="Times,serif" font-size="14.00">value = [17, 25, 7, 23]</text>
<text text-anchor="middle" x="1109" y="-408.8" font-family="Times,serif" font-size="14.00">class = historical</text>
</g>
<!-- 0&#45;&gt;20 -->
<g id="edge20" class="edge"><title>0&#45;&gt;20</title>
<path fill="none" stroke="black" d="M1019.18,-504.884C1031.38,-495.531 1044.77,-485.259 1057.41,-475.568"/>
<polygon fill="black" stroke="black" points="1059.78,-478.162 1065.58,-469.299 1055.52,-472.608 1059.78,-478.162"/>
<text text-anchor="middle" x="1062.31" y="-490.385" font-family="Times,serif" font-size="14.00">False</text>
</g>
<!-- 2 -->
<g id="node3" class="node"><title>2</title>
<polygon fill="#399de5" fill-opacity="0.678431" stroke="black" points="620,-365 420,-365 420,-297 620,-297 620,-365"/>
<text text-anchor="middle" x="520" y="-349.8" font-family="Times,serif" font-size="14.00">speech_emotional_WN &lt;= 9.049</text>
<text text-anchor="middle" x="520" y="-334.8" font-family="Times,serif" font-size="14.00">samples = 36</text>
<text text-anchor="middle" x="520" y="-319.8" font-family="Times,serif" font-size="14.00">value = [5, 5, 26, 0]</text>
<text text-anchor="middle" x="520" y="-304.8" font-family="Times,serif" font-size="14.00">class = sentimental</text>
</g>
<!-- 1&#45;&gt;2 -->
<g id="edge2" class="edge"><title>1&#45;&gt;2</title>
<path fill="none" stroke="black" d="M745.91,-403.12C709.407,-391.628 667.748,-378.513 630.229,-366.702"/>
<polygon fill="black" stroke="black" points="630.866,-363.233 620.277,-363.569 628.764,-369.91 630.866,-363.233"/>
</g>
<!-- 15 -->
<g id="node16" class="node"><title>15</title>
<polygon fill="#d739e5" fill-opacity="0.666667" stroke="black" points="951,-365 737,-365 737,-297 951,-297 951,-365"/>
<text text-anchor="middle" x="844" y="-349.8" font-family="Times,serif" font-size="14.00">narrated_emotional_WN &lt;= 8.3977</text>
<text text-anchor="middle" x="844" y="-334.8" font-family="Times,serif" font-size="14.00">samples = 4</text>
<text text-anchor="middle" x="844" y="-319.8" font-family="Times,serif" font-size="14.00">value = [0, 0, 1, 3]</text>
<text text-anchor="middle" x="844" y="-304.8" font-family="Times,serif" font-size="14.00">class = sociopolitical</text>
</g>
<!-- 1&#45;&gt;15 -->
<g id="edge15" class="edge"><title>1&#45;&gt;15</title>
<path fill="none" stroke="black" d="M844,-400.884C844,-392.778 844,-383.982 844,-375.472"/>
<polygon fill="black" stroke="black" points="847.5,-375.299 844,-365.299 840.5,-375.299 847.5,-375.299"/>
</g>
<!-- 3 -->
<g id="node4" class="node"><title>3</title>
<polygon fill="#e58139" fill-opacity="0.333333" stroke="black" points="314,-261 118,-261 118,-193 314,-193 314,-261"/>
<text text-anchor="middle" x="216" y="-245.8" font-family="Times,serif" font-size="14.00">speech_neutral_WN &lt;= 32.6612</text>
<text text-anchor="middle" x="216" y="-230.8" font-family="Times,serif" font-size="14.00">samples = 5</text>
<text text-anchor="middle" x="216" y="-215.8" font-family="Times,serif" font-size="14.00">value = [3, 0, 2, 0]</text>
<text text-anchor="middle" x="216" y="-200.8" font-family="Times,serif" font-size="14.00">class = costumbrista</text>
</g>
<!-- 2&#45;&gt;3 -->
<g id="edge3" class="edge"><title>2&#45;&gt;3</title>
<path fill="none" stroke="black" d="M421.3,-296.884C390.191,-286.446 355.671,-274.863 323.952,-264.221"/>
<polygon fill="black" stroke="black" points="324.799,-260.813 314.205,-260.95 322.572,-267.45 324.799,-260.813"/>
</g>
<!-- 8 -->
<g id="node9" class="node"><title>8</title>
<polygon fill="#399de5" fill-opacity="0.729412" stroke="black" points="599,-261 441,-261 441,-193 599,-193 599,-261"/>
<text text-anchor="middle" x="520" y="-245.8" font-family="Times,serif" font-size="14.00">positive_WN &lt;= 14.3267</text>
<text text-anchor="middle" x="520" y="-230.8" font-family="Times,serif" font-size="14.00">samples = 31</text>
<text text-anchor="middle" x="520" y="-215.8" font-family="Times,serif" font-size="14.00">value = [2, 5, 24, 0]</text>
<text text-anchor="middle" x="520" y="-200.8" font-family="Times,serif" font-size="14.00">class = sentimental</text>
</g>
<!-- 2&#45;&gt;8 -->
<g id="edge8" class="edge"><title>2&#45;&gt;8</title>
<path fill="none" stroke="black" d="M520,-296.884C520,-288.778 520,-279.982 520,-271.472"/>
<polygon fill="black" stroke="black" points="523.5,-271.299 520,-261.299 516.5,-271.299 523.5,-271.299"/>
</g>
<!-- 4 -->
<g id="node5" class="node"><title>4</title>
<polygon fill="#399de5" stroke="black" points="122,-149.5 -7.10543e-15,-149.5 -7.10543e-15,-96.5 122,-96.5 122,-149.5"/>
<text text-anchor="middle" x="61" y="-134.3" font-family="Times,serif" font-size="14.00">samples = 1</text>
<text text-anchor="middle" x="61" y="-119.3" font-family="Times,serif" font-size="14.00">value = [0, 0, 1, 0]</text>
<text text-anchor="middle" x="61" y="-104.3" font-family="Times,serif" font-size="14.00">class = sentimental</text>
</g>
<!-- 3&#45;&gt;4 -->
<g id="edge4" class="edge"><title>3&#45;&gt;4</title>
<path fill="none" stroke="black" d="M165.676,-192.884C147.292,-180.786 126.573,-167.151 108.448,-155.224"/>
<polygon fill="black" stroke="black" points="110.058,-152.093 99.7803,-149.52 106.21,-157.941 110.058,-152.093"/>
</g>
<!-- 5 -->
<g id="node6" class="node"><title>5</title>
<polygon fill="#e58139" fill-opacity="0.666667" stroke="black" points="292,-157 140,-157 140,-89 292,-89 292,-157"/>
<text text-anchor="middle" x="216" y="-141.8" font-family="Times,serif" font-size="14.00">neutral_WN &lt;= 78.3951</text>
<text text-anchor="middle" x="216" y="-126.8" font-family="Times,serif" font-size="14.00">samples = 4</text>
<text text-anchor="middle" x="216" y="-111.8" font-family="Times,serif" font-size="14.00">value = [3, 0, 1, 0]</text>
<text text-anchor="middle" x="216" y="-96.8" font-family="Times,serif" font-size="14.00">class = costumbrista</text>
</g>
<!-- 3&#45;&gt;5 -->
<g id="edge5" class="edge"><title>3&#45;&gt;5</title>
<path fill="none" stroke="black" d="M216,-192.884C216,-184.778 216,-175.982 216,-167.472"/>
<polygon fill="black" stroke="black" points="219.5,-167.299 216,-157.299 212.5,-167.299 219.5,-167.299"/>
</g>
<!-- 6 -->
<g id="node7" class="node"><title>6</title>
<polygon fill="#e58139" stroke="black" points="137,-53 9,-53 9,-0 137,-0 137,-53"/>
<text text-anchor="middle" x="73" y="-37.8" font-family="Times,serif" font-size="14.00">samples = 3</text>
<text text-anchor="middle" x="73" y="-22.8" font-family="Times,serif" font-size="14.00">value = [3, 0, 0, 0]</text>
<text text-anchor="middle" x="73" y="-7.8" font-family="Times,serif" font-size="14.00">class = costumbrista</text>
</g>
<!-- 5&#45;&gt;6 -->
<g id="edge6" class="edge"><title>5&#45;&gt;6</title>
<path fill="none" stroke="black" d="M165.986,-88.9485C151.174,-79.1601 135.005,-68.4756 120.366,-58.8015"/>
<polygon fill="black" stroke="black" points="122.218,-55.83 111.945,-53.2367 118.359,-61.6701 122.218,-55.83"/>
</g>
<!-- 7 -->
<g id="node8" class="node"><title>7</title>
<polygon fill="#399de5" stroke="black" points="277,-53 155,-53 155,-0 277,-0 277,-53"/>
<text text-anchor="middle" x="216" y="-37.8" font-family="Times,serif" font-size="14.00">samples = 1</text>
<text text-anchor="middle" x="216" y="-22.8" font-family="Times,serif" font-size="14.00">value = [0, 0, 1, 0]</text>
<text text-anchor="middle" x="216" y="-7.8" font-family="Times,serif" font-size="14.00">class = sentimental</text>
</g>
<!-- 5&#45;&gt;7 -->
<g id="edge7" class="edge"><title>5&#45;&gt;7</title>
<path fill="none" stroke="black" d="M216,-88.9485C216,-80.7153 216,-71.848 216,-63.4814"/>
<polygon fill="black" stroke="black" points="219.5,-63.2367 216,-53.2367 212.5,-63.2367 219.5,-63.2367"/>
</g>
<!-- 9 -->
<g id="node10" class="node"><title>9</title>
<polygon fill="#399de5" fill-opacity="0.784314" stroke="black" points="546.5,-157 395.5,-157 395.5,-89 546.5,-89 546.5,-157"/>
<text text-anchor="middle" x="471" y="-141.8" font-family="Times,serif" font-size="14.00">positive_WN &lt;= 9.3472</text>
<text text-anchor="middle" x="471" y="-126.8" font-family="Times,serif" font-size="14.00">samples = 28</text>
<text text-anchor="middle" x="471" y="-111.8" font-family="Times,serif" font-size="14.00">value = [0, 5, 23, 0]</text>
<text text-anchor="middle" x="471" y="-96.8" font-family="Times,serif" font-size="14.00">class = sentimental</text>
</g>
<!-- 8&#45;&gt;9 -->
<g id="edge9" class="edge"><title>8&#45;&gt;9</title>
<path fill="none" stroke="black" d="M504.091,-192.884C500.026,-184.422 495.6,-175.207 491.345,-166.352"/>
<polygon fill="black" stroke="black" points="494.482,-164.798 486.997,-157.299 488.172,-167.829 494.482,-164.798"/>
</g>
<!-- 12 -->
<g id="node13" class="node"><title>12</title>
<polygon fill="#e58139" fill-opacity="0.498039" stroke="black" points="719,-157 565,-157 565,-89 719,-89 719,-157"/>
<text text-anchor="middle" x="642" y="-141.8" font-family="Times,serif" font-size="14.00">negative_WN &lt;= 4.1454</text>
<text text-anchor="middle" x="642" y="-126.8" font-family="Times,serif" font-size="14.00">samples = 3</text>
<text text-anchor="middle" x="642" y="-111.8" font-family="Times,serif" font-size="14.00">value = [2, 0, 1, 0]</text>
<text text-anchor="middle" x="642" y="-96.8" font-family="Times,serif" font-size="14.00">class = costumbrista</text>
</g>
<!-- 8&#45;&gt;12 -->
<g id="edge12" class="edge"><title>8&#45;&gt;12</title>
<path fill="none" stroke="black" d="M559.61,-192.884C570.69,-183.62 582.848,-173.455 594.342,-163.845"/>
<polygon fill="black" stroke="black" points="596.744,-166.399 602.171,-157.299 592.254,-161.028 596.744,-166.399"/>
</g>
<!-- 10 -->
<g id="node11" class="node"><title>10</title>
<polygon fill="#399de5" fill-opacity="0.643137" stroke="black" points="422.5,-53 295.5,-53 295.5,-0 422.5,-0 422.5,-53"/>
<text text-anchor="middle" x="359" y="-37.8" font-family="Times,serif" font-size="14.00">samples = 19</text>
<text text-anchor="middle" x="359" y="-22.8" font-family="Times,serif" font-size="14.00">value = [0, 5, 14, 0]</text>
<text text-anchor="middle" x="359" y="-7.8" font-family="Times,serif" font-size="14.00">class = sentimental</text>
</g>
<!-- 9&#45;&gt;10 -->
<g id="edge10" class="edge"><title>9&#45;&gt;10</title>
<path fill="none" stroke="black" d="M431.828,-88.9485C420.66,-79.526 408.509,-69.2731 397.389,-59.8906"/>
<polygon fill="black" stroke="black" points="399.403,-57.0104 389.503,-53.2367 394.889,-62.3605 399.403,-57.0104"/>
</g>
<!-- 11 -->
<g id="node12" class="node"><title>11</title>
<polygon fill="#399de5" stroke="black" points="563,-53 441,-53 441,-0 563,-0 563,-53"/>
<text text-anchor="middle" x="502" y="-37.8" font-family="Times,serif" font-size="14.00">samples = 9</text>
<text text-anchor="middle" x="502" y="-22.8" font-family="Times,serif" font-size="14.00">value = [0, 0, 9, 0]</text>
<text text-anchor="middle" x="502" y="-7.8" font-family="Times,serif" font-size="14.00">class = sentimental</text>
</g>
<!-- 9&#45;&gt;11 -->
<g id="edge11" class="edge"><title>9&#45;&gt;11</title>
<path fill="none" stroke="black" d="M481.842,-88.9485C484.603,-80.5323 487.581,-71.4536 490.379,-62.9243"/>
<polygon fill="black" stroke="black" points="493.766,-63.8295 493.557,-53.2367 487.115,-61.6475 493.766,-63.8295"/>
</g>
<!-- 13 -->
<g id="node14" class="node"><title>13</title>
<polygon fill="#399de5" stroke="black" points="703,-53 581,-53 581,-0 703,-0 703,-53"/>
<text text-anchor="middle" x="642" y="-37.8" font-family="Times,serif" font-size="14.00">samples = 1</text>
<text text-anchor="middle" x="642" y="-22.8" font-family="Times,serif" font-size="14.00">value = [0, 0, 1, 0]</text>
<text text-anchor="middle" x="642" y="-7.8" font-family="Times,serif" font-size="14.00">class = sentimental</text>
</g>
<!-- 12&#45;&gt;13 -->
<g id="edge13" class="edge"><title>12&#45;&gt;13</title>
<path fill="none" stroke="black" d="M642,-88.9485C642,-80.7153 642,-71.848 642,-63.4814"/>
<polygon fill="black" stroke="black" points="645.5,-63.2367 642,-53.2367 638.5,-63.2367 645.5,-63.2367"/>
</g>
<!-- 14 -->
<g id="node15" class="node"><title>14</title>
<polygon fill="#e58139" stroke="black" points="849,-53 721,-53 721,-0 849,-0 849,-53"/>
<text text-anchor="middle" x="785" y="-37.8" font-family="Times,serif" font-size="14.00">samples = 2</text>
<text text-anchor="middle" x="785" y="-22.8" font-family="Times,serif" font-size="14.00">value = [2, 0, 0, 0]</text>
<text text-anchor="middle" x="785" y="-7.8" font-family="Times,serif" font-size="14.00">class = costumbrista</text>
</g>
<!-- 12&#45;&gt;14 -->
<g id="edge14" class="edge"><title>12&#45;&gt;14</title>
<path fill="none" stroke="black" d="M692.014,-88.9485C706.826,-79.1601 722.995,-68.4756 737.634,-58.8015"/>
<polygon fill="black" stroke="black" points="739.641,-61.6701 746.055,-53.2367 735.782,-55.83 739.641,-61.6701"/>
</g>
<!-- 16 -->
<g id="node17" class="node"><title>16</title>
<polygon fill="#d739e5" stroke="black" points="796.5,-253.5 665.5,-253.5 665.5,-200.5 796.5,-200.5 796.5,-253.5"/>
<text text-anchor="middle" x="731" y="-238.3" font-family="Times,serif" font-size="14.00">samples = 2</text>
<text text-anchor="middle" x="731" y="-223.3" font-family="Times,serif" font-size="14.00">value = [0, 0, 0, 2]</text>
<text text-anchor="middle" x="731" y="-208.3" font-family="Times,serif" font-size="14.00">class = sociopolitical</text>
</g>
<!-- 15&#45;&gt;16 -->
<g id="edge16" class="edge"><title>15&#45;&gt;16</title>
<path fill="none" stroke="black" d="M807.312,-296.884C794.397,-285.226 779.901,-272.141 767.04,-260.532"/>
<polygon fill="black" stroke="black" points="769.04,-257.622 759.272,-253.52 764.35,-262.819 769.04,-257.622"/>
</g>
<!-- 17 -->
<g id="node18" class="node"><title>17</title>
<polygon fill="none" stroke="black" points="937,-261 815,-261 815,-193 937,-193 937,-261"/>
<text text-anchor="middle" x="876" y="-245.8" font-family="Times,serif" font-size="14.00">speech &lt;= 75.1233</text>
<text text-anchor="middle" x="876" y="-230.8" font-family="Times,serif" font-size="14.00">samples = 2</text>
<text text-anchor="middle" x="876" y="-215.8" font-family="Times,serif" font-size="14.00">value = [0, 0, 1, 1]</text>
<text text-anchor="middle" x="876" y="-200.8" font-family="Times,serif" font-size="14.00">class = sentimental</text>
</g>
<!-- 15&#45;&gt;17 -->
<g id="edge17" class="edge"><title>15&#45;&gt;17</title>
<path fill="none" stroke="black" d="M854.389,-296.884C856.988,-288.6 859.813,-279.595 862.538,-270.911"/>
<polygon fill="black" stroke="black" points="865.899,-271.889 865.553,-261.299 859.22,-269.793 865.899,-271.889"/>
</g>
<!-- 18 -->
<g id="node19" class="node"><title>18</title>
<polygon fill="#d739e5" stroke="black" points="868.5,-149.5 737.5,-149.5 737.5,-96.5 868.5,-96.5 868.5,-149.5"/>
<text text-anchor="middle" x="803" y="-134.3" font-family="Times,serif" font-size="14.00">samples = 1</text>
<text text-anchor="middle" x="803" y="-119.3" font-family="Times,serif" font-size="14.00">value = [0, 0, 0, 1]</text>
<text text-anchor="middle" x="803" y="-104.3" font-family="Times,serif" font-size="14.00">class = sociopolitical</text>
</g>
<!-- 17&#45;&gt;18 -->
<g id="edge18" class="edge"><title>17&#45;&gt;18</title>
<path fill="none" stroke="black" d="M852.299,-192.884C844.271,-181.666 835.296,-169.126 827.227,-157.852"/>
<polygon fill="black" stroke="black" points="829.93,-155.615 821.264,-149.52 824.238,-159.689 829.93,-155.615"/>
</g>
<!-- 19 -->
<g id="node20" class="node"><title>19</title>
<polygon fill="#399de5" stroke="black" points="1009,-149.5 887,-149.5 887,-96.5 1009,-96.5 1009,-149.5"/>
<text text-anchor="middle" x="948" y="-134.3" font-family="Times,serif" font-size="14.00">samples = 1</text>
<text text-anchor="middle" x="948" y="-119.3" font-family="Times,serif" font-size="14.00">value = [0, 0, 1, 0]</text>
<text text-anchor="middle" x="948" y="-104.3" font-family="Times,serif" font-size="14.00">class = sentimental</text>
</g>
<!-- 17&#45;&gt;19 -->
<g id="edge19" class="edge"><title>17&#45;&gt;19</title>
<path fill="none" stroke="black" d="M899.376,-192.884C907.295,-181.666 916.146,-169.126 924.105,-157.852"/>
<polygon fill="black" stroke="black" points="927.078,-159.708 929.986,-149.52 921.36,-155.671 927.078,-159.708"/>
</g>
<!-- 21 -->
<g id="node22" class="node"><title>21</title>
<polygon fill="#e58139" fill-opacity="0.666667" stroke="black" points="1190.5,-365 1027.5,-365 1027.5,-297 1190.5,-297 1190.5,-365"/>
<text text-anchor="middle" x="1109" y="-349.8" font-family="Times,serif" font-size="14.00">emotional_WN &lt;= 23.613</text>
<text text-anchor="middle" x="1109" y="-334.8" font-family="Times,serif" font-size="14.00">samples = 17</text>
<text text-anchor="middle" x="1109" y="-319.8" font-family="Times,serif" font-size="14.00">value = [12, 2, 1, 2]</text>
<text text-anchor="middle" x="1109" y="-304.8" font-family="Times,serif" font-size="14.00">class = costumbrista</text>
</g>
<!-- 20&#45;&gt;21 -->
<g id="edge21" class="edge"><title>20&#45;&gt;21</title>
<path fill="none" stroke="black" d="M1109,-400.884C1109,-392.778 1109,-383.982 1109,-375.472"/>
<polygon fill="black" stroke="black" points="1112.5,-375.299 1109,-365.299 1105.5,-375.299 1112.5,-375.299"/>
</g>
<!-- 30 -->
<g id="node31" class="node"><title>30</title>
<polygon fill="#47e539" fill-opacity="0.058824" stroke="black" points="1891,-365 1685,-365 1685,-297 1891,-297 1891,-365"/>
<text text-anchor="middle" x="1788" y="-349.8" font-family="Times,serif" font-size="14.00">speech_emotional_WN &lt;= 7.0643</text>
<text text-anchor="middle" x="1788" y="-334.8" font-family="Times,serif" font-size="14.00">samples = 55</text>
<text text-anchor="middle" x="1788" y="-319.8" font-family="Times,serif" font-size="14.00">value = [5, 23, 6, 21]</text>
<text text-anchor="middle" x="1788" y="-304.8" font-family="Times,serif" font-size="14.00">class = historical</text>
</g>
<!-- 20&#45;&gt;30 -->
<g id="edge30" class="edge"><title>20&#45;&gt;30</title>
<path fill="none" stroke="black" d="M1186.23,-422.399C1305.76,-404.442 1536.2,-369.825 1674.64,-349.029"/>
<polygon fill="black" stroke="black" points="1675.49,-352.441 1684.86,-347.494 1674.45,-345.519 1675.49,-352.441"/>
</g>
<!-- 22 -->
<g id="node23" class="node"><title>22</title>
<polygon fill="#e58139" stroke="black" points="1128,-253.5 1000,-253.5 1000,-200.5 1128,-200.5 1128,-253.5"/>
<text text-anchor="middle" x="1064" y="-238.3" font-family="Times,serif" font-size="14.00">samples = 9</text>
<text text-anchor="middle" x="1064" y="-223.3" font-family="Times,serif" font-size="14.00">value = [9, 0, 0, 0]</text>
<text text-anchor="middle" x="1064" y="-208.3" font-family="Times,serif" font-size="14.00">class = costumbrista</text>
</g>
<!-- 21&#45;&gt;22 -->
<g id="edge22" class="edge"><title>21&#45;&gt;22</title>
<path fill="none" stroke="black" d="M1094.39,-296.884C1089.59,-285.996 1084.23,-273.863 1079.37,-262.85"/>
<polygon fill="black" stroke="black" points="1082.5,-261.256 1075.26,-253.52 1076.09,-264.082 1082.5,-261.256"/>
</g>
<!-- 23 -->
<g id="node24" class="node"><title>23</title>
<polygon fill="#e58139" fill-opacity="0.164706" stroke="black" points="1304,-261 1146,-261 1146,-193 1304,-193 1304,-261"/>
<text text-anchor="middle" x="1225" y="-245.8" font-family="Times,serif" font-size="14.00">positive_WN &lt;= 10.3285</text>
<text text-anchor="middle" x="1225" y="-230.8" font-family="Times,serif" font-size="14.00">samples = 8</text>
<text text-anchor="middle" x="1225" y="-215.8" font-family="Times,serif" font-size="14.00">value = [3, 2, 1, 2]</text>
<text text-anchor="middle" x="1225" y="-200.8" font-family="Times,serif" font-size="14.00">class = costumbrista</text>
</g>
<!-- 21&#45;&gt;23 -->
<g id="edge23" class="edge"><title>21&#45;&gt;23</title>
<path fill="none" stroke="black" d="M1146.66,-296.884C1157.1,-287.709 1168.54,-277.65 1179.37,-268.123"/>
<polygon fill="black" stroke="black" points="1181.93,-270.531 1187.13,-261.299 1177.31,-265.274 1181.93,-270.531"/>
</g>
<!-- 24 -->
<g id="node25" class="node"><title>24</title>
<polygon fill="none" stroke="black" points="1233,-157 1027,-157 1027,-89 1233,-89 1233,-157"/>
<text text-anchor="middle" x="1130" y="-141.8" font-family="Times,serif" font-size="14.00">speech_emotional_WN &lt;= 2.9351</text>
<text text-anchor="middle" x="1130" y="-126.8" font-family="Times,serif" font-size="14.00">samples = 4</text>
<text text-anchor="middle" x="1130" y="-111.8" font-family="Times,serif" font-size="14.00">value = [2, 2, 0, 0]</text>
<text text-anchor="middle" x="1130" y="-96.8" font-family="Times,serif" font-size="14.00">class = costumbrista</text>
</g>
<!-- 23&#45;&gt;24 -->
<g id="edge24" class="edge"><title>23&#45;&gt;24</title>
<path fill="none" stroke="black" d="M1194.16,-192.884C1185.78,-183.887 1176.61,-174.041 1167.89,-164.678"/>
<polygon fill="black" stroke="black" points="1170.39,-162.232 1161.01,-157.299 1165.27,-167.003 1170.39,-162.232"/>
</g>
<!-- 27 -->
<g id="node28" class="node"><title>27</title>
<polygon fill="#d739e5" fill-opacity="0.333333" stroke="black" points="1405,-157 1251,-157 1251,-89 1405,-89 1405,-157"/>
<text text-anchor="middle" x="1328" y="-141.8" font-family="Times,serif" font-size="14.00">negative_WN &lt;= 1.3097</text>
<text text-anchor="middle" x="1328" y="-126.8" font-family="Times,serif" font-size="14.00">samples = 4</text>
<text text-anchor="middle" x="1328" y="-111.8" font-family="Times,serif" font-size="14.00">value = [1, 0, 1, 2]</text>
<text text-anchor="middle" x="1328" y="-96.8" font-family="Times,serif" font-size="14.00">class = sociopolitical</text>
</g>
<!-- 23&#45;&gt;27 -->
<g id="edge27" class="edge"><title>23&#45;&gt;27</title>
<path fill="none" stroke="black" d="M1258.44,-192.884C1267.62,-183.798 1277.67,-173.845 1287.2,-164.4"/>
<polygon fill="black" stroke="black" points="1289.73,-166.823 1294.37,-157.299 1284.81,-161.849 1289.73,-166.823"/>
</g>
<!-- 25 -->
<g id="node26" class="node"><title>25</title>
<polygon fill="#47e539" stroke="black" points="1048,-53 928,-53 928,-0 1048,-0 1048,-53"/>
<text text-anchor="middle" x="988" y="-37.8" font-family="Times,serif" font-size="14.00">samples = 1</text>
<text text-anchor="middle" x="988" y="-22.8" font-family="Times,serif" font-size="14.00">value = [0, 1, 0, 0]</text>
<text text-anchor="middle" x="988" y="-7.8" font-family="Times,serif" font-size="14.00">class = historical</text>
</g>
<!-- 24&#45;&gt;25 -->
<g id="edge25" class="edge"><title>24&#45;&gt;25</title>
<path fill="none" stroke="black" d="M1080.34,-88.9485C1065.63,-79.1601 1049.57,-68.4756 1035.04,-58.8015"/>
<polygon fill="black" stroke="black" points="1036.94,-55.8632 1026.67,-53.2367 1033.06,-61.6907 1036.94,-55.8632"/>
</g>
<!-- 26 -->
<g id="node27" class="node"><title>26</title>
<polygon fill="#e58139" fill-opacity="0.498039" stroke="black" points="1194,-53 1066,-53 1066,-0 1194,-0 1194,-53"/>
<text text-anchor="middle" x="1130" y="-37.8" font-family="Times,serif" font-size="14.00">samples = 3</text>
<text text-anchor="middle" x="1130" y="-22.8" font-family="Times,serif" font-size="14.00">value = [2, 1, 0, 0]</text>
<text text-anchor="middle" x="1130" y="-7.8" font-family="Times,serif" font-size="14.00">class = costumbrista</text>
</g>
<!-- 24&#45;&gt;26 -->
<g id="edge26" class="edge"><title>24&#45;&gt;26</title>
<path fill="none" stroke="black" d="M1130,-88.9485C1130,-80.7153 1130,-71.848 1130,-63.4814"/>
<polygon fill="black" stroke="black" points="1133.5,-63.2367 1130,-53.2367 1126.5,-63.2367 1133.5,-63.2367"/>
</g>
<!-- 28 -->
<g id="node29" class="node"><title>28</title>
<polygon fill="none" stroke="black" points="1340,-53 1212,-53 1212,-0 1340,-0 1340,-53"/>
<text text-anchor="middle" x="1276" y="-37.8" font-family="Times,serif" font-size="14.00">samples = 2</text>
<text text-anchor="middle" x="1276" y="-22.8" font-family="Times,serif" font-size="14.00">value = [1, 0, 1, 0]</text>
<text text-anchor="middle" x="1276" y="-7.8" font-family="Times,serif" font-size="14.00">class = costumbrista</text>
</g>
<!-- 27&#45;&gt;28 -->
<g id="edge28" class="edge"><title>27&#45;&gt;28</title>
<path fill="none" stroke="black" d="M1309.81,-88.9485C1305.03,-80.2579 1299.86,-70.8608 1295.03,-62.0917"/>
<polygon fill="black" stroke="black" points="1298.05,-60.3105 1290.16,-53.2367 1291.92,-63.6853 1298.05,-60.3105"/>
</g>
<!-- 29 -->
<g id="node30" class="node"><title>29</title>
<polygon fill="#d739e5" stroke="black" points="1489.5,-53 1358.5,-53 1358.5,-0 1489.5,-0 1489.5,-53"/>
<text text-anchor="middle" x="1424" y="-37.8" font-family="Times,serif" font-size="14.00">samples = 2</text>
<text text-anchor="middle" x="1424" y="-22.8" font-family="Times,serif" font-size="14.00">value = [0, 0, 0, 2]</text>
<text text-anchor="middle" x="1424" y="-7.8" font-family="Times,serif" font-size="14.00">class = sociopolitical</text>
</g>
<!-- 27&#45;&gt;29 -->
<g id="edge29" class="edge"><title>27&#45;&gt;29</title>
<path fill="none" stroke="black" d="M1361.58,-88.9485C1370.96,-79.709 1381.16,-69.671 1390.54,-60.4381"/>
<polygon fill="black" stroke="black" points="1393.18,-62.7462 1397.85,-53.2367 1388.27,-57.7576 1393.18,-62.7462"/>
</g>
<!-- 31 -->
<g id="node32" class="node"><title>31</title>
<polygon fill="#d739e5" fill-opacity="0.376471" stroke="black" points="1891,-261 1685,-261 1685,-193 1891,-193 1891,-261"/>
<text text-anchor="middle" x="1788" y="-245.8" font-family="Times,serif" font-size="14.00">speech_emotional_WN &lt;= 6.0144</text>
<text text-anchor="middle" x="1788" y="-230.8" font-family="Times,serif" font-size="14.00">samples = 34</text>
<text text-anchor="middle" x="1788" y="-215.8" font-family="Times,serif" font-size="14.00">value = [4, 10, 1, 19]</text>
<text text-anchor="middle" x="1788" y="-200.8" font-family="Times,serif" font-size="14.00">class = sociopolitical</text>
</g>
<!-- 30&#45;&gt;31 -->
<g id="edge31" class="edge"><title>30&#45;&gt;31</title>
<path fill="none" stroke="black" d="M1788,-296.884C1788,-288.778 1788,-279.982 1788,-271.472"/>
<polygon fill="black" stroke="black" points="1791.5,-271.299 1788,-261.299 1784.5,-271.299 1791.5,-271.299"/>
</g>
<!-- 38 -->
<g id="node39" class="node"><title>38</title>
<polygon fill="#47e539" fill-opacity="0.501961" stroke="black" points="2221,-261 2067,-261 2067,-193 2221,-193 2221,-261"/>
<text text-anchor="middle" x="2144" y="-245.8" font-family="Times,serif" font-size="14.00">negative_WN &lt;= 7.1282</text>
<text text-anchor="middle" x="2144" y="-230.8" font-family="Times,serif" font-size="14.00">samples = 21</text>
<text text-anchor="middle" x="2144" y="-215.8" font-family="Times,serif" font-size="14.00">value = [1, 13, 5, 2]</text>
<text text-anchor="middle" x="2144" y="-200.8" font-family="Times,serif" font-size="14.00">class = historical</text>
</g>
<!-- 30&#45;&gt;38 -->
<g id="edge38" class="edge"><title>30&#45;&gt;38</title>
<path fill="none" stroke="black" d="M1891.45,-300.36C1943.99,-285.306 2007.11,-267.221 2057.1,-252.897"/>
<polygon fill="black" stroke="black" points="2058.27,-256.204 2066.92,-250.085 2056.34,-249.474 2058.27,-256.204"/>
</g>
<!-- 32 -->
<g id="node33" class="node"><title>32</title>
<polygon fill="#d739e5" fill-opacity="0.133333" stroke="black" points="1785,-157 1631,-157 1631,-89 1785,-89 1785,-157"/>
<text text-anchor="middle" x="1708" y="-141.8" font-family="Times,serif" font-size="14.00">negative_WN &lt;= 5.3672</text>
<text text-anchor="middle" x="1708" y="-126.8" font-family="Times,serif" font-size="14.00">samples = 24</text>
<text text-anchor="middle" x="1708" y="-111.8" font-family="Times,serif" font-size="14.00">value = [4, 9, 0, 11]</text>
<text text-anchor="middle" x="1708" y="-96.8" font-family="Times,serif" font-size="14.00">class = sociopolitical</text>
</g>
<!-- 31&#45;&gt;32 -->
<g id="edge32" class="edge"><title>31&#45;&gt;32</title>
<path fill="none" stroke="black" d="M1762.03,-192.884C1755.11,-184.065 1747.55,-174.43 1740.34,-165.235"/>
<polygon fill="black" stroke="black" points="1743.04,-163.008 1734.12,-157.299 1737.53,-167.328 1743.04,-163.008"/>
</g>
<!-- 35 -->
<g id="node36" class="node"><title>35</title>
<polygon fill="#d739e5" fill-opacity="0.776471" stroke="black" points="1934.5,-157 1803.5,-157 1803.5,-89 1934.5,-89 1934.5,-157"/>
<text text-anchor="middle" x="1869" y="-141.8" font-family="Times,serif" font-size="14.00">narrated &lt;= 76.0046</text>
<text text-anchor="middle" x="1869" y="-126.8" font-family="Times,serif" font-size="14.00">samples = 10</text>
<text text-anchor="middle" x="1869" y="-111.8" font-family="Times,serif" font-size="14.00">value = [0, 1, 1, 8]</text>
<text text-anchor="middle" x="1869" y="-96.8" font-family="Times,serif" font-size="14.00">class = sociopolitical</text>
</g>
<!-- 31&#45;&gt;35 -->
<g id="edge35" class="edge"><title>31&#45;&gt;35</title>
<path fill="none" stroke="black" d="M1814.3,-192.884C1821.3,-184.065 1828.95,-174.43 1836.25,-165.235"/>
<polygon fill="black" stroke="black" points="1839.08,-167.307 1842.56,-157.299 1833.6,-162.954 1839.08,-167.307"/>
</g>
<!-- 33 -->
<g id="node34" class="node"><title>33</title>
<polygon fill="#d739e5" fill-opacity="0.427451" stroke="black" points="1638.5,-53 1507.5,-53 1507.5,-0 1638.5,-0 1638.5,-53"/>
<text text-anchor="middle" x="1573" y="-37.8" font-family="Times,serif" font-size="14.00">samples = 18</text>
<text text-anchor="middle" x="1573" y="-22.8" font-family="Times,serif" font-size="14.00">value = [4, 4, 0, 10]</text>
<text text-anchor="middle" x="1573" y="-7.8" font-family="Times,serif" font-size="14.00">class = sociopolitical</text>
</g>
<!-- 32&#45;&gt;33 -->
<g id="edge33" class="edge"><title>32&#45;&gt;33</title>
<path fill="none" stroke="black" d="M1660.78,-88.9485C1646.93,-79.2516 1631.82,-68.6752 1618.1,-59.073"/>
<polygon fill="black" stroke="black" points="1619.97,-56.1041 1609.77,-53.2367 1615.95,-61.8387 1619.97,-56.1041"/>
</g>
<!-- 34 -->
<g id="node35" class="node"><title>34</title>
<polygon fill="#47e539" fill-opacity="0.800000" stroke="black" points="1777,-53 1657,-53 1657,-0 1777,-0 1777,-53"/>
<text text-anchor="middle" x="1717" y="-37.8" font-family="Times,serif" font-size="14.00">samples = 6</text>
<text text-anchor="middle" x="1717" y="-22.8" font-family="Times,serif" font-size="14.00">value = [0, 5, 0, 1]</text>
<text text-anchor="middle" x="1717" y="-7.8" font-family="Times,serif" font-size="14.00">class = historical</text>
</g>
<!-- 32&#45;&gt;34 -->
<g id="edge34" class="edge"><title>32&#45;&gt;34</title>
<path fill="none" stroke="black" d="M1711.15,-88.9485C1711.94,-80.6238 1712.8,-71.6509 1713.6,-63.2027"/>
<polygon fill="black" stroke="black" points="1717.08,-63.5235 1714.55,-53.2367 1710.12,-62.8598 1717.08,-63.5235"/>
</g>
<!-- 36 -->
<g id="node37" class="node"><title>36</title>
<polygon fill="#d739e5" fill-opacity="0.874510" stroke="black" points="1926.5,-53 1795.5,-53 1795.5,-0 1926.5,-0 1926.5,-53"/>
<text text-anchor="middle" x="1861" y="-37.8" font-family="Times,serif" font-size="14.00">samples = 9</text>
<text text-anchor="middle" x="1861" y="-22.8" font-family="Times,serif" font-size="14.00">value = [0, 0, 1, 8]</text>
<text text-anchor="middle" x="1861" y="-7.8" font-family="Times,serif" font-size="14.00">class = sociopolitical</text>
</g>
<!-- 35&#45;&gt;36 -->
<g id="edge36" class="edge"><title>35&#45;&gt;36</title>
<path fill="none" stroke="black" d="M1866.2,-88.9485C1865.5,-80.6238 1864.74,-71.6509 1864.02,-63.2027"/>
<polygon fill="black" stroke="black" points="1867.51,-62.9058 1863.18,-53.2367 1860.53,-63.4963 1867.51,-62.9058"/>
</g>
<!-- 37 -->
<g id="node38" class="node"><title>37</title>
<polygon fill="#47e539" stroke="black" points="2065,-53 1945,-53 1945,-0 2065,-0 2065,-53"/>
<text text-anchor="middle" x="2005" y="-37.8" font-family="Times,serif" font-size="14.00">samples = 1</text>
<text text-anchor="middle" x="2005" y="-22.8" font-family="Times,serif" font-size="14.00">value = [0, 1, 0, 0]</text>
<text text-anchor="middle" x="2005" y="-7.8" font-family="Times,serif" font-size="14.00">class = historical</text>
</g>
<!-- 35&#45;&gt;37 -->
<g id="edge37" class="edge"><title>35&#45;&gt;37</title>
<path fill="none" stroke="black" d="M1916.57,-88.9485C1930.52,-79.2516 1945.74,-68.6752 1959.56,-59.073"/>
<polygon fill="black" stroke="black" points="1961.75,-61.8172 1967.96,-53.2367 1957.75,-56.0687 1961.75,-61.8172"/>
</g>
<!-- 39 -->
<g id="node40" class="node"><title>39</title>
<polygon fill="#47e539" fill-opacity="0.686275" stroke="black" points="2221,-157 2067,-157 2067,-89 2221,-89 2221,-157"/>
<text text-anchor="middle" x="2144" y="-141.8" font-family="Times,serif" font-size="14.00">negative_WN &lt;= 3.7419</text>
<text text-anchor="middle" x="2144" y="-126.8" font-family="Times,serif" font-size="14.00">samples = 18</text>
<text text-anchor="middle" x="2144" y="-111.8" font-family="Times,serif" font-size="14.00">value = [1, 13, 2, 2]</text>
<text text-anchor="middle" x="2144" y="-96.8" font-family="Times,serif" font-size="14.00">class = historical</text>
</g>
<!-- 38&#45;&gt;39 -->
<g id="edge39" class="edge"><title>38&#45;&gt;39</title>
<path fill="none" stroke="black" d="M2144,-192.884C2144,-184.778 2144,-175.982 2144,-167.472"/>
<polygon fill="black" stroke="black" points="2147.5,-167.299 2144,-157.299 2140.5,-167.299 2147.5,-167.299"/>
</g>
<!-- 42 -->
<g id="node43" class="node"><title>42</title>
<polygon fill="#399de5" stroke="black" points="2361,-149.5 2239,-149.5 2239,-96.5 2361,-96.5 2361,-149.5"/>
<text text-anchor="middle" x="2300" y="-134.3" font-family="Times,serif" font-size="14.00">samples = 3</text>
<text text-anchor="middle" x="2300" y="-119.3" font-family="Times,serif" font-size="14.00">value = [0, 0, 3, 0]</text>
<text text-anchor="middle" x="2300" y="-104.3" font-family="Times,serif" font-size="14.00">class = sentimental</text>
</g>
<!-- 38&#45;&gt;42 -->
<g id="edge42" class="edge"><title>38&#45;&gt;42</title>
<path fill="none" stroke="black" d="M2194.65,-192.884C2213.15,-180.786 2234,-167.151 2252.25,-155.224"/>
<polygon fill="black" stroke="black" points="2254.52,-157.922 2260.97,-149.52 2250.68,-152.063 2254.52,-157.922"/>
</g>
<!-- 40 -->
<g id="node41" class="node"><title>40</title>
<polygon fill="#399de5" fill-opacity="0.498039" stroke="black" points="2205,-53 2083,-53 2083,-0 2205,-0 2205,-53"/>
<text text-anchor="middle" x="2144" y="-37.8" font-family="Times,serif" font-size="14.00">samples = 3</text>
<text text-anchor="middle" x="2144" y="-22.8" font-family="Times,serif" font-size="14.00">value = [1, 0, 2, 0]</text>
<text text-anchor="middle" x="2144" y="-7.8" font-family="Times,serif" font-size="14.00">class = sentimental</text>
</g>
<!-- 39&#45;&gt;40 -->
<g id="edge40" class="edge"><title>39&#45;&gt;40</title>
<path fill="none" stroke="black" d="M2144,-88.9485C2144,-80.7153 2144,-71.848 2144,-63.4814"/>
<polygon fill="black" stroke="black" points="2147.5,-63.2367 2144,-53.2367 2140.5,-63.2367 2147.5,-63.2367"/>
</g>
<!-- 41 -->
<g id="node42" class="node"><title>41</title>
<polygon fill="#47e539" fill-opacity="0.847059" stroke="black" points="2350.5,-53 2223.5,-53 2223.5,-0 2350.5,-0 2350.5,-53"/>
<text text-anchor="middle" x="2287" y="-37.8" font-family="Times,serif" font-size="14.00">samples = 15</text>
<text text-anchor="middle" x="2287" y="-22.8" font-family="Times,serif" font-size="14.00">value = [0, 13, 0, 2]</text>
<text text-anchor="middle" x="2287" y="-7.8" font-family="Times,serif" font-size="14.00">class = historical</text>
</g>
<!-- 39&#45;&gt;41 -->
<g id="edge41" class="edge"><title>39&#45;&gt;41</title>
<path fill="none" stroke="black" d="M2194.01,-88.9485C2208.83,-79.1601 2224.99,-68.4756 2239.63,-58.8015"/>
<polygon fill="black" stroke="black" points="2241.64,-61.6701 2248.05,-53.2367 2237.78,-55.83 2241.64,-61.6701"/>
</g>
</g>
</svg>
