<?xml version="1.0" encoding="UTF-8" standalone="no"?>
<!DOCTYPE svg PUBLIC "-//W3C//DTD SVG 1.1//EN"
 "http://www.w3.org/Graphics/SVG/1.1/DTD/svg11.dtd">
<!-- Generated by graphviz version 2.38.0 (20140413.2041)
 -->
<!-- Title: Tree Pages: 1 -->
<svg width="1792pt" height="581pt"
 viewBox="0.00 0.00 1792.00 581.00" xmlns="http://www.w3.org/2000/svg" xmlns:xlink="http://www.w3.org/1999/xlink">
<g id="graph0" class="graph" transform="scale(1 1) rotate(0) translate(4 577)">
<title>Tree</title>
<polygon fill="white" stroke="none" points="-4,4 -4,-577 1788,-577 1788,4 -4,4"/>
<!-- 0 -->
<g id="node1" class="node"><title>0</title>
<polygon fill="#39e581" fill-opacity="0.054902" stroke="black" points="932.5,-573 735.5,-573 735.5,-505 932.5,-505 932.5,-573"/>
<text text-anchor="middle" x="834" y="-557.8" font-family="Times,serif" font-size="14.00">speech_emotional_NRC &lt;= 28.5</text>
<text text-anchor="middle" x="834" y="-542.8" font-family="Times,serif" font-size="14.00">samples = 112</text>
<text text-anchor="middle" x="834" y="-527.8" font-family="Times,serif" font-size="14.00">value = [41, 45, 26]</text>
<text text-anchor="middle" x="834" y="-512.8" font-family="Times,serif" font-size="14.00">class = 0.5</text>
</g>
<!-- 1 -->
<g id="node2" class="node"><title>1</title>
<polygon fill="#39e581" fill-opacity="0.141176" stroke="black" points="798,-469 624,-469 624,-401 798,-401 798,-469"/>
<text text-anchor="middle" x="711" y="-453.8" font-family="Times,serif" font-size="14.00">emotional_NRC &lt;= 55.2186</text>
<text text-anchor="middle" x="711" y="-438.8" font-family="Times,serif" font-size="14.00">samples = 75</text>
<text text-anchor="middle" x="711" y="-423.8" font-family="Times,serif" font-size="14.00">value = [32, 38, 5]</text>
<text text-anchor="middle" x="711" y="-408.8" font-family="Times,serif" font-size="14.00">class = 0.5</text>
</g>
<!-- 0&#45;&gt;1 -->
<g id="edge1" class="edge"><title>0&#45;&gt;1</title>
<path fill="none" stroke="black" d="M794.065,-504.884C782.895,-495.62 770.637,-485.455 759.049,-475.845"/>
<polygon fill="black" stroke="black" points="761.087,-472.989 751.155,-469.299 756.619,-478.377 761.087,-472.989"/>
<text text-anchor="middle" x="753.478" y="-490.491" font-family="Times,serif" font-size="14.00">True</text>
</g>
<!-- 18 -->
<g id="node19" class="node"><title>18</title>
<polygon fill="#8139e5" fill-opacity="0.427451" stroke="black" points="1037,-469 879,-469 879,-401 1037,-401 1037,-469"/>
<text text-anchor="middle" x="958" y="-453.8" font-family="Times,serif" font-size="14.00">negative_NRC &lt;= 7.6097</text>
<text text-anchor="middle" x="958" y="-438.8" font-family="Times,serif" font-size="14.00">samples = 37</text>
<text text-anchor="middle" x="958" y="-423.8" font-family="Times,serif" font-size="14.00">value = [9, 7, 21]</text>
<text text-anchor="middle" x="958" y="-408.8" font-family="Times,serif" font-size="14.00">class = 1.0</text>
</g>
<!-- 0&#45;&gt;18 -->
<g id="edge18" class="edge"><title>0&#45;&gt;18</title>
<path fill="none" stroke="black" d="M874.259,-504.884C885.521,-495.62 897.878,-485.455 909.56,-475.845"/>
<polygon fill="black" stroke="black" points="912.019,-478.355 917.518,-469.299 907.572,-472.949 912.019,-478.355"/>
<text text-anchor="middle" x="915.096" y="-490.482" font-family="Times,serif" font-size="14.00">False</text>
</g>
<!-- 2 -->
<g id="node3" class="node"><title>2</title>
<polygon fill="#e58139" stroke="black" points="614,-357.5 508,-357.5 508,-304.5 614,-304.5 614,-357.5"/>
<text text-anchor="middle" x="561" y="-342.3" font-family="Times,serif" font-size="14.00">samples = 8</text>
<text text-anchor="middle" x="561" y="-327.3" font-family="Times,serif" font-size="14.00">value = [8, 0, 0]</text>
<text text-anchor="middle" x="561" y="-312.3" font-family="Times,serif" font-size="14.00">class = 0.0</text>
</g>
<!-- 1&#45;&gt;2 -->
<g id="edge2" class="edge"><title>1&#45;&gt;2</title>
<path fill="none" stroke="black" d="M662.299,-400.884C644.509,-388.786 624.457,-375.151 606.917,-363.224"/>
<polygon fill="black" stroke="black" points="608.767,-360.249 598.529,-357.52 604.83,-366.037 608.767,-360.249"/>
</g>
<!-- 3 -->
<g id="node4" class="node"><title>3</title>
<polygon fill="#39e581" fill-opacity="0.325490" stroke="black" points="789.5,-365 632.5,-365 632.5,-297 789.5,-297 789.5,-365"/>
<text text-anchor="middle" x="711" y="-349.8" font-family="Times,serif" font-size="14.00">neutral_NRC &lt;= 20.3495</text>
<text text-anchor="middle" x="711" y="-334.8" font-family="Times,serif" font-size="14.00">samples = 67</text>
<text text-anchor="middle" x="711" y="-319.8" font-family="Times,serif" font-size="14.00">value = [24, 38, 5]</text>
<text text-anchor="middle" x="711" y="-304.8" font-family="Times,serif" font-size="14.00">class = 0.5</text>
</g>
<!-- 1&#45;&gt;3 -->
<g id="edge3" class="edge"><title>1&#45;&gt;3</title>
<path fill="none" stroke="black" d="M711,-400.884C711,-392.778 711,-383.982 711,-375.472"/>
<polygon fill="black" stroke="black" points="714.5,-375.299 711,-365.299 707.5,-375.299 714.5,-375.299"/>
</g>
<!-- 4 -->
<g id="node5" class="node"><title>4</title>
<polygon fill="#e58139" fill-opacity="0.572549" stroke="black" points="491.5,-261 326.5,-261 326.5,-193 491.5,-193 491.5,-261"/>
<text text-anchor="middle" x="409" y="-245.8" font-family="Times,serif" font-size="14.00">negative_NRC &lt;= 16.8463</text>
<text text-anchor="middle" x="409" y="-230.8" font-family="Times,serif" font-size="14.00">samples = 17</text>
<text text-anchor="middle" x="409" y="-215.8" font-family="Times,serif" font-size="14.00">value = [11, 3, 3]</text>
<text text-anchor="middle" x="409" y="-200.8" font-family="Times,serif" font-size="14.00">class = 0.0</text>
</g>
<!-- 3&#45;&gt;4 -->
<g id="edge4" class="edge"><title>3&#45;&gt;4</title>
<path fill="none" stroke="black" d="M632.384,-300.311C629.219,-299.181 626.082,-298.074 623,-297 583.409,-283.203 539.372,-268.837 501.586,-256.809"/>
<polygon fill="black" stroke="black" points="502.205,-253.333 491.614,-253.643 500.086,-260.005 502.205,-253.333"/>
</g>
<!-- 11 -->
<g id="node12" class="node"><title>11</title>
<polygon fill="#39e581" fill-opacity="0.596078" stroke="black" points="820,-261 602,-261 602,-193 820,-193 820,-261"/>
<text text-anchor="middle" x="711" y="-245.8" font-family="Times,serif" font-size="14.00">speech_emotional_NRC &lt;= 18.6289</text>
<text text-anchor="middle" x="711" y="-230.8" font-family="Times,serif" font-size="14.00">samples = 50</text>
<text text-anchor="middle" x="711" y="-215.8" font-family="Times,serif" font-size="14.00">value = [13, 35, 2]</text>
<text text-anchor="middle" x="711" y="-200.8" font-family="Times,serif" font-size="14.00">class = 0.5</text>
</g>
<!-- 3&#45;&gt;11 -->
<g id="edge11" class="edge"><title>3&#45;&gt;11</title>
<path fill="none" stroke="black" d="M711,-296.884C711,-288.778 711,-279.982 711,-271.472"/>
<polygon fill="black" stroke="black" points="714.5,-271.299 711,-261.299 707.5,-271.299 714.5,-271.299"/>
</g>
<!-- 5 -->
<g id="node6" class="node"><title>5</title>
<polygon fill="#8139e5" fill-opacity="0.666667" stroke="black" points="289.5,-157 64.5,-157 64.5,-89 289.5,-89 289.5,-157"/>
<text text-anchor="middle" x="177" y="-141.8" font-family="Times,serif" font-size="14.00">narrated_emotional_NRC &lt;= 56.2301</text>
<text text-anchor="middle" x="177" y="-126.8" font-family="Times,serif" font-size="14.00">samples = 4</text>
<text text-anchor="middle" x="177" y="-111.8" font-family="Times,serif" font-size="14.00">value = [0, 1, 3]</text>
<text text-anchor="middle" x="177" y="-96.8" font-family="Times,serif" font-size="14.00">class = 1.0</text>
</g>
<!-- 4&#45;&gt;5 -->
<g id="edge5" class="edge"><title>4&#45;&gt;5</title>
<path fill="none" stroke="black" d="M333.676,-192.884C310.666,-182.767 285.21,-171.575 261.626,-161.206"/>
<polygon fill="black" stroke="black" points="262.906,-157.946 252.343,-157.125 260.088,-164.354 262.906,-157.946"/>
</g>
<!-- 8 -->
<g id="node9" class="node"><title>8</title>
<polygon fill="#e58139" fill-opacity="0.819608" stroke="black" points="491.5,-157 326.5,-157 326.5,-89 491.5,-89 491.5,-157"/>
<text text-anchor="middle" x="409" y="-141.8" font-family="Times,serif" font-size="14.00">negative_NRC &lt;= 24.2487</text>
<text text-anchor="middle" x="409" y="-126.8" font-family="Times,serif" font-size="14.00">samples = 13</text>
<text text-anchor="middle" x="409" y="-111.8" font-family="Times,serif" font-size="14.00">value = [11, 2, 0]</text>
<text text-anchor="middle" x="409" y="-96.8" font-family="Times,serif" font-size="14.00">class = 0.0</text>
</g>
<!-- 4&#45;&gt;8 -->
<g id="edge8" class="edge"><title>4&#45;&gt;8</title>
<path fill="none" stroke="black" d="M409,-192.884C409,-184.778 409,-175.982 409,-167.472"/>
<polygon fill="black" stroke="black" points="412.5,-167.299 409,-157.299 405.5,-167.299 412.5,-167.299"/>
</g>
<!-- 6 -->
<g id="node7" class="node"><title>6</title>
<polygon fill="#39e581" stroke="black" points="106,-53 7.10543e-15,-53 7.10543e-15,-0 106,-0 106,-53"/>
<text text-anchor="middle" x="53" y="-37.8" font-family="Times,serif" font-size="14.00">samples = 1</text>
<text text-anchor="middle" x="53" y="-22.8" font-family="Times,serif" font-size="14.00">value = [0, 1, 0]</text>
<text text-anchor="middle" x="53" y="-7.8" font-family="Times,serif" font-size="14.00">class = 0.5</text>
</g>
<!-- 5&#45;&gt;6 -->
<g id="edge6" class="edge"><title>5&#45;&gt;6</title>
<path fill="none" stroke="black" d="M133.631,-88.9485C121.027,-79.3431 107.291,-68.8747 94.786,-59.345"/>
<polygon fill="black" stroke="black" points="96.846,-56.5144 86.7709,-53.2367 92.603,-62.0819 96.846,-56.5144"/>
</g>
<!-- 7 -->
<g id="node8" class="node"><title>7</title>
<polygon fill="#8139e5" stroke="black" points="230,-53 124,-53 124,-0 230,-0 230,-53"/>
<text text-anchor="middle" x="177" y="-37.8" font-family="Times,serif" font-size="14.00">samples = 3</text>
<text text-anchor="middle" x="177" y="-22.8" font-family="Times,serif" font-size="14.00">value = [0, 0, 3]</text>
<text text-anchor="middle" x="177" y="-7.8" font-family="Times,serif" font-size="14.00">class = 1.0</text>
</g>
<!-- 5&#45;&gt;7 -->
<g id="edge7" class="edge"><title>5&#45;&gt;7</title>
<path fill="none" stroke="black" d="M177,-88.9485C177,-80.7153 177,-71.848 177,-63.4814"/>
<polygon fill="black" stroke="black" points="180.5,-63.2367 177,-53.2367 173.5,-63.2367 180.5,-63.2367"/>
</g>
<!-- 9 -->
<g id="node10" class="node"><title>9</title>
<polygon fill="#e58139" stroke="black" points="361.5,-53 248.5,-53 248.5,-0 361.5,-0 361.5,-53"/>
<text text-anchor="middle" x="305" y="-37.8" font-family="Times,serif" font-size="14.00">samples = 10</text>
<text text-anchor="middle" x="305" y="-22.8" font-family="Times,serif" font-size="14.00">value = [10, 0, 0]</text>
<text text-anchor="middle" x="305" y="-7.8" font-family="Times,serif" font-size="14.00">class = 0.0</text>
</g>
<!-- 8&#45;&gt;9 -->
<g id="edge9" class="edge"><title>8&#45;&gt;9</title>
<path fill="none" stroke="black" d="M372.626,-88.9485C362.357,-79.6175 351.192,-69.4722 340.948,-60.1641"/>
<polygon fill="black" stroke="black" points="343.079,-57.3713 333.324,-53.2367 338.371,-62.5521 343.079,-57.3713"/>
</g>
<!-- 10 -->
<g id="node11" class="node"><title>10</title>
<polygon fill="#39e581" fill-opacity="0.498039" stroke="black" points="486,-53 380,-53 380,-0 486,-0 486,-53"/>
<text text-anchor="middle" x="433" y="-37.8" font-family="Times,serif" font-size="14.00">samples = 3</text>
<text text-anchor="middle" x="433" y="-22.8" font-family="Times,serif" font-size="14.00">value = [1, 2, 0]</text>
<text text-anchor="middle" x="433" y="-7.8" font-family="Times,serif" font-size="14.00">class = 0.5</text>
</g>
<!-- 8&#45;&gt;10 -->
<g id="edge10" class="edge"><title>8&#45;&gt;10</title>
<path fill="none" stroke="black" d="M417.394,-88.9485C419.508,-80.6238 421.787,-71.6509 423.933,-63.2027"/>
<polygon fill="black" stroke="black" points="427.394,-63.7906 426.464,-53.2367 420.61,-62.0675 427.394,-63.7906"/>
</g>
<!-- 12 -->
<g id="node13" class="node"><title>12</title>
<polygon fill="#39e581" fill-opacity="0.078431" stroke="black" points="692.5,-157 527.5,-157 527.5,-89 692.5,-89 692.5,-157"/>
<text text-anchor="middle" x="610" y="-141.8" font-family="Times,serif" font-size="14.00">negative_NRC &lt;= 20.6968</text>
<text text-anchor="middle" x="610" y="-126.8" font-family="Times,serif" font-size="14.00">samples = 24</text>
<text text-anchor="middle" x="610" y="-111.8" font-family="Times,serif" font-size="14.00">value = [11, 12, 1]</text>
<text text-anchor="middle" x="610" y="-96.8" font-family="Times,serif" font-size="14.00">class = 0.5</text>
</g>
<!-- 11&#45;&gt;12 -->
<g id="edge12" class="edge"><title>11&#45;&gt;12</title>
<path fill="none" stroke="black" d="M678.208,-192.884C669.3,-183.887 659.55,-174.041 650.28,-164.678"/>
<polygon fill="black" stroke="black" points="652.496,-161.943 642.973,-157.299 647.522,-166.868 652.496,-161.943"/>
</g>
<!-- 15 -->
<g id="node16" class="node"><title>15</title>
<polygon fill="#39e581" fill-opacity="0.874510" stroke="black" points="935.5,-157 710.5,-157 710.5,-89 935.5,-89 935.5,-157"/>
<text text-anchor="middle" x="823" y="-141.8" font-family="Times,serif" font-size="14.00">narrated_emotional_NRC &lt;= 55.6334</text>
<text text-anchor="middle" x="823" y="-126.8" font-family="Times,serif" font-size="14.00">samples = 26</text>
<text text-anchor="middle" x="823" y="-111.8" font-family="Times,serif" font-size="14.00">value = [2, 23, 1]</text>
<text text-anchor="middle" x="823" y="-96.8" font-family="Times,serif" font-size="14.00">class = 0.5</text>
</g>
<!-- 11&#45;&gt;15 -->
<g id="edge15" class="edge"><title>11&#45;&gt;15</title>
<path fill="none" stroke="black" d="M747.363,-192.884C757.437,-183.709 768.482,-173.65 778.944,-164.123"/>
<polygon fill="black" stroke="black" points="781.399,-166.62 786.436,-157.299 776.686,-161.445 781.399,-166.62"/>
</g>
<!-- 13 -->
<g id="node14" class="node"><title>13</title>
<polygon fill="#e58139" fill-opacity="0.250980" stroke="black" points="617.5,-53 504.5,-53 504.5,-0 617.5,-0 617.5,-53"/>
<text text-anchor="middle" x="561" y="-37.8" font-family="Times,serif" font-size="14.00">samples = 20</text>
<text text-anchor="middle" x="561" y="-22.8" font-family="Times,serif" font-size="14.00">value = [11, 8, 1]</text>
<text text-anchor="middle" x="561" y="-7.8" font-family="Times,serif" font-size="14.00">class = 0.0</text>
</g>
<!-- 12&#45;&gt;13 -->
<g id="edge13" class="edge"><title>12&#45;&gt;13</title>
<path fill="none" stroke="black" d="M592.862,-88.9485C588.403,-80.3494 583.586,-71.0586 579.08,-62.3689"/>
<polygon fill="black" stroke="black" points="582.055,-60.5031 574.345,-53.2367 575.841,-63.7254 582.055,-60.5031"/>
</g>
<!-- 14 -->
<g id="node15" class="node"><title>14</title>
<polygon fill="#39e581" stroke="black" points="742,-53 636,-53 636,-0 742,-0 742,-53"/>
<text text-anchor="middle" x="689" y="-37.8" font-family="Times,serif" font-size="14.00">samples = 4</text>
<text text-anchor="middle" x="689" y="-22.8" font-family="Times,serif" font-size="14.00">value = [0, 4, 0]</text>
<text text-anchor="middle" x="689" y="-7.8" font-family="Times,serif" font-size="14.00">class = 0.5</text>
</g>
<!-- 12&#45;&gt;14 -->
<g id="edge14" class="edge"><title>12&#45;&gt;14</title>
<path fill="none" stroke="black" d="M637.63,-88.9485C645.201,-79.892 653.414,-70.0682 661.005,-60.9875"/>
<polygon fill="black" stroke="black" points="663.756,-63.1538 667.485,-53.2367 658.386,-58.6641 663.756,-63.1538"/>
</g>
<!-- 16 -->
<g id="node17" class="node"><title>16</title>
<polygon fill="#39e581" fill-opacity="0.913725" stroke="black" points="873.5,-53 760.5,-53 760.5,-0 873.5,-0 873.5,-53"/>
<text text-anchor="middle" x="817" y="-37.8" font-family="Times,serif" font-size="14.00">samples = 25</text>
<text text-anchor="middle" x="817" y="-22.8" font-family="Times,serif" font-size="14.00">value = [2, 23, 0]</text>
<text text-anchor="middle" x="817" y="-7.8" font-family="Times,serif" font-size="14.00">class = 0.5</text>
</g>
<!-- 15&#45;&gt;16 -->
<g id="edge16" class="edge"><title>15&#45;&gt;16</title>
<path fill="none" stroke="black" d="M820.901,-88.9485C820.379,-80.7153 819.816,-71.848 819.285,-63.4814"/>
<polygon fill="black" stroke="black" points="822.761,-62.9948 818.634,-53.2367 815.775,-63.4384 822.761,-62.9948"/>
</g>
<!-- 17 -->
<g id="node18" class="node"><title>17</title>
<polygon fill="#8139e5" stroke="black" points="998,-53 892,-53 892,-0 998,-0 998,-53"/>
<text text-anchor="middle" x="945" y="-37.8" font-family="Times,serif" font-size="14.00">samples = 1</text>
<text text-anchor="middle" x="945" y="-22.8" font-family="Times,serif" font-size="14.00">value = [0, 0, 1]</text>
<text text-anchor="middle" x="945" y="-7.8" font-family="Times,serif" font-size="14.00">class = 1.0</text>
</g>
<!-- 15&#45;&gt;17 -->
<g id="edge17" class="edge"><title>15&#45;&gt;17</title>
<path fill="none" stroke="black" d="M865.67,-88.9485C877.952,-79.4346 891.328,-69.074 903.536,-59.6175"/>
<polygon fill="black" stroke="black" points="906.011,-62.1274 911.774,-53.2367 901.725,-56.5934 906.011,-62.1274"/>
</g>
<!-- 19 -->
<g id="node20" class="node"><title>19</title>
<polygon fill="#e58139" fill-opacity="0.427451" stroke="black" points="1070.5,-365 845.5,-365 845.5,-297 1070.5,-297 1070.5,-365"/>
<text text-anchor="middle" x="958" y="-349.8" font-family="Times,serif" font-size="14.00">narrated_emotional_NRC &lt;= 16.1811</text>
<text text-anchor="middle" x="958" y="-334.8" font-family="Times,serif" font-size="14.00">samples = 10</text>
<text text-anchor="middle" x="958" y="-319.8" font-family="Times,serif" font-size="14.00">value = [6, 3, 1]</text>
<text text-anchor="middle" x="958" y="-304.8" font-family="Times,serif" font-size="14.00">class = 0.0</text>
</g>
<!-- 18&#45;&gt;19 -->
<g id="edge19" class="edge"><title>18&#45;&gt;19</title>
<path fill="none" stroke="black" d="M958,-400.884C958,-392.778 958,-383.982 958,-375.472"/>
<polygon fill="black" stroke="black" points="961.5,-375.299 958,-365.299 954.5,-375.299 961.5,-375.299"/>
</g>
<!-- 26 -->
<g id="node27" class="node"><title>26</title>
<polygon fill="#8139e5" fill-opacity="0.694118" stroke="black" points="1475.5,-365 1250.5,-365 1250.5,-297 1475.5,-297 1475.5,-365"/>
<text text-anchor="middle" x="1363" y="-349.8" font-family="Times,serif" font-size="14.00">narrated_emotional_NRC &lt;= 41.7346</text>
<text text-anchor="middle" x="1363" y="-334.8" font-family="Times,serif" font-size="14.00">samples = 27</text>
<text text-anchor="middle" x="1363" y="-319.8" font-family="Times,serif" font-size="14.00">value = [3, 4, 20]</text>
<text text-anchor="middle" x="1363" y="-304.8" font-family="Times,serif" font-size="14.00">class = 1.0</text>
</g>
<!-- 18&#45;&gt;26 -->
<g id="edge26" class="edge"><title>18&#45;&gt;26</title>
<path fill="none" stroke="black" d="M1037.05,-414.091C1094.85,-399.533 1174.36,-379.509 1240.38,-362.882"/>
<polygon fill="black" stroke="black" points="1241.59,-366.186 1250.44,-360.349 1239.89,-359.397 1241.59,-366.186"/>
</g>
<!-- 20 -->
<g id="node21" class="node"><title>20</title>
<polygon fill="#e58139" stroke="black" points="978,-253.5 872,-253.5 872,-200.5 978,-200.5 978,-253.5"/>
<text text-anchor="middle" x="925" y="-238.3" font-family="Times,serif" font-size="14.00">samples = 4</text>
<text text-anchor="middle" x="925" y="-223.3" font-family="Times,serif" font-size="14.00">value = [4, 0, 0]</text>
<text text-anchor="middle" x="925" y="-208.3" font-family="Times,serif" font-size="14.00">class = 0.0</text>
</g>
<!-- 19&#45;&gt;20 -->
<g id="edge20" class="edge"><title>19&#45;&gt;20</title>
<path fill="none" stroke="black" d="M947.286,-296.884C943.799,-286.106 939.917,-274.108 936.383,-263.184"/>
<polygon fill="black" stroke="black" points="939.665,-261.957 933.256,-253.52 933.005,-264.112 939.665,-261.957"/>
</g>
<!-- 21 -->
<g id="node22" class="node"><title>21</title>
<polygon fill="#39e581" fill-opacity="0.250980" stroke="black" points="1214,-261 996,-261 996,-193 1214,-193 1214,-261"/>
<text text-anchor="middle" x="1105" y="-245.8" font-family="Times,serif" font-size="14.00">speech_emotional_NRC &lt;= 34.6406</text>
<text text-anchor="middle" x="1105" y="-230.8" font-family="Times,serif" font-size="14.00">samples = 6</text>
<text text-anchor="middle" x="1105" y="-215.8" font-family="Times,serif" font-size="14.00">value = [2, 3, 1]</text>
<text text-anchor="middle" x="1105" y="-200.8" font-family="Times,serif" font-size="14.00">class = 0.5</text>
</g>
<!-- 19&#45;&gt;21 -->
<g id="edge21" class="edge"><title>19&#45;&gt;21</title>
<path fill="none" stroke="black" d="M1005.73,-296.884C1019.53,-287.304 1034.73,-276.761 1048.99,-266.864"/>
<polygon fill="black" stroke="black" points="1051.04,-269.701 1057.26,-261.125 1047.05,-263.95 1051.04,-269.701"/>
</g>
<!-- 22 -->
<g id="node23" class="node"><title>22</title>
<polygon fill="#e58139" fill-opacity="0.498039" stroke="black" points="1156,-157 982,-157 982,-89 1156,-89 1156,-157"/>
<text text-anchor="middle" x="1069" y="-141.8" font-family="Times,serif" font-size="14.00">emotional_NRC &lt;= 63.7554</text>
<text text-anchor="middle" x="1069" y="-126.8" font-family="Times,serif" font-size="14.00">samples = 3</text>
<text text-anchor="middle" x="1069" y="-111.8" font-family="Times,serif" font-size="14.00">value = [2, 0, 1]</text>
<text text-anchor="middle" x="1069" y="-96.8" font-family="Times,serif" font-size="14.00">class = 0.0</text>
</g>
<!-- 21&#45;&gt;22 -->
<g id="edge22" class="edge"><title>21&#45;&gt;22</title>
<path fill="none" stroke="black" d="M1093.31,-192.884C1090.39,-184.6 1087.21,-175.595 1084.15,-166.911"/>
<polygon fill="black" stroke="black" points="1087.38,-165.564 1080.75,-157.299 1080.78,-167.894 1087.38,-165.564"/>
</g>
<!-- 25 -->
<g id="node26" class="node"><title>25</title>
<polygon fill="#39e581" stroke="black" points="1280,-149.5 1174,-149.5 1174,-96.5 1280,-96.5 1280,-149.5"/>
<text text-anchor="middle" x="1227" y="-134.3" font-family="Times,serif" font-size="14.00">samples = 3</text>
<text text-anchor="middle" x="1227" y="-119.3" font-family="Times,serif" font-size="14.00">value = [0, 3, 0]</text>
<text text-anchor="middle" x="1227" y="-104.3" font-family="Times,serif" font-size="14.00">class = 0.5</text>
</g>
<!-- 21&#45;&gt;25 -->
<g id="edge25" class="edge"><title>21&#45;&gt;25</title>
<path fill="none" stroke="black" d="M1144.61,-192.884C1158.69,-181.116 1174.5,-167.894 1188.48,-156.203"/>
<polygon fill="black" stroke="black" points="1191.05,-158.619 1196.48,-149.52 1186.56,-153.249 1191.05,-158.619"/>
</g>
<!-- 23 -->
<g id="node24" class="node"><title>23</title>
<polygon fill="#e58139" stroke="black" points="1122,-53 1016,-53 1016,-0 1122,-0 1122,-53"/>
<text text-anchor="middle" x="1069" y="-37.8" font-family="Times,serif" font-size="14.00">samples = 2</text>
<text text-anchor="middle" x="1069" y="-22.8" font-family="Times,serif" font-size="14.00">value = [2, 0, 0]</text>
<text text-anchor="middle" x="1069" y="-7.8" font-family="Times,serif" font-size="14.00">class = 0.0</text>
</g>
<!-- 22&#45;&gt;23 -->
<g id="edge23" class="edge"><title>22&#45;&gt;23</title>
<path fill="none" stroke="black" d="M1069,-88.9485C1069,-80.7153 1069,-71.848 1069,-63.4814"/>
<polygon fill="black" stroke="black" points="1072.5,-63.2367 1069,-53.2367 1065.5,-63.2367 1072.5,-63.2367"/>
</g>
<!-- 24 -->
<g id="node25" class="node"><title>24</title>
<polygon fill="#8139e5" stroke="black" points="1246,-53 1140,-53 1140,-0 1246,-0 1246,-53"/>
<text text-anchor="middle" x="1193" y="-37.8" font-family="Times,serif" font-size="14.00">samples = 1</text>
<text text-anchor="middle" x="1193" y="-22.8" font-family="Times,serif" font-size="14.00">value = [0, 0, 1]</text>
<text text-anchor="middle" x="1193" y="-7.8" font-family="Times,serif" font-size="14.00">class = 1.0</text>
</g>
<!-- 22&#45;&gt;24 -->
<g id="edge24" class="edge"><title>22&#45;&gt;24</title>
<path fill="none" stroke="black" d="M1112.37,-88.9485C1124.97,-79.3431 1138.71,-68.8747 1151.21,-59.345"/>
<polygon fill="black" stroke="black" points="1153.4,-62.0819 1159.23,-53.2367 1149.15,-56.5144 1153.4,-62.0819"/>
</g>
<!-- 27 -->
<g id="node28" class="node"><title>27</title>
<polygon fill="#8139e5" fill-opacity="0.858824" stroke="black" points="1467,-261 1259,-261 1259,-193 1467,-193 1467,-261"/>
<text text-anchor="middle" x="1363" y="-245.8" font-family="Times,serif" font-size="14.00">narrated_neutral_NRC &lt;= 18.5185</text>
<text text-anchor="middle" x="1363" y="-230.8" font-family="Times,serif" font-size="14.00">samples = 23</text>
<text text-anchor="middle" x="1363" y="-215.8" font-family="Times,serif" font-size="14.00">value = [2, 1, 20]</text>
<text text-anchor="middle" x="1363" y="-200.8" font-family="Times,serif" font-size="14.00">class = 1.0</text>
</g>
<!-- 26&#45;&gt;27 -->
<g id="edge27" class="edge"><title>26&#45;&gt;27</title>
<path fill="none" stroke="black" d="M1363,-296.884C1363,-288.778 1363,-279.982 1363,-271.472"/>
<polygon fill="black" stroke="black" points="1366.5,-271.299 1363,-261.299 1359.5,-271.299 1366.5,-271.299"/>
</g>
<!-- 32 -->
<g id="node33" class="node"><title>32</title>
<polygon fill="#39e581" fill-opacity="0.666667" stroke="black" points="1719.5,-261 1494.5,-261 1494.5,-193 1719.5,-193 1719.5,-261"/>
<text text-anchor="middle" x="1607" y="-245.8" font-family="Times,serif" font-size="14.00">narrated_emotional_NRC &lt;= 50.6851</text>
<text text-anchor="middle" x="1607" y="-230.8" font-family="Times,serif" font-size="14.00">samples = 4</text>
<text text-anchor="middle" x="1607" y="-215.8" font-family="Times,serif" font-size="14.00">value = [1, 3, 0]</text>
<text text-anchor="middle" x="1607" y="-200.8" font-family="Times,serif" font-size="14.00">class = 0.5</text>
</g>
<!-- 26&#45;&gt;32 -->
<g id="edge32" class="edge"><title>26&#45;&gt;32</title>
<path fill="none" stroke="black" d="M1442.22,-296.884C1466.53,-286.722 1493.43,-275.476 1518.33,-265.069"/>
<polygon fill="black" stroke="black" points="1519.88,-268.211 1527.76,-261.125 1517.18,-261.752 1519.88,-268.211"/>
</g>
<!-- 28 -->
<g id="node29" class="node"><title>28</title>
<polygon fill="#8139e5" fill-opacity="0.905882" stroke="black" points="1411.5,-157 1298.5,-157 1298.5,-89 1411.5,-89 1411.5,-157"/>
<text text-anchor="middle" x="1355" y="-141.8" font-family="Times,serif" font-size="14.00">section &lt;= 1.5</text>
<text text-anchor="middle" x="1355" y="-126.8" font-family="Times,serif" font-size="14.00">samples = 22</text>
<text text-anchor="middle" x="1355" y="-111.8" font-family="Times,serif" font-size="14.00">value = [1, 1, 20]</text>
<text text-anchor="middle" x="1355" y="-96.8" font-family="Times,serif" font-size="14.00">class = 1.0</text>
</g>
<!-- 27&#45;&gt;28 -->
<g id="edge28" class="edge"><title>27&#45;&gt;28</title>
<path fill="none" stroke="black" d="M1360.4,-192.884C1359.77,-184.778 1359.08,-175.982 1358.41,-167.472"/>
<polygon fill="black" stroke="black" points="1361.88,-166.995 1357.61,-157.299 1354.9,-167.542 1361.88,-166.995"/>
</g>
<!-- 31 -->
<g id="node32" class="node"><title>31</title>
<polygon fill="#e58139" stroke="black" points="1536,-149.5 1430,-149.5 1430,-96.5 1536,-96.5 1536,-149.5"/>
<text text-anchor="middle" x="1483" y="-134.3" font-family="Times,serif" font-size="14.00">samples = 1</text>
<text text-anchor="middle" x="1483" y="-119.3" font-family="Times,serif" font-size="14.00">value = [1, 0, 0]</text>
<text text-anchor="middle" x="1483" y="-104.3" font-family="Times,serif" font-size="14.00">class = 0.0</text>
</g>
<!-- 27&#45;&gt;31 -->
<g id="edge31" class="edge"><title>27&#45;&gt;31</title>
<path fill="none" stroke="black" d="M1401.96,-192.884C1415.8,-181.116 1431.36,-167.894 1445.11,-156.203"/>
<polygon fill="black" stroke="black" points="1447.62,-158.663 1452.98,-149.52 1443.09,-153.33 1447.62,-158.663"/>
</g>
<!-- 29 -->
<g id="node30" class="node"><title>29</title>
<polygon fill="#8139e5" fill-opacity="0.498039" stroke="black" points="1389,-53 1283,-53 1283,-0 1389,-0 1389,-53"/>
<text text-anchor="middle" x="1336" y="-37.8" font-family="Times,serif" font-size="14.00">samples = 5</text>
<text text-anchor="middle" x="1336" y="-22.8" font-family="Times,serif" font-size="14.00">value = [1, 1, 3]</text>
<text text-anchor="middle" x="1336" y="-7.8" font-family="Times,serif" font-size="14.00">class = 1.0</text>
</g>
<!-- 28&#45;&gt;29 -->
<g id="edge29" class="edge"><title>28&#45;&gt;29</title>
<path fill="none" stroke="black" d="M1348.35,-88.9485C1346.68,-80.6238 1344.88,-71.6509 1343.18,-63.2027"/>
<polygon fill="black" stroke="black" points="1346.58,-62.3506 1341.17,-53.2367 1339.71,-63.7304 1346.58,-62.3506"/>
</g>
<!-- 30 -->
<g id="node31" class="node"><title>30</title>
<polygon fill="#8139e5" stroke="black" points="1520.5,-53 1407.5,-53 1407.5,-0 1520.5,-0 1520.5,-53"/>
<text text-anchor="middle" x="1464" y="-37.8" font-family="Times,serif" font-size="14.00">samples = 17</text>
<text text-anchor="middle" x="1464" y="-22.8" font-family="Times,serif" font-size="14.00">value = [0, 0, 17]</text>
<text text-anchor="middle" x="1464" y="-7.8" font-family="Times,serif" font-size="14.00">class = 1.0</text>
</g>
<!-- 28&#45;&gt;30 -->
<g id="edge30" class="edge"><title>28&#45;&gt;30</title>
<path fill="none" stroke="black" d="M1393.12,-88.9485C1403.99,-79.526 1415.82,-69.2731 1426.64,-59.8906"/>
<polygon fill="black" stroke="black" points="1429.05,-62.4319 1434.31,-53.2367 1424.47,-57.1428 1429.05,-62.4319"/>
</g>
<!-- 33 -->
<g id="node34" class="node"><title>33</title>
<polygon fill="#39e581" stroke="black" points="1660,-149.5 1554,-149.5 1554,-96.5 1660,-96.5 1660,-149.5"/>
<text text-anchor="middle" x="1607" y="-134.3" font-family="Times,serif" font-size="14.00">samples = 3</text>
<text text-anchor="middle" x="1607" y="-119.3" font-family="Times,serif" font-size="14.00">value = [0, 3, 0]</text>
<text text-anchor="middle" x="1607" y="-104.3" font-family="Times,serif" font-size="14.00">class = 0.5</text>
</g>
<!-- 32&#45;&gt;33 -->
<g id="edge33" class="edge"><title>32&#45;&gt;33</title>
<path fill="none" stroke="black" d="M1607,-192.884C1607,-182.326 1607,-170.597 1607,-159.854"/>
<polygon fill="black" stroke="black" points="1610.5,-159.52 1607,-149.52 1603.5,-159.52 1610.5,-159.52"/>
</g>
<!-- 34 -->
<g id="node35" class="node"><title>34</title>
<polygon fill="#e58139" stroke="black" points="1784,-149.5 1678,-149.5 1678,-96.5 1784,-96.5 1784,-149.5"/>
<text text-anchor="middle" x="1731" y="-134.3" font-family="Times,serif" font-size="14.00">samples = 1</text>
<text text-anchor="middle" x="1731" y="-119.3" font-family="Times,serif" font-size="14.00">value = [1, 0, 0]</text>
<text text-anchor="middle" x="1731" y="-104.3" font-family="Times,serif" font-size="14.00">class = 0.0</text>
</g>
<!-- 32&#45;&gt;34 -->
<g id="edge34" class="edge"><title>32&#45;&gt;34</title>
<path fill="none" stroke="black" d="M1647.26,-192.884C1661.7,-181.006 1677.94,-167.646 1692.25,-155.876"/>
<polygon fill="black" stroke="black" points="1694.48,-158.576 1699.98,-149.52 1690.03,-153.17 1694.48,-158.576"/>
</g>
</g>
</svg>
