<?xml version="1.0" encoding="UTF-8" standalone="no"?>
<!DOCTYPE svg PUBLIC "-//W3C//DTD SVG 1.1//EN"
 "http://www.w3.org/Graphics/SVG/1.1/DTD/svg11.dtd">
<!-- Generated by graphviz version 2.38.0 (20140413.2041)
 -->
<!-- Title: Tree Pages: 1 -->
<svg width="1420pt" height="477pt"
 viewBox="0.00 0.00 1420.00 477.00" xmlns="http://www.w3.org/2000/svg" xmlns:xlink="http://www.w3.org/1999/xlink">
<g id="graph0" class="graph" transform="scale(1 1) rotate(0) translate(4 473)">
<title>Tree</title>
<polygon fill="white" stroke="none" points="-4,4 -4,-473 1416,-473 1416,4 -4,4"/>
<!-- 0 -->
<g id="node1" class="node"><title>0</title>
<polygon fill="#399de5" fill-opacity="0.047059" stroke="black" points="900,-469 682,-469 682,-401 900,-401 900,-469"/>
<text text-anchor="middle" x="791" y="-453.8" font-family="Times,serif" font-size="14.00">speech_emotional_NRC &lt;= 16.5845</text>
<text text-anchor="middle" x="791" y="-438.8" font-family="Times,serif" font-size="14.00">samples = 112</text>
<text text-anchor="middle" x="791" y="-423.8" font-family="Times,serif" font-size="14.00">value = [22, 30, 34, 26]</text>
<text text-anchor="middle" x="791" y="-408.8" font-family="Times,serif" font-size="14.00">class = sentimental</text>
</g>
<!-- 1 -->
<g id="node2" class="node"><title>1</title>
<polygon fill="#d739e5" fill-opacity="0.066667" stroke="black" points="733,-365 559,-365 559,-297 733,-297 733,-365"/>
<text text-anchor="middle" x="646" y="-349.8" font-family="Times,serif" font-size="14.00">emotional_NRC &lt;= 58.7417</text>
<text text-anchor="middle" x="646" y="-334.8" font-family="Times,serif" font-size="14.00">samples = 63</text>
<text text-anchor="middle" x="646" y="-319.8" font-family="Times,serif" font-size="14.00">value = [18, 19, 4, 22]</text>
<text text-anchor="middle" x="646" y="-304.8" font-family="Times,serif" font-size="14.00">class = sociopolitical</text>
</g>
<!-- 0&#45;&gt;1 -->
<g id="edge1" class="edge"><title>0&#45;&gt;1</title>
<path fill="none" stroke="black" d="M743.923,-400.884C730.5,-391.442 715.747,-381.064 701.856,-371.292"/>
<polygon fill="black" stroke="black" points="703.53,-368.19 693.337,-365.299 699.503,-373.916 703.53,-368.19"/>
<text text-anchor="middle" x="697.625" y="-386.229" font-family="Times,serif" font-size="14.00">True</text>
</g>
<!-- 12 -->
<g id="node13" class="node"><title>12</title>
<polygon fill="#399de5" fill-opacity="0.501961" stroke="black" points="1002,-365 868,-365 868,-297 1002,-297 1002,-365"/>
<text text-anchor="middle" x="935" y="-349.8" font-family="Times,serif" font-size="14.00">narrated &lt;= 65.6115</text>
<text text-anchor="middle" x="935" y="-334.8" font-family="Times,serif" font-size="14.00">samples = 49</text>
<text text-anchor="middle" x="935" y="-319.8" font-family="Times,serif" font-size="14.00">value = [4, 11, 30, 4]</text>
<text text-anchor="middle" x="935" y="-304.8" font-family="Times,serif" font-size="14.00">class = sentimental</text>
</g>
<!-- 0&#45;&gt;12 -->
<g id="edge12" class="edge"><title>0&#45;&gt;12</title>
<path fill="none" stroke="black" d="M837.753,-400.884C851.082,-391.442 865.734,-381.064 879.529,-371.292"/>
<polygon fill="black" stroke="black" points="881.852,-373.936 887.989,-365.299 877.806,-368.223 881.852,-373.936"/>
<text text-anchor="middle" x="883.782" y="-386.243" font-family="Times,serif" font-size="14.00">False</text>
</g>
<!-- 2 -->
<g id="node3" class="node"><title>2</title>
<polygon fill="#d739e5" fill-opacity="0.121569" stroke="black" points="492.5,-261 335.5,-261 335.5,-193 492.5,-193 492.5,-261"/>
<text text-anchor="middle" x="414" y="-245.8" font-family="Times,serif" font-size="14.00">neutral_NRC &lt;= 62.8496</text>
<text text-anchor="middle" x="414" y="-230.8" font-family="Times,serif" font-size="14.00">samples = 51</text>
<text text-anchor="middle" x="414" y="-215.8" font-family="Times,serif" font-size="14.00">value = [18, 9, 2, 22]</text>
<text text-anchor="middle" x="414" y="-200.8" font-family="Times,serif" font-size="14.00">class = sociopolitical</text>
</g>
<!-- 1&#45;&gt;2 -->
<g id="edge2" class="edge"><title>1&#45;&gt;2</title>
<path fill="none" stroke="black" d="M570.676,-296.884C547.666,-286.767 522.21,-275.575 498.626,-265.206"/>
<polygon fill="black" stroke="black" points="499.906,-261.946 489.343,-261.125 497.088,-268.354 499.906,-261.946"/>
</g>
<!-- 9 -->
<g id="node10" class="node"><title>9</title>
<polygon fill="#47e539" fill-opacity="0.800000" stroke="black" points="728.5,-261 563.5,-261 563.5,-193 728.5,-193 728.5,-261"/>
<text text-anchor="middle" x="646" y="-245.8" font-family="Times,serif" font-size="14.00">negative_NRC &lt;= 17.8355</text>
<text text-anchor="middle" x="646" y="-230.8" font-family="Times,serif" font-size="14.00">samples = 12</text>
<text text-anchor="middle" x="646" y="-215.8" font-family="Times,serif" font-size="14.00">value = [0, 10, 2, 0]</text>
<text text-anchor="middle" x="646" y="-200.8" font-family="Times,serif" font-size="14.00">class = historical</text>
</g>
<!-- 1&#45;&gt;9 -->
<g id="edge9" class="edge"><title>1&#45;&gt;9</title>
<path fill="none" stroke="black" d="M646,-296.884C646,-288.778 646,-279.982 646,-271.472"/>
<polygon fill="black" stroke="black" points="649.5,-271.299 646,-261.299 642.5,-271.299 649.5,-271.299"/>
</g>
<!-- 3 -->
<g id="node4" class="node"><title>3</title>
<polygon fill="#d739e5" fill-opacity="0.388235" stroke="black" points="287,-157 79,-157 79,-89 287,-89 287,-157"/>
<text text-anchor="middle" x="183" y="-141.8" font-family="Times,serif" font-size="14.00">narrated_neutral_NRC &lt;= 27.9151</text>
<text text-anchor="middle" x="183" y="-126.8" font-family="Times,serif" font-size="14.00">samples = 40</text>
<text text-anchor="middle" x="183" y="-111.8" font-family="Times,serif" font-size="14.00">value = [8, 9, 2, 21]</text>
<text text-anchor="middle" x="183" y="-96.8" font-family="Times,serif" font-size="14.00">class = sociopolitical</text>
</g>
<!-- 2&#45;&gt;3 -->
<g id="edge3" class="edge"><title>2&#45;&gt;3</title>
<path fill="none" stroke="black" d="M339.001,-192.884C316.09,-182.767 290.744,-171.575 267.261,-161.206"/>
<polygon fill="black" stroke="black" points="268.579,-157.962 258.018,-157.125 265.752,-164.366 268.579,-157.962"/>
</g>
<!-- 6 -->
<g id="node7" class="node"><title>6</title>
<polygon fill="#e58139" fill-opacity="0.901961" stroke="black" points="523,-157 305,-157 305,-89 523,-89 523,-157"/>
<text text-anchor="middle" x="414" y="-141.8" font-family="Times,serif" font-size="14.00">speech_emotional_NRC &lt;= 15.1323</text>
<text text-anchor="middle" x="414" y="-126.8" font-family="Times,serif" font-size="14.00">samples = 11</text>
<text text-anchor="middle" x="414" y="-111.8" font-family="Times,serif" font-size="14.00">value = [10, 0, 0, 1]</text>
<text text-anchor="middle" x="414" y="-96.8" font-family="Times,serif" font-size="14.00">class = costumbrista</text>
</g>
<!-- 2&#45;&gt;6 -->
<g id="edge6" class="edge"><title>2&#45;&gt;6</title>
<path fill="none" stroke="black" d="M414,-192.884C414,-184.778 414,-175.982 414,-167.472"/>
<polygon fill="black" stroke="black" points="417.5,-167.299 414,-157.299 410.5,-167.299 417.5,-167.299"/>
</g>
<!-- 4 -->
<g id="node5" class="node"><title>4</title>
<polygon fill="#47e539" fill-opacity="0.062745" stroke="black" points="120,-53 7.10543e-15,-53 7.10543e-15,-0 120,-0 120,-53"/>
<text text-anchor="middle" x="60" y="-37.8" font-family="Times,serif" font-size="14.00">samples = 24</text>
<text text-anchor="middle" x="60" y="-22.8" font-family="Times,serif" font-size="14.00">value = [6, 9, 1, 8]</text>
<text text-anchor="middle" x="60" y="-7.8" font-family="Times,serif" font-size="14.00">class = historical</text>
</g>
<!-- 3&#45;&gt;4 -->
<g id="edge4" class="edge"><title>3&#45;&gt;4</title>
<path fill="none" stroke="black" d="M139.981,-88.9485C127.478,-79.3431 113.853,-68.8747 101.449,-59.345"/>
<polygon fill="black" stroke="black" points="103.561,-56.5537 93.4986,-53.2367 99.2961,-62.1046 103.561,-56.5537"/>
</g>
<!-- 5 -->
<g id="node6" class="node"><title>5</title>
<polygon fill="#d739e5" fill-opacity="0.784314" stroke="black" points="269.5,-53 138.5,-53 138.5,-0 269.5,-0 269.5,-53"/>
<text text-anchor="middle" x="204" y="-37.8" font-family="Times,serif" font-size="14.00">samples = 16</text>
<text text-anchor="middle" x="204" y="-22.8" font-family="Times,serif" font-size="14.00">value = [2, 0, 1, 13]</text>
<text text-anchor="middle" x="204" y="-7.8" font-family="Times,serif" font-size="14.00">class = sociopolitical</text>
</g>
<!-- 3&#45;&gt;5 -->
<g id="edge5" class="edge"><title>3&#45;&gt;5</title>
<path fill="none" stroke="black" d="M190.345,-88.9485C192.195,-80.6238 194.189,-71.6509 196.066,-63.2027"/>
<polygon fill="black" stroke="black" points="199.528,-63.7579 198.281,-53.2367 192.695,-62.2393 199.528,-63.7579"/>
</g>
<!-- 7 -->
<g id="node8" class="node"><title>7</title>
<polygon fill="#e58139" stroke="black" points="437,-53 309,-53 309,-0 437,-0 437,-53"/>
<text text-anchor="middle" x="373" y="-37.8" font-family="Times,serif" font-size="14.00">samples = 10</text>
<text text-anchor="middle" x="373" y="-22.8" font-family="Times,serif" font-size="14.00">value = [10, 0, 0, 0]</text>
<text text-anchor="middle" x="373" y="-7.8" font-family="Times,serif" font-size="14.00">class = costumbrista</text>
</g>
<!-- 6&#45;&gt;7 -->
<g id="edge7" class="edge"><title>6&#45;&gt;7</title>
<path fill="none" stroke="black" d="M399.66,-88.9485C395.969,-80.4408 391.984,-71.2562 388.249,-62.6464"/>
<polygon fill="black" stroke="black" points="391.357,-61.0174 384.166,-53.2367 384.936,-63.8036 391.357,-61.0174"/>
</g>
<!-- 8 -->
<g id="node9" class="node"><title>8</title>
<polygon fill="#d739e5" stroke="black" points="586.5,-53 455.5,-53 455.5,-0 586.5,-0 586.5,-53"/>
<text text-anchor="middle" x="521" y="-37.8" font-family="Times,serif" font-size="14.00">samples = 1</text>
<text text-anchor="middle" x="521" y="-22.8" font-family="Times,serif" font-size="14.00">value = [0, 0, 0, 1]</text>
<text text-anchor="middle" x="521" y="-7.8" font-family="Times,serif" font-size="14.00">class = sociopolitical</text>
</g>
<!-- 6&#45;&gt;8 -->
<g id="edge8" class="edge"><title>6&#45;&gt;8</title>
<path fill="none" stroke="black" d="M451.423,-88.9485C462.092,-79.526 473.701,-69.2731 484.325,-59.8906"/>
<polygon fill="black" stroke="black" points="486.681,-62.4798 491.859,-53.2367 482.047,-57.2331 486.681,-62.4798"/>
</g>
<!-- 10 -->
<g id="node11" class="node"><title>10</title>
<polygon fill="#399de5" stroke="black" points="663,-149.5 541,-149.5 541,-96.5 663,-96.5 663,-149.5"/>
<text text-anchor="middle" x="602" y="-134.3" font-family="Times,serif" font-size="14.00">samples = 2</text>
<text text-anchor="middle" x="602" y="-119.3" font-family="Times,serif" font-size="14.00">value = [0, 0, 2, 0]</text>
<text text-anchor="middle" x="602" y="-104.3" font-family="Times,serif" font-size="14.00">class = sentimental</text>
</g>
<!-- 9&#45;&gt;10 -->
<g id="edge10" class="edge"><title>9&#45;&gt;10</title>
<path fill="none" stroke="black" d="M631.714,-192.884C627.018,-181.996 621.784,-169.863 617.033,-158.85"/>
<polygon fill="black" stroke="black" points="620.183,-157.316 613.009,-149.52 613.756,-160.088 620.183,-157.316"/>
</g>
<!-- 11 -->
<g id="node12" class="node"><title>11</title>
<polygon fill="#47e539" stroke="black" points="808.5,-149.5 681.5,-149.5 681.5,-96.5 808.5,-96.5 808.5,-149.5"/>
<text text-anchor="middle" x="745" y="-134.3" font-family="Times,serif" font-size="14.00">samples = 10</text>
<text text-anchor="middle" x="745" y="-119.3" font-family="Times,serif" font-size="14.00">value = [0, 10, 0, 0]</text>
<text text-anchor="middle" x="745" y="-104.3" font-family="Times,serif" font-size="14.00">class = historical</text>
</g>
<!-- 9&#45;&gt;11 -->
<g id="edge11" class="edge"><title>9&#45;&gt;11</title>
<path fill="none" stroke="black" d="M678.142,-192.884C689.351,-181.336 701.918,-168.387 713.106,-156.86"/>
<polygon fill="black" stroke="black" points="715.777,-159.133 720.231,-149.52 710.754,-154.258 715.777,-159.133"/>
</g>
<!-- 13 -->
<g id="node14" class="node"><title>13</title>
<polygon fill="#399de5" fill-opacity="0.674510" stroke="black" points="1035.5,-261 834.5,-261 834.5,-193 1035.5,-193 1035.5,-261"/>
<text text-anchor="middle" x="935" y="-245.8" font-family="Times,serif" font-size="14.00">narrated_neutral_NRC &lt;= 6.7615</text>
<text text-anchor="middle" x="935" y="-230.8" font-family="Times,serif" font-size="14.00">samples = 42</text>
<text text-anchor="middle" x="935" y="-215.8" font-family="Times,serif" font-size="14.00">value = [3, 5, 30, 4]</text>
<text text-anchor="middle" x="935" y="-200.8" font-family="Times,serif" font-size="14.00">class = sentimental</text>
</g>
<!-- 12&#45;&gt;13 -->
<g id="edge13" class="edge"><title>12&#45;&gt;13</title>
<path fill="none" stroke="black" d="M935,-296.884C935,-288.778 935,-279.982 935,-271.472"/>
<polygon fill="black" stroke="black" points="938.5,-271.299 935,-261.299 931.5,-271.299 938.5,-271.299"/>
</g>
<!-- 18 -->
<g id="node19" class="node"><title>18</title>
<polygon fill="#47e539" fill-opacity="0.831373" stroke="black" points="1315,-261 1097,-261 1097,-193 1315,-193 1315,-261"/>
<text text-anchor="middle" x="1206" y="-245.8" font-family="Times,serif" font-size="14.00">speech_emotional_NRC &lt;= 22.5564</text>
<text text-anchor="middle" x="1206" y="-230.8" font-family="Times,serif" font-size="14.00">samples = 7</text>
<text text-anchor="middle" x="1206" y="-215.8" font-family="Times,serif" font-size="14.00">value = [1, 6, 0, 0]</text>
<text text-anchor="middle" x="1206" y="-200.8" font-family="Times,serif" font-size="14.00">class = historical</text>
</g>
<!-- 12&#45;&gt;18 -->
<g id="edge18" class="edge"><title>12&#45;&gt;18</title>
<path fill="none" stroke="black" d="M1002.34,-304.655C1034.5,-292.55 1073.59,-277.838 1108.89,-264.552"/>
<polygon fill="black" stroke="black" points="1110.13,-267.825 1118.25,-261.027 1107.66,-261.274 1110.13,-267.825"/>
</g>
<!-- 14 -->
<g id="node15" class="node"><title>14</title>
<polygon fill="#d739e5" stroke="black" points="957.5,-149.5 826.5,-149.5 826.5,-96.5 957.5,-96.5 957.5,-149.5"/>
<text text-anchor="middle" x="892" y="-134.3" font-family="Times,serif" font-size="14.00">samples = 3</text>
<text text-anchor="middle" x="892" y="-119.3" font-family="Times,serif" font-size="14.00">value = [0, 0, 0, 3]</text>
<text text-anchor="middle" x="892" y="-104.3" font-family="Times,serif" font-size="14.00">class = sociopolitical</text>
</g>
<!-- 13&#45;&gt;14 -->
<g id="edge14" class="edge"><title>13&#45;&gt;14</title>
<path fill="none" stroke="black" d="M921.039,-192.884C916.449,-181.996 911.334,-169.863 906.692,-158.85"/>
<polygon fill="black" stroke="black" points="909.868,-157.375 902.758,-149.52 903.418,-160.094 909.868,-157.375"/>
</g>
<!-- 15 -->
<g id="node16" class="node"><title>15</title>
<polygon fill="#399de5" fill-opacity="0.737255" stroke="black" points="1128,-157 976,-157 976,-89 1128,-89 1128,-157"/>
<text text-anchor="middle" x="1052" y="-141.8" font-family="Times,serif" font-size="14.00">negative_NRC &lt;= 4.647</text>
<text text-anchor="middle" x="1052" y="-126.8" font-family="Times,serif" font-size="14.00">samples = 39</text>
<text text-anchor="middle" x="1052" y="-111.8" font-family="Times,serif" font-size="14.00">value = [3, 5, 30, 1]</text>
<text text-anchor="middle" x="1052" y="-96.8" font-family="Times,serif" font-size="14.00">class = sentimental</text>
</g>
<!-- 13&#45;&gt;15 -->
<g id="edge15" class="edge"><title>13&#45;&gt;15</title>
<path fill="none" stroke="black" d="M972.987,-192.884C983.51,-183.709 995.048,-173.65 1005.98,-164.123"/>
<polygon fill="black" stroke="black" points="1008.57,-166.509 1013.8,-157.299 1003.97,-161.233 1008.57,-166.509"/>
</g>
<!-- 16 -->
<g id="node17" class="node"><title>16</title>
<polygon fill="#e58139" stroke="black" points="1043,-53 915,-53 915,-0 1043,-0 1043,-53"/>
<text text-anchor="middle" x="979" y="-37.8" font-family="Times,serif" font-size="14.00">samples = 1</text>
<text text-anchor="middle" x="979" y="-22.8" font-family="Times,serif" font-size="14.00">value = [1, 0, 0, 0]</text>
<text text-anchor="middle" x="979" y="-7.8" font-family="Times,serif" font-size="14.00">class = costumbrista</text>
</g>
<!-- 15&#45;&gt;16 -->
<g id="edge16" class="edge"><title>15&#45;&gt;16</title>
<path fill="none" stroke="black" d="M1026.47,-88.9485C1019.54,-79.9834 1012.04,-70.2666 1005.08,-61.2629"/>
<polygon fill="black" stroke="black" points="1007.76,-59.0108 998.881,-53.2367 1002.22,-63.2902 1007.76,-59.0108"/>
</g>
<!-- 17 -->
<g id="node18" class="node"><title>17</title>
<polygon fill="#399de5" fill-opacity="0.756863" stroke="black" points="1188.5,-53 1061.5,-53 1061.5,-0 1188.5,-0 1188.5,-53"/>
<text text-anchor="middle" x="1125" y="-37.8" font-family="Times,serif" font-size="14.00">samples = 38</text>
<text text-anchor="middle" x="1125" y="-22.8" font-family="Times,serif" font-size="14.00">value = [2, 5, 30, 1]</text>
<text text-anchor="middle" x="1125" y="-7.8" font-family="Times,serif" font-size="14.00">class = sentimental</text>
</g>
<!-- 15&#45;&gt;17 -->
<g id="edge17" class="edge"><title>15&#45;&gt;17</title>
<path fill="none" stroke="black" d="M1077.53,-88.9485C1084.46,-79.9834 1091.96,-70.2666 1098.92,-61.2629"/>
<polygon fill="black" stroke="black" points="1101.78,-63.2902 1105.12,-53.2367 1096.24,-59.0108 1101.78,-63.2902"/>
</g>
<!-- 19 -->
<g id="node20" class="node"><title>19</title>
<polygon fill="#47e539" stroke="black" points="1266,-149.5 1146,-149.5 1146,-96.5 1266,-96.5 1266,-149.5"/>
<text text-anchor="middle" x="1206" y="-134.3" font-family="Times,serif" font-size="14.00">samples = 6</text>
<text text-anchor="middle" x="1206" y="-119.3" font-family="Times,serif" font-size="14.00">value = [0, 6, 0, 0]</text>
<text text-anchor="middle" x="1206" y="-104.3" font-family="Times,serif" font-size="14.00">class = historical</text>
</g>
<!-- 18&#45;&gt;19 -->
<g id="edge19" class="edge"><title>18&#45;&gt;19</title>
<path fill="none" stroke="black" d="M1206,-192.884C1206,-182.326 1206,-170.597 1206,-159.854"/>
<polygon fill="black" stroke="black" points="1209.5,-159.52 1206,-149.52 1202.5,-159.52 1209.5,-159.52"/>
</g>
<!-- 20 -->
<g id="node21" class="node"><title>20</title>
<polygon fill="#e58139" stroke="black" points="1412,-149.5 1284,-149.5 1284,-96.5 1412,-96.5 1412,-149.5"/>
<text text-anchor="middle" x="1348" y="-134.3" font-family="Times,serif" font-size="14.00">samples = 1</text>
<text text-anchor="middle" x="1348" y="-119.3" font-family="Times,serif" font-size="14.00">value = [1, 0, 0, 0]</text>
<text text-anchor="middle" x="1348" y="-104.3" font-family="Times,serif" font-size="14.00">class = costumbrista</text>
</g>
<!-- 18&#45;&gt;20 -->
<g id="edge20" class="edge"><title>18&#45;&gt;20</title>
<path fill="none" stroke="black" d="M1252.1,-192.884C1268.79,-180.896 1287.58,-167.399 1304.08,-155.549"/>
<polygon fill="black" stroke="black" points="1306.39,-158.197 1312.47,-149.52 1302.31,-152.511 1306.39,-158.197"/>
</g>
</g>
</svg>
