<?xml version="1.0" encoding="UTF-8" standalone="no"?>
<!DOCTYPE svg PUBLIC "-//W3C//DTD SVG 1.1//EN"
 "http://www.w3.org/Graphics/SVG/1.1/DTD/svg11.dtd">
<!-- Generated by graphviz version 2.38.0 (20140413.2041)
 -->
<!-- Title: Tree Pages: 1 -->
<svg width="1746pt" height="477pt"
 viewBox="0.00 0.00 1746.00 477.00" xmlns="http://www.w3.org/2000/svg" xmlns:xlink="http://www.w3.org/1999/xlink">
<g id="graph0" class="graph" transform="scale(1 1) rotate(0) translate(4 473)">
<title>Tree</title>
<polygon fill="white" stroke="none" points="-4,4 -4,-473 1742,-473 1742,4 -4,4"/>
<!-- 0 -->
<g id="node1" class="node"><title>0</title>
<polygon fill="#399de5" fill-opacity="0.047059" stroke="black" points="1195.5,-469 1048.5,-469 1048.5,-401 1195.5,-401 1195.5,-469"/>
<text text-anchor="middle" x="1122" y="-453.8" font-family="Times,serif" font-size="14.00">Fear_NRC &lt;= 6.4535</text>
<text text-anchor="middle" x="1122" y="-438.8" font-family="Times,serif" font-size="14.00">samples = 112</text>
<text text-anchor="middle" x="1122" y="-423.8" font-family="Times,serif" font-size="14.00">value = [22, 30, 34, 26]</text>
<text text-anchor="middle" x="1122" y="-408.8" font-family="Times,serif" font-size="14.00">class = sentimental</text>
</g>
<!-- 1 -->
<g id="node2" class="node"><title>1</title>
<polygon fill="#399de5" fill-opacity="0.109804" stroke="black" points="972,-365 774,-365 774,-297 972,-297 972,-365"/>
<text text-anchor="middle" x="873" y="-349.8" font-family="Times,serif" font-size="14.00">Disgust_NRC_narrated &lt;= 0.485</text>
<text text-anchor="middle" x="873" y="-334.8" font-family="Times,serif" font-size="14.00">samples = 78</text>
<text text-anchor="middle" x="873" y="-319.8" font-family="Times,serif" font-size="14.00">value = [22, 4, 29, 23]</text>
<text text-anchor="middle" x="873" y="-304.8" font-family="Times,serif" font-size="14.00">class = sentimental</text>
</g>
<!-- 0&#45;&gt;1 -->
<g id="edge1" class="edge"><title>0&#45;&gt;1</title>
<path fill="none" stroke="black" d="M1048.3,-403.811C1021.63,-392.885 991.208,-380.422 963.275,-368.98"/>
<polygon fill="black" stroke="black" points="964.487,-365.695 953.907,-365.143 961.834,-372.172 964.487,-365.695"/>
<text text-anchor="middle" x="963.564" y="-384.502" font-family="Times,serif" font-size="14.00">True</text>
</g>
<!-- 16 -->
<g id="node17" class="node"><title>16</title>
<polygon fill="#47e539" fill-opacity="0.725490" stroke="black" points="1363.5,-365 1212.5,-365 1212.5,-297 1363.5,-297 1363.5,-365"/>
<text text-anchor="middle" x="1288" y="-349.8" font-family="Times,serif" font-size="14.00">positive_WN &lt;= 11.038</text>
<text text-anchor="middle" x="1288" y="-334.8" font-family="Times,serif" font-size="14.00">samples = 34</text>
<text text-anchor="middle" x="1288" y="-319.8" font-family="Times,serif" font-size="14.00">value = [0, 26, 5, 3]</text>
<text text-anchor="middle" x="1288" y="-304.8" font-family="Times,serif" font-size="14.00">class = historical</text>
</g>
<!-- 0&#45;&gt;16 -->
<g id="edge16" class="edge"><title>0&#45;&gt;16</title>
<path fill="none" stroke="black" d="M1175.9,-400.884C1191.63,-391.214 1208.97,-380.563 1225.2,-370.587"/>
<polygon fill="black" stroke="black" points="1227.4,-373.342 1234.09,-365.125 1223.74,-367.378 1227.4,-373.342"/>
<text text-anchor="middle" x="1228.28" y="-385.741" font-family="Times,serif" font-size="14.00">False</text>
</g>
<!-- 2 -->
<g id="node3" class="node"><title>2</title>
<polygon fill="#399de5" fill-opacity="0.647059" stroke="black" points="514,-261 366,-261 366,-193 514,-193 514,-261"/>
<text text-anchor="middle" x="440" y="-245.8" font-family="Times,serif" font-size="14.00">Trust_NRC &lt;= 16.1612</text>
<text text-anchor="middle" x="440" y="-230.8" font-family="Times,serif" font-size="14.00">samples = 37</text>
<text text-anchor="middle" x="440" y="-215.8" font-family="Times,serif" font-size="14.00">value = [4, 1, 26, 6]</text>
<text text-anchor="middle" x="440" y="-200.8" font-family="Times,serif" font-size="14.00">class = sentimental</text>
</g>
<!-- 1&#45;&gt;2 -->
<g id="edge2" class="edge"><title>1&#45;&gt;2</title>
<path fill="none" stroke="black" d="M773.933,-306.663C698.47,-288.887 595.716,-264.681 524.199,-247.834"/>
<polygon fill="black" stroke="black" points="524.857,-244.394 514.321,-245.507 523.252,-251.207 524.857,-244.394"/>
</g>
<!-- 9 -->
<g id="node10" class="node"><title>9</title>
<polygon fill="#e58139" fill-opacity="0.043137" stroke="black" points="950,-261 796,-261 796,-193 950,-193 950,-261"/>
<text text-anchor="middle" x="873" y="-245.8" font-family="Times,serif" font-size="14.00">negative_WN &lt;= 2.5572</text>
<text text-anchor="middle" x="873" y="-230.8" font-family="Times,serif" font-size="14.00">samples = 41</text>
<text text-anchor="middle" x="873" y="-215.8" font-family="Times,serif" font-size="14.00">value = [18, 3, 3, 17]</text>
<text text-anchor="middle" x="873" y="-200.8" font-family="Times,serif" font-size="14.00">class = costumbrista</text>
</g>
<!-- 1&#45;&gt;9 -->
<g id="edge9" class="edge"><title>1&#45;&gt;9</title>
<path fill="none" stroke="black" d="M873,-296.884C873,-288.778 873,-279.982 873,-271.472"/>
<polygon fill="black" stroke="black" points="876.5,-271.299 873,-261.299 869.5,-271.299 876.5,-271.299"/>
</g>
<!-- 3 -->
<g id="node4" class="node"><title>3</title>
<polygon fill="#399de5" fill-opacity="0.815686" stroke="black" points="290.5,-157 129.5,-157 129.5,-89 290.5,-89 290.5,-157"/>
<text text-anchor="middle" x="210" y="-141.8" font-family="Times,serif" font-size="14.00">Joy_NRC_speech &lt;= 0.36</text>
<text text-anchor="middle" x="210" y="-126.8" font-family="Times,serif" font-size="14.00">samples = 30</text>
<text text-anchor="middle" x="210" y="-111.8" font-family="Times,serif" font-size="14.00">value = [3, 0, 25, 2]</text>
<text text-anchor="middle" x="210" y="-96.8" font-family="Times,serif" font-size="14.00">class = sentimental</text>
</g>
<!-- 2&#45;&gt;3 -->
<g id="edge3" class="edge"><title>2&#45;&gt;3</title>
<path fill="none" stroke="black" d="M365.961,-193.165C343.006,-182.985 317.547,-171.695 293.969,-161.238"/>
<polygon fill="black" stroke="black" points="295.25,-157.978 284.689,-157.123 292.412,-164.377 295.25,-157.978"/>
</g>
<!-- 6 -->
<g id="node7" class="node"><title>6</title>
<polygon fill="#d739e5" fill-opacity="0.498039" stroke="black" points="505.5,-157 374.5,-157 374.5,-89 505.5,-89 505.5,-157"/>
<text text-anchor="middle" x="440" y="-141.8" font-family="Times,serif" font-size="14.00">Joy_NRC &lt;= 2.0459</text>
<text text-anchor="middle" x="440" y="-126.8" font-family="Times,serif" font-size="14.00">samples = 7</text>
<text text-anchor="middle" x="440" y="-111.8" font-family="Times,serif" font-size="14.00">value = [1, 1, 1, 4]</text>
<text text-anchor="middle" x="440" y="-96.8" font-family="Times,serif" font-size="14.00">class = sociopolitical</text>
</g>
<!-- 2&#45;&gt;6 -->
<g id="edge6" class="edge"><title>2&#45;&gt;6</title>
<path fill="none" stroke="black" d="M440,-192.884C440,-184.778 440,-175.982 440,-167.472"/>
<polygon fill="black" stroke="black" points="443.5,-167.299 440,-157.299 436.5,-167.299 443.5,-167.299"/>
</g>
<!-- 4 -->
<g id="node5" class="node"><title>4</title>
<polygon fill="#e58139" fill-opacity="0.666667" stroke="black" points="128,-53 0,-53 0,-0 128,-0 128,-53"/>
<text text-anchor="middle" x="64" y="-37.8" font-family="Times,serif" font-size="14.00">samples = 4</text>
<text text-anchor="middle" x="64" y="-22.8" font-family="Times,serif" font-size="14.00">value = [3, 0, 1, 0]</text>
<text text-anchor="middle" x="64" y="-7.8" font-family="Times,serif" font-size="14.00">class = costumbrista</text>
</g>
<!-- 3&#45;&gt;4 -->
<g id="edge4" class="edge"><title>3&#45;&gt;4</title>
<path fill="none" stroke="black" d="M158.936,-88.9485C143.814,-79.1601 127.306,-68.4756 112.36,-58.8015"/>
<polygon fill="black" stroke="black" points="114.059,-55.7322 103.763,-53.2367 110.256,-61.6087 114.059,-55.7322"/>
</g>
<!-- 5 -->
<g id="node6" class="node"><title>5</title>
<polygon fill="#399de5" fill-opacity="0.917647" stroke="black" points="273.5,-53 146.5,-53 146.5,-0 273.5,-0 273.5,-53"/>
<text text-anchor="middle" x="210" y="-37.8" font-family="Times,serif" font-size="14.00">samples = 26</text>
<text text-anchor="middle" x="210" y="-22.8" font-family="Times,serif" font-size="14.00">value = [0, 0, 24, 2]</text>
<text text-anchor="middle" x="210" y="-7.8" font-family="Times,serif" font-size="14.00">class = sentimental</text>
</g>
<!-- 3&#45;&gt;5 -->
<g id="edge5" class="edge"><title>3&#45;&gt;5</title>
<path fill="none" stroke="black" d="M210,-88.9485C210,-80.7153 210,-71.848 210,-63.4814"/>
<polygon fill="black" stroke="black" points="213.5,-63.2367 210,-53.2367 206.5,-63.2367 213.5,-63.2367"/>
</g>
<!-- 7 -->
<g id="node8" class="node"><title>7</title>
<polygon fill="#d739e5" fill-opacity="0.749020" stroke="black" points="422.5,-53 291.5,-53 291.5,-0 422.5,-0 422.5,-53"/>
<text text-anchor="middle" x="357" y="-37.8" font-family="Times,serif" font-size="14.00">samples = 5</text>
<text text-anchor="middle" x="357" y="-22.8" font-family="Times,serif" font-size="14.00">value = [0, 0, 1, 4]</text>
<text text-anchor="middle" x="357" y="-7.8" font-family="Times,serif" font-size="14.00">class = sociopolitical</text>
</g>
<!-- 6&#45;&gt;7 -->
<g id="edge7" class="edge"><title>6&#45;&gt;7</title>
<path fill="none" stroke="black" d="M410.971,-88.9485C403.016,-79.892 394.388,-70.0682 386.412,-60.9875"/>
<polygon fill="black" stroke="black" points="388.834,-58.4405 379.605,-53.2367 383.574,-63.0599 388.834,-58.4405"/>
</g>
<!-- 8 -->
<g id="node9" class="node"><title>8</title>
<polygon fill="none" stroke="black" points="569,-53 441,-53 441,-0 569,-0 569,-53"/>
<text text-anchor="middle" x="505" y="-37.8" font-family="Times,serif" font-size="14.00">samples = 2</text>
<text text-anchor="middle" x="505" y="-22.8" font-family="Times,serif" font-size="14.00">value = [1, 1, 0, 0]</text>
<text text-anchor="middle" x="505" y="-7.8" font-family="Times,serif" font-size="14.00">class = costumbrista</text>
</g>
<!-- 6&#45;&gt;8 -->
<g id="edge8" class="edge"><title>6&#45;&gt;8</title>
<path fill="none" stroke="black" d="M462.734,-88.9485C468.837,-80.0749 475.447,-70.4648 481.587,-61.5388"/>
<polygon fill="black" stroke="black" points="484.514,-63.4594 487.298,-53.2367 478.747,-59.4924 484.514,-63.4594"/>
</g>
<!-- 10 -->
<g id="node11" class="node"><title>10</title>
<polygon fill="#e58139" fill-opacity="0.917647" stroke="black" points="852,-157 694,-157 694,-89 852,-89 852,-157"/>
<text text-anchor="middle" x="773" y="-141.8" font-family="Times,serif" font-size="14.00">negative_NRC &lt;= 5.0831</text>
<text text-anchor="middle" x="773" y="-126.8" font-family="Times,serif" font-size="14.00">samples = 13</text>
<text text-anchor="middle" x="773" y="-111.8" font-family="Times,serif" font-size="14.00">value = [12, 0, 0, 1]</text>
<text text-anchor="middle" x="773" y="-96.8" font-family="Times,serif" font-size="14.00">class = costumbrista</text>
</g>
<!-- 9&#45;&gt;10 -->
<g id="edge10" class="edge"><title>9&#45;&gt;10</title>
<path fill="none" stroke="black" d="M840.533,-192.884C831.713,-183.887 822.059,-174.041 812.881,-164.678"/>
<polygon fill="black" stroke="black" points="815.146,-161.99 805.646,-157.299 810.148,-166.89 815.146,-161.99"/>
</g>
<!-- 13 -->
<g id="node14" class="node"><title>13</title>
<polygon fill="#d739e5" fill-opacity="0.454902" stroke="black" points="1078,-157 870,-157 870,-89 1078,-89 1078,-157"/>
<text text-anchor="middle" x="974" y="-141.8" font-family="Times,serif" font-size="14.00">narrated_neutral_NRC &lt;= 17.5616</text>
<text text-anchor="middle" x="974" y="-126.8" font-family="Times,serif" font-size="14.00">samples = 28</text>
<text text-anchor="middle" x="974" y="-111.8" font-family="Times,serif" font-size="14.00">value = [6, 3, 3, 16]</text>
<text text-anchor="middle" x="974" y="-96.8" font-family="Times,serif" font-size="14.00">class = sociopolitical</text>
</g>
<!-- 9&#45;&gt;13 -->
<g id="edge13" class="edge"><title>9&#45;&gt;13</title>
<path fill="none" stroke="black" d="M905.792,-192.884C914.7,-183.887 924.45,-174.041 933.72,-164.678"/>
<polygon fill="black" stroke="black" points="936.478,-166.868 941.027,-157.299 931.504,-161.943 936.478,-166.868"/>
</g>
<!-- 11 -->
<g id="node12" class="node"><title>11</title>
<polygon fill="#d739e5" stroke="black" points="718.5,-53 587.5,-53 587.5,-0 718.5,-0 718.5,-53"/>
<text text-anchor="middle" x="653" y="-37.8" font-family="Times,serif" font-size="14.00">samples = 1</text>
<text text-anchor="middle" x="653" y="-22.8" font-family="Times,serif" font-size="14.00">value = [0, 0, 0, 1]</text>
<text text-anchor="middle" x="653" y="-7.8" font-family="Times,serif" font-size="14.00">class = sociopolitical</text>
</g>
<!-- 10&#45;&gt;11 -->
<g id="edge11" class="edge"><title>10&#45;&gt;11</title>
<path fill="none" stroke="black" d="M731.03,-88.9485C718.949,-79.4346 705.792,-69.074 693.784,-59.6175"/>
<polygon fill="black" stroke="black" points="695.703,-56.6739 685.682,-53.2367 691.372,-62.1734 695.703,-56.6739"/>
</g>
<!-- 12 -->
<g id="node13" class="node"><title>12</title>
<polygon fill="#e58139" stroke="black" points="865,-53 737,-53 737,-0 865,-0 865,-53"/>
<text text-anchor="middle" x="801" y="-37.8" font-family="Times,serif" font-size="14.00">samples = 12</text>
<text text-anchor="middle" x="801" y="-22.8" font-family="Times,serif" font-size="14.00">value = [12, 0, 0, 0]</text>
<text text-anchor="middle" x="801" y="-7.8" font-family="Times,serif" font-size="14.00">class = costumbrista</text>
</g>
<!-- 10&#45;&gt;12 -->
<g id="edge12" class="edge"><title>10&#45;&gt;12</title>
<path fill="none" stroke="black" d="M782.793,-88.9485C785.287,-80.5323 787.977,-71.4536 790.504,-62.9243"/>
<polygon fill="black" stroke="black" points="793.889,-63.819 793.374,-53.2367 787.178,-61.8304 793.889,-63.819"/>
</g>
<!-- 14 -->
<g id="node15" class="node"><title>14</title>
<polygon fill="#e58139" fill-opacity="0.090196" stroke="black" points="1011,-53 883,-53 883,-0 1011,-0 1011,-53"/>
<text text-anchor="middle" x="947" y="-37.8" font-family="Times,serif" font-size="14.00">samples = 15</text>
<text text-anchor="middle" x="947" y="-22.8" font-family="Times,serif" font-size="14.00">value = [5, 3, 3, 4]</text>
<text text-anchor="middle" x="947" y="-7.8" font-family="Times,serif" font-size="14.00">class = costumbrista</text>
</g>
<!-- 13&#45;&gt;14 -->
<g id="edge14" class="edge"><title>13&#45;&gt;14</title>
<path fill="none" stroke="black" d="M964.557,-88.9485C962.152,-80.5323 959.558,-71.4536 957.121,-62.9243"/>
<polygon fill="black" stroke="black" points="960.466,-61.8904 954.353,-53.2367 953.735,-63.8135 960.466,-61.8904"/>
</g>
<!-- 15 -->
<g id="node16" class="node"><title>15</title>
<polygon fill="#d739e5" fill-opacity="0.917647" stroke="black" points="1160.5,-53 1029.5,-53 1029.5,-0 1160.5,-0 1160.5,-53"/>
<text text-anchor="middle" x="1095" y="-37.8" font-family="Times,serif" font-size="14.00">samples = 13</text>
<text text-anchor="middle" x="1095" y="-22.8" font-family="Times,serif" font-size="14.00">value = [1, 0, 0, 12]</text>
<text text-anchor="middle" x="1095" y="-7.8" font-family="Times,serif" font-size="14.00">class = sociopolitical</text>
</g>
<!-- 13&#45;&gt;15 -->
<g id="edge15" class="edge"><title>13&#45;&gt;15</title>
<path fill="none" stroke="black" d="M1016.32,-88.9485C1028.5,-79.4346 1041.77,-69.074 1053.88,-59.6175"/>
<polygon fill="black" stroke="black" points="1056.32,-62.1504 1062.05,-53.2367 1052.01,-56.6335 1056.32,-62.1504"/>
</g>
<!-- 17 -->
<g id="node18" class="node"><title>17</title>
<polygon fill="#47e539" fill-opacity="0.858824" stroke="black" points="1368.5,-261 1207.5,-261 1207.5,-193 1368.5,-193 1368.5,-261"/>
<text text-anchor="middle" x="1288" y="-245.8" font-family="Times,serif" font-size="14.00">negative_WN &lt;= 11.4141</text>
<text text-anchor="middle" x="1288" y="-230.8" font-family="Times,serif" font-size="14.00">samples = 30</text>
<text text-anchor="middle" x="1288" y="-215.8" font-family="Times,serif" font-size="14.00">value = [0, 26, 2, 2]</text>
<text text-anchor="middle" x="1288" y="-200.8" font-family="Times,serif" font-size="14.00">class = historical</text>
</g>
<!-- 16&#45;&gt;17 -->
<g id="edge17" class="edge"><title>16&#45;&gt;17</title>
<path fill="none" stroke="black" d="M1288,-296.884C1288,-288.778 1288,-279.982 1288,-271.472"/>
<polygon fill="black" stroke="black" points="1291.5,-271.299 1288,-261.299 1284.5,-271.299 1291.5,-271.299"/>
</g>
<!-- 22 -->
<g id="node23" class="node"><title>22</title>
<polygon fill="#399de5" fill-opacity="0.666667" stroke="black" points="1632,-261 1432,-261 1432,-193 1632,-193 1632,-261"/>
<text text-anchor="middle" x="1532" y="-245.8" font-family="Times,serif" font-size="14.00">speech_neutral_NRC &lt;= 11.9105</text>
<text text-anchor="middle" x="1532" y="-230.8" font-family="Times,serif" font-size="14.00">samples = 4</text>
<text text-anchor="middle" x="1532" y="-215.8" font-family="Times,serif" font-size="14.00">value = [0, 0, 3, 1]</text>
<text text-anchor="middle" x="1532" y="-200.8" font-family="Times,serif" font-size="14.00">class = sentimental</text>
</g>
<!-- 16&#45;&gt;22 -->
<g id="edge22" class="edge"><title>16&#45;&gt;22</title>
<path fill="none" stroke="black" d="M1363.53,-298.425C1388.84,-287.847 1417.28,-275.958 1443.48,-265.003"/>
<polygon fill="black" stroke="black" points="1445.15,-268.099 1453.03,-261.013 1442.45,-261.641 1445.15,-268.099"/>
</g>
<!-- 18 -->
<g id="node19" class="node"><title>18</title>
<polygon fill="#47e539" fill-opacity="0.921569" stroke="black" points="1307.5,-157 1180.5,-157 1180.5,-89 1307.5,-89 1307.5,-157"/>
<text text-anchor="middle" x="1244" y="-141.8" font-family="Times,serif" font-size="14.00">Joy_NRC &lt;= 0.342</text>
<text text-anchor="middle" x="1244" y="-126.8" font-family="Times,serif" font-size="14.00">samples = 28</text>
<text text-anchor="middle" x="1244" y="-111.8" font-family="Times,serif" font-size="14.00">value = [0, 26, 0, 2]</text>
<text text-anchor="middle" x="1244" y="-96.8" font-family="Times,serif" font-size="14.00">class = historical</text>
</g>
<!-- 17&#45;&gt;18 -->
<g id="edge18" class="edge"><title>17&#45;&gt;18</title>
<path fill="none" stroke="black" d="M1273.71,-192.884C1270.1,-184.511 1266.17,-175.401 1262.39,-166.631"/>
<polygon fill="black" stroke="black" points="1265.54,-165.095 1258.36,-157.299 1259.11,-167.868 1265.54,-165.095"/>
</g>
<!-- 21 -->
<g id="node22" class="node"><title>21</title>
<polygon fill="#399de5" stroke="black" points="1448,-149.5 1326,-149.5 1326,-96.5 1448,-96.5 1448,-149.5"/>
<text text-anchor="middle" x="1387" y="-134.3" font-family="Times,serif" font-size="14.00">samples = 2</text>
<text text-anchor="middle" x="1387" y="-119.3" font-family="Times,serif" font-size="14.00">value = [0, 0, 2, 0]</text>
<text text-anchor="middle" x="1387" y="-104.3" font-family="Times,serif" font-size="14.00">class = sentimental</text>
</g>
<!-- 17&#45;&gt;21 -->
<g id="edge21" class="edge"><title>17&#45;&gt;21</title>
<path fill="none" stroke="black" d="M1320.14,-192.884C1331.35,-181.336 1343.92,-168.387 1355.11,-156.86"/>
<polygon fill="black" stroke="black" points="1357.78,-159.133 1362.23,-149.52 1352.75,-154.258 1357.78,-159.133"/>
</g>
<!-- 19 -->
<g id="node20" class="node"><title>19</title>
<polygon fill="#d739e5" stroke="black" points="1309.5,-53 1178.5,-53 1178.5,-0 1309.5,-0 1309.5,-53"/>
<text text-anchor="middle" x="1244" y="-37.8" font-family="Times,serif" font-size="14.00">samples = 1</text>
<text text-anchor="middle" x="1244" y="-22.8" font-family="Times,serif" font-size="14.00">value = [0, 0, 0, 1]</text>
<text text-anchor="middle" x="1244" y="-7.8" font-family="Times,serif" font-size="14.00">class = sociopolitical</text>
</g>
<!-- 18&#45;&gt;19 -->
<g id="edge19" class="edge"><title>18&#45;&gt;19</title>
<path fill="none" stroke="black" d="M1244,-88.9485C1244,-80.7153 1244,-71.848 1244,-63.4814"/>
<polygon fill="black" stroke="black" points="1247.5,-63.2367 1244,-53.2367 1240.5,-63.2367 1247.5,-63.2367"/>
</g>
<!-- 20 -->
<g id="node21" class="node"><title>20</title>
<polygon fill="#47e539" fill-opacity="0.960784" stroke="black" points="1454.5,-53 1327.5,-53 1327.5,-0 1454.5,-0 1454.5,-53"/>
<text text-anchor="middle" x="1391" y="-37.8" font-family="Times,serif" font-size="14.00">samples = 27</text>
<text text-anchor="middle" x="1391" y="-22.8" font-family="Times,serif" font-size="14.00">value = [0, 26, 0, 1]</text>
<text text-anchor="middle" x="1391" y="-7.8" font-family="Times,serif" font-size="14.00">class = historical</text>
</g>
<!-- 18&#45;&gt;20 -->
<g id="edge20" class="edge"><title>18&#45;&gt;20</title>
<path fill="none" stroke="black" d="M1295.41,-88.9485C1310.64,-79.1601 1327.26,-68.4756 1342.31,-58.8015"/>
<polygon fill="black" stroke="black" points="1344.45,-61.5885 1350.97,-53.2367 1340.66,-55.7002 1344.45,-61.5885"/>
</g>
<!-- 23 -->
<g id="node24" class="node"><title>23</title>
<polygon fill="#d739e5" stroke="black" points="1597.5,-149.5 1466.5,-149.5 1466.5,-96.5 1597.5,-96.5 1597.5,-149.5"/>
<text text-anchor="middle" x="1532" y="-134.3" font-family="Times,serif" font-size="14.00">samples = 1</text>
<text text-anchor="middle" x="1532" y="-119.3" font-family="Times,serif" font-size="14.00">value = [0, 0, 0, 1]</text>
<text text-anchor="middle" x="1532" y="-104.3" font-family="Times,serif" font-size="14.00">class = sociopolitical</text>
</g>
<!-- 22&#45;&gt;23 -->
<g id="edge23" class="edge"><title>22&#45;&gt;23</title>
<path fill="none" stroke="black" d="M1532,-192.884C1532,-182.326 1532,-170.597 1532,-159.854"/>
<polygon fill="black" stroke="black" points="1535.5,-159.52 1532,-149.52 1528.5,-159.52 1535.5,-159.52"/>
</g>
<!-- 24 -->
<g id="node25" class="node"><title>24</title>
<polygon fill="#399de5" stroke="black" points="1738,-149.5 1616,-149.5 1616,-96.5 1738,-96.5 1738,-149.5"/>
<text text-anchor="middle" x="1677" y="-134.3" font-family="Times,serif" font-size="14.00">samples = 3</text>
<text text-anchor="middle" x="1677" y="-119.3" font-family="Times,serif" font-size="14.00">value = [0, 0, 3, 0]</text>
<text text-anchor="middle" x="1677" y="-104.3" font-family="Times,serif" font-size="14.00">class = sentimental</text>
</g>
<!-- 22&#45;&gt;24 -->
<g id="edge24" class="edge"><title>22&#45;&gt;24</title>
<path fill="none" stroke="black" d="M1579.08,-192.884C1596.12,-180.896 1615.31,-167.399 1632.15,-155.549"/>
<polygon fill="black" stroke="black" points="1634.56,-158.136 1640.72,-149.52 1630.53,-152.411 1634.56,-158.136"/>
</g>
</g>
</svg>
