<?xml version="1.0" encoding="UTF-8" standalone="no"?>
<!DOCTYPE svg PUBLIC "-//W3C//DTD SVG 1.1//EN"
 "http://www.w3.org/Graphics/SVG/1.1/DTD/svg11.dtd">
<!-- Generated by graphviz version 2.38.0 (20140413.2041)
 -->
<!-- Title: Tree Pages: 1 -->
<svg width="1934pt" height="685pt"
 viewBox="0.00 0.00 1934.00 685.00" xmlns="http://www.w3.org/2000/svg" xmlns:xlink="http://www.w3.org/1999/xlink">
<g id="graph0" class="graph" transform="scale(1 1) rotate(0) translate(4 681)">
<title>Tree</title>
<polygon fill="white" stroke="none" points="-4,4 -4,-681 1930,-681 1930,4 -4,4"/>
<!-- 0 -->
<g id="node1" class="node"><title>0</title>
<polygon fill="#39e581" fill-opacity="0.054902" stroke="black" points="1202.5,-677 1005.5,-677 1005.5,-609 1202.5,-609 1202.5,-677"/>
<text text-anchor="middle" x="1104" y="-661.8" font-family="Times,serif" font-size="14.00">speech_emotional_NRC &lt;= 28.5</text>
<text text-anchor="middle" x="1104" y="-646.8" font-family="Times,serif" font-size="14.00">samples = 112</text>
<text text-anchor="middle" x="1104" y="-631.8" font-family="Times,serif" font-size="14.00">value = [41, 45, 26]</text>
<text text-anchor="middle" x="1104" y="-616.8" font-family="Times,serif" font-size="14.00">class = 0.5</text>
</g>
<!-- 1 -->
<g id="node2" class="node"><title>1</title>
<polygon fill="#39e581" fill-opacity="0.141176" stroke="black" points="1021,-573 847,-573 847,-505 1021,-505 1021,-573"/>
<text text-anchor="middle" x="934" y="-557.8" font-family="Times,serif" font-size="14.00">emotional_NRC &lt;= 55.2186</text>
<text text-anchor="middle" x="934" y="-542.8" font-family="Times,serif" font-size="14.00">samples = 75</text>
<text text-anchor="middle" x="934" y="-527.8" font-family="Times,serif" font-size="14.00">value = [32, 38, 5]</text>
<text text-anchor="middle" x="934" y="-512.8" font-family="Times,serif" font-size="14.00">class = 0.5</text>
</g>
<!-- 0&#45;&gt;1 -->
<g id="edge1" class="edge"><title>0&#45;&gt;1</title>
<path fill="none" stroke="black" d="M1048.81,-608.884C1032.54,-599.125 1014.61,-588.366 997.85,-578.31"/>
<polygon fill="black" stroke="black" points="999.584,-575.269 989.208,-573.125 995.982,-581.271 999.584,-575.269"/>
<text text-anchor="middle" x="995.271" y="-593.678" font-family="Times,serif" font-size="14.00">True</text>
</g>
<!-- 24 -->
<g id="node25" class="node"><title>24</title>
<polygon fill="#8139e5" fill-opacity="0.427451" stroke="black" points="1353,-573 1195,-573 1195,-505 1353,-505 1353,-573"/>
<text text-anchor="middle" x="1274" y="-557.8" font-family="Times,serif" font-size="14.00">negative_NRC &lt;= 7.6097</text>
<text text-anchor="middle" x="1274" y="-542.8" font-family="Times,serif" font-size="14.00">samples = 37</text>
<text text-anchor="middle" x="1274" y="-527.8" font-family="Times,serif" font-size="14.00">value = [9, 7, 21]</text>
<text text-anchor="middle" x="1274" y="-512.8" font-family="Times,serif" font-size="14.00">class = 1.0</text>
</g>
<!-- 0&#45;&gt;24 -->
<g id="edge24" class="edge"><title>0&#45;&gt;24</title>
<path fill="none" stroke="black" d="M1159.19,-608.884C1175.46,-599.125 1193.39,-588.366 1210.15,-578.31"/>
<polygon fill="black" stroke="black" points="1212.02,-581.271 1218.79,-573.125 1208.42,-575.269 1212.02,-581.271"/>
<text text-anchor="middle" x="1212.73" y="-593.678" font-family="Times,serif" font-size="14.00">False</text>
</g>
<!-- 2 -->
<g id="node3" class="node"><title>2</title>
<polygon fill="#e58139" stroke="black" points="837,-461.5 731,-461.5 731,-408.5 837,-408.5 837,-461.5"/>
<text text-anchor="middle" x="784" y="-446.3" font-family="Times,serif" font-size="14.00">samples = 8</text>
<text text-anchor="middle" x="784" y="-431.3" font-family="Times,serif" font-size="14.00">value = [8, 0, 0]</text>
<text text-anchor="middle" x="784" y="-416.3" font-family="Times,serif" font-size="14.00">class = 0.0</text>
</g>
<!-- 1&#45;&gt;2 -->
<g id="edge2" class="edge"><title>1&#45;&gt;2</title>
<path fill="none" stroke="black" d="M885.299,-504.884C867.509,-492.786 847.457,-479.151 829.917,-467.224"/>
<polygon fill="black" stroke="black" points="831.767,-464.249 821.529,-461.52 827.83,-470.037 831.767,-464.249"/>
</g>
<!-- 3 -->
<g id="node4" class="node"><title>3</title>
<polygon fill="#39e581" fill-opacity="0.325490" stroke="black" points="1012.5,-469 855.5,-469 855.5,-401 1012.5,-401 1012.5,-469"/>
<text text-anchor="middle" x="934" y="-453.8" font-family="Times,serif" font-size="14.00">neutral_NRC &lt;= 20.3495</text>
<text text-anchor="middle" x="934" y="-438.8" font-family="Times,serif" font-size="14.00">samples = 67</text>
<text text-anchor="middle" x="934" y="-423.8" font-family="Times,serif" font-size="14.00">value = [24, 38, 5]</text>
<text text-anchor="middle" x="934" y="-408.8" font-family="Times,serif" font-size="14.00">class = 0.5</text>
</g>
<!-- 1&#45;&gt;3 -->
<g id="edge3" class="edge"><title>1&#45;&gt;3</title>
<path fill="none" stroke="black" d="M934,-504.884C934,-496.778 934,-487.982 934,-479.472"/>
<polygon fill="black" stroke="black" points="937.5,-479.299 934,-469.299 930.5,-479.299 937.5,-479.299"/>
</g>
<!-- 4 -->
<g id="node5" class="node"><title>4</title>
<polygon fill="#e58139" fill-opacity="0.572549" stroke="black" points="499.5,-365 334.5,-365 334.5,-297 499.5,-297 499.5,-365"/>
<text text-anchor="middle" x="417" y="-349.8" font-family="Times,serif" font-size="14.00">negative_NRC &lt;= 16.8463</text>
<text text-anchor="middle" x="417" y="-334.8" font-family="Times,serif" font-size="14.00">samples = 17</text>
<text text-anchor="middle" x="417" y="-319.8" font-family="Times,serif" font-size="14.00">value = [11, 3, 3]</text>
<text text-anchor="middle" x="417" y="-304.8" font-family="Times,serif" font-size="14.00">class = 0.0</text>
</g>
<!-- 3&#45;&gt;4 -->
<g id="edge4" class="edge"><title>3&#45;&gt;4</title>
<path fill="none" stroke="black" d="M855.087,-403.561C852.033,-402.653 848.997,-401.794 846,-401 732.197,-370.833 597.706,-351.803 510.049,-341.543"/>
<polygon fill="black" stroke="black" points="510.198,-338.037 499.862,-340.366 509.394,-344.991 510.198,-338.037"/>
</g>
<!-- 13 -->
<g id="node14" class="node"><title>13</title>
<polygon fill="#39e581" fill-opacity="0.596078" stroke="black" points="1043,-365 825,-365 825,-297 1043,-297 1043,-365"/>
<text text-anchor="middle" x="934" y="-349.8" font-family="Times,serif" font-size="14.00">speech_emotional_NRC &lt;= 18.6289</text>
<text text-anchor="middle" x="934" y="-334.8" font-family="Times,serif" font-size="14.00">samples = 50</text>
<text text-anchor="middle" x="934" y="-319.8" font-family="Times,serif" font-size="14.00">value = [13, 35, 2]</text>
<text text-anchor="middle" x="934" y="-304.8" font-family="Times,serif" font-size="14.00">class = 0.5</text>
</g>
<!-- 3&#45;&gt;13 -->
<g id="edge13" class="edge"><title>3&#45;&gt;13</title>
<path fill="none" stroke="black" d="M934,-400.884C934,-392.778 934,-383.982 934,-375.472"/>
<polygon fill="black" stroke="black" points="937.5,-375.299 934,-365.299 930.5,-375.299 937.5,-375.299"/>
</g>
<!-- 5 -->
<g id="node6" class="node"><title>5</title>
<polygon fill="#8139e5" fill-opacity="0.666667" stroke="black" points="289.5,-261 64.5,-261 64.5,-193 289.5,-193 289.5,-261"/>
<text text-anchor="middle" x="177" y="-245.8" font-family="Times,serif" font-size="14.00">narrated_emotional_NRC &lt;= 56.2301</text>
<text text-anchor="middle" x="177" y="-230.8" font-family="Times,serif" font-size="14.00">samples = 4</text>
<text text-anchor="middle" x="177" y="-215.8" font-family="Times,serif" font-size="14.00">value = [0, 1, 3]</text>
<text text-anchor="middle" x="177" y="-200.8" font-family="Times,serif" font-size="14.00">class = 1.0</text>
</g>
<!-- 4&#45;&gt;5 -->
<g id="edge5" class="edge"><title>4&#45;&gt;5</title>
<path fill="none" stroke="black" d="M339.079,-296.884C315.17,-286.722 288.709,-275.476 264.22,-265.069"/>
<polygon fill="black" stroke="black" points="265.513,-261.815 254.941,-261.125 262.775,-268.257 265.513,-261.815"/>
</g>
<!-- 8 -->
<g id="node9" class="node"><title>8</title>
<polygon fill="#e58139" fill-opacity="0.819608" stroke="black" points="499.5,-261 334.5,-261 334.5,-193 499.5,-193 499.5,-261"/>
<text text-anchor="middle" x="417" y="-245.8" font-family="Times,serif" font-size="14.00">negative_NRC &lt;= 24.2487</text>
<text text-anchor="middle" x="417" y="-230.8" font-family="Times,serif" font-size="14.00">samples = 13</text>
<text text-anchor="middle" x="417" y="-215.8" font-family="Times,serif" font-size="14.00">value = [11, 2, 0]</text>
<text text-anchor="middle" x="417" y="-200.8" font-family="Times,serif" font-size="14.00">class = 0.0</text>
</g>
<!-- 4&#45;&gt;8 -->
<g id="edge8" class="edge"><title>4&#45;&gt;8</title>
<path fill="none" stroke="black" d="M417,-296.884C417,-288.778 417,-279.982 417,-271.472"/>
<polygon fill="black" stroke="black" points="420.5,-271.299 417,-261.299 413.5,-271.299 420.5,-271.299"/>
</g>
<!-- 6 -->
<g id="node7" class="node"><title>6</title>
<polygon fill="#39e581" stroke="black" points="106,-149.5 7.10543e-15,-149.5 7.10543e-15,-96.5 106,-96.5 106,-149.5"/>
<text text-anchor="middle" x="53" y="-134.3" font-family="Times,serif" font-size="14.00">samples = 1</text>
<text text-anchor="middle" x="53" y="-119.3" font-family="Times,serif" font-size="14.00">value = [0, 1, 0]</text>
<text text-anchor="middle" x="53" y="-104.3" font-family="Times,serif" font-size="14.00">class = 0.5</text>
</g>
<!-- 5&#45;&gt;6 -->
<g id="edge6" class="edge"><title>5&#45;&gt;6</title>
<path fill="none" stroke="black" d="M136.741,-192.884C122.301,-181.006 106.06,-167.646 91.7512,-155.876"/>
<polygon fill="black" stroke="black" points="93.9706,-153.17 84.0242,-149.52 89.5237,-158.576 93.9706,-153.17"/>
</g>
<!-- 7 -->
<g id="node8" class="node"><title>7</title>
<polygon fill="#8139e5" stroke="black" points="230,-149.5 124,-149.5 124,-96.5 230,-96.5 230,-149.5"/>
<text text-anchor="middle" x="177" y="-134.3" font-family="Times,serif" font-size="14.00">samples = 3</text>
<text text-anchor="middle" x="177" y="-119.3" font-family="Times,serif" font-size="14.00">value = [0, 0, 3]</text>
<text text-anchor="middle" x="177" y="-104.3" font-family="Times,serif" font-size="14.00">class = 1.0</text>
</g>
<!-- 5&#45;&gt;7 -->
<g id="edge7" class="edge"><title>5&#45;&gt;7</title>
<path fill="none" stroke="black" d="M177,-192.884C177,-182.326 177,-170.597 177,-159.854"/>
<polygon fill="black" stroke="black" points="180.5,-159.52 177,-149.52 173.5,-159.52 180.5,-159.52"/>
</g>
<!-- 9 -->
<g id="node10" class="node"><title>9</title>
<polygon fill="#e58139" stroke="black" points="361.5,-149.5 248.5,-149.5 248.5,-96.5 361.5,-96.5 361.5,-149.5"/>
<text text-anchor="middle" x="305" y="-134.3" font-family="Times,serif" font-size="14.00">samples = 10</text>
<text text-anchor="middle" x="305" y="-119.3" font-family="Times,serif" font-size="14.00">value = [10, 0, 0]</text>
<text text-anchor="middle" x="305" y="-104.3" font-family="Times,serif" font-size="14.00">class = 0.0</text>
</g>
<!-- 8&#45;&gt;9 -->
<g id="edge9" class="edge"><title>8&#45;&gt;9</title>
<path fill="none" stroke="black" d="M380.637,-192.884C367.836,-181.226 353.468,-168.141 340.721,-156.532"/>
<polygon fill="black" stroke="black" points="342.772,-153.666 333.022,-149.52 338.059,-158.841 342.772,-153.666"/>
</g>
<!-- 10 -->
<g id="node11" class="node"><title>10</title>
<polygon fill="#39e581" fill-opacity="0.498039" stroke="black" points="508.5,-157 379.5,-157 379.5,-89 508.5,-89 508.5,-157"/>
<text text-anchor="middle" x="444" y="-141.8" font-family="Times,serif" font-size="14.00">narrated &lt;= 79.3765</text>
<text text-anchor="middle" x="444" y="-126.8" font-family="Times,serif" font-size="14.00">samples = 3</text>
<text text-anchor="middle" x="444" y="-111.8" font-family="Times,serif" font-size="14.00">value = [1, 2, 0]</text>
<text text-anchor="middle" x="444" y="-96.8" font-family="Times,serif" font-size="14.00">class = 0.5</text>
</g>
<!-- 8&#45;&gt;10 -->
<g id="edge10" class="edge"><title>8&#45;&gt;10</title>
<path fill="none" stroke="black" d="M425.766,-192.884C427.935,-184.689 430.291,-175.789 432.567,-167.192"/>
<polygon fill="black" stroke="black" points="436.01,-167.862 435.185,-157.299 429.243,-166.071 436.01,-167.862"/>
</g>
<!-- 11 -->
<g id="node12" class="node"><title>11</title>
<polygon fill="#e58139" stroke="black" points="381,-53 275,-53 275,-0 381,-0 381,-53"/>
<text text-anchor="middle" x="328" y="-37.8" font-family="Times,serif" font-size="14.00">samples = 1</text>
<text text-anchor="middle" x="328" y="-22.8" font-family="Times,serif" font-size="14.00">value = [1, 0, 0]</text>
<text text-anchor="middle" x="328" y="-7.8" font-family="Times,serif" font-size="14.00">class = 0.0</text>
</g>
<!-- 10&#45;&gt;11 -->
<g id="edge11" class="edge"><title>10&#45;&gt;11</title>
<path fill="none" stroke="black" d="M403.429,-88.9485C391.75,-79.4346 379.033,-69.074 367.425,-59.6175"/>
<polygon fill="black" stroke="black" points="369.556,-56.8392 359.592,-53.2367 365.135,-62.2663 369.556,-56.8392"/>
</g>
<!-- 12 -->
<g id="node13" class="node"><title>12</title>
<polygon fill="#39e581" stroke="black" points="505,-53 399,-53 399,-0 505,-0 505,-53"/>
<text text-anchor="middle" x="452" y="-37.8" font-family="Times,serif" font-size="14.00">samples = 2</text>
<text text-anchor="middle" x="452" y="-22.8" font-family="Times,serif" font-size="14.00">value = [0, 2, 0]</text>
<text text-anchor="middle" x="452" y="-7.8" font-family="Times,serif" font-size="14.00">class = 0.5</text>
</g>
<!-- 10&#45;&gt;12 -->
<g id="edge12" class="edge"><title>10&#45;&gt;12</title>
<path fill="none" stroke="black" d="M446.798,-88.9485C447.503,-80.6238 448.262,-71.6509 448.978,-63.2027"/>
<polygon fill="black" stroke="black" points="452.465,-63.4963 449.821,-53.2367 445.49,-62.9058 452.465,-63.4963"/>
</g>
<!-- 14 -->
<g id="node15" class="node"><title>14</title>
<polygon fill="#39e581" fill-opacity="0.078431" stroke="black" points="819.5,-261 654.5,-261 654.5,-193 819.5,-193 819.5,-261"/>
<text text-anchor="middle" x="737" y="-245.8" font-family="Times,serif" font-size="14.00">negative_NRC &lt;= 20.6968</text>
<text text-anchor="middle" x="737" y="-230.8" font-family="Times,serif" font-size="14.00">samples = 24</text>
<text text-anchor="middle" x="737" y="-215.8" font-family="Times,serif" font-size="14.00">value = [11, 12, 1]</text>
<text text-anchor="middle" x="737" y="-200.8" font-family="Times,serif" font-size="14.00">class = 0.5</text>
</g>
<!-- 13&#45;&gt;14 -->
<g id="edge14" class="edge"><title>13&#45;&gt;14</title>
<path fill="none" stroke="black" d="M870.04,-296.884C850.846,-286.946 829.65,-275.971 809.924,-265.757"/>
<polygon fill="black" stroke="black" points="811.466,-262.615 800.976,-261.125 808.247,-268.831 811.466,-262.615"/>
</g>
<!-- 19 -->
<g id="node20" class="node"><title>19</title>
<polygon fill="#39e581" fill-opacity="0.874510" stroke="black" points="1062.5,-261 837.5,-261 837.5,-193 1062.5,-193 1062.5,-261"/>
<text text-anchor="middle" x="950" y="-245.8" font-family="Times,serif" font-size="14.00">narrated_emotional_NRC &lt;= 55.6334</text>
<text text-anchor="middle" x="950" y="-230.8" font-family="Times,serif" font-size="14.00">samples = 26</text>
<text text-anchor="middle" x="950" y="-215.8" font-family="Times,serif" font-size="14.00">value = [2, 23, 1]</text>
<text text-anchor="middle" x="950" y="-200.8" font-family="Times,serif" font-size="14.00">class = 0.5</text>
</g>
<!-- 13&#45;&gt;19 -->
<g id="edge19" class="edge"><title>13&#45;&gt;19</title>
<path fill="none" stroke="black" d="M939.195,-296.884C940.48,-288.689 941.876,-279.789 943.225,-271.192"/>
<polygon fill="black" stroke="black" points="946.685,-271.721 944.777,-261.299 939.769,-270.636 946.685,-271.721"/>
</g>
<!-- 15 -->
<g id="node16" class="node"><title>15</title>
<polygon fill="#e58139" fill-opacity="0.250980" stroke="black" points="681.5,-157 526.5,-157 526.5,-89 681.5,-89 681.5,-157"/>
<text text-anchor="middle" x="604" y="-141.8" font-family="Times,serif" font-size="14.00">positive_NRC &lt;= 19.301</text>
<text text-anchor="middle" x="604" y="-126.8" font-family="Times,serif" font-size="14.00">samples = 20</text>
<text text-anchor="middle" x="604" y="-111.8" font-family="Times,serif" font-size="14.00">value = [11, 8, 1]</text>
<text text-anchor="middle" x="604" y="-96.8" font-family="Times,serif" font-size="14.00">class = 0.0</text>
</g>
<!-- 14&#45;&gt;15 -->
<g id="edge15" class="edge"><title>14&#45;&gt;15</title>
<path fill="none" stroke="black" d="M693.819,-192.884C681.623,-183.531 668.23,-173.259 655.594,-163.568"/>
<polygon fill="black" stroke="black" points="657.485,-160.608 647.42,-157.299 653.225,-166.162 657.485,-160.608"/>
</g>
<!-- 18 -->
<g id="node19" class="node"><title>18</title>
<polygon fill="#39e581" stroke="black" points="806,-149.5 700,-149.5 700,-96.5 806,-96.5 806,-149.5"/>
<text text-anchor="middle" x="753" y="-134.3" font-family="Times,serif" font-size="14.00">samples = 4</text>
<text text-anchor="middle" x="753" y="-119.3" font-family="Times,serif" font-size="14.00">value = [0, 4, 0]</text>
<text text-anchor="middle" x="753" y="-104.3" font-family="Times,serif" font-size="14.00">class = 0.5</text>
</g>
<!-- 14&#45;&gt;18 -->
<g id="edge18" class="edge"><title>14&#45;&gt;18</title>
<path fill="none" stroke="black" d="M742.195,-192.884C743.868,-182.216 745.729,-170.352 747.428,-159.519"/>
<polygon fill="black" stroke="black" points="750.905,-159.942 748.997,-149.52 743.989,-158.857 750.905,-159.942"/>
</g>
<!-- 16 -->
<g id="node17" class="node"><title>16</title>
<polygon fill="#e58139" fill-opacity="0.701961" stroke="black" points="652.5,-53 539.5,-53 539.5,-0 652.5,-0 652.5,-53"/>
<text text-anchor="middle" x="596" y="-37.8" font-family="Times,serif" font-size="14.00">samples = 13</text>
<text text-anchor="middle" x="596" y="-22.8" font-family="Times,serif" font-size="14.00">value = [10, 3, 0]</text>
<text text-anchor="middle" x="596" y="-7.8" font-family="Times,serif" font-size="14.00">class = 0.0</text>
</g>
<!-- 15&#45;&gt;16 -->
<g id="edge16" class="edge"><title>15&#45;&gt;16</title>
<path fill="none" stroke="black" d="M601.202,-88.9485C600.497,-80.6238 599.738,-71.6509 599.022,-63.2027"/>
<polygon fill="black" stroke="black" points="602.51,-62.9058 598.179,-53.2367 595.535,-63.4963 602.51,-62.9058"/>
</g>
<!-- 17 -->
<g id="node18" class="node"><title>17</title>
<polygon fill="#39e581" fill-opacity="0.666667" stroke="black" points="777,-53 671,-53 671,-0 777,-0 777,-53"/>
<text text-anchor="middle" x="724" y="-37.8" font-family="Times,serif" font-size="14.00">samples = 7</text>
<text text-anchor="middle" x="724" y="-22.8" font-family="Times,serif" font-size="14.00">value = [1, 5, 1]</text>
<text text-anchor="middle" x="724" y="-7.8" font-family="Times,serif" font-size="14.00">class = 0.5</text>
</g>
<!-- 15&#45;&gt;17 -->
<g id="edge17" class="edge"><title>15&#45;&gt;17</title>
<path fill="none" stroke="black" d="M645.97,-88.9485C658.051,-79.4346 671.208,-69.074 683.216,-59.6175"/>
<polygon fill="black" stroke="black" points="685.628,-62.1734 691.318,-53.2367 681.297,-56.6739 685.628,-62.1734"/>
</g>
<!-- 20 -->
<g id="node21" class="node"><title>20</title>
<polygon fill="#39e581" fill-opacity="0.913725" stroke="black" points="998,-157 824,-157 824,-89 998,-89 998,-157"/>
<text text-anchor="middle" x="911" y="-141.8" font-family="Times,serif" font-size="14.00">emotional_NRC &lt;= 58.5594</text>
<text text-anchor="middle" x="911" y="-126.8" font-family="Times,serif" font-size="14.00">samples = 25</text>
<text text-anchor="middle" x="911" y="-111.8" font-family="Times,serif" font-size="14.00">value = [2, 23, 0]</text>
<text text-anchor="middle" x="911" y="-96.8" font-family="Times,serif" font-size="14.00">class = 0.5</text>
</g>
<!-- 19&#45;&gt;20 -->
<g id="edge20" class="edge"><title>19&#45;&gt;20</title>
<path fill="none" stroke="black" d="M937.338,-192.884C934.17,-184.6 930.728,-175.595 927.407,-166.911"/>
<polygon fill="black" stroke="black" points="930.573,-165.39 923.732,-157.299 924.034,-167.89 930.573,-165.39"/>
</g>
<!-- 23 -->
<g id="node24" class="node"><title>23</title>
<polygon fill="#8139e5" stroke="black" points="1122,-149.5 1016,-149.5 1016,-96.5 1122,-96.5 1122,-149.5"/>
<text text-anchor="middle" x="1069" y="-134.3" font-family="Times,serif" font-size="14.00">samples = 1</text>
<text text-anchor="middle" x="1069" y="-119.3" font-family="Times,serif" font-size="14.00">value = [0, 0, 1]</text>
<text text-anchor="middle" x="1069" y="-104.3" font-family="Times,serif" font-size="14.00">class = 1.0</text>
</g>
<!-- 19&#45;&gt;23 -->
<g id="edge23" class="edge"><title>19&#45;&gt;23</title>
<path fill="none" stroke="black" d="M988.636,-192.884C1002.36,-181.116 1017.79,-167.894 1031.43,-156.203"/>
<polygon fill="black" stroke="black" points="1033.91,-158.685 1039.23,-149.52 1029.36,-153.37 1033.91,-158.685"/>
</g>
<!-- 21 -->
<g id="node22" class="node"><title>21</title>
<polygon fill="#39e581" fill-opacity="0.333333" stroke="black" points="921,-53 815,-53 815,-0 921,-0 921,-53"/>
<text text-anchor="middle" x="868" y="-37.8" font-family="Times,serif" font-size="14.00">samples = 5</text>
<text text-anchor="middle" x="868" y="-22.8" font-family="Times,serif" font-size="14.00">value = [2, 3, 0]</text>
<text text-anchor="middle" x="868" y="-7.8" font-family="Times,serif" font-size="14.00">class = 0.5</text>
</g>
<!-- 20&#45;&gt;21 -->
<g id="edge21" class="edge"><title>20&#45;&gt;21</title>
<path fill="none" stroke="black" d="M895.961,-88.9485C892.048,-80.3494 887.82,-71.0586 883.866,-62.3689"/>
<polygon fill="black" stroke="black" points="887.038,-60.8891 879.711,-53.2367 880.667,-63.7883 887.038,-60.8891"/>
</g>
<!-- 22 -->
<g id="node23" class="node"><title>22</title>
<polygon fill="#39e581" stroke="black" points="1052.5,-53 939.5,-53 939.5,-0 1052.5,-0 1052.5,-53"/>
<text text-anchor="middle" x="996" y="-37.8" font-family="Times,serif" font-size="14.00">samples = 20</text>
<text text-anchor="middle" x="996" y="-22.8" font-family="Times,serif" font-size="14.00">value = [0, 20, 0]</text>
<text text-anchor="middle" x="996" y="-7.8" font-family="Times,serif" font-size="14.00">class = 0.5</text>
</g>
<!-- 20&#45;&gt;22 -->
<g id="edge22" class="edge"><title>20&#45;&gt;22</title>
<path fill="none" stroke="black" d="M940.729,-88.9485C948.957,-79.8005 957.89,-69.8697 966.126,-60.7126"/>
<polygon fill="black" stroke="black" points="968.765,-63.0123 972.851,-53.2367 963.561,-58.331 968.765,-63.0123"/>
</g>
<!-- 25 -->
<g id="node26" class="node"><title>25</title>
<polygon fill="#e58139" fill-opacity="0.427451" stroke="black" points="1335,-469 1213,-469 1213,-401 1335,-401 1335,-469"/>
<text text-anchor="middle" x="1274" y="-453.8" font-family="Times,serif" font-size="14.00">speech &lt;= 77.3131</text>
<text text-anchor="middle" x="1274" y="-438.8" font-family="Times,serif" font-size="14.00">samples = 10</text>
<text text-anchor="middle" x="1274" y="-423.8" font-family="Times,serif" font-size="14.00">value = [6, 3, 1]</text>
<text text-anchor="middle" x="1274" y="-408.8" font-family="Times,serif" font-size="14.00">class = 0.0</text>
</g>
<!-- 24&#45;&gt;25 -->
<g id="edge25" class="edge"><title>24&#45;&gt;25</title>
<path fill="none" stroke="black" d="M1274,-504.884C1274,-496.778 1274,-487.982 1274,-479.472"/>
<polygon fill="black" stroke="black" points="1277.5,-479.299 1274,-469.299 1270.5,-479.299 1277.5,-479.299"/>
</g>
<!-- 32 -->
<g id="node33" class="node"><title>32</title>
<polygon fill="#8139e5" fill-opacity="0.694118" stroke="black" points="1660.5,-469 1435.5,-469 1435.5,-401 1660.5,-401 1660.5,-469"/>
<text text-anchor="middle" x="1548" y="-453.8" font-family="Times,serif" font-size="14.00">narrated_emotional_NRC &lt;= 41.7346</text>
<text text-anchor="middle" x="1548" y="-438.8" font-family="Times,serif" font-size="14.00">samples = 27</text>
<text text-anchor="middle" x="1548" y="-423.8" font-family="Times,serif" font-size="14.00">value = [3, 4, 20]</text>
<text text-anchor="middle" x="1548" y="-408.8" font-family="Times,serif" font-size="14.00">class = 1.0</text>
</g>
<!-- 24&#45;&gt;32 -->
<g id="edge32" class="edge"><title>24&#45;&gt;32</title>
<path fill="none" stroke="black" d="M1353.25,-508.497C1383.33,-497.3 1417.96,-484.41 1449.59,-472.633"/>
<polygon fill="black" stroke="black" points="1451.16,-475.786 1459.31,-469.017 1448.71,-469.226 1451.16,-475.786"/>
</g>
<!-- 26 -->
<g id="node27" class="node"><title>26</title>
<polygon fill="#39e581" fill-opacity="0.250980" stroke="black" points="1302,-365 1084,-365 1084,-297 1302,-297 1302,-365"/>
<text text-anchor="middle" x="1193" y="-349.8" font-family="Times,serif" font-size="14.00">speech_emotional_NRC &lt;= 34.6406</text>
<text text-anchor="middle" x="1193" y="-334.8" font-family="Times,serif" font-size="14.00">samples = 6</text>
<text text-anchor="middle" x="1193" y="-319.8" font-family="Times,serif" font-size="14.00">value = [2, 3, 1]</text>
<text text-anchor="middle" x="1193" y="-304.8" font-family="Times,serif" font-size="14.00">class = 0.5</text>
</g>
<!-- 25&#45;&gt;26 -->
<g id="edge26" class="edge"><title>25&#45;&gt;26</title>
<path fill="none" stroke="black" d="M1247.7,-400.884C1240.7,-392.065 1233.05,-382.43 1225.75,-373.235"/>
<polygon fill="black" stroke="black" points="1228.4,-370.954 1219.44,-365.299 1222.92,-375.307 1228.4,-370.954"/>
</g>
<!-- 31 -->
<g id="node32" class="node"><title>31</title>
<polygon fill="#e58139" stroke="black" points="1426,-357.5 1320,-357.5 1320,-304.5 1426,-304.5 1426,-357.5"/>
<text text-anchor="middle" x="1373" y="-342.3" font-family="Times,serif" font-size="14.00">samples = 4</text>
<text text-anchor="middle" x="1373" y="-327.3" font-family="Times,serif" font-size="14.00">value = [4, 0, 0]</text>
<text text-anchor="middle" x="1373" y="-312.3" font-family="Times,serif" font-size="14.00">class = 0.0</text>
</g>
<!-- 25&#45;&gt;31 -->
<g id="edge31" class="edge"><title>25&#45;&gt;31</title>
<path fill="none" stroke="black" d="M1306.14,-400.884C1317.35,-389.336 1329.92,-376.387 1341.11,-364.86"/>
<polygon fill="black" stroke="black" points="1343.78,-367.133 1348.23,-357.52 1338.75,-362.258 1343.78,-367.133"/>
</g>
<!-- 27 -->
<g id="node28" class="node"><title>27</title>
<polygon fill="#e58139" fill-opacity="0.498039" stroke="black" points="1246,-261 1140,-261 1140,-193 1246,-193 1246,-261"/>
<text text-anchor="middle" x="1193" y="-245.8" font-family="Times,serif" font-size="14.00">section &lt;= 2.5</text>
<text text-anchor="middle" x="1193" y="-230.8" font-family="Times,serif" font-size="14.00">samples = 3</text>
<text text-anchor="middle" x="1193" y="-215.8" font-family="Times,serif" font-size="14.00">value = [2, 0, 1]</text>
<text text-anchor="middle" x="1193" y="-200.8" font-family="Times,serif" font-size="14.00">class = 0.0</text>
</g>
<!-- 26&#45;&gt;27 -->
<g id="edge27" class="edge"><title>26&#45;&gt;27</title>
<path fill="none" stroke="black" d="M1193,-296.884C1193,-288.778 1193,-279.982 1193,-271.472"/>
<polygon fill="black" stroke="black" points="1196.5,-271.299 1193,-261.299 1189.5,-271.299 1196.5,-271.299"/>
</g>
<!-- 30 -->
<g id="node31" class="node"><title>30</title>
<polygon fill="#39e581" stroke="black" points="1370,-253.5 1264,-253.5 1264,-200.5 1370,-200.5 1370,-253.5"/>
<text text-anchor="middle" x="1317" y="-238.3" font-family="Times,serif" font-size="14.00">samples = 3</text>
<text text-anchor="middle" x="1317" y="-223.3" font-family="Times,serif" font-size="14.00">value = [0, 3, 0]</text>
<text text-anchor="middle" x="1317" y="-208.3" font-family="Times,serif" font-size="14.00">class = 0.5</text>
</g>
<!-- 26&#45;&gt;30 -->
<g id="edge30" class="edge"><title>26&#45;&gt;30</title>
<path fill="none" stroke="black" d="M1233.26,-296.884C1247.7,-285.006 1263.94,-271.646 1278.25,-259.876"/>
<polygon fill="black" stroke="black" points="1280.48,-262.576 1285.98,-253.52 1276.03,-257.17 1280.48,-262.576"/>
</g>
<!-- 28 -->
<g id="node29" class="node"><title>28</title>
<polygon fill="#8139e5" stroke="black" points="1246,-149.5 1140,-149.5 1140,-96.5 1246,-96.5 1246,-149.5"/>
<text text-anchor="middle" x="1193" y="-134.3" font-family="Times,serif" font-size="14.00">samples = 1</text>
<text text-anchor="middle" x="1193" y="-119.3" font-family="Times,serif" font-size="14.00">value = [0, 0, 1]</text>
<text text-anchor="middle" x="1193" y="-104.3" font-family="Times,serif" font-size="14.00">class = 1.0</text>
</g>
<!-- 27&#45;&gt;28 -->
<g id="edge28" class="edge"><title>27&#45;&gt;28</title>
<path fill="none" stroke="black" d="M1193,-192.884C1193,-182.326 1193,-170.597 1193,-159.854"/>
<polygon fill="black" stroke="black" points="1196.5,-159.52 1193,-149.52 1189.5,-159.52 1196.5,-159.52"/>
</g>
<!-- 29 -->
<g id="node30" class="node"><title>29</title>
<polygon fill="#e58139" stroke="black" points="1370,-149.5 1264,-149.5 1264,-96.5 1370,-96.5 1370,-149.5"/>
<text text-anchor="middle" x="1317" y="-134.3" font-family="Times,serif" font-size="14.00">samples = 2</text>
<text text-anchor="middle" x="1317" y="-119.3" font-family="Times,serif" font-size="14.00">value = [2, 0, 0]</text>
<text text-anchor="middle" x="1317" y="-104.3" font-family="Times,serif" font-size="14.00">class = 0.0</text>
</g>
<!-- 27&#45;&gt;29 -->
<g id="edge29" class="edge"><title>27&#45;&gt;29</title>
<path fill="none" stroke="black" d="M1233.26,-192.884C1247.7,-181.006 1263.94,-167.646 1278.25,-155.876"/>
<polygon fill="black" stroke="black" points="1280.48,-158.576 1285.98,-149.52 1276.03,-153.17 1280.48,-158.576"/>
</g>
<!-- 33 -->
<g id="node34" class="node"><title>33</title>
<polygon fill="#8139e5" fill-opacity="0.858824" stroke="black" points="1652,-365 1444,-365 1444,-297 1652,-297 1652,-365"/>
<text text-anchor="middle" x="1548" y="-349.8" font-family="Times,serif" font-size="14.00">narrated_neutral_NRC &lt;= 18.5185</text>
<text text-anchor="middle" x="1548" y="-334.8" font-family="Times,serif" font-size="14.00">samples = 23</text>
<text text-anchor="middle" x="1548" y="-319.8" font-family="Times,serif" font-size="14.00">value = [2, 1, 20]</text>
<text text-anchor="middle" x="1548" y="-304.8" font-family="Times,serif" font-size="14.00">class = 1.0</text>
</g>
<!-- 32&#45;&gt;33 -->
<g id="edge33" class="edge"><title>32&#45;&gt;33</title>
<path fill="none" stroke="black" d="M1548,-400.884C1548,-392.778 1548,-383.982 1548,-375.472"/>
<polygon fill="black" stroke="black" points="1551.5,-375.299 1548,-365.299 1544.5,-375.299 1551.5,-375.299"/>
</g>
<!-- 40 -->
<g id="node41" class="node"><title>40</title>
<polygon fill="#39e581" fill-opacity="0.666667" stroke="black" points="1835.5,-365 1670.5,-365 1670.5,-297 1835.5,-297 1835.5,-365"/>
<text text-anchor="middle" x="1753" y="-349.8" font-family="Times,serif" font-size="14.00">negative_NRC &lt;= 18.0267</text>
<text text-anchor="middle" x="1753" y="-334.8" font-family="Times,serif" font-size="14.00">samples = 4</text>
<text text-anchor="middle" x="1753" y="-319.8" font-family="Times,serif" font-size="14.00">value = [1, 3, 0]</text>
<text text-anchor="middle" x="1753" y="-304.8" font-family="Times,serif" font-size="14.00">class = 0.5</text>
</g>
<!-- 32&#45;&gt;40 -->
<g id="edge40" class="edge"><title>32&#45;&gt;40</title>
<path fill="none" stroke="black" d="M1614.56,-400.884C1634.62,-390.901 1656.79,-379.872 1677.39,-369.619"/>
<polygon fill="black" stroke="black" points="1679.03,-372.713 1686.43,-365.125 1675.91,-366.446 1679.03,-372.713"/>
</g>
<!-- 34 -->
<g id="node35" class="node"><title>34</title>
<polygon fill="#8139e5" fill-opacity="0.905882" stroke="black" points="1549.5,-261 1436.5,-261 1436.5,-193 1549.5,-193 1549.5,-261"/>
<text text-anchor="middle" x="1493" y="-245.8" font-family="Times,serif" font-size="14.00">section &lt;= 1.5</text>
<text text-anchor="middle" x="1493" y="-230.8" font-family="Times,serif" font-size="14.00">samples = 22</text>
<text text-anchor="middle" x="1493" y="-215.8" font-family="Times,serif" font-size="14.00">value = [1, 1, 20]</text>
<text text-anchor="middle" x="1493" y="-200.8" font-family="Times,serif" font-size="14.00">class = 1.0</text>
</g>
<!-- 33&#45;&gt;34 -->
<g id="edge34" class="edge"><title>33&#45;&gt;34</title>
<path fill="none" stroke="black" d="M1530.14,-296.884C1525.58,-288.422 1520.61,-279.207 1515.84,-270.352"/>
<polygon fill="black" stroke="black" points="1518.78,-268.44 1510.96,-261.299 1512.62,-271.762 1518.78,-268.44"/>
</g>
<!-- 39 -->
<g id="node40" class="node"><title>39</title>
<polygon fill="#e58139" stroke="black" points="1674,-253.5 1568,-253.5 1568,-200.5 1674,-200.5 1674,-253.5"/>
<text text-anchor="middle" x="1621" y="-238.3" font-family="Times,serif" font-size="14.00">samples = 1</text>
<text text-anchor="middle" x="1621" y="-223.3" font-family="Times,serif" font-size="14.00">value = [1, 0, 0]</text>
<text text-anchor="middle" x="1621" y="-208.3" font-family="Times,serif" font-size="14.00">class = 0.0</text>
</g>
<!-- 33&#45;&gt;39 -->
<g id="edge39" class="edge"><title>33&#45;&gt;39</title>
<path fill="none" stroke="black" d="M1571.7,-296.884C1579.73,-285.666 1588.7,-273.126 1596.77,-261.852"/>
<polygon fill="black" stroke="black" points="1599.76,-263.689 1602.74,-253.52 1594.07,-259.615 1599.76,-263.689"/>
</g>
<!-- 35 -->
<g id="node36" class="node"><title>35</title>
<polygon fill="#8139e5" fill-opacity="0.498039" stroke="black" points="1560.5,-157 1395.5,-157 1395.5,-89 1560.5,-89 1560.5,-157"/>
<text text-anchor="middle" x="1478" y="-141.8" font-family="Times,serif" font-size="14.00">negative_NRC &lt;= 13.9531</text>
<text text-anchor="middle" x="1478" y="-126.8" font-family="Times,serif" font-size="14.00">samples = 5</text>
<text text-anchor="middle" x="1478" y="-111.8" font-family="Times,serif" font-size="14.00">value = [1, 1, 3]</text>
<text text-anchor="middle" x="1478" y="-96.8" font-family="Times,serif" font-size="14.00">class = 1.0</text>
</g>
<!-- 34&#45;&gt;35 -->
<g id="edge35" class="edge"><title>34&#45;&gt;35</title>
<path fill="none" stroke="black" d="M1488.13,-192.884C1486.94,-184.778 1485.64,-175.982 1484.39,-167.472"/>
<polygon fill="black" stroke="black" points="1487.81,-166.684 1482.9,-157.299 1480.89,-167.702 1487.81,-166.684"/>
</g>
<!-- 38 -->
<g id="node39" class="node"><title>38</title>
<polygon fill="#8139e5" stroke="black" points="1691.5,-149.5 1578.5,-149.5 1578.5,-96.5 1691.5,-96.5 1691.5,-149.5"/>
<text text-anchor="middle" x="1635" y="-134.3" font-family="Times,serif" font-size="14.00">samples = 17</text>
<text text-anchor="middle" x="1635" y="-119.3" font-family="Times,serif" font-size="14.00">value = [0, 0, 17]</text>
<text text-anchor="middle" x="1635" y="-104.3" font-family="Times,serif" font-size="14.00">class = 1.0</text>
</g>
<!-- 34&#45;&gt;38 -->
<g id="edge38" class="edge"><title>34&#45;&gt;38</title>
<path fill="none" stroke="black" d="M1539.1,-192.884C1555.79,-180.896 1574.58,-167.399 1591.08,-155.549"/>
<polygon fill="black" stroke="black" points="1593.39,-158.197 1599.47,-149.52 1589.31,-152.511 1593.39,-158.197"/>
</g>
<!-- 36 -->
<g id="node37" class="node"><title>36</title>
<polygon fill="#8139e5" stroke="black" points="1469,-53 1363,-53 1363,-0 1469,-0 1469,-53"/>
<text text-anchor="middle" x="1416" y="-37.8" font-family="Times,serif" font-size="14.00">samples = 3</text>
<text text-anchor="middle" x="1416" y="-22.8" font-family="Times,serif" font-size="14.00">value = [0, 0, 3]</text>
<text text-anchor="middle" x="1416" y="-7.8" font-family="Times,serif" font-size="14.00">class = 1.0</text>
</g>
<!-- 35&#45;&gt;36 -->
<g id="edge36" class="edge"><title>35&#45;&gt;36</title>
<path fill="none" stroke="black" d="M1456.32,-88.9485C1450.55,-80.1664 1444.32,-70.6629 1438.51,-61.815"/>
<polygon fill="black" stroke="black" points="1441.3,-59.6779 1432.89,-53.2367 1435.44,-63.5178 1441.3,-59.6779"/>
</g>
<!-- 37 -->
<g id="node38" class="node"><title>37</title>
<polygon fill="none" stroke="black" points="1593,-53 1487,-53 1487,-0 1593,-0 1593,-53"/>
<text text-anchor="middle" x="1540" y="-37.8" font-family="Times,serif" font-size="14.00">samples = 2</text>
<text text-anchor="middle" x="1540" y="-22.8" font-family="Times,serif" font-size="14.00">value = [1, 1, 0]</text>
<text text-anchor="middle" x="1540" y="-7.8" font-family="Times,serif" font-size="14.00">class = 0.0</text>
</g>
<!-- 35&#45;&gt;37 -->
<g id="edge37" class="edge"><title>35&#45;&gt;37</title>
<path fill="none" stroke="black" d="M1499.68,-88.9485C1505.45,-80.1664 1511.68,-70.6629 1517.49,-61.815"/>
<polygon fill="black" stroke="black" points="1520.56,-63.5178 1523.11,-53.2367 1514.7,-59.6779 1520.56,-63.5178"/>
</g>
<!-- 41 -->
<g id="node42" class="node"><title>41</title>
<polygon fill="#39e581" stroke="black" points="1802,-253.5 1696,-253.5 1696,-200.5 1802,-200.5 1802,-253.5"/>
<text text-anchor="middle" x="1749" y="-238.3" font-family="Times,serif" font-size="14.00">samples = 3</text>
<text text-anchor="middle" x="1749" y="-223.3" font-family="Times,serif" font-size="14.00">value = [0, 3, 0]</text>
<text text-anchor="middle" x="1749" y="-208.3" font-family="Times,serif" font-size="14.00">class = 0.5</text>
</g>
<!-- 40&#45;&gt;41 -->
<g id="edge41" class="edge"><title>40&#45;&gt;41</title>
<path fill="none" stroke="black" d="M1751.7,-296.884C1751.28,-286.216 1750.82,-274.352 1750.39,-263.519"/>
<polygon fill="black" stroke="black" points="1753.89,-263.375 1750,-253.52 1746.9,-263.649 1753.89,-263.375"/>
</g>
<!-- 42 -->
<g id="node43" class="node"><title>42</title>
<polygon fill="#e58139" stroke="black" points="1926,-253.5 1820,-253.5 1820,-200.5 1926,-200.5 1926,-253.5"/>
<text text-anchor="middle" x="1873" y="-238.3" font-family="Times,serif" font-size="14.00">samples = 1</text>
<text text-anchor="middle" x="1873" y="-223.3" font-family="Times,serif" font-size="14.00">value = [1, 0, 0]</text>
<text text-anchor="middle" x="1873" y="-208.3" font-family="Times,serif" font-size="14.00">class = 0.0</text>
</g>
<!-- 40&#45;&gt;42 -->
<g id="edge42" class="edge"><title>40&#45;&gt;42</title>
<path fill="none" stroke="black" d="M1791.96,-296.884C1805.8,-285.116 1821.36,-271.894 1835.11,-260.203"/>
<polygon fill="black" stroke="black" points="1837.62,-262.663 1842.98,-253.52 1833.09,-257.33 1837.62,-262.663"/>
</g>
</g>
</svg>
