<?xml version="1.0" encoding="UTF-8" standalone="no"?>
<!DOCTYPE svg PUBLIC "-//W3C//DTD SVG 1.1//EN"
 "http://www.w3.org/Graphics/SVG/1.1/DTD/svg11.dtd">
<!-- Generated by graphviz version 2.38.0 (20140413.2041)
 -->
<!-- Title: Tree Pages: 1 -->
<svg width="2070pt" height="477pt"
 viewBox="0.00 0.00 2069.50 477.00" xmlns="http://www.w3.org/2000/svg" xmlns:xlink="http://www.w3.org/1999/xlink">
<g id="graph0" class="graph" transform="scale(1 1) rotate(0) translate(4 473)">
<title>Tree</title>
<polygon fill="white" stroke="none" points="-4,4 -4,-473 2065.5,-473 2065.5,4 -4,4"/>
<!-- 0 -->
<g id="node1" class="node"><title>0</title>
<polygon fill="#399de5" fill-opacity="0.047059" stroke="black" points="1196.5,-469 1049.5,-469 1049.5,-401 1196.5,-401 1196.5,-469"/>
<text text-anchor="middle" x="1123" y="-453.8" font-family="Times,serif" font-size="14.00">Fear_NRC &lt;= 6.4535</text>
<text text-anchor="middle" x="1123" y="-438.8" font-family="Times,serif" font-size="14.00">samples = 112</text>
<text text-anchor="middle" x="1123" y="-423.8" font-family="Times,serif" font-size="14.00">value = [22, 30, 34, 26]</text>
<text text-anchor="middle" x="1123" y="-408.8" font-family="Times,serif" font-size="14.00">class = sentimental</text>
</g>
<!-- 1 -->
<g id="node2" class="node"><title>1</title>
<polygon fill="#399de5" fill-opacity="0.109804" stroke="black" points="975,-365 757,-365 757,-297 975,-297 975,-365"/>
<text text-anchor="middle" x="866" y="-349.8" font-family="Times,serif" font-size="14.00">speech_emotional_NRC &lt;= 14.2456</text>
<text text-anchor="middle" x="866" y="-334.8" font-family="Times,serif" font-size="14.00">samples = 78</text>
<text text-anchor="middle" x="866" y="-319.8" font-family="Times,serif" font-size="14.00">value = [22, 4, 29, 23]</text>
<text text-anchor="middle" x="866" y="-304.8" font-family="Times,serif" font-size="14.00">class = sentimental</text>
</g>
<!-- 0&#45;&gt;1 -->
<g id="edge1" class="edge"><title>0&#45;&gt;1</title>
<path fill="none" stroke="black" d="M1049.35,-404.771C1021.11,-393.563 988.522,-380.627 958.72,-368.799"/>
<polygon fill="black" stroke="black" points="959.737,-365.437 949.151,-365.001 957.154,-371.944 959.737,-365.437"/>
<text text-anchor="middle" x="959.06" y="-384.254" font-family="Times,serif" font-size="14.00">True</text>
</g>
<!-- 16 -->
<g id="node17" class="node"><title>16</title>
<polygon fill="#47e539" fill-opacity="0.725490" stroke="black" points="1490,-365 1320,-365 1320,-297 1490,-297 1490,-365"/>
<text text-anchor="middle" x="1405" y="-349.8" font-family="Times,serif" font-size="14.00">emotional_WN &lt;= 39.1082</text>
<text text-anchor="middle" x="1405" y="-334.8" font-family="Times,serif" font-size="14.00">samples = 34</text>
<text text-anchor="middle" x="1405" y="-319.8" font-family="Times,serif" font-size="14.00">value = [0, 26, 5, 3]</text>
<text text-anchor="middle" x="1405" y="-304.8" font-family="Times,serif" font-size="14.00">class = historical</text>
</g>
<!-- 0&#45;&gt;16 -->
<g id="edge16" class="edge"><title>0&#45;&gt;16</title>
<path fill="none" stroke="black" d="M1196.72,-407.334C1231.4,-394.79 1273.18,-379.681 1310.18,-366.297"/>
<polygon fill="black" stroke="black" points="1311.76,-369.446 1319.98,-362.754 1309.38,-362.864 1311.76,-369.446"/>
<text text-anchor="middle" x="1309.36" y="-381.69" font-family="Times,serif" font-size="14.00">False</text>
</g>
<!-- 2 -->
<g id="node3" class="node"><title>2</title>
<polygon fill="#e58139" fill-opacity="0.050980" stroke="black" points="522,-261 368,-261 368,-193 522,-193 522,-261"/>
<text text-anchor="middle" x="445" y="-245.8" font-family="Times,serif" font-size="14.00">negative_WN &lt;= 2.5572</text>
<text text-anchor="middle" x="445" y="-230.8" font-family="Times,serif" font-size="14.00">samples = 35</text>
<text text-anchor="middle" x="445" y="-215.8" font-family="Times,serif" font-size="14.00">value = [17, 2, 0, 16]</text>
<text text-anchor="middle" x="445" y="-200.8" font-family="Times,serif" font-size="14.00">class = costumbrista</text>
</g>
<!-- 1&#45;&gt;2 -->
<g id="edge2" class="edge"><title>1&#45;&gt;2</title>
<path fill="none" stroke="black" d="M756.76,-303.533C686.776,-286.577 597.187,-264.872 532.021,-249.084"/>
<polygon fill="black" stroke="black" points="532.727,-245.653 522.184,-246.7 531.079,-252.457 532.727,-245.653"/>
</g>
<!-- 9 -->
<g id="node10" class="node"><title>9</title>
<polygon fill="#399de5" fill-opacity="0.611765" stroke="black" points="968.5,-261 763.5,-261 763.5,-193 968.5,-193 968.5,-261"/>
<text text-anchor="middle" x="866" y="-245.8" font-family="Times,serif" font-size="14.00">Disgust_NRC_narrated &lt;= 0.8579</text>
<text text-anchor="middle" x="866" y="-230.8" font-family="Times,serif" font-size="14.00">samples = 43</text>
<text text-anchor="middle" x="866" y="-215.8" font-family="Times,serif" font-size="14.00">value = [5, 2, 29, 7]</text>
<text text-anchor="middle" x="866" y="-200.8" font-family="Times,serif" font-size="14.00">class = sentimental</text>
</g>
<!-- 1&#45;&gt;9 -->
<g id="edge9" class="edge"><title>1&#45;&gt;9</title>
<path fill="none" stroke="black" d="M866,-296.884C866,-288.778 866,-279.982 866,-271.472"/>
<polygon fill="black" stroke="black" points="869.5,-271.299 866,-261.299 862.5,-271.299 869.5,-271.299"/>
</g>
<!-- 3 -->
<g id="node4" class="node"><title>3</title>
<polygon fill="#e58139" fill-opacity="0.847059" stroke="black" points="297,-157 115,-157 115,-89 297,-89 297,-157"/>
<text text-anchor="middle" x="206" y="-141.8" font-family="Times,serif" font-size="14.00">Joy_NRC_narrated &lt;= 2.5605</text>
<text text-anchor="middle" x="206" y="-126.8" font-family="Times,serif" font-size="14.00">samples = 14</text>
<text text-anchor="middle" x="206" y="-111.8" font-family="Times,serif" font-size="14.00">value = [12, 1, 0, 1]</text>
<text text-anchor="middle" x="206" y="-96.8" font-family="Times,serif" font-size="14.00">class = costumbrista</text>
</g>
<!-- 2&#45;&gt;3 -->
<g id="edge3" class="edge"><title>2&#45;&gt;3</title>
<path fill="none" stroke="black" d="M367.734,-193.024C343.789,-182.805 317.248,-171.478 292.707,-161.005"/>
<polygon fill="black" stroke="black" points="293.981,-157.743 283.409,-157.037 291.233,-164.181 293.981,-157.743"/>
</g>
<!-- 6 -->
<g id="node7" class="node"><title>6</title>
<polygon fill="#d739e5" fill-opacity="0.623529" stroke="black" points="523,-157 367,-157 367,-89 523,-89 523,-157"/>
<text text-anchor="middle" x="445" y="-141.8" font-family="Times,serif" font-size="14.00">Sadness_NRC &lt;= 6.6248</text>
<text text-anchor="middle" x="445" y="-126.8" font-family="Times,serif" font-size="14.00">samples = 21</text>
<text text-anchor="middle" x="445" y="-111.8" font-family="Times,serif" font-size="14.00">value = [5, 1, 0, 15]</text>
<text text-anchor="middle" x="445" y="-96.8" font-family="Times,serif" font-size="14.00">class = sociopolitical</text>
</g>
<!-- 2&#45;&gt;6 -->
<g id="edge6" class="edge"><title>2&#45;&gt;6</title>
<path fill="none" stroke="black" d="M445,-192.884C445,-184.778 445,-175.982 445,-167.472"/>
<polygon fill="black" stroke="black" points="448.5,-167.299 445,-157.299 441.5,-167.299 448.5,-167.299"/>
</g>
<!-- 4 -->
<g id="node5" class="node"><title>4</title>
<polygon fill="#e58139" stroke="black" points="128,-53 0,-53 0,-0 128,-0 128,-53"/>
<text text-anchor="middle" x="64" y="-37.8" font-family="Times,serif" font-size="14.00">samples = 12</text>
<text text-anchor="middle" x="64" y="-22.8" font-family="Times,serif" font-size="14.00">value = [12, 0, 0, 0]</text>
<text text-anchor="middle" x="64" y="-7.8" font-family="Times,serif" font-size="14.00">class = costumbrista</text>
</g>
<!-- 3&#45;&gt;4 -->
<g id="edge4" class="edge"><title>3&#45;&gt;4</title>
<path fill="none" stroke="black" d="M156.335,-88.9485C141.627,-79.1601 125.572,-68.4756 111.035,-58.8015"/>
<polygon fill="black" stroke="black" points="112.937,-55.8632 102.673,-53.2367 109.059,-61.6907 112.937,-55.8632"/>
</g>
<!-- 5 -->
<g id="node6" class="node"><title>5</title>
<polygon fill="none" stroke="black" points="266,-53 146,-53 146,-0 266,-0 266,-53"/>
<text text-anchor="middle" x="206" y="-37.8" font-family="Times,serif" font-size="14.00">samples = 2</text>
<text text-anchor="middle" x="206" y="-22.8" font-family="Times,serif" font-size="14.00">value = [0, 1, 0, 1]</text>
<text text-anchor="middle" x="206" y="-7.8" font-family="Times,serif" font-size="14.00">class = historical</text>
</g>
<!-- 3&#45;&gt;5 -->
<g id="edge5" class="edge"><title>3&#45;&gt;5</title>
<path fill="none" stroke="black" d="M206,-88.9485C206,-80.7153 206,-71.848 206,-63.4814"/>
<polygon fill="black" stroke="black" points="209.5,-63.2367 206,-53.2367 202.5,-63.2367 209.5,-63.2367"/>
</g>
<!-- 7 -->
<g id="node8" class="node"><title>7</title>
<polygon fill="#e58139" fill-opacity="0.200000" stroke="black" points="412,-53 284,-53 284,-0 412,-0 412,-53"/>
<text text-anchor="middle" x="348" y="-37.8" font-family="Times,serif" font-size="14.00">samples = 9</text>
<text text-anchor="middle" x="348" y="-22.8" font-family="Times,serif" font-size="14.00">value = [5, 0, 0, 4]</text>
<text text-anchor="middle" x="348" y="-7.8" font-family="Times,serif" font-size="14.00">class = costumbrista</text>
</g>
<!-- 6&#45;&gt;7 -->
<g id="edge7" class="edge"><title>6&#45;&gt;7</title>
<path fill="none" stroke="black" d="M411.074,-88.9485C401.59,-79.709 391.287,-69.671 381.809,-60.4381"/>
<polygon fill="black" stroke="black" points="384.023,-57.7079 374.418,-53.2367 379.138,-62.7219 384.023,-57.7079"/>
</g>
<!-- 8 -->
<g id="node9" class="node"><title>8</title>
<polygon fill="#d739e5" fill-opacity="0.909804" stroke="black" points="561.5,-53 430.5,-53 430.5,-0 561.5,-0 561.5,-53"/>
<text text-anchor="middle" x="496" y="-37.8" font-family="Times,serif" font-size="14.00">samples = 12</text>
<text text-anchor="middle" x="496" y="-22.8" font-family="Times,serif" font-size="14.00">value = [0, 1, 0, 11]</text>
<text text-anchor="middle" x="496" y="-7.8" font-family="Times,serif" font-size="14.00">class = sociopolitical</text>
</g>
<!-- 6&#45;&gt;8 -->
<g id="edge8" class="edge"><title>6&#45;&gt;8</title>
<path fill="none" stroke="black" d="M462.837,-88.9485C467.527,-80.2579 472.599,-70.8608 477.331,-62.0917"/>
<polygon fill="black" stroke="black" points="480.441,-63.6992 482.11,-53.2367 474.281,-60.3747 480.441,-63.6992"/>
</g>
<!-- 10 -->
<g id="node11" class="node"><title>10</title>
<polygon fill="#399de5" fill-opacity="0.772549" stroke="black" points="868.5,-157 667.5,-157 667.5,-89 868.5,-89 868.5,-157"/>
<text text-anchor="middle" x="768" y="-141.8" font-family="Times,serif" font-size="14.00">narrated_neutral_NRC &lt;= 6.7615</text>
<text text-anchor="middle" x="768" y="-126.8" font-family="Times,serif" font-size="14.00">samples = 35</text>
<text text-anchor="middle" x="768" y="-111.8" font-family="Times,serif" font-size="14.00">value = [2, 1, 28, 4]</text>
<text text-anchor="middle" x="768" y="-96.8" font-family="Times,serif" font-size="14.00">class = sentimental</text>
</g>
<!-- 9&#45;&gt;10 -->
<g id="edge10" class="edge"><title>9&#45;&gt;10</title>
<path fill="none" stroke="black" d="M834.182,-192.884C825.539,-183.887 816.078,-174.041 807.083,-164.678"/>
<polygon fill="black" stroke="black" points="809.446,-162.086 799.994,-157.299 804.398,-166.935 809.446,-162.086"/>
</g>
<!-- 13 -->
<g id="node14" class="node"><title>13</title>
<polygon fill="none" stroke="black" points="1039,-157 887,-157 887,-89 1039,-89 1039,-157"/>
<text text-anchor="middle" x="963" y="-141.8" font-family="Times,serif" font-size="14.00">neutral_WN &lt;= 66.8302</text>
<text text-anchor="middle" x="963" y="-126.8" font-family="Times,serif" font-size="14.00">samples = 8</text>
<text text-anchor="middle" x="963" y="-111.8" font-family="Times,serif" font-size="14.00">value = [3, 1, 1, 3]</text>
<text text-anchor="middle" x="963" y="-96.8" font-family="Times,serif" font-size="14.00">class = costumbrista</text>
</g>
<!-- 9&#45;&gt;13 -->
<g id="edge13" class="edge"><title>9&#45;&gt;13</title>
<path fill="none" stroke="black" d="M897.493,-192.884C906.049,-183.887 915.412,-174.041 924.316,-164.678"/>
<polygon fill="black" stroke="black" points="926.978,-166.958 931.333,-157.299 921.905,-162.134 926.978,-166.958"/>
</g>
<!-- 11 -->
<g id="node12" class="node"><title>11</title>
<polygon fill="#d739e5" stroke="black" points="710.5,-53 579.5,-53 579.5,-0 710.5,-0 710.5,-53"/>
<text text-anchor="middle" x="645" y="-37.8" font-family="Times,serif" font-size="14.00">samples = 3</text>
<text text-anchor="middle" x="645" y="-22.8" font-family="Times,serif" font-size="14.00">value = [0, 0, 0, 3]</text>
<text text-anchor="middle" x="645" y="-7.8" font-family="Times,serif" font-size="14.00">class = sociopolitical</text>
</g>
<!-- 10&#45;&gt;11 -->
<g id="edge11" class="edge"><title>10&#45;&gt;11</title>
<path fill="none" stroke="black" d="M724.981,-88.9485C712.478,-79.3431 698.853,-68.8747 686.449,-59.345"/>
<polygon fill="black" stroke="black" points="688.561,-56.5537 678.499,-53.2367 684.296,-62.1046 688.561,-56.5537"/>
</g>
<!-- 12 -->
<g id="node13" class="node"><title>12</title>
<polygon fill="#399de5" fill-opacity="0.866667" stroke="black" points="855.5,-53 728.5,-53 728.5,-0 855.5,-0 855.5,-53"/>
<text text-anchor="middle" x="792" y="-37.8" font-family="Times,serif" font-size="14.00">samples = 32</text>
<text text-anchor="middle" x="792" y="-22.8" font-family="Times,serif" font-size="14.00">value = [2, 1, 28, 1]</text>
<text text-anchor="middle" x="792" y="-7.8" font-family="Times,serif" font-size="14.00">class = sentimental</text>
</g>
<!-- 10&#45;&gt;12 -->
<g id="edge12" class="edge"><title>10&#45;&gt;12</title>
<path fill="none" stroke="black" d="M776.394,-88.9485C778.508,-80.6238 780.787,-71.6509 782.933,-63.2027"/>
<polygon fill="black" stroke="black" points="786.394,-63.7906 785.464,-53.2367 779.61,-62.0675 786.394,-63.7906"/>
</g>
<!-- 14 -->
<g id="node15" class="node"><title>14</title>
<polygon fill="#e58139" stroke="black" points="1002,-53 874,-53 874,-0 1002,-0 1002,-53"/>
<text text-anchor="middle" x="938" y="-37.8" font-family="Times,serif" font-size="14.00">samples = 3</text>
<text text-anchor="middle" x="938" y="-22.8" font-family="Times,serif" font-size="14.00">value = [3, 0, 0, 0]</text>
<text text-anchor="middle" x="938" y="-7.8" font-family="Times,serif" font-size="14.00">class = costumbrista</text>
</g>
<!-- 13&#45;&gt;14 -->
<g id="edge14" class="edge"><title>13&#45;&gt;14</title>
<path fill="none" stroke="black" d="M954.256,-88.9485C952.03,-80.5323 949.628,-71.4536 947.372,-62.9243"/>
<polygon fill="black" stroke="black" points="950.75,-62.009 944.809,-53.2367 943.983,-63.7993 950.75,-62.009"/>
</g>
<!-- 15 -->
<g id="node16" class="node"><title>15</title>
<polygon fill="#d739e5" fill-opacity="0.498039" stroke="black" points="1151.5,-53 1020.5,-53 1020.5,-0 1151.5,-0 1151.5,-53"/>
<text text-anchor="middle" x="1086" y="-37.8" font-family="Times,serif" font-size="14.00">samples = 5</text>
<text text-anchor="middle" x="1086" y="-22.8" font-family="Times,serif" font-size="14.00">value = [0, 1, 1, 3]</text>
<text text-anchor="middle" x="1086" y="-7.8" font-family="Times,serif" font-size="14.00">class = sociopolitical</text>
</g>
<!-- 13&#45;&gt;15 -->
<g id="edge15" class="edge"><title>13&#45;&gt;15</title>
<path fill="none" stroke="black" d="M1006.02,-88.9485C1018.52,-79.3431 1032.15,-68.8747 1044.55,-59.345"/>
<polygon fill="black" stroke="black" points="1046.7,-62.1046 1052.5,-53.2367 1042.44,-56.5537 1046.7,-62.1046"/>
</g>
<!-- 17 -->
<g id="node18" class="node"><title>17</title>
<polygon fill="#47e539" fill-opacity="0.886275" stroke="black" points="1495,-261 1315,-261 1315,-193 1495,-193 1495,-261"/>
<text text-anchor="middle" x="1405" y="-245.8" font-family="Times,serif" font-size="14.00">Anticipation_NRC &lt;= 4.0321</text>
<text text-anchor="middle" x="1405" y="-230.8" font-family="Times,serif" font-size="14.00">samples = 28</text>
<text text-anchor="middle" x="1405" y="-215.8" font-family="Times,serif" font-size="14.00">value = [0, 25, 1, 2]</text>
<text text-anchor="middle" x="1405" y="-200.8" font-family="Times,serif" font-size="14.00">class = historical</text>
</g>
<!-- 16&#45;&gt;17 -->
<g id="edge17" class="edge"><title>16&#45;&gt;17</title>
<path fill="none" stroke="black" d="M1405,-296.884C1405,-288.778 1405,-279.982 1405,-271.472"/>
<polygon fill="black" stroke="black" points="1408.5,-271.299 1405,-261.299 1401.5,-271.299 1408.5,-271.299"/>
</g>
<!-- 24 -->
<g id="node25" class="node"><title>24</title>
<polygon fill="#399de5" fill-opacity="0.600000" stroke="black" points="1787,-261 1625,-261 1625,-193 1787,-193 1787,-261"/>
<text text-anchor="middle" x="1706" y="-245.8" font-family="Times,serif" font-size="14.00">positive_NRC &lt;= 20.6234</text>
<text text-anchor="middle" x="1706" y="-230.8" font-family="Times,serif" font-size="14.00">samples = 6</text>
<text text-anchor="middle" x="1706" y="-215.8" font-family="Times,serif" font-size="14.00">value = [0, 1, 4, 1]</text>
<text text-anchor="middle" x="1706" y="-200.8" font-family="Times,serif" font-size="14.00">class = sentimental</text>
</g>
<!-- 16&#45;&gt;24 -->
<g id="edge24" class="edge"><title>16&#45;&gt;24</title>
<path fill="none" stroke="black" d="M1490.05,-301.18C1529.07,-287.955 1575.39,-272.259 1615.11,-258.801"/>
<polygon fill="black" stroke="black" points="1616.44,-262.044 1624.79,-255.52 1614.19,-255.415 1616.44,-262.044"/>
</g>
<!-- 18 -->
<g id="node19" class="node"><title>18</title>
<polygon fill="none" stroke="black" points="1401,-157 1187,-157 1187,-89 1401,-89 1401,-157"/>
<text text-anchor="middle" x="1294" y="-141.8" font-family="Times,serif" font-size="14.00">narrated_emotional_WN &lt;= 25.379</text>
<text text-anchor="middle" x="1294" y="-126.8" font-family="Times,serif" font-size="14.00">samples = 2</text>
<text text-anchor="middle" x="1294" y="-111.8" font-family="Times,serif" font-size="14.00">value = [0, 0, 1, 1]</text>
<text text-anchor="middle" x="1294" y="-96.8" font-family="Times,serif" font-size="14.00">class = sentimental</text>
</g>
<!-- 17&#45;&gt;18 -->
<g id="edge18" class="edge"><title>17&#45;&gt;18</title>
<path fill="none" stroke="black" d="M1368.96,-192.884C1358.98,-183.709 1348.03,-173.65 1337.66,-164.123"/>
<polygon fill="black" stroke="black" points="1339.97,-161.488 1330.24,-157.299 1335.23,-166.643 1339.97,-161.488"/>
</g>
<!-- 21 -->
<g id="node22" class="node"><title>21</title>
<polygon fill="#47e539" fill-opacity="0.960784" stroke="black" points="1627,-157 1419,-157 1419,-89 1627,-89 1627,-157"/>
<text text-anchor="middle" x="1523" y="-141.8" font-family="Times,serif" font-size="14.00">narrated_neutral_NRC &lt;= 30.9469</text>
<text text-anchor="middle" x="1523" y="-126.8" font-family="Times,serif" font-size="14.00">samples = 26</text>
<text text-anchor="middle" x="1523" y="-111.8" font-family="Times,serif" font-size="14.00">value = [0, 25, 0, 1]</text>
<text text-anchor="middle" x="1523" y="-96.8" font-family="Times,serif" font-size="14.00">class = historical</text>
</g>
<!-- 17&#45;&gt;21 -->
<g id="edge21" class="edge"><title>17&#45;&gt;21</title>
<path fill="none" stroke="black" d="M1443.31,-192.884C1454.03,-183.62 1465.79,-173.455 1476.9,-163.845"/>
<polygon fill="black" stroke="black" points="1479.2,-166.487 1484.48,-157.299 1474.62,-161.191 1479.2,-166.487"/>
</g>
<!-- 19 -->
<g id="node20" class="node"><title>19</title>
<polygon fill="#d739e5" stroke="black" points="1300.5,-53 1169.5,-53 1169.5,-0 1300.5,-0 1300.5,-53"/>
<text text-anchor="middle" x="1235" y="-37.8" font-family="Times,serif" font-size="14.00">samples = 1</text>
<text text-anchor="middle" x="1235" y="-22.8" font-family="Times,serif" font-size="14.00">value = [0, 0, 0, 1]</text>
<text text-anchor="middle" x="1235" y="-7.8" font-family="Times,serif" font-size="14.00">class = sociopolitical</text>
</g>
<!-- 18&#45;&gt;19 -->
<g id="edge19" class="edge"><title>18&#45;&gt;19</title>
<path fill="none" stroke="black" d="M1273.36,-88.9485C1267.88,-80.1664 1261.95,-70.6629 1256.42,-61.815"/>
<polygon fill="black" stroke="black" points="1259.33,-59.8656 1251.07,-53.2367 1253.4,-63.5728 1259.33,-59.8656"/>
</g>
<!-- 20 -->
<g id="node21" class="node"><title>20</title>
<polygon fill="#399de5" stroke="black" points="1441,-53 1319,-53 1319,-0 1441,-0 1441,-53"/>
<text text-anchor="middle" x="1380" y="-37.8" font-family="Times,serif" font-size="14.00">samples = 1</text>
<text text-anchor="middle" x="1380" y="-22.8" font-family="Times,serif" font-size="14.00">value = [0, 0, 1, 0]</text>
<text text-anchor="middle" x="1380" y="-7.8" font-family="Times,serif" font-size="14.00">class = sentimental</text>
</g>
<!-- 18&#45;&gt;20 -->
<g id="edge20" class="edge"><title>18&#45;&gt;20</title>
<path fill="none" stroke="black" d="M1324.08,-88.9485C1332.4,-79.8005 1341.44,-69.8697 1349.77,-60.7126"/>
<polygon fill="black" stroke="black" points="1352.44,-62.9883 1356.58,-53.2367 1347.26,-58.2769 1352.44,-62.9883"/>
</g>
<!-- 22 -->
<g id="node23" class="node"><title>22</title>
<polygon fill="#47e539" stroke="black" points="1586.5,-53 1459.5,-53 1459.5,-0 1586.5,-0 1586.5,-53"/>
<text text-anchor="middle" x="1523" y="-37.8" font-family="Times,serif" font-size="14.00">samples = 25</text>
<text text-anchor="middle" x="1523" y="-22.8" font-family="Times,serif" font-size="14.00">value = [0, 25, 0, 0]</text>
<text text-anchor="middle" x="1523" y="-7.8" font-family="Times,serif" font-size="14.00">class = historical</text>
</g>
<!-- 21&#45;&gt;22 -->
<g id="edge22" class="edge"><title>21&#45;&gt;22</title>
<path fill="none" stroke="black" d="M1523,-88.9485C1523,-80.7153 1523,-71.848 1523,-63.4814"/>
<polygon fill="black" stroke="black" points="1526.5,-63.2367 1523,-53.2367 1519.5,-63.2367 1526.5,-63.2367"/>
</g>
<!-- 23 -->
<g id="node24" class="node"><title>23</title>
<polygon fill="#d739e5" stroke="black" points="1735.5,-53 1604.5,-53 1604.5,-0 1735.5,-0 1735.5,-53"/>
<text text-anchor="middle" x="1670" y="-37.8" font-family="Times,serif" font-size="14.00">samples = 1</text>
<text text-anchor="middle" x="1670" y="-22.8" font-family="Times,serif" font-size="14.00">value = [0, 0, 0, 1]</text>
<text text-anchor="middle" x="1670" y="-7.8" font-family="Times,serif" font-size="14.00">class = sociopolitical</text>
</g>
<!-- 21&#45;&gt;23 -->
<g id="edge23" class="edge"><title>21&#45;&gt;23</title>
<path fill="none" stroke="black" d="M1574.41,-88.9485C1589.64,-79.1601 1606.26,-68.4756 1621.31,-58.8015"/>
<polygon fill="black" stroke="black" points="1623.45,-61.5885 1629.97,-53.2367 1619.66,-55.7002 1623.45,-61.5885"/>
</g>
<!-- 25 -->
<g id="node26" class="node"><title>25</title>
<polygon fill="#399de5" stroke="black" points="1767,-149.5 1645,-149.5 1645,-96.5 1767,-96.5 1767,-149.5"/>
<text text-anchor="middle" x="1706" y="-134.3" font-family="Times,serif" font-size="14.00">samples = 4</text>
<text text-anchor="middle" x="1706" y="-119.3" font-family="Times,serif" font-size="14.00">value = [0, 0, 4, 0]</text>
<text text-anchor="middle" x="1706" y="-104.3" font-family="Times,serif" font-size="14.00">class = sentimental</text>
</g>
<!-- 24&#45;&gt;25 -->
<g id="edge25" class="edge"><title>24&#45;&gt;25</title>
<path fill="none" stroke="black" d="M1706,-192.884C1706,-182.326 1706,-170.597 1706,-159.854"/>
<polygon fill="black" stroke="black" points="1709.5,-159.52 1706,-149.52 1702.5,-159.52 1709.5,-159.52"/>
</g>
<!-- 26 -->
<g id="node27" class="node"><title>26</title>
<polygon fill="none" stroke="black" points="1993,-157 1785,-157 1785,-89 1993,-89 1993,-157"/>
<text text-anchor="middle" x="1889" y="-141.8" font-family="Times,serif" font-size="14.00">narrated_neutral_NRC &lt;= 20.3173</text>
<text text-anchor="middle" x="1889" y="-126.8" font-family="Times,serif" font-size="14.00">samples = 2</text>
<text text-anchor="middle" x="1889" y="-111.8" font-family="Times,serif" font-size="14.00">value = [0, 1, 0, 1]</text>
<text text-anchor="middle" x="1889" y="-96.8" font-family="Times,serif" font-size="14.00">class = historical</text>
</g>
<!-- 24&#45;&gt;26 -->
<g id="edge26" class="edge"><title>24&#45;&gt;26</title>
<path fill="none" stroke="black" d="M1765.41,-192.884C1783.08,-183.035 1802.58,-172.169 1820.76,-162.034"/>
<polygon fill="black" stroke="black" points="1822.54,-165.051 1829.57,-157.125 1819.13,-158.936 1822.54,-165.051"/>
</g>
<!-- 27 -->
<g id="node28" class="node"><title>27</title>
<polygon fill="#47e539" stroke="black" points="1912,-53 1792,-53 1792,-0 1912,-0 1912,-53"/>
<text text-anchor="middle" x="1852" y="-37.8" font-family="Times,serif" font-size="14.00">samples = 1</text>
<text text-anchor="middle" x="1852" y="-22.8" font-family="Times,serif" font-size="14.00">value = [0, 1, 0, 0]</text>
<text text-anchor="middle" x="1852" y="-7.8" font-family="Times,serif" font-size="14.00">class = historical</text>
</g>
<!-- 26&#45;&gt;27 -->
<g id="edge27" class="edge"><title>26&#45;&gt;27</title>
<path fill="none" stroke="black" d="M1876.06,-88.9485C1872.73,-80.4408 1869.13,-71.2562 1865.76,-62.6464"/>
<polygon fill="black" stroke="black" points="1868.98,-61.2723 1862.08,-53.2367 1862.46,-63.8245 1868.98,-61.2723"/>
</g>
<!-- 28 -->
<g id="node29" class="node"><title>28</title>
<polygon fill="#d739e5" stroke="black" points="2061.5,-53 1930.5,-53 1930.5,-0 2061.5,-0 2061.5,-53"/>
<text text-anchor="middle" x="1996" y="-37.8" font-family="Times,serif" font-size="14.00">samples = 1</text>
<text text-anchor="middle" x="1996" y="-22.8" font-family="Times,serif" font-size="14.00">value = [0, 0, 0, 1]</text>
<text text-anchor="middle" x="1996" y="-7.8" font-family="Times,serif" font-size="14.00">class = sociopolitical</text>
</g>
<!-- 26&#45;&gt;28 -->
<g id="edge28" class="edge"><title>26&#45;&gt;28</title>
<path fill="none" stroke="black" d="M1926.42,-88.9485C1937.09,-79.526 1948.7,-69.2731 1959.32,-59.8906"/>
<polygon fill="black" stroke="black" points="1961.68,-62.4798 1966.86,-53.2367 1957.05,-57.2331 1961.68,-62.4798"/>
</g>
</g>
</svg>
