<?xml version="1.0" encoding="UTF-8" standalone="no"?>
<!DOCTYPE svg PUBLIC "-//W3C//DTD SVG 1.1//EN"
 "http://www.w3.org/Graphics/SVG/1.1/DTD/svg11.dtd">
<!-- Generated by graphviz version 2.38.0 (20140413.2041)
 -->
<!-- Title: Tree Pages: 1 -->
<svg width="1992pt" height="685pt"
 viewBox="0.00 0.00 1992.00 685.00" xmlns="http://www.w3.org/2000/svg" xmlns:xlink="http://www.w3.org/1999/xlink">
<g id="graph0" class="graph" transform="scale(1 1) rotate(0) translate(4 681)">
<title>Tree</title>
<polygon fill="white" stroke="none" points="-4,4 -4,-681 1988,-681 1988,4 -4,4"/>
<!-- 0 -->
<g id="node1" class="node"><title>0</title>
<polygon fill="#39e581" fill-opacity="0.054902" stroke="black" points="1459.5,-677 1246.5,-677 1246.5,-609 1459.5,-609 1459.5,-677"/>
<text text-anchor="middle" x="1353" y="-661.8" font-family="Times,serif" font-size="14.00">speech_emotional_WN &lt;= 37.0743</text>
<text text-anchor="middle" x="1353" y="-646.8" font-family="Times,serif" font-size="14.00">samples = 112</text>
<text text-anchor="middle" x="1353" y="-631.8" font-family="Times,serif" font-size="14.00">value = [41, 45, 26]</text>
<text text-anchor="middle" x="1353" y="-616.8" font-family="Times,serif" font-size="14.00">class = 0.5</text>
</g>
<!-- 1 -->
<g id="node2" class="node"><title>1</title>
<polygon fill="#39e581" fill-opacity="0.070588" stroke="black" points="1248,-573 1094,-573 1094,-505 1248,-505 1248,-573"/>
<text text-anchor="middle" x="1171" y="-557.8" font-family="Times,serif" font-size="14.00">negative_WN &lt;= 5.5874</text>
<text text-anchor="middle" x="1171" y="-542.8" font-family="Times,serif" font-size="14.00">samples = 75</text>
<text text-anchor="middle" x="1171" y="-527.8" font-family="Times,serif" font-size="14.00">value = [33, 36, 6]</text>
<text text-anchor="middle" x="1171" y="-512.8" font-family="Times,serif" font-size="14.00">class = 0.5</text>
</g>
<!-- 0&#45;&gt;1 -->
<g id="edge1" class="edge"><title>0&#45;&gt;1</title>
<path fill="none" stroke="black" d="M1293.91,-608.884C1276.34,-599.035 1256.95,-588.169 1238.86,-578.034"/>
<polygon fill="black" stroke="black" points="1240.54,-574.961 1230.1,-573.125 1237.12,-581.067 1240.54,-574.961"/>
<text text-anchor="middle" x="1236.88" y="-593.488" font-family="Times,serif" font-size="14.00">True</text>
</g>
<!-- 30 -->
<g id="node31" class="node"><title>30</title>
<polygon fill="#8139e5" fill-opacity="0.392157" stroke="black" points="1633,-573 1437,-573 1437,-505 1633,-505 1633,-573"/>
<text text-anchor="middle" x="1535" y="-557.8" font-family="Times,serif" font-size="14.00">speech_neutral_WN &lt;= 28.1496</text>
<text text-anchor="middle" x="1535" y="-542.8" font-family="Times,serif" font-size="14.00">samples = 37</text>
<text text-anchor="middle" x="1535" y="-527.8" font-family="Times,serif" font-size="14.00">value = [8, 9, 20]</text>
<text text-anchor="middle" x="1535" y="-512.8" font-family="Times,serif" font-size="14.00">class = 1.0</text>
</g>
<!-- 0&#45;&gt;30 -->
<g id="edge30" class="edge"><title>0&#45;&gt;30</title>
<path fill="none" stroke="black" d="M1412.09,-608.884C1429.66,-599.035 1449.05,-588.169 1467.14,-578.034"/>
<polygon fill="black" stroke="black" points="1468.88,-581.067 1475.9,-573.125 1465.46,-574.961 1468.88,-581.067"/>
<text text-anchor="middle" x="1469.12" y="-593.488" font-family="Times,serif" font-size="14.00">False</text>
</g>
<!-- 2 -->
<g id="node3" class="node"><title>2</title>
<polygon fill="#e58139" fill-opacity="0.364706" stroke="black" points="804,-469 646,-469 646,-401 804,-401 804,-469"/>
<text text-anchor="middle" x="725" y="-453.8" font-family="Times,serif" font-size="14.00">positive_WN &lt;= 10.3947</text>
<text text-anchor="middle" x="725" y="-438.8" font-family="Times,serif" font-size="14.00">samples = 51</text>
<text text-anchor="middle" x="725" y="-423.8" font-family="Times,serif" font-size="14.00">value = [30, 18, 3]</text>
<text text-anchor="middle" x="725" y="-408.8" font-family="Times,serif" font-size="14.00">class = 0.0</text>
</g>
<!-- 1&#45;&gt;2 -->
<g id="edge2" class="edge"><title>1&#45;&gt;2</title>
<path fill="none" stroke="black" d="M1093.82,-520.349C1015.96,-502.542 895.859,-475.075 814.018,-456.358"/>
<polygon fill="black" stroke="black" points="814.762,-452.938 804.233,-454.121 813.201,-459.762 814.762,-452.938"/>
</g>
<!-- 19 -->
<g id="node20" class="node"><title>19</title>
<polygon fill="#39e581" fill-opacity="0.713725" stroke="black" points="1269.5,-469 1072.5,-469 1072.5,-401 1269.5,-401 1269.5,-469"/>
<text text-anchor="middle" x="1171" y="-453.8" font-family="Times,serif" font-size="14.00">narrated_neutral_WN &lt;= 4.4136</text>
<text text-anchor="middle" x="1171" y="-438.8" font-family="Times,serif" font-size="14.00">samples = 24</text>
<text text-anchor="middle" x="1171" y="-423.8" font-family="Times,serif" font-size="14.00">value = [3, 18, 3]</text>
<text text-anchor="middle" x="1171" y="-408.8" font-family="Times,serif" font-size="14.00">class = 0.5</text>
</g>
<!-- 1&#45;&gt;19 -->
<g id="edge19" class="edge"><title>1&#45;&gt;19</title>
<path fill="none" stroke="black" d="M1171,-504.884C1171,-496.778 1171,-487.982 1171,-479.472"/>
<polygon fill="black" stroke="black" points="1174.5,-479.299 1171,-469.299 1167.5,-479.299 1174.5,-479.299"/>
</g>
<!-- 3 -->
<g id="node4" class="node"><title>3</title>
<polygon fill="#e58139" fill-opacity="0.611765" stroke="black" points="526.5,-365 337.5,-365 337.5,-297 526.5,-297 526.5,-365"/>
<text text-anchor="middle" x="432" y="-349.8" font-family="Times,serif" font-size="14.00">speech_neutral_WN &lt;= 7.6155</text>
<text text-anchor="middle" x="432" y="-334.8" font-family="Times,serif" font-size="14.00">samples = 41</text>
<text text-anchor="middle" x="432" y="-319.8" font-family="Times,serif" font-size="14.00">value = [29, 10, 2]</text>
<text text-anchor="middle" x="432" y="-304.8" font-family="Times,serif" font-size="14.00">class = 0.0</text>
</g>
<!-- 2&#45;&gt;3 -->
<g id="edge3" class="edge"><title>2&#45;&gt;3</title>
<path fill="none" stroke="black" d="M645.71,-406.397C612.028,-394.672 572.294,-380.84 536.282,-368.303"/>
<polygon fill="black" stroke="black" points="537.318,-364.958 526.723,-364.975 535.017,-371.569 537.318,-364.958"/>
</g>
<!-- 12 -->
<g id="node13" class="node"><title>12</title>
<polygon fill="#39e581" fill-opacity="0.776471" stroke="black" points="835.5,-365 614.5,-365 614.5,-297 835.5,-297 835.5,-365"/>
<text text-anchor="middle" x="725" y="-349.8" font-family="Times,serif" font-size="14.00">narrated_emotional_WN &lt;= 76.3641</text>
<text text-anchor="middle" x="725" y="-334.8" font-family="Times,serif" font-size="14.00">samples = 10</text>
<text text-anchor="middle" x="725" y="-319.8" font-family="Times,serif" font-size="14.00">value = [1, 8, 1]</text>
<text text-anchor="middle" x="725" y="-304.8" font-family="Times,serif" font-size="14.00">class = 0.5</text>
</g>
<!-- 2&#45;&gt;12 -->
<g id="edge12" class="edge"><title>2&#45;&gt;12</title>
<path fill="none" stroke="black" d="M725,-400.884C725,-392.778 725,-383.982 725,-375.472"/>
<polygon fill="black" stroke="black" points="728.5,-375.299 725,-365.299 721.5,-375.299 728.5,-375.299"/>
</g>
<!-- 4 -->
<g id="node5" class="node"><title>4</title>
<polygon fill="#e58139" fill-opacity="0.937255" stroke="black" points="291.5,-261 70.5,-261 70.5,-193 291.5,-193 291.5,-261"/>
<text text-anchor="middle" x="181" y="-245.8" font-family="Times,serif" font-size="14.00">narrated_emotional_WN &lt;= 61.0555</text>
<text text-anchor="middle" x="181" y="-230.8" font-family="Times,serif" font-size="14.00">samples = 17</text>
<text text-anchor="middle" x="181" y="-215.8" font-family="Times,serif" font-size="14.00">value = [16, 0, 1]</text>
<text text-anchor="middle" x="181" y="-200.8" font-family="Times,serif" font-size="14.00">class = 0.0</text>
</g>
<!-- 3&#45;&gt;4 -->
<g id="edge4" class="edge"><title>3&#45;&gt;4</title>
<path fill="none" stroke="black" d="M350.507,-296.884C325.392,-286.677 297.585,-275.377 271.879,-264.931"/>
<polygon fill="black" stroke="black" points="273.095,-261.647 262.513,-261.125 270.459,-268.132 273.095,-261.647"/>
</g>
<!-- 7 -->
<g id="node8" class="node"><title>7</title>
<polygon fill="#e58139" fill-opacity="0.215686" stroke="black" points="509,-261 355,-261 355,-193 509,-193 509,-261"/>
<text text-anchor="middle" x="432" y="-245.8" font-family="Times,serif" font-size="14.00">negative_WN &lt;= 4.0562</text>
<text text-anchor="middle" x="432" y="-230.8" font-family="Times,serif" font-size="14.00">samples = 24</text>
<text text-anchor="middle" x="432" y="-215.8" font-family="Times,serif" font-size="14.00">value = [13, 10, 1]</text>
<text text-anchor="middle" x="432" y="-200.8" font-family="Times,serif" font-size="14.00">class = 0.0</text>
</g>
<!-- 3&#45;&gt;7 -->
<g id="edge7" class="edge"><title>3&#45;&gt;7</title>
<path fill="none" stroke="black" d="M432,-296.884C432,-288.778 432,-279.982 432,-271.472"/>
<polygon fill="black" stroke="black" points="435.5,-271.299 432,-261.299 428.5,-271.299 435.5,-271.299"/>
</g>
<!-- 5 -->
<g id="node6" class="node"><title>5</title>
<polygon fill="#8139e5" stroke="black" points="106,-149.5 7.10543e-15,-149.5 7.10543e-15,-96.5 106,-96.5 106,-149.5"/>
<text text-anchor="middle" x="53" y="-134.3" font-family="Times,serif" font-size="14.00">samples = 1</text>
<text text-anchor="middle" x="53" y="-119.3" font-family="Times,serif" font-size="14.00">value = [0, 0, 1]</text>
<text text-anchor="middle" x="53" y="-104.3" font-family="Times,serif" font-size="14.00">class = 1.0</text>
</g>
<!-- 4&#45;&gt;5 -->
<g id="edge5" class="edge"><title>4&#45;&gt;5</title>
<path fill="none" stroke="black" d="M139.442,-192.884C124.537,-181.006 107.772,-167.646 93.0013,-155.876"/>
<polygon fill="black" stroke="black" points="95.0269,-153.015 85.025,-149.52 90.6644,-158.489 95.0269,-153.015"/>
</g>
<!-- 6 -->
<g id="node7" class="node"><title>6</title>
<polygon fill="#e58139" stroke="black" points="237.5,-149.5 124.5,-149.5 124.5,-96.5 237.5,-96.5 237.5,-149.5"/>
<text text-anchor="middle" x="181" y="-134.3" font-family="Times,serif" font-size="14.00">samples = 16</text>
<text text-anchor="middle" x="181" y="-119.3" font-family="Times,serif" font-size="14.00">value = [16, 0, 0]</text>
<text text-anchor="middle" x="181" y="-104.3" font-family="Times,serif" font-size="14.00">class = 0.0</text>
</g>
<!-- 4&#45;&gt;6 -->
<g id="edge6" class="edge"><title>4&#45;&gt;6</title>
<path fill="none" stroke="black" d="M181,-192.884C181,-182.326 181,-170.597 181,-159.854"/>
<polygon fill="black" stroke="black" points="184.5,-159.52 181,-149.52 177.5,-159.52 184.5,-159.52"/>
</g>
<!-- 8 -->
<g id="node9" class="node"><title>8</title>
<polygon fill="#e58139" fill-opacity="0.713725" stroke="black" points="452.5,-157 255.5,-157 255.5,-89 452.5,-89 452.5,-157"/>
<text text-anchor="middle" x="354" y="-141.8" font-family="Times,serif" font-size="14.00">narrated_neutral_WN &lt;= 4.6689</text>
<text text-anchor="middle" x="354" y="-126.8" font-family="Times,serif" font-size="14.00">samples = 17</text>
<text text-anchor="middle" x="354" y="-111.8" font-family="Times,serif" font-size="14.00">value = [13, 3, 1]</text>
<text text-anchor="middle" x="354" y="-96.8" font-family="Times,serif" font-size="14.00">class = 0.0</text>
</g>
<!-- 7&#45;&gt;8 -->
<g id="edge8" class="edge"><title>7&#45;&gt;8</title>
<path fill="none" stroke="black" d="M406.676,-192.884C400,-184.154 392.713,-174.625 385.746,-165.514"/>
<polygon fill="black" stroke="black" points="388.319,-163.117 379.464,-157.299 382.758,-167.369 388.319,-163.117"/>
</g>
<!-- 11 -->
<g id="node12" class="node"><title>11</title>
<polygon fill="#39e581" stroke="black" points="577,-149.5 471,-149.5 471,-96.5 577,-96.5 577,-149.5"/>
<text text-anchor="middle" x="524" y="-134.3" font-family="Times,serif" font-size="14.00">samples = 7</text>
<text text-anchor="middle" x="524" y="-119.3" font-family="Times,serif" font-size="14.00">value = [0, 7, 0]</text>
<text text-anchor="middle" x="524" y="-104.3" font-family="Times,serif" font-size="14.00">class = 0.5</text>
</g>
<!-- 7&#45;&gt;11 -->
<g id="edge11" class="edge"><title>7&#45;&gt;11</title>
<path fill="none" stroke="black" d="M461.87,-192.884C472.186,-181.446 483.742,-168.634 494.064,-157.19"/>
<polygon fill="black" stroke="black" points="496.883,-159.29 500.982,-149.52 491.685,-154.601 496.883,-159.29"/>
</g>
<!-- 9 -->
<g id="node10" class="node"><title>9</title>
<polygon fill="#39e581" stroke="black" points="343,-53 237,-53 237,-0 343,-0 343,-53"/>
<text text-anchor="middle" x="290" y="-37.8" font-family="Times,serif" font-size="14.00">samples = 1</text>
<text text-anchor="middle" x="290" y="-22.8" font-family="Times,serif" font-size="14.00">value = [0, 1, 0]</text>
<text text-anchor="middle" x="290" y="-7.8" font-family="Times,serif" font-size="14.00">class = 0.5</text>
</g>
<!-- 8&#45;&gt;9 -->
<g id="edge9" class="edge"><title>8&#45;&gt;9</title>
<path fill="none" stroke="black" d="M331.616,-88.9485C325.606,-80.0749 319.098,-70.4648 313.053,-61.5388"/>
<polygon fill="black" stroke="black" points="315.936,-59.5539 307.43,-53.2367 310.14,-63.4792 315.936,-59.5539"/>
</g>
<!-- 10 -->
<g id="node11" class="node"><title>10</title>
<polygon fill="#e58139" fill-opacity="0.784314" stroke="black" points="474.5,-53 361.5,-53 361.5,-0 474.5,-0 474.5,-53"/>
<text text-anchor="middle" x="418" y="-37.8" font-family="Times,serif" font-size="14.00">samples = 16</text>
<text text-anchor="middle" x="418" y="-22.8" font-family="Times,serif" font-size="14.00">value = [13, 2, 1]</text>
<text text-anchor="middle" x="418" y="-7.8" font-family="Times,serif" font-size="14.00">class = 0.0</text>
</g>
<!-- 8&#45;&gt;10 -->
<g id="edge10" class="edge"><title>8&#45;&gt;10</title>
<path fill="none" stroke="black" d="M376.384,-88.9485C382.394,-80.0749 388.902,-70.4648 394.947,-61.5388"/>
<polygon fill="black" stroke="black" points="397.86,-63.4792 400.57,-53.2367 392.064,-59.5539 397.86,-63.4792"/>
</g>
<!-- 13 -->
<g id="node14" class="node"><title>13</title>
<polygon fill="#39e581" fill-opacity="0.874510" stroke="black" points="724,-261 572,-261 572,-193 724,-193 724,-261"/>
<text text-anchor="middle" x="648" y="-245.8" font-family="Times,serif" font-size="14.00">neutral_WN &lt;= 19.3753</text>
<text text-anchor="middle" x="648" y="-230.8" font-family="Times,serif" font-size="14.00">samples = 9</text>
<text text-anchor="middle" x="648" y="-215.8" font-family="Times,serif" font-size="14.00">value = [1, 8, 0]</text>
<text text-anchor="middle" x="648" y="-200.8" font-family="Times,serif" font-size="14.00">class = 0.5</text>
</g>
<!-- 12&#45;&gt;13 -->
<g id="edge13" class="edge"><title>12&#45;&gt;13</title>
<path fill="none" stroke="black" d="M700,-296.884C693.411,-288.154 686.217,-278.625 679.339,-269.514"/>
<polygon fill="black" stroke="black" points="681.956,-267.172 673.138,-261.299 676.369,-271.389 681.956,-267.172"/>
</g>
<!-- 18 -->
<g id="node19" class="node"><title>18</title>
<polygon fill="#8139e5" stroke="black" points="848,-253.5 742,-253.5 742,-200.5 848,-200.5 848,-253.5"/>
<text text-anchor="middle" x="795" y="-238.3" font-family="Times,serif" font-size="14.00">samples = 1</text>
<text text-anchor="middle" x="795" y="-223.3" font-family="Times,serif" font-size="14.00">value = [0, 0, 1]</text>
<text text-anchor="middle" x="795" y="-208.3" font-family="Times,serif" font-size="14.00">class = 1.0</text>
</g>
<!-- 12&#45;&gt;18 -->
<g id="edge18" class="edge"><title>12&#45;&gt;18</title>
<path fill="none" stroke="black" d="M747.727,-296.884C755.426,-285.666 764.031,-273.126 771.768,-261.852"/>
<polygon fill="black" stroke="black" points="774.714,-263.746 777.486,-253.52 768.942,-259.785 774.714,-263.746"/>
</g>
<!-- 14 -->
<g id="node15" class="node"><title>14</title>
<polygon fill="#39e581" stroke="black" points="701,-149.5 595,-149.5 595,-96.5 701,-96.5 701,-149.5"/>
<text text-anchor="middle" x="648" y="-134.3" font-family="Times,serif" font-size="14.00">samples = 7</text>
<text text-anchor="middle" x="648" y="-119.3" font-family="Times,serif" font-size="14.00">value = [0, 7, 0]</text>
<text text-anchor="middle" x="648" y="-104.3" font-family="Times,serif" font-size="14.00">class = 0.5</text>
</g>
<!-- 13&#45;&gt;14 -->
<g id="edge14" class="edge"><title>13&#45;&gt;14</title>
<path fill="none" stroke="black" d="M648,-192.884C648,-182.326 648,-170.597 648,-159.854"/>
<polygon fill="black" stroke="black" points="651.5,-159.52 648,-149.52 644.5,-159.52 651.5,-159.52"/>
</g>
<!-- 15 -->
<g id="node16" class="node"><title>15</title>
<polygon fill="none" stroke="black" points="841,-157 719,-157 719,-89 841,-89 841,-157"/>
<text text-anchor="middle" x="780" y="-141.8" font-family="Times,serif" font-size="14.00">speech &lt;= 37.5773</text>
<text text-anchor="middle" x="780" y="-126.8" font-family="Times,serif" font-size="14.00">samples = 2</text>
<text text-anchor="middle" x="780" y="-111.8" font-family="Times,serif" font-size="14.00">value = [1, 1, 0]</text>
<text text-anchor="middle" x="780" y="-96.8" font-family="Times,serif" font-size="14.00">class = 0.0</text>
</g>
<!-- 13&#45;&gt;15 -->
<g id="edge15" class="edge"><title>13&#45;&gt;15</title>
<path fill="none" stroke="black" d="M690.857,-192.884C702.96,-183.531 716.253,-173.259 728.794,-163.568"/>
<polygon fill="black" stroke="black" points="731.134,-166.183 736.907,-157.299 726.854,-160.644 731.134,-166.183"/>
</g>
<!-- 16 -->
<g id="node17" class="node"><title>16</title>
<polygon fill="#e58139" stroke="black" points="771,-53 665,-53 665,-0 771,-0 771,-53"/>
<text text-anchor="middle" x="718" y="-37.8" font-family="Times,serif" font-size="14.00">samples = 1</text>
<text text-anchor="middle" x="718" y="-22.8" font-family="Times,serif" font-size="14.00">value = [1, 0, 0]</text>
<text text-anchor="middle" x="718" y="-7.8" font-family="Times,serif" font-size="14.00">class = 0.0</text>
</g>
<!-- 15&#45;&gt;16 -->
<g id="edge16" class="edge"><title>15&#45;&gt;16</title>
<path fill="none" stroke="black" d="M758.315,-88.9485C752.554,-80.1664 746.319,-70.6629 740.514,-61.815"/>
<polygon fill="black" stroke="black" points="743.297,-59.6779 734.885,-53.2367 737.445,-63.5178 743.297,-59.6779"/>
</g>
<!-- 17 -->
<g id="node18" class="node"><title>17</title>
<polygon fill="#39e581" stroke="black" points="895,-53 789,-53 789,-0 895,-0 895,-53"/>
<text text-anchor="middle" x="842" y="-37.8" font-family="Times,serif" font-size="14.00">samples = 1</text>
<text text-anchor="middle" x="842" y="-22.8" font-family="Times,serif" font-size="14.00">value = [0, 1, 0]</text>
<text text-anchor="middle" x="842" y="-7.8" font-family="Times,serif" font-size="14.00">class = 0.5</text>
</g>
<!-- 15&#45;&gt;17 -->
<g id="edge17" class="edge"><title>15&#45;&gt;17</title>
<path fill="none" stroke="black" d="M801.685,-88.9485C807.446,-80.1664 813.681,-70.6629 819.486,-61.815"/>
<polygon fill="black" stroke="black" points="822.555,-63.5178 825.115,-53.2367 816.703,-59.6779 822.555,-63.5178"/>
</g>
<!-- 20 -->
<g id="node21" class="node"><title>20</title>
<polygon fill="#e58139" fill-opacity="0.250980" stroke="black" points="1165,-365 995,-365 995,-297 1165,-297 1165,-365"/>
<text text-anchor="middle" x="1080" y="-349.8" font-family="Times,serif" font-size="14.00">emotional_WN &lt;= 92.7083</text>
<text text-anchor="middle" x="1080" y="-334.8" font-family="Times,serif" font-size="14.00">samples = 6</text>
<text text-anchor="middle" x="1080" y="-319.8" font-family="Times,serif" font-size="14.00">value = [3, 1, 2]</text>
<text text-anchor="middle" x="1080" y="-304.8" font-family="Times,serif" font-size="14.00">class = 0.0</text>
</g>
<!-- 19&#45;&gt;20 -->
<g id="edge20" class="edge"><title>19&#45;&gt;20</title>
<path fill="none" stroke="black" d="M1141.45,-400.884C1133.51,-391.976 1124.82,-382.235 1116.54,-372.957"/>
<polygon fill="black" stroke="black" points="1118.98,-370.431 1109.71,-365.299 1113.75,-375.091 1118.98,-370.431"/>
</g>
<!-- 25 -->
<g id="node26" class="node"><title>25</title>
<polygon fill="#39e581" fill-opacity="0.941176" stroke="black" points="1341,-365 1183,-365 1183,-297 1341,-297 1341,-365"/>
<text text-anchor="middle" x="1262" y="-349.8" font-family="Times,serif" font-size="14.00">positive_WN &lt;= 13.4559</text>
<text text-anchor="middle" x="1262" y="-334.8" font-family="Times,serif" font-size="14.00">samples = 18</text>
<text text-anchor="middle" x="1262" y="-319.8" font-family="Times,serif" font-size="14.00">value = [0, 17, 1]</text>
<text text-anchor="middle" x="1262" y="-304.8" font-family="Times,serif" font-size="14.00">class = 0.5</text>
</g>
<!-- 19&#45;&gt;25 -->
<g id="edge25" class="edge"><title>19&#45;&gt;25</title>
<path fill="none" stroke="black" d="M1200.55,-400.884C1208.49,-391.976 1217.18,-382.235 1225.46,-372.957"/>
<polygon fill="black" stroke="black" points="1228.25,-375.091 1232.29,-365.299 1223.02,-370.431 1228.25,-375.091"/>
</g>
<!-- 21 -->
<g id="node22" class="node"><title>21</title>
<polygon fill="#8139e5" fill-opacity="0.498039" stroke="black" points="1036,-261 866,-261 866,-193 1036,-193 1036,-261"/>
<text text-anchor="middle" x="951" y="-245.8" font-family="Times,serif" font-size="14.00">emotional_WN &lt;= 84.1336</text>
<text text-anchor="middle" x="951" y="-230.8" font-family="Times,serif" font-size="14.00">samples = 3</text>
<text text-anchor="middle" x="951" y="-215.8" font-family="Times,serif" font-size="14.00">value = [0, 1, 2]</text>
<text text-anchor="middle" x="951" y="-200.8" font-family="Times,serif" font-size="14.00">class = 1.0</text>
</g>
<!-- 20&#45;&gt;21 -->
<g id="edge21" class="edge"><title>20&#45;&gt;21</title>
<path fill="none" stroke="black" d="M1038.12,-296.884C1026.29,-287.531 1013.3,-277.259 1001.04,-267.568"/>
<polygon fill="black" stroke="black" points="1003.13,-264.756 993.114,-261.299 998.787,-270.247 1003.13,-264.756"/>
</g>
<!-- 24 -->
<g id="node25" class="node"><title>24</title>
<polygon fill="#e58139" stroke="black" points="1160,-253.5 1054,-253.5 1054,-200.5 1160,-200.5 1160,-253.5"/>
<text text-anchor="middle" x="1107" y="-238.3" font-family="Times,serif" font-size="14.00">samples = 3</text>
<text text-anchor="middle" x="1107" y="-223.3" font-family="Times,serif" font-size="14.00">value = [3, 0, 0]</text>
<text text-anchor="middle" x="1107" y="-208.3" font-family="Times,serif" font-size="14.00">class = 0.0</text>
</g>
<!-- 20&#45;&gt;24 -->
<g id="edge24" class="edge"><title>20&#45;&gt;24</title>
<path fill="none" stroke="black" d="M1088.77,-296.884C1091.59,-286.216 1094.73,-274.352 1097.6,-263.519"/>
<polygon fill="black" stroke="black" points="1101.07,-264.083 1100.24,-253.52 1094.3,-262.291 1101.07,-264.083"/>
</g>
<!-- 22 -->
<g id="node23" class="node"><title>22</title>
<polygon fill="#39e581" stroke="black" points="985,-149.5 879,-149.5 879,-96.5 985,-96.5 985,-149.5"/>
<text text-anchor="middle" x="932" y="-134.3" font-family="Times,serif" font-size="14.00">samples = 1</text>
<text text-anchor="middle" x="932" y="-119.3" font-family="Times,serif" font-size="14.00">value = [0, 1, 0]</text>
<text text-anchor="middle" x="932" y="-104.3" font-family="Times,serif" font-size="14.00">class = 0.5</text>
</g>
<!-- 21&#45;&gt;22 -->
<g id="edge22" class="edge"><title>21&#45;&gt;22</title>
<path fill="none" stroke="black" d="M944.831,-192.884C942.844,-182.216 940.634,-170.352 938.616,-159.519"/>
<polygon fill="black" stroke="black" points="942.026,-158.71 936.754,-149.52 935.144,-159.992 942.026,-158.71"/>
</g>
<!-- 23 -->
<g id="node24" class="node"><title>23</title>
<polygon fill="#8139e5" stroke="black" points="1109,-149.5 1003,-149.5 1003,-96.5 1109,-96.5 1109,-149.5"/>
<text text-anchor="middle" x="1056" y="-134.3" font-family="Times,serif" font-size="14.00">samples = 2</text>
<text text-anchor="middle" x="1056" y="-119.3" font-family="Times,serif" font-size="14.00">value = [0, 0, 2]</text>
<text text-anchor="middle" x="1056" y="-104.3" font-family="Times,serif" font-size="14.00">class = 1.0</text>
</g>
<!-- 21&#45;&gt;23 -->
<g id="edge23" class="edge"><title>21&#45;&gt;23</title>
<path fill="none" stroke="black" d="M985.09,-192.884C997.091,-181.226 1010.56,-168.141 1022.51,-156.532"/>
<polygon fill="black" stroke="black" points="1025,-158.998 1029.73,-149.52 1020.12,-153.977 1025,-158.998"/>
</g>
<!-- 26 -->
<g id="node27" class="node"><title>26</title>
<polygon fill="#39e581" stroke="black" points="1291.5,-253.5 1178.5,-253.5 1178.5,-200.5 1291.5,-200.5 1291.5,-253.5"/>
<text text-anchor="middle" x="1235" y="-238.3" font-family="Times,serif" font-size="14.00">samples = 16</text>
<text text-anchor="middle" x="1235" y="-223.3" font-family="Times,serif" font-size="14.00">value = [0, 16, 0]</text>
<text text-anchor="middle" x="1235" y="-208.3" font-family="Times,serif" font-size="14.00">class = 0.5</text>
</g>
<!-- 25&#45;&gt;26 -->
<g id="edge26" class="edge"><title>25&#45;&gt;26</title>
<path fill="none" stroke="black" d="M1253.23,-296.884C1250.41,-286.216 1247.27,-274.352 1244.4,-263.519"/>
<polygon fill="black" stroke="black" points="1247.7,-262.291 1241.76,-253.52 1240.93,-264.083 1247.7,-262.291"/>
</g>
<!-- 27 -->
<g id="node28" class="node"><title>27</title>
<polygon fill="none" stroke="black" points="1464,-261 1310,-261 1310,-193 1464,-193 1464,-261"/>
<text text-anchor="middle" x="1387" y="-245.8" font-family="Times,serif" font-size="14.00">negative_WN &lt;= 7.0981</text>
<text text-anchor="middle" x="1387" y="-230.8" font-family="Times,serif" font-size="14.00">samples = 2</text>
<text text-anchor="middle" x="1387" y="-215.8" font-family="Times,serif" font-size="14.00">value = [0, 1, 1]</text>
<text text-anchor="middle" x="1387" y="-200.8" font-family="Times,serif" font-size="14.00">class = 0.5</text>
</g>
<!-- 25&#45;&gt;27 -->
<g id="edge27" class="edge"><title>25&#45;&gt;27</title>
<path fill="none" stroke="black" d="M1302.58,-296.884C1313.94,-287.62 1326.39,-277.455 1338.17,-267.845"/>
<polygon fill="black" stroke="black" points="1340.66,-270.333 1346.19,-261.299 1336.23,-264.91 1340.66,-270.333"/>
</g>
<!-- 28 -->
<g id="node29" class="node"><title>28</title>
<polygon fill="#39e581" stroke="black" points="1348,-149.5 1242,-149.5 1242,-96.5 1348,-96.5 1348,-149.5"/>
<text text-anchor="middle" x="1295" y="-134.3" font-family="Times,serif" font-size="14.00">samples = 1</text>
<text text-anchor="middle" x="1295" y="-119.3" font-family="Times,serif" font-size="14.00">value = [0, 1, 0]</text>
<text text-anchor="middle" x="1295" y="-104.3" font-family="Times,serif" font-size="14.00">class = 0.5</text>
</g>
<!-- 27&#45;&gt;28 -->
<g id="edge28" class="edge"><title>27&#45;&gt;28</title>
<path fill="none" stroke="black" d="M1357.13,-192.884C1346.81,-181.446 1335.26,-168.634 1324.94,-157.19"/>
<polygon fill="black" stroke="black" points="1327.31,-154.601 1318.02,-149.52 1322.12,-159.29 1327.31,-154.601"/>
</g>
<!-- 29 -->
<g id="node30" class="node"><title>29</title>
<polygon fill="#8139e5" stroke="black" points="1472,-149.5 1366,-149.5 1366,-96.5 1472,-96.5 1472,-149.5"/>
<text text-anchor="middle" x="1419" y="-134.3" font-family="Times,serif" font-size="14.00">samples = 1</text>
<text text-anchor="middle" x="1419" y="-119.3" font-family="Times,serif" font-size="14.00">value = [0, 0, 1]</text>
<text text-anchor="middle" x="1419" y="-104.3" font-family="Times,serif" font-size="14.00">class = 1.0</text>
</g>
<!-- 27&#45;&gt;29 -->
<g id="edge29" class="edge"><title>27&#45;&gt;29</title>
<path fill="none" stroke="black" d="M1397.39,-192.884C1400.77,-182.106 1404.53,-170.108 1407.96,-159.184"/>
<polygon fill="black" stroke="black" points="1411.34,-160.109 1410.99,-149.52 1404.66,-158.014 1411.34,-160.109"/>
</g>
<!-- 31 -->
<g id="node32" class="node"><title>31</title>
<polygon fill="#8139e5" fill-opacity="0.458824" stroke="black" points="1645.5,-469 1424.5,-469 1424.5,-401 1645.5,-401 1645.5,-469"/>
<text text-anchor="middle" x="1535" y="-453.8" font-family="Times,serif" font-size="14.00">narrated_emotional_WN &lt;= 49.1168</text>
<text text-anchor="middle" x="1535" y="-438.8" font-family="Times,serif" font-size="14.00">samples = 33</text>
<text text-anchor="middle" x="1535" y="-423.8" font-family="Times,serif" font-size="14.00">value = [4, 9, 20]</text>
<text text-anchor="middle" x="1535" y="-408.8" font-family="Times,serif" font-size="14.00">class = 1.0</text>
</g>
<!-- 30&#45;&gt;31 -->
<g id="edge31" class="edge"><title>30&#45;&gt;31</title>
<path fill="none" stroke="black" d="M1535,-504.884C1535,-496.778 1535,-487.982 1535,-479.472"/>
<polygon fill="black" stroke="black" points="1538.5,-479.299 1535,-469.299 1531.5,-479.299 1538.5,-479.299"/>
</g>
<!-- 42 -->
<g id="node43" class="node"><title>42</title>
<polygon fill="#e58139" stroke="black" points="1769,-461.5 1663,-461.5 1663,-408.5 1769,-408.5 1769,-461.5"/>
<text text-anchor="middle" x="1716" y="-446.3" font-family="Times,serif" font-size="14.00">samples = 4</text>
<text text-anchor="middle" x="1716" y="-431.3" font-family="Times,serif" font-size="14.00">value = [4, 0, 0]</text>
<text text-anchor="middle" x="1716" y="-416.3" font-family="Times,serif" font-size="14.00">class = 0.0</text>
</g>
<!-- 30&#45;&gt;42 -->
<g id="edge42" class="edge"><title>30&#45;&gt;42</title>
<path fill="none" stroke="black" d="M1593.77,-504.884C1615.62,-492.566 1640.31,-478.655 1661.74,-466.575"/>
<polygon fill="black" stroke="black" points="1663.72,-469.479 1670.71,-461.52 1660.28,-463.38 1663.72,-469.479"/>
</g>
<!-- 32 -->
<g id="node33" class="node"><title>32</title>
<polygon fill="#8139e5" fill-opacity="0.584314" stroke="black" points="1612,-365 1458,-365 1458,-297 1612,-297 1612,-365"/>
<text text-anchor="middle" x="1535" y="-349.8" font-family="Times,serif" font-size="14.00">negative_WN &lt;= 1.4152</text>
<text text-anchor="middle" x="1535" y="-334.8" font-family="Times,serif" font-size="14.00">samples = 30</text>
<text text-anchor="middle" x="1535" y="-319.8" font-family="Times,serif" font-size="14.00">value = [4, 6, 20]</text>
<text text-anchor="middle" x="1535" y="-304.8" font-family="Times,serif" font-size="14.00">class = 1.0</text>
</g>
<!-- 31&#45;&gt;32 -->
<g id="edge32" class="edge"><title>31&#45;&gt;32</title>
<path fill="none" stroke="black" d="M1535,-400.884C1535,-392.778 1535,-383.982 1535,-375.472"/>
<polygon fill="black" stroke="black" points="1538.5,-375.299 1535,-365.299 1531.5,-375.299 1538.5,-375.299"/>
</g>
<!-- 41 -->
<g id="node42" class="node"><title>41</title>
<polygon fill="#39e581" stroke="black" points="1736,-357.5 1630,-357.5 1630,-304.5 1736,-304.5 1736,-357.5"/>
<text text-anchor="middle" x="1683" y="-342.3" font-family="Times,serif" font-size="14.00">samples = 3</text>
<text text-anchor="middle" x="1683" y="-327.3" font-family="Times,serif" font-size="14.00">value = [0, 3, 0]</text>
<text text-anchor="middle" x="1683" y="-312.3" font-family="Times,serif" font-size="14.00">class = 0.5</text>
</g>
<!-- 31&#45;&gt;41 -->
<g id="edge41" class="edge"><title>31&#45;&gt;41</title>
<path fill="none" stroke="black" d="M1583.05,-400.884C1600.6,-388.786 1620.39,-375.151 1637.69,-363.224"/>
<polygon fill="black" stroke="black" points="1639.72,-366.077 1645.97,-357.52 1635.75,-360.313 1639.72,-366.077"/>
</g>
<!-- 33 -->
<g id="node34" class="node"><title>33</title>
<polygon fill="#39e581" stroke="black" points="1588,-253.5 1482,-253.5 1482,-200.5 1588,-200.5 1588,-253.5"/>
<text text-anchor="middle" x="1535" y="-238.3" font-family="Times,serif" font-size="14.00">samples = 2</text>
<text text-anchor="middle" x="1535" y="-223.3" font-family="Times,serif" font-size="14.00">value = [0, 2, 0]</text>
<text text-anchor="middle" x="1535" y="-208.3" font-family="Times,serif" font-size="14.00">class = 0.5</text>
</g>
<!-- 32&#45;&gt;33 -->
<g id="edge33" class="edge"><title>32&#45;&gt;33</title>
<path fill="none" stroke="black" d="M1535,-296.884C1535,-286.326 1535,-274.597 1535,-263.854"/>
<polygon fill="black" stroke="black" points="1538.5,-263.52 1535,-253.52 1531.5,-263.52 1538.5,-263.52"/>
</g>
<!-- 34 -->
<g id="node35" class="node"><title>34</title>
<polygon fill="#8139e5" fill-opacity="0.666667" stroke="black" points="1719.5,-261 1606.5,-261 1606.5,-193 1719.5,-193 1719.5,-261"/>
<text text-anchor="middle" x="1663" y="-245.8" font-family="Times,serif" font-size="14.00">section &lt;= 2.5</text>
<text text-anchor="middle" x="1663" y="-230.8" font-family="Times,serif" font-size="14.00">samples = 28</text>
<text text-anchor="middle" x="1663" y="-215.8" font-family="Times,serif" font-size="14.00">value = [4, 4, 20]</text>
<text text-anchor="middle" x="1663" y="-200.8" font-family="Times,serif" font-size="14.00">class = 1.0</text>
</g>
<!-- 32&#45;&gt;34 -->
<g id="edge34" class="edge"><title>32&#45;&gt;34</title>
<path fill="none" stroke="black" d="M1576.56,-296.884C1588.29,-287.531 1601.18,-277.259 1613.35,-267.568"/>
<polygon fill="black" stroke="black" points="1615.57,-270.269 1621.21,-261.299 1611.21,-264.794 1615.57,-270.269"/>
</g>
<!-- 35 -->
<g id="node36" class="node"><title>35</title>
<polygon fill="#8139e5" fill-opacity="0.223529" stroke="black" points="1705.5,-157 1554.5,-157 1554.5,-89 1705.5,-89 1705.5,-157"/>
<text text-anchor="middle" x="1630" y="-141.8" font-family="Times,serif" font-size="14.00">positive_WN &lt;= 7.5917</text>
<text text-anchor="middle" x="1630" y="-126.8" font-family="Times,serif" font-size="14.00">samples = 13</text>
<text text-anchor="middle" x="1630" y="-111.8" font-family="Times,serif" font-size="14.00">value = [3, 4, 6]</text>
<text text-anchor="middle" x="1630" y="-96.8" font-family="Times,serif" font-size="14.00">class = 1.0</text>
</g>
<!-- 34&#45;&gt;35 -->
<g id="edge35" class="edge"><title>34&#45;&gt;35</title>
<path fill="none" stroke="black" d="M1652.29,-192.884C1649.61,-184.6 1646.69,-175.595 1643.88,-166.911"/>
<polygon fill="black" stroke="black" points="1647.18,-165.736 1640.77,-157.299 1640.52,-167.891 1647.18,-165.736"/>
</g>
<!-- 38 -->
<g id="node39" class="node"><title>38</title>
<polygon fill="#8139e5" fill-opacity="0.929412" stroke="black" points="1914,-157 1724,-157 1724,-89 1914,-89 1914,-157"/>
<text text-anchor="middle" x="1819" y="-141.8" font-family="Times,serif" font-size="14.00">narrated_neutral_WN &lt;= 5.922</text>
<text text-anchor="middle" x="1819" y="-126.8" font-family="Times,serif" font-size="14.00">samples = 15</text>
<text text-anchor="middle" x="1819" y="-111.8" font-family="Times,serif" font-size="14.00">value = [1, 0, 14]</text>
<text text-anchor="middle" x="1819" y="-96.8" font-family="Times,serif" font-size="14.00">class = 1.0</text>
</g>
<!-- 34&#45;&gt;38 -->
<g id="edge38" class="edge"><title>34&#45;&gt;38</title>
<path fill="none" stroke="black" d="M1713.65,-192.884C1728.3,-183.304 1744.42,-172.761 1759.56,-162.864"/>
<polygon fill="black" stroke="black" points="1761.88,-165.527 1768.34,-157.125 1758.05,-159.668 1761.88,-165.527"/>
</g>
<!-- 36 -->
<g id="node37" class="node"><title>36</title>
<polygon fill="#e58139" fill-opacity="0.666667" stroke="black" points="1574,-53 1468,-53 1468,-0 1574,-0 1574,-53"/>
<text text-anchor="middle" x="1521" y="-37.8" font-family="Times,serif" font-size="14.00">samples = 4</text>
<text text-anchor="middle" x="1521" y="-22.8" font-family="Times,serif" font-size="14.00">value = [3, 1, 0]</text>
<text text-anchor="middle" x="1521" y="-7.8" font-family="Times,serif" font-size="14.00">class = 0.0</text>
</g>
<!-- 35&#45;&gt;36 -->
<g id="edge36" class="edge"><title>35&#45;&gt;36</title>
<path fill="none" stroke="black" d="M1591.88,-88.9485C1581.01,-79.526 1569.18,-69.2731 1558.36,-59.8906"/>
<polygon fill="black" stroke="black" points="1560.53,-57.1428 1550.69,-53.2367 1555.95,-62.4319 1560.53,-57.1428"/>
</g>
<!-- 37 -->
<g id="node38" class="node"><title>37</title>
<polygon fill="#8139e5" fill-opacity="0.498039" stroke="black" points="1698,-53 1592,-53 1592,-0 1698,-0 1698,-53"/>
<text text-anchor="middle" x="1645" y="-37.8" font-family="Times,serif" font-size="14.00">samples = 9</text>
<text text-anchor="middle" x="1645" y="-22.8" font-family="Times,serif" font-size="14.00">value = [0, 3, 6]</text>
<text text-anchor="middle" x="1645" y="-7.8" font-family="Times,serif" font-size="14.00">class = 1.0</text>
</g>
<!-- 35&#45;&gt;37 -->
<g id="edge37" class="edge"><title>35&#45;&gt;37</title>
<path fill="none" stroke="black" d="M1635.25,-88.9485C1636.57,-80.6238 1637.99,-71.6509 1639.33,-63.2027"/>
<polygon fill="black" stroke="black" points="1642.8,-63.6618 1640.91,-53.2367 1635.89,-62.5643 1642.8,-63.6618"/>
</g>
<!-- 39 -->
<g id="node40" class="node"><title>39</title>
<polygon fill="#8139e5" stroke="black" points="1859.5,-53 1746.5,-53 1746.5,-0 1859.5,-0 1859.5,-53"/>
<text text-anchor="middle" x="1803" y="-37.8" font-family="Times,serif" font-size="14.00">samples = 12</text>
<text text-anchor="middle" x="1803" y="-22.8" font-family="Times,serif" font-size="14.00">value = [0, 0, 12]</text>
<text text-anchor="middle" x="1803" y="-7.8" font-family="Times,serif" font-size="14.00">class = 1.0</text>
</g>
<!-- 38&#45;&gt;39 -->
<g id="edge39" class="edge"><title>38&#45;&gt;39</title>
<path fill="none" stroke="black" d="M1813.4,-88.9485C1811.99,-80.6238 1810.48,-71.6509 1809.04,-63.2027"/>
<polygon fill="black" stroke="black" points="1812.48,-62.5121 1807.36,-53.2367 1805.58,-63.6807 1812.48,-62.5121"/>
</g>
<!-- 40 -->
<g id="node41" class="node"><title>40</title>
<polygon fill="#8139e5" fill-opacity="0.498039" stroke="black" points="1984,-53 1878,-53 1878,-0 1984,-0 1984,-53"/>
<text text-anchor="middle" x="1931" y="-37.8" font-family="Times,serif" font-size="14.00">samples = 3</text>
<text text-anchor="middle" x="1931" y="-22.8" font-family="Times,serif" font-size="14.00">value = [1, 0, 2]</text>
<text text-anchor="middle" x="1931" y="-7.8" font-family="Times,serif" font-size="14.00">class = 1.0</text>
</g>
<!-- 38&#45;&gt;40 -->
<g id="edge40" class="edge"><title>38&#45;&gt;40</title>
<path fill="none" stroke="black" d="M1858.17,-88.9485C1869.34,-79.526 1881.49,-69.2731 1892.61,-59.8906"/>
<polygon fill="black" stroke="black" points="1895.11,-62.3605 1900.5,-53.2367 1890.6,-57.0104 1895.11,-62.3605"/>
</g>
</g>
</svg>
