<?xml version="1.0" encoding="UTF-8" standalone="no"?>
<!DOCTYPE svg PUBLIC "-//W3C//DTD SVG 1.1//EN"
 "http://www.w3.org/Graphics/SVG/1.1/DTD/svg11.dtd">
<!-- Generated by graphviz version 2.38.0 (20140413.2041)
 -->
<!-- Title: Tree Pages: 1 -->
<svg width="2421pt" height="685pt"
 viewBox="0.00 0.00 2421.00 685.00" xmlns="http://www.w3.org/2000/svg" xmlns:xlink="http://www.w3.org/1999/xlink">
<g id="graph0" class="graph" transform="scale(1 1) rotate(0) translate(4 681)">
<title>Tree</title>
<polygon fill="white" stroke="none" points="-4,4 -4,-681 2417,-681 2417,4 -4,4"/>
<!-- 0 -->
<g id="node1" class="node"><title>0</title>
<polygon fill="#399de5" fill-opacity="0.047059" stroke="black" points="1720.5,-677 1573.5,-677 1573.5,-609 1720.5,-609 1720.5,-677"/>
<text text-anchor="middle" x="1647" y="-661.8" font-family="Times,serif" font-size="14.00">Fear_NRC &lt;= 6.4535</text>
<text text-anchor="middle" x="1647" y="-646.8" font-family="Times,serif" font-size="14.00">samples = 112</text>
<text text-anchor="middle" x="1647" y="-631.8" font-family="Times,serif" font-size="14.00">value = [22, 30, 34, 26]</text>
<text text-anchor="middle" x="1647" y="-616.8" font-family="Times,serif" font-size="14.00">class = sentimental</text>
</g>
<!-- 1 -->
<g id="node2" class="node"><title>1</title>
<polygon fill="#399de5" fill-opacity="0.109804" stroke="black" points="1509,-573 1311,-573 1311,-505 1509,-505 1509,-573"/>
<text text-anchor="middle" x="1410" y="-557.8" font-family="Times,serif" font-size="14.00">Disgust_NRC_narrated &lt;= 0.485</text>
<text text-anchor="middle" x="1410" y="-542.8" font-family="Times,serif" font-size="14.00">samples = 78</text>
<text text-anchor="middle" x="1410" y="-527.8" font-family="Times,serif" font-size="14.00">value = [22, 4, 29, 23]</text>
<text text-anchor="middle" x="1410" y="-512.8" font-family="Times,serif" font-size="14.00">class = sentimental</text>
</g>
<!-- 0&#45;&gt;1 -->
<g id="edge1" class="edge"><title>0&#45;&gt;1</title>
<path fill="none" stroke="black" d="M1573.31,-610.286C1548.86,-599.765 1521.43,-587.959 1496.14,-577.071"/>
<polygon fill="black" stroke="black" points="1497.49,-573.844 1486.92,-573.105 1494.72,-580.274 1497.49,-573.844"/>
<text text-anchor="middle" x="1496.17" y="-592.632" font-family="Times,serif" font-size="14.00">True</text>
</g>
<!-- 30 -->
<g id="node31" class="node"><title>30</title>
<polygon fill="#47e539" fill-opacity="0.725490" stroke="black" points="2034,-573 1888,-573 1888,-505 2034,-505 2034,-573"/>
<text text-anchor="middle" x="1961" y="-557.8" font-family="Times,serif" font-size="14.00">Anger_NRC &lt;= 2.4647</text>
<text text-anchor="middle" x="1961" y="-542.8" font-family="Times,serif" font-size="14.00">samples = 34</text>
<text text-anchor="middle" x="1961" y="-527.8" font-family="Times,serif" font-size="14.00">value = [0, 26, 5, 3]</text>
<text text-anchor="middle" x="1961" y="-512.8" font-family="Times,serif" font-size="14.00">class = historical</text>
</g>
<!-- 0&#45;&gt;30 -->
<g id="edge30" class="edge"><title>0&#45;&gt;30</title>
<path fill="none" stroke="black" d="M1720.62,-618.086C1767.86,-602.739 1829.29,-582.783 1878.23,-566.887"/>
<polygon fill="black" stroke="black" points="1879.41,-570.183 1887.84,-563.765 1877.25,-563.525 1879.41,-570.183"/>
<text text-anchor="middle" x="1876.49" y="-582.339" font-family="Times,serif" font-size="14.00">False</text>
</g>
<!-- 2 -->
<g id="node3" class="node"><title>2</title>
<polygon fill="#399de5" fill-opacity="0.647059" stroke="black" points="995,-469 847,-469 847,-401 995,-401 995,-469"/>
<text text-anchor="middle" x="921" y="-453.8" font-family="Times,serif" font-size="14.00">Trust_NRC &lt;= 16.1612</text>
<text text-anchor="middle" x="921" y="-438.8" font-family="Times,serif" font-size="14.00">samples = 37</text>
<text text-anchor="middle" x="921" y="-423.8" font-family="Times,serif" font-size="14.00">value = [4, 1, 26, 6]</text>
<text text-anchor="middle" x="921" y="-408.8" font-family="Times,serif" font-size="14.00">class = sentimental</text>
</g>
<!-- 1&#45;&gt;2 -->
<g id="edge2" class="edge"><title>1&#45;&gt;2</title>
<path fill="none" stroke="black" d="M1310.75,-517.297C1220.79,-498.533 1089.68,-471.185 1004.86,-453.491"/>
<polygon fill="black" stroke="black" points="1005.51,-450.052 995.002,-451.436 1004.08,-456.904 1005.51,-450.052"/>
</g>
<!-- 19 -->
<g id="node20" class="node"><title>19</title>
<polygon fill="#e58139" fill-opacity="0.043137" stroke="black" points="1497,-469 1323,-469 1323,-401 1497,-401 1497,-469"/>
<text text-anchor="middle" x="1410" y="-453.8" font-family="Times,serif" font-size="14.00">emotional_NRC &lt;= 55.5667</text>
<text text-anchor="middle" x="1410" y="-438.8" font-family="Times,serif" font-size="14.00">samples = 41</text>
<text text-anchor="middle" x="1410" y="-423.8" font-family="Times,serif" font-size="14.00">value = [18, 3, 3, 17]</text>
<text text-anchor="middle" x="1410" y="-408.8" font-family="Times,serif" font-size="14.00">class = costumbrista</text>
</g>
<!-- 1&#45;&gt;19 -->
<g id="edge19" class="edge"><title>1&#45;&gt;19</title>
<path fill="none" stroke="black" d="M1410,-504.884C1410,-496.778 1410,-487.982 1410,-479.472"/>
<polygon fill="black" stroke="black" points="1413.5,-479.299 1410,-469.299 1406.5,-479.299 1413.5,-479.299"/>
</g>
<!-- 3 -->
<g id="node4" class="node"><title>3</title>
<polygon fill="#399de5" fill-opacity="0.815686" stroke="black" points="547.5,-365 386.5,-365 386.5,-297 547.5,-297 547.5,-365"/>
<text text-anchor="middle" x="467" y="-349.8" font-family="Times,serif" font-size="14.00">Joy_NRC_speech &lt;= 0.36</text>
<text text-anchor="middle" x="467" y="-334.8" font-family="Times,serif" font-size="14.00">samples = 30</text>
<text text-anchor="middle" x="467" y="-319.8" font-family="Times,serif" font-size="14.00">value = [3, 0, 25, 2]</text>
<text text-anchor="middle" x="467" y="-304.8" font-family="Times,serif" font-size="14.00">class = sentimental</text>
</g>
<!-- 2&#45;&gt;3 -->
<g id="edge3" class="edge"><title>2&#45;&gt;3</title>
<path fill="none" stroke="black" d="M846.793,-417.328C767.713,-399.561 642.455,-371.42 557.605,-352.356"/>
<polygon fill="black" stroke="black" points="558.246,-348.913 547.722,-350.136 556.712,-355.743 558.246,-348.913"/>
</g>
<!-- 12 -->
<g id="node13" class="node"><title>12</title>
<polygon fill="#d739e5" fill-opacity="0.498039" stroke="black" points="1000,-365 842,-365 842,-297 1000,-297 1000,-365"/>
<text text-anchor="middle" x="921" y="-349.8" font-family="Times,serif" font-size="14.00">Surprise_NRC &lt;= 0.9326</text>
<text text-anchor="middle" x="921" y="-334.8" font-family="Times,serif" font-size="14.00">samples = 7</text>
<text text-anchor="middle" x="921" y="-319.8" font-family="Times,serif" font-size="14.00">value = [1, 1, 1, 4]</text>
<text text-anchor="middle" x="921" y="-304.8" font-family="Times,serif" font-size="14.00">class = sociopolitical</text>
</g>
<!-- 2&#45;&gt;12 -->
<g id="edge12" class="edge"><title>2&#45;&gt;12</title>
<path fill="none" stroke="black" d="M921,-400.884C921,-392.778 921,-383.982 921,-375.472"/>
<polygon fill="black" stroke="black" points="924.5,-375.299 921,-365.299 917.5,-375.299 924.5,-375.299"/>
</g>
<!-- 4 -->
<g id="node5" class="node"><title>4</title>
<polygon fill="#e58139" fill-opacity="0.666667" stroke="black" points="286,-261 128,-261 128,-193 286,-193 286,-261"/>
<text text-anchor="middle" x="207" y="-245.8" font-family="Times,serif" font-size="14.00">Surprise_NRC &lt;= 0.6092</text>
<text text-anchor="middle" x="207" y="-230.8" font-family="Times,serif" font-size="14.00">samples = 4</text>
<text text-anchor="middle" x="207" y="-215.8" font-family="Times,serif" font-size="14.00">value = [3, 0, 1, 0]</text>
<text text-anchor="middle" x="207" y="-200.8" font-family="Times,serif" font-size="14.00">class = costumbrista</text>
</g>
<!-- 3&#45;&gt;4 -->
<g id="edge4" class="edge"><title>3&#45;&gt;4</title>
<path fill="none" stroke="black" d="M386.16,-298.286C357.374,-286.993 324.817,-274.221 295.428,-262.691"/>
<polygon fill="black" stroke="black" points="296.594,-259.389 286.007,-258.995 294.038,-265.905 296.594,-259.389"/>
</g>
<!-- 7 -->
<g id="node8" class="node"><title>7</title>
<polygon fill="#399de5" fill-opacity="0.917647" stroke="black" points="567.5,-261 366.5,-261 366.5,-193 567.5,-193 567.5,-261"/>
<text text-anchor="middle" x="467" y="-245.8" font-family="Times,serif" font-size="14.00">narrated_neutral_NRC &lt;= 3.1494</text>
<text text-anchor="middle" x="467" y="-230.8" font-family="Times,serif" font-size="14.00">samples = 26</text>
<text text-anchor="middle" x="467" y="-215.8" font-family="Times,serif" font-size="14.00">value = [0, 0, 24, 2]</text>
<text text-anchor="middle" x="467" y="-200.8" font-family="Times,serif" font-size="14.00">class = sentimental</text>
</g>
<!-- 3&#45;&gt;7 -->
<g id="edge7" class="edge"><title>3&#45;&gt;7</title>
<path fill="none" stroke="black" d="M467,-296.884C467,-288.778 467,-279.982 467,-271.472"/>
<polygon fill="black" stroke="black" points="470.5,-271.299 467,-261.299 463.5,-271.299 470.5,-271.299"/>
</g>
<!-- 5 -->
<g id="node6" class="node"><title>5</title>
<polygon fill="#e58139" stroke="black" points="128,-149.5 0,-149.5 0,-96.5 128,-96.5 128,-149.5"/>
<text text-anchor="middle" x="64" y="-134.3" font-family="Times,serif" font-size="14.00">samples = 3</text>
<text text-anchor="middle" x="64" y="-119.3" font-family="Times,serif" font-size="14.00">value = [3, 0, 0, 0]</text>
<text text-anchor="middle" x="64" y="-104.3" font-family="Times,serif" font-size="14.00">class = costumbrista</text>
</g>
<!-- 4&#45;&gt;5 -->
<g id="edge5" class="edge"><title>4&#45;&gt;5</title>
<path fill="none" stroke="black" d="M160.572,-192.884C143.766,-180.896 124.843,-167.399 108.231,-155.549"/>
<polygon fill="black" stroke="black" points="109.952,-152.478 99.7779,-149.52 105.887,-158.176 109.952,-152.478"/>
</g>
<!-- 6 -->
<g id="node7" class="node"><title>6</title>
<polygon fill="#399de5" stroke="black" points="268,-149.5 146,-149.5 146,-96.5 268,-96.5 268,-149.5"/>
<text text-anchor="middle" x="207" y="-134.3" font-family="Times,serif" font-size="14.00">samples = 1</text>
<text text-anchor="middle" x="207" y="-119.3" font-family="Times,serif" font-size="14.00">value = [0, 0, 1, 0]</text>
<text text-anchor="middle" x="207" y="-104.3" font-family="Times,serif" font-size="14.00">class = sentimental</text>
</g>
<!-- 4&#45;&gt;6 -->
<g id="edge6" class="edge"><title>4&#45;&gt;6</title>
<path fill="none" stroke="black" d="M207,-192.884C207,-182.326 207,-170.597 207,-159.854"/>
<polygon fill="black" stroke="black" points="210.5,-159.52 207,-149.52 203.5,-159.52 210.5,-159.52"/>
</g>
<!-- 8 -->
<g id="node9" class="node"><title>8</title>
<polygon fill="#d739e5" stroke="black" points="417.5,-149.5 286.5,-149.5 286.5,-96.5 417.5,-96.5 417.5,-149.5"/>
<text text-anchor="middle" x="352" y="-134.3" font-family="Times,serif" font-size="14.00">samples = 1</text>
<text text-anchor="middle" x="352" y="-119.3" font-family="Times,serif" font-size="14.00">value = [0, 0, 0, 1]</text>
<text text-anchor="middle" x="352" y="-104.3" font-family="Times,serif" font-size="14.00">class = sociopolitical</text>
</g>
<!-- 7&#45;&gt;8 -->
<g id="edge8" class="edge"><title>7&#45;&gt;8</title>
<path fill="none" stroke="black" d="M429.663,-192.884C416.395,-181.116 401.488,-167.894 388.308,-156.203"/>
<polygon fill="black" stroke="black" points="390.576,-153.537 380.772,-149.52 385.931,-158.774 390.576,-153.537"/>
</g>
<!-- 9 -->
<g id="node10" class="node"><title>9</title>
<polygon fill="#399de5" fill-opacity="0.956863" stroke="black" points="620.5,-157 435.5,-157 435.5,-89 620.5,-89 620.5,-157"/>
<text text-anchor="middle" x="528" y="-141.8" font-family="Times,serif" font-size="14.00">Trust_NRC_speech &lt;= 1.7144</text>
<text text-anchor="middle" x="528" y="-126.8" font-family="Times,serif" font-size="14.00">samples = 25</text>
<text text-anchor="middle" x="528" y="-111.8" font-family="Times,serif" font-size="14.00">value = [0, 0, 24, 1]</text>
<text text-anchor="middle" x="528" y="-96.8" font-family="Times,serif" font-size="14.00">class = sentimental</text>
</g>
<!-- 7&#45;&gt;9 -->
<g id="edge9" class="edge"><title>7&#45;&gt;9</title>
<path fill="none" stroke="black" d="M486.805,-192.884C491.919,-184.332 497.492,-175.013 502.839,-166.072"/>
<polygon fill="black" stroke="black" points="505.957,-167.678 508.086,-157.299 499.949,-164.085 505.957,-167.678"/>
</g>
<!-- 10 -->
<g id="node11" class="node"><title>10</title>
<polygon fill="#d739e5" stroke="black" points="520.5,-53 389.5,-53 389.5,-0 520.5,-0 520.5,-53"/>
<text text-anchor="middle" x="455" y="-37.8" font-family="Times,serif" font-size="14.00">samples = 1</text>
<text text-anchor="middle" x="455" y="-22.8" font-family="Times,serif" font-size="14.00">value = [0, 0, 0, 1]</text>
<text text-anchor="middle" x="455" y="-7.8" font-family="Times,serif" font-size="14.00">class = sociopolitical</text>
</g>
<!-- 9&#45;&gt;10 -->
<g id="edge10" class="edge"><title>9&#45;&gt;10</title>
<path fill="none" stroke="black" d="M502.468,-88.9485C495.543,-79.9834 488.037,-70.2666 481.081,-61.2629"/>
<polygon fill="black" stroke="black" points="483.764,-59.0108 474.881,-53.2367 478.225,-63.2902 483.764,-59.0108"/>
</g>
<!-- 11 -->
<g id="node12" class="node"><title>11</title>
<polygon fill="#399de5" stroke="black" points="665.5,-53 538.5,-53 538.5,-0 665.5,-0 665.5,-53"/>
<text text-anchor="middle" x="602" y="-37.8" font-family="Times,serif" font-size="14.00">samples = 24</text>
<text text-anchor="middle" x="602" y="-22.8" font-family="Times,serif" font-size="14.00">value = [0, 0, 24, 0]</text>
<text text-anchor="middle" x="602" y="-7.8" font-family="Times,serif" font-size="14.00">class = sentimental</text>
</g>
<!-- 9&#45;&gt;11 -->
<g id="edge11" class="edge"><title>9&#45;&gt;11</title>
<path fill="none" stroke="black" d="M553.882,-88.9485C560.902,-79.9834 568.511,-70.2666 575.561,-61.2629"/>
<polygon fill="black" stroke="black" points="578.437,-63.2679 581.846,-53.2367 572.925,-58.9521 578.437,-63.2679"/>
</g>
<!-- 13 -->
<g id="node14" class="node"><title>13</title>
<polygon fill="#d739e5" fill-opacity="0.749020" stroke="black" points="894.5,-261 753.5,-261 753.5,-193 894.5,-193 894.5,-261"/>
<text text-anchor="middle" x="824" y="-245.8" font-family="Times,serif" font-size="14.00">Trust_NRC &lt;= 22.395</text>
<text text-anchor="middle" x="824" y="-230.8" font-family="Times,serif" font-size="14.00">samples = 5</text>
<text text-anchor="middle" x="824" y="-215.8" font-family="Times,serif" font-size="14.00">value = [0, 0, 1, 4]</text>
<text text-anchor="middle" x="824" y="-200.8" font-family="Times,serif" font-size="14.00">class = sociopolitical</text>
</g>
<!-- 12&#45;&gt;13 -->
<g id="edge13" class="edge"><title>12&#45;&gt;13</title>
<path fill="none" stroke="black" d="M889.507,-296.884C880.951,-287.887 871.588,-278.041 862.684,-268.678"/>
<polygon fill="black" stroke="black" points="865.095,-266.134 855.667,-261.299 860.022,-270.958 865.095,-266.134"/>
</g>
<!-- 16 -->
<g id="node17" class="node"><title>16</title>
<polygon fill="none" stroke="black" points="1121.5,-261 912.5,-261 912.5,-193 1121.5,-193 1121.5,-261"/>
<text text-anchor="middle" x="1017" y="-245.8" font-family="Times,serif" font-size="14.00">Surprise_NRC_narrated &lt;= 0.7845</text>
<text text-anchor="middle" x="1017" y="-230.8" font-family="Times,serif" font-size="14.00">samples = 2</text>
<text text-anchor="middle" x="1017" y="-215.8" font-family="Times,serif" font-size="14.00">value = [1, 1, 0, 0]</text>
<text text-anchor="middle" x="1017" y="-200.8" font-family="Times,serif" font-size="14.00">class = costumbrista</text>
</g>
<!-- 12&#45;&gt;16 -->
<g id="edge16" class="edge"><title>12&#45;&gt;16</title>
<path fill="none" stroke="black" d="M952.168,-296.884C960.636,-287.887 969.903,-278.041 978.715,-268.678"/>
<polygon fill="black" stroke="black" points="981.354,-270.98 985.659,-261.299 976.257,-266.183 981.354,-270.98"/>
</g>
<!-- 14 -->
<g id="node15" class="node"><title>14</title>
<polygon fill="#d739e5" stroke="black" points="769.5,-149.5 638.5,-149.5 638.5,-96.5 769.5,-96.5 769.5,-149.5"/>
<text text-anchor="middle" x="704" y="-134.3" font-family="Times,serif" font-size="14.00">samples = 4</text>
<text text-anchor="middle" x="704" y="-119.3" font-family="Times,serif" font-size="14.00">value = [0, 0, 0, 4]</text>
<text text-anchor="middle" x="704" y="-104.3" font-family="Times,serif" font-size="14.00">class = sociopolitical</text>
</g>
<!-- 13&#45;&gt;14 -->
<g id="edge14" class="edge"><title>13&#45;&gt;14</title>
<path fill="none" stroke="black" d="M785.039,-192.884C771.195,-181.116 755.64,-167.894 741.886,-156.203"/>
<polygon fill="black" stroke="black" points="743.91,-153.33 734.023,-149.52 739.376,-158.663 743.91,-153.33"/>
</g>
<!-- 15 -->
<g id="node16" class="node"><title>15</title>
<polygon fill="#399de5" stroke="black" points="910,-149.5 788,-149.5 788,-96.5 910,-96.5 910,-149.5"/>
<text text-anchor="middle" x="849" y="-134.3" font-family="Times,serif" font-size="14.00">samples = 1</text>
<text text-anchor="middle" x="849" y="-119.3" font-family="Times,serif" font-size="14.00">value = [0, 0, 1, 0]</text>
<text text-anchor="middle" x="849" y="-104.3" font-family="Times,serif" font-size="14.00">class = sentimental</text>
</g>
<!-- 13&#45;&gt;15 -->
<g id="edge15" class="edge"><title>13&#45;&gt;15</title>
<path fill="none" stroke="black" d="M832.117,-192.884C834.731,-182.216 837.639,-170.352 840.294,-159.519"/>
<polygon fill="black" stroke="black" points="843.764,-160.066 842.745,-149.52 836.965,-158.399 843.764,-160.066"/>
</g>
<!-- 17 -->
<g id="node18" class="node"><title>17</title>
<polygon fill="#e58139" stroke="black" points="1056,-149.5 928,-149.5 928,-96.5 1056,-96.5 1056,-149.5"/>
<text text-anchor="middle" x="992" y="-134.3" font-family="Times,serif" font-size="14.00">samples = 1</text>
<text text-anchor="middle" x="992" y="-119.3" font-family="Times,serif" font-size="14.00">value = [1, 0, 0, 0]</text>
<text text-anchor="middle" x="992" y="-104.3" font-family="Times,serif" font-size="14.00">class = costumbrista</text>
</g>
<!-- 16&#45;&gt;17 -->
<g id="edge17" class="edge"><title>16&#45;&gt;17</title>
<path fill="none" stroke="black" d="M1008.88,-192.884C1006.27,-182.216 1003.36,-170.352 1000.71,-159.519"/>
<polygon fill="black" stroke="black" points="1004.03,-158.399 998.255,-149.52 997.236,-160.066 1004.03,-158.399"/>
</g>
<!-- 18 -->
<g id="node19" class="node"><title>18</title>
<polygon fill="#47e539" stroke="black" points="1194,-149.5 1074,-149.5 1074,-96.5 1194,-96.5 1194,-149.5"/>
<text text-anchor="middle" x="1134" y="-134.3" font-family="Times,serif" font-size="14.00">samples = 1</text>
<text text-anchor="middle" x="1134" y="-119.3" font-family="Times,serif" font-size="14.00">value = [0, 1, 0, 0]</text>
<text text-anchor="middle" x="1134" y="-104.3" font-family="Times,serif" font-size="14.00">class = historical</text>
</g>
<!-- 16&#45;&gt;18 -->
<g id="edge18" class="edge"><title>16&#45;&gt;18</title>
<path fill="none" stroke="black" d="M1054.99,-192.884C1068.48,-181.116 1083.65,-167.894 1097.06,-156.203"/>
<polygon fill="black" stroke="black" points="1099.49,-158.73 1104.73,-149.52 1094.89,-153.453 1099.49,-158.73"/>
</g>
<!-- 20 -->
<g id="node21" class="node"><title>20</title>
<polygon fill="#e58139" stroke="black" points="1383,-357.5 1255,-357.5 1255,-304.5 1383,-304.5 1383,-357.5"/>
<text text-anchor="middle" x="1319" y="-342.3" font-family="Times,serif" font-size="14.00">samples = 10</text>
<text text-anchor="middle" x="1319" y="-327.3" font-family="Times,serif" font-size="14.00">value = [10, 0, 0, 0]</text>
<text text-anchor="middle" x="1319" y="-312.3" font-family="Times,serif" font-size="14.00">class = costumbrista</text>
</g>
<!-- 19&#45;&gt;20 -->
<g id="edge20" class="edge"><title>19&#45;&gt;20</title>
<path fill="none" stroke="black" d="M1380.45,-400.884C1370.25,-389.446 1358.82,-376.634 1348.61,-365.19"/>
<polygon fill="black" stroke="black" points="1351.04,-362.652 1341.77,-357.52 1345.81,-367.312 1351.04,-362.652"/>
</g>
<!-- 21 -->
<g id="node22" class="node"><title>21</title>
<polygon fill="#d739e5" fill-opacity="0.392157" stroke="black" points="1602.5,-365 1401.5,-365 1401.5,-297 1602.5,-297 1602.5,-365"/>
<text text-anchor="middle" x="1502" y="-349.8" font-family="Times,serif" font-size="14.00">Surprise_NRC_speech &lt;= 0.1549</text>
<text text-anchor="middle" x="1502" y="-334.8" font-family="Times,serif" font-size="14.00">samples = 31</text>
<text text-anchor="middle" x="1502" y="-319.8" font-family="Times,serif" font-size="14.00">value = [8, 3, 3, 17]</text>
<text text-anchor="middle" x="1502" y="-304.8" font-family="Times,serif" font-size="14.00">class = sociopolitical</text>
</g>
<!-- 19&#45;&gt;21 -->
<g id="edge21" class="edge"><title>19&#45;&gt;21</title>
<path fill="none" stroke="black" d="M1439.87,-400.884C1447.9,-391.976 1456.69,-382.235 1465.06,-372.957"/>
<polygon fill="black" stroke="black" points="1467.87,-375.069 1471.97,-365.299 1462.67,-370.381 1467.87,-375.069"/>
</g>
<!-- 22 -->
<g id="node23" class="node"><title>22</title>
<polygon fill="#e58139" fill-opacity="0.800000" stroke="black" points="1477.5,-261 1314.5,-261 1314.5,-193 1477.5,-193 1477.5,-261"/>
<text text-anchor="middle" x="1396" y="-245.8" font-family="Times,serif" font-size="14.00">Sadness_NRC &lt;= 11.4927</text>
<text text-anchor="middle" x="1396" y="-230.8" font-family="Times,serif" font-size="14.00">samples = 6</text>
<text text-anchor="middle" x="1396" y="-215.8" font-family="Times,serif" font-size="14.00">value = [5, 0, 0, 1]</text>
<text text-anchor="middle" x="1396" y="-200.8" font-family="Times,serif" font-size="14.00">class = costumbrista</text>
</g>
<!-- 21&#45;&gt;22 -->
<g id="edge22" class="edge"><title>21&#45;&gt;22</title>
<path fill="none" stroke="black" d="M1467.58,-296.884C1458.14,-287.798 1447.8,-277.845 1437.98,-268.4"/>
<polygon fill="black" stroke="black" points="1440.24,-265.711 1430.61,-261.299 1435.38,-270.755 1440.24,-265.711"/>
</g>
<!-- 25 -->
<g id="node26" class="node"><title>25</title>
<polygon fill="#d739e5" fill-opacity="0.592157" stroke="black" points="1704,-261 1496,-261 1496,-193 1704,-193 1704,-261"/>
<text text-anchor="middle" x="1600" y="-245.8" font-family="Times,serif" font-size="14.00">narrated_neutral_NRC &lt;= 17.5341</text>
<text text-anchor="middle" x="1600" y="-230.8" font-family="Times,serif" font-size="14.00">samples = 25</text>
<text text-anchor="middle" x="1600" y="-215.8" font-family="Times,serif" font-size="14.00">value = [3, 3, 3, 16]</text>
<text text-anchor="middle" x="1600" y="-200.8" font-family="Times,serif" font-size="14.00">class = sociopolitical</text>
</g>
<!-- 21&#45;&gt;25 -->
<g id="edge25" class="edge"><title>21&#45;&gt;25</title>
<path fill="none" stroke="black" d="M1533.82,-296.884C1542.46,-287.887 1551.92,-278.041 1560.92,-268.678"/>
<polygon fill="black" stroke="black" points="1563.6,-270.935 1568.01,-261.299 1558.55,-266.086 1563.6,-270.935"/>
</g>
<!-- 23 -->
<g id="node24" class="node"><title>23</title>
<polygon fill="#e58139" stroke="black" points="1340,-149.5 1212,-149.5 1212,-96.5 1340,-96.5 1340,-149.5"/>
<text text-anchor="middle" x="1276" y="-134.3" font-family="Times,serif" font-size="14.00">samples = 5</text>
<text text-anchor="middle" x="1276" y="-119.3" font-family="Times,serif" font-size="14.00">value = [5, 0, 0, 0]</text>
<text text-anchor="middle" x="1276" y="-104.3" font-family="Times,serif" font-size="14.00">class = costumbrista</text>
</g>
<!-- 22&#45;&gt;23 -->
<g id="edge23" class="edge"><title>22&#45;&gt;23</title>
<path fill="none" stroke="black" d="M1357.04,-192.884C1343.2,-181.116 1327.64,-167.894 1313.89,-156.203"/>
<polygon fill="black" stroke="black" points="1315.91,-153.33 1306.02,-149.52 1311.38,-158.663 1315.91,-153.33"/>
</g>
<!-- 24 -->
<g id="node25" class="node"><title>24</title>
<polygon fill="#d739e5" stroke="black" points="1489.5,-149.5 1358.5,-149.5 1358.5,-96.5 1489.5,-96.5 1489.5,-149.5"/>
<text text-anchor="middle" x="1424" y="-134.3" font-family="Times,serif" font-size="14.00">samples = 1</text>
<text text-anchor="middle" x="1424" y="-119.3" font-family="Times,serif" font-size="14.00">value = [0, 0, 0, 1]</text>
<text text-anchor="middle" x="1424" y="-104.3" font-family="Times,serif" font-size="14.00">class = sociopolitical</text>
</g>
<!-- 22&#45;&gt;24 -->
<g id="edge24" class="edge"><title>22&#45;&gt;24</title>
<path fill="none" stroke="black" d="M1405.09,-192.884C1408.05,-182.106 1411.34,-170.108 1414.34,-159.184"/>
<polygon fill="black" stroke="black" points="1417.72,-160.09 1416.99,-149.52 1410.97,-158.237 1417.72,-160.09"/>
</g>
<!-- 26 -->
<g id="node27" class="node"><title>26</title>
<polygon fill="#d739e5" fill-opacity="0.180392" stroke="black" points="1692.5,-157 1507.5,-157 1507.5,-89 1692.5,-89 1692.5,-157"/>
<text text-anchor="middle" x="1600" y="-141.8" font-family="Times,serif" font-size="14.00">Trust_NRC_speech &lt;= 4.6502</text>
<text text-anchor="middle" x="1600" y="-126.8" font-family="Times,serif" font-size="14.00">samples = 14</text>
<text text-anchor="middle" x="1600" y="-111.8" font-family="Times,serif" font-size="14.00">value = [3, 3, 3, 5]</text>
<text text-anchor="middle" x="1600" y="-96.8" font-family="Times,serif" font-size="14.00">class = sociopolitical</text>
</g>
<!-- 25&#45;&gt;26 -->
<g id="edge26" class="edge"><title>25&#45;&gt;26</title>
<path fill="none" stroke="black" d="M1600,-192.884C1600,-184.778 1600,-175.982 1600,-167.472"/>
<polygon fill="black" stroke="black" points="1603.5,-167.299 1600,-157.299 1596.5,-167.299 1603.5,-167.299"/>
</g>
<!-- 29 -->
<g id="node30" class="node"><title>29</title>
<polygon fill="#d739e5" stroke="black" points="1841.5,-149.5 1710.5,-149.5 1710.5,-96.5 1841.5,-96.5 1841.5,-149.5"/>
<text text-anchor="middle" x="1776" y="-134.3" font-family="Times,serif" font-size="14.00">samples = 11</text>
<text text-anchor="middle" x="1776" y="-119.3" font-family="Times,serif" font-size="14.00">value = [0, 0, 0, 11]</text>
<text text-anchor="middle" x="1776" y="-104.3" font-family="Times,serif" font-size="14.00">class = sociopolitical</text>
</g>
<!-- 25&#45;&gt;29 -->
<g id="edge29" class="edge"><title>25&#45;&gt;29</title>
<path fill="none" stroke="black" d="M1657.14,-192.884C1678.4,-180.566 1702.4,-166.655 1723.24,-154.575"/>
<polygon fill="black" stroke="black" points="1725.07,-157.562 1731.97,-149.52 1721.56,-151.506 1725.07,-157.562"/>
</g>
<!-- 27 -->
<g id="node28" class="node"><title>27</title>
<polygon fill="#d739e5" fill-opacity="0.286275" stroke="black" points="1593.5,-53 1462.5,-53 1462.5,-0 1593.5,-0 1593.5,-53"/>
<text text-anchor="middle" x="1528" y="-37.8" font-family="Times,serif" font-size="14.00">samples = 10</text>
<text text-anchor="middle" x="1528" y="-22.8" font-family="Times,serif" font-size="14.00">value = [3, 0, 2, 5]</text>
<text text-anchor="middle" x="1528" y="-7.8" font-family="Times,serif" font-size="14.00">class = sociopolitical</text>
</g>
<!-- 26&#45;&gt;27 -->
<g id="edge27" class="edge"><title>26&#45;&gt;27</title>
<path fill="none" stroke="black" d="M1574.82,-88.9485C1567.99,-79.9834 1560.58,-70.2666 1553.72,-61.2629"/>
<polygon fill="black" stroke="black" points="1556.45,-59.0699 1547.61,-53.2367 1550.89,-63.3122 1556.45,-59.0699"/>
</g>
<!-- 28 -->
<g id="node29" class="node"><title>28</title>
<polygon fill="#47e539" fill-opacity="0.666667" stroke="black" points="1732,-53 1612,-53 1612,-0 1732,-0 1732,-53"/>
<text text-anchor="middle" x="1672" y="-37.8" font-family="Times,serif" font-size="14.00">samples = 4</text>
<text text-anchor="middle" x="1672" y="-22.8" font-family="Times,serif" font-size="14.00">value = [0, 3, 1, 0]</text>
<text text-anchor="middle" x="1672" y="-7.8" font-family="Times,serif" font-size="14.00">class = historical</text>
</g>
<!-- 26&#45;&gt;28 -->
<g id="edge28" class="edge"><title>26&#45;&gt;28</title>
<path fill="none" stroke="black" d="M1625.18,-88.9485C1632.01,-79.9834 1639.42,-70.2666 1646.28,-61.2629"/>
<polygon fill="black" stroke="black" points="1649.11,-63.3122 1652.39,-53.2367 1643.55,-59.0699 1649.11,-63.3122"/>
</g>
<!-- 31 -->
<g id="node32" class="node"><title>31</title>
<polygon fill="#47e539" fill-opacity="0.125490" stroke="black" points="2055,-469 1867,-469 1867,-401 2055,-401 2055,-469"/>
<text text-anchor="middle" x="1961" y="-453.8" font-family="Times,serif" font-size="14.00">Fear_NRC_narrated &lt;= 5.4284</text>
<text text-anchor="middle" x="1961" y="-438.8" font-family="Times,serif" font-size="14.00">samples = 12</text>
<text text-anchor="middle" x="1961" y="-423.8" font-family="Times,serif" font-size="14.00">value = [0, 5, 4, 3]</text>
<text text-anchor="middle" x="1961" y="-408.8" font-family="Times,serif" font-size="14.00">class = historical</text>
</g>
<!-- 30&#45;&gt;31 -->
<g id="edge31" class="edge"><title>30&#45;&gt;31</title>
<path fill="none" stroke="black" d="M1961,-504.884C1961,-496.778 1961,-487.982 1961,-479.472"/>
<polygon fill="black" stroke="black" points="1964.5,-479.299 1961,-469.299 1957.5,-479.299 1964.5,-479.299"/>
</g>
<!-- 38 -->
<g id="node39" class="node"><title>38</title>
<polygon fill="#47e539" fill-opacity="0.952941" stroke="black" points="2274.5,-469 2143.5,-469 2143.5,-401 2274.5,-401 2274.5,-469"/>
<text text-anchor="middle" x="2209" y="-453.8" font-family="Times,serif" font-size="14.00">Joy_NRC &lt;= 3.2149</text>
<text text-anchor="middle" x="2209" y="-438.8" font-family="Times,serif" font-size="14.00">samples = 22</text>
<text text-anchor="middle" x="2209" y="-423.8" font-family="Times,serif" font-size="14.00">value = [0, 21, 1, 0]</text>
<text text-anchor="middle" x="2209" y="-408.8" font-family="Times,serif" font-size="14.00">class = historical</text>
</g>
<!-- 30&#45;&gt;38 -->
<g id="edge38" class="edge"><title>30&#45;&gt;38</title>
<path fill="none" stroke="black" d="M2034.07,-507.948C2065.4,-495.061 2101.99,-480.013 2133.58,-467.02"/>
<polygon fill="black" stroke="black" points="2135.29,-470.099 2143.21,-463.058 2132.63,-463.625 2135.29,-470.099"/>
</g>
<!-- 32 -->
<g id="node33" class="node"><title>32</title>
<polygon fill="#47e539" fill-opacity="0.800000" stroke="black" points="1987,-365 1797,-365 1797,-297 1987,-297 1987,-365"/>
<text text-anchor="middle" x="1892" y="-349.8" font-family="Times,serif" font-size="14.00">Anger_NRC_speech &lt;= 0.7557</text>
<text text-anchor="middle" x="1892" y="-334.8" font-family="Times,serif" font-size="14.00">samples = 6</text>
<text text-anchor="middle" x="1892" y="-319.8" font-family="Times,serif" font-size="14.00">value = [0, 5, 1, 0]</text>
<text text-anchor="middle" x="1892" y="-304.8" font-family="Times,serif" font-size="14.00">class = historical</text>
</g>
<!-- 31&#45;&gt;32 -->
<g id="edge32" class="edge"><title>31&#45;&gt;32</title>
<path fill="none" stroke="black" d="M1938.6,-400.884C1932.75,-392.243 1926.38,-382.819 1920.27,-373.793"/>
<polygon fill="black" stroke="black" points="1923.03,-371.621 1914.53,-365.299 1917.23,-375.543 1923.03,-371.621"/>
</g>
<!-- 35 -->
<g id="node36" class="node"><title>35</title>
<polygon fill="none" stroke="black" points="2127,-365 2005,-365 2005,-297 2127,-297 2127,-365"/>
<text text-anchor="middle" x="2066" y="-349.8" font-family="Times,serif" font-size="14.00">speech &lt;= 42.3226</text>
<text text-anchor="middle" x="2066" y="-334.8" font-family="Times,serif" font-size="14.00">samples = 6</text>
<text text-anchor="middle" x="2066" y="-319.8" font-family="Times,serif" font-size="14.00">value = [0, 0, 3, 3]</text>
<text text-anchor="middle" x="2066" y="-304.8" font-family="Times,serif" font-size="14.00">class = sentimental</text>
</g>
<!-- 31&#45;&gt;35 -->
<g id="edge35" class="edge"><title>31&#45;&gt;35</title>
<path fill="none" stroke="black" d="M1995.09,-400.884C2004.44,-391.798 2014.69,-381.845 2024.41,-372.4"/>
<polygon fill="black" stroke="black" points="2026.99,-374.778 2031.72,-365.299 2022.11,-369.757 2026.99,-374.778"/>
</g>
<!-- 33 -->
<g id="node34" class="node"><title>33</title>
<polygon fill="#47e539" stroke="black" points="1842,-253.5 1722,-253.5 1722,-200.5 1842,-200.5 1842,-253.5"/>
<text text-anchor="middle" x="1782" y="-238.3" font-family="Times,serif" font-size="14.00">samples = 5</text>
<text text-anchor="middle" x="1782" y="-223.3" font-family="Times,serif" font-size="14.00">value = [0, 5, 0, 0]</text>
<text text-anchor="middle" x="1782" y="-208.3" font-family="Times,serif" font-size="14.00">class = historical</text>
</g>
<!-- 32&#45;&gt;33 -->
<g id="edge33" class="edge"><title>32&#45;&gt;33</title>
<path fill="none" stroke="black" d="M1856.29,-296.884C1843.71,-285.226 1829.6,-272.141 1817.08,-260.532"/>
<polygon fill="black" stroke="black" points="1819.23,-257.753 1809.52,-253.52 1814.47,-262.886 1819.23,-257.753"/>
</g>
<!-- 34 -->
<g id="node35" class="node"><title>34</title>
<polygon fill="#399de5" stroke="black" points="1982,-253.5 1860,-253.5 1860,-200.5 1982,-200.5 1982,-253.5"/>
<text text-anchor="middle" x="1921" y="-238.3" font-family="Times,serif" font-size="14.00">samples = 1</text>
<text text-anchor="middle" x="1921" y="-223.3" font-family="Times,serif" font-size="14.00">value = [0, 0, 1, 0]</text>
<text text-anchor="middle" x="1921" y="-208.3" font-family="Times,serif" font-size="14.00">class = sentimental</text>
</g>
<!-- 32&#45;&gt;34 -->
<g id="edge34" class="edge"><title>32&#45;&gt;34</title>
<path fill="none" stroke="black" d="M1901.42,-296.884C1904.48,-286.106 1907.89,-274.108 1911,-263.184"/>
<polygon fill="black" stroke="black" points="1914.38,-264.096 1913.74,-253.52 1907.64,-262.182 1914.38,-264.096"/>
</g>
<!-- 36 -->
<g id="node37" class="node"><title>36</title>
<polygon fill="#d739e5" stroke="black" points="2131.5,-253.5 2000.5,-253.5 2000.5,-200.5 2131.5,-200.5 2131.5,-253.5"/>
<text text-anchor="middle" x="2066" y="-238.3" font-family="Times,serif" font-size="14.00">samples = 3</text>
<text text-anchor="middle" x="2066" y="-223.3" font-family="Times,serif" font-size="14.00">value = [0, 0, 0, 3]</text>
<text text-anchor="middle" x="2066" y="-208.3" font-family="Times,serif" font-size="14.00">class = sociopolitical</text>
</g>
<!-- 35&#45;&gt;36 -->
<g id="edge36" class="edge"><title>35&#45;&gt;36</title>
<path fill="none" stroke="black" d="M2066,-296.884C2066,-286.326 2066,-274.597 2066,-263.854"/>
<polygon fill="black" stroke="black" points="2069.5,-263.52 2066,-253.52 2062.5,-263.52 2069.5,-263.52"/>
</g>
<!-- 37 -->
<g id="node38" class="node"><title>37</title>
<polygon fill="#399de5" stroke="black" points="2272,-253.5 2150,-253.5 2150,-200.5 2272,-200.5 2272,-253.5"/>
<text text-anchor="middle" x="2211" y="-238.3" font-family="Times,serif" font-size="14.00">samples = 3</text>
<text text-anchor="middle" x="2211" y="-223.3" font-family="Times,serif" font-size="14.00">value = [0, 0, 3, 0]</text>
<text text-anchor="middle" x="2211" y="-208.3" font-family="Times,serif" font-size="14.00">class = sentimental</text>
</g>
<!-- 35&#45;&gt;37 -->
<g id="edge37" class="edge"><title>35&#45;&gt;37</title>
<path fill="none" stroke="black" d="M2113.08,-296.884C2130.12,-284.896 2149.31,-271.399 2166.15,-259.549"/>
<polygon fill="black" stroke="black" points="2168.56,-262.136 2174.72,-253.52 2164.53,-256.411 2168.56,-262.136"/>
</g>
<!-- 39 -->
<g id="node40" class="node"><title>39</title>
<polygon fill="#47e539" stroke="black" points="2272.5,-357.5 2145.5,-357.5 2145.5,-304.5 2272.5,-304.5 2272.5,-357.5"/>
<text text-anchor="middle" x="2209" y="-342.3" font-family="Times,serif" font-size="14.00">samples = 21</text>
<text text-anchor="middle" x="2209" y="-327.3" font-family="Times,serif" font-size="14.00">value = [0, 21, 0, 0]</text>
<text text-anchor="middle" x="2209" y="-312.3" font-family="Times,serif" font-size="14.00">class = historical</text>
</g>
<!-- 38&#45;&gt;39 -->
<g id="edge39" class="edge"><title>38&#45;&gt;39</title>
<path fill="none" stroke="black" d="M2209,-400.884C2209,-390.326 2209,-378.597 2209,-367.854"/>
<polygon fill="black" stroke="black" points="2212.5,-367.52 2209,-357.52 2205.5,-367.52 2212.5,-367.52"/>
</g>
<!-- 40 -->
<g id="node41" class="node"><title>40</title>
<polygon fill="#399de5" stroke="black" points="2413,-357.5 2291,-357.5 2291,-304.5 2413,-304.5 2413,-357.5"/>
<text text-anchor="middle" x="2352" y="-342.3" font-family="Times,serif" font-size="14.00">samples = 1</text>
<text text-anchor="middle" x="2352" y="-327.3" font-family="Times,serif" font-size="14.00">value = [0, 0, 1, 0]</text>
<text text-anchor="middle" x="2352" y="-312.3" font-family="Times,serif" font-size="14.00">class = sentimental</text>
</g>
<!-- 38&#45;&gt;40 -->
<g id="edge40" class="edge"><title>38&#45;&gt;40</title>
<path fill="none" stroke="black" d="M2255.43,-400.884C2272.23,-388.896 2291.16,-375.399 2307.77,-363.549"/>
<polygon fill="black" stroke="black" points="2310.11,-366.176 2316.22,-357.52 2306.05,-360.478 2310.11,-366.176"/>
</g>
</g>
</svg>
