<?xml version="1.0" encoding="UTF-8" standalone="no"?>
<!DOCTYPE svg PUBLIC "-//W3C//DTD SVG 1.1//EN"
 "http://www.w3.org/Graphics/SVG/1.1/DTD/svg11.dtd">
<!-- Generated by graphviz version 2.38.0 (20140413.2041)
 -->
<!-- Title: Tree Pages: 1 -->
<svg width="1220pt" height="581pt"
 viewBox="0.00 0.00 1219.50 581.00" xmlns="http://www.w3.org/2000/svg" xmlns:xlink="http://www.w3.org/1999/xlink">
<g id="graph0" class="graph" transform="scale(1 1) rotate(0) translate(4 577)">
<title>Tree</title>
<polygon fill="white" stroke="none" points="-4,4 -4,-577 1215.5,-577 1215.5,4 -4,4"/>
<!-- 0 -->
<g id="node1" class="node"><title>0</title>
<polygon fill="#39e581" fill-opacity="0.054902" stroke="black" points="827.5,-573 609.5,-573 609.5,-505 827.5,-505 827.5,-573"/>
<text text-anchor="middle" x="718.5" y="-557.8" font-family="Times,serif" font-size="14.00">speech_emotional_NRC &lt;= 18.3738</text>
<text text-anchor="middle" x="718.5" y="-542.8" font-family="Times,serif" font-size="14.00">samples = 112</text>
<text text-anchor="middle" x="718.5" y="-527.8" font-family="Times,serif" font-size="14.00">value = [41, 45, 26]</text>
<text text-anchor="middle" x="718.5" y="-512.8" font-family="Times,serif" font-size="14.00">class = 0.5</text>
</g>
<!-- 1 -->
<g id="node2" class="node"><title>1</title>
<polygon fill="#39e581" fill-opacity="0.101961" stroke="black" points="693.5,-469 531.5,-469 531.5,-401 693.5,-401 693.5,-469"/>
<text text-anchor="middle" x="612.5" y="-453.8" font-family="Times,serif" font-size="14.00">positive_NRC &lt;= 20.2381</text>
<text text-anchor="middle" x="612.5" y="-438.8" font-family="Times,serif" font-size="14.00">samples = 72</text>
<text text-anchor="middle" x="612.5" y="-423.8" font-family="Times,serif" font-size="14.00">value = [32, 36, 4]</text>
<text text-anchor="middle" x="612.5" y="-408.8" font-family="Times,serif" font-size="14.00">class = 0.5</text>
</g>
<!-- 0&#45;&gt;1 -->
<g id="edge1" class="edge"><title>0&#45;&gt;1</title>
<path fill="none" stroke="black" d="M684.085,-504.884C674.643,-495.798 664.3,-485.845 654.485,-476.4"/>
<polygon fill="black" stroke="black" points="656.738,-473.711 647.105,-469.299 651.884,-478.755 656.738,-473.711"/>
<text text-anchor="middle" x="647.586" y="-490.595" font-family="Times,serif" font-size="14.00">True</text>
</g>
<!-- 20 -->
<g id="node21" class="node"><title>20</title>
<polygon fill="#8139e5" fill-opacity="0.419608" stroke="black" points="926,-469 725,-469 725,-401 926,-401 926,-469"/>
<text text-anchor="middle" x="825.5" y="-453.8" font-family="Times,serif" font-size="14.00">narrated_neutral_NRC &lt;= 6.7615</text>
<text text-anchor="middle" x="825.5" y="-438.8" font-family="Times,serif" font-size="14.00">samples = 40</text>
<text text-anchor="middle" x="825.5" y="-423.8" font-family="Times,serif" font-size="14.00">value = [9, 9, 22]</text>
<text text-anchor="middle" x="825.5" y="-408.8" font-family="Times,serif" font-size="14.00">class = 1.0</text>
</g>
<!-- 0&#45;&gt;20 -->
<g id="edge20" class="edge"><title>0&#45;&gt;20</title>
<path fill="none" stroke="black" d="M753.24,-504.884C762.771,-495.798 773.211,-485.845 783.119,-476.4"/>
<polygon fill="black" stroke="black" points="785.745,-478.733 790.568,-469.299 780.915,-473.666 785.745,-478.733"/>
<text text-anchor="middle" x="789.97" y="-490.592" font-family="Times,serif" font-size="14.00">False</text>
</g>
<!-- 2 -->
<g id="node3" class="node"><title>2</title>
<polygon fill="#e58139" fill-opacity="0.176471" stroke="black" points="505,-365 294,-365 294,-297 505,-297 505,-365"/>
<text text-anchor="middle" x="399.5" y="-349.8" font-family="Times,serif" font-size="14.00">speech_emotional_NRC &lt;= 9.0148</text>
<text text-anchor="middle" x="399.5" y="-334.8" font-family="Times,serif" font-size="14.00">samples = 59</text>
<text text-anchor="middle" x="399.5" y="-319.8" font-family="Times,serif" font-size="14.00">value = [31, 25, 3]</text>
<text text-anchor="middle" x="399.5" y="-304.8" font-family="Times,serif" font-size="14.00">class = 0.0</text>
</g>
<!-- 1&#45;&gt;2 -->
<g id="edge2" class="edge"><title>1&#45;&gt;2</title>
<path fill="none" stroke="black" d="M543.345,-400.884C522.406,-390.856 499.262,-379.773 477.77,-369.482"/>
<polygon fill="black" stroke="black" points="479.203,-366.287 468.672,-365.125 476.18,-372.601 479.203,-366.287"/>
</g>
<!-- 13 -->
<g id="node14" class="node"><title>13</title>
<polygon fill="#39e581" fill-opacity="0.831373" stroke="black" points="691.5,-365 533.5,-365 533.5,-297 691.5,-297 691.5,-365"/>
<text text-anchor="middle" x="612.5" y="-349.8" font-family="Times,serif" font-size="14.00">negative_NRC &lt;= 4.2059</text>
<text text-anchor="middle" x="612.5" y="-334.8" font-family="Times,serif" font-size="14.00">samples = 13</text>
<text text-anchor="middle" x="612.5" y="-319.8" font-family="Times,serif" font-size="14.00">value = [1, 11, 1]</text>
<text text-anchor="middle" x="612.5" y="-304.8" font-family="Times,serif" font-size="14.00">class = 0.5</text>
</g>
<!-- 1&#45;&gt;13 -->
<g id="edge13" class="edge"><title>1&#45;&gt;13</title>
<path fill="none" stroke="black" d="M612.5,-400.884C612.5,-392.778 612.5,-383.982 612.5,-375.472"/>
<polygon fill="black" stroke="black" points="616,-375.299 612.5,-365.299 609,-375.299 616,-375.299"/>
</g>
<!-- 3 -->
<g id="node4" class="node"><title>3</title>
<polygon fill="#e58139" fill-opacity="0.733333" stroke="black" points="267,-261 102,-261 102,-193 267,-193 267,-261"/>
<text text-anchor="middle" x="184.5" y="-245.8" font-family="Times,serif" font-size="14.00">negative_NRC &lt;= 20.4021</text>
<text text-anchor="middle" x="184.5" y="-230.8" font-family="Times,serif" font-size="14.00">samples = 19</text>
<text text-anchor="middle" x="184.5" y="-215.8" font-family="Times,serif" font-size="14.00">value = [15, 4, 0]</text>
<text text-anchor="middle" x="184.5" y="-200.8" font-family="Times,serif" font-size="14.00">class = 0.0</text>
</g>
<!-- 2&#45;&gt;3 -->
<g id="edge3" class="edge"><title>2&#45;&gt;3</title>
<path fill="none" stroke="black" d="M329.696,-296.884C308.56,-286.856 285.198,-275.773 263.505,-265.482"/>
<polygon fill="black" stroke="black" points="264.857,-262.249 254.322,-261.125 261.856,-268.573 264.857,-262.249"/>
</g>
<!-- 6 -->
<g id="node7" class="node"><title>6</title>
<polygon fill="#39e581" fill-opacity="0.207843" stroke="black" points="478,-261 321,-261 321,-193 478,-193 478,-261"/>
<text text-anchor="middle" x="399.5" y="-245.8" font-family="Times,serif" font-size="14.00">neutral_NRC &lt;= 41.3236</text>
<text text-anchor="middle" x="399.5" y="-230.8" font-family="Times,serif" font-size="14.00">samples = 40</text>
<text text-anchor="middle" x="399.5" y="-215.8" font-family="Times,serif" font-size="14.00">value = [16, 21, 3]</text>
<text text-anchor="middle" x="399.5" y="-200.8" font-family="Times,serif" font-size="14.00">class = 0.5</text>
</g>
<!-- 2&#45;&gt;6 -->
<g id="edge6" class="edge"><title>2&#45;&gt;6</title>
<path fill="none" stroke="black" d="M399.5,-296.884C399.5,-288.778 399.5,-279.982 399.5,-271.472"/>
<polygon fill="black" stroke="black" points="403,-271.299 399.5,-261.299 396,-271.299 403,-271.299"/>
</g>
<!-- 4 -->
<g id="node5" class="node"><title>4</title>
<polygon fill="#e58139" stroke="black" points="113,-149.5 0,-149.5 0,-96.5 113,-96.5 113,-149.5"/>
<text text-anchor="middle" x="56.5" y="-134.3" font-family="Times,serif" font-size="14.00">samples = 15</text>
<text text-anchor="middle" x="56.5" y="-119.3" font-family="Times,serif" font-size="14.00">value = [15, 0, 0]</text>
<text text-anchor="middle" x="56.5" y="-104.3" font-family="Times,serif" font-size="14.00">class = 0.0</text>
</g>
<!-- 3&#45;&gt;4 -->
<g id="edge4" class="edge"><title>3&#45;&gt;4</title>
<path fill="none" stroke="black" d="M142.942,-192.884C128.037,-181.006 111.272,-167.646 96.5013,-155.876"/>
<polygon fill="black" stroke="black" points="98.5269,-153.015 88.525,-149.52 94.1644,-158.489 98.5269,-153.015"/>
</g>
<!-- 5 -->
<g id="node6" class="node"><title>5</title>
<polygon fill="#39e581" stroke="black" points="237.5,-149.5 131.5,-149.5 131.5,-96.5 237.5,-96.5 237.5,-149.5"/>
<text text-anchor="middle" x="184.5" y="-134.3" font-family="Times,serif" font-size="14.00">samples = 4</text>
<text text-anchor="middle" x="184.5" y="-119.3" font-family="Times,serif" font-size="14.00">value = [0, 4, 0]</text>
<text text-anchor="middle" x="184.5" y="-104.3" font-family="Times,serif" font-size="14.00">class = 0.5</text>
</g>
<!-- 3&#45;&gt;5 -->
<g id="edge5" class="edge"><title>3&#45;&gt;5</title>
<path fill="none" stroke="black" d="M184.5,-192.884C184.5,-182.326 184.5,-170.597 184.5,-159.854"/>
<polygon fill="black" stroke="black" points="188,-159.52 184.5,-149.52 181,-159.52 188,-159.52"/>
</g>
<!-- 7 -->
<g id="node8" class="node"><title>7</title>
<polygon fill="#e58139" fill-opacity="0.800000" stroke="black" points="455.5,-157 255.5,-157 255.5,-89 455.5,-89 455.5,-157"/>
<text text-anchor="middle" x="355.5" y="-141.8" font-family="Times,serif" font-size="14.00">speech_neutral_NRC &lt;= 18.3261</text>
<text text-anchor="middle" x="355.5" y="-126.8" font-family="Times,serif" font-size="14.00">samples = 11</text>
<text text-anchor="middle" x="355.5" y="-111.8" font-family="Times,serif" font-size="14.00">value = [9, 1, 1]</text>
<text text-anchor="middle" x="355.5" y="-96.8" font-family="Times,serif" font-size="14.00">class = 0.0</text>
</g>
<!-- 6&#45;&gt;7 -->
<g id="edge7" class="edge"><title>6&#45;&gt;7</title>
<path fill="none" stroke="black" d="M385.214,-192.884C381.603,-184.511 377.673,-175.401 373.89,-166.631"/>
<polygon fill="black" stroke="black" points="377.039,-165.095 369.864,-157.299 370.612,-167.868 377.039,-165.095"/>
</g>
<!-- 10 -->
<g id="node11" class="node"><title>10</title>
<polygon fill="#39e581" fill-opacity="0.592157" stroke="black" points="603,-157 474,-157 474,-89 603,-89 603,-157"/>
<text text-anchor="middle" x="538.5" y="-141.8" font-family="Times,serif" font-size="14.00">narrated &lt;= 48.5459</text>
<text text-anchor="middle" x="538.5" y="-126.8" font-family="Times,serif" font-size="14.00">samples = 29</text>
<text text-anchor="middle" x="538.5" y="-111.8" font-family="Times,serif" font-size="14.00">value = [7, 20, 2]</text>
<text text-anchor="middle" x="538.5" y="-96.8" font-family="Times,serif" font-size="14.00">class = 0.5</text>
</g>
<!-- 6&#45;&gt;10 -->
<g id="edge10" class="edge"><title>6&#45;&gt;10</title>
<path fill="none" stroke="black" d="M444.629,-192.884C457.496,-183.442 471.639,-173.064 484.956,-163.292"/>
<polygon fill="black" stroke="black" points="487.13,-166.037 493.121,-157.299 482.989,-160.394 487.13,-166.037"/>
</g>
<!-- 8 -->
<g id="node9" class="node"><title>8</title>
<polygon fill="#e58139" fill-opacity="0.890196" stroke="black" points="284.5,-53 178.5,-53 178.5,-0 284.5,-0 284.5,-53"/>
<text text-anchor="middle" x="231.5" y="-37.8" font-family="Times,serif" font-size="14.00">samples = 10</text>
<text text-anchor="middle" x="231.5" y="-22.8" font-family="Times,serif" font-size="14.00">value = [9, 1, 0]</text>
<text text-anchor="middle" x="231.5" y="-7.8" font-family="Times,serif" font-size="14.00">class = 0.0</text>
</g>
<!-- 7&#45;&gt;8 -->
<g id="edge8" class="edge"><title>7&#45;&gt;8</title>
<path fill="none" stroke="black" d="M312.131,-88.9485C299.527,-79.3431 285.791,-68.8747 273.286,-59.345"/>
<polygon fill="black" stroke="black" points="275.346,-56.5144 265.271,-53.2367 271.103,-62.0819 275.346,-56.5144"/>
</g>
<!-- 9 -->
<g id="node10" class="node"><title>9</title>
<polygon fill="#8139e5" stroke="black" points="408.5,-53 302.5,-53 302.5,-0 408.5,-0 408.5,-53"/>
<text text-anchor="middle" x="355.5" y="-37.8" font-family="Times,serif" font-size="14.00">samples = 1</text>
<text text-anchor="middle" x="355.5" y="-22.8" font-family="Times,serif" font-size="14.00">value = [0, 0, 1]</text>
<text text-anchor="middle" x="355.5" y="-7.8" font-family="Times,serif" font-size="14.00">class = 1.0</text>
</g>
<!-- 7&#45;&gt;9 -->
<g id="edge9" class="edge"><title>7&#45;&gt;9</title>
<path fill="none" stroke="black" d="M355.5,-88.9485C355.5,-80.7153 355.5,-71.848 355.5,-63.4814"/>
<polygon fill="black" stroke="black" points="359,-63.2367 355.5,-53.2367 352,-63.2367 359,-63.2367"/>
</g>
<!-- 11 -->
<g id="node12" class="node"><title>11</title>
<polygon fill="#e58139" fill-opacity="0.749020" stroke="black" points="532.5,-53 426.5,-53 426.5,-0 532.5,-0 532.5,-53"/>
<text text-anchor="middle" x="479.5" y="-37.8" font-family="Times,serif" font-size="14.00">samples = 5</text>
<text text-anchor="middle" x="479.5" y="-22.8" font-family="Times,serif" font-size="14.00">value = [4, 1, 0]</text>
<text text-anchor="middle" x="479.5" y="-7.8" font-family="Times,serif" font-size="14.00">class = 0.0</text>
</g>
<!-- 10&#45;&gt;11 -->
<g id="edge11" class="edge"><title>10&#45;&gt;11</title>
<path fill="none" stroke="black" d="M517.865,-88.9485C512.382,-80.1664 506.448,-70.6629 500.924,-61.815"/>
<polygon fill="black" stroke="black" points="503.833,-59.8656 495.568,-53.2367 497.896,-63.5728 503.833,-59.8656"/>
</g>
<!-- 12 -->
<g id="node13" class="node"><title>12</title>
<polygon fill="#39e581" fill-opacity="0.760784" stroke="black" points="664,-53 551,-53 551,-0 664,-0 664,-53"/>
<text text-anchor="middle" x="607.5" y="-37.8" font-family="Times,serif" font-size="14.00">samples = 24</text>
<text text-anchor="middle" x="607.5" y="-22.8" font-family="Times,serif" font-size="14.00">value = [3, 19, 2]</text>
<text text-anchor="middle" x="607.5" y="-7.8" font-family="Times,serif" font-size="14.00">class = 0.5</text>
</g>
<!-- 10&#45;&gt;12 -->
<g id="edge12" class="edge"><title>10&#45;&gt;12</title>
<path fill="none" stroke="black" d="M562.633,-88.9485C569.112,-80.0749 576.129,-70.4648 582.646,-61.5388"/>
<polygon fill="black" stroke="black" points="585.638,-63.3769 588.708,-53.2367 579.984,-59.249 585.638,-63.3769"/>
</g>
<!-- 14 -->
<g id="node15" class="node"><title>14</title>
<polygon fill="#8139e5" stroke="black" points="640.5,-253.5 534.5,-253.5 534.5,-200.5 640.5,-200.5 640.5,-253.5"/>
<text text-anchor="middle" x="587.5" y="-238.3" font-family="Times,serif" font-size="14.00">samples = 1</text>
<text text-anchor="middle" x="587.5" y="-223.3" font-family="Times,serif" font-size="14.00">value = [0, 0, 1]</text>
<text text-anchor="middle" x="587.5" y="-208.3" font-family="Times,serif" font-size="14.00">class = 1.0</text>
</g>
<!-- 13&#45;&gt;14 -->
<g id="edge14" class="edge"><title>13&#45;&gt;14</title>
<path fill="none" stroke="black" d="M604.383,-296.884C601.769,-286.216 598.861,-274.352 596.206,-263.519"/>
<polygon fill="black" stroke="black" points="599.535,-262.399 593.755,-253.52 592.736,-264.066 599.535,-262.399"/>
</g>
<!-- 15 -->
<g id="node16" class="node"><title>15</title>
<polygon fill="#39e581" fill-opacity="0.909804" stroke="black" points="884,-261 659,-261 659,-193 884,-193 884,-261"/>
<text text-anchor="middle" x="771.5" y="-245.8" font-family="Times,serif" font-size="14.00">narrated_emotional_NRC &lt;= 45.2831</text>
<text text-anchor="middle" x="771.5" y="-230.8" font-family="Times,serif" font-size="14.00">samples = 12</text>
<text text-anchor="middle" x="771.5" y="-215.8" font-family="Times,serif" font-size="14.00">value = [1, 11, 0]</text>
<text text-anchor="middle" x="771.5" y="-200.8" font-family="Times,serif" font-size="14.00">class = 0.5</text>
</g>
<!-- 13&#45;&gt;15 -->
<g id="edge15" class="edge"><title>13&#45;&gt;15</title>
<path fill="none" stroke="black" d="M664.123,-296.884C679.195,-287.214 695.798,-276.563 711.349,-266.587"/>
<polygon fill="black" stroke="black" points="713.337,-269.47 719.864,-261.125 709.558,-263.578 713.337,-269.47"/>
</g>
<!-- 16 -->
<g id="node17" class="node"><title>16</title>
<polygon fill="#39e581" stroke="black" points="728.5,-149.5 622.5,-149.5 622.5,-96.5 728.5,-96.5 728.5,-149.5"/>
<text text-anchor="middle" x="675.5" y="-134.3" font-family="Times,serif" font-size="14.00">samples = 8</text>
<text text-anchor="middle" x="675.5" y="-119.3" font-family="Times,serif" font-size="14.00">value = [0, 8, 0]</text>
<text text-anchor="middle" x="675.5" y="-104.3" font-family="Times,serif" font-size="14.00">class = 0.5</text>
</g>
<!-- 15&#45;&gt;16 -->
<g id="edge16" class="edge"><title>15&#45;&gt;16</title>
<path fill="none" stroke="black" d="M740.332,-192.884C729.463,-181.336 717.276,-168.387 706.428,-156.86"/>
<polygon fill="black" stroke="black" points="708.921,-154.403 699.519,-149.52 703.824,-159.201 708.921,-154.403"/>
</g>
<!-- 17 -->
<g id="node18" class="node"><title>17</title>
<polygon fill="#39e581" fill-opacity="0.666667" stroke="black" points="868.5,-157 746.5,-157 746.5,-89 868.5,-89 868.5,-157"/>
<text text-anchor="middle" x="807.5" y="-141.8" font-family="Times,serif" font-size="14.00">speech &lt;= 34.0849</text>
<text text-anchor="middle" x="807.5" y="-126.8" font-family="Times,serif" font-size="14.00">samples = 4</text>
<text text-anchor="middle" x="807.5" y="-111.8" font-family="Times,serif" font-size="14.00">value = [1, 3, 0]</text>
<text text-anchor="middle" x="807.5" y="-96.8" font-family="Times,serif" font-size="14.00">class = 0.5</text>
</g>
<!-- 15&#45;&gt;17 -->
<g id="edge17" class="edge"><title>15&#45;&gt;17</title>
<path fill="none" stroke="black" d="M783.188,-192.884C786.112,-184.6 789.29,-175.595 792.355,-166.911"/>
<polygon fill="black" stroke="black" points="795.719,-167.894 795.747,-157.299 789.119,-165.564 795.719,-167.894"/>
</g>
<!-- 18 -->
<g id="node19" class="node"><title>18</title>
<polygon fill="#39e581" stroke="black" points="788.5,-53 682.5,-53 682.5,-0 788.5,-0 788.5,-53"/>
<text text-anchor="middle" x="735.5" y="-37.8" font-family="Times,serif" font-size="14.00">samples = 3</text>
<text text-anchor="middle" x="735.5" y="-22.8" font-family="Times,serif" font-size="14.00">value = [0, 3, 0]</text>
<text text-anchor="middle" x="735.5" y="-7.8" font-family="Times,serif" font-size="14.00">class = 0.5</text>
</g>
<!-- 17&#45;&gt;18 -->
<g id="edge18" class="edge"><title>17&#45;&gt;18</title>
<path fill="none" stroke="black" d="M782.318,-88.9485C775.487,-79.9834 768.084,-70.2666 761.224,-61.2629"/>
<polygon fill="black" stroke="black" points="763.953,-59.0699 755.109,-53.2367 758.385,-63.3122 763.953,-59.0699"/>
</g>
<!-- 19 -->
<g id="node20" class="node"><title>19</title>
<polygon fill="#e58139" stroke="black" points="912.5,-53 806.5,-53 806.5,-0 912.5,-0 912.5,-53"/>
<text text-anchor="middle" x="859.5" y="-37.8" font-family="Times,serif" font-size="14.00">samples = 1</text>
<text text-anchor="middle" x="859.5" y="-22.8" font-family="Times,serif" font-size="14.00">value = [1, 0, 0]</text>
<text text-anchor="middle" x="859.5" y="-7.8" font-family="Times,serif" font-size="14.00">class = 0.0</text>
</g>
<!-- 17&#45;&gt;19 -->
<g id="edge19" class="edge"><title>17&#45;&gt;19</title>
<path fill="none" stroke="black" d="M825.687,-88.9485C830.469,-80.2579 835.64,-70.8608 840.465,-62.0917"/>
<polygon fill="black" stroke="black" points="843.583,-63.6853 845.338,-53.2367 837.451,-60.3105 843.583,-63.6853"/>
</g>
<!-- 21 -->
<g id="node22" class="node"><title>21</title>
<polygon fill="#e58139" stroke="black" points="878.5,-357.5 772.5,-357.5 772.5,-304.5 878.5,-304.5 878.5,-357.5"/>
<text text-anchor="middle" x="825.5" y="-342.3" font-family="Times,serif" font-size="14.00">samples = 4</text>
<text text-anchor="middle" x="825.5" y="-327.3" font-family="Times,serif" font-size="14.00">value = [4, 0, 0]</text>
<text text-anchor="middle" x="825.5" y="-312.3" font-family="Times,serif" font-size="14.00">class = 0.0</text>
</g>
<!-- 20&#45;&gt;21 -->
<g id="edge21" class="edge"><title>20&#45;&gt;21</title>
<path fill="none" stroke="black" d="M825.5,-400.884C825.5,-390.326 825.5,-378.597 825.5,-367.854"/>
<polygon fill="black" stroke="black" points="829,-367.52 825.5,-357.52 822,-367.52 829,-367.52"/>
</g>
<!-- 22 -->
<g id="node23" class="node"><title>22</title>
<polygon fill="#8139e5" fill-opacity="0.482353" stroke="black" points="1065,-365 910,-365 910,-297 1065,-297 1065,-365"/>
<text text-anchor="middle" x="987.5" y="-349.8" font-family="Times,serif" font-size="14.00">positive_NRC &lt;= 30.357</text>
<text text-anchor="middle" x="987.5" y="-334.8" font-family="Times,serif" font-size="14.00">samples = 36</text>
<text text-anchor="middle" x="987.5" y="-319.8" font-family="Times,serif" font-size="14.00">value = [5, 9, 22]</text>
<text text-anchor="middle" x="987.5" y="-304.8" font-family="Times,serif" font-size="14.00">class = 1.0</text>
</g>
<!-- 20&#45;&gt;22 -->
<g id="edge22" class="edge"><title>20&#45;&gt;22</title>
<path fill="none" stroke="black" d="M878.097,-400.884C893.453,-391.214 910.37,-380.563 926.214,-370.587"/>
<polygon fill="black" stroke="black" points="928.293,-373.415 934.89,-365.125 924.563,-367.491 928.293,-373.415"/>
</g>
<!-- 23 -->
<g id="node24" class="node"><title>23</title>
<polygon fill="#8139e5" fill-opacity="0.592157" stroke="black" points="1052,-261 923,-261 923,-193 1052,-193 1052,-261"/>
<text text-anchor="middle" x="987.5" y="-245.8" font-family="Times,serif" font-size="14.00">narrated &lt;= 65.6115</text>
<text text-anchor="middle" x="987.5" y="-230.8" font-family="Times,serif" font-size="14.00">samples = 33</text>
<text text-anchor="middle" x="987.5" y="-215.8" font-family="Times,serif" font-size="14.00">value = [5, 6, 22]</text>
<text text-anchor="middle" x="987.5" y="-200.8" font-family="Times,serif" font-size="14.00">class = 1.0</text>
</g>
<!-- 22&#45;&gt;23 -->
<g id="edge23" class="edge"><title>22&#45;&gt;23</title>
<path fill="none" stroke="black" d="M987.5,-296.884C987.5,-288.778 987.5,-279.982 987.5,-271.472"/>
<polygon fill="black" stroke="black" points="991,-271.299 987.5,-261.299 984,-271.299 991,-271.299"/>
</g>
<!-- 28 -->
<g id="node29" class="node"><title>28</title>
<polygon fill="#39e581" stroke="black" points="1176.5,-253.5 1070.5,-253.5 1070.5,-200.5 1176.5,-200.5 1176.5,-253.5"/>
<text text-anchor="middle" x="1123.5" y="-238.3" font-family="Times,serif" font-size="14.00">samples = 3</text>
<text text-anchor="middle" x="1123.5" y="-223.3" font-family="Times,serif" font-size="14.00">value = [0, 3, 0]</text>
<text text-anchor="middle" x="1123.5" y="-208.3" font-family="Times,serif" font-size="14.00">class = 0.5</text>
</g>
<!-- 22&#45;&gt;28 -->
<g id="edge28" class="edge"><title>22&#45;&gt;28</title>
<path fill="none" stroke="black" d="M1031.66,-296.884C1047.64,-284.896 1065.63,-271.399 1081.43,-259.549"/>
<polygon fill="black" stroke="black" points="1083.57,-262.32 1089.47,-253.52 1079.37,-256.72 1083.57,-262.32"/>
</g>
<!-- 24 -->
<g id="node25" class="node"><title>24</title>
<polygon fill="#8139e5" fill-opacity="0.639216" stroke="black" points="1087.5,-157 887.5,-157 887.5,-89 1087.5,-89 1087.5,-157"/>
<text text-anchor="middle" x="987.5" y="-141.8" font-family="Times,serif" font-size="14.00">speech_neutral_NRC &lt;= 51.4597</text>
<text text-anchor="middle" x="987.5" y="-126.8" font-family="Times,serif" font-size="14.00">samples = 31</text>
<text text-anchor="middle" x="987.5" y="-111.8" font-family="Times,serif" font-size="14.00">value = [3, 6, 22]</text>
<text text-anchor="middle" x="987.5" y="-96.8" font-family="Times,serif" font-size="14.00">class = 1.0</text>
</g>
<!-- 23&#45;&gt;24 -->
<g id="edge24" class="edge"><title>23&#45;&gt;24</title>
<path fill="none" stroke="black" d="M987.5,-192.884C987.5,-184.778 987.5,-175.982 987.5,-167.472"/>
<polygon fill="black" stroke="black" points="991,-167.299 987.5,-157.299 984,-167.299 991,-167.299"/>
</g>
<!-- 27 -->
<g id="node28" class="node"><title>27</title>
<polygon fill="#e58139" stroke="black" points="1211.5,-149.5 1105.5,-149.5 1105.5,-96.5 1211.5,-96.5 1211.5,-149.5"/>
<text text-anchor="middle" x="1158.5" y="-134.3" font-family="Times,serif" font-size="14.00">samples = 2</text>
<text text-anchor="middle" x="1158.5" y="-119.3" font-family="Times,serif" font-size="14.00">value = [2, 0, 0]</text>
<text text-anchor="middle" x="1158.5" y="-104.3" font-family="Times,serif" font-size="14.00">class = 0.0</text>
</g>
<!-- 23&#45;&gt;27 -->
<g id="edge27" class="edge"><title>23&#45;&gt;27</title>
<path fill="none" stroke="black" d="M1043.02,-192.884C1063.58,-180.621 1086.78,-166.779 1106.97,-154.737"/>
<polygon fill="black" stroke="black" points="1108.92,-157.649 1115.72,-149.52 1105.34,-151.637 1108.92,-157.649"/>
</g>
<!-- 25 -->
<g id="node26" class="node"><title>25</title>
<polygon fill="#8139e5" fill-opacity="0.749020" stroke="black" points="1044,-53 931,-53 931,-0 1044,-0 1044,-53"/>
<text text-anchor="middle" x="987.5" y="-37.8" font-family="Times,serif" font-size="14.00">samples = 28</text>
<text text-anchor="middle" x="987.5" y="-22.8" font-family="Times,serif" font-size="14.00">value = [2, 4, 22]</text>
<text text-anchor="middle" x="987.5" y="-7.8" font-family="Times,serif" font-size="14.00">class = 1.0</text>
</g>
<!-- 24&#45;&gt;25 -->
<g id="edge25" class="edge"><title>24&#45;&gt;25</title>
<path fill="none" stroke="black" d="M987.5,-88.9485C987.5,-80.7153 987.5,-71.848 987.5,-63.4814"/>
<polygon fill="black" stroke="black" points="991,-63.2367 987.5,-53.2367 984,-63.2367 991,-63.2367"/>
</g>
<!-- 26 -->
<g id="node27" class="node"><title>26</title>
<polygon fill="#39e581" fill-opacity="0.498039" stroke="black" points="1168.5,-53 1062.5,-53 1062.5,-0 1168.5,-0 1168.5,-53"/>
<text text-anchor="middle" x="1115.5" y="-37.8" font-family="Times,serif" font-size="14.00">samples = 3</text>
<text text-anchor="middle" x="1115.5" y="-22.8" font-family="Times,serif" font-size="14.00">value = [1, 2, 0]</text>
<text text-anchor="middle" x="1115.5" y="-7.8" font-family="Times,serif" font-size="14.00">class = 0.5</text>
</g>
<!-- 24&#45;&gt;26 -->
<g id="edge26" class="edge"><title>24&#45;&gt;26</title>
<path fill="none" stroke="black" d="M1032.27,-88.9485C1045.28,-79.3431 1059.46,-68.8747 1072.37,-59.345"/>
<polygon fill="black" stroke="black" points="1074.67,-61.992 1080.64,-53.2367 1070.52,-56.3605 1074.67,-61.992"/>
</g>
</g>
</svg>
