<?xml version="1.0" encoding="UTF-8" standalone="no"?>
<!DOCTYPE svg PUBLIC "-//W3C//DTD SVG 1.1//EN"
 "http://www.w3.org/Graphics/SVG/1.1/DTD/svg11.dtd">
<!-- Generated by graphviz version 2.38.0 (20140413.2041)
 -->
<!-- Title: Tree Pages: 1 -->
<svg width="1659pt" height="685pt"
 viewBox="0.00 0.00 1658.50 685.00" xmlns="http://www.w3.org/2000/svg" xmlns:xlink="http://www.w3.org/1999/xlink">
<g id="graph0" class="graph" transform="scale(1 1) rotate(0) translate(4 681)">
<title>Tree</title>
<polygon fill="white" stroke="none" points="-4,4 -4,-681 1654.5,-681 1654.5,4 -4,4"/>
<!-- 0 -->
<g id="node1" class="node"><title>0</title>
<polygon fill="#39e581" fill-opacity="0.054902" stroke="black" points="1129,-677 947,-677 947,-609 1129,-609 1129,-677"/>
<text text-anchor="middle" x="1038" y="-661.8" font-family="Times,serif" font-size="14.00">Joy_NRC_narrated &lt;= 1.4807</text>
<text text-anchor="middle" x="1038" y="-646.8" font-family="Times,serif" font-size="14.00">samples = 112</text>
<text text-anchor="middle" x="1038" y="-631.8" font-family="Times,serif" font-size="14.00">value = [41, 45, 26]</text>
<text text-anchor="middle" x="1038" y="-616.8" font-family="Times,serif" font-size="14.00">class = 0.5</text>
</g>
<!-- 1 -->
<g id="node2" class="node"><title>1</title>
<polygon fill="#e58139" fill-opacity="0.490196" stroke="black" points="1022,-573 832,-573 832,-505 1022,-505 1022,-573"/>
<text text-anchor="middle" x="927" y="-557.8" font-family="Times,serif" font-size="14.00">Anger_NRC_speech &lt;= 1.3037</text>
<text text-anchor="middle" x="927" y="-542.8" font-family="Times,serif" font-size="14.00">samples = 58</text>
<text text-anchor="middle" x="927" y="-527.8" font-family="Times,serif" font-size="14.00">value = [35, 13, 10]</text>
<text text-anchor="middle" x="927" y="-512.8" font-family="Times,serif" font-size="14.00">class = 0.0</text>
</g>
<!-- 0&#45;&gt;1 -->
<g id="edge1" class="edge"><title>0&#45;&gt;1</title>
<path fill="none" stroke="black" d="M1001.96,-608.884C991.977,-599.709 981.031,-589.65 970.663,-580.123"/>
<polygon fill="black" stroke="black" points="972.969,-577.488 963.238,-573.299 968.233,-582.643 972.969,-577.488"/>
<text text-anchor="middle" x="964.293" y="-594.577" font-family="Times,serif" font-size="14.00">True</text>
</g>
<!-- 20 -->
<g id="node21" class="node"><title>20</title>
<polygon fill="#39e581" fill-opacity="0.419608" stroke="black" points="1256.5,-573 1043.5,-573 1043.5,-505 1256.5,-505 1256.5,-573"/>
<text text-anchor="middle" x="1150" y="-557.8" font-family="Times,serif" font-size="14.00">speech_emotional_WN &lt;= 13.7872</text>
<text text-anchor="middle" x="1150" y="-542.8" font-family="Times,serif" font-size="14.00">samples = 54</text>
<text text-anchor="middle" x="1150" y="-527.8" font-family="Times,serif" font-size="14.00">value = [6, 32, 16]</text>
<text text-anchor="middle" x="1150" y="-512.8" font-family="Times,serif" font-size="14.00">class = 0.5</text>
</g>
<!-- 0&#45;&gt;20 -->
<g id="edge20" class="edge"><title>0&#45;&gt;20</title>
<path fill="none" stroke="black" d="M1074.36,-608.884C1084.44,-599.709 1095.48,-589.65 1105.94,-580.123"/>
<polygon fill="black" stroke="black" points="1108.4,-582.62 1113.44,-573.299 1103.69,-577.445 1108.4,-582.62"/>
<text text-anchor="middle" x="1112.27" y="-594.572" font-family="Times,serif" font-size="14.00">False</text>
</g>
<!-- 2 -->
<g id="node3" class="node"><title>2</title>
<polygon fill="#e58139" fill-opacity="0.588235" stroke="black" points="759,-469 605,-469 605,-401 759,-401 759,-469"/>
<text text-anchor="middle" x="682" y="-453.8" font-family="Times,serif" font-size="14.00">negative_WN &lt;= 7.3864</text>
<text text-anchor="middle" x="682" y="-438.8" font-family="Times,serif" font-size="14.00">samples = 51</text>
<text text-anchor="middle" x="682" y="-423.8" font-family="Times,serif" font-size="14.00">value = [35, 12, 4]</text>
<text text-anchor="middle" x="682" y="-408.8" font-family="Times,serif" font-size="14.00">class = 0.0</text>
</g>
<!-- 1&#45;&gt;2 -->
<g id="edge2" class="edge"><title>1&#45;&gt;2</title>
<path fill="none" stroke="black" d="M847.456,-504.884C822.194,-494.366 794.142,-482.688 768.42,-471.979"/>
<polygon fill="black" stroke="black" points="769.636,-468.694 759.059,-468.082 766.945,-475.156 769.636,-468.694"/>
</g>
<!-- 17 -->
<g id="node18" class="node"><title>17</title>
<polygon fill="#8139e5" fill-opacity="0.831373" stroke="black" points="1036,-469 818,-469 818,-401 1036,-401 1036,-469"/>
<text text-anchor="middle" x="927" y="-453.8" font-family="Times,serif" font-size="14.00">speech_emotional_NRC &lt;= 16.3523</text>
<text text-anchor="middle" x="927" y="-438.8" font-family="Times,serif" font-size="14.00">samples = 7</text>
<text text-anchor="middle" x="927" y="-423.8" font-family="Times,serif" font-size="14.00">value = [0, 1, 6]</text>
<text text-anchor="middle" x="927" y="-408.8" font-family="Times,serif" font-size="14.00">class = 1.0</text>
</g>
<!-- 1&#45;&gt;17 -->
<g id="edge17" class="edge"><title>1&#45;&gt;17</title>
<path fill="none" stroke="black" d="M927,-504.884C927,-496.778 927,-487.982 927,-479.472"/>
<polygon fill="black" stroke="black" points="930.5,-479.299 927,-469.299 923.5,-479.299 930.5,-479.299"/>
</g>
<!-- 3 -->
<g id="node4" class="node"><title>3</title>
<polygon fill="#e58139" fill-opacity="0.729412" stroke="black" points="567,-365 421,-365 421,-297 567,-297 567,-365"/>
<text text-anchor="middle" x="494" y="-349.8" font-family="Times,serif" font-size="14.00">Anger_NRC &lt;= 1.4306</text>
<text text-anchor="middle" x="494" y="-334.8" font-family="Times,serif" font-size="14.00">samples = 45</text>
<text text-anchor="middle" x="494" y="-319.8" font-family="Times,serif" font-size="14.00">value = [35, 8, 2]</text>
<text text-anchor="middle" x="494" y="-304.8" font-family="Times,serif" font-size="14.00">class = 0.0</text>
</g>
<!-- 2&#45;&gt;3 -->
<g id="edge3" class="edge"><title>2&#45;&gt;3</title>
<path fill="none" stroke="black" d="M620.962,-400.884C602.728,-390.991 582.599,-380.07 563.847,-369.895"/>
<polygon fill="black" stroke="black" points="565.512,-366.817 555.053,-365.125 562.174,-372.97 565.512,-366.817"/>
</g>
<!-- 14 -->
<g id="node15" class="node"><title>14</title>
<polygon fill="#39e581" fill-opacity="0.498039" stroke="black" points="767,-365 597,-365 597,-297 767,-297 767,-365"/>
<text text-anchor="middle" x="682" y="-349.8" font-family="Times,serif" font-size="14.00">emotional_WN &lt;= 36.8725</text>
<text text-anchor="middle" x="682" y="-334.8" font-family="Times,serif" font-size="14.00">samples = 6</text>
<text text-anchor="middle" x="682" y="-319.8" font-family="Times,serif" font-size="14.00">value = [0, 4, 2]</text>
<text text-anchor="middle" x="682" y="-304.8" font-family="Times,serif" font-size="14.00">class = 0.5</text>
</g>
<!-- 2&#45;&gt;14 -->
<g id="edge14" class="edge"><title>2&#45;&gt;14</title>
<path fill="none" stroke="black" d="M682,-400.884C682,-392.778 682,-383.982 682,-375.472"/>
<polygon fill="black" stroke="black" points="685.5,-375.299 682,-365.299 678.5,-375.299 685.5,-375.299"/>
</g>
<!-- 4 -->
<g id="node5" class="node"><title>4</title>
<polygon fill="none" stroke="black" points="360,-261 190,-261 190,-193 360,-193 360,-261"/>
<text text-anchor="middle" x="275" y="-245.8" font-family="Times,serif" font-size="14.00">emotional_WN &lt;= 20.3598</text>
<text text-anchor="middle" x="275" y="-230.8" font-family="Times,serif" font-size="14.00">samples = 14</text>
<text text-anchor="middle" x="275" y="-215.8" font-family="Times,serif" font-size="14.00">value = [6, 6, 2]</text>
<text text-anchor="middle" x="275" y="-200.8" font-family="Times,serif" font-size="14.00">class = 0.0</text>
</g>
<!-- 3&#45;&gt;4 -->
<g id="edge4" class="edge"><title>3&#45;&gt;4</title>
<path fill="none" stroke="black" d="M422.897,-296.884C401.368,-286.856 377.572,-275.773 355.475,-265.482"/>
<polygon fill="black" stroke="black" points="356.664,-262.174 346.121,-261.125 353.708,-268.52 356.664,-262.174"/>
</g>
<!-- 9 -->
<g id="node10" class="node"><title>9</title>
<polygon fill="#e58139" fill-opacity="0.929412" stroke="black" points="609.5,-261 378.5,-261 378.5,-193 609.5,-193 609.5,-261"/>
<text text-anchor="middle" x="494" y="-245.8" font-family="Times,serif" font-size="14.00">Anticipation_NRC_narrated &lt;= 6.8204</text>
<text text-anchor="middle" x="494" y="-230.8" font-family="Times,serif" font-size="14.00">samples = 31</text>
<text text-anchor="middle" x="494" y="-215.8" font-family="Times,serif" font-size="14.00">value = [29, 2, 0]</text>
<text text-anchor="middle" x="494" y="-200.8" font-family="Times,serif" font-size="14.00">class = 0.0</text>
</g>
<!-- 3&#45;&gt;9 -->
<g id="edge9" class="edge"><title>3&#45;&gt;9</title>
<path fill="none" stroke="black" d="M494,-296.884C494,-288.778 494,-279.982 494,-271.472"/>
<polygon fill="black" stroke="black" points="497.5,-271.299 494,-261.299 490.5,-271.299 497.5,-271.299"/>
</g>
<!-- 5 -->
<g id="node6" class="node"><title>5</title>
<polygon fill="#e58139" fill-opacity="0.572549" stroke="black" points="227,-157 3,-157 3,-89 227,-89 227,-157"/>
<text text-anchor="middle" x="115" y="-141.8" font-family="Times,serif" font-size="14.00">Anticipation_NRC_speech &lt;= 4.2841</text>
<text text-anchor="middle" x="115" y="-126.8" font-family="Times,serif" font-size="14.00">samples = 9</text>
<text text-anchor="middle" x="115" y="-111.8" font-family="Times,serif" font-size="14.00">value = [6, 1, 2]</text>
<text text-anchor="middle" x="115" y="-96.8" font-family="Times,serif" font-size="14.00">class = 0.0</text>
</g>
<!-- 4&#45;&gt;5 -->
<g id="edge5" class="edge"><title>4&#45;&gt;5</title>
<path fill="none" stroke="black" d="M223.053,-192.884C207.885,-183.214 191.178,-172.563 175.529,-162.587"/>
<polygon fill="black" stroke="black" points="177.274,-159.549 166.96,-157.125 173.511,-165.452 177.274,-159.549"/>
</g>
<!-- 8 -->
<g id="node9" class="node"><title>8</title>
<polygon fill="#39e581" stroke="black" points="351,-149.5 245,-149.5 245,-96.5 351,-96.5 351,-149.5"/>
<text text-anchor="middle" x="298" y="-134.3" font-family="Times,serif" font-size="14.00">samples = 5</text>
<text text-anchor="middle" x="298" y="-119.3" font-family="Times,serif" font-size="14.00">value = [0, 5, 0]</text>
<text text-anchor="middle" x="298" y="-104.3" font-family="Times,serif" font-size="14.00">class = 0.5</text>
</g>
<!-- 4&#45;&gt;8 -->
<g id="edge8" class="edge"><title>4&#45;&gt;8</title>
<path fill="none" stroke="black" d="M282.467,-192.884C284.873,-182.216 287.548,-170.352 289.991,-159.519"/>
<polygon fill="black" stroke="black" points="293.46,-160.045 292.246,-149.52 286.631,-158.505 293.46,-160.045"/>
</g>
<!-- 6 -->
<g id="node7" class="node"><title>6</title>
<polygon fill="#e58139" fill-opacity="0.831373" stroke="black" points="106,-53 7.10543e-15,-53 7.10543e-15,-0 106,-0 106,-53"/>
<text text-anchor="middle" x="53" y="-37.8" font-family="Times,serif" font-size="14.00">samples = 7</text>
<text text-anchor="middle" x="53" y="-22.8" font-family="Times,serif" font-size="14.00">value = [6, 1, 0]</text>
<text text-anchor="middle" x="53" y="-7.8" font-family="Times,serif" font-size="14.00">class = 0.0</text>
</g>
<!-- 5&#45;&gt;6 -->
<g id="edge6" class="edge"><title>5&#45;&gt;6</title>
<path fill="none" stroke="black" d="M93.3154,-88.9485C87.5536,-80.1664 81.3185,-70.6629 75.5136,-61.815"/>
<polygon fill="black" stroke="black" points="78.2975,-59.6779 69.8855,-53.2367 72.4447,-63.5178 78.2975,-59.6779"/>
</g>
<!-- 7 -->
<g id="node8" class="node"><title>7</title>
<polygon fill="#8139e5" stroke="black" points="230,-53 124,-53 124,-0 230,-0 230,-53"/>
<text text-anchor="middle" x="177" y="-37.8" font-family="Times,serif" font-size="14.00">samples = 2</text>
<text text-anchor="middle" x="177" y="-22.8" font-family="Times,serif" font-size="14.00">value = [0, 0, 2]</text>
<text text-anchor="middle" x="177" y="-7.8" font-family="Times,serif" font-size="14.00">class = 1.0</text>
</g>
<!-- 5&#45;&gt;7 -->
<g id="edge7" class="edge"><title>5&#45;&gt;7</title>
<path fill="none" stroke="black" d="M136.685,-88.9485C142.446,-80.1664 148.681,-70.6629 154.486,-61.815"/>
<polygon fill="black" stroke="black" points="157.555,-63.5178 160.115,-53.2367 151.703,-59.6779 157.555,-63.5178"/>
</g>
<!-- 10 -->
<g id="node11" class="node"><title>10</title>
<polygon fill="#e58139" stroke="black" points="505.5,-149.5 392.5,-149.5 392.5,-96.5 505.5,-96.5 505.5,-149.5"/>
<text text-anchor="middle" x="449" y="-134.3" font-family="Times,serif" font-size="14.00">samples = 28</text>
<text text-anchor="middle" x="449" y="-119.3" font-family="Times,serif" font-size="14.00">value = [28, 0, 0]</text>
<text text-anchor="middle" x="449" y="-104.3" font-family="Times,serif" font-size="14.00">class = 0.0</text>
</g>
<!-- 9&#45;&gt;10 -->
<g id="edge10" class="edge"><title>9&#45;&gt;10</title>
<path fill="none" stroke="black" d="M479.39,-192.884C474.586,-181.996 469.234,-169.863 464.375,-158.85"/>
<polygon fill="black" stroke="black" points="467.497,-157.256 460.259,-149.52 461.093,-160.082 467.497,-157.256"/>
</g>
<!-- 11 -->
<g id="node12" class="node"><title>11</title>
<polygon fill="#39e581" fill-opacity="0.498039" stroke="black" points="670.5,-157 523.5,-157 523.5,-89 670.5,-89 670.5,-157"/>
<text text-anchor="middle" x="597" y="-141.8" font-family="Times,serif" font-size="14.00">negative_WN &lt;= 2.489</text>
<text text-anchor="middle" x="597" y="-126.8" font-family="Times,serif" font-size="14.00">samples = 3</text>
<text text-anchor="middle" x="597" y="-111.8" font-family="Times,serif" font-size="14.00">value = [1, 2, 0]</text>
<text text-anchor="middle" x="597" y="-96.8" font-family="Times,serif" font-size="14.00">class = 0.5</text>
</g>
<!-- 9&#45;&gt;11 -->
<g id="edge11" class="edge"><title>9&#45;&gt;11</title>
<path fill="none" stroke="black" d="M527.441,-192.884C536.616,-183.798 546.666,-173.845 556.204,-164.4"/>
<polygon fill="black" stroke="black" points="558.731,-166.823 563.374,-157.299 553.806,-161.849 558.731,-166.823"/>
</g>
<!-- 12 -->
<g id="node13" class="node"><title>12</title>
<polygon fill="#e58139" stroke="black" points="588,-53 482,-53 482,-0 588,-0 588,-53"/>
<text text-anchor="middle" x="535" y="-37.8" font-family="Times,serif" font-size="14.00">samples = 1</text>
<text text-anchor="middle" x="535" y="-22.8" font-family="Times,serif" font-size="14.00">value = [1, 0, 0]</text>
<text text-anchor="middle" x="535" y="-7.8" font-family="Times,serif" font-size="14.00">class = 0.0</text>
</g>
<!-- 11&#45;&gt;12 -->
<g id="edge12" class="edge"><title>11&#45;&gt;12</title>
<path fill="none" stroke="black" d="M575.315,-88.9485C569.554,-80.1664 563.319,-70.6629 557.514,-61.815"/>
<polygon fill="black" stroke="black" points="560.297,-59.6779 551.885,-53.2367 554.445,-63.5178 560.297,-59.6779"/>
</g>
<!-- 13 -->
<g id="node14" class="node"><title>13</title>
<polygon fill="#39e581" stroke="black" points="712,-53 606,-53 606,-0 712,-0 712,-53"/>
<text text-anchor="middle" x="659" y="-37.8" font-family="Times,serif" font-size="14.00">samples = 2</text>
<text text-anchor="middle" x="659" y="-22.8" font-family="Times,serif" font-size="14.00">value = [0, 2, 0]</text>
<text text-anchor="middle" x="659" y="-7.8" font-family="Times,serif" font-size="14.00">class = 0.5</text>
</g>
<!-- 11&#45;&gt;13 -->
<g id="edge13" class="edge"><title>11&#45;&gt;13</title>
<path fill="none" stroke="black" d="M618.685,-88.9485C624.446,-80.1664 630.681,-70.6629 636.486,-61.815"/>
<polygon fill="black" stroke="black" points="639.555,-63.5178 642.115,-53.2367 633.703,-59.6779 639.555,-63.5178"/>
</g>
<!-- 15 -->
<g id="node16" class="node"><title>15</title>
<polygon fill="#39e581" stroke="black" points="733,-253.5 627,-253.5 627,-200.5 733,-200.5 733,-253.5"/>
<text text-anchor="middle" x="680" y="-238.3" font-family="Times,serif" font-size="14.00">samples = 4</text>
<text text-anchor="middle" x="680" y="-223.3" font-family="Times,serif" font-size="14.00">value = [0, 4, 0]</text>
<text text-anchor="middle" x="680" y="-208.3" font-family="Times,serif" font-size="14.00">class = 0.5</text>
</g>
<!-- 14&#45;&gt;15 -->
<g id="edge15" class="edge"><title>14&#45;&gt;15</title>
<path fill="none" stroke="black" d="M681.351,-296.884C681.141,-286.216 680.909,-274.352 680.696,-263.519"/>
<polygon fill="black" stroke="black" points="684.196,-263.449 680.5,-253.52 677.197,-263.587 684.196,-263.449"/>
</g>
<!-- 16 -->
<g id="node17" class="node"><title>16</title>
<polygon fill="#8139e5" stroke="black" points="857,-253.5 751,-253.5 751,-200.5 857,-200.5 857,-253.5"/>
<text text-anchor="middle" x="804" y="-238.3" font-family="Times,serif" font-size="14.00">samples = 2</text>
<text text-anchor="middle" x="804" y="-223.3" font-family="Times,serif" font-size="14.00">value = [0, 0, 2]</text>
<text text-anchor="middle" x="804" y="-208.3" font-family="Times,serif" font-size="14.00">class = 1.0</text>
</g>
<!-- 14&#45;&gt;16 -->
<g id="edge16" class="edge"><title>14&#45;&gt;16</title>
<path fill="none" stroke="black" d="M721.61,-296.884C735.685,-285.116 751.5,-271.894 765.482,-260.203"/>
<polygon fill="black" stroke="black" points="768.049,-262.619 773.476,-253.52 763.559,-257.249 768.049,-262.619"/>
</g>
<!-- 18 -->
<g id="node19" class="node"><title>18</title>
<polygon fill="#39e581" stroke="black" points="895,-357.5 789,-357.5 789,-304.5 895,-304.5 895,-357.5"/>
<text text-anchor="middle" x="842" y="-342.3" font-family="Times,serif" font-size="14.00">samples = 1</text>
<text text-anchor="middle" x="842" y="-327.3" font-family="Times,serif" font-size="14.00">value = [0, 1, 0]</text>
<text text-anchor="middle" x="842" y="-312.3" font-family="Times,serif" font-size="14.00">class = 0.5</text>
</g>
<!-- 17&#45;&gt;18 -->
<g id="edge18" class="edge"><title>17&#45;&gt;18</title>
<path fill="none" stroke="black" d="M899.403,-400.884C889.963,-389.556 879.4,-376.88 869.934,-365.521"/>
<polygon fill="black" stroke="black" points="872.357,-362.962 863.267,-357.52 866.98,-367.443 872.357,-362.962"/>
</g>
<!-- 19 -->
<g id="node20" class="node"><title>19</title>
<polygon fill="#8139e5" stroke="black" points="1019,-357.5 913,-357.5 913,-304.5 1019,-304.5 1019,-357.5"/>
<text text-anchor="middle" x="966" y="-342.3" font-family="Times,serif" font-size="14.00">samples = 6</text>
<text text-anchor="middle" x="966" y="-327.3" font-family="Times,serif" font-size="14.00">value = [0, 0, 6]</text>
<text text-anchor="middle" x="966" y="-312.3" font-family="Times,serif" font-size="14.00">class = 1.0</text>
</g>
<!-- 17&#45;&gt;19 -->
<g id="edge19" class="edge"><title>17&#45;&gt;19</title>
<path fill="none" stroke="black" d="M939.662,-400.884C943.783,-390.106 948.371,-378.108 952.547,-367.184"/>
<polygon fill="black" stroke="black" points="955.94,-368.11 956.242,-357.52 949.402,-365.61 955.94,-368.11"/>
</g>
<!-- 21 -->
<g id="node22" class="node"><title>21</title>
<polygon fill="#39e581" fill-opacity="0.694118" stroke="black" points="1227,-469 1073,-469 1073,-401 1227,-401 1227,-469"/>
<text text-anchor="middle" x="1150" y="-453.8" font-family="Times,serif" font-size="14.00">negative_WN &lt;= 4.6893</text>
<text text-anchor="middle" x="1150" y="-438.8" font-family="Times,serif" font-size="14.00">samples = 42</text>
<text text-anchor="middle" x="1150" y="-423.8" font-family="Times,serif" font-size="14.00">value = [6, 31, 5]</text>
<text text-anchor="middle" x="1150" y="-408.8" font-family="Times,serif" font-size="14.00">class = 0.5</text>
</g>
<!-- 20&#45;&gt;21 -->
<g id="edge21" class="edge"><title>20&#45;&gt;21</title>
<path fill="none" stroke="black" d="M1150,-504.884C1150,-496.778 1150,-487.982 1150,-479.472"/>
<polygon fill="black" stroke="black" points="1153.5,-479.299 1150,-469.299 1146.5,-479.299 1153.5,-479.299"/>
</g>
<!-- 34 -->
<g id="node35" class="node"><title>34</title>
<polygon fill="#8139e5" fill-opacity="0.909804" stroke="black" points="1567.5,-469 1364.5,-469 1364.5,-401 1567.5,-401 1567.5,-469"/>
<text text-anchor="middle" x="1466" y="-453.8" font-family="Times,serif" font-size="14.00">narrated_neutral_WN &lt;= 20.8404</text>
<text text-anchor="middle" x="1466" y="-438.8" font-family="Times,serif" font-size="14.00">samples = 12</text>
<text text-anchor="middle" x="1466" y="-423.8" font-family="Times,serif" font-size="14.00">value = [0, 1, 11]</text>
<text text-anchor="middle" x="1466" y="-408.8" font-family="Times,serif" font-size="14.00">class = 1.0</text>
</g>
<!-- 20&#45;&gt;34 -->
<g id="edge34" class="edge"><title>20&#45;&gt;34</title>
<path fill="none" stroke="black" d="M1252.6,-504.884C1285.24,-494.348 1321.49,-482.646 1354.71,-471.921"/>
<polygon fill="black" stroke="black" points="1356.02,-475.179 1364.46,-468.776 1353.87,-468.517 1356.02,-475.179"/>
</g>
<!-- 22 -->
<g id="node23" class="node"><title>22</title>
<polygon fill="#39e581" fill-opacity="0.333333" stroke="black" points="1179.5,-365 1042.5,-365 1042.5,-297 1179.5,-297 1179.5,-365"/>
<text text-anchor="middle" x="1111" y="-349.8" font-family="Times,serif" font-size="14.00">Fear_NRC &lt;= 5.3231</text>
<text text-anchor="middle" x="1111" y="-334.8" font-family="Times,serif" font-size="14.00">samples = 21</text>
<text text-anchor="middle" x="1111" y="-319.8" font-family="Times,serif" font-size="14.00">value = [6, 11, 4]</text>
<text text-anchor="middle" x="1111" y="-304.8" font-family="Times,serif" font-size="14.00">class = 0.5</text>
</g>
<!-- 21&#45;&gt;22 -->
<g id="edge22" class="edge"><title>21&#45;&gt;22</title>
<path fill="none" stroke="black" d="M1137.34,-400.884C1134.17,-392.6 1130.73,-383.595 1127.41,-374.911"/>
<polygon fill="black" stroke="black" points="1130.57,-373.39 1123.73,-365.299 1124.03,-375.89 1130.57,-373.39"/>
</g>
<!-- 31 -->
<g id="node32" class="node"><title>31</title>
<polygon fill="#39e581" fill-opacity="0.949020" stroke="black" points="1394.5,-365 1197.5,-365 1197.5,-297 1394.5,-297 1394.5,-365"/>
<text text-anchor="middle" x="1296" y="-349.8" font-family="Times,serif" font-size="14.00">Anger_NRC_narrated &lt;= 4.8957</text>
<text text-anchor="middle" x="1296" y="-334.8" font-family="Times,serif" font-size="14.00">samples = 21</text>
<text text-anchor="middle" x="1296" y="-319.8" font-family="Times,serif" font-size="14.00">value = [0, 20, 1]</text>
<text text-anchor="middle" x="1296" y="-304.8" font-family="Times,serif" font-size="14.00">class = 0.5</text>
</g>
<!-- 21&#45;&gt;31 -->
<g id="edge31" class="edge"><title>21&#45;&gt;31</title>
<path fill="none" stroke="black" d="M1197.4,-400.884C1210.92,-391.442 1225.77,-381.064 1239.76,-371.292"/>
<polygon fill="black" stroke="black" points="1242.14,-373.896 1248.34,-365.299 1238.13,-368.157 1242.14,-373.896"/>
</g>
<!-- 23 -->
<g id="node24" class="node"><title>23</title>
<polygon fill="#39e581" fill-opacity="0.666667" stroke="black" points="1050.5,-261 875.5,-261 875.5,-193 1050.5,-193 1050.5,-261"/>
<text text-anchor="middle" x="963" y="-245.8" font-family="Times,serif" font-size="14.00">Joy_NRC_speech &lt;= 1.0295</text>
<text text-anchor="middle" x="963" y="-230.8" font-family="Times,serif" font-size="14.00">samples = 15</text>
<text text-anchor="middle" x="963" y="-215.8" font-family="Times,serif" font-size="14.00">value = [1, 11, 3]</text>
<text text-anchor="middle" x="963" y="-200.8" font-family="Times,serif" font-size="14.00">class = 0.5</text>
</g>
<!-- 22&#45;&gt;23 -->
<g id="edge23" class="edge"><title>22&#45;&gt;23</title>
<path fill="none" stroke="black" d="M1062.95,-296.884C1049.05,-287.304 1033.75,-276.761 1019.39,-266.864"/>
<polygon fill="black" stroke="black" points="1021.28,-263.918 1011.06,-261.125 1017.31,-269.681 1021.28,-263.918"/>
</g>
<!-- 28 -->
<g id="node29" class="node"><title>28</title>
<polygon fill="#e58139" fill-opacity="0.800000" stroke="black" points="1221,-261 1069,-261 1069,-193 1221,-193 1221,-261"/>
<text text-anchor="middle" x="1145" y="-245.8" font-family="Times,serif" font-size="14.00">neutral_WN &lt;= 74.1788</text>
<text text-anchor="middle" x="1145" y="-230.8" font-family="Times,serif" font-size="14.00">samples = 6</text>
<text text-anchor="middle" x="1145" y="-215.8" font-family="Times,serif" font-size="14.00">value = [5, 0, 1]</text>
<text text-anchor="middle" x="1145" y="-200.8" font-family="Times,serif" font-size="14.00">class = 0.0</text>
</g>
<!-- 22&#45;&gt;28 -->
<g id="edge28" class="edge"><title>22&#45;&gt;28</title>
<path fill="none" stroke="black" d="M1122.04,-296.884C1124.8,-288.6 1127.8,-279.595 1130.7,-270.911"/>
<polygon fill="black" stroke="black" points="1134.06,-271.893 1133.9,-261.299 1127.42,-269.679 1134.06,-271.893"/>
</g>
<!-- 24 -->
<g id="node25" class="node"><title>24</title>
<polygon fill="#39e581" stroke="black" points="864.5,-149.5 751.5,-149.5 751.5,-96.5 864.5,-96.5 864.5,-149.5"/>
<text text-anchor="middle" x="808" y="-134.3" font-family="Times,serif" font-size="14.00">samples = 10</text>
<text text-anchor="middle" x="808" y="-119.3" font-family="Times,serif" font-size="14.00">value = [0, 10, 0]</text>
<text text-anchor="middle" x="808" y="-104.3" font-family="Times,serif" font-size="14.00">class = 0.5</text>
</g>
<!-- 23&#45;&gt;24 -->
<g id="edge24" class="edge"><title>23&#45;&gt;24</title>
<path fill="none" stroke="black" d="M912.676,-192.884C894.292,-180.786 873.573,-167.151 855.448,-155.224"/>
<polygon fill="black" stroke="black" points="857.058,-152.093 846.78,-149.52 853.21,-157.941 857.058,-152.093"/>
</g>
<!-- 25 -->
<g id="node26" class="node"><title>25</title>
<polygon fill="#8139e5" fill-opacity="0.498039" stroke="black" points="1063,-157 883,-157 883,-89 1063,-89 1063,-157"/>
<text text-anchor="middle" x="973" y="-141.8" font-family="Times,serif" font-size="14.00">Fear_NRC_speech &lt;= 1.3506</text>
<text text-anchor="middle" x="973" y="-126.8" font-family="Times,serif" font-size="14.00">samples = 5</text>
<text text-anchor="middle" x="973" y="-111.8" font-family="Times,serif" font-size="14.00">value = [1, 1, 3]</text>
<text text-anchor="middle" x="973" y="-96.8" font-family="Times,serif" font-size="14.00">class = 1.0</text>
</g>
<!-- 23&#45;&gt;25 -->
<g id="edge25" class="edge"><title>23&#45;&gt;25</title>
<path fill="none" stroke="black" d="M966.247,-192.884C967.041,-184.778 967.904,-175.982 968.738,-167.472"/>
<polygon fill="black" stroke="black" points="972.243,-167.593 969.735,-157.299 965.276,-166.91 972.243,-167.593"/>
</g>
<!-- 26 -->
<g id="node27" class="node"><title>26</title>
<polygon fill="#8139e5" stroke="black" points="964,-53 858,-53 858,-0 964,-0 964,-53"/>
<text text-anchor="middle" x="911" y="-37.8" font-family="Times,serif" font-size="14.00">samples = 3</text>
<text text-anchor="middle" x="911" y="-22.8" font-family="Times,serif" font-size="14.00">value = [0, 0, 3]</text>
<text text-anchor="middle" x="911" y="-7.8" font-family="Times,serif" font-size="14.00">class = 1.0</text>
</g>
<!-- 25&#45;&gt;26 -->
<g id="edge26" class="edge"><title>25&#45;&gt;26</title>
<path fill="none" stroke="black" d="M951.315,-88.9485C945.554,-80.1664 939.319,-70.6629 933.514,-61.815"/>
<polygon fill="black" stroke="black" points="936.297,-59.6779 927.885,-53.2367 930.445,-63.5178 936.297,-59.6779"/>
</g>
<!-- 27 -->
<g id="node28" class="node"><title>27</title>
<polygon fill="none" stroke="black" points="1088,-53 982,-53 982,-0 1088,-0 1088,-53"/>
<text text-anchor="middle" x="1035" y="-37.8" font-family="Times,serif" font-size="14.00">samples = 2</text>
<text text-anchor="middle" x="1035" y="-22.8" font-family="Times,serif" font-size="14.00">value = [1, 1, 0]</text>
<text text-anchor="middle" x="1035" y="-7.8" font-family="Times,serif" font-size="14.00">class = 0.0</text>
</g>
<!-- 25&#45;&gt;27 -->
<g id="edge27" class="edge"><title>25&#45;&gt;27</title>
<path fill="none" stroke="black" d="M994.685,-88.9485C1000.45,-80.1664 1006.68,-70.6629 1012.49,-61.815"/>
<polygon fill="black" stroke="black" points="1015.56,-63.5178 1018.11,-53.2367 1009.7,-59.6779 1015.56,-63.5178"/>
</g>
<!-- 29 -->
<g id="node30" class="node"><title>29</title>
<polygon fill="#e58139" stroke="black" points="1192,-149.5 1086,-149.5 1086,-96.5 1192,-96.5 1192,-149.5"/>
<text text-anchor="middle" x="1139" y="-134.3" font-family="Times,serif" font-size="14.00">samples = 5</text>
<text text-anchor="middle" x="1139" y="-119.3" font-family="Times,serif" font-size="14.00">value = [5, 0, 0]</text>
<text text-anchor="middle" x="1139" y="-104.3" font-family="Times,serif" font-size="14.00">class = 0.0</text>
</g>
<!-- 28&#45;&gt;29 -->
<g id="edge29" class="edge"><title>28&#45;&gt;29</title>
<path fill="none" stroke="black" d="M1143.05,-192.884C1142.42,-182.216 1141.73,-170.352 1141.09,-159.519"/>
<polygon fill="black" stroke="black" points="1144.58,-159.297 1140.5,-149.52 1137.59,-159.708 1144.58,-159.297"/>
</g>
<!-- 30 -->
<g id="node31" class="node"><title>30</title>
<polygon fill="#8139e5" stroke="black" points="1316,-149.5 1210,-149.5 1210,-96.5 1316,-96.5 1316,-149.5"/>
<text text-anchor="middle" x="1263" y="-134.3" font-family="Times,serif" font-size="14.00">samples = 1</text>
<text text-anchor="middle" x="1263" y="-119.3" font-family="Times,serif" font-size="14.00">value = [0, 0, 1]</text>
<text text-anchor="middle" x="1263" y="-104.3" font-family="Times,serif" font-size="14.00">class = 1.0</text>
</g>
<!-- 28&#45;&gt;30 -->
<g id="edge30" class="edge"><title>28&#45;&gt;30</title>
<path fill="none" stroke="black" d="M1183.31,-192.884C1196.92,-181.116 1212.22,-167.894 1225.75,-156.203"/>
<polygon fill="black" stroke="black" points="1228.2,-158.707 1233.48,-149.52 1223.62,-153.412 1228.2,-158.707"/>
</g>
<!-- 32 -->
<g id="node33" class="node"><title>32</title>
<polygon fill="#39e581" stroke="black" points="1352.5,-253.5 1239.5,-253.5 1239.5,-200.5 1352.5,-200.5 1352.5,-253.5"/>
<text text-anchor="middle" x="1296" y="-238.3" font-family="Times,serif" font-size="14.00">samples = 20</text>
<text text-anchor="middle" x="1296" y="-223.3" font-family="Times,serif" font-size="14.00">value = [0, 20, 0]</text>
<text text-anchor="middle" x="1296" y="-208.3" font-family="Times,serif" font-size="14.00">class = 0.5</text>
</g>
<!-- 31&#45;&gt;32 -->
<g id="edge32" class="edge"><title>31&#45;&gt;32</title>
<path fill="none" stroke="black" d="M1296,-296.884C1296,-286.326 1296,-274.597 1296,-263.854"/>
<polygon fill="black" stroke="black" points="1299.5,-263.52 1296,-253.52 1292.5,-263.52 1299.5,-263.52"/>
</g>
<!-- 33 -->
<g id="node34" class="node"><title>33</title>
<polygon fill="#8139e5" stroke="black" points="1477,-253.5 1371,-253.5 1371,-200.5 1477,-200.5 1477,-253.5"/>
<text text-anchor="middle" x="1424" y="-238.3" font-family="Times,serif" font-size="14.00">samples = 1</text>
<text text-anchor="middle" x="1424" y="-223.3" font-family="Times,serif" font-size="14.00">value = [0, 0, 1]</text>
<text text-anchor="middle" x="1424" y="-208.3" font-family="Times,serif" font-size="14.00">class = 1.0</text>
</g>
<!-- 31&#45;&gt;33 -->
<g id="edge33" class="edge"><title>31&#45;&gt;33</title>
<path fill="none" stroke="black" d="M1337.56,-296.884C1352.46,-285.006 1369.23,-271.646 1384,-259.876"/>
<polygon fill="black" stroke="black" points="1386.34,-262.489 1391.97,-253.52 1381.97,-257.015 1386.34,-262.489"/>
</g>
<!-- 35 -->
<g id="node36" class="node"><title>35</title>
<polygon fill="#39e581" stroke="black" points="1519,-357.5 1413,-357.5 1413,-304.5 1519,-304.5 1519,-357.5"/>
<text text-anchor="middle" x="1466" y="-342.3" font-family="Times,serif" font-size="14.00">samples = 1</text>
<text text-anchor="middle" x="1466" y="-327.3" font-family="Times,serif" font-size="14.00">value = [0, 1, 0]</text>
<text text-anchor="middle" x="1466" y="-312.3" font-family="Times,serif" font-size="14.00">class = 0.5</text>
</g>
<!-- 34&#45;&gt;35 -->
<g id="edge35" class="edge"><title>34&#45;&gt;35</title>
<path fill="none" stroke="black" d="M1466,-400.884C1466,-390.326 1466,-378.597 1466,-367.854"/>
<polygon fill="black" stroke="black" points="1469.5,-367.52 1466,-357.52 1462.5,-367.52 1469.5,-367.52"/>
</g>
<!-- 36 -->
<g id="node37" class="node"><title>36</title>
<polygon fill="#8139e5" stroke="black" points="1650.5,-357.5 1537.5,-357.5 1537.5,-304.5 1650.5,-304.5 1650.5,-357.5"/>
<text text-anchor="middle" x="1594" y="-342.3" font-family="Times,serif" font-size="14.00">samples = 11</text>
<text text-anchor="middle" x="1594" y="-327.3" font-family="Times,serif" font-size="14.00">value = [0, 0, 11]</text>
<text text-anchor="middle" x="1594" y="-312.3" font-family="Times,serif" font-size="14.00">class = 1.0</text>
</g>
<!-- 34&#45;&gt;36 -->
<g id="edge36" class="edge"><title>34&#45;&gt;36</title>
<path fill="none" stroke="black" d="M1507.56,-400.884C1522.46,-389.006 1539.23,-375.646 1554,-363.876"/>
<polygon fill="black" stroke="black" points="1556.34,-366.489 1561.97,-357.52 1551.97,-361.015 1556.34,-366.489"/>
</g>
</g>
</svg>
