<?xml version="1.0" encoding="UTF-8" standalone="no"?>
<!DOCTYPE svg PUBLIC "-//W3C//DTD SVG 1.1//EN"
 "http://www.w3.org/Graphics/SVG/1.1/DTD/svg11.dtd">
<!-- Generated by graphviz version 2.38.0 (20140413.2041)
 -->
<!-- Title: Tree Pages: 1 -->
<svg width="1724pt" height="581pt"
 viewBox="0.00 0.00 1724.00 581.00" xmlns="http://www.w3.org/2000/svg" xmlns:xlink="http://www.w3.org/1999/xlink">
<g id="graph0" class="graph" transform="scale(1 1) rotate(0) translate(4 577)">
<title>Tree</title>
<polygon fill="white" stroke="none" points="-4,4 -4,-577 1720,-577 1720,4 -4,4"/>
<!-- 0 -->
<g id="node1" class="node"><title>0</title>
<polygon fill="#39e581" fill-opacity="0.054902" stroke="black" points="1388.5,-573 1175.5,-573 1175.5,-505 1388.5,-505 1388.5,-573"/>
<text text-anchor="middle" x="1282" y="-557.8" font-family="Times,serif" font-size="14.00">speech_emotional_WN &lt;= 37.0743</text>
<text text-anchor="middle" x="1282" y="-542.8" font-family="Times,serif" font-size="14.00">samples = 112</text>
<text text-anchor="middle" x="1282" y="-527.8" font-family="Times,serif" font-size="14.00">value = [41, 45, 26]</text>
<text text-anchor="middle" x="1282" y="-512.8" font-family="Times,serif" font-size="14.00">class = 0.5</text>
</g>
<!-- 1 -->
<g id="node2" class="node"><title>1</title>
<polygon fill="#39e581" fill-opacity="0.070588" stroke="black" points="1159,-469 1005,-469 1005,-401 1159,-401 1159,-469"/>
<text text-anchor="middle" x="1082" y="-453.8" font-family="Times,serif" font-size="14.00">negative_WN &lt;= 5.5874</text>
<text text-anchor="middle" x="1082" y="-438.8" font-family="Times,serif" font-size="14.00">samples = 75</text>
<text text-anchor="middle" x="1082" y="-423.8" font-family="Times,serif" font-size="14.00">value = [33, 36, 6]</text>
<text text-anchor="middle" x="1082" y="-408.8" font-family="Times,serif" font-size="14.00">class = 0.5</text>
</g>
<!-- 0&#45;&gt;1 -->
<g id="edge1" class="edge"><title>0&#45;&gt;1</title>
<path fill="none" stroke="black" d="M1217.07,-504.884C1197.58,-494.946 1176.06,-483.971 1156.03,-473.757"/>
<polygon fill="black" stroke="black" points="1157.45,-470.55 1146.95,-469.125 1154.27,-476.786 1157.45,-470.55"/>
<text text-anchor="middle" x="1154.67" y="-489.204" font-family="Times,serif" font-size="14.00">True</text>
</g>
<!-- 26 -->
<g id="node27" class="node"><title>26</title>
<polygon fill="#8139e5" fill-opacity="0.392157" stroke="black" points="1580,-469 1384,-469 1384,-401 1580,-401 1580,-469"/>
<text text-anchor="middle" x="1482" y="-453.8" font-family="Times,serif" font-size="14.00">speech_neutral_WN &lt;= 28.1496</text>
<text text-anchor="middle" x="1482" y="-438.8" font-family="Times,serif" font-size="14.00">samples = 37</text>
<text text-anchor="middle" x="1482" y="-423.8" font-family="Times,serif" font-size="14.00">value = [8, 9, 20]</text>
<text text-anchor="middle" x="1482" y="-408.8" font-family="Times,serif" font-size="14.00">class = 1.0</text>
</g>
<!-- 0&#45;&gt;26 -->
<g id="edge26" class="edge"><title>0&#45;&gt;26</title>
<path fill="none" stroke="black" d="M1346.93,-504.884C1366.42,-494.946 1387.94,-483.971 1407.97,-473.757"/>
<polygon fill="black" stroke="black" points="1409.73,-476.786 1417.05,-469.125 1406.55,-470.55 1409.73,-476.786"/>
<text text-anchor="middle" x="1409.33" y="-489.204" font-family="Times,serif" font-size="14.00">False</text>
</g>
<!-- 2 -->
<g id="node3" class="node"><title>2</title>
<polygon fill="#e58139" fill-opacity="0.364706" stroke="black" points="745,-365 587,-365 587,-297 745,-297 745,-365"/>
<text text-anchor="middle" x="666" y="-349.8" font-family="Times,serif" font-size="14.00">positive_WN &lt;= 10.3947</text>
<text text-anchor="middle" x="666" y="-334.8" font-family="Times,serif" font-size="14.00">samples = 51</text>
<text text-anchor="middle" x="666" y="-319.8" font-family="Times,serif" font-size="14.00">value = [30, 18, 3]</text>
<text text-anchor="middle" x="666" y="-304.8" font-family="Times,serif" font-size="14.00">class = 0.0</text>
</g>
<!-- 1&#45;&gt;2 -->
<g id="edge2" class="edge"><title>1&#45;&gt;2</title>
<path fill="none" stroke="black" d="M1004.73,-415.054C934.006,-397.713 829.375,-372.058 755.143,-353.857"/>
<polygon fill="black" stroke="black" points="755.88,-350.434 745.334,-351.452 754.213,-357.233 755.88,-350.434"/>
</g>
<!-- 15 -->
<g id="node16" class="node"><title>15</title>
<polygon fill="#39e581" fill-opacity="0.713725" stroke="black" points="1180.5,-365 983.5,-365 983.5,-297 1180.5,-297 1180.5,-365"/>
<text text-anchor="middle" x="1082" y="-349.8" font-family="Times,serif" font-size="14.00">narrated_neutral_WN &lt;= 4.4136</text>
<text text-anchor="middle" x="1082" y="-334.8" font-family="Times,serif" font-size="14.00">samples = 24</text>
<text text-anchor="middle" x="1082" y="-319.8" font-family="Times,serif" font-size="14.00">value = [3, 18, 3]</text>
<text text-anchor="middle" x="1082" y="-304.8" font-family="Times,serif" font-size="14.00">class = 0.5</text>
</g>
<!-- 1&#45;&gt;15 -->
<g id="edge15" class="edge"><title>1&#45;&gt;15</title>
<path fill="none" stroke="black" d="M1082,-400.884C1082,-392.778 1082,-383.982 1082,-375.472"/>
<polygon fill="black" stroke="black" points="1085.5,-375.299 1082,-365.299 1078.5,-375.299 1085.5,-375.299"/>
</g>
<!-- 3 -->
<g id="node4" class="node"><title>3</title>
<polygon fill="#e58139" fill-opacity="0.611765" stroke="black" points="480.5,-261 291.5,-261 291.5,-193 480.5,-193 480.5,-261"/>
<text text-anchor="middle" x="386" y="-245.8" font-family="Times,serif" font-size="14.00">speech_neutral_WN &lt;= 7.6155</text>
<text text-anchor="middle" x="386" y="-230.8" font-family="Times,serif" font-size="14.00">samples = 41</text>
<text text-anchor="middle" x="386" y="-215.8" font-family="Times,serif" font-size="14.00">value = [29, 10, 2]</text>
<text text-anchor="middle" x="386" y="-200.8" font-family="Times,serif" font-size="14.00">class = 0.0</text>
</g>
<!-- 2&#45;&gt;3 -->
<g id="edge3" class="edge"><title>2&#45;&gt;3</title>
<path fill="none" stroke="black" d="M586.886,-301.18C555.682,-289.813 519.467,-276.62 486.449,-264.592"/>
<polygon fill="black" stroke="black" points="487.366,-261.201 476.772,-261.067 484.97,-267.778 487.366,-261.201"/>
</g>
<!-- 10 -->
<g id="node11" class="node"><title>10</title>
<polygon fill="#39e581" fill-opacity="0.776471" stroke="black" points="776.5,-261 555.5,-261 555.5,-193 776.5,-193 776.5,-261"/>
<text text-anchor="middle" x="666" y="-245.8" font-family="Times,serif" font-size="14.00">narrated_emotional_WN &lt;= 76.3641</text>
<text text-anchor="middle" x="666" y="-230.8" font-family="Times,serif" font-size="14.00">samples = 10</text>
<text text-anchor="middle" x="666" y="-215.8" font-family="Times,serif" font-size="14.00">value = [1, 8, 1]</text>
<text text-anchor="middle" x="666" y="-200.8" font-family="Times,serif" font-size="14.00">class = 0.5</text>
</g>
<!-- 2&#45;&gt;10 -->
<g id="edge10" class="edge"><title>2&#45;&gt;10</title>
<path fill="none" stroke="black" d="M666,-296.884C666,-288.778 666,-279.982 666,-271.472"/>
<polygon fill="black" stroke="black" points="669.5,-271.299 666,-261.299 662.5,-271.299 669.5,-271.299"/>
</g>
<!-- 4 -->
<g id="node5" class="node"><title>4</title>
<polygon fill="#e58139" fill-opacity="0.937255" stroke="black" points="290.5,-157 69.5,-157 69.5,-89 290.5,-89 290.5,-157"/>
<text text-anchor="middle" x="180" y="-141.8" font-family="Times,serif" font-size="14.00">narrated_emotional_WN &lt;= 61.0555</text>
<text text-anchor="middle" x="180" y="-126.8" font-family="Times,serif" font-size="14.00">samples = 17</text>
<text text-anchor="middle" x="180" y="-111.8" font-family="Times,serif" font-size="14.00">value = [16, 0, 1]</text>
<text text-anchor="middle" x="180" y="-96.8" font-family="Times,serif" font-size="14.00">class = 0.0</text>
</g>
<!-- 3&#45;&gt;4 -->
<g id="edge4" class="edge"><title>3&#45;&gt;4</title>
<path fill="none" stroke="black" d="M319.118,-192.884C298.957,-182.901 276.683,-171.872 255.977,-161.619"/>
<polygon fill="black" stroke="black" points="257.414,-158.426 246.899,-157.125 254.308,-164.699 257.414,-158.426"/>
</g>
<!-- 7 -->
<g id="node8" class="node"><title>7</title>
<polygon fill="#e58139" fill-opacity="0.215686" stroke="black" points="463,-157 309,-157 309,-89 463,-89 463,-157"/>
<text text-anchor="middle" x="386" y="-141.8" font-family="Times,serif" font-size="14.00">negative_WN &lt;= 4.0562</text>
<text text-anchor="middle" x="386" y="-126.8" font-family="Times,serif" font-size="14.00">samples = 24</text>
<text text-anchor="middle" x="386" y="-111.8" font-family="Times,serif" font-size="14.00">value = [13, 10, 1]</text>
<text text-anchor="middle" x="386" y="-96.8" font-family="Times,serif" font-size="14.00">class = 0.0</text>
</g>
<!-- 3&#45;&gt;7 -->
<g id="edge7" class="edge"><title>3&#45;&gt;7</title>
<path fill="none" stroke="black" d="M386,-192.884C386,-184.778 386,-175.982 386,-167.472"/>
<polygon fill="black" stroke="black" points="389.5,-167.299 386,-157.299 382.5,-167.299 389.5,-167.299"/>
</g>
<!-- 5 -->
<g id="node6" class="node"><title>5</title>
<polygon fill="#8139e5" stroke="black" points="106,-53 7.10543e-15,-53 7.10543e-15,-0 106,-0 106,-53"/>
<text text-anchor="middle" x="53" y="-37.8" font-family="Times,serif" font-size="14.00">samples = 1</text>
<text text-anchor="middle" x="53" y="-22.8" font-family="Times,serif" font-size="14.00">value = [0, 0, 1]</text>
<text text-anchor="middle" x="53" y="-7.8" font-family="Times,serif" font-size="14.00">class = 1.0</text>
</g>
<!-- 4&#45;&gt;5 -->
<g id="edge5" class="edge"><title>4&#45;&gt;5</title>
<path fill="none" stroke="black" d="M135.582,-88.9485C122.673,-79.3431 108.604,-68.8747 95.797,-59.345"/>
<polygon fill="black" stroke="black" points="97.7,-56.3984 87.588,-53.2367 93.5213,-62.0143 97.7,-56.3984"/>
</g>
<!-- 6 -->
<g id="node7" class="node"><title>6</title>
<polygon fill="#e58139" stroke="black" points="237.5,-53 124.5,-53 124.5,-0 237.5,-0 237.5,-53"/>
<text text-anchor="middle" x="181" y="-37.8" font-family="Times,serif" font-size="14.00">samples = 16</text>
<text text-anchor="middle" x="181" y="-22.8" font-family="Times,serif" font-size="14.00">value = [16, 0, 0]</text>
<text text-anchor="middle" x="181" y="-7.8" font-family="Times,serif" font-size="14.00">class = 0.0</text>
</g>
<!-- 4&#45;&gt;6 -->
<g id="edge6" class="edge"><title>4&#45;&gt;6</title>
<path fill="none" stroke="black" d="M180.35,-88.9485C180.437,-80.7153 180.531,-71.848 180.619,-63.4814"/>
<polygon fill="black" stroke="black" points="184.122,-63.2732 180.728,-53.2367 177.122,-63.1991 184.122,-63.2732"/>
</g>
<!-- 8 -->
<g id="node9" class="node"><title>8</title>
<polygon fill="#e58139" fill-opacity="0.713725" stroke="black" points="369.5,-53 256.5,-53 256.5,-0 369.5,-0 369.5,-53"/>
<text text-anchor="middle" x="313" y="-37.8" font-family="Times,serif" font-size="14.00">samples = 17</text>
<text text-anchor="middle" x="313" y="-22.8" font-family="Times,serif" font-size="14.00">value = [13, 3, 1]</text>
<text text-anchor="middle" x="313" y="-7.8" font-family="Times,serif" font-size="14.00">class = 0.0</text>
</g>
<!-- 7&#45;&gt;8 -->
<g id="edge8" class="edge"><title>7&#45;&gt;8</title>
<path fill="none" stroke="black" d="M360.468,-88.9485C353.543,-79.9834 346.037,-70.2666 339.081,-61.2629"/>
<polygon fill="black" stroke="black" points="341.764,-59.0108 332.881,-53.2367 336.225,-63.2902 341.764,-59.0108"/>
</g>
<!-- 9 -->
<g id="node10" class="node"><title>9</title>
<polygon fill="#39e581" stroke="black" points="494,-53 388,-53 388,-0 494,-0 494,-53"/>
<text text-anchor="middle" x="441" y="-37.8" font-family="Times,serif" font-size="14.00">samples = 7</text>
<text text-anchor="middle" x="441" y="-22.8" font-family="Times,serif" font-size="14.00">value = [0, 7, 0]</text>
<text text-anchor="middle" x="441" y="-7.8" font-family="Times,serif" font-size="14.00">class = 0.5</text>
</g>
<!-- 7&#45;&gt;9 -->
<g id="edge9" class="edge"><title>7&#45;&gt;9</title>
<path fill="none" stroke="black" d="M405.236,-88.9485C410.294,-80.2579 415.764,-70.8608 420.867,-62.0917"/>
<polygon fill="black" stroke="black" points="424.016,-63.6401 426.021,-53.2367 417.966,-60.1189 424.016,-63.6401"/>
</g>
<!-- 11 -->
<g id="node12" class="node"><title>11</title>
<polygon fill="#39e581" fill-opacity="0.874510" stroke="black" points="651,-157 481,-157 481,-89 651,-89 651,-157"/>
<text text-anchor="middle" x="566" y="-141.8" font-family="Times,serif" font-size="14.00">emotional_WN &lt;= 80.6247</text>
<text text-anchor="middle" x="566" y="-126.8" font-family="Times,serif" font-size="14.00">samples = 9</text>
<text text-anchor="middle" x="566" y="-111.8" font-family="Times,serif" font-size="14.00">value = [1, 8, 0]</text>
<text text-anchor="middle" x="566" y="-96.8" font-family="Times,serif" font-size="14.00">class = 0.5</text>
</g>
<!-- 10&#45;&gt;11 -->
<g id="edge11" class="edge"><title>10&#45;&gt;11</title>
<path fill="none" stroke="black" d="M633.533,-192.884C624.713,-183.887 615.059,-174.041 605.881,-164.678"/>
<polygon fill="black" stroke="black" points="608.146,-161.99 598.646,-157.299 603.148,-166.89 608.146,-161.99"/>
</g>
<!-- 14 -->
<g id="node15" class="node"><title>14</title>
<polygon fill="#8139e5" stroke="black" points="775,-149.5 669,-149.5 669,-96.5 775,-96.5 775,-149.5"/>
<text text-anchor="middle" x="722" y="-134.3" font-family="Times,serif" font-size="14.00">samples = 1</text>
<text text-anchor="middle" x="722" y="-119.3" font-family="Times,serif" font-size="14.00">value = [0, 0, 1]</text>
<text text-anchor="middle" x="722" y="-104.3" font-family="Times,serif" font-size="14.00">class = 1.0</text>
</g>
<!-- 10&#45;&gt;14 -->
<g id="edge14" class="edge"><title>10&#45;&gt;14</title>
<path fill="none" stroke="black" d="M684.182,-192.884C690.22,-181.886 696.955,-169.617 703.05,-158.517"/>
<polygon fill="black" stroke="black" points="706.244,-159.97 707.989,-149.52 700.108,-156.601 706.244,-159.97"/>
</g>
<!-- 12 -->
<g id="node13" class="node"><title>12</title>
<polygon fill="none" stroke="black" points="619,-53 513,-53 513,-0 619,-0 619,-53"/>
<text text-anchor="middle" x="566" y="-37.8" font-family="Times,serif" font-size="14.00">samples = 2</text>
<text text-anchor="middle" x="566" y="-22.8" font-family="Times,serif" font-size="14.00">value = [1, 1, 0]</text>
<text text-anchor="middle" x="566" y="-7.8" font-family="Times,serif" font-size="14.00">class = 0.0</text>
</g>
<!-- 11&#45;&gt;12 -->
<g id="edge12" class="edge"><title>11&#45;&gt;12</title>
<path fill="none" stroke="black" d="M566,-88.9485C566,-80.7153 566,-71.848 566,-63.4814"/>
<polygon fill="black" stroke="black" points="569.5,-63.2367 566,-53.2367 562.5,-63.2367 569.5,-63.2367"/>
</g>
<!-- 13 -->
<g id="node14" class="node"><title>13</title>
<polygon fill="#39e581" stroke="black" points="743,-53 637,-53 637,-0 743,-0 743,-53"/>
<text text-anchor="middle" x="690" y="-37.8" font-family="Times,serif" font-size="14.00">samples = 7</text>
<text text-anchor="middle" x="690" y="-22.8" font-family="Times,serif" font-size="14.00">value = [0, 7, 0]</text>
<text text-anchor="middle" x="690" y="-7.8" font-family="Times,serif" font-size="14.00">class = 0.5</text>
</g>
<!-- 11&#45;&gt;13 -->
<g id="edge13" class="edge"><title>11&#45;&gt;13</title>
<path fill="none" stroke="black" d="M609.369,-88.9485C621.973,-79.3431 635.709,-68.8747 648.214,-59.345"/>
<polygon fill="black" stroke="black" points="650.397,-62.0819 656.229,-53.2367 646.154,-56.5144 650.397,-62.0819"/>
</g>
<!-- 16 -->
<g id="node17" class="node"><title>16</title>
<polygon fill="#e58139" fill-opacity="0.250980" stroke="black" points="1063,-261 941,-261 941,-193 1063,-193 1063,-261"/>
<text text-anchor="middle" x="1002" y="-245.8" font-family="Times,serif" font-size="14.00">speech &lt;= 31.7992</text>
<text text-anchor="middle" x="1002" y="-230.8" font-family="Times,serif" font-size="14.00">samples = 6</text>
<text text-anchor="middle" x="1002" y="-215.8" font-family="Times,serif" font-size="14.00">value = [3, 1, 2]</text>
<text text-anchor="middle" x="1002" y="-200.8" font-family="Times,serif" font-size="14.00">class = 0.0</text>
</g>
<!-- 15&#45;&gt;16 -->
<g id="edge16" class="edge"><title>15&#45;&gt;16</title>
<path fill="none" stroke="black" d="M1056.03,-296.884C1049.11,-288.065 1041.55,-278.43 1034.34,-269.235"/>
<polygon fill="black" stroke="black" points="1037.04,-267.008 1028.12,-261.299 1031.53,-271.328 1037.04,-267.008"/>
</g>
<!-- 21 -->
<g id="node22" class="node"><title>21</title>
<polygon fill="#39e581" fill-opacity="0.941176" stroke="black" points="1241,-261 1083,-261 1083,-193 1241,-193 1241,-261"/>
<text text-anchor="middle" x="1162" y="-245.8" font-family="Times,serif" font-size="14.00">positive_WN &lt;= 13.4559</text>
<text text-anchor="middle" x="1162" y="-230.8" font-family="Times,serif" font-size="14.00">samples = 18</text>
<text text-anchor="middle" x="1162" y="-215.8" font-family="Times,serif" font-size="14.00">value = [0, 17, 1]</text>
<text text-anchor="middle" x="1162" y="-200.8" font-family="Times,serif" font-size="14.00">class = 0.5</text>
</g>
<!-- 15&#45;&gt;21 -->
<g id="edge21" class="edge"><title>15&#45;&gt;21</title>
<path fill="none" stroke="black" d="M1107.97,-296.884C1114.89,-288.065 1122.45,-278.43 1129.66,-269.235"/>
<polygon fill="black" stroke="black" points="1132.47,-271.328 1135.88,-261.299 1126.96,-267.008 1132.47,-271.328"/>
</g>
<!-- 17 -->
<g id="node18" class="node"><title>17</title>
<polygon fill="#e58139" stroke="black" points="899,-149.5 793,-149.5 793,-96.5 899,-96.5 899,-149.5"/>
<text text-anchor="middle" x="846" y="-134.3" font-family="Times,serif" font-size="14.00">samples = 3</text>
<text text-anchor="middle" x="846" y="-119.3" font-family="Times,serif" font-size="14.00">value = [3, 0, 0]</text>
<text text-anchor="middle" x="846" y="-104.3" font-family="Times,serif" font-size="14.00">class = 0.0</text>
</g>
<!-- 16&#45;&gt;17 -->
<g id="edge17" class="edge"><title>16&#45;&gt;17</title>
<path fill="none" stroke="black" d="M951.351,-192.884C932.849,-180.786 911.996,-167.151 893.754,-155.224"/>
<polygon fill="black" stroke="black" points="895.316,-152.063 885.03,-149.52 891.485,-157.922 895.316,-152.063"/>
</g>
<!-- 18 -->
<g id="node19" class="node"><title>18</title>
<polygon fill="#8139e5" fill-opacity="0.498039" stroke="black" points="1087,-157 917,-157 917,-89 1087,-89 1087,-157"/>
<text text-anchor="middle" x="1002" y="-141.8" font-family="Times,serif" font-size="14.00">emotional_WN &lt;= 84.1336</text>
<text text-anchor="middle" x="1002" y="-126.8" font-family="Times,serif" font-size="14.00">samples = 3</text>
<text text-anchor="middle" x="1002" y="-111.8" font-family="Times,serif" font-size="14.00">value = [0, 1, 2]</text>
<text text-anchor="middle" x="1002" y="-96.8" font-family="Times,serif" font-size="14.00">class = 1.0</text>
</g>
<!-- 16&#45;&gt;18 -->
<g id="edge18" class="edge"><title>16&#45;&gt;18</title>
<path fill="none" stroke="black" d="M1002,-192.884C1002,-184.778 1002,-175.982 1002,-167.472"/>
<polygon fill="black" stroke="black" points="1005.5,-167.299 1002,-157.299 998.5,-167.299 1005.5,-167.299"/>
</g>
<!-- 19 -->
<g id="node20" class="node"><title>19</title>
<polygon fill="#39e581" stroke="black" points="976,-53 870,-53 870,-0 976,-0 976,-53"/>
<text text-anchor="middle" x="923" y="-37.8" font-family="Times,serif" font-size="14.00">samples = 1</text>
<text text-anchor="middle" x="923" y="-22.8" font-family="Times,serif" font-size="14.00">value = [0, 1, 0]</text>
<text text-anchor="middle" x="923" y="-7.8" font-family="Times,serif" font-size="14.00">class = 0.5</text>
</g>
<!-- 18&#45;&gt;19 -->
<g id="edge19" class="edge"><title>18&#45;&gt;19</title>
<path fill="none" stroke="black" d="M974.37,-88.9485C966.799,-79.892 958.586,-70.0682 950.995,-60.9875"/>
<polygon fill="black" stroke="black" points="953.614,-58.6641 944.515,-53.2367 948.244,-63.1538 953.614,-58.6641"/>
</g>
<!-- 20 -->
<g id="node21" class="node"><title>20</title>
<polygon fill="#8139e5" stroke="black" points="1100,-53 994,-53 994,-0 1100,-0 1100,-53"/>
<text text-anchor="middle" x="1047" y="-37.8" font-family="Times,serif" font-size="14.00">samples = 2</text>
<text text-anchor="middle" x="1047" y="-22.8" font-family="Times,serif" font-size="14.00">value = [0, 0, 2]</text>
<text text-anchor="middle" x="1047" y="-7.8" font-family="Times,serif" font-size="14.00">class = 1.0</text>
</g>
<!-- 18&#45;&gt;20 -->
<g id="edge20" class="edge"><title>18&#45;&gt;20</title>
<path fill="none" stroke="black" d="M1017.74,-88.9485C1021.83,-80.3494 1026.26,-71.0586 1030.4,-62.3689"/>
<polygon fill="black" stroke="black" points="1033.61,-63.7701 1034.74,-53.2367 1027.29,-60.7605 1033.61,-63.7701"/>
</g>
<!-- 22 -->
<g id="node23" class="node"><title>22</title>
<polygon fill="#39e581" stroke="black" points="1218.5,-149.5 1105.5,-149.5 1105.5,-96.5 1218.5,-96.5 1218.5,-149.5"/>
<text text-anchor="middle" x="1162" y="-134.3" font-family="Times,serif" font-size="14.00">samples = 16</text>
<text text-anchor="middle" x="1162" y="-119.3" font-family="Times,serif" font-size="14.00">value = [0, 16, 0]</text>
<text text-anchor="middle" x="1162" y="-104.3" font-family="Times,serif" font-size="14.00">class = 0.5</text>
</g>
<!-- 21&#45;&gt;22 -->
<g id="edge22" class="edge"><title>21&#45;&gt;22</title>
<path fill="none" stroke="black" d="M1162,-192.884C1162,-182.326 1162,-170.597 1162,-159.854"/>
<polygon fill="black" stroke="black" points="1165.5,-159.52 1162,-149.52 1158.5,-159.52 1165.5,-159.52"/>
</g>
<!-- 23 -->
<g id="node24" class="node"><title>23</title>
<polygon fill="none" stroke="black" points="1407,-157 1237,-157 1237,-89 1407,-89 1407,-157"/>
<text text-anchor="middle" x="1322" y="-141.8" font-family="Times,serif" font-size="14.00">emotional_WN &lt;= 86.0238</text>
<text text-anchor="middle" x="1322" y="-126.8" font-family="Times,serif" font-size="14.00">samples = 2</text>
<text text-anchor="middle" x="1322" y="-111.8" font-family="Times,serif" font-size="14.00">value = [0, 1, 1]</text>
<text text-anchor="middle" x="1322" y="-96.8" font-family="Times,serif" font-size="14.00">class = 0.5</text>
</g>
<!-- 21&#45;&gt;23 -->
<g id="edge23" class="edge"><title>21&#45;&gt;23</title>
<path fill="none" stroke="black" d="M1213.95,-192.884C1229.11,-183.214 1245.82,-172.563 1261.47,-162.587"/>
<polygon fill="black" stroke="black" points="1263.49,-165.452 1270.04,-157.125 1259.73,-159.549 1263.49,-165.452"/>
</g>
<!-- 24 -->
<g id="node25" class="node"><title>24</title>
<polygon fill="#39e581" stroke="black" points="1260,-53 1154,-53 1154,-0 1260,-0 1260,-53"/>
<text text-anchor="middle" x="1207" y="-37.8" font-family="Times,serif" font-size="14.00">samples = 1</text>
<text text-anchor="middle" x="1207" y="-22.8" font-family="Times,serif" font-size="14.00">value = [0, 1, 0]</text>
<text text-anchor="middle" x="1207" y="-7.8" font-family="Times,serif" font-size="14.00">class = 0.5</text>
</g>
<!-- 23&#45;&gt;24 -->
<g id="edge24" class="edge"><title>23&#45;&gt;24</title>
<path fill="none" stroke="black" d="M1281.78,-88.9485C1270.2,-79.4346 1257.59,-69.074 1246.08,-59.6175"/>
<polygon fill="black" stroke="black" points="1248.27,-56.8814 1238.32,-53.2367 1243.82,-62.2897 1248.27,-56.8814"/>
</g>
<!-- 25 -->
<g id="node26" class="node"><title>25</title>
<polygon fill="#8139e5" stroke="black" points="1384,-53 1278,-53 1278,-0 1384,-0 1384,-53"/>
<text text-anchor="middle" x="1331" y="-37.8" font-family="Times,serif" font-size="14.00">samples = 1</text>
<text text-anchor="middle" x="1331" y="-22.8" font-family="Times,serif" font-size="14.00">value = [0, 0, 1]</text>
<text text-anchor="middle" x="1331" y="-7.8" font-family="Times,serif" font-size="14.00">class = 1.0</text>
</g>
<!-- 23&#45;&gt;25 -->
<g id="edge25" class="edge"><title>23&#45;&gt;25</title>
<path fill="none" stroke="black" d="M1325.15,-88.9485C1325.94,-80.6238 1326.8,-71.6509 1327.6,-63.2027"/>
<polygon fill="black" stroke="black" points="1331.08,-63.5235 1328.55,-53.2367 1324.12,-62.8598 1331.08,-63.5235"/>
</g>
<!-- 27 -->
<g id="node28" class="node"><title>27</title>
<polygon fill="#8139e5" fill-opacity="0.458824" stroke="black" points="1592.5,-365 1371.5,-365 1371.5,-297 1592.5,-297 1592.5,-365"/>
<text text-anchor="middle" x="1482" y="-349.8" font-family="Times,serif" font-size="14.00">narrated_emotional_WN &lt;= 49.1168</text>
<text text-anchor="middle" x="1482" y="-334.8" font-family="Times,serif" font-size="14.00">samples = 33</text>
<text text-anchor="middle" x="1482" y="-319.8" font-family="Times,serif" font-size="14.00">value = [4, 9, 20]</text>
<text text-anchor="middle" x="1482" y="-304.8" font-family="Times,serif" font-size="14.00">class = 1.0</text>
</g>
<!-- 26&#45;&gt;27 -->
<g id="edge27" class="edge"><title>26&#45;&gt;27</title>
<path fill="none" stroke="black" d="M1482,-400.884C1482,-392.778 1482,-383.982 1482,-375.472"/>
<polygon fill="black" stroke="black" points="1485.5,-375.299 1482,-365.299 1478.5,-375.299 1485.5,-375.299"/>
</g>
<!-- 34 -->
<g id="node35" class="node"><title>34</title>
<polygon fill="#e58139" stroke="black" points="1716,-357.5 1610,-357.5 1610,-304.5 1716,-304.5 1716,-357.5"/>
<text text-anchor="middle" x="1663" y="-342.3" font-family="Times,serif" font-size="14.00">samples = 4</text>
<text text-anchor="middle" x="1663" y="-327.3" font-family="Times,serif" font-size="14.00">value = [4, 0, 0]</text>
<text text-anchor="middle" x="1663" y="-312.3" font-family="Times,serif" font-size="14.00">class = 0.0</text>
</g>
<!-- 26&#45;&gt;34 -->
<g id="edge34" class="edge"><title>26&#45;&gt;34</title>
<path fill="none" stroke="black" d="M1540.77,-400.884C1562.62,-388.566 1587.31,-374.655 1608.74,-362.575"/>
<polygon fill="black" stroke="black" points="1610.72,-365.479 1617.71,-357.52 1607.28,-359.38 1610.72,-365.479"/>
</g>
<!-- 28 -->
<g id="node29" class="node"><title>28</title>
<polygon fill="#8139e5" fill-opacity="0.584314" stroke="black" points="1580,-261 1384,-261 1384,-193 1580,-193 1580,-261"/>
<text text-anchor="middle" x="1482" y="-245.8" font-family="Times,serif" font-size="14.00">speech_neutral_WN &lt;= 24.1195</text>
<text text-anchor="middle" x="1482" y="-230.8" font-family="Times,serif" font-size="14.00">samples = 30</text>
<text text-anchor="middle" x="1482" y="-215.8" font-family="Times,serif" font-size="14.00">value = [4, 6, 20]</text>
<text text-anchor="middle" x="1482" y="-200.8" font-family="Times,serif" font-size="14.00">class = 1.0</text>
</g>
<!-- 27&#45;&gt;28 -->
<g id="edge28" class="edge"><title>27&#45;&gt;28</title>
<path fill="none" stroke="black" d="M1482,-296.884C1482,-288.778 1482,-279.982 1482,-271.472"/>
<polygon fill="black" stroke="black" points="1485.5,-271.299 1482,-261.299 1478.5,-271.299 1485.5,-271.299"/>
</g>
<!-- 33 -->
<g id="node34" class="node"><title>33</title>
<polygon fill="#39e581" stroke="black" points="1704,-253.5 1598,-253.5 1598,-200.5 1704,-200.5 1704,-253.5"/>
<text text-anchor="middle" x="1651" y="-238.3" font-family="Times,serif" font-size="14.00">samples = 3</text>
<text text-anchor="middle" x="1651" y="-223.3" font-family="Times,serif" font-size="14.00">value = [0, 3, 0]</text>
<text text-anchor="middle" x="1651" y="-208.3" font-family="Times,serif" font-size="14.00">class = 0.5</text>
</g>
<!-- 27&#45;&gt;33 -->
<g id="edge33" class="edge"><title>27&#45;&gt;33</title>
<path fill="none" stroke="black" d="M1536.87,-296.884C1557.19,-284.621 1580.12,-270.779 1600.07,-258.737"/>
<polygon fill="black" stroke="black" points="1601.96,-261.684 1608.72,-253.52 1598.35,-255.691 1601.96,-261.684"/>
</g>
<!-- 29 -->
<g id="node30" class="node"><title>29</title>
<polygon fill="#8139e5" fill-opacity="0.666667" stroke="black" points="1538.5,-157 1425.5,-157 1425.5,-89 1538.5,-89 1538.5,-157"/>
<text text-anchor="middle" x="1482" y="-141.8" font-family="Times,serif" font-size="14.00">section &lt;= 2.5</text>
<text text-anchor="middle" x="1482" y="-126.8" font-family="Times,serif" font-size="14.00">samples = 28</text>
<text text-anchor="middle" x="1482" y="-111.8" font-family="Times,serif" font-size="14.00">value = [4, 4, 20]</text>
<text text-anchor="middle" x="1482" y="-96.8" font-family="Times,serif" font-size="14.00">class = 1.0</text>
</g>
<!-- 28&#45;&gt;29 -->
<g id="edge29" class="edge"><title>28&#45;&gt;29</title>
<path fill="none" stroke="black" d="M1482,-192.884C1482,-184.778 1482,-175.982 1482,-167.472"/>
<polygon fill="black" stroke="black" points="1485.5,-167.299 1482,-157.299 1478.5,-167.299 1485.5,-167.299"/>
</g>
<!-- 32 -->
<g id="node33" class="node"><title>32</title>
<polygon fill="#39e581" stroke="black" points="1663,-149.5 1557,-149.5 1557,-96.5 1663,-96.5 1663,-149.5"/>
<text text-anchor="middle" x="1610" y="-134.3" font-family="Times,serif" font-size="14.00">samples = 2</text>
<text text-anchor="middle" x="1610" y="-119.3" font-family="Times,serif" font-size="14.00">value = [0, 2, 0]</text>
<text text-anchor="middle" x="1610" y="-104.3" font-family="Times,serif" font-size="14.00">class = 0.5</text>
</g>
<!-- 28&#45;&gt;32 -->
<g id="edge32" class="edge"><title>28&#45;&gt;32</title>
<path fill="none" stroke="black" d="M1523.56,-192.884C1538.46,-181.006 1555.23,-167.646 1570,-155.876"/>
<polygon fill="black" stroke="black" points="1572.34,-158.489 1577.97,-149.52 1567.97,-153.015 1572.34,-158.489"/>
</g>
<!-- 30 -->
<g id="node31" class="node"><title>30</title>
<polygon fill="#8139e5" fill-opacity="0.223529" stroke="black" points="1526,-53 1420,-53 1420,-0 1526,-0 1526,-53"/>
<text text-anchor="middle" x="1473" y="-37.8" font-family="Times,serif" font-size="14.00">samples = 13</text>
<text text-anchor="middle" x="1473" y="-22.8" font-family="Times,serif" font-size="14.00">value = [3, 4, 6]</text>
<text text-anchor="middle" x="1473" y="-7.8" font-family="Times,serif" font-size="14.00">class = 1.0</text>
</g>
<!-- 29&#45;&gt;30 -->
<g id="edge30" class="edge"><title>29&#45;&gt;30</title>
<path fill="none" stroke="black" d="M1478.85,-88.9485C1478.06,-80.6238 1477.2,-71.6509 1476.4,-63.2027"/>
<polygon fill="black" stroke="black" points="1479.88,-62.8598 1475.45,-53.2367 1472.92,-63.5235 1479.88,-62.8598"/>
</g>
<!-- 31 -->
<g id="node32" class="node"><title>31</title>
<polygon fill="#8139e5" fill-opacity="0.929412" stroke="black" points="1657.5,-53 1544.5,-53 1544.5,-0 1657.5,-0 1657.5,-53"/>
<text text-anchor="middle" x="1601" y="-37.8" font-family="Times,serif" font-size="14.00">samples = 15</text>
<text text-anchor="middle" x="1601" y="-22.8" font-family="Times,serif" font-size="14.00">value = [1, 0, 14]</text>
<text text-anchor="middle" x="1601" y="-7.8" font-family="Times,serif" font-size="14.00">class = 1.0</text>
</g>
<!-- 29&#45;&gt;31 -->
<g id="edge31" class="edge"><title>29&#45;&gt;31</title>
<path fill="none" stroke="black" d="M1523.62,-88.9485C1535.6,-79.4346 1548.65,-69.074 1560.56,-59.6175"/>
<polygon fill="black" stroke="black" points="1562.94,-62.1965 1568.59,-53.2367 1558.58,-56.7147 1562.94,-62.1965"/>
</g>
</g>
</svg>
